0, 0, Header, 0, 1, 384
1, 0, Start_track
1, 0, Title_t, "Alfie"
1, 0, Time_signature, 4, 2, 24, 8
1, 0, Tempo, 909090
1, 1, System_exclusive, 5, 126, 127, 9, 1, 247
1, 393, Program_c, 0, 1
1, 397, Control_c, 0, 7, 97
1, 397, Control_c, 0, 10, 27
1, 397, Control_c, 0, 11, 127
1, 401, Control_c, 0, 91, 64
1, 401, Control_c, 0, 93, 0
1, 413, Program_c, 1, 32
1, 417, Control_c, 1, 7, 100
1, 417, Control_c, 1, 10, 64
1, 417, Control_c, 1, 11, 127
1, 421, Control_c, 1, 91, 18
1, 421, Control_c, 1, 93, 0
1, 433, Program_c, 2, 11
1, 437, Control_c, 2, 7, 72
1, 437, Control_c, 2, 10, 64
1, 437, Control_c, 2, 11, 127
1, 441, Control_c, 2, 93, 8
1, 441, Control_c, 2, 91, 90
1, 453, Program_c, 3, 66
1, 457, Control_c, 3, 7, 90
1, 457, Control_c, 3, 10, 64
1, 457, Control_c, 3, 11, 127
1, 461, Control_c, 3, 91, 112
1, 461, Control_c, 3, 93, 0
1, 473, Program_c, 4, 52
1, 477, Control_c, 4, 7, 76
1, 477, Control_c, 4, 10, 64
1, 477, Control_c, 4, 11, 127
1, 481, Control_c, 4, 91, 96
1, 481, Control_c, 4, 93, 30
1, 493, Program_c, 5, 49
1, 497, Control_c, 5, 7, 80
1, 497, Control_c, 5, 10, 64
1, 497, Control_c, 5, 11, 127
1, 501, Control_c, 5, 91, 72
1, 501, Control_c, 5, 93, 0
1, 513, Program_c, 6, 24
1, 517, Control_c, 6, 7, 83
1, 517, Control_c, 6, 10, 100
1, 517, Control_c, 6, 11, 127
1, 521, Control_c, 6, 91, 88
1, 521, Control_c, 6, 93, 0
1, 533, Program_c, 7, 47
1, 537, Control_c, 7, 7, 100
1, 537, Control_c, 7, 10, 64
1, 537, Control_c, 7, 11, 127
1, 541, Control_c, 7, 91, 98
1, 541, Control_c, 7, 93, 0
1, 577, Control_c, 9, 11, 127
1, 577, Control_c, 9, 7, 90
1, 581, Control_c, 9, 91, 64
1, 581, Control_c, 9, 93, 0
1, 1536, Note_on_c, 9, 42, 63
1, 1545, Note_off_c, 9, 42, 63
1, 1920, Note_on_c, 9, 42, 62
1, 1929, Note_off_c, 9, 42, 62
1, 2304, Note_on_c, 9, 42, 62
1, 2313, Note_off_c, 9, 42, 62
1, 2688, Note_on_c, 9, 42, 61
1, 2697, Note_off_c, 9, 42, 61
1, 3072, Note_on_c, 0, 65, 80
1, 3072, Note_on_c, 0, 57, 80
1, 3072, Note_on_c, 0, 46, 86
1, 3072, Note_on_c, 0, 62, 84
1, 3073, Pitch_bend_c, 3, 1600
1, 3083, Pitch_bend_c, 3, 0
1, 3092, Note_on_c, 3, 65, 93
1, 3109, Pitch_bend_c, 3, 3456
1, 3125, Pitch_bend_c, 3, 7520
1, 3129, Control_c, 0, 64, 127
1, 3137, Pitch_bend_c, 3, 8000
1, 3139, Pitch_bend_c, 3, 8192
1, 3199, Note_off_c, 3, 65, 93
1, 3212, Note_on_c, 3, 63, 90
1, 3287, Note_off_c, 3, 63, 90
1, 3298, Note_on_c, 3, 62, 82
1, 3367, Note_off_c, 3, 62, 82
1, 3374, Note_on_c, 3, 63, 78
1, 3409, Note_off_c, 0, 57, 80
1, 3451, Note_off_c, 3, 63, 78
1, 3456, Note_on_c, 0, 57, 70
1, 3463, Pitch_bend_c, 3, 5536
1, 3475, Pitch_bend_c, 3, 1472
1, 3487, Pitch_bend_c, 3, 672
1, 3490, Note_on_c, 3, 65, 88
1, 3501, Pitch_bend_c, 3, 2976
1, 3505, Note_off_c, 0, 62, 84
1, 3509, Note_off_c, 0, 65, 80
1, 3515, Pitch_bend_c, 3, 5920
1, 3523, Note_off_c, 0, 57, 70
1, 3531, Pitch_bend_c, 3, 7840
1, 3543, Pitch_bend_c, 3, 8096
1, 3547, Pitch_bend_c, 3, 8192
1, 3675, Control_c, 3, 1, 4
1, 3695, Control_c, 3, 1, 7
1, 3719, Control_c, 3, 1, 9
1, 3777, Control_c, 3, 1, 10
1, 3785, Control_c, 3, 1, 14
1, 3811, Control_c, 3, 1, 16
1, 3821, Control_c, 3, 1, 18
1, 3835, Control_c, 3, 1, 10
1, 3840, Note_on_c, 0, 69, 83
1, 3840, Note_on_c, 0, 72, 85
1, 3840, Note_on_c, 0, 65, 77
1, 3840, Note_on_c, 0, 62, 80
1, 3853, Control_c, 3, 1, 6
1, 3873, Control_c, 3, 1, 6
1, 3889, Control_c, 3, 1, 8
1, 3919, Control_c, 3, 1, 6
1, 3925, Control_c, 3, 1, 0
1, 3961, Note_off_c, 0, 69, 83
1, 3967, Note_off_c, 0, 72, 85
1, 3969, Note_off_c, 0, 65, 77
1, 3981, Note_off_c, 0, 62, 80
1, 4143, Note_off_c, 0, 46, 86
1, 4224, Note_on_c, 0, 62, 76
1, 4224, Note_on_c, 0, 65, 64
1, 4224, Note_on_c, 0, 57, 65
1, 4281, Note_off_c, 0, 62, 76
1, 4303, Note_off_c, 0, 65, 64
1, 4307, Note_off_c, 0, 57, 65
1, 4563, Control_c, 3, 1, 1
1, 4607, Control_c, 3, 1, 0
1, 4608, Note_on_c, 0, 41, 87
1, 4608, Note_on_c, 0, 63, 77
1, 4608, Note_on_c, 0, 58, 77
1, 4608, Note_on_c, 0, 55, 71
1, 4613, Control_c, 0, 64, 0
1, 4617, Note_off_c, 3, 65, 88
1, 4636, Note_on_c, 3, 63, 102
1, 4687, Control_c, 3, 1, 1
1, 4701, Control_c, 3, 1, 4
1, 4717, Control_c, 3, 1, 8
1, 4733, Control_c, 0, 64, 127
1, 4735, Control_c, 3, 1, 12
1, 4755, Control_c, 3, 1, 16
1, 4771, Control_c, 3, 1, 11
1, 4789, Control_c, 3, 1, 2
1, 4805, Note_off_c, 3, 63, 102
1, 4809, Control_c, 3, 1, 0
1, 4824, Note_on_c, 3, 70, 100
1, 4827, Note_off_c, 0, 58, 77
1, 4829, Note_off_c, 0, 55, 71
1, 4841, Note_off_c, 0, 63, 77
1, 4883, Control_c, 3, 1, 3
1, 4901, Control_c, 3, 1, 6
1, 4959, Note_off_c, 3, 70, 100
1, 4965, Control_c, 3, 1, 7
1, 4987, Control_c, 3, 1, 13
1, 5004, Note_on_c, 3, 70, 108
1, 5005, Control_c, 3, 1, 18
1, 5023, Control_c, 3, 1, 23
1, 5045, Control_c, 3, 1, 26
1, 5059, Control_c, 3, 1, 30
1, 5079, Control_c, 3, 1, 31
1, 5113, Control_c, 3, 1, 32
1, 5137, Control_c, 3, 1, 33
1, 5155, Control_c, 3, 1, 34
1, 5179, Control_c, 3, 1, 36
1, 5184, Note_on_c, 0, 62, 75
1, 5205, Control_c, 3, 1, 27
1, 5223, Control_c, 3, 1, 23
1, 5243, Control_c, 3, 1, 18
1, 5265, Control_c, 3, 1, 21
1, 5271, Note_off_c, 0, 62, 75
1, 5279, Control_c, 3, 1, 24
1, 5280, Note_on_c, 0, 63, 76
1, 5295, Control_c, 3, 1, 29
1, 5315, Control_c, 3, 1, 33
1, 5333, Control_c, 3, 1, 31
1, 5341, Note_off_c, 0, 63, 76
1, 5349, Control_c, 3, 1, 5
1, 5365, Control_c, 3, 1, 0
1, 5376, Note_on_c, 0, 70, 87
1, 5376, Note_on_c, 0, 67, 92
1, 5376, Note_on_c, 0, 63, 76
1, 5395, Note_off_c, 3, 70, 108
1, 5443, Note_off_c, 0, 67, 92
1, 5449, Note_off_c, 0, 70, 87
1, 5451, Note_off_c, 0, 63, 76
1, 5549, Note_off_c, 0, 41, 87
1, 5910, Note_on_c, 3, 65, 106
1, 5913, Control_c, 3, 1, 4
1, 5923, Control_c, 3, 1, 11
1, 5941, Control_c, 3, 1, 13
1, 5961, Control_c, 3, 1, 14
1, 5979, Control_c, 3, 1, 19
1, 5995, Control_c, 3, 1, 24
1, 6013, Control_c, 3, 1, 28
1, 6017, Note_off_c, 3, 65, 106
1, 6031, Control_c, 3, 1, 30
1, 6040, Note_on_c, 3, 67, 88
1, 6049, Control_c, 3, 1, 21
1, 6067, Control_c, 3, 1, 4
1, 6085, Control_c, 3, 1, 0
1, 6139, Note_off_c, 3, 67, 88
1, 6144, Note_on_c, 0, 46, 94
1, 6144, Note_on_c, 0, 62, 87
1, 6144, Note_on_c, 0, 65, 82
1, 6144, Note_on_c, 0, 57, 77
1, 6161, Control_c, 3, 1, 4
1, 6163, Control_c, 0, 64, 0
1, 6164, Note_on_c, 3, 65, 101
1, 6175, Control_c, 3, 1, 11
1, 6193, Control_c, 3, 1, 14
1, 6227, Control_c, 3, 1, 15
1, 6237, Control_c, 3, 1, 16
1, 6251, Control_c, 3, 1, 20
1, 6265, Control_c, 3, 1, 21
1, 6283, Control_c, 3, 1, 23
1, 6295, Control_c, 0, 64, 127
1, 6301, Control_c, 3, 1, 29
1, 6319, Control_c, 3, 1, 33
1, 6337, Control_c, 3, 1, 37
1, 6355, Control_c, 3, 1, 29
1, 6373, Control_c, 3, 1, 10
1, 6391, Control_c, 3, 1, 2
1, 6409, Control_c, 3, 1, 0
1, 6437, Note_off_c, 0, 57, 77
1, 6439, Note_off_c, 0, 65, 82
1, 6443, Note_off_c, 0, 62, 87
1, 6483, Note_off_c, 3, 65, 101
1, 6528, Note_on_c, 0, 57, 66
1, 6553, Note_off_c, 0, 46, 94
1, 6624, Note_on_c, 0, 62, 73
1, 6639, Pitch_bend_c, 3, 6016
1, 6651, Pitch_bend_c, 3, 2880
1, 6658, Note_on_c, 3, 58, 82
1, 6665, Pitch_bend_c, 3, 4672
1, 6681, Pitch_bend_c, 3, 7392
1, 6693, Pitch_bend_c, 3, 8160
1, 6699, Pitch_bend_c, 3, 8192
1, 6719, Note_off_c, 0, 57, 66
1, 6720, Note_on_c, 0, 65, 61
1, 6721, Note_off_c, 0, 62, 73
1, 6785, Note_off_c, 3, 58, 82
1, 6799, Note_off_c, 0, 65, 61
1, 6820, Note_on_c, 3, 69, 114
1, 6869, Control_c, 3, 1, 6
1, 6877, Control_c, 3, 1, 12
1, 6901, Control_c, 3, 1, 3
1, 6911, Note_off_c, 3, 69, 114
1, 6912, Note_on_c, 0, 53, 85
1, 6912, Note_on_c, 0, 58, 83
1, 6912, Note_on_c, 0, 62, 87
1, 6912, Note_on_c, 0, 43, 87
1, 6913, Control_c, 3, 1, 0
1, 6923, Control_c, 0, 64, 0
1, 6944, Note_on_c, 3, 67, 94
1, 6967, Control_c, 3, 1, 10
1, 6985, Control_c, 3, 1, 18
1, 7003, Control_c, 3, 1, 26
1, 7023, Control_c, 3, 1, 28
1, 7031, Control_c, 0, 64, 127
1, 7045, Control_c, 3, 1, 30
1, 7057, Control_c, 3, 1, 31
1, 7077, Control_c, 3, 1, 29
1, 7095, Control_c, 3, 1, 32
1, 7119, Note_off_c, 3, 67, 94
1, 7131, Control_c, 3, 1, 37
1, 7144, Note_on_c, 3, 57, 88
1, 7167, Control_c, 3, 1, 30
1, 7185, Control_c, 3, 1, 29
1, 7209, Control_c, 3, 1, 30
1, 7213, Note_off_c, 0, 53, 85
1, 7219, Control_c, 3, 1, 33
1, 7247, Control_c, 3, 1, 33
1, 7259, Control_c, 3, 1, 38
1, 7275, Note_off_c, 0, 62, 87
1, 7277, Control_c, 3, 1, 43
1, 7287, Note_off_c, 0, 58, 83
1, 7296, Note_on_c, 0, 53, 55
1, 7299, Control_c, 3, 1, 41
1, 7309, Control_c, 3, 1, 33
1, 7327, Control_c, 3, 1, 24
1, 7349, Control_c, 3, 1, 21
1, 7363, Control_c, 3, 1, 18
1, 7381, Control_c, 3, 1, 15
1, 7431, Control_c, 3, 1, 16
1, 7435, Control_c, 3, 1, 21
1, 7459, Control_c, 3, 1, 22
1, 7471, Control_c, 3, 1, 10
1, 7488, Note_on_c, 0, 62, 70
1, 7491, Control_c, 3, 1, 0
1, 7493, Note_off_c, 0, 53, 55
1, 7501, Note_off_c, 0, 43, 87
1, 7529, Note_off_c, 0, 62, 70
1, 7551, Note_off_c, 3, 57, 88
1, 7568, Note_on_c, 3, 58, 96
1, 7667, Note_off_c, 3, 58, 96
1, 7671, Pitch_bend_c, 3, 7872
1, 7673, Pitch_bend_c, 3, 2816
1, 7680, Note_on_c, 0, 45, 101
1, 7680, Note_on_c, 0, 60, 89
1, 7680, Note_on_c, 0, 64, 91
1, 7680, Note_on_c, 0, 55, 87
1, 7680, Note_on_c, 1, 33, 103
1, 7680, Note_on_c, 5, 45, 107
1, 7680, Note_on_c, 9, 35, 87
1, 7680, Note_on_c, 9, 51, 71
1, 7686, Note_on_c, 3, 60, 96
1, 7687, Control_c, 0, 64, 0
1, 7689, Note_off_c, 9, 51, 71
1, 7689, Note_off_c, 9, 35, 87
1, 7689, Pitch_bend_c, 3, 576
1, 7701, Pitch_bend_c, 3, 256
1, 7715, Pitch_bend_c, 3, 3040
1, 7731, Pitch_bend_c, 3, 6560
1, 7743, Pitch_bend_c, 3, 8160
1, 7751, Pitch_bend_c, 3, 8192
1, 7805, Control_c, 0, 64, 127
1, 7877, Control_c, 3, 1, 3
1, 7885, Control_c, 3, 1, 9
1, 7903, Control_c, 3, 1, 12
1, 7949, Control_c, 3, 1, 10
1, 7957, Note_off_c, 0, 55, 87
1, 7977, Note_off_c, 0, 64, 91
1, 7977, Note_off_c, 0, 60, 89
1, 7977, Control_c, 3, 1, 12
1, 7997, Control_c, 3, 1, 10
1, 8007, Note_off_c, 0, 45, 101
1, 8029, Control_c, 3, 1, 12
1, 8049, Control_c, 3, 1, 13
1, 8064, Note_on_c, 0, 55, 71
1, 8064, Note_on_c, 5, 55, 92
1, 8064, Note_on_c, 5, 60, 93
1, 8064, Note_on_c, 9, 51, 73
1, 8064, Note_on_c, 9, 37, 76
1, 8065, Control_c, 3, 1, 15
1, 8073, Note_off_c, 9, 37, 76
1, 8073, Note_off_c, 9, 51, 73
1, 8115, Control_c, 3, 1, 13
1, 8121, Control_c, 3, 1, 5
1, 8141, Control_c, 3, 1, 4
1, 8177, Control_c, 3, 1, 1
1, 8179, Note_off_c, 1, 33, 103
1, 8207, Control_c, 3, 1, 0
1, 8223, Note_off_c, 0, 55, 71
1, 8233, Control_c, 3, 1, 1
1, 8245, Control_c, 3, 1, 3
1, 8256, Note_on_c, 0, 64, 73
1, 8256, Note_on_c, 1, 33, 95
1, 8256, Note_on_c, 9, 35, 71
1, 8265, Note_off_c, 9, 35, 71
1, 8277, Control_c, 3, 1, 4
1, 8291, Control_c, 3, 1, 5
1, 8299, Control_c, 3, 1, 5
1, 8307, Note_off_c, 0, 64, 73
1, 8317, Control_c, 3, 1, 0
1, 8345, Note_off_c, 5, 45, 107
1, 8375, Note_off_c, 3, 60, 96
1, 8433, Note_off_c, 1, 33, 95
1, 8445, Note_off_c, 5, 60, 93
1, 8445, Note_off_c, 5, 55, 92
1, 8448, Note_on_c, 0, 60, 85
1, 8448, Note_on_c, 0, 56, 76
1, 8448, Note_on_c, 0, 38, 94
1, 8448, Note_on_c, 0, 64, 76
1, 8448, Note_on_c, 1, 38, 106
1, 8448, Note_on_c, 5, 54, 101
1, 8448, Note_on_c, 5, 38, 121
1, 8448, Note_on_c, 5, 60, 110
1, 8448, Note_on_c, 9, 35, 94
1, 8448, Note_on_c, 9, 51, 79
1, 8449, Control_c, 0, 64, 0
1, 8457, Note_off_c, 9, 51, 79
1, 8457, Note_off_c, 9, 35, 94
1, 8553, Control_c, 0, 64, 127
1, 8640, Note_on_c, 9, 51, 61
1, 8649, Note_off_c, 9, 51, 61
1, 8649, Note_off_c, 0, 60, 85
1, 8657, Note_off_c, 0, 64, 76
1, 8661, Note_off_c, 0, 56, 76
1, 8767, Pitch_bend_c, 3, 5376
1, 8779, Pitch_bend_c, 3, 512
1, 8793, Pitch_bend_c, 3, 0
1, 8800, Note_on_c, 3, 62, 100
1, 8809, Note_off_c, 1, 38, 106
1, 8809, Pitch_bend_c, 3, 2240
1, 8823, Pitch_bend_c, 3, 6496
1, 8832, Note_on_c, 0, 57, 87
1, 8832, Note_on_c, 1, 38, 100
1, 8832, Note_on_c, 9, 51, 82
1, 8832, Note_on_c, 9, 37, 90
1, 8835, Pitch_bend_c, 3, 8000
1, 8841, Note_off_c, 9, 37, 90
1, 8841, Note_off_c, 9, 51, 82
1, 8843, Pitch_bend_c, 3, 8192
1, 8899, Note_off_c, 0, 57, 87
1, 8963, Note_off_c, 0, 38, 94
1, 8985, Note_off_c, 3, 62, 100
1, 9020, Note_on_c, 3, 65, 102
1, 9024, Note_on_c, 9, 51, 70
1, 9033, Note_off_c, 9, 51, 70
1, 9043, Control_c, 3, 1, 3
1, 9059, Control_c, 3, 1, 5
1, 9073, Control_c, 3, 1, 11
1, 9091, Control_c, 3, 1, 19
1, 9109, Control_c, 3, 1, 28
1, 9129, Control_c, 3, 1, 31
1, 9149, Control_c, 3, 1, 14
1, 9163, Control_c, 3, 1, 0
1, 9167, Note_off_c, 1, 38, 100
1, 9183, Note_off_c, 3, 65, 102
1, 9201, Pitch_bend_c, 3, 4672
1, 9205, Control_c, 0, 64, 0
1, 9206, Note_on_c, 6, 51, 100
1, 9213, Note_off_c, 5, 60, 110
1, 9213, Note_off_c, 5, 38, 121
1, 9213, Note_off_c, 5, 54, 101
1, 9213, Pitch_bend_c, 3, 1760
1, 9216, Note_on_c, 0, 36, 89
1, 9216, Note_on_c, 0, 55, 85
1, 9216, Note_on_c, 0, 58, 84
1, 9216, Note_on_c, 0, 63, 86
1, 9216, Note_on_c, 1, 36, 103
1, 9216, Note_on_c, 5, 48, 113
1, 9216, Note_on_c, 5, 58, 101
1, 9216, Note_on_c, 5, 62, 110
1, 9216, Note_on_c, 5, 51, 105
1, 9216, Note_on_c, 9, 51, 90
1, 9216, Note_on_c, 9, 35, 98
1, 9225, Note_off_c, 9, 35, 98
1, 9225, Note_off_c, 9, 51, 90
1, 9227, Pitch_bend_c, 3, 512
1, 9228, Note_on_c, 3, 74, 109
1, 9230, Note_on_c, 6, 55, 85
1, 9245, Pitch_bend_c, 3, 1280
1, 9255, Pitch_bend_c, 3, 5472
1, 9260, Note_on_c, 6, 58, 82
1, 9271, Pitch_bend_c, 3, 8096
1, 9282, Note_on_c, 6, 62, 85
1, 9283, Pitch_bend_c, 3, 8192
1, 9319, Control_c, 0, 64, 127
1, 9381, Note_off_c, 0, 58, 84
1, 9387, Note_off_c, 0, 55, 85
1, 9399, Note_off_c, 3, 74, 109
1, 9401, Note_off_c, 0, 63, 86
1, 9408, Note_on_c, 9, 51, 63
1, 9417, Note_off_c, 9, 51, 63
1, 9420, Note_on_c, 3, 70, 100
1, 9501, Note_off_c, 3, 70, 100
1, 9530, Note_on_c, 3, 70, 101
1, 9541, Control_c, 3, 1, 9
1, 9561, Control_c, 3, 1, 15
1, 9575, Note_off_c, 6, 62, 85
1, 9577, Control_c, 3, 1, 23
1, 9581, Note_off_c, 6, 58, 82
1, 9585, Note_off_c, 6, 55, 85
1, 9595, Control_c, 3, 1, 29
1, 9600, Note_on_c, 9, 51, 88
1, 9600, Note_on_c, 9, 37, 101
1, 9609, Note_off_c, 9, 37, 101
1, 9609, Note_off_c, 9, 51, 88
1, 9614, Note_on_c, 6, 58, 82
1, 9615, Control_c, 3, 1, 36
1, 9616, Note_on_c, 6, 55, 66
1, 9616, Note_on_c, 6, 62, 83
1, 9639, Control_c, 3, 1, 38
1, 9649, Control_c, 3, 1, 39
1, 9657, Note_off_c, 6, 62, 83
1, 9657, Note_off_c, 6, 58, 82
1, 9667, Note_off_c, 6, 55, 66
1, 9669, Control_c, 3, 1, 22
1, 9685, Control_c, 3, 1, 10
1, 9707, Control_c, 3, 1, 8
1, 9721, Control_c, 3, 1, 13
1, 9739, Control_c, 3, 1, 18
1, 9749, Note_off_c, 1, 36, 103
1, 9761, Control_c, 3, 1, 6
1, 9775, Control_c, 3, 1, 5
1, 9782, Note_on_c, 6, 55, 65
1, 9786, Note_on_c, 6, 58, 69
1, 9788, Note_on_c, 6, 62, 60
1, 9792, Note_on_c, 0, 62, 93
1, 9792, Note_on_c, 1, 36, 97
1, 9792, Note_on_c, 9, 51, 70
1, 9792, Note_on_c, 9, 35, 75
1, 9793, Control_c, 3, 1, 8
1, 9801, Note_off_c, 9, 35, 75
1, 9801, Note_off_c, 9, 51, 70
1, 9811, Control_c, 3, 1, 13
1, 9829, Note_off_c, 6, 58, 69
1, 9829, Control_c, 3, 1, 19
1, 9831, Note_off_c, 6, 62, 60
1, 9831, Note_off_c, 6, 55, 65
1, 9851, Control_c, 3, 1, 24
1, 9865, Note_off_c, 6, 51, 100
1, 9865, Control_c, 3, 1, 30
1, 9883, Note_off_c, 0, 62, 93
1, 9885, Control_c, 3, 1, 33
1, 9888, Note_on_c, 0, 63, 87
1, 9903, Control_c, 3, 1, 31
1, 9921, Control_c, 3, 1, 21
1, 9923, Note_off_c, 0, 63, 87
1, 9937, Control_c, 3, 1, 12
1, 9941, Note_off_c, 1, 36, 97
1, 9948, Note_on_c, 6, 55, 73
1, 9962, Note_on_c, 6, 51, 79
1, 9963, Control_c, 3, 1, 7
1, 9975, Control_c, 3, 1, 3
1, 9978, Note_on_c, 6, 58, 72
1, 9984, Note_on_c, 0, 70, 100
1, 9984, Note_on_c, 1, 36, 103
1, 9984, Note_on_c, 9, 35, 101
1, 9984, Note_on_c, 9, 51, 92
1, 9991, Control_c, 3, 1, 0
1, 9993, Note_off_c, 9, 51, 92
1, 9993, Note_off_c, 9, 35, 101
1, 10014, Note_on_c, 6, 62, 89
1, 10031, Note_off_c, 3, 70, 101
1, 10041, Note_off_c, 0, 70, 100
1, 10043, Pitch_bend_c, 3, 5856
1, 10055, Pitch_bend_c, 3, 1120
1, 10067, Pitch_bend_c, 3, 0
1, 10070, Note_on_c, 3, 72, 107
1, 10091, Pitch_bend_c, 3, 896
1, 10097, Pitch_bend_c, 3, 3392
1, 10109, Pitch_bend_c, 3, 6720
1, 10123, Pitch_bend_c, 3, 8160
1, 10131, Pitch_bend_c, 3, 8192
1, 10145, Note_off_c, 6, 62, 89
1, 10176, Note_on_c, 9, 51, 57
1, 10184, Note_on_c, 6, 62, 83
1, 10185, Note_off_c, 9, 51, 57
1, 10207, Control_c, 3, 1, 13
1, 10225, Control_c, 3, 1, 19
1, 10243, Control_c, 3, 1, 23
1, 10261, Control_c, 3, 1, 25
1, 10279, Control_c, 3, 1, 27
1, 10305, Control_c, 3, 1, 28
1, 10321, Note_off_c, 6, 62, 83
1, 10327, Note_off_c, 6, 55, 73
1, 10331, Note_off_c, 6, 58, 72
1, 10345, Control_c, 3, 1, 29
1, 10361, Control_c, 3, 1, 31
1, 10368, Note_on_c, 0, 58, 63
1, 10368, Note_on_c, 0, 67, 68
1, 10368, Note_on_c, 0, 63, 70
1, 10368, Note_on_c, 9, 51, 96
1, 10368, Note_on_c, 9, 37, 101
1, 10372, Note_on_c, 6, 55, 74
1, 10374, Note_on_c, 6, 62, 74
1, 10374, Note_on_c, 6, 58, 81
1, 10377, Note_off_c, 9, 37, 101
1, 10377, Note_off_c, 9, 51, 96
1, 10383, Control_c, 3, 1, 29
1, 10389, Control_c, 3, 1, 20
1, 10409, Control_c, 3, 1, 15
1, 10413, Note_off_c, 0, 63, 70
1, 10425, Control_c, 3, 1, 12
1, 10437, Note_off_c, 6, 62, 74
1, 10437, Note_off_c, 0, 58, 63
1, 10439, Note_off_c, 6, 58, 81
1, 10439, Note_off_c, 0, 67, 68
1, 10443, Note_off_c, 0, 36, 89
1, 10445, Control_c, 3, 1, 9
1, 10447, Note_off_c, 6, 55, 74
1, 10473, Control_c, 3, 1, 8
1, 10479, Control_c, 3, 1, 2
1, 10501, Control_c, 3, 1, 0
1, 10531, Note_off_c, 6, 51, 79
1, 10556, Note_on_c, 6, 62, 74
1, 10556, Note_on_c, 6, 58, 75
1, 10558, Note_on_c, 6, 55, 70
1, 10560, Note_on_c, 9, 51, 57
1, 10569, Note_off_c, 9, 51, 57
1, 10593, Note_off_c, 6, 58, 75
1, 10603, Note_off_c, 6, 62, 74
1, 10603, Note_off_c, 3, 72, 107
1, 10604, Note_on_c, 3, 70, 78
1, 10613, Note_off_c, 6, 55, 70
1, 10657, Note_off_c, 3, 70, 78
1, 10668, Note_on_c, 3, 69, 87
1, 10703, Note_off_c, 1, 36, 103
1, 10722, Note_on_c, 3, 70, 70
1, 10722, Note_on_c, 6, 53, 81
1, 10725, Note_off_c, 3, 69, 87
1, 10725, Note_off_c, 5, 58, 101
1, 10748, Note_on_c, 6, 57, 84
1, 10749, Note_off_c, 5, 51, 105
1, 10749, Note_off_c, 5, 48, 113
1, 10752, Note_on_c, 0, 57, 87
1, 10752, Note_on_c, 0, 38, 96
1, 10752, Note_on_c, 0, 60, 87
1, 10752, Note_on_c, 0, 65, 85
1, 10752, Note_on_c, 1, 38, 111
1, 10752, Note_on_c, 5, 60, 102
1, 10752, Note_on_c, 5, 53, 101
1, 10752, Note_on_c, 9, 35, 102
1, 10752, Note_on_c, 9, 51, 87
1, 10753, Note_off_c, 5, 62, 110
1, 10761, Note_off_c, 9, 51, 87
1, 10761, Note_off_c, 9, 35, 102
1, 10761, Control_c, 0, 64, 0
1, 10773, Note_off_c, 3, 70, 70
1, 10775, Pitch_bend_c, 3, 7680
1, 10781, Pitch_bend_c, 3, 3936
1, 10782, Note_on_c, 6, 60, 85
1, 10795, Pitch_bend_c, 3, 736
1, 10802, Note_on_c, 3, 72, 100
1, 10811, Pitch_bend_c, 3, 576
1, 10825, Pitch_bend_c, 3, 2720
1, 10837, Pitch_bend_c, 3, 6880
1, 10851, Pitch_bend_c, 3, 8160
1, 10861, Pitch_bend_c, 3, 8192
1, 10905, Control_c, 0, 64, 127
1, 10944, Note_on_c, 9, 51, 70
1, 10953, Note_off_c, 9, 51, 70
1, 10977, Control_c, 3, 1, 1
1, 10981, Control_c, 3, 1, 6
1, 11001, Control_c, 3, 1, 10
1, 11023, Control_c, 3, 1, 13
1, 11037, Control_c, 3, 1, 15
1, 11047, Note_off_c, 0, 57, 87
1, 11055, Control_c, 3, 1, 17
1, 11063, Note_off_c, 6, 53, 81
1, 11081, Control_c, 3, 1, 15
1, 11091, Control_c, 3, 1, 9
1, 11105, Note_off_c, 0, 60, 87
1, 11107, Note_off_c, 6, 60, 85
1, 11107, Note_off_c, 6, 57, 84
1, 11107, Control_c, 3, 1, 3
1, 11112, Note_on_c, 6, 53, 81
1, 11127, Control_c, 3, 1, 2
1, 11129, Note_off_c, 0, 65, 85
1, 11136, Note_on_c, 0, 57, 65
1, 11136, Note_on_c, 5, 45, 107
1, 11136, Note_on_c, 9, 37, 108
1, 11136, Note_on_c, 9, 51, 94
1, 11138, Note_on_c, 6, 57, 72
1, 11145, Note_off_c, 9, 51, 94
1, 11145, Note_off_c, 9, 37, 108
1, 11159, Control_c, 3, 1, 1
1, 11170, Note_on_c, 6, 60, 81
1, 11173, Control_c, 3, 1, 0
1, 11219, Note_off_c, 0, 38, 96
1, 11301, Note_off_c, 1, 38, 111
1, 11327, Note_off_c, 3, 72, 100
1, 11328, Note_on_c, 0, 65, 58
1, 11328, Note_on_c, 1, 38, 96
1, 11328, Note_on_c, 9, 35, 77
1, 11328, Note_on_c, 9, 51, 65
1, 11329, Note_off_c, 0, 57, 65
1, 11329, Note_off_c, 6, 53, 81
1, 11337, Note_off_c, 9, 51, 65
1, 11337, Note_off_c, 9, 35, 77
1, 11340, Note_on_c, 3, 65, 99
1, 11356, Note_on_c, 6, 53, 68
1, 11373, Note_off_c, 0, 65, 58
1, 11424, Note_on_c, 0, 38, 55
1, 11453, Note_off_c, 6, 57, 72
1, 11455, Note_off_c, 6, 53, 68
1, 11461, Control_c, 3, 1, 1
1, 11465, Note_off_c, 1, 38, 96
1, 11467, Note_off_c, 5, 53, 101
1, 11477, Note_off_c, 3, 65, 99
1, 11477, Control_c, 3, 1, 3
1, 11485, Note_off_c, 0, 38, 55
1, 11485, Control_c, 3, 1, 9
1, 11501, Note_off_c, 6, 60, 81
1, 11503, Note_off_c, 5, 60, 102
1, 11503, Control_c, 3, 1, 15
1, 11510, Note_on_c, 6, 53, 78
1, 11517, Note_off_c, 5, 45, 107
1, 11517, Control_c, 0, 64, 0
1, 11518, Note_on_c, 3, 65, 99
1, 11520, Note_on_c, 0, 53, 70
1, 11520, Note_on_c, 0, 62, 78
1, 11520, Note_on_c, 0, 58, 75
1, 11520, Note_on_c, 0, 43, 87
1, 11520, Note_on_c, 1, 43, 105
1, 11520, Note_on_c, 5, 53, 96
1, 11520, Note_on_c, 5, 58, 113
1, 11520, Note_on_c, 5, 43, 118
1, 11520, Note_on_c, 9, 35, 99
1, 11520, Note_on_c, 9, 51, 88
1, 11521, Control_c, 3, 1, 21
1, 11529, Note_off_c, 9, 51, 88
1, 11529, Note_off_c, 9, 35, 99
1, 11534, Note_on_c, 6, 58, 79
1, 11541, Control_c, 3, 1, 28
1, 11557, Control_c, 3, 1, 31
1, 11579, Control_c, 3, 1, 31
1, 11595, Control_c, 3, 1, 35
1, 11617, Control_c, 3, 1, 36
1, 11659, Control_c, 0, 64, 127
1, 11663, Control_c, 3, 1, 37
1, 11667, Control_c, 3, 1, 38
1, 11685, Control_c, 3, 1, 26
1, 11701, Control_c, 3, 1, 13
1, 11712, Note_on_c, 9, 51, 57
1, 11721, Note_off_c, 9, 51, 57
1, 11721, Control_c, 3, 1, 4
1, 11739, Control_c, 3, 1, 2
1, 11759, Control_c, 3, 1, 3
1, 11779, Control_c, 3, 1, 0
1, 11809, Note_off_c, 3, 65, 99
1, 11833, Note_off_c, 6, 53, 78
1, 11841, Note_off_c, 0, 53, 70
1, 11859, Note_off_c, 6, 58, 79
1, 11862, Note_on_c, 6, 43, 80
1, 11878, Note_on_c, 6, 53, 80
1, 11904, Note_on_c, 0, 53, 48
1, 11904, Note_on_c, 9, 37, 104
1, 11904, Note_on_c, 9, 51, 89
1, 11912, Note_on_c, 6, 58, 80
1, 11913, Note_off_c, 9, 51, 89
1, 11913, Note_off_c, 9, 37, 104
1, 11927, Note_off_c, 0, 43, 87
1, 12079, Note_off_c, 0, 53, 48
1, 12081, Note_off_c, 0, 62, 78
1, 12089, Note_off_c, 0, 58, 75
1, 12096, Note_on_c, 9, 51, 56
1, 12105, Note_off_c, 9, 51, 56
1, 12193, Note_off_c, 6, 43, 80
1, 12211, Note_off_c, 6, 53, 80
1, 12251, Note_off_c, 6, 58, 80
1, 12260, Note_on_c, 6, 48, 88
1, 12263, Pitch_bend_c, 3, 8160
1, 12265, Pitch_bend_c, 3, 4576
1, 12281, Pitch_bend_c, 3, 1760
1, 12283, Note_off_c, 1, 43, 105
1, 12285, Note_off_c, 5, 43, 118
1, 12285, Note_off_c, 5, 58, 113
1, 12285, Note_off_c, 5, 53, 96
1, 12287, Control_c, 0, 64, 0
1, 12288, Note_on_c, 0, 36, 91
1, 12288, Note_on_c, 0, 58, 75
1, 12288, Note_on_c, 0, 63, 80
1, 12288, Note_on_c, 0, 55, 74
1, 12288, Note_on_c, 1, 36, 113
1, 12288, Note_on_c, 5, 51, 112
1, 12288, Note_on_c, 5, 36, 113
1, 12288, Note_on_c, 5, 58, 117
1, 12288, Note_on_c, 9, 51, 82
1, 12288, Note_on_c, 9, 35, 103
1, 12293, Pitch_bend_c, 3, 896
1, 12296, Note_on_c, 3, 67, 98
1, 12297, Note_off_c, 9, 35, 103
1, 12297, Note_off_c, 9, 51, 82
1, 12307, Pitch_bend_c, 3, 2272
1, 12314, Note_on_c, 6, 58, 83
1, 12321, Pitch_bend_c, 3, 5632
1, 12337, Pitch_bend_c, 3, 7936
1, 12349, Pitch_bend_c, 3, 8160
1, 12351, Pitch_bend_c, 3, 8192
1, 12352, Note_on_c, 6, 63, 81
1, 12479, Control_c, 0, 64, 127
1, 12480, Note_on_c, 9, 51, 56
1, 12481, Note_off_c, 3, 67, 98
1, 12489, Note_off_c, 9, 51, 56
1, 12494, Note_on_c, 3, 60, 92
1, 12573, Note_off_c, 0, 63, 80
1, 12583, Note_off_c, 0, 58, 75
1, 12609, Note_off_c, 0, 55, 74
1, 12623, Control_c, 3, 1, 1
1, 12647, Control_c, 3, 1, 2
1, 12659, Note_off_c, 3, 60, 92
1, 12672, Note_on_c, 0, 62, 87
1, 12672, Note_on_c, 9, 37, 107
1, 12672, Note_on_c, 9, 51, 92
1, 12674, Note_on_c, 3, 62, 92
1, 12679, Control_c, 3, 1, 4
1, 12681, Note_off_c, 9, 51, 92
1, 12681, Note_off_c, 9, 37, 107
1, 12693, Control_c, 3, 1, 8
1, 12711, Control_c, 3, 1, 12
1, 12731, Control_c, 3, 1, 16
1, 12745, Control_c, 3, 1, 16
1, 12759, Note_off_c, 0, 62, 87
1, 12763, Control_c, 3, 1, 11
1, 12799, Control_c, 3, 1, 15
1, 12825, Control_c, 3, 1, 17
1, 12849, Control_c, 3, 1, 18
1, 12855, Note_off_c, 1, 36, 113
1, 12855, Control_c, 3, 1, 22
1, 12864, Note_on_c, 1, 36, 69
1, 12864, Note_on_c, 9, 51, 64
1, 12864, Note_on_c, 9, 35, 81
1, 12873, Note_off_c, 9, 35, 81
1, 12873, Note_off_c, 9, 51, 64
1, 12873, Control_c, 3, 1, 24
1, 12893, Control_c, 3, 1, 18
1, 12909, Control_c, 3, 1, 13
1, 12927, Control_c, 3, 1, 10
1, 12947, Control_c, 3, 1, 13
1, 12961, Control_c, 3, 1, 16
1, 12989, Control_c, 3, 1, 17
1, 13009, Note_off_c, 1, 36, 69
1, 13013, Control_c, 3, 1, 18
1, 13021, Control_c, 3, 1, 11
1, 13033, Control_c, 3, 1, 3
1, 13047, Note_off_c, 3, 62, 92
1, 13051, Control_c, 3, 1, 1
1, 13056, Note_on_c, 0, 63, 75
1, 13056, Note_on_c, 0, 55, 63
1, 13056, Note_on_c, 0, 58, 70
1, 13056, Note_on_c, 1, 36, 94
1, 13056, Note_on_c, 9, 35, 100
1, 13056, Note_on_c, 9, 51, 89
1, 13065, Note_off_c, 9, 51, 89
1, 13065, Note_off_c, 9, 35, 100
1, 13068, Note_on_c, 3, 63, 98
1, 13069, Control_c, 3, 1, 0
1, 13137, Note_off_c, 0, 63, 75
1, 13149, Note_off_c, 0, 55, 63
1, 13151, Note_off_c, 0, 58, 70
1, 13161, Control_c, 3, 1, 1
1, 13185, Control_c, 3, 1, 3
1, 13203, Control_c, 3, 1, 5
1, 13213, Control_c, 3, 1, 8
1, 13235, Control_c, 3, 1, 11
1, 13243, Note_off_c, 3, 63, 98
1, 13248, Note_on_c, 0, 65, 70
1, 13248, Note_on_c, 9, 51, 70
1, 13254, Note_on_c, 3, 65, 90
1, 13257, Note_off_c, 9, 51, 70
1, 13265, Control_c, 3, 1, 12
1, 13267, Control_c, 3, 1, 14
1, 13289, Note_off_c, 0, 65, 70
1, 13321, Note_off_c, 0, 36, 91
1, 13325, Control_c, 3, 1, 17
1, 13343, Control_c, 3, 1, 20
1, 13357, Control_c, 3, 1, 5
1, 13377, Control_c, 3, 1, 0
1, 13399, Note_off_c, 3, 65, 90
1, 13401, Pitch_bend_c, 3, 5216
1, 13413, Pitch_bend_c, 3, 1440
1, 13427, Pitch_bend_c, 3, 832
1, 13438, Note_on_c, 3, 67, 98
1, 13440, Note_on_c, 0, 67, 83
1, 13440, Note_on_c, 9, 51, 92
1, 13440, Note_on_c, 9, 37, 102
1, 13443, Pitch_bend_c, 3, 2432
1, 13449, Note_off_c, 9, 37, 102
1, 13449, Note_off_c, 9, 51, 92
1, 13455, Pitch_bend_c, 3, 5920
1, 13469, Pitch_bend_c, 3, 8032
1, 13485, Pitch_bend_c, 3, 8160
1, 13487, Pitch_bend_c, 3, 8192
1, 13537, Note_off_c, 0, 67, 83
1, 13623, Control_c, 3, 1, 2
1, 13631, Control_c, 3, 1, 6
1, 13632, Note_on_c, 0, 36, 70
1, 13632, Note_on_c, 9, 51, 62
1, 13641, Note_off_c, 9, 51, 62
1, 13649, Control_c, 3, 1, 10
1, 13665, Control_c, 3, 1, 13
1, 13679, Note_off_c, 6, 48, 88
1, 13685, Control_c, 3, 1, 9
1, 13689, Note_off_c, 6, 58, 83
1, 13699, Control_c, 3, 1, 7
1, 13711, Note_off_c, 6, 63, 81
1, 13719, Control_c, 3, 1, 9
1, 13737, Control_c, 3, 1, 11
1, 13759, Control_c, 3, 1, 12
1, 13771, Control_c, 3, 1, 9
1, 13773, Note_off_c, 0, 36, 70
1, 13773, Control_c, 0, 64, 0
1, 13785, Note_off_c, 1, 36, 94
1, 13789, Control_c, 3, 1, 5
1, 13795, Note_off_c, 3, 67, 98
1, 13807, Control_c, 3, 1, 2
1, 13816, Note_on_c, 6, 41, 106
1, 13821, Note_off_c, 5, 58, 117
1, 13821, Note_off_c, 5, 36, 113
1, 13821, Note_off_c, 5, 51, 112
1, 13824, Note_on_c, 0, 64, 85
1, 13824, Note_on_c, 0, 61, 79
1, 13824, Note_on_c, 0, 69, 87
1, 13824, Note_on_c, 0, 36, 85
1, 13824, Note_on_c, 1, 41, 94
1, 13824, Note_on_c, 5, 57, 105
1, 13824, Note_on_c, 5, 36, 118
1, 13824, Note_on_c, 5, 52, 101
1, 13824, Note_on_c, 5, 61, 104
1, 13824, Note_on_c, 9, 51, 84
1, 13824, Note_on_c, 9, 35, 102
1, 13825, Control_c, 0, 64, 127
1, 13827, Control_c, 3, 1, 7
1, 13830, Note_on_c, 3, 67, 105
1, 13833, Note_off_c, 9, 35, 102
1, 13833, Note_off_c, 9, 51, 84
1, 13843, Control_c, 3, 1, 12
1, 13861, Control_c, 3, 1, 15
1, 13881, Control_c, 3, 1, 18
1, 13897, Control_c, 3, 1, 19
1, 13925, Control_c, 3, 1, 18
1, 13941, Control_c, 3, 1, 20
1, 13953, Control_c, 0, 64, 127
1, 13973, Note_off_c, 0, 61, 79
1, 13997, Note_off_c, 3, 67, 105
1, 14001, Control_c, 3, 1, 21
1, 14011, Control_c, 3, 1, 23
1, 14014, Note_on_c, 3, 72, 94
1, 14016, Note_on_c, 0, 61, 70
1, 14016, Note_on_c, 9, 51, 69
1, 14025, Note_off_c, 9, 51, 69
1, 14037, Control_c, 3, 1, 21
1, 14043, Control_c, 3, 1, 15
1, 14057, Note_off_c, 0, 64, 85
1, 14063, Control_c, 3, 1, 18
1, 14087, Control_c, 3, 1, 19
1, 14089, Note_off_c, 0, 69, 87
1, 14099, Control_c, 3, 1, 22
1, 14113, Control_c, 3, 1, 23
1, 14129, Note_off_c, 0, 61, 70
1, 14131, Control_c, 3, 1, 22
1, 14149, Control_c, 3, 1, 15
1, 14167, Control_c, 3, 1, 2
1, 14174, Note_on_c, 6, 55, 68
1, 14174, Note_on_c, 6, 57, 68
1, 14185, Note_off_c, 3, 72, 94
1, 14185, Control_c, 3, 1, 0
1, 14197, Note_off_c, 6, 55, 68
1, 14202, Note_on_c, 3, 69, 99
1, 14208, Note_on_c, 0, 64, 55
1, 14208, Note_on_c, 9, 51, 95
1, 14208, Note_on_c, 9, 37, 112
1, 14210, Note_on_c, 6, 64, 91
1, 14217, Note_off_c, 9, 37, 112
1, 14217, Note_off_c, 9, 51, 95
1, 14265, Control_c, 3, 1, 4
1, 14277, Control_c, 3, 1, 8
1, 14293, Control_c, 3, 1, 11
1, 14311, Control_c, 3, 1, 13
1, 14333, Control_c, 3, 1, 15
1, 14337, Note_off_c, 0, 64, 55
1, 14371, Control_c, 3, 1, 16
1, 14391, Control_c, 3, 1, 18
1, 14400, Note_on_c, 0, 61, 73
1, 14400, Note_on_c, 1, 29, 96
1, 14400, Note_on_c, 9, 51, 68
1, 14400, Note_on_c, 9, 35, 80
1, 14403, Note_off_c, 1, 41, 94
1, 14409, Note_off_c, 9, 35, 80
1, 14409, Note_off_c, 9, 51, 68
1, 14409, Control_c, 3, 1, 19
1, 14421, Control_c, 3, 1, 23
1, 14455, Control_c, 3, 1, 21
1, 14483, Control_c, 3, 1, 19
1, 14509, Control_c, 3, 1, 21
1, 14531, Control_c, 3, 1, 23
1, 14533, Note_off_c, 6, 41, 106
1, 14539, Note_off_c, 5, 36, 118
1, 14543, Note_off_c, 1, 29, 96
1, 14559, Note_off_c, 0, 61, 73
1, 14573, Control_c, 3, 1, 24
1, 14592, Note_on_c, 0, 69, 85
1, 14592, Note_on_c, 1, 29, 98
1, 14592, Note_on_c, 5, 41, 109
1, 14592, Note_on_c, 9, 35, 109
1, 14592, Note_on_c, 9, 51, 90
1, 14597, Control_c, 3, 1, 23
1, 14601, Note_off_c, 9, 51, 90
1, 14601, Note_off_c, 9, 35, 109
1, 14601, Control_c, 3, 1, 14
1, 14614, Note_on_c, 6, 41, 97
1, 14617, Control_c, 3, 1, 3
1, 14637, Control_c, 3, 1, 0
1, 14723, Note_off_c, 3, 69, 99
1, 14725, Note_off_c, 0, 69, 85
1, 14743, Note_off_c, 6, 57, 68
1, 14783, Note_off_c, 6, 64, 91
1, 14784, Note_on_c, 9, 51, 60
1, 14790, Note_on_c, 6, 57, 81
1, 14793, Note_off_c, 9, 51, 60
1, 14826, Note_on_c, 6, 64, 77
1, 14963, Pitch_bend_c, 3, 7680
1, 14967, Pitch_bend_c, 3, 3840
1, 14976, Note_on_c, 0, 70, 87
1, 14976, Note_on_c, 9, 37, 104
1, 14976, Note_on_c, 9, 51, 91
1, 14985, Note_off_c, 9, 51, 91
1, 14985, Note_off_c, 9, 37, 104
1, 14985, Pitch_bend_c, 3, 2272
1, 14988, Note_on_c, 3, 70, 96
1, 14995, Pitch_bend_c, 3, 2720
1, 15011, Pitch_bend_c, 3, 5120
1, 15025, Pitch_bend_c, 3, 7456
1, 15033, Note_off_c, 0, 70, 87
1, 15037, Pitch_bend_c, 3, 8096
1, 15043, Pitch_bend_c, 3, 8192
1, 15091, Note_off_c, 0, 36, 85
1, 15147, Note_off_c, 6, 57, 81
1, 15168, Note_on_c, 9, 51, 61
1, 15172, Note_on_c, 6, 57, 42
1, 15177, Note_off_c, 9, 51, 61
1, 15299, Note_off_c, 6, 41, 97
1, 15311, Control_c, 0, 64, 0
1, 15319, Note_off_c, 1, 29, 98
1, 15337, Note_off_c, 3, 70, 96
1, 15357, Note_off_c, 5, 41, 109
1, 15357, Note_off_c, 5, 61, 104
1, 15357, Note_off_c, 5, 52, 101
1, 15357, Note_off_c, 5, 57, 105
1, 15360, Note_on_c, 0, 67, 87
1, 15360, Note_on_c, 0, 58, 73
1, 15360, Note_on_c, 0, 63, 82
1, 15360, Note_on_c, 0, 36, 81
1, 15360, Note_on_c, 1, 36, 107
1, 15360, Note_on_c, 5, 51, 97
1, 15360, Note_on_c, 5, 58, 95
1, 15360, Note_on_c, 5, 36, 100
1, 15360, Note_on_c, 9, 51, 87
1, 15360, Note_on_c, 9, 35, 106
1, 15364, Note_on_c, 3, 67, 91
1, 15364, Note_on_c, 6, 48, 111
1, 15369, Note_off_c, 9, 35, 106
1, 15369, Note_off_c, 9, 51, 87
1, 15373, Note_off_c, 6, 64, 77
1, 15379, Note_off_c, 6, 57, 42
1, 15405, Control_c, 3, 1, 1
1, 15417, Control_c, 3, 1, 2
1, 15423, Control_c, 0, 64, 127
1, 15429, Control_c, 3, 1, 3
1, 15459, Control_c, 3, 1, 2
1, 15463, Note_off_c, 0, 58, 73
1, 15465, Control_c, 3, 1, 0
1, 15471, Note_off_c, 0, 63, 82
1, 15477, Note_off_c, 0, 67, 87
1, 15521, Control_c, 3, 1, 1
1, 15543, Control_c, 3, 1, 2
1, 15549, Note_off_c, 3, 67, 91
1, 15552, Note_on_c, 0, 60, 83
1, 15552, Note_on_c, 9, 51, 63
1, 15561, Note_off_c, 9, 51, 63
1, 15567, Control_c, 3, 1, 3
1, 15573, Control_c, 3, 1, 5
1, 15574, Note_on_c, 3, 60, 91
1, 15597, Control_c, 3, 1, 7
1, 15611, Control_c, 3, 1, 9
1, 15625, Control_c, 3, 1, 16
1, 15643, Control_c, 3, 1, 24
1, 15651, Note_off_c, 0, 60, 83
1, 15661, Control_c, 3, 1, 32
1, 15672, Note_on_c, 6, 55, 72
1, 15681, Control_c, 3, 1, 39
1, 15697, Control_c, 3, 1, 44
1, 15702, Note_on_c, 6, 58, 79
1, 15727, Control_c, 3, 1, 42
1, 15733, Control_c, 3, 1, 31
1, 15744, Note_on_c, 0, 62, 80
1, 15744, Note_on_c, 9, 37, 104
1, 15744, Note_on_c, 9, 51, 94
1, 15751, Control_c, 3, 1, 26
1, 15752, Note_on_c, 6, 63, 79
1, 15753, Note_off_c, 9, 51, 94
1, 15753, Note_off_c, 9, 37, 104
1, 15775, Control_c, 3, 1, 22
1, 15791, Control_c, 3, 1, 16
1, 15825, Control_c, 3, 1, 12
1, 15837, Note_off_c, 0, 62, 80
1, 15841, Note_off_c, 3, 60, 91
1, 15841, Control_c, 3, 1, 10
1, 15852, Note_on_c, 3, 62, 84
1, 15859, Control_c, 3, 1, 9
1, 15877, Control_c, 3, 1, 12
1, 15897, Control_c, 3, 1, 15
1, 15915, Control_c, 3, 1, 17
1, 15923, Note_off_c, 1, 36, 107
1, 15935, Control_c, 3, 1, 18
1, 15936, Note_on_c, 0, 63, 59
1, 15936, Note_on_c, 1, 36, 95
1, 15936, Note_on_c, 9, 51, 71
1, 15936, Note_on_c, 9, 35, 91
1, 15945, Note_off_c, 9, 35, 91
1, 15945, Note_off_c, 9, 51, 71
1, 15971, Control_c, 3, 1, 14
1, 15987, Note_off_c, 0, 63, 59
1, 15995, Control_c, 3, 1, 11
1, 15997, Note_off_c, 3, 62, 84
1, 16003, Control_c, 3, 1, 3
1, 16008, Note_on_c, 3, 63, 77
1, 16021, Control_c, 3, 1, 0
1, 16041, Note_off_c, 3, 63, 77
1, 16066, Note_on_c, 3, 65, 76
1, 16067, Note_off_c, 6, 48, 111
1, 16093, Note_off_c, 1, 36, 95
1, 16119, Note_off_c, 3, 65, 76
1, 16126, Note_on_c, 6, 48, 91
1, 16127, Pitch_bend_c, 3, 8160
1, 16128, Note_on_c, 0, 65, 83
1, 16128, Note_on_c, 1, 36, 107
1, 16128, Note_on_c, 9, 51, 87
1, 16128, Note_on_c, 9, 35, 103
1, 16131, Pitch_bend_c, 3, 5536
1, 16132, Note_on_c, 3, 67, 98
1, 16137, Note_off_c, 9, 35, 103
1, 16137, Note_off_c, 9, 51, 87
1, 16143, Pitch_bend_c, 3, 1856
1, 16157, Pitch_bend_c, 3, 1440
1, 16171, Pitch_bend_c, 3, 3392
1, 16185, Pitch_bend_c, 3, 7296
1, 16199, Pitch_bend_c, 3, 8160
1, 16205, Pitch_bend_c, 3, 8192
1, 16219, Note_off_c, 0, 65, 83
1, 16320, Note_on_c, 9, 51, 64
1, 16329, Note_off_c, 9, 51, 64
1, 16363, Control_c, 3, 1, 3
1, 16381, Control_c, 3, 1, 5
1, 16399, Control_c, 3, 1, 7
1, 16417, Control_c, 3, 1, 9
1, 16435, Note_off_c, 6, 55, 72
1, 16437, Control_c, 3, 1, 12
1, 16463, Control_c, 3, 1, 14
1, 16473, Note_off_c, 6, 58, 79
1, 16479, Control_c, 3, 1, 16
1, 16484, Note_on_c, 6, 55, 68
1, 16487, Note_off_c, 6, 63, 79
1, 16495, Control_c, 3, 1, 18
1, 16509, Control_c, 3, 1, 18
1, 16512, Note_on_c, 0, 58, 77
1, 16512, Note_on_c, 0, 67, 83
1, 16512, Note_on_c, 0, 63, 82
1, 16512, Note_on_c, 9, 37, 102
1, 16512, Note_on_c, 9, 51, 100
1, 16514, Note_on_c, 6, 58, 75
1, 16521, Note_off_c, 9, 51, 100
1, 16521, Note_off_c, 9, 37, 102
1, 16525, Control_c, 3, 1, 14
1, 16547, Control_c, 3, 1, 13
1, 16548, Note_on_c, 6, 63, 72
1, 16561, Control_c, 3, 1, 15
1, 16575, Note_off_c, 0, 63, 82
1, 16583, Note_off_c, 0, 58, 77
1, 16585, Note_off_c, 0, 67, 83
1, 16585, Control_c, 3, 1, 16
1, 16603, Control_c, 3, 1, 17
1, 16615, Note_off_c, 0, 36, 81
1, 16625, Control_c, 3, 1, 18
1, 16637, Control_c, 3, 1, 11
1, 16653, Control_c, 3, 1, 6
1, 16671, Control_c, 3, 1, 4
1, 16699, Control_c, 3, 1, 3
1, 16704, Note_on_c, 9, 51, 69
1, 16707, Control_c, 3, 1, 2
1, 16711, Note_off_c, 6, 55, 68
1, 16713, Note_off_c, 9, 51, 69
1, 16715, Note_off_c, 6, 58, 75
1, 16723, Control_c, 3, 1, 0
1, 16745, Note_off_c, 6, 63, 72
1, 16871, Note_off_c, 6, 48, 91
1, 16877, Note_off_c, 3, 67, 98
1, 16879, Pitch_bend_c, 3, 7392
1, 16882, Note_on_c, 6, 41, 98
1, 16885, Pitch_bend_c, 3, 3296
1, 16887, Note_off_c, 1, 36, 107
1, 16893, Note_off_c, 5, 36, 100
1, 16893, Note_off_c, 5, 58, 95
1, 16893, Note_off_c, 5, 51, 97
1, 16896, Tempo, 1000000
1, 16896, Note_on_c, 0, 41, 90
1, 16896, Note_on_c, 0, 58, 77
1, 16896, Note_on_c, 0, 63, 77
1, 16896, Note_on_c, 0, 67, 86
1, 16896, Note_on_c, 1, 29, 113
1, 16896, Note_on_c, 5, 58, 84
1, 16896, Note_on_c, 5, 63, 91
1, 16896, Note_on_c, 5, 67, 91
1, 16896, Note_on_c, 9, 51, 91
1, 16896, Note_on_c, 9, 35, 105
1, 16901, Pitch_bend_c, 3, 1600
1, 16905, Note_off_c, 9, 35, 105
1, 16905, Note_off_c, 9, 51, 91
1, 16910, Note_on_c, 3, 67, 106
1, 16912, Note_on_c, 6, 58, 72
1, 16913, Pitch_bend_c, 3, 1280
1, 16929, Pitch_bend_c, 3, 1792
1, 16934, Note_on_c, 6, 63, 83
1, 16941, Pitch_bend_c, 3, 3776
1, 16957, Pitch_bend_c, 3, 5952
1, 16965, Control_c, 0, 64, 127
1, 16968, Note_on_c, 6, 67, 91
1, 16969, Pitch_bend_c, 3, 8096
1, 16985, Pitch_bend_c, 3, 8192
1, 17191, Note_off_c, 0, 58, 77
1, 17193, Control_c, 3, 1, 2
1, 17213, Control_c, 3, 1, 5
1, 17227, Note_off_c, 0, 67, 86
1, 17237, Note_off_c, 0, 63, 77
1, 17237, Control_c, 3, 1, 6
1, 17249, Control_c, 3, 1, 8
1, 17275, Control_c, 3, 1, 9
1, 17280, Note_on_c, 0, 58, 71
1, 17283, Control_c, 3, 1, 10
1, 17299, Control_c, 3, 1, 12
1, 17329, Control_c, 3, 1, 13
1, 17335, Control_c, 3, 1, 15
1, 17353, Control_c, 3, 1, 17
1, 17397, Control_c, 3, 1, 18
1, 17417, Note_off_c, 0, 58, 71
1, 17419, Control_c, 3, 1, 19
1, 17493, Note_off_c, 0, 41, 90
1, 17523, Control_c, 3, 1, 20
1, 17551, Control_c, 3, 1, 15
1, 17571, Control_c, 3, 1, 8
1, 17587, Control_c, 3, 1, 0
1, 17605, Note_off_c, 6, 41, 98
1, 17613, Note_off_c, 6, 58, 72
1, 17631, Note_off_c, 6, 63, 83
1, 17633, Note_off_c, 6, 67, 91
1, 17633, Note_off_c, 5, 58, 84
1, 17637, Note_off_c, 3, 67, 106
1, 17657, Control_c, 0, 64, 0
1, 17664, Tempo, 1090900
1, 17664, Note_on_c, 0, 57, 76
1, 17664, Note_on_c, 0, 41, 87
1, 17664, Note_on_c, 0, 63, 82
1, 17664, Note_on_c, 0, 67, 87
1, 17664, Note_on_c, 1, 41, 91
1, 17664, Note_on_c, 5, 57, 80
1, 17664, Note_on_c, 5, 74, 83
1, 17664, Note_on_c, 9, 51, 100
1, 17664, Note_on_c, 9, 35, 91
1, 17667, Note_off_c, 1, 29, 113
1, 17673, Note_off_c, 9, 35, 91
1, 17673, Note_off_c, 9, 51, 100
1, 17680, Note_on_c, 6, 41, 84
1, 17702, Note_on_c, 6, 57, 78
1, 17748, Note_on_c, 6, 63, 73
1, 17909, Control_c, 0, 64, 127
1, 18048, Tempo, 1200000
1, 18171, Note_off_c, 0, 41, 87
1, 18201, Note_off_c, 0, 67, 87
1, 18219, Note_off_c, 6, 41, 84
1, 18229, Note_off_c, 0, 63, 82
1, 18263, Note_off_c, 0, 57, 76
1, 18289, Note_off_c, 6, 57, 78
1, 18297, Note_off_c, 6, 63, 73
1, 18397, Note_off_c, 5, 74, 83
1, 18407, Note_off_c, 5, 63, 91
1, 18413, Note_off_c, 1, 41, 91
1, 18413, Note_off_c, 5, 67, 91
1, 18415, Control_c, 0, 64, 0
1, 18429, Note_off_c, 5, 57, 80
1, 18432, Tempo, 909090
1, 18432, Note_on_c, 0, 57, 78
1, 18432, Note_on_c, 0, 34, 91
1, 18432, Note_on_c, 0, 62, 87
1, 18432, Note_on_c, 0, 65, 70
1, 18432, Note_on_c, 1, 34, 112
1, 18432, Note_on_c, 2, 65, 84
1, 18432, Note_on_c, 5, 57, 100
1, 18432, Note_on_c, 5, 62, 111
1, 18432, Note_on_c, 5, 46, 117
1, 18432, Note_on_c, 6, 46, 104
1, 18432, Note_on_c, 9, 51, 94
1, 18432, Note_on_c, 9, 35, 93
1, 18438, Note_on_c, 6, 57, 87
1, 18441, Note_off_c, 9, 35, 93
1, 18441, Note_off_c, 9, 51, 94
1, 18446, Note_on_c, 3, 65, 95
1, 18454, Note_on_c, 6, 62, 85
1, 18483, Control_c, 2, 64, 127
1, 18485, Control_c, 3, 1, 1
1, 18489, Control_c, 3, 1, 9
1, 18500, Note_on_c, 6, 65, 86
1, 18501, Note_off_c, 2, 65, 84
1, 18505, Control_c, 3, 1, 16
1, 18525, Control_c, 3, 1, 23
1, 18541, Control_c, 3, 1, 29
1, 18561, Control_c, 3, 1, 31
1, 18581, Control_c, 3, 1, 31
1, 18593, Control_c, 0, 64, 127
1, 18597, Control_c, 3, 1, 31
1, 18615, Control_c, 3, 1, 34
1, 18624, Note_on_c, 2, 62, 87
1, 18624, Note_on_c, 9, 51, 54
1, 18633, Note_off_c, 9, 51, 54
1, 18639, Control_c, 3, 1, 32
1, 18651, Control_c, 3, 1, 29
1, 18653, Note_off_c, 3, 65, 95
1, 18666, Note_on_c, 3, 63, 89
1, 18669, Control_c, 3, 1, 20
1, 18675, Note_off_c, 2, 62, 87
1, 18685, Control_c, 3, 1, 15
1, 18709, Control_c, 3, 1, 20
1, 18715, Note_off_c, 0, 65, 70
1, 18719, Note_off_c, 0, 62, 87
1, 18721, Control_c, 3, 1, 25
1, 18733, Note_off_c, 0, 57, 78
1, 18739, Control_c, 3, 1, 30
1, 18757, Control_c, 3, 1, 32
1, 18775, Control_c, 3, 1, 20
1, 18795, Control_c, 3, 1, 2
1, 18811, Control_c, 3, 1, 0
1, 18816, Note_on_c, 0, 57, 83
1, 18816, Note_on_c, 2, 57, 74
1, 18816, Note_on_c, 9, 51, 101
1, 18816, Note_on_c, 9, 37, 110
1, 18825, Note_off_c, 9, 37, 110
1, 18825, Note_off_c, 9, 51, 101
1, 18873, Note_off_c, 2, 57, 74
1, 18879, Control_c, 3, 1, 1
1, 18883, Control_c, 3, 1, 5
1, 18903, Control_c, 3, 1, 7
1, 18919, Control_c, 3, 1, 9
1, 18935, Note_off_c, 6, 57, 87
1, 18937, Control_c, 3, 1, 12
1, 18941, Note_off_c, 3, 63, 89
1, 18949, Note_off_c, 6, 65, 86
1, 18949, Note_off_c, 6, 62, 85
1, 18955, Note_off_c, 1, 34, 112
1, 18962, Note_on_c, 3, 62, 96
1, 18978, Note_on_c, 6, 57, 75
1, 18991, Control_c, 3, 1, 3
1, 19004, Note_on_c, 6, 62, 71
1, 19008, Note_on_c, 0, 62, 81
1, 19008, Note_on_c, 1, 34, 112
1, 19008, Note_on_c, 2, 62, 75
1, 19008, Note_on_c, 9, 51, 55
1, 19017, Note_off_c, 9, 51, 55
1, 19021, Note_off_c, 6, 46, 104
1, 19023, Control_c, 3, 1, 1
1, 19026, Note_on_c, 6, 65, 80
1, 19029, Note_off_c, 0, 57, 83
1, 19031, Control_c, 3, 1, 0
1, 19039, Note_off_c, 2, 62, 75
1, 19045, Note_off_c, 3, 62, 96
1, 19052, Note_on_c, 3, 63, 91
1, 19055, Note_off_c, 6, 57, 75
1, 19057, Note_off_c, 0, 62, 81
1, 19061, Note_off_c, 6, 62, 71
1, 19067, Note_off_c, 6, 65, 80
1, 19145, Note_off_c, 3, 63, 91
1, 19151, Pitch_bend_c, 3, 7936
1, 19155, Pitch_bend_c, 3, 4000
1, 19159, Note_off_c, 1, 34, 112
1, 19167, Pitch_bend_c, 3, 320
1, 19173, Note_off_c, 5, 57, 100
1, 19176, Note_on_c, 3, 65, 99
1, 19181, Pitch_bend_c, 3, 0
1, 19182, Note_on_c, 6, 55, 71
1, 19199, Control_c, 0, 64, 0
1, 19199, Pitch_bend_c, 3, 1056
1, 19200, Note_on_c, 0, 62, 86
1, 19200, Note_on_c, 0, 65, 83
1, 19200, Note_on_c, 0, 55, 78
1, 19200, Note_on_c, 1, 34, 107
1, 19200, Note_on_c, 2, 69, 91
1, 19200, Note_on_c, 5, 55, 123
1, 19200, Note_on_c, 6, 62, 74
1, 19200, Note_on_c, 9, 51, 79
1, 19209, Note_off_c, 9, 51, 79
1, 19209, Pitch_bend_c, 3, 5152
1, 19223, Pitch_bend_c, 3, 8032
1, 19230, Note_on_c, 6, 65, 78
1, 19235, Pitch_bend_c, 3, 8192
1, 19259, Note_off_c, 2, 69, 91
1, 19323, Control_c, 0, 64, 127
1, 19353, Control_c, 3, 1, 5
1, 19371, Control_c, 3, 1, 9
1, 19387, Note_off_c, 6, 55, 71
1, 19392, Note_on_c, 9, 51, 55
1, 19395, Control_c, 3, 1, 10
1, 19401, Note_off_c, 9, 51, 55
1, 19407, Control_c, 3, 1, 12
1, 19424, Note_on_c, 6, 55, 37
1, 19437, Note_off_c, 0, 34, 91
1, 19441, Control_c, 3, 1, 9
1, 19459, Control_c, 3, 1, 12
1, 19465, Note_off_c, 0, 62, 86
1, 19469, Note_off_c, 0, 55, 78
1, 19477, Note_off_c, 0, 65, 83
1, 19481, Control_c, 3, 1, 13
1, 19488, Note_on_c, 2, 70, 84
1, 19495, Control_c, 3, 1, 15
1, 19523, Note_off_c, 6, 65, 78
1, 19523, Note_off_c, 6, 62, 74
1, 19525, Control_c, 3, 1, 14
1, 19529, Note_off_c, 2, 70, 84
1, 19543, Control_c, 3, 1, 15
1, 19563, Control_c, 3, 1, 16
1, 19584, Note_on_c, 0, 55, 64
1, 19584, Note_on_c, 9, 51, 98
1, 19584, Note_on_c, 9, 37, 113
1, 19590, Note_on_c, 6, 62, 85
1, 19593, Note_off_c, 9, 37, 113
1, 19593, Note_off_c, 9, 51, 98
1, 19597, Control_c, 3, 1, 14
1, 19605, Control_c, 3, 1, 5
1, 19606, Note_on_c, 6, 65, 99
1, 19623, Control_c, 3, 1, 3
1, 19651, Note_off_c, 6, 62, 85
1, 19659, Note_off_c, 6, 65, 99
1, 19659, Note_off_c, 6, 55, 37
1, 19671, Control_c, 3, 1, 2
1, 19677, Control_c, 3, 1, 0
1, 19723, Note_off_c, 3, 65, 99
1, 19776, Note_on_c, 0, 65, 81
1, 19776, Note_on_c, 2, 72, 86
1, 19776, Note_on_c, 9, 51, 56
1, 19776, Note_on_c, 9, 35, 76
1, 19785, Note_off_c, 9, 35, 76
1, 19785, Note_off_c, 9, 51, 56
1, 19786, Note_on_c, 6, 65, 82
1, 19786, Note_on_c, 6, 62, 69
1, 19786, Note_on_c, 6, 55, 61
1, 19789, Note_off_c, 0, 55, 64
1, 19813, Note_off_c, 2, 72, 86
1, 19819, Note_off_c, 0, 65, 81
1, 19821, Note_off_c, 6, 62, 69
1, 19827, Note_off_c, 6, 65, 82
1, 19831, Note_off_c, 6, 55, 61
1, 19940, Note_on_c, 6, 55, 74
1, 19943, Note_off_c, 5, 46, 117
1, 19951, Note_off_c, 5, 62, 111
1, 19953, Control_c, 0, 64, 0
1, 19956, Note_on_c, 6, 58, 73
1, 19965, Note_off_c, 5, 55, 123
1, 19968, Note_on_c, 0, 58, 73
1, 19968, Note_on_c, 0, 55, 75
1, 19968, Note_on_c, 0, 63, 74
1, 19968, Note_on_c, 0, 48, 69
1, 19968, Note_on_c, 1, 41, 99
1, 19968, Note_on_c, 2, 67, 84
1, 19968, Note_on_c, 5, 41, 109
1, 19968, Note_on_c, 5, 63, 98
1, 19968, Note_on_c, 5, 58, 104
1, 19968, Note_on_c, 5, 55, 97
1, 19968, Note_on_c, 9, 35, 107
1, 19968, Note_on_c, 9, 51, 91
1, 19977, Note_off_c, 9, 51, 91
1, 19977, Note_off_c, 9, 35, 107
1, 19979, Note_off_c, 1, 34, 107
1, 19982, Note_on_c, 3, 63, 89
1, 19984, Note_on_c, 6, 63, 79
1, 19995, Control_c, 3, 1, 2
1, 19999, Control_c, 3, 1, 11
1, 20003, Control_c, 2, 64, 0
1, 20017, Control_c, 3, 1, 18
1, 20035, Control_c, 3, 1, 21
1, 20059, Control_c, 3, 1, 23
1, 20087, Control_c, 2, 64, 127
1, 20101, Control_c, 3, 1, 25
1, 20109, Control_c, 3, 1, 12
1, 20111, Control_c, 0, 64, 127
1, 20125, Control_c, 3, 1, 2
1, 20143, Control_c, 3, 1, 0
1, 20160, Note_on_c, 9, 51, 53
1, 20169, Note_off_c, 9, 51, 53
1, 20185, Note_off_c, 3, 63, 89
1, 20187, Pitch_bend_c, 3, 8160
1, 20189, Pitch_bend_c, 3, 4960
1, 20205, Pitch_bend_c, 3, 3200
1, 20206, Note_on_c, 3, 70, 102
1, 20217, Pitch_bend_c, 3, 3616
1, 20221, Note_off_c, 0, 48, 69
1, 20225, Note_off_c, 6, 55, 74
1, 20231, Pitch_bend_c, 3, 6112
1, 20247, Pitch_bend_c, 3, 8096
1, 20255, Note_off_c, 0, 58, 73
1, 20257, Pitch_bend_c, 3, 8192
1, 20259, Note_off_c, 0, 55, 75
1, 20261, Note_off_c, 0, 63, 74
1, 20291, Note_off_c, 6, 63, 79
1, 20291, Note_off_c, 6, 58, 73
1, 20298, Note_on_c, 6, 55, 74
1, 20333, Note_off_c, 2, 67, 84
1, 20352, Note_on_c, 0, 55, 77
1, 20352, Note_on_c, 0, 41, 75
1, 20352, Note_on_c, 9, 51, 98
1, 20352, Note_on_c, 9, 37, 110
1, 20354, Note_on_c, 6, 58, 94
1, 20360, Note_on_c, 6, 63, 100
1, 20361, Note_off_c, 9, 37, 110
1, 20361, Note_off_c, 9, 51, 98
1, 20361, Note_off_c, 3, 70, 102
1, 20391, Note_off_c, 6, 58, 94
1, 20396, Note_on_c, 3, 70, 105
1, 20397, Note_off_c, 6, 55, 74
1, 20401, Note_off_c, 6, 63, 100
1, 20449, Control_c, 3, 1, 2
1, 20475, Control_c, 3, 1, 4
1, 20493, Control_c, 3, 1, 5
1, 20501, Note_off_c, 1, 41, 99
1, 20511, Control_c, 3, 1, 6
1, 20544, Note_on_c, 0, 48, 76
1, 20544, Note_on_c, 1, 29, 97
1, 20544, Note_on_c, 2, 63, 67
1, 20544, Note_on_c, 9, 51, 50
1, 20545, Note_off_c, 0, 55, 77
1, 20548, Note_on_c, 6, 55, 59
1, 20553, Note_off_c, 9, 51, 50
1, 20556, Note_on_c, 6, 58, 67
1, 20563, Control_c, 3, 1, 8
1, 20579, Control_c, 3, 1, 11
1, 20587, Note_off_c, 6, 58, 67
1, 20591, Note_off_c, 2, 63, 67
1, 20593, Note_off_c, 6, 55, 59
1, 20595, Control_c, 3, 1, 15
1, 20625, Control_c, 3, 1, 16
1, 20633, Control_c, 3, 1, 18
1, 20651, Control_c, 3, 1, 20
1, 20671, Control_c, 3, 1, 21
1, 20689, Note_off_c, 1, 29, 97
1, 20691, Control_c, 3, 1, 23
1, 20717, Control_c, 3, 1, 24
1, 20735, Control_c, 3, 1, 25
1, 20736, Note_on_c, 0, 58, 91
1, 20736, Note_on_c, 0, 55, 89
1, 20736, Note_on_c, 0, 63, 86
1, 20736, Note_on_c, 1, 29, 109
1, 20736, Note_on_c, 2, 58, 79
1, 20736, Note_on_c, 9, 51, 87
1, 20740, Note_on_c, 6, 55, 56
1, 20745, Note_off_c, 9, 51, 87
1, 20746, Note_on_c, 6, 58, 67
1, 20757, Control_c, 3, 1, 27
1, 20774, Note_on_c, 6, 63, 61
1, 20779, Note_off_c, 2, 58, 79
1, 20781, Control_c, 3, 1, 28
1, 20813, Control_c, 3, 1, 24
1, 20827, Control_c, 3, 1, 23
1, 20845, Control_c, 3, 1, 16
1, 20859, Note_off_c, 0, 48, 76
1, 20865, Control_c, 3, 1, 11
1, 20881, Control_c, 3, 1, 8
1, 20885, Note_off_c, 0, 55, 89
1, 20887, Note_off_c, 0, 63, 86
1, 20887, Note_off_c, 0, 58, 91
1, 20895, Note_off_c, 6, 55, 56
1, 20899, Control_c, 3, 1, 4
1, 20928, Note_on_c, 9, 51, 50
1, 20937, Note_off_c, 9, 51, 50
1, 20938, Note_on_c, 6, 55, 60
1, 20943, Control_c, 3, 1, 2
1, 20945, Note_off_c, 0, 41, 75
1, 20957, Control_c, 3, 1, 0
1, 21009, Note_off_c, 6, 55, 60
1, 21051, Note_off_c, 6, 63, 61
1, 21053, Note_off_c, 6, 58, 67
1, 21053, Note_off_c, 3, 70, 105
1, 21074, Note_on_c, 6, 55, 80
1, 21118, Note_on_c, 6, 58, 89
1, 21120, Note_on_c, 0, 67, 74
1, 21120, Note_on_c, 9, 37, 108
1, 21120, Note_on_c, 9, 51, 97
1, 21129, Note_off_c, 9, 51, 97
1, 21129, Note_off_c, 9, 37, 108
1, 21132, Note_on_c, 6, 63, 87
1, 21169, Note_off_c, 6, 58, 89
1, 21173, Note_off_c, 6, 63, 87
1, 21179, Note_off_c, 6, 55, 80
1, 21209, Note_off_c, 0, 67, 74
1, 21285, Note_off_c, 1, 29, 109
1, 21296, Note_on_c, 6, 55, 59
1, 21300, Note_on_c, 6, 58, 62
1, 21310, Note_on_c, 6, 63, 52
1, 21312, Note_on_c, 1, 41, 87
1, 21312, Note_on_c, 9, 35, 85
1, 21312, Note_on_c, 9, 51, 58
1, 21321, Note_off_c, 9, 51, 58
1, 21321, Note_off_c, 9, 35, 85
1, 21325, Note_off_c, 6, 63, 52
1, 21353, Note_off_c, 6, 58, 62
1, 21363, Note_off_c, 6, 55, 59
1, 21461, Control_c, 0, 64, 0
1, 21467, Note_off_c, 1, 41, 87
1, 21478, Note_on_c, 6, 57, 71
1, 21494, Note_on_c, 3, 65, 103
1, 21496, Note_on_c, 6, 60, 78
1, 21501, Note_off_c, 5, 55, 97
1, 21501, Note_off_c, 5, 58, 104
1, 21501, Note_off_c, 5, 63, 98
1, 21501, Note_off_c, 5, 41, 109
1, 21504, Note_on_c, 0, 65, 84
1, 21504, Note_on_c, 0, 46, 94
1, 21504, Note_on_c, 0, 57, 81
1, 21504, Note_on_c, 0, 62, 91
1, 21504, Note_on_c, 1, 34, 117
1, 21504, Note_on_c, 2, 60, 90
1, 21504, Note_on_c, 5, 46, 113
1, 21504, Note_on_c, 5, 57, 102
1, 21504, Note_on_c, 5, 65, 98
1, 21504, Note_on_c, 5, 60, 102
1, 21504, Note_on_c, 9, 51, 94
1, 21504, Note_on_c, 9, 35, 93
1, 21513, Note_off_c, 9, 35, 93
1, 21513, Note_off_c, 9, 51, 94
1, 21513, Control_c, 3, 1, 6
1, 21519, Control_c, 2, 64, 0
1, 21529, Control_c, 3, 1, 12
1, 21536, Note_on_c, 6, 65, 77
1, 21547, Control_c, 3, 1, 12
1, 21565, Control_c, 3, 1, 6
1, 21583, Control_c, 3, 1, 2
1, 21591, Note_off_c, 3, 65, 103
1, 21610, Note_on_c, 3, 67, 97
1, 21613, Control_c, 3, 1, 3
1, 21629, Control_c, 2, 64, 127
1, 21633, Control_c, 3, 1, 4
1, 21639, Control_c, 0, 64, 127
1, 21639, Control_c, 3, 1, 1
1, 21655, Control_c, 3, 1, 0
1, 21665, Control_c, 3, 1, 2
1, 21681, Control_c, 3, 1, 1
1, 21693, Control_c, 3, 1, 3
1, 21695, Note_off_c, 3, 67, 97
1, 21696, Note_on_c, 9, 51, 54
1, 21705, Note_off_c, 9, 51, 54
1, 21711, Control_c, 3, 1, 6
1, 21720, Note_on_c, 3, 65, 103
1, 21727, Control_c, 3, 1, 11
1, 21745, Control_c, 3, 1, 14
1, 21765, Control_c, 3, 1, 16
1, 21783, Control_c, 3, 1, 19
1, 21813, Note_off_c, 0, 57, 81
1, 21815, Note_off_c, 6, 57, 71
1, 21817, Note_off_c, 0, 62, 91
1, 21833, Note_off_c, 0, 65, 84
1, 21837, Control_c, 3, 1, 21
1, 21849, Note_off_c, 6, 60, 78
1, 21851, Note_off_c, 6, 65, 77
1, 21857, Control_c, 3, 1, 19
1, 21872, Note_on_c, 6, 57, 79
1, 21879, Control_c, 3, 1, 21
1, 21888, Note_on_c, 0, 57, 87
1, 21888, Note_on_c, 9, 51, 101
1, 21888, Note_on_c, 9, 37, 110
1, 21889, Control_c, 3, 1, 24
1, 21897, Note_off_c, 9, 37, 110
1, 21897, Note_off_c, 9, 51, 101
1, 21902, Note_on_c, 6, 60, 79
1, 21907, Control_c, 3, 1, 24
1, 21918, Note_on_c, 6, 65, 91
1, 21925, Control_c, 3, 1, 14
1, 21943, Control_c, 3, 1, 3
1, 21947, Note_off_c, 6, 60, 79
1, 21947, Note_off_c, 6, 57, 79
1, 21961, Control_c, 3, 1, 0
1, 21965, Note_off_c, 6, 65, 91
1, 21984, Note_on_c, 0, 62, 78
1, 21997, Control_c, 3, 1, 4
1, 22009, Note_off_c, 0, 46, 94
1, 22015, Note_off_c, 3, 65, 103
1, 22017, Note_off_c, 2, 60, 90
1, 22017, Control_c, 3, 1, 9
1, 22033, Control_c, 3, 1, 14
1, 22040, Note_on_c, 3, 58, 88
1, 22053, Control_c, 3, 1, 15
1, 22069, Control_c, 3, 1, 18
1, 22073, Note_off_c, 1, 34, 117
1, 22075, Note_off_c, 0, 62, 78
1, 22080, Note_on_c, 0, 65, 81
1, 22080, Note_on_c, 1, 34, 100
1, 22080, Note_on_c, 9, 51, 55
1, 22089, Note_off_c, 9, 51, 55
1, 22090, Note_on_c, 6, 57, 72
1, 22092, Note_on_c, 6, 60, 78
1, 22095, Control_c, 3, 1, 15
1, 22107, Control_c, 3, 1, 1
1, 22123, Note_off_c, 0, 65, 81
1, 22125, Control_c, 3, 1, 0
1, 22129, Note_off_c, 0, 57, 87
1, 22131, Note_off_c, 6, 60, 78
1, 22133, Note_off_c, 3, 58, 88
1, 22143, Note_off_c, 6, 57, 72
1, 22151, Pitch_bend_c, 3, 5952
1, 22163, Pitch_bend_c, 3, 1920
1, 22176, Note_on_c, 3, 69, 110
1, 22177, Pitch_bend_c, 3, 1760
1, 22193, Pitch_bend_c, 3, 3840
1, 22205, Pitch_bend_c, 3, 7776
1, 22219, Pitch_bend_c, 3, 8160
1, 22223, Note_off_c, 1, 34, 100
1, 22223, Pitch_bend_c, 3, 8192
1, 22263, Control_c, 0, 64, 0
1, 22269, Note_off_c, 5, 60, 102
1, 22269, Note_off_c, 5, 65, 98
1, 22269, Note_off_c, 5, 57, 102
1, 22269, Note_off_c, 5, 46, 113
1, 22272, Note_on_c, 0, 43, 90
1, 22272, Note_on_c, 0, 53, 79
1, 22272, Note_on_c, 0, 62, 81
1, 22272, Note_on_c, 0, 58, 76
1, 22272, Note_on_c, 1, 43, 99
1, 22272, Note_on_c, 2, 57, 81
1, 22272, Note_on_c, 2, 69, 86
1, 22272, Note_on_c, 5, 43, 114
1, 22272, Note_on_c, 5, 62, 105
1, 22272, Note_on_c, 5, 58, 104
1, 22272, Note_on_c, 5, 53, 101
1, 22272, Note_on_c, 6, 58, 82
1, 22272, Note_on_c, 9, 51, 79
1, 22278, Note_on_c, 6, 53, 77
1, 22279, Control_c, 2, 64, 0
1, 22281, Note_off_c, 9, 51, 79
1, 22281, Note_off_c, 3, 69, 110
1, 22312, Note_on_c, 3, 67, 105
1, 22343, Control_c, 2, 64, 127
1, 22349, Control_c, 3, 1, 3
1, 22357, Control_c, 3, 1, 11
1, 22375, Control_c, 3, 1, 14
1, 22393, Note_off_c, 2, 57, 81
1, 22395, Note_off_c, 2, 69, 86
1, 22411, Control_c, 3, 1, 15
1, 22433, Control_c, 3, 1, 17
1, 22437, Note_off_c, 6, 53, 77
1, 22439, Control_c, 0, 64, 127
1, 22461, Control_c, 3, 1, 18
1, 22464, Note_on_c, 9, 51, 55
1, 22467, Control_c, 3, 1, 21
1, 22473, Note_off_c, 9, 51, 55
1, 22478, Note_on_c, 6, 53, 70
1, 22487, Control_c, 3, 1, 23
1, 22503, Note_off_c, 0, 58, 76
1, 22507, Control_c, 3, 1, 26
1, 22517, Note_off_c, 0, 62, 81
1, 22523, Control_c, 3, 1, 27
1, 22527, Note_off_c, 0, 53, 79
1, 22543, Control_c, 3, 1, 27
1, 22559, Control_c, 3, 1, 26
1, 22579, Control_c, 3, 1, 27
1, 22593, Note_off_c, 6, 53, 70
1, 22609, Control_c, 3, 1, 31
1, 22619, Note_off_c, 6, 58, 82
1, 22626, Note_on_c, 6, 53, 75
1, 22633, Control_c, 3, 1, 25
1, 22645, Control_c, 3, 1, 12
1, 22656, Note_on_c, 0, 57, 96
1, 22656, Note_on_c, 2, 70, 89
1, 22656, Note_on_c, 2, 58, 84
1, 22656, Note_on_c, 9, 51, 98
1, 22656, Note_on_c, 9, 37, 113
1, 22658, Note_on_c, 6, 58, 75
1, 22663, Control_c, 3, 1, 7
1, 22665, Note_off_c, 9, 37, 113
1, 22665, Note_off_c, 9, 51, 98
1, 22674, Note_on_c, 6, 62, 91
1, 22689, Control_c, 3, 1, 6
1, 22691, Note_off_c, 2, 58, 84
1, 22699, Note_off_c, 6, 53, 75
1, 22701, Note_off_c, 2, 70, 89
1, 22703, Control_c, 3, 1, 7
1, 22717, Control_c, 3, 1, 9
1, 22729, Note_off_c, 6, 58, 75
1, 22731, Note_off_c, 0, 57, 96
1, 22737, Control_c, 3, 1, 10
1, 22745, Note_off_c, 6, 62, 91
1, 22753, Note_off_c, 3, 67, 105
1, 22761, Control_c, 3, 1, 8
1, 22771, Control_c, 3, 1, 3
1, 22780, Note_on_c, 3, 57, 99
1, 22791, Control_c, 3, 1, 5
1, 22807, Control_c, 3, 1, 6
1, 22827, Control_c, 3, 1, 10
1, 22845, Note_off_c, 0, 43, 90
1, 22847, Control_c, 3, 1, 14
1, 22848, Note_on_c, 0, 58, 87
1, 22848, Note_on_c, 1, 31, 105
1, 22848, Note_on_c, 9, 51, 56
1, 22848, Note_on_c, 9, 35, 76
1, 22852, Note_on_c, 6, 43, 81
1, 22855, Note_off_c, 1, 43, 99
1, 22857, Note_off_c, 9, 35, 76
1, 22857, Note_off_c, 9, 51, 56
1, 22860, Note_on_c, 6, 58, 66
1, 22860, Note_on_c, 6, 53, 65
1, 22863, Control_c, 3, 1, 19
1, 22881, Control_c, 3, 1, 18
1, 22885, Note_off_c, 0, 58, 87
1, 22893, Note_off_c, 6, 53, 65
1, 22895, Note_off_c, 6, 58, 66
1, 22899, Control_c, 3, 1, 0
1, 22901, Note_off_c, 3, 57, 99
1, 22904, Note_on_c, 3, 58, 100
1, 22913, Note_off_c, 6, 43, 81
1, 23009, Note_off_c, 1, 31, 105
1, 23011, Note_off_c, 3, 58, 100
1, 23019, Pitch_bend_c, 3, 5376
1, 23020, Note_on_c, 6, 45, 102
1, 23027, Control_c, 0, 64, 0
1, 23031, Pitch_bend_c, 3, 1056
1, 23036, Note_on_c, 3, 60, 96
1, 23037, Note_off_c, 5, 53, 101
1, 23037, Note_off_c, 5, 58, 104
1, 23037, Note_off_c, 5, 62, 105
1, 23037, Note_off_c, 5, 43, 114
1, 23040, Note_on_c, 0, 45, 91
1, 23040, Note_on_c, 0, 64, 80
1, 23040, Note_on_c, 0, 60, 81
1, 23040, Note_on_c, 0, 55, 73
1, 23040, Note_on_c, 1, 33, 113
1, 23040, Note_on_c, 2, 60, 83
1, 23040, Note_on_c, 2, 72, 86
1, 23040, Note_on_c, 5, 60, 103
1, 23040, Note_on_c, 5, 55, 105
1, 23040, Note_on_c, 5, 64, 91
1, 23040, Note_on_c, 5, 45, 109
1, 23040, Note_on_c, 9, 35, 107
1, 23040, Note_on_c, 9, 51, 91
1, 23045, Pitch_bend_c, 3, 352
1, 23049, Note_off_c, 9, 51, 91
1, 23049, Note_off_c, 9, 35, 107
1, 23053, Control_c, 2, 64, 0
1, 23054, Note_on_c, 6, 55, 83
1, 23056, Note_on_c, 6, 60, 81
1, 23059, Pitch_bend_c, 3, 2112
1, 23070, Note_on_c, 6, 64, 84
1, 23073, Pitch_bend_c, 3, 5920
1, 23087, Pitch_bend_c, 3, 8000
1, 23099, Pitch_bend_c, 3, 8192
1, 23137, Control_c, 2, 64, 127
1, 23189, Note_off_c, 0, 55, 73
1, 23199, Control_c, 0, 64, 127
1, 23217, Note_off_c, 6, 55, 83
1, 23217, Control_c, 3, 1, 2
1, 23225, Control_c, 3, 1, 7
1, 23232, Note_on_c, 0, 55, 76
1, 23232, Note_on_c, 9, 51, 53
1, 23241, Note_off_c, 9, 51, 53
1, 23241, Control_c, 3, 1, 11
1, 23247, Note_off_c, 0, 60, 81
1, 23250, Note_on_c, 6, 55, 69
1, 23257, Note_off_c, 0, 64, 80
1, 23259, Control_c, 3, 1, 15
1, 23279, Control_c, 3, 1, 18
1, 23295, Control_c, 3, 1, 21
1, 23311, Control_c, 3, 1, 24
1, 23335, Control_c, 3, 1, 26
1, 23355, Note_off_c, 0, 55, 76
1, 23357, Control_c, 3, 1, 21
1, 23365, Control_c, 3, 1, 13
1, 23383, Control_c, 3, 1, 9
1, 23389, Note_off_c, 0, 45, 91
1, 23395, Note_off_c, 6, 60, 81
1, 23397, Note_off_c, 6, 55, 69
1, 23401, Control_c, 3, 1, 9
1, 23411, Note_off_c, 6, 64, 84
1, 23424, Note_on_c, 0, 64, 81
1, 23424, Note_on_c, 0, 60, 87
1, 23424, Note_on_c, 5, 67, 118
1, 23424, Note_on_c, 9, 51, 98
1, 23424, Note_on_c, 9, 37, 110
1, 23425, Note_off_c, 5, 55, 105
1, 23432, Note_on_c, 6, 55, 79
1, 23433, Note_off_c, 9, 37, 110
1, 23433, Note_off_c, 9, 51, 98
1, 23441, Control_c, 3, 1, 11
1, 23450, Note_on_c, 6, 60, 85
1, 23457, Control_c, 3, 1, 12
1, 23468, Note_on_c, 6, 64, 91
1, 23481, Control_c, 3, 1, 10
1, 23491, Control_c, 3, 1, 5
1, 23513, Control_c, 3, 1, 5
1, 23527, Control_c, 3, 1, 8
1, 23531, Note_off_c, 0, 60, 87
1, 23541, Note_off_c, 0, 64, 81
1, 23555, Note_off_c, 1, 33, 113
1, 23557, Note_off_c, 6, 55, 79
1, 23565, Note_off_c, 6, 64, 91
1, 23567, Note_off_c, 6, 60, 85
1, 23573, Control_c, 3, 1, 10
1, 23593, Control_c, 3, 1, 11
1, 23611, Control_c, 3, 1, 12
1, 23616, Note_on_c, 0, 55, 66
1, 23616, Note_on_c, 1, 33, 102
1, 23616, Note_on_c, 9, 51, 50
1, 23617, Control_c, 3, 1, 14
1, 23625, Note_off_c, 9, 51, 50
1, 23634, Note_on_c, 6, 55, 77
1, 23645, Note_off_c, 2, 72, 86
1, 23649, Note_off_c, 0, 55, 66
1, 23657, Control_c, 3, 1, 10
1, 23667, Note_off_c, 5, 64, 91
1, 23675, Note_off_c, 2, 60, 83
1, 23675, Control_c, 3, 1, 4
1, 23689, Control_c, 3, 1, 0
1, 23695, Note_off_c, 6, 55, 77
1, 23747, Note_off_c, 6, 45, 102
1, 23753, Note_off_c, 3, 60, 96
1, 23769, Note_off_c, 1, 33, 102
1, 23787, Note_off_c, 5, 45, 109
1, 23805, Note_off_c, 5, 67, 118
1, 23805, Note_off_c, 5, 60, 103
1, 23806, Note_on_c, 6, 54, 73
1, 23806, Note_on_c, 6, 50, 87
1, 23807, Control_c, 0, 64, 0
1, 23808, Note_on_c, 0, 38, 87
1, 23808, Note_on_c, 0, 64, 77
1, 23808, Note_on_c, 0, 60, 85
1, 23808, Note_on_c, 1, 38, 98
1, 23808, Note_on_c, 5, 68, 104
1, 23808, Note_on_c, 5, 50, 91
1, 23808, Note_on_c, 9, 51, 87
1, 23817, Note_off_c, 9, 51, 87
1, 23848, Note_on_c, 6, 60, 72
1, 23941, Control_c, 0, 64, 127
1, 24000, Note_on_c, 0, 56, 68
1, 24000, Note_on_c, 9, 51, 50
1, 24009, Note_off_c, 9, 51, 50
1, 24059, Note_off_c, 0, 56, 68
1, 24083, Note_off_c, 0, 60, 85
1, 24091, Note_off_c, 0, 64, 77
1, 24125, Note_off_c, 1, 38, 98
1, 24139, Note_off_c, 6, 60, 72
1, 24147, Note_off_c, 6, 54, 73
1, 24172, Note_on_c, 3, 62, 110
1, 24179, Control_c, 3, 1, 3
1, 24183, Note_off_c, 5, 68, 104
1, 24186, Note_on_c, 6, 60, 85
1, 24192, Note_on_c, 0, 64, 82
1, 24192, Note_on_c, 0, 60, 83
1, 24192, Note_on_c, 0, 57, 88
1, 24192, Note_on_c, 1, 38, 110
1, 24192, Note_on_c, 2, 62, 73
1, 24192, Note_on_c, 2, 74, 69
1, 24192, Note_on_c, 5, 69, 92
1, 24192, Note_on_c, 6, 54, 76
1, 24192, Note_on_c, 9, 37, 108
1, 24192, Note_on_c, 9, 51, 97
1, 24193, Control_c, 3, 1, 7
1, 24201, Note_off_c, 9, 51, 97
1, 24201, Note_off_c, 9, 37, 108
1, 24203, Control_c, 0, 64, 0
1, 24209, Control_c, 2, 64, 0
1, 24217, Control_c, 3, 1, 8
1, 24233, Note_off_c, 6, 60, 85
1, 24235, Control_c, 3, 1, 10
1, 24241, Note_off_c, 6, 50, 87
1, 24245, Note_off_c, 6, 54, 76
1, 24251, Control_c, 3, 1, 11
1, 24255, Control_c, 2, 64, 127
1, 24339, Control_c, 3, 1, 12
1, 24351, Note_off_c, 3, 62, 110
1, 24357, Note_off_c, 2, 74, 69
1, 24357, Control_c, 3, 1, 15
1, 24369, Note_off_c, 2, 62, 73
1, 24372, Note_on_c, 3, 65, 105
1, 24377, Control_c, 3, 1, 18
1, 24379, Control_c, 0, 64, 127
1, 24380, Note_on_c, 6, 50, 73
1, 24384, Note_on_c, 9, 35, 85
1, 24384, Note_on_c, 9, 51, 58
1, 24393, Note_off_c, 9, 51, 58
1, 24393, Note_off_c, 9, 35, 85
1, 24399, Control_c, 3, 1, 20
1, 24423, Control_c, 3, 1, 21
1, 24425, Note_off_c, 0, 57, 88
1, 24425, Note_off_c, 5, 50, 91
1, 24431, Note_off_c, 0, 60, 83
1, 24433, Control_c, 3, 1, 15
1, 24443, Note_off_c, 0, 64, 82
1, 24445, Note_off_c, 6, 50, 73
1, 24445, Control_c, 3, 1, 5
1, 24449, Note_off_c, 0, 38, 87
1, 24465, Control_c, 3, 1, 0
1, 24515, Note_off_c, 1, 38, 110
1, 24517, Note_off_c, 3, 65, 105
1, 24538, Note_on_c, 6, 48, 97
1, 24543, Pitch_bend_c, 3, 3680
1, 24557, Pitch_bend_c, 3, 0
1, 24561, Control_c, 0, 64, 0
1, 24564, Note_on_c, 6, 55, 78
1, 24576, Note_on_c, 0, 36, 89
1, 24576, Note_on_c, 0, 63, 92
1, 24576, Note_on_c, 0, 58, 97
1, 24576, Note_on_c, 0, 55, 91
1, 24576, Note_on_c, 1, 36, 110
1, 24576, Note_on_c, 2, 70, 90
1, 24576, Note_on_c, 2, 58, 94
1, 24576, Note_on_c, 5, 70, 108
1, 24576, Note_on_c, 5, 63, 91
1, 24576, Note_on_c, 5, 55, 118
1, 24576, Note_on_c, 5, 48, 105
1, 24576, Note_on_c, 9, 51, 94
1, 24576, Note_on_c, 9, 35, 93
1, 24577, Note_off_c, 5, 69, 92
1, 24578, Note_on_c, 6, 58, 85
1, 24581, Control_c, 2, 64, 0
1, 24582, Note_on_c, 3, 74, 114
1, 24585, Note_off_c, 9, 35, 93
1, 24585, Note_off_c, 9, 51, 94
1, 24591, Pitch_bend_c, 3, 1696
1, 24601, Pitch_bend_c, 3, 5376
1, 24613, Pitch_bend_c, 3, 8160
1, 24627, Pitch_bend_c, 3, 8192
1, 24630, Note_on_c, 6, 63, 71
1, 24697, Control_c, 2, 64, 127
1, 24715, Control_c, 0, 64, 127
1, 24743, Note_off_c, 0, 58, 97
1, 24745, Note_off_c, 0, 55, 91
1, 24755, Note_off_c, 3, 74, 114
1, 24761, Note_off_c, 0, 63, 92
1, 24768, Note_on_c, 3, 70, 100
1, 24768, Note_on_c, 9, 51, 54
1, 24777, Note_off_c, 9, 51, 54
1, 24777, Note_off_c, 6, 55, 78
1, 24802, Note_on_c, 6, 55, 56
1, 24835, Note_off_c, 2, 58, 94
1, 24859, Note_off_c, 2, 70, 90
1, 24867, Note_off_c, 3, 70, 100
1, 24894, Note_on_c, 3, 70, 107
1, 24901, Control_c, 3, 1, 6
1, 24915, Note_off_c, 6, 55, 56
1, 24915, Control_c, 3, 1, 13
1, 24921, Note_off_c, 6, 58, 85
1, 24929, Note_off_c, 6, 63, 71
1, 24931, Control_c, 3, 1, 20
1, 24949, Control_c, 3, 1, 29
1, 24960, Note_on_c, 9, 51, 101
1, 24960, Note_on_c, 9, 37, 110
1, 24962, Note_on_c, 6, 55, 56
1, 24969, Note_off_c, 9, 37, 110
1, 24969, Note_off_c, 9, 51, 101
1, 24973, Control_c, 3, 1, 33
1, 24978, Note_on_c, 6, 58, 69
1, 24987, Control_c, 3, 1, 31
1, 24992, Note_on_c, 6, 63, 81
1, 25005, Control_c, 3, 1, 24
1, 25009, Note_off_c, 6, 58, 69
1, 25017, Note_off_c, 6, 55, 56
1, 25023, Control_c, 3, 1, 22
1, 25033, Note_off_c, 6, 63, 81
1, 25039, Control_c, 3, 1, 28
1, 25055, Note_off_c, 6, 48, 97
1, 25057, Control_c, 3, 1, 29
1, 25079, Control_c, 3, 1, 32
1, 25099, Control_c, 3, 1, 21
1, 25111, Control_c, 3, 1, 12
1, 25137, Note_off_c, 1, 36, 110
1, 25141, Control_c, 3, 1, 14
1, 25147, Control_c, 3, 1, 19
1, 25152, Note_on_c, 0, 62, 85
1, 25152, Note_on_c, 1, 36, 105
1, 25152, Note_on_c, 9, 51, 55
1, 25156, Note_on_c, 6, 48, 89
1, 25161, Note_off_c, 9, 51, 55
1, 25165, Control_c, 3, 1, 23
1, 25183, Control_c, 3, 1, 25
1, 25199, Note_off_c, 0, 62, 85
1, 25207, Control_c, 3, 1, 27
1, 25219, Control_c, 3, 1, 23
1, 25237, Control_c, 3, 1, 10
1, 25248, Note_on_c, 0, 63, 71
1, 25255, Control_c, 3, 1, 5
1, 25283, Control_c, 3, 1, 7
1, 25293, Control_c, 3, 1, 10
1, 25295, Note_off_c, 1, 36, 105
1, 25299, Note_off_c, 6, 48, 89
1, 25301, Note_off_c, 0, 63, 71
1, 25311, Control_c, 3, 1, 13
1, 25341, Control_c, 3, 1, 10
1, 25344, Note_on_c, 0, 67, 87
1, 25344, Note_on_c, 0, 63, 78
1, 25344, Note_on_c, 0, 70, 82
1, 25344, Note_on_c, 1, 36, 106
1, 25344, Note_on_c, 9, 51, 79
1, 25347, Control_c, 3, 1, 0
1, 25352, Note_on_c, 6, 48, 93
1, 25353, Note_off_c, 9, 51, 79
1, 25364, Note_on_c, 6, 58, 79
1, 25385, Control_c, 0, 64, 0
1, 25386, Note_on_c, 6, 63, 83
1, 25427, Note_off_c, 3, 70, 107
1, 25447, Pitch_bend_c, 3, 7200
1, 25453, Pitch_bend_c, 3, 1472
1, 25456, Note_on_c, 3, 72, 118
1, 25457, Control_c, 0, 64, 127
1, 25469, Pitch_bend_c, 3, 0
1, 25485, Pitch_bend_c, 3, 896
1, 25495, Pitch_bend_c, 3, 3840
1, 25509, Pitch_bend_c, 3, 6560
1, 25525, Pitch_bend_c, 3, 8160
1, 25535, Pitch_bend_c, 3, 8192
1, 25536, Note_on_c, 9, 51, 55
1, 25545, Note_off_c, 9, 51, 55
1, 25585, Note_off_c, 0, 67, 87
1, 25607, Note_off_c, 0, 70, 82
1, 25611, Control_c, 3, 1, 3
1, 25613, Note_off_c, 0, 63, 78
1, 25617, Control_c, 3, 1, 11
1, 25633, Control_c, 3, 1, 17
1, 25637, Note_off_c, 0, 36, 89
1, 25655, Control_c, 3, 1, 19
1, 25675, Control_c, 3, 1, 20
1, 25685, Note_off_c, 6, 58, 79
1, 25687, Control_c, 3, 1, 22
1, 25691, Note_off_c, 6, 63, 83
1, 25699, Note_off_c, 5, 63, 91
1, 25725, Control_c, 3, 1, 25
1, 25728, Note_on_c, 0, 62, 87
1, 25728, Note_on_c, 5, 62, 114
1, 25728, Note_on_c, 9, 51, 98
1, 25728, Note_on_c, 9, 37, 113
1, 25737, Note_off_c, 9, 37, 113
1, 25737, Note_off_c, 9, 51, 98
1, 25742, Note_on_c, 6, 63, 83
1, 25742, Note_on_c, 6, 58, 82
1, 25755, Control_c, 3, 1, 26
1, 25767, Control_c, 3, 1, 27
1, 25775, Note_off_c, 6, 58, 82
1, 25781, Control_c, 3, 1, 25
1, 25783, Note_off_c, 0, 62, 87
1, 25785, Note_off_c, 6, 63, 83
1, 25797, Control_c, 3, 1, 23
1, 25815, Control_c, 3, 1, 26
1, 25839, Control_c, 3, 1, 19
1, 25851, Note_off_c, 6, 48, 93
1, 25851, Control_c, 3, 1, 17
1, 25873, Control_c, 3, 1, 12
1, 25885, Control_c, 3, 1, 9
1, 25899, Note_off_c, 1, 36, 106
1, 25903, Control_c, 3, 1, 11
1, 25920, Note_on_c, 1, 34, 94
1, 25920, Note_on_c, 6, 48, 66
1, 25920, Note_on_c, 9, 51, 56
1, 25920, Note_on_c, 9, 35, 76
1, 25925, Control_c, 3, 1, 6
1, 25929, Note_off_c, 9, 35, 76
1, 25929, Note_off_c, 9, 51, 56
1, 25939, Control_c, 3, 1, 4
1, 25953, Note_off_c, 3, 72, 118
1, 25963, Control_c, 3, 1, 2
1, 25966, Note_on_c, 3, 70, 90
1, 25977, Control_c, 3, 1, 1
1, 25999, Note_off_c, 6, 48, 66
1, 26003, Note_off_c, 1, 34, 94
1, 26007, Control_c, 3, 1, 2
1, 26011, Note_off_c, 5, 48, 105
1, 26013, Control_c, 3, 1, 3
1, 26016, Note_on_c, 1, 36, 78
1, 26021, Note_off_c, 3, 70, 90
1, 26024, Note_on_c, 3, 69, 86
1, 26035, Control_c, 3, 1, 4
1, 26055, Control_c, 3, 1, 5
1, 26065, Note_off_c, 5, 55, 118
1, 26080, Note_on_c, 3, 70, 98
1, 26083, Note_off_c, 3, 69, 86
1, 26083, Control_c, 3, 1, 1
1, 26086, Note_on_c, 6, 50, 91
1, 26087, Note_off_c, 1, 36, 78
1, 26091, Note_off_c, 5, 62, 114
1, 26091, Control_c, 0, 64, 0
1, 26101, Control_c, 3, 1, 0
1, 26106, Note_on_c, 6, 60, 67
1, 26109, Note_off_c, 5, 70, 108
1, 26112, Note_on_c, 0, 69, 85
1, 26112, Note_on_c, 0, 60, 83
1, 26112, Note_on_c, 0, 65, 86
1, 26112, Note_on_c, 0, 38, 91
1, 26112, Note_on_c, 1, 38, 114
1, 26112, Note_on_c, 2, 60, 86
1, 26112, Note_on_c, 2, 72, 96
1, 26112, Note_on_c, 5, 69, 105
1, 26112, Note_on_c, 5, 50, 118
1, 26112, Note_on_c, 5, 60, 96
1, 26112, Note_on_c, 9, 35, 107
1, 26112, Note_on_c, 9, 51, 91
1, 26121, Note_off_c, 9, 51, 91
1, 26121, Note_off_c, 9, 35, 107
1, 26127, Control_c, 2, 64, 0
1, 26128, Note_on_c, 6, 65, 89
1, 26129, Note_off_c, 3, 70, 98
1, 26129, Pitch_bend_c, 3, 6816
1, 26139, Pitch_bend_c, 3, 1920
1, 26153, Pitch_bend_c, 3, 256
1, 26160, Note_on_c, 3, 72, 106
1, 26171, Pitch_bend_c, 3, 1280
1, 26183, Pitch_bend_c, 3, 4160
1, 26195, Pitch_bend_c, 3, 7936
1, 26209, Pitch_bend_c, 3, 8192
1, 26221, Control_c, 2, 64, 127
1, 26253, Control_c, 0, 64, 127
1, 26283, Note_off_c, 6, 65, 89
1, 26283, Note_off_c, 6, 60, 67
1, 26285, Note_off_c, 0, 65, 86
1, 26287, Note_off_c, 0, 69, 85
1, 26299, Note_off_c, 0, 60, 83
1, 26304, Note_on_c, 9, 51, 53
1, 26309, Control_c, 3, 1, 3
1, 26313, Note_off_c, 9, 51, 53
1, 26314, Note_on_c, 6, 60, 54
1, 26317, Control_c, 3, 1, 10
1, 26320, Note_on_c, 6, 65, 54
1, 26335, Control_c, 3, 1, 16
1, 26353, Control_c, 3, 1, 18
1, 26371, Control_c, 3, 1, 20
1, 26403, Note_off_c, 2, 72, 96
1, 26419, Control_c, 3, 1, 21
1, 26431, Note_off_c, 2, 60, 86
1, 26431, Control_c, 3, 1, 23
1, 26441, Note_off_c, 6, 65, 54
1, 26449, Note_off_c, 6, 60, 54
1, 26455, Control_c, 3, 1, 24
1, 26467, Control_c, 3, 1, 16
1, 26481, Control_c, 3, 1, 8
1, 26486, Note_on_c, 6, 60, 96
1, 26488, Note_on_c, 6, 65, 97
1, 26496, Note_on_c, 5, 65, 91
1, 26496, Note_on_c, 9, 51, 98
1, 26496, Note_on_c, 9, 37, 110
1, 26497, Control_c, 3, 1, 2
1, 26505, Note_off_c, 9, 37, 110
1, 26505, Note_off_c, 9, 51, 98
1, 26515, Control_c, 3, 1, 0
1, 26533, Note_off_c, 3, 72, 106
1, 26535, Note_off_c, 6, 65, 97
1, 26535, Note_off_c, 6, 60, 96
1, 26550, Note_on_c, 3, 65, 91
1, 26553, Note_off_c, 6, 50, 91
1, 26613, Note_off_c, 1, 38, 114
1, 26621, Note_off_c, 0, 38, 91
1, 26675, Note_off_c, 3, 65, 91
1, 26688, Note_on_c, 0, 38, 78
1, 26688, Note_on_c, 1, 38, 110
1, 26688, Note_on_c, 6, 60, 68
1, 26688, Note_on_c, 6, 50, 81
1, 26688, Note_on_c, 9, 51, 50
1, 26694, Note_on_c, 6, 65, 60
1, 26697, Note_off_c, 9, 51, 50
1, 26710, Note_on_c, 3, 65, 103
1, 26723, Note_off_c, 6, 65, 60
1, 26723, Control_c, 3, 1, 1
1, 26731, Note_off_c, 6, 60, 68
1, 26735, Control_c, 3, 1, 4
1, 26769, Note_off_c, 0, 38, 78
1, 26773, Control_c, 3, 1, 5
1, 26784, Note_on_c, 2, 65, 79
1, 26785, Control_c, 3, 1, 4
1, 26805, Note_off_c, 6, 50, 81
1, 26811, Control_c, 3, 1, 4
1, 26817, Note_off_c, 5, 60, 96
1, 26831, Control_c, 3, 1, 6
1, 26841, Control_c, 3, 1, 13
1, 26845, Note_off_c, 1, 38, 110
1, 26855, Control_c, 0, 64, 0
1, 26857, Control_c, 3, 1, 21
1, 26874, Note_on_c, 6, 43, 91
1, 26877, Note_off_c, 5, 65, 91
1, 26877, Note_off_c, 5, 69, 105
1, 26877, Control_c, 3, 1, 28
1, 26879, Note_off_c, 5, 50, 118
1, 26880, Note_on_c, 0, 43, 81
1, 26880, Note_on_c, 0, 58, 82
1, 26880, Note_on_c, 0, 53, 79
1, 26880, Note_on_c, 1, 43, 107
1, 26880, Note_on_c, 2, 53, 89
1, 26880, Note_on_c, 5, 58, 97
1, 26880, Note_on_c, 5, 43, 109
1, 26880, Note_on_c, 5, 65, 114
1, 26880, Note_on_c, 9, 51, 87
1, 26882, Note_on_c, 6, 50, 78
1, 26889, Note_off_c, 9, 51, 87
1, 26893, Control_c, 3, 1, 33
1, 26900, Note_on_c, 6, 58, 77
1, 26917, Control_c, 3, 1, 36
1, 26932, Note_on_c, 6, 65, 83
1, 26933, Control_c, 3, 1, 38
1, 26949, Control_c, 2, 64, 0
1, 26951, Control_c, 3, 1, 40
1, 26965, Control_c, 3, 1, 33
1, 26985, Control_c, 3, 1, 29
1, 27001, Control_c, 0, 64, 127
1, 27001, Control_c, 3, 1, 24
1, 27019, Control_c, 3, 1, 20
1, 27037, Control_c, 3, 1, 13
1, 27071, Note_off_c, 6, 58, 77
1, 27072, Note_on_c, 0, 62, 20
1, 27072, Note_on_c, 9, 51, 50
1, 27075, Note_off_c, 6, 65, 83
1, 27079, Control_c, 3, 1, 11
1, 27081, Note_off_c, 9, 51, 50
1, 27108, Note_on_c, 6, 58, 75
1, 27110, Note_on_c, 6, 65, 60
1, 27111, Control_c, 3, 1, 6
1, 27123, Control_c, 2, 64, 127
1, 27129, Control_c, 3, 1, 2
1, 27149, Control_c, 3, 1, 0
1, 27169, Note_off_c, 0, 62, 20
1, 27173, Note_off_c, 0, 58, 82
1, 27181, Note_off_c, 0, 53, 79
1, 27235, Note_off_c, 6, 65, 60
1, 27235, Note_off_c, 6, 58, 75
1, 27264, Note_on_c, 0, 58, 79
1, 27264, Note_on_c, 0, 62, 78
1, 27264, Note_on_c, 0, 53, 72
1, 27264, Note_on_c, 9, 37, 108
1, 27264, Note_on_c, 9, 51, 97
1, 27273, Note_off_c, 9, 51, 97
1, 27273, Note_off_c, 9, 37, 108
1, 27281, Note_off_c, 3, 65, 103
1, 27284, Note_on_c, 6, 58, 95
1, 27286, Note_on_c, 6, 65, 89
1, 27295, Note_off_c, 2, 65, 79
1, 27313, Note_off_c, 2, 53, 89
1, 27319, Note_off_c, 0, 43, 81
1, 27325, Note_off_c, 6, 58, 95
1, 27331, Note_off_c, 6, 65, 89
1, 27393, Note_off_c, 6, 50, 78
1, 27399, Note_off_c, 6, 43, 91
1, 27456, Note_on_c, 9, 35, 85
1, 27456, Note_on_c, 9, 51, 58
1, 27458, Note_on_c, 6, 65, 64
1, 27458, Note_on_c, 6, 58, 73
1, 27462, Note_on_c, 6, 50, 67
1, 27465, Note_off_c, 9, 51, 58
1, 27465, Note_off_c, 9, 35, 85
1, 27468, Note_on_c, 6, 43, 78
1, 27483, Control_c, 3, 1, 3
1, 27486, Note_on_c, 3, 70, 102
1, 27489, Control_c, 3, 1, 20
1, 27503, Note_off_c, 0, 62, 78
1, 27507, Note_off_c, 6, 58, 73
1, 27507, Control_c, 3, 1, 26
1, 27509, Note_off_c, 0, 53, 72
1, 27511, Note_off_c, 6, 65, 64
1, 27523, Control_c, 3, 1, 18
1, 27525, Note_off_c, 6, 50, 67
1, 27529, Note_off_c, 6, 43, 78
1, 27529, Note_off_c, 0, 58, 79
1, 27553, Control_c, 3, 1, 16
1, 27559, Control_c, 3, 1, 14
1, 27579, Control_c, 3, 1, 16
1, 27601, Control_c, 3, 1, 19
1, 27615, Control_c, 3, 1, 20
1, 27631, Note_off_c, 1, 43, 107
1, 27635, Control_c, 0, 64, 0
1, 27635, Control_c, 2, 64, 0
1, 27638, Note_on_c, 6, 48, 90
1, 27639, Control_c, 3, 1, 21
1, 27645, Note_off_c, 3, 70, 102
1, 27645, Note_off_c, 5, 65, 114
1, 27645, Note_off_c, 5, 43, 109
1, 27645, Note_off_c, 5, 58, 97
1, 27648, Note_on_c, 0, 36, 87
1, 27648, Note_on_c, 0, 63, 82
1, 27648, Note_on_c, 0, 67, 91
1, 27648, Note_on_c, 0, 62, 96
1, 27648, Note_on_c, 0, 58, 83
1, 27648, Note_on_c, 1, 36, 114
1, 27648, Note_on_c, 2, 67, 80
1, 27648, Note_on_c, 2, 55, 77
1, 27648, Note_on_c, 5, 55, 90
1, 27648, Note_on_c, 5, 58, 92
1, 27648, Note_on_c, 5, 48, 113
1, 27648, Note_on_c, 5, 63, 94
1, 27648, Note_on_c, 9, 35, 107
1, 27648, Note_on_c, 9, 51, 91
1, 27657, Note_off_c, 9, 51, 91
1, 27657, Note_off_c, 9, 35, 107
1, 27669, Control_c, 3, 1, 23
1, 27670, Note_on_c, 6, 58, 82
1, 27680, Note_on_c, 3, 67, 100
1, 27704, Note_on_c, 6, 63, 82
1, 27707, Control_c, 3, 1, 13
1, 27721, Control_c, 3, 1, 9
1, 27739, Control_c, 3, 1, 3
1, 27765, Control_c, 3, 1, 5
1, 27777, Control_c, 3, 1, 8
1, 27797, Control_c, 3, 1, 14
1, 27811, Note_off_c, 6, 63, 82
1, 27813, Control_c, 3, 1, 21
1, 27819, Note_off_c, 6, 58, 82
1, 27829, Control_c, 3, 1, 31
1, 27835, Note_off_c, 3, 67, 100
1, 27840, Note_on_c, 9, 51, 53
1, 27847, Control_c, 3, 1, 36
1, 27849, Note_off_c, 9, 51, 53
1, 27864, Note_on_c, 3, 60, 89
1, 27867, Control_c, 3, 1, 40
1, 27868, Note_on_c, 6, 58, 62
1, 27868, Note_on_c, 6, 63, 70
1, 27875, Note_off_c, 0, 62, 96
1, 27889, Note_off_c, 0, 58, 83
1, 27889, Note_off_c, 0, 63, 82
1, 27893, Control_c, 3, 1, 36
1, 27895, Note_off_c, 0, 67, 91
1, 27901, Control_c, 3, 1, 32
1, 27919, Control_c, 3, 1, 25
1, 27957, Control_c, 0, 64, 127
1, 27961, Control_c, 3, 1, 21
1, 27971, Control_c, 2, 64, 127
1, 27983, Control_c, 3, 1, 19
1, 27993, Control_c, 3, 1, 19
1, 27997, Note_off_c, 6, 63, 70
1, 28001, Note_off_c, 6, 58, 62
1, 28007, Note_off_c, 3, 60, 89
1, 28009, Control_c, 3, 1, 23
1, 28026, Note_on_c, 3, 62, 101
1, 28031, Control_c, 3, 1, 26
1, 28032, Note_on_c, 0, 60, 82
1, 28032, Note_on_c, 9, 51, 98
1, 28032, Note_on_c, 9, 37, 110
1, 28041, Note_off_c, 9, 37, 110
1, 28041, Note_off_c, 9, 51, 98
1, 28046, Note_on_c, 6, 58, 89
1, 28047, Control_c, 3, 1, 30
1, 28048, Note_on_c, 6, 63, 87
1, 28073, Control_c, 3, 1, 32
1, 28081, Control_c, 3, 1, 33
1, 28083, Note_off_c, 6, 58, 89
1, 28087, Note_off_c, 6, 63, 87
1, 28101, Control_c, 3, 1, 34
1, 28107, Note_off_c, 0, 60, 82
1, 28123, Control_c, 3, 1, 35
1, 28125, Note_off_c, 6, 48, 90
1, 28135, Control_c, 3, 1, 33
1, 28157, Note_off_c, 1, 36, 114
1, 28161, Control_c, 3, 1, 36
1, 28173, Control_c, 3, 1, 32
1, 28191, Control_c, 3, 1, 0
1, 28213, Note_off_c, 3, 62, 101
1, 28222, Note_on_c, 6, 63, 70
1, 28224, Note_on_c, 0, 62, 70
1, 28224, Note_on_c, 1, 36, 111
1, 28224, Note_on_c, 6, 58, 70
1, 28224, Note_on_c, 9, 51, 50
1, 28232, Note_on_c, 6, 48, 76
1, 28233, Note_off_c, 9, 51, 50
1, 28257, Note_off_c, 0, 62, 70
1, 28285, Note_off_c, 6, 63, 70
1, 28287, Note_off_c, 6, 58, 70
1, 28321, Note_off_c, 6, 48, 76
1, 28365, Note_off_c, 1, 36, 111
1, 28391, Pitch_bend_c, 3, 8000
1, 28395, Pitch_bend_c, 3, 4832
1, 28407, Pitch_bend_c, 3, 3040
1, 28414, Note_on_c, 3, 63, 105
1, 28416, Note_on_c, 0, 63, 81
1, 28416, Note_on_c, 1, 36, 107
1, 28416, Note_on_c, 9, 51, 87
1, 28421, Pitch_bend_c, 3, 4160
1, 28424, Note_on_c, 6, 48, 89
1, 28424, Note_on_c, 6, 58, 70
1, 28425, Note_off_c, 9, 51, 87
1, 28437, Pitch_bend_c, 3, 7072
1, 28451, Pitch_bend_c, 3, 8096
1, 28456, Note_on_c, 6, 63, 67
1, 28459, Pitch_bend_c, 3, 8192
1, 28479, Note_off_c, 0, 63, 81
1, 28571, Note_off_c, 6, 58, 70
1, 28583, Note_off_c, 3, 63, 105
1, 28593, Note_off_c, 6, 63, 67
1, 28600, Note_on_c, 3, 65, 94
1, 28608, Note_on_c, 0, 65, 77
1, 28608, Note_on_c, 9, 51, 50
1, 28617, Note_off_c, 9, 51, 50
1, 28624, Note_on_c, 6, 58, 72
1, 28624, Note_on_c, 6, 63, 66
1, 28663, Note_off_c, 0, 65, 77
1, 28701, Note_off_c, 0, 36, 87
1, 28753, Note_off_c, 3, 65, 94
1, 28755, Note_off_c, 6, 63, 66
1, 28759, Note_off_c, 6, 58, 72
1, 28767, Pitch_bend_c, 3, 7776
1, 28771, Pitch_bend_c, 3, 3296
1, 28787, Pitch_bend_c, 3, 1920
1, 28794, Note_on_c, 3, 67, 107
1, 28799, Pitch_bend_c, 3, 2656
1, 28800, Note_on_c, 0, 67, 89
1, 28800, Note_on_c, 9, 37, 108
1, 28800, Note_on_c, 9, 51, 97
1, 28806, Note_on_c, 6, 58, 85
1, 28806, Note_on_c, 6, 63, 84
1, 28809, Note_off_c, 9, 51, 97
1, 28809, Note_off_c, 9, 37, 108
1, 28815, Pitch_bend_c, 3, 4992
1, 28825, Note_off_c, 2, 67, 80
1, 28829, Pitch_bend_c, 3, 7392
1, 28831, Note_off_c, 2, 55, 77
1, 28841, Pitch_bend_c, 3, 7872
1, 28843, Pitch_bend_c, 3, 8192
1, 28845, Note_off_c, 6, 58, 85
1, 28849, Note_off_c, 6, 63, 84
1, 28863, Note_off_c, 0, 67, 89
1, 28875, Note_off_c, 6, 48, 89
1, 28967, Control_c, 3, 1, 5
1, 28981, Control_c, 3, 1, 8
1, 28982, Note_on_c, 6, 48, 71
1, 28982, Note_on_c, 6, 63, 78
1, 28984, Note_on_c, 6, 58, 71
1, 28992, Note_on_c, 0, 36, 57
1, 28992, Note_on_c, 9, 35, 85
1, 28992, Note_on_c, 9, 51, 58
1, 28999, Control_c, 3, 1, 10
1, 29001, Note_off_c, 9, 51, 58
1, 29001, Note_off_c, 9, 35, 85
1, 29017, Note_off_c, 6, 58, 71
1, 29035, Control_c, 3, 1, 10
1, 29039, Note_off_c, 6, 63, 78
1, 29041, Note_off_c, 0, 36, 57
1, 29059, Control_c, 3, 1, 13
1, 29077, Control_c, 3, 1, 15
1, 29083, Note_off_c, 6, 48, 71
1, 29089, Control_c, 3, 1, 15
1, 29107, Control_c, 3, 1, 8
1, 29125, Control_c, 3, 1, 1
1, 29129, Control_c, 0, 64, 0
1, 29133, Note_off_c, 1, 36, 107
1, 29143, Control_c, 3, 1, 0
1, 29145, Control_c, 2, 64, 0
1, 29165, Note_off_c, 3, 67, 107
1, 29181, Note_off_c, 5, 63, 94
1, 29181, Note_off_c, 5, 48, 113
1, 29181, Note_off_c, 5, 58, 92
1, 29181, Note_off_c, 5, 55, 90
1, 29184, Note_on_c, 0, 64, 83
1, 29184, Note_on_c, 0, 69, 80
1, 29184, Note_on_c, 0, 61, 80
1, 29184, Note_on_c, 0, 36, 82
1, 29184, Note_on_c, 1, 36, 113
1, 29184, Note_on_c, 2, 67, 84
1, 29184, Note_on_c, 2, 55, 81
1, 29184, Note_on_c, 5, 48, 120
1, 29184, Note_on_c, 5, 64, 97
1, 29184, Note_on_c, 5, 61, 108
1, 29184, Note_on_c, 5, 57, 110
1, 29184, Note_on_c, 6, 41, 91
1, 29184, Note_on_c, 9, 35, 107
1, 29184, Note_on_c, 9, 51, 91
1, 29189, Control_c, 2, 64, 127
1, 29192, Note_on_c, 6, 57, 76
1, 29193, Note_off_c, 9, 51, 91
1, 29193, Note_off_c, 9, 35, 107
1, 29196, Note_on_c, 3, 67, 106
1, 29210, Note_on_c, 6, 61, 71
1, 29211, Control_c, 3, 1, 1
1, 29217, Control_c, 3, 1, 4
1, 29223, Note_off_c, 2, 55, 81
1, 29233, Note_off_c, 2, 67, 84
1, 29235, Control_c, 3, 1, 5
1, 29255, Control_c, 3, 1, 5
1, 29271, Control_c, 3, 1, 4
1, 29283, Control_c, 0, 64, 127
1, 29289, Control_c, 3, 1, 6
1, 29311, Control_c, 3, 1, 9
1, 29323, Control_c, 3, 1, 17
1, 29341, Control_c, 3, 1, 24
1, 29359, Control_c, 3, 1, 29
1, 29363, Note_off_c, 6, 61, 71
1, 29365, Note_off_c, 6, 57, 76
1, 29367, Note_off_c, 3, 67, 106
1, 29376, Note_on_c, 2, 60, 78
1, 29376, Note_on_c, 2, 72, 83
1, 29376, Note_on_c, 9, 51, 53
1, 29377, Control_c, 3, 1, 33
1, 29384, Note_on_c, 3, 72, 95
1, 29385, Note_off_c, 9, 51, 53
1, 29397, Control_c, 3, 1, 30
1, 29400, Note_on_c, 6, 61, 70
1, 29400, Note_on_c, 6, 57, 61
1, 29413, Control_c, 3, 1, 22
1, 29421, Note_off_c, 0, 69, 80
1, 29423, Note_off_c, 2, 72, 83
1, 29423, Note_off_c, 0, 64, 83
1, 29425, Note_off_c, 2, 60, 78
1, 29425, Note_off_c, 0, 61, 80
1, 29435, Control_c, 3, 1, 26
1, 29457, Control_c, 3, 1, 23
1, 29467, Control_c, 3, 1, 14
1, 29485, Control_c, 3, 1, 4
1, 29503, Control_c, 3, 1, 0
1, 29527, Note_off_c, 6, 57, 61
1, 29527, Note_off_c, 6, 61, 70
1, 29545, Note_off_c, 3, 72, 95
1, 29565, Pitch_bend_c, 3, 7392
1, 29568, Note_on_c, 0, 57, 61
1, 29568, Note_on_c, 2, 69, 100
1, 29568, Note_on_c, 2, 57, 97
1, 29568, Note_on_c, 9, 51, 98
1, 29568, Note_on_c, 9, 37, 110
1, 29570, Note_on_c, 3, 69, 106
1, 29571, Pitch_bend_c, 3, 4032
1, 29577, Note_off_c, 9, 37, 110
1, 29577, Note_off_c, 9, 51, 98
1, 29578, Note_on_c, 6, 61, 81
1, 29580, Note_on_c, 6, 57, 78
1, 29585, Pitch_bend_c, 3, 3616
1, 29587, Control_c, 2, 64, 0
1, 29597, Pitch_bend_c, 3, 6752
1, 29611, Note_off_c, 6, 61, 81
1, 29611, Pitch_bend_c, 3, 8000
1, 29617, Note_off_c, 6, 57, 78
1, 29617, Pitch_bend_c, 3, 8192
1, 29649, Note_off_c, 6, 41, 91
1, 29657, Note_off_c, 0, 36, 82
1, 29701, Control_c, 2, 64, 127
1, 29707, Control_c, 3, 1, 6
1, 29719, Control_c, 3, 1, 14
1, 29739, Control_c, 3, 1, 17
1, 29749, Note_off_c, 1, 36, 113
1, 29754, Note_on_c, 6, 48, 78
1, 29755, Control_c, 3, 1, 20
1, 29760, Note_on_c, 0, 61, 73
1, 29760, Note_on_c, 0, 36, 78
1, 29760, Note_on_c, 1, 36, 109
1, 29760, Note_on_c, 9, 51, 50
1, 29762, Note_on_c, 6, 57, 73
1, 29769, Note_off_c, 9, 51, 50
1, 29772, Note_on_c, 6, 61, 75
1, 29779, Control_c, 3, 1, 21
1, 29791, Control_c, 3, 1, 22
1, 29801, Note_off_c, 0, 57, 61
1, 29811, Control_c, 3, 1, 21
1, 29815, Note_off_c, 0, 61, 73
1, 29819, Note_off_c, 2, 57, 97
1, 29823, Note_off_c, 6, 61, 75
1, 29831, Note_off_c, 6, 57, 73
1, 29831, Control_c, 3, 1, 23
1, 29837, Note_off_c, 6, 48, 78
1, 29847, Control_c, 3, 1, 25
1, 29861, Note_off_c, 2, 69, 100
1, 29865, Control_c, 3, 1, 28
1, 29879, Note_off_c, 0, 36, 78
1, 29897, Control_c, 3, 1, 29
1, 29917, Note_off_c, 1, 36, 109
1, 29937, Control_c, 3, 1, 28
1, 29949, Note_off_c, 5, 57, 110
1, 29949, Note_off_c, 5, 61, 108
1, 29949, Note_off_c, 5, 64, 97
1, 29949, Note_off_c, 5, 48, 120
1, 29952, Note_on_c, 0, 36, 79
1, 29952, Note_on_c, 0, 61, 84
1, 29952, Note_on_c, 0, 64, 80
1, 29952, Note_on_c, 0, 69, 91
1, 29952, Note_on_c, 1, 36, 116
1, 29952, Note_on_c, 5, 57, 99
1, 29952, Note_on_c, 5, 69, 116
1, 29952, Note_on_c, 9, 51, 87
1, 29957, Control_c, 3, 1, 30
1, 29960, Note_on_c, 7, 48, 127
1, 29961, Note_off_c, 9, 51, 87
1, 29962, Note_on_c, 6, 57, 67
1, 29966, Note_on_c, 6, 48, 85
1, 29969, Note_off_c, 7, 48, 127
1, 29977, Control_c, 3, 1, 26
1, 29980, Note_on_c, 6, 61, 75
1, 29991, Control_c, 3, 1, 25
1, 30007, Control_c, 3, 1, 20
1, 30020, Note_on_c, 7, 48, 91
1, 30027, Control_c, 3, 1, 16
1, 30029, Note_off_c, 7, 48, 91
1, 30047, Control_c, 3, 1, 11
1, 30048, Note_on_c, 0, 57, 58
1, 30065, Control_c, 3, 1, 8
1, 30070, Note_on_c, 7, 48, 81
1, 30077, Note_off_c, 0, 36, 79
1, 30079, Note_off_c, 7, 48, 81
1, 30085, Control_c, 3, 1, 10
1, 30109, Control_c, 3, 1, 9
1, 30115, Note_off_c, 0, 57, 58
1, 30115, Control_c, 3, 1, 8
1, 30119, Note_off_c, 6, 57, 67
1, 30124, Note_on_c, 7, 48, 77
1, 30129, Note_off_c, 0, 69, 91
1, 30129, Note_off_c, 0, 61, 84
1, 30133, Note_off_c, 7, 48, 77
1, 30133, Note_off_c, 0, 64, 80
1, 30133, Control_c, 3, 1, 9
1, 30144, Note_on_c, 0, 36, 67
1, 30144, Note_on_c, 9, 51, 50
1, 30151, Control_c, 3, 1, 5
1, 30153, Note_off_c, 9, 51, 50
1, 30172, Note_on_c, 7, 48, 67
1, 30174, Note_on_c, 6, 57, 38
1, 30177, Control_c, 3, 1, 6
1, 30181, Note_off_c, 7, 48, 67
1, 30203, Control_c, 3, 1, 7
1, 30211, Control_c, 3, 1, 9
1, 30224, Note_on_c, 7, 48, 75
1, 30233, Note_off_c, 7, 48, 75
1, 30255, Control_c, 3, 1, 10
1, 30257, Note_off_c, 0, 36, 67
1, 30263, Control_c, 3, 1, 11
1, 30270, Note_on_c, 7, 48, 78
1, 30275, Note_off_c, 6, 57, 38
1, 30275, Note_off_c, 6, 61, 75
1, 30279, Note_off_c, 7, 48, 78
1, 30281, Control_c, 3, 1, 13
1, 30303, Control_c, 3, 1, 14
1, 30305, Note_off_c, 1, 36, 116
1, 30307, Control_c, 2, 64, 0
1, 30313, Note_off_c, 3, 69, 106
1, 30318, Note_on_c, 7, 48, 80
1, 30319, Control_c, 3, 1, 15
1, 30326, Note_on_c, 3, 70, 107
1, 30327, Note_off_c, 7, 48, 80
1, 30333, Note_off_c, 5, 69, 116
1, 30333, Note_off_c, 5, 57, 99
1, 30335, Control_c, 3, 1, 14
1, 30336, Note_on_c, 0, 70, 96
1, 30336, Note_on_c, 0, 58, 88
1, 30336, Note_on_c, 0, 61, 84
1, 30336, Note_on_c, 1, 36, 116
1, 30336, Note_on_c, 2, 70, 115
1, 30336, Note_on_c, 5, 70, 110
1, 30336, Note_on_c, 5, 58, 115
1, 30336, Note_on_c, 9, 37, 108
1, 30336, Note_on_c, 9, 51, 97
1, 30345, Note_off_c, 9, 51, 97
1, 30345, Note_off_c, 9, 37, 108
1, 30349, Control_c, 3, 1, 12
1, 30352, Note_on_c, 6, 61, 77
1, 30356, Note_on_c, 6, 57, 77
1, 30357, Note_off_c, 0, 61, 84
1, 30364, Note_on_c, 7, 48, 82
1, 30369, Note_off_c, 0, 58, 88
1, 30373, Note_off_c, 7, 48, 82
1, 30373, Control_c, 3, 1, 14
1, 30385, Control_c, 2, 64, 127
1, 30389, Note_off_c, 6, 61, 77
1, 30391, Control_c, 3, 1, 17
1, 30393, Note_off_c, 0, 70, 96
1, 30395, Note_off_c, 6, 57, 77
1, 30399, Note_off_c, 6, 48, 85
1, 30403, Control_c, 3, 1, 23
1, 30416, Note_on_c, 7, 48, 78
1, 30421, Control_c, 3, 1, 28
1, 30425, Note_off_c, 7, 48, 78
1, 30441, Control_c, 3, 1, 32
1, 30451, Note_off_c, 2, 70, 115
1, 30454, Note_on_c, 7, 48, 95
1, 30461, Control_c, 3, 1, 34
1, 30463, Note_off_c, 7, 48, 95
1, 30479, Control_c, 3, 1, 38
1, 30499, Control_c, 3, 1, 40
1, 30502, Note_on_c, 7, 48, 91
1, 30511, Note_off_c, 7, 48, 91
1, 30517, Control_c, 3, 1, 36
1, 30526, Note_on_c, 6, 48, 78
1, 30528, Note_on_c, 0, 36, 32
1, 30528, Note_on_c, 9, 35, 85
1, 30528, Note_on_c, 9, 51, 58
1, 30529, Control_c, 3, 1, 21
1, 30537, Note_off_c, 9, 51, 58
1, 30537, Note_off_c, 9, 35, 85
1, 30538, Note_on_c, 7, 48, 98
1, 30547, Note_off_c, 7, 48, 98
1, 30547, Control_c, 3, 1, 10
1, 30565, Control_c, 3, 1, 3
1, 30569, Note_off_c, 0, 36, 32
1, 30580, Note_on_c, 7, 48, 103
1, 30583, Control_c, 3, 1, 0
1, 30587, Note_off_c, 6, 48, 78
1, 30589, Note_off_c, 7, 48, 103
1, 30628, Note_on_c, 7, 48, 116
1, 30637, Note_off_c, 7, 48, 116
1, 30667, Note_off_c, 1, 36, 116
1, 30673, Note_off_c, 3, 70, 107
1, 30683, Control_c, 0, 64, 0
1, 30684, Note_on_c, 7, 48, 120
1, 30685, Pitch_bend_c, 3, 8160
1, 30689, Pitch_bend_c, 3, 2752
1, 30693, Note_off_c, 7, 48, 120
1, 30698, Note_on_c, 6, 48, 102
1, 30703, Pitch_bend_c, 3, 0
1, 30710, Note_on_c, 3, 72, 110
1, 30717, Note_off_c, 5, 58, 115
1, 30717, Note_off_c, 5, 70, 110
1, 30717, Control_c, 2, 64, 0
1, 30720, Note_on_c, 0, 60, 91
1, 30720, Note_on_c, 0, 64, 91
1, 30720, Note_on_c, 0, 69, 100
1, 30720, Note_on_c, 0, 57, 83
1, 30720, Note_on_c, 0, 41, 97
1, 30720, Note_on_c, 1, 41, 109
1, 30720, Note_on_c, 2, 72, 111
1, 30720, Note_on_c, 4, 72, 100
1, 30720, Note_on_c, 4, 76, 94
1, 30720, Note_on_c, 4, 69, 99
1, 30720, Note_on_c, 5, 84, 111
1, 30720, Note_on_c, 9, 49, 94
1, 30720, Note_on_c, 9, 35, 93
1, 30726, Note_on_c, 6, 57, 94
1, 30729, Note_off_c, 9, 35, 93
1, 30729, Note_off_c, 9, 49, 94
1, 30731, Pitch_bend_c, 3, 4096
1, 30734, Note_on_c, 7, 41, 127
1, 30743, Note_off_c, 7, 41, 127
1, 30744, Note_on_c, 6, 64, 101
1, 30745, Pitch_bend_c, 3, 7936
1, 30757, Pitch_bend_c, 3, 8192
1, 30825, Control_c, 0, 64, 127
1, 30825, Control_c, 2, 64, 127
1, 30861, Control_c, 3, 1, 4
1, 30871, Note_off_c, 0, 41, 97
1, 30871, Control_c, 3, 1, 15
1, 30889, Control_c, 3, 1, 21
1, 30907, Note_off_c, 6, 64, 101
1, 30912, Note_on_c, 9, 51, 54
1, 30913, Note_off_c, 0, 69, 100
1, 30919, Note_off_c, 0, 57, 83
1, 30921, Note_off_c, 9, 51, 54
1, 30921, Control_c, 3, 1, 22
1, 30927, Note_off_c, 0, 64, 91
1, 30928, Note_on_c, 6, 64, 73
1, 30929, Note_off_c, 0, 60, 91
1, 30933, Control_c, 3, 1, 23
1, 30975, Control_c, 3, 1, 24
1, 30981, Control_c, 3, 1, 24
1, 30997, Control_c, 3, 1, 24
1, 31017, Control_c, 3, 1, 25
1, 31047, Control_c, 3, 1, 26
1, 31057, Control_c, 3, 1, 28
1, 31063, Note_off_c, 6, 64, 73
1, 31071, Note_off_c, 6, 57, 94
1, 31087, Control_c, 3, 1, 29
1, 31104, Note_on_c, 0, 57, 75
1, 31104, Note_on_c, 9, 51, 101
1, 31104, Note_on_c, 9, 37, 110
1, 31113, Note_off_c, 9, 37, 110
1, 31113, Note_off_c, 9, 51, 101
1, 31117, Note_off_c, 2, 72, 111
1, 31117, Control_c, 3, 1, 28
1, 31118, Note_on_c, 6, 57, 78
1, 31118, Note_on_c, 6, 64, 93
1, 31123, Control_c, 3, 1, 27
1, 31141, Control_c, 3, 1, 29
1, 31157, Note_off_c, 6, 57, 78
1, 31159, Note_off_c, 6, 64, 93
1, 31161, Control_c, 3, 1, 30
1, 31185, Control_c, 3, 1, 27
1, 31195, Control_c, 3, 1, 19
1, 31221, Control_c, 3, 1, 18
1, 31223, Note_off_c, 6, 48, 102
1, 31235, Control_c, 3, 1, 21
1, 31247, Note_off_c, 1, 41, 109
1, 31253, Control_c, 3, 1, 23
1, 31289, Note_off_c, 3, 72, 110
1, 31293, Note_off_c, 5, 84, 111
1, 31295, Control_c, 3, 1, 20
1, 31296, Note_on_c, 0, 41, 75
1, 31296, Note_on_c, 1, 41, 107
1, 31296, Note_on_c, 3, 69, 107
1, 31296, Note_on_c, 5, 81, 105
1, 31296, Note_on_c, 9, 51, 55
1, 31298, Note_on_c, 6, 53, 72
1, 31304, Note_on_c, 6, 60, 71
1, 31305, Note_off_c, 9, 51, 55
1, 31305, Control_c, 3, 1, 18
1, 31306, Note_on_c, 6, 64, 81
1, 31314, Note_on_c, 6, 69, 76
1, 31325, Control_c, 3, 1, 12
1, 31329, Note_off_c, 0, 57, 75
1, 31343, Control_c, 3, 1, 16
1, 31361, Note_off_c, 6, 64, 81
1, 31361, Control_c, 3, 1, 13
1, 31371, Note_off_c, 6, 69, 76
1, 31371, Note_off_c, 6, 60, 71
1, 31381, Note_off_c, 6, 53, 72
1, 31383, Control_c, 3, 1, 6
1, 31393, Control_c, 3, 1, 1
1, 31423, Control_c, 3, 1, 0
1, 31433, Note_off_c, 1, 41, 107
1, 31439, Control_c, 3, 1, 2
1, 31449, Control_c, 3, 1, 6
1, 31461, Note_off_c, 3, 69, 107
1, 31465, Control_c, 3, 1, 12
1, 31470, Note_on_c, 6, 53, 83
1, 31470, Note_on_c, 6, 60, 68
1, 31482, Note_on_c, 3, 64, 110
1, 31483, Control_c, 3, 1, 17
1, 31488, Note_on_c, 0, 55, 88
1, 31488, Note_on_c, 0, 60, 90
1, 31488, Note_on_c, 0, 57, 85
1, 31488, Note_on_c, 0, 64, 85
1, 31488, Note_on_c, 1, 41, 109
1, 31488, Note_on_c, 5, 76, 113
1, 31488, Note_on_c, 6, 64, 78
1, 31488, Note_on_c, 9, 51, 79
1, 31497, Note_off_c, 9, 51, 79
1, 31501, Note_off_c, 5, 81, 105
1, 31503, Control_c, 3, 1, 21
1, 31514, Note_on_c, 6, 69, 86
1, 31525, Control_c, 3, 1, 21
1, 31539, Control_c, 3, 1, 23
1, 31573, Note_off_c, 0, 55, 88
1, 31575, Control_c, 3, 1, 25
1, 31577, Note_off_c, 0, 57, 85
1, 31585, Note_off_c, 0, 64, 85
1, 31593, Note_off_c, 0, 60, 90
1, 31593, Control_c, 3, 1, 26
1, 31609, Control_c, 3, 1, 24
1, 31639, Control_c, 3, 1, 25
1, 31659, Control_c, 3, 1, 26
1, 31661, Note_off_c, 6, 69, 86
1, 31663, Control_c, 3, 1, 29
1, 31680, Note_on_c, 0, 48, 68
1, 31680, Note_on_c, 9, 51, 55
1, 31681, Control_c, 3, 1, 31
1, 31682, Note_on_c, 6, 69, 58
1, 31689, Note_off_c, 9, 51, 55
1, 31701, Control_c, 3, 1, 32
1, 31737, Control_c, 3, 1, 26
1, 31755, Control_c, 3, 1, 17
1, 31771, Control_c, 3, 1, 10
1, 31789, Control_c, 3, 1, 1
1, 31807, Control_c, 3, 1, 0
1, 31833, Note_off_c, 6, 69, 58
1, 31833, Note_off_c, 6, 60, 68
1, 31839, Note_off_c, 6, 64, 78
1, 31859, Pitch_bend_c, 3, 7392
1, 31865, Pitch_bend_c, 3, 3200
1, 31869, Note_off_c, 5, 76, 113
1, 31872, Note_on_c, 0, 57, 82
1, 31872, Note_on_c, 0, 65, 98
1, 31872, Note_on_c, 2, 64, 80
1, 31872, Note_on_c, 5, 77, 99
1, 31872, Note_on_c, 9, 51, 98
1, 31872, Note_on_c, 9, 37, 113
1, 31876, Note_on_c, 6, 60, 73
1, 31881, Note_off_c, 9, 37, 113
1, 31881, Note_off_c, 9, 51, 98
1, 31881, Pitch_bend_c, 3, 1760
1, 31882, Note_on_c, 6, 64, 85
1, 31886, Note_on_c, 3, 65, 103
1, 31887, Note_off_c, 3, 64, 110
1, 31888, Note_on_c, 6, 69, 92
1, 31889, Note_off_c, 0, 48, 68
1, 31893, Pitch_bend_c, 3, 2080
1, 31907, Pitch_bend_c, 3, 4320
1, 31921, Pitch_bend_c, 3, 7456
1, 31931, Note_off_c, 6, 64, 85
1, 31931, Note_off_c, 2, 64, 80
1, 31935, Note_off_c, 6, 69, 92
1, 31935, Pitch_bend_c, 3, 8032
1, 31941, Note_off_c, 6, 60, 73
1, 31949, Pitch_bend_c, 3, 8160
1, 31953, Pitch_bend_c, 3, 8192
1, 31959, Note_off_c, 0, 41, 75
1, 31997, Note_off_c, 6, 53, 83
1, 31999, Note_off_c, 0, 65, 98
1, 32019, Note_off_c, 0, 57, 82
1, 32064, Note_on_c, 2, 65, 80
1, 32064, Note_on_c, 9, 51, 56
1, 32064, Note_on_c, 9, 35, 76
1, 32073, Note_off_c, 9, 35, 76
1, 32073, Note_off_c, 9, 51, 56
1, 32074, Note_on_c, 6, 60, 71
1, 32074, Note_on_c, 6, 69, 81
1, 32074, Note_on_c, 6, 64, 81
1, 32095, Control_c, 3, 1, 7
1, 32105, Note_off_c, 2, 65, 80
1, 32113, Control_c, 3, 1, 12
1, 32115, Note_off_c, 6, 60, 71
1, 32117, Note_off_c, 6, 64, 81
1, 32121, Note_off_c, 6, 69, 81
1, 32131, Control_c, 3, 1, 15
1, 32155, Control_c, 3, 1, 16
1, 32167, Control_c, 3, 1, 18
1, 32191, Control_c, 3, 1, 19
1, 32203, Note_off_c, 1, 41, 109
1, 32207, Control_c, 3, 1, 20
1, 32245, Control_c, 3, 1, 17
1, 32251, Control_c, 0, 64, 0
1, 32253, Note_off_c, 5, 77, 99
1, 32253, Note_off_c, 4, 69, 99
1, 32253, Note_off_c, 4, 76, 94
1, 32253, Note_off_c, 4, 72, 100
1, 32256, Note_on_c, 0, 55, 90
1, 32256, Note_on_c, 0, 53, 88
1, 32256, Note_on_c, 0, 58, 97
1, 32256, Note_on_c, 0, 41, 93
1, 32256, Note_on_c, 0, 61, 92
1, 32256, Note_on_c, 1, 36, 107
1, 32256, Note_on_c, 2, 61, 105
1, 32256, Note_on_c, 4, 73, 94
1, 32256, Note_on_c, 4, 70, 95
1, 32256, Note_on_c, 4, 77, 81
1, 32256, Note_on_c, 5, 73, 107
1, 32256, Note_on_c, 9, 51, 94
1, 32256, Note_on_c, 9, 35, 93
1, 32257, Control_c, 0, 64, 127
1, 32264, Note_on_c, 6, 61, 67
1, 32264, Note_on_c, 6, 48, 83
1, 32265, Note_off_c, 9, 35, 93
1, 32265, Note_off_c, 9, 51, 94
1, 32265, Control_c, 3, 1, 15
1, 32267, Control_c, 2, 64, 0
1, 32276, Note_on_c, 7, 48, 107
1, 32277, Control_c, 3, 1, 14
1, 32279, Note_off_c, 3, 65, 103
1, 32285, Note_off_c, 7, 48, 107
1, 32286, Note_on_c, 6, 65, 78
1, 32290, Note_on_c, 3, 61, 97
1, 32295, Control_c, 3, 1, 16
1, 32317, Control_c, 3, 1, 9
1, 32320, Note_on_c, 6, 70, 74
1, 32337, Control_c, 3, 1, 13
1, 32349, Control_c, 3, 1, 18
1, 32351, Control_c, 2, 64, 127
1, 32365, Control_c, 3, 1, 26
1, 32385, Control_c, 3, 1, 30
1, 32403, Control_c, 3, 1, 35
1, 32419, Control_c, 3, 1, 38
1, 32439, Control_c, 3, 1, 39
1, 32445, Note_off_c, 6, 61, 67
1, 32447, Note_off_c, 6, 65, 78
1, 32448, Note_on_c, 9, 51, 54
1, 32457, Note_off_c, 9, 51, 54
1, 32461, Control_c, 3, 1, 40
1, 32463, Control_c, 0, 64, 127
1, 32467, Note_off_c, 2, 61, 105
1, 32474, Note_on_c, 6, 61, 43
1, 32477, Control_c, 3, 1, 42
1, 32478, Note_on_c, 6, 65, 67
1, 32495, Control_c, 3, 1, 44
1, 32513, Control_c, 3, 1, 37
1, 32529, Control_c, 3, 1, 28
1, 32533, Note_off_c, 0, 55, 90
1, 32535, Note_off_c, 0, 53, 88
1, 32545, Control_c, 3, 1, 23
1, 32549, Note_off_c, 6, 65, 67
1, 32549, Note_off_c, 0, 58, 97
1, 32557, Note_off_c, 6, 61, 43
1, 32561, Note_off_c, 0, 61, 92
1, 32563, Note_off_c, 6, 70, 74
1, 32563, Control_c, 3, 1, 19
1, 32583, Control_c, 3, 1, 17
1, 32617, Control_c, 3, 1, 3
1, 32632, Note_on_c, 6, 61, 69
1, 32635, Control_c, 3, 1, 0
1, 32640, Note_on_c, 0, 53, 68
1, 32640, Note_on_c, 0, 55, 68
1, 32640, Note_on_c, 9, 51, 101
1, 32640, Note_on_c, 9, 37, 110
1, 32644, Note_on_c, 6, 65, 83
1, 32649, Note_off_c, 9, 37, 110
1, 32649, Note_off_c, 9, 51, 101
1, 32651, Note_off_c, 3, 61, 97
1, 32680, Note_on_c, 6, 70, 77
1, 32715, Note_off_c, 0, 41, 93
1, 32717, Note_off_c, 6, 65, 83
1, 32731, Note_off_c, 6, 70, 77
1, 32741, Note_off_c, 6, 61, 69
1, 32743, Note_off_c, 0, 55, 68
1, 32747, Note_off_c, 0, 53, 68
1, 32765, Note_off_c, 6, 48, 83
1, 32801, Note_off_c, 1, 36, 107
1, 32832, Note_on_c, 0, 58, 58
1, 32832, Note_on_c, 1, 36, 111
1, 32832, Note_on_c, 9, 51, 55
1, 32841, Note_off_c, 9, 51, 55
1, 32844, Note_on_c, 6, 48, 72
1, 32846, Note_on_c, 6, 61, 59
1, 32848, Note_on_c, 6, 70, 79
1, 32871, Note_off_c, 0, 58, 58
1, 32907, Note_off_c, 6, 70, 79
1, 32933, Note_off_c, 6, 61, 59
1, 32933, Note_off_c, 6, 48, 72
1, 32991, Note_off_c, 1, 36, 111
1, 32999, Control_c, 2, 64, 0
1, 33010, Note_on_c, 5, 72, 113
1, 33013, Note_off_c, 4, 73, 94
1, 33017, Note_off_c, 4, 77, 81
1, 33021, Note_off_c, 5, 73, 107
1, 33024, Note_on_c, 0, 36, 83
1, 33024, Note_on_c, 0, 60, 85
1, 33024, Note_on_c, 0, 58, 83
1, 33024, Note_on_c, 1, 36, 114
1, 33024, Note_on_c, 2, 60, 83
1, 33024, Note_on_c, 4, 72, 97
1, 33024, Note_on_c, 9, 51, 79
1, 33027, Control_c, 0, 64, 0
1, 33028, Note_on_c, 6, 60, 77
1, 33028, Note_on_c, 6, 48, 73
1, 33033, Note_off_c, 9, 51, 79
1, 33038, Note_on_c, 3, 60, 109
1, 33115, Control_c, 2, 64, 127
1, 33117, Control_c, 0, 64, 127
1, 33131, Control_c, 3, 1, 3
1, 33141, Control_c, 3, 1, 6
1, 33155, Note_off_c, 2, 60, 83
1, 33157, Control_c, 3, 1, 8
1, 33161, Note_off_c, 0, 60, 85
1, 33173, Note_off_c, 0, 58, 83
1, 33175, Control_c, 3, 1, 10
1, 33193, Control_c, 3, 1, 12
1, 33195, Note_off_c, 5, 72, 113
1, 33198, Note_on_c, 5, 74, 106
1, 33211, Note_off_c, 3, 60, 109
1, 33216, Note_on_c, 0, 62, 87
1, 33216, Note_on_c, 2, 62, 77
1, 33216, Note_on_c, 9, 51, 55
1, 33220, Note_on_c, 3, 62, 91
1, 33225, Note_off_c, 9, 51, 55
1, 33225, Control_c, 3, 1, 14
1, 33259, Note_off_c, 2, 62, 77
1, 33273, Note_off_c, 0, 62, 87
1, 33273, Control_c, 3, 1, 17
1, 33283, Control_c, 3, 1, 21
1, 33303, Control_c, 3, 1, 25
1, 33323, Control_c, 3, 1, 27
1, 33345, Control_c, 3, 1, 29
1, 33375, Note_off_c, 6, 60, 77
1, 33387, Note_off_c, 3, 62, 91
1, 33387, Note_off_c, 5, 74, 106
1, 33390, Note_on_c, 5, 77, 102
1, 33403, Control_c, 3, 1, 27
1, 33408, Note_on_c, 0, 65, 86
1, 33408, Note_on_c, 2, 65, 83
1, 33408, Note_on_c, 3, 65, 102
1, 33408, Note_on_c, 9, 51, 98
1, 33408, Note_on_c, 9, 37, 113
1, 33409, Control_c, 3, 1, 25
1, 33417, Note_off_c, 9, 37, 113
1, 33417, Note_off_c, 9, 51, 98
1, 33418, Note_on_c, 6, 60, 70
1, 33426, Note_on_c, 7, 48, 106
1, 33427, Control_c, 3, 1, 24
1, 33433, Note_off_c, 0, 36, 83
1, 33435, Note_off_c, 7, 48, 106
1, 33439, Note_off_c, 2, 65, 83
1, 33445, Control_c, 3, 1, 15
1, 33457, Note_off_c, 6, 60, 70
1, 33463, Control_c, 3, 1, 6
1, 33469, Note_off_c, 0, 65, 86
1, 33481, Control_c, 3, 1, 15
1, 33491, Note_off_c, 6, 48, 73
1, 33501, Control_c, 3, 1, 20
1, 33504, Note_on_c, 0, 69, 91
1, 33504, Note_on_c, 2, 69, 85
1, 33517, Control_c, 3, 1, 25
1, 33519, Note_off_c, 3, 65, 102
1, 33529, Note_off_c, 5, 77, 102
1, 33532, Note_on_c, 5, 81, 102
1, 33536, Note_on_c, 3, 69, 97
1, 33537, Note_off_c, 2, 69, 85
1, 33537, Control_c, 3, 1, 27
1, 33551, Note_off_c, 0, 69, 91
1, 33555, Control_c, 3, 1, 29
1, 33599, Control_c, 3, 1, 30
1, 33600, Note_on_c, 9, 51, 56
1, 33600, Note_on_c, 9, 35, 76
1, 33609, Note_off_c, 9, 35, 76
1, 33609, Note_off_c, 9, 51, 56
1, 33612, Note_on_c, 7, 46, 112
1, 33615, Control_c, 3, 1, 29
1, 33621, Note_off_c, 7, 46, 112
1, 33629, Control_c, 3, 1, 29
1, 33643, Control_c, 3, 1, 7
1, 33653, Note_off_c, 3, 69, 97
1, 33661, Note_off_c, 1, 36, 114
1, 33661, Control_c, 3, 1, 0
1, 33666, Note_on_c, 3, 72, 99
1, 33667, Note_off_c, 5, 81, 102
1, 33670, Note_on_c, 5, 84, 101
1, 33696, Note_on_c, 0, 72, 72
1, 33696, Note_on_c, 1, 34, 98
1, 33696, Note_on_c, 2, 72, 80
1, 33731, Note_off_c, 2, 72, 80
1, 33737, Note_off_c, 3, 72, 99
1, 33753, Note_off_c, 1, 34, 98
1, 33755, Note_off_c, 0, 72, 72
1, 33755, Pitch_bend_c, 3, 4480
1, 33771, Pitch_bend_c, 3, 1120
1, 33782, Note_on_c, 3, 74, 114
1, 33783, Pitch_bend_c, 3, 960
1, 33786, Note_on_c, 6, 45, 97
1, 33789, Note_off_c, 4, 72, 97
1, 33789, Note_off_c, 4, 70, 95
1, 33792, Note_on_c, 0, 72, 75
1, 33792, Note_on_c, 0, 69, 81
1, 33792, Note_on_c, 0, 64, 76
1, 33792, Note_on_c, 0, 41, 85
1, 33792, Note_on_c, 1, 33, 111
1, 33792, Note_on_c, 2, 74, 102
1, 33792, Note_on_c, 4, 64, 99
1, 33792, Note_on_c, 4, 74, 101
1, 33792, Note_on_c, 4, 67, 106
1, 33792, Note_on_c, 4, 69, 102
1, 33792, Note_on_c, 9, 51, 94
1, 33792, Note_on_c, 9, 35, 93
1, 33793, Control_c, 2, 64, 0
1, 33797, Note_off_c, 5, 84, 101
1, 33797, Control_c, 0, 64, 0
1, 33799, Pitch_bend_c, 3, 3712
1, 33800, Note_on_c, 5, 86, 102
1, 33801, Note_off_c, 9, 35, 93
1, 33801, Note_off_c, 9, 51, 94
1, 33806, Note_on_c, 6, 55, 78
1, 33806, Note_on_c, 7, 45, 127
1, 33811, Pitch_bend_c, 3, 7552
1, 33815, Note_off_c, 7, 45, 127
1, 33822, Note_on_c, 6, 60, 78
1, 33825, Pitch_bend_c, 3, 8096
1, 33831, Pitch_bend_c, 3, 8192
1, 33860, Note_on_c, 6, 62, 73
1, 33871, Control_c, 2, 64, 127
1, 33951, Control_c, 0, 64, 127
1, 33957, Control_c, 3, 1, 6
1, 33967, Note_off_c, 6, 62, 73
1, 33969, Control_c, 3, 1, 14
1, 33975, Note_off_c, 6, 60, 78
1, 33984, Note_on_c, 9, 51, 54
1, 33987, Control_c, 3, 1, 18
1, 33989, Note_off_c, 0, 72, 75
1, 33991, Note_off_c, 0, 69, 81
1, 33993, Note_off_c, 9, 51, 54
1, 34003, Note_off_c, 0, 64, 76
1, 34003, Control_c, 3, 1, 23
1, 34014, Note_on_c, 6, 60, 71
1, 34014, Note_on_c, 6, 62, 73
1, 34025, Note_off_c, 2, 74, 102
1, 34025, Control_c, 3, 1, 25
1, 34053, Control_c, 3, 1, 26
1, 34083, Control_c, 3, 1, 27
1, 34123, Control_c, 3, 1, 28
1, 34143, Control_c, 3, 1, 29
1, 34155, Note_off_c, 6, 62, 73
1, 34163, Note_off_c, 6, 60, 71
1, 34167, Note_off_c, 6, 55, 78
1, 34176, Note_on_c, 0, 55, 73
1, 34176, Note_on_c, 9, 51, 101
1, 34176, Note_on_c, 9, 37, 110
1, 34179, Control_c, 3, 1, 28
1, 34183, Control_c, 3, 1, 23
1, 34185, Note_off_c, 9, 37, 110
1, 34185, Note_off_c, 9, 51, 101
1, 34200, Note_on_c, 6, 60, 85
1, 34202, Note_on_c, 6, 62, 85
1, 34202, Note_on_c, 6, 55, 80
1, 34203, Control_c, 3, 1, 19
1, 34219, Control_c, 3, 1, 12
1, 34229, Note_off_c, 6, 62, 85
1, 34235, Note_off_c, 6, 60, 85
1, 34241, Note_off_c, 6, 55, 80
1, 34251, Control_c, 3, 1, 13
1, 34257, Control_c, 3, 1, 18
1, 34265, Note_off_c, 6, 45, 97
1, 34279, Control_c, 3, 1, 20
1, 34289, Note_off_c, 0, 55, 73
1, 34295, Control_c, 3, 1, 22
1, 34311, Control_c, 3, 1, 1
1, 34325, Note_off_c, 1, 33, 111
1, 34329, Control_c, 3, 1, 0
1, 34358, Note_on_c, 7, 45, 88
1, 34363, Note_off_c, 3, 74, 114
1, 34367, Note_off_c, 7, 45, 88
1, 34368, Note_on_c, 0, 57, 81
1, 34368, Note_on_c, 1, 33, 111
1, 34368, Note_on_c, 2, 69, 71
1, 34368, Note_on_c, 9, 51, 55
1, 34374, Note_on_c, 3, 69, 101
1, 34376, Note_on_c, 6, 45, 91
1, 34377, Note_off_c, 9, 51, 55
1, 34415, Note_off_c, 2, 69, 71
1, 34453, Note_off_c, 3, 69, 101
1, 34461, Note_off_c, 0, 57, 81
1, 34464, Note_on_c, 2, 67, 79
1, 34469, Note_off_c, 6, 45, 91
1, 34470, Note_on_c, 3, 67, 87
1, 34495, Note_off_c, 2, 67, 79
1, 34523, Note_off_c, 1, 33, 111
1, 34536, Note_on_c, 6, 45, 85
1, 34545, Note_off_c, 3, 67, 87
1, 34548, Note_on_c, 6, 55, 62
1, 34560, Note_on_c, 0, 64, 83
1, 34560, Note_on_c, 0, 67, 90
1, 34560, Note_on_c, 0, 60, 81
1, 34560, Note_on_c, 1, 33, 111
1, 34560, Note_on_c, 2, 69, 110
1, 34560, Note_on_c, 9, 51, 79
1, 34568, Note_on_c, 7, 45, 113
1, 34569, Note_off_c, 9, 51, 79
1, 34570, Note_on_c, 3, 69, 111
1, 34570, Note_on_c, 6, 60, 70
1, 34577, Note_off_c, 7, 45, 113
1, 34601, Control_c, 2, 64, 0
1, 34612, Note_on_c, 6, 62, 69
1, 34617, Control_c, 3, 1, 15
1, 34633, Control_c, 3, 1, 23
1, 34655, Control_c, 3, 1, 28
1, 34657, Control_c, 2, 64, 127
1, 34669, Note_off_c, 0, 64, 83
1, 34669, Control_c, 3, 1, 29
1, 34671, Note_off_c, 0, 67, 90
1, 34685, Note_off_c, 0, 60, 81
1, 34687, Control_c, 3, 1, 33
1, 34721, Control_c, 3, 1, 32
1, 34733, Note_off_c, 6, 62, 69
1, 34735, Control_c, 3, 1, 33
1, 34747, Control_c, 3, 1, 35
1, 34752, Note_on_c, 9, 51, 55
1, 34759, Control_c, 3, 1, 40
1, 34761, Note_off_c, 9, 51, 55
1, 34778, Note_on_c, 6, 62, 56
1, 34791, Control_c, 3, 1, 41
1, 34817, Control_c, 3, 1, 41
1, 34835, Control_c, 3, 1, 44
1, 34853, Control_c, 3, 1, 46
1, 34883, Control_c, 3, 1, 44
1, 34887, Control_c, 3, 1, 38
1, 34901, Note_off_c, 6, 62, 56
1, 34905, Control_c, 3, 1, 35
1, 34907, Note_off_c, 6, 60, 70
1, 34909, Note_off_c, 6, 55, 62
1, 34919, Note_off_c, 0, 41, 85
1, 34923, Control_c, 3, 1, 35
1, 34939, Control_c, 3, 1, 38
1, 34944, Note_on_c, 0, 60, 85
1, 34944, Note_on_c, 9, 51, 98
1, 34944, Note_on_c, 9, 37, 113
1, 34953, Note_off_c, 9, 37, 113
1, 34953, Note_off_c, 9, 51, 98
1, 34960, Note_on_c, 6, 60, 83
1, 34962, Note_on_c, 6, 62, 88
1, 34962, Note_on_c, 6, 55, 80
1, 34965, Control_c, 3, 1, 40
1, 34983, Control_c, 3, 1, 41
1, 34999, Note_off_c, 6, 62, 88
1, 35001, Note_off_c, 6, 60, 83
1, 35005, Note_off_c, 6, 55, 80
1, 35011, Control_c, 3, 1, 38
1, 35033, Note_off_c, 2, 69, 110
1, 35037, Control_c, 3, 1, 37
1, 35051, Note_off_c, 6, 45, 85
1, 35057, Control_c, 3, 1, 34
1, 35067, Control_c, 3, 1, 28
1, 35073, Note_off_c, 0, 60, 85
1, 35083, Control_c, 3, 1, 28
1, 35109, Control_c, 3, 1, 27
1, 35111, Note_off_c, 1, 33, 111
1, 35121, Control_c, 3, 1, 22
1, 35133, Note_off_c, 5, 86, 102
1, 35136, Note_on_c, 0, 64, 77
1, 35136, Note_on_c, 1, 34, 88
1, 35136, Note_on_c, 5, 81, 98
1, 35136, Note_on_c, 9, 51, 56
1, 35136, Note_on_c, 9, 35, 76
1, 35137, Control_c, 3, 1, 14
1, 35140, Note_on_c, 6, 55, 69
1, 35140, Note_on_c, 6, 60, 72
1, 35144, Note_on_c, 6, 62, 77
1, 35145, Note_off_c, 9, 35, 76
1, 35145, Note_off_c, 9, 51, 56
1, 35155, Control_c, 3, 1, 6
1, 35165, Note_off_c, 0, 64, 77
1, 35175, Control_c, 3, 1, 4
1, 35177, Note_off_c, 6, 62, 77
1, 35183, Note_off_c, 6, 60, 72
1, 35187, Note_off_c, 1, 34, 88
1, 35197, Note_off_c, 6, 55, 69
1, 35199, Control_c, 3, 1, 5
1, 35211, Control_c, 3, 1, 0
1, 35232, Note_on_c, 1, 35, 105
1, 35283, Note_off_c, 3, 69, 111
1, 35287, Note_off_c, 1, 35, 105
1, 35303, Control_c, 0, 64, 0
1, 35304, Note_on_c, 6, 48, 89
1, 35310, Note_on_c, 6, 53, 57
1, 35325, Note_off_c, 4, 69, 102
1, 35325, Note_off_c, 4, 67, 106
1, 35325, Note_off_c, 4, 74, 101
1, 35325, Note_off_c, 4, 64, 99
1, 35326, Note_on_c, 6, 58, 73
1, 35328, Note_on_c, 0, 62, 83
1, 35328, Note_on_c, 0, 58, 78
1, 35328, Note_on_c, 0, 48, 95
1, 35328, Note_on_c, 0, 65, 70
1, 35328, Note_on_c, 1, 36, 125
1, 35328, Note_on_c, 2, 60, 87
1, 35328, Note_on_c, 4, 58, 101
1, 35328, Note_on_c, 4, 62, 96
1, 35328, Note_on_c, 4, 65, 94
1, 35328, Note_on_c, 5, 84, 110
1, 35328, Note_on_c, 7, 48, 113
1, 35328, Note_on_c, 9, 35, 107
1, 35328, Note_on_c, 9, 51, 91
1, 35335, Note_off_c, 5, 81, 98
1, 35337, Note_off_c, 9, 51, 91
1, 35337, Note_off_c, 9, 35, 107
1, 35337, Note_off_c, 7, 48, 113
1, 35364, Note_on_c, 6, 60, 66
1, 35397, Control_c, 2, 64, 0
1, 35431, Control_c, 0, 64, 127
1, 35457, Control_c, 2, 64, 127
1, 35491, Note_off_c, 6, 60, 66
1, 35497, Note_off_c, 6, 53, 57
1, 35499, Note_off_c, 6, 58, 73
1, 35517, Note_off_c, 5, 84, 110
1, 35520, Note_on_c, 0, 53, 90
1, 35520, Note_on_c, 5, 86, 100
1, 35520, Note_on_c, 9, 51, 53
1, 35529, Note_off_c, 9, 51, 53
1, 35530, Note_on_c, 6, 58, 67
1, 35530, Note_on_c, 6, 53, 57
1, 35532, Note_on_c, 6, 60, 64
1, 35553, Note_off_c, 0, 65, 70
1, 35553, Note_off_c, 0, 58, 78
1, 35555, Note_off_c, 0, 62, 83
1, 35579, Note_off_c, 0, 53, 90
1, 35619, Note_off_c, 2, 60, 87
1, 35657, Note_off_c, 6, 60, 64
1, 35661, Note_off_c, 6, 53, 57
1, 35665, Note_off_c, 6, 58, 67
1, 35712, Note_on_c, 0, 58, 94
1, 35712, Note_on_c, 2, 62, 86
1, 35712, Note_on_c, 5, 89, 97
1, 35712, Note_on_c, 9, 51, 98
1, 35712, Note_on_c, 9, 37, 110
1, 35715, Note_off_c, 5, 86, 100
1, 35718, Note_on_c, 6, 53, 86
1, 35718, Note_on_c, 6, 58, 87
1, 35720, Note_on_c, 6, 60, 91
1, 35721, Note_off_c, 9, 37, 110
1, 35721, Note_off_c, 9, 51, 98
1, 35747, Note_off_c, 6, 58, 87
1, 35749, Note_off_c, 6, 60, 91
1, 35755, Note_off_c, 6, 53, 86
1, 35761, Note_off_c, 2, 62, 86
1, 35811, Note_off_c, 6, 48, 89
1, 35831, Note_off_c, 0, 58, 94
1, 35841, Note_off_c, 1, 36, 125
1, 35894, Note_on_c, 6, 48, 64
1, 35901, Note_off_c, 5, 89, 97
1, 35904, Note_on_c, 0, 62, 95
1, 35904, Note_on_c, 1, 36, 111
1, 35904, Note_on_c, 2, 65, 88
1, 35904, Note_on_c, 5, 93, 110
1, 35904, Note_on_c, 7, 48, 87
1, 35904, Note_on_c, 9, 51, 50
1, 35910, Note_on_c, 6, 58, 66
1, 35910, Note_on_c, 6, 60, 62
1, 35912, Note_on_c, 6, 53, 53
1, 35913, Note_off_c, 9, 51, 50
1, 35913, Note_off_c, 7, 48, 87
1, 35937, Note_off_c, 0, 62, 95
1, 35947, Note_off_c, 2, 65, 88
1, 35951, Note_off_c, 6, 58, 66
1, 35957, Note_off_c, 6, 60, 62
1, 35967, Note_off_c, 6, 53, 53
1, 35987, Note_off_c, 6, 48, 64
1, 36053, Note_off_c, 1, 36, 111
1, 36061, Note_off_c, 0, 48, 95
1, 36093, Note_off_c, 5, 93, 110
1, 36096, Note_on_c, 0, 48, 88
1, 36096, Note_on_c, 0, 58, 86
1, 36096, Note_on_c, 0, 69, 83
1, 36096, Note_on_c, 0, 64, 87
1, 36096, Note_on_c, 0, 67, 85
1, 36096, Note_on_c, 1, 36, 113
1, 36096, Note_on_c, 2, 69, 78
1, 36096, Note_on_c, 5, 96, 98
1, 36096, Note_on_c, 7, 48, 110
1, 36096, Note_on_c, 9, 51, 87
1, 36098, Note_on_c, 6, 48, 80
1, 36105, Note_off_c, 9, 51, 87
1, 36105, Note_off_c, 7, 48, 110
1, 36106, Note_on_c, 6, 53, 64
1, 36107, Control_c, 0, 64, 0
1, 36115, Note_off_c, 0, 67, 85
1, 36120, Note_on_c, 6, 58, 70
1, 36139, Note_off_c, 2, 69, 78
1, 36156, Note_on_c, 6, 60, 61
1, 36211, Control_c, 0, 64, 127
1, 36231, Note_off_c, 0, 58, 86
1, 36269, Note_off_c, 6, 58, 70
1, 36269, Note_off_c, 6, 53, 64
1, 36273, Note_off_c, 0, 69, 83
1, 36285, Note_off_c, 5, 96, 98
1, 36288, Note_on_c, 0, 58, 74
1, 36288, Note_on_c, 2, 72, 90
1, 36288, Note_on_c, 5, 91, 101
1, 36288, Note_on_c, 7, 48, 78
1, 36288, Note_on_c, 9, 51, 50
1, 36297, Note_off_c, 9, 51, 50
1, 36297, Note_off_c, 7, 48, 78
1, 36308, Note_on_c, 6, 58, 50
1, 36316, Note_on_c, 6, 52, 71
1, 36323, Note_off_c, 0, 64, 87
1, 36329, Note_off_c, 2, 72, 90
1, 36359, Note_off_c, 0, 58, 74
1, 36425, Note_off_c, 6, 52, 71
1, 36437, Note_off_c, 6, 58, 50
1, 36441, Note_off_c, 6, 60, 61
1, 36457, Note_off_c, 6, 48, 80
1, 36477, Note_off_c, 5, 91, 101
1, 36480, Note_on_c, 0, 67, 91
1, 36480, Note_on_c, 0, 64, 85
1, 36480, Note_on_c, 0, 58, 54
1, 36480, Note_on_c, 5, 93, 93
1, 36480, Note_on_c, 9, 37, 108
1, 36480, Note_on_c, 9, 51, 97
1, 36484, Note_on_c, 7, 48, 111
1, 36488, Note_on_c, 6, 52, 76
1, 36489, Note_off_c, 9, 51, 97
1, 36489, Note_off_c, 9, 37, 108
1, 36489, Note_off_c, 0, 58, 54
1, 36493, Note_off_c, 7, 48, 111
1, 36500, Note_on_c, 3, 60, 103
1, 36502, Note_on_c, 6, 48, 90
1, 36510, Note_on_c, 6, 58, 74
1, 36524, Note_on_c, 6, 60, 78
1, 36552, Note_on_c, 7, 48, 92
1, 36561, Note_off_c, 7, 48, 92
1, 36563, Control_c, 3, 1, 8
1, 36575, Note_off_c, 6, 60, 78
1, 36577, Note_off_c, 0, 48, 88
1, 36577, Control_c, 3, 1, 19
1, 36579, Note_off_c, 6, 58, 74
1, 36579, Note_off_c, 6, 52, 76
1, 36587, Note_off_c, 0, 64, 85
1, 36595, Control_c, 3, 1, 27
1, 36597, Note_off_c, 0, 67, 91
1, 36613, Control_c, 3, 1, 31
1, 36618, Note_on_c, 7, 48, 68
1, 36627, Note_off_c, 7, 48, 68
1, 36631, Control_c, 3, 1, 35
1, 36651, Control_c, 3, 1, 37
1, 36667, Control_c, 3, 1, 27
1, 36669, Note_off_c, 5, 93, 93
1, 36672, Note_on_c, 2, 79, 76
1, 36672, Note_on_c, 5, 88, 100
1, 36672, Note_on_c, 9, 35, 85
1, 36672, Note_on_c, 9, 51, 58
1, 36674, Note_on_c, 7, 48, 97
1, 36681, Note_off_c, 9, 51, 58
1, 36681, Note_off_c, 9, 35, 85
1, 36683, Note_off_c, 7, 48, 97
1, 36685, Control_c, 3, 1, 12
1, 36690, Note_on_c, 6, 58, 71
1, 36690, Note_on_c, 6, 52, 52
1, 36690, Note_on_c, 6, 60, 65
1, 36703, Control_c, 3, 1, 3
1, 36705, Note_off_c, 2, 79, 76
1, 36723, Note_off_c, 6, 58, 71
1, 36723, Control_c, 3, 1, 0
1, 36729, Note_off_c, 6, 48, 90
1, 36731, Note_off_c, 6, 60, 65
1, 36741, Note_off_c, 6, 52, 52
1, 36746, Note_on_c, 7, 48, 94
1, 36755, Note_off_c, 7, 48, 94
1, 36799, Note_off_c, 3, 60, 103
1, 36802, Note_on_c, 7, 48, 106
1, 36811, Note_off_c, 7, 48, 106
1, 36827, Pitch_bend_c, 3, 7072
1, 36835, Pitch_bend_c, 3, 2080
1, 36843, Note_off_c, 1, 36, 113
1, 36845, Control_c, 2, 64, 0
1, 36851, Pitch_bend_c, 3, 416
1, 36861, Note_off_c, 4, 65, 94
1, 36861, Note_off_c, 4, 62, 96
1, 36861, Note_off_c, 4, 58, 101
1, 36863, Pitch_bend_c, 3, 1120
1, 36864, Note_on_c, 0, 64, 83
1, 36864, Note_on_c, 0, 41, 91
1, 36864, Note_on_c, 0, 60, 87
1, 36864, Note_on_c, 0, 55, 83
1, 36864, Note_on_c, 1, 41, 100
1, 36864, Note_on_c, 3, 72, 113
1, 36864, Note_on_c, 4, 72, 105
1, 36864, Note_on_c, 4, 69, 107
1, 36864, Note_on_c, 4, 64, 89
1, 36864, Note_on_c, 5, 84, 98
1, 36864, Note_on_c, 9, 35, 107
1, 36864, Note_on_c, 9, 51, 91
1, 36867, Note_off_c, 5, 88, 100
1, 36867, Control_c, 0, 64, 0
1, 36870, Note_on_c, 6, 41, 75
1, 36873, Note_off_c, 9, 51, 91
1, 36873, Note_off_c, 9, 35, 107
1, 36876, Note_on_c, 7, 41, 125
1, 36878, Note_on_c, 6, 52, 79
1, 36879, Pitch_bend_c, 3, 2912
1, 36885, Note_off_c, 7, 41, 125
1, 36890, Note_on_c, 6, 57, 81
1, 36891, Pitch_bend_c, 3, 4992
1, 36905, Pitch_bend_c, 3, 7392
1, 36921, Pitch_bend_c, 3, 8160
1, 36924, Note_on_c, 6, 60, 87
1, 36929, Pitch_bend_c, 3, 8192
1, 36995, Control_c, 0, 64, 127
1, 37049, Note_off_c, 6, 60, 87
1, 37053, Note_off_c, 6, 57, 81
1, 37056, Note_on_c, 0, 48, 90
1, 37056, Note_on_c, 9, 51, 53
1, 37057, Control_c, 3, 1, 2
1, 37063, Control_c, 3, 1, 5
1, 37065, Note_off_c, 9, 51, 53
1, 37078, Note_on_c, 6, 57, 74
1, 37082, Note_on_c, 6, 60, 72
1, 37083, Control_c, 3, 1, 7
1, 37107, Control_c, 3, 1, 8
1, 37113, Note_off_c, 0, 55, 83
1, 37125, Note_off_c, 0, 64, 83
1, 37131, Note_off_c, 0, 60, 87
1, 37161, Control_c, 3, 1, 9
1, 37171, Control_c, 3, 1, 11
1, 37191, Control_c, 3, 1, 13
1, 37199, Note_off_c, 6, 60, 72
1, 37201, Note_off_c, 6, 57, 74
1, 37201, Note_off_c, 6, 52, 79
1, 37211, Control_c, 3, 1, 14
1, 37241, Control_c, 3, 1, 15
1, 37248, Note_on_c, 0, 57, 88
1, 37248, Note_on_c, 2, 72, 86
1, 37248, Note_on_c, 9, 51, 98
1, 37248, Note_on_c, 9, 37, 110
1, 37255, Control_c, 3, 1, 16
1, 37257, Note_off_c, 9, 37, 110
1, 37257, Note_off_c, 9, 51, 98
1, 37261, Control_c, 2, 64, 127
1, 37262, Note_on_c, 6, 52, 82
1, 37262, Note_on_c, 6, 57, 90
1, 37263, Control_c, 3, 1, 17
1, 37264, Note_on_c, 6, 60, 93
1, 37289, Note_off_c, 2, 72, 86
1, 37299, Note_off_c, 6, 57, 90
1, 37303, Note_off_c, 6, 52, 82
1, 37307, Note_off_c, 6, 60, 93
1, 37309, Note_off_c, 6, 41, 75
1, 37315, Control_c, 3, 1, 18
1, 37339, Control_c, 3, 1, 19
1, 37381, Control_c, 3, 1, 18
1, 37391, Control_c, 3, 1, 20
1, 37413, Note_off_c, 0, 57, 88
1, 37413, Note_off_c, 3, 72, 113
1, 37413, Control_c, 3, 1, 18
1, 37421, Note_off_c, 1, 41, 100
1, 37425, Control_c, 3, 1, 16
1, 37437, Note_off_c, 5, 84, 98
1, 37438, Note_on_c, 3, 69, 106
1, 37438, Note_on_c, 7, 41, 93
1, 37440, Note_on_c, 0, 60, 83
1, 37440, Note_on_c, 1, 41, 95
1, 37440, Note_on_c, 2, 69, 67
1, 37440, Note_on_c, 5, 81, 107
1, 37440, Note_on_c, 9, 51, 50
1, 37442, Note_on_c, 6, 57, 70
1, 37443, Control_c, 3, 1, 12
1, 37444, Note_on_c, 6, 52, 69
1, 37444, Note_on_c, 6, 60, 74
1, 37447, Note_off_c, 7, 41, 93
1, 37448, Note_on_c, 6, 41, 75
1, 37449, Note_off_c, 9, 51, 50
1, 37463, Control_c, 3, 1, 13
1, 37473, Note_off_c, 2, 69, 67
1, 37481, Control_c, 3, 1, 15
1, 37487, Note_off_c, 0, 60, 83
1, 37497, Note_off_c, 6, 57, 70
1, 37497, Control_c, 3, 1, 17
1, 37499, Note_off_c, 6, 60, 74
1, 37509, Note_off_c, 6, 52, 69
1, 37523, Control_c, 3, 1, 11
1, 37527, Note_off_c, 6, 41, 75
1, 37533, Control_c, 3, 1, 2
1, 37555, Control_c, 3, 1, 4
1, 37577, Note_off_c, 1, 41, 95
1, 37579, Control_c, 3, 1, 5
1, 37585, Control_c, 3, 1, 10
1, 37597, Note_off_c, 3, 69, 106
1, 37603, Control_c, 3, 1, 16
1, 37614, Note_on_c, 6, 52, 69
1, 37623, Control_c, 3, 1, 21
1, 37624, Note_on_c, 3, 64, 110
1, 37629, Note_off_c, 5, 81, 107
1, 37630, Note_on_c, 6, 41, 77
1, 37632, Note_on_c, 0, 64, 92
1, 37632, Note_on_c, 0, 57, 91
1, 37632, Note_on_c, 0, 60, 97
1, 37632, Note_on_c, 1, 41, 102
1, 37632, Note_on_c, 2, 64, 105
1, 37632, Note_on_c, 5, 76, 114
1, 37632, Note_on_c, 6, 57, 76
1, 37632, Note_on_c, 9, 51, 87
1, 37632, Note_on_c, 9, 35, 85
1, 37636, Note_on_c, 7, 41, 123
1, 37639, Control_c, 3, 1, 29
1, 37641, Note_off_c, 9, 35, 85
1, 37641, Note_off_c, 9, 51, 87
1, 37645, Note_off_c, 7, 41, 123
1, 37657, Control_c, 3, 1, 34
1, 37662, Note_on_c, 6, 60, 86
1, 37675, Control_c, 3, 1, 35
1, 37677, Note_off_c, 2, 64, 105
1, 37695, Control_c, 3, 1, 32
1, 37705, Note_off_c, 0, 60, 97
1, 37705, Note_off_c, 0, 64, 92
1, 37713, Control_c, 3, 1, 25
1, 37725, Note_off_c, 0, 57, 91
1, 37729, Control_c, 3, 1, 22
1, 37757, Control_c, 3, 1, 26
1, 37767, Control_c, 3, 1, 27
1, 37785, Control_c, 3, 1, 21
1, 37801, Control_c, 3, 1, 11
1, 37821, Control_c, 3, 1, 0
1, 37855, Note_off_c, 6, 60, 86
1, 37855, Note_off_c, 3, 64, 110
1, 37861, Note_off_c, 6, 57, 76
1, 37869, Note_off_c, 6, 52, 69
1, 37873, Pitch_bend_c, 3, 6336
1, 37885, Note_off_c, 1, 41, 102
1, 37885, Pitch_bend_c, 3, 2176
1, 37888, Note_on_c, 1, 41, 105
1, 37888, Note_on_c, 9, 51, 114
1, 37888, Note_on_c, 9, 35, 85
1, 37894, Note_on_c, 3, 67, 113
1, 37897, Note_off_c, 9, 35, 85
1, 37897, Note_off_c, 9, 51, 114
1, 37900, Note_on_c, 7, 41, 111
1, 37901, Pitch_bend_c, 3, 576
1, 37909, Note_off_c, 7, 41, 111
1, 37913, Pitch_bend_c, 3, 640
1, 37914, Note_on_c, 6, 52, 73
1, 37917, Note_off_c, 5, 76, 114
1, 37920, Note_on_c, 0, 67, 91
1, 37920, Note_on_c, 5, 79, 113
1, 37927, Pitch_bend_c, 3, 2400
1, 37940, Note_on_c, 6, 57, 68
1, 37943, Pitch_bend_c, 3, 4096
1, 37952, Note_on_c, 6, 60, 83
1, 37955, Pitch_bend_c, 3, 5856
1, 37969, Pitch_bend_c, 3, 7840
1, 37983, Pitch_bend_c, 3, 8160
1, 37989, Pitch_bend_c, 3, 8192
1, 38003, Note_off_c, 0, 67, 91
1, 38013, Note_off_c, 0, 48, 90
1, 38016, Note_on_c, 2, 65, 107
1, 38029, Note_off_c, 0, 41, 91
1, 38057, Note_off_c, 2, 65, 107
1, 38112, Note_on_c, 0, 65, 90
1, 38112, Note_on_c, 5, 77, 103
1, 38125, Note_off_c, 6, 41, 77
1, 38141, Note_off_c, 1, 41, 105
1, 38144, Note_on_c, 1, 41, 105
1, 38144, Note_on_c, 9, 51, 97
1, 38144, Note_on_c, 9, 35, 85
1, 38149, Note_off_c, 0, 65, 90
1, 38153, Note_off_c, 9, 35, 85
1, 38153, Note_off_c, 9, 51, 97
1, 38158, Note_on_c, 7, 41, 125
1, 38167, Note_off_c, 7, 41, 125
1, 38167, Note_off_c, 5, 79, 113
1, 38177, Note_off_c, 3, 67, 113
1, 38179, Note_off_c, 6, 52, 73
1, 38188, Note_on_c, 3, 65, 109
1, 38222, Note_on_c, 6, 52, 66
1, 38228, Note_on_c, 6, 41, 80
1, 38249, Note_off_c, 6, 57, 68
1, 38257, Control_c, 3, 1, 2
1, 38265, Note_off_c, 6, 52, 66
1, 38269, Note_off_c, 6, 60, 83
1, 38275, Control_c, 3, 1, 3
1, 38297, Control_c, 3, 1, 4
1, 38301, Note_off_c, 6, 41, 80
1, 38313, Control_c, 3, 1, 5
1, 38323, Control_c, 3, 1, 6
1, 38363, Control_c, 2, 64, 0
1, 38365, Control_c, 0, 64, 0
1, 38374, Note_on_c, 6, 48, 88
1, 38389, Note_off_c, 3, 65, 109
1, 38392, Note_on_c, 6, 53, 76
1, 38397, Note_off_c, 1, 41, 105
1, 38397, Note_off_c, 5, 77, 103
1, 38397, Note_off_c, 4, 64, 89
1, 38397, Note_off_c, 4, 69, 107
1, 38397, Note_off_c, 4, 72, 105
1, 38400, Note_on_c, 0, 61, 91
1, 38400, Note_on_c, 0, 58, 89
1, 38400, Note_on_c, 0, 53, 80
1, 38400, Note_on_c, 0, 55, 81
1, 38400, Note_on_c, 0, 41, 83
1, 38400, Note_on_c, 1, 36, 114
1, 38400, Note_on_c, 2, 61, 108
1, 38400, Note_on_c, 4, 67, 88
1, 38400, Note_on_c, 4, 70, 96
1, 38400, Note_on_c, 4, 73, 98
1, 38400, Note_on_c, 4, 65, 88
1, 38400, Note_on_c, 5, 73, 110
1, 38400, Note_on_c, 9, 35, 107
1, 38400, Note_on_c, 9, 51, 91
1, 38402, Note_on_c, 3, 61, 95
1, 38409, Note_off_c, 9, 51, 91
1, 38409, Note_off_c, 9, 35, 107
1, 38409, Control_c, 3, 1, 7
1, 38412, Note_on_c, 6, 58, 79
1, 38415, Control_c, 3, 1, 11
1, 38424, Note_on_c, 7, 48, 127
1, 38428, Note_on_c, 6, 61, 73
1, 38433, Note_off_c, 7, 48, 127
1, 38433, Control_c, 3, 1, 14
1, 38465, Control_c, 3, 1, 15
1, 38477, Control_c, 3, 1, 16
1, 38479, Control_c, 2, 64, 127
1, 38485, Control_c, 3, 1, 23
1, 38505, Control_c, 3, 1, 27
1, 38523, Control_c, 3, 1, 32
1, 38545, Control_c, 3, 1, 33
1, 38559, Control_c, 3, 1, 36
1, 38563, Control_c, 0, 64, 127
1, 38577, Control_c, 3, 1, 38
1, 38579, Note_off_c, 2, 61, 108
1, 38592, Note_on_c, 9, 51, 53
1, 38597, Control_c, 3, 1, 34
1, 38601, Note_off_c, 9, 51, 53
1, 38611, Control_c, 3, 1, 30
1, 38629, Control_c, 3, 1, 24
1, 38635, Note_off_c, 0, 53, 80
1, 38639, Note_off_c, 0, 55, 81
1, 38647, Control_c, 3, 1, 13
1, 38673, Control_c, 3, 1, 10
1, 38683, Note_off_c, 0, 58, 89
1, 38683, Control_c, 3, 1, 6
1, 38697, Note_off_c, 0, 61, 91
1, 38705, Note_off_c, 6, 48, 88
1, 38709, Control_c, 3, 1, 4
1, 38721, Control_c, 3, 1, 0
1, 38739, Note_off_c, 6, 61, 73
1, 38741, Note_off_c, 6, 58, 79
1, 38741, Note_off_c, 1, 36, 114
1, 38749, Note_off_c, 6, 53, 76
1, 38771, Note_off_c, 0, 41, 83
1, 38774, Note_on_c, 6, 48, 88
1, 38780, Note_on_c, 6, 53, 77
1, 38782, Note_on_c, 6, 58, 83
1, 38784, Note_on_c, 0, 53, 64
1, 38784, Note_on_c, 0, 55, 64
1, 38784, Note_on_c, 1, 36, 116
1, 38784, Note_on_c, 6, 61, 77
1, 38784, Note_on_c, 7, 48, 116
1, 38784, Note_on_c, 9, 51, 98
1, 38784, Note_on_c, 9, 37, 110
1, 38793, Note_off_c, 9, 37, 110
1, 38793, Note_off_c, 9, 51, 98
1, 38793, Note_off_c, 7, 48, 116
1, 38795, Note_off_c, 3, 61, 95
1, 38859, Note_off_c, 6, 61, 77
1, 38861, Note_off_c, 6, 58, 83
1, 38871, Note_off_c, 6, 53, 77
1, 38903, Note_off_c, 0, 55, 64
1, 38903, Note_off_c, 0, 53, 64
1, 38937, Note_off_c, 5, 73, 110
1, 38939, Note_off_c, 6, 48, 88
1, 38976, Note_on_c, 0, 58, 70
1, 39015, Note_off_c, 0, 58, 70
1, 39089, Control_c, 2, 64, 0
1, 39157, Control_c, 0, 64, 0
1, 39158, Note_on_c, 6, 52, 62
1, 39165, Note_off_c, 4, 65, 88
1, 39165, Note_off_c, 4, 73, 98
1, 39165, Note_off_c, 4, 70, 96
1, 39165, Note_off_c, 4, 67, 88
1, 39168, Note_on_c, 0, 48, 83
1, 39168, Note_on_c, 0, 58, 77
1, 39168, Note_on_c, 0, 55, 67
1, 39168, Note_on_c, 0, 62, 80
1, 39168, Note_on_c, 0, 53, 65
1, 39168, Note_on_c, 2, 60, 78
1, 39168, Note_on_c, 4, 72, 98
1, 39168, Note_on_c, 5, 72, 95
1, 39168, Note_on_c, 6, 58, 66
1, 39172, Note_on_c, 3, 60, 100
1, 39175, Control_c, 2, 64, 127
1, 39188, Note_on_c, 6, 60, 63
1, 39237, Note_off_c, 2, 60, 78
1, 39237, Control_c, 3, 1, 1
1, 39245, Control_c, 3, 1, 5
1, 39259, Control_c, 3, 1, 12
1, 39279, Control_c, 3, 1, 17
1, 39297, Control_c, 3, 1, 19
1, 39321, Control_c, 0, 64, 127
1, 39323, Control_c, 3, 1, 21
1, 39341, Note_off_c, 3, 60, 100
1, 39357, Note_off_c, 4, 72, 98
1, 39357, Control_c, 3, 1, 19
1, 39360, Note_on_c, 2, 62, 67
1, 39360, Note_on_c, 3, 62, 102
1, 39360, Note_on_c, 4, 74, 98
1, 39360, Note_on_c, 5, 74, 85
1, 39361, Note_off_c, 5, 72, 95
1, 39381, Control_c, 3, 1, 20
1, 39389, Control_c, 3, 1, 17
1, 39391, Note_off_c, 2, 62, 67
1, 39407, Control_c, 3, 1, 20
1, 39421, Control_c, 3, 1, 21
1, 39451, Note_off_c, 0, 62, 80
1, 39469, Control_c, 3, 1, 22
1, 39473, Note_off_c, 0, 53, 65
1, 39487, Note_off_c, 0, 55, 67
1, 39487, Control_c, 3, 1, 23
1, 39495, Control_c, 3, 1, 24
1, 39509, Note_off_c, 1, 36, 116
1, 39511, Control_c, 3, 1, 23
1, 39529, Control_c, 3, 1, 25
1, 39531, Note_off_c, 0, 58, 77
1, 39541, Note_off_c, 5, 74, 85
1, 39541, Note_off_c, 3, 62, 102
1, 39549, Note_off_c, 4, 74, 98
1, 39549, Control_c, 3, 1, 25
1, 39552, Note_on_c, 0, 65, 81
1, 39552, Note_on_c, 1, 36, 107
1, 39552, Note_on_c, 2, 65, 83
1, 39552, Note_on_c, 4, 77, 98
1, 39552, Note_on_c, 5, 77, 90
1, 39565, Control_c, 3, 1, 23
1, 39570, Note_on_c, 3, 65, 97
1, 39575, Note_off_c, 0, 48, 83
1, 39583, Control_c, 3, 1, 25
1, 39587, Note_off_c, 2, 65, 83
1, 39601, Control_c, 3, 1, 25
1, 39619, Control_c, 3, 1, 24
1, 39649, Control_c, 3, 1, 26
1, 39657, Control_c, 3, 1, 26
1, 39679, Note_off_c, 0, 65, 81
1, 39683, Control_c, 3, 1, 27
1, 39695, Control_c, 3, 1, 25
1, 39711, Control_c, 3, 1, 28
1, 39723, Note_off_c, 6, 52, 62
1, 39735, Control_c, 3, 1, 29
1, 39741, Note_off_c, 4, 77, 98
1, 39744, Note_on_c, 2, 69, 80
1, 39744, Note_on_c, 4, 81, 98
1, 39744, Note_on_c, 5, 81, 91
1, 39749, Note_off_c, 6, 60, 63
1, 39749, Note_off_c, 6, 58, 66
1, 39749, Control_c, 3, 1, 28
1, 39751, Note_off_c, 5, 77, 90
1, 39755, Note_off_c, 3, 65, 97
1, 39763, Control_c, 3, 1, 12
1, 39764, Note_on_c, 3, 69, 100
1, 39781, Note_off_c, 2, 69, 80
1, 39781, Control_c, 3, 1, 1
1, 39799, Control_c, 3, 1, 0
1, 39827, Control_c, 3, 1, 1
1, 39843, Control_c, 3, 1, 0
1, 39899, Note_off_c, 3, 69, 100
1, 39905, Note_off_c, 1, 36, 107
1, 39915, Control_c, 0, 64, 0
1, 39921, Pitch_bend_c, 3, 7840
1, 39925, Note_off_c, 5, 81, 91
1, 39929, Pitch_bend_c, 3, 5920
1, 39933, Note_off_c, 4, 81, 98
1, 39936, Note_on_c, 0, 67, 84
1, 39936, Note_on_c, 0, 58, 79
1, 39936, Note_on_c, 0, 41, 79
1, 39936, Note_on_c, 0, 63, 79
1, 39936, Note_on_c, 1, 41, 99
1, 39936, Note_on_c, 2, 70, 96
1, 39936, Note_on_c, 4, 75, 88
1, 39936, Note_on_c, 4, 70, 90
1, 39936, Note_on_c, 4, 79, 77
1, 39936, Note_on_c, 5, 82, 87
1, 39936, Note_on_c, 5, 75, 87
1, 39936, Note_on_c, 5, 79, 91
1, 39936, Note_on_c, 9, 51, 94
1, 39936, Note_on_c, 9, 35, 93
1, 39939, Control_c, 2, 64, 0
1, 39945, Note_off_c, 9, 35, 93
1, 39945, Note_off_c, 9, 51, 94
1, 39945, Pitch_bend_c, 3, 4416
1, 39956, Note_on_c, 3, 70, 107
1, 39957, Pitch_bend_c, 3, 3520
1, 39960, Note_on_c, 6, 58, 83
1, 39971, Pitch_bend_c, 3, 3872
1, 39974, Note_on_c, 6, 63, 76
1, 39985, Pitch_bend_c, 3, 5152
1, 39999, Pitch_bend_c, 3, 6720
1, 40010, Note_on_c, 6, 67, 87
1, 40013, Pitch_bend_c, 3, 7936
1, 40027, Pitch_bend_c, 3, 8096
1, 40031, Pitch_bend_c, 3, 8192
1, 40033, Control_c, 2, 64, 127
1, 40041, Control_c, 0, 64, 127
1, 40065, Note_off_c, 0, 58, 79
1, 40127, Note_off_c, 0, 63, 79
1, 40128, Note_on_c, 0, 58, 57
1, 40131, Note_off_c, 0, 67, 84
1, 40148, Note_on_c, 6, 53, 78
1, 40157, Control_c, 3, 1, 1
1, 40163, Control_c, 3, 1, 4
1, 40179, Control_c, 3, 1, 6
1, 40189, Note_off_c, 2, 70, 96
1, 40195, Control_c, 3, 1, 11
1, 40213, Control_c, 3, 1, 16
1, 40231, Control_c, 3, 1, 19
1, 40239, Note_off_c, 0, 58, 57
1, 40251, Control_c, 3, 1, 21
1, 40263, Note_off_c, 6, 58, 83
1, 40267, Control_c, 3, 1, 23
1, 40320, Note_on_c, 0, 67, 68
1, 40320, Note_on_c, 0, 63, 70
1, 40320, Note_on_c, 9, 37, 110
1, 40326, Note_on_c, 6, 58, 76
1, 40329, Note_off_c, 9, 37, 110
1, 40333, Control_c, 3, 1, 24
1, 40353, Control_c, 3, 1, 25
1, 40373, Control_c, 3, 1, 26
1, 40379, Note_off_c, 0, 63, 70
1, 40379, Control_c, 3, 1, 27
1, 40387, Note_off_c, 6, 53, 78
1, 40401, Control_c, 3, 1, 26
1, 40433, Control_c, 3, 1, 27
1, 40451, Note_off_c, 1, 41, 99
1, 40465, Control_c, 3, 1, 25
1, 40473, Note_off_c, 6, 58, 76
1, 40475, Note_off_c, 0, 67, 68
1, 40485, Control_c, 3, 1, 18
1, 40497, Note_off_c, 6, 67, 87
1, 40497, Note_off_c, 3, 70, 107
1, 40503, Control_c, 3, 1, 5
1, 40512, Note_on_c, 0, 58, 57
1, 40512, Note_on_c, 1, 41, 106
1, 40512, Note_on_c, 2, 69, 80
1, 40512, Note_on_c, 3, 69, 101
1, 40512, Note_on_c, 9, 51, 55
1, 40514, Note_on_c, 6, 53, 84
1, 40516, Note_on_c, 6, 57, 91
1, 40519, Control_c, 3, 1, 2
1, 40521, Note_off_c, 9, 51, 55
1, 40545, Control_c, 3, 1, 0
1, 40551, Note_off_c, 2, 69, 80
1, 40551, Note_off_c, 0, 58, 57
1, 40561, Control_c, 3, 1, 3
1, 40573, Control_c, 3, 1, 6
1, 40601, Control_c, 3, 1, 8
1, 40611, Control_c, 3, 1, 8
1, 40625, Note_off_c, 6, 57, 91
1, 40633, Control_c, 3, 1, 4
1, 40635, Note_off_c, 6, 53, 84
1, 40647, Control_c, 3, 1, 0
1, 40661, Note_off_c, 6, 63, 76
1, 40667, Note_off_c, 1, 41, 106
1, 40681, Note_off_c, 3, 69, 101
1, 40687, Pitch_bend_c, 3, 6016
1, 40689, Control_c, 2, 64, 0
1, 40698, Note_on_c, 6, 53, 76
1, 40701, Note_off_c, 5, 79, 91
1, 40701, Note_off_c, 5, 75, 87
1, 40701, Note_off_c, 5, 82, 87
1, 40701, Pitch_bend_c, 3, 3360
1, 40704, Note_on_c, 0, 57, 70
1, 40704, Note_on_c, 0, 67, 76
1, 40704, Note_on_c, 0, 63, 77
1, 40704, Note_on_c, 1, 41, 106
1, 40704, Note_on_c, 2, 70, 108
1, 40704, Note_on_c, 3, 70, 96
1, 40704, Note_on_c, 5, 75, 96
1, 40704, Note_on_c, 5, 82, 100
1, 40704, Note_on_c, 9, 51, 79
1, 40708, Note_on_c, 6, 58, 77
1, 40713, Note_off_c, 9, 51, 79
1, 40713, Pitch_bend_c, 3, 2432
1, 40727, Pitch_bend_c, 3, 3456
1, 40729, Control_c, 0, 64, 0
1, 40743, Pitch_bend_c, 3, 5696
1, 40752, Note_on_c, 6, 63, 79
1, 40757, Pitch_bend_c, 3, 6592
1, 40769, Control_c, 2, 64, 127
1, 40769, Pitch_bend_c, 3, 7296
1, 40770, Note_on_c, 6, 67, 91
1, 40783, Pitch_bend_c, 3, 7936
1, 40799, Pitch_bend_c, 3, 8032
1, 40813, Pitch_bend_c, 3, 8160
1, 40815, Pitch_bend_c, 3, 8192
1, 40841, Note_off_c, 2, 70, 108
1, 40877, Control_c, 0, 64, 127
1, 40896, Note_on_c, 9, 51, 55
1, 40905, Note_off_c, 9, 51, 55
1, 40965, Control_c, 3, 1, 1
1, 40969, Control_c, 3, 1, 4
1, 40989, Note_off_c, 0, 57, 70
1, 40989, Control_c, 3, 1, 6
1, 40995, Note_off_c, 0, 67, 76
1, 40999, Note_off_c, 0, 63, 77
1, 41021, Note_off_c, 6, 58, 77
1, 41069, Control_c, 3, 1, 7
1, 41071, Note_off_c, 6, 67, 91
1, 41081, Control_c, 3, 1, 8
1, 41085, Note_off_c, 5, 82, 100
1, 41085, Note_off_c, 4, 70, 90
1, 41087, Note_off_c, 3, 70, 96
1, 41088, Note_on_c, 0, 57, 73
1, 41088, Note_on_c, 2, 69, 91
1, 41088, Note_on_c, 4, 69, 96
1, 41088, Note_on_c, 5, 81, 100
1, 41088, Note_on_c, 9, 51, 98
1, 41088, Note_on_c, 9, 37, 113
1, 41096, Note_on_c, 6, 57, 100
1, 41097, Note_off_c, 9, 37, 113
1, 41097, Note_off_c, 9, 51, 98
1, 41106, Note_on_c, 3, 69, 99
1, 41119, Control_c, 3, 1, 9
1, 41129, Note_off_c, 2, 69, 91
1, 41135, Control_c, 3, 1, 10
1, 41155, Control_c, 3, 1, 14
1, 41163, Note_off_c, 0, 57, 73
1, 41167, Note_off_c, 0, 41, 79
1, 41167, Control_c, 3, 1, 18
1, 41187, Control_c, 3, 1, 20
1, 41203, Control_c, 3, 1, 24
1, 41221, Control_c, 3, 1, 30
1, 41239, Control_c, 3, 1, 34
1, 41257, Control_c, 3, 1, 18
1, 41275, Control_c, 3, 1, 0
1, 41280, Note_on_c, 9, 51, 56
1, 41280, Note_on_c, 9, 35, 76
1, 41281, Note_off_c, 6, 63, 79
1, 41289, Note_off_c, 9, 35, 76
1, 41289, Note_off_c, 9, 51, 56
1, 41295, Note_off_c, 3, 69, 99
1, 41299, Note_off_c, 6, 57, 100
1, 41357, Note_off_c, 6, 53, 76
1, 41371, Note_off_c, 4, 75, 88
1, 41403, Note_off_c, 4, 79, 77
1, 41411, Note_off_c, 4, 69, 96
1, 41417, Note_off_c, 5, 75, 96
1, 41437, Pitch_bend_c, 3, 8160
1, 41439, Note_off_c, 1, 41, 106
1, 41441, Pitch_bend_c, 3, 4896
1, 41443, Control_c, 2, 64, 0
1, 41444, Note_on_c, 6, 53, 79
1, 41447, Control_c, 0, 64, 0
1, 41455, Pitch_bend_c, 3, 2080
1, 41469, Note_off_c, 5, 81, 100
1, 41469, Pitch_bend_c, 3, 1792
1, 41472, Note_on_c, 0, 62, 86
1, 41472, Note_on_c, 0, 57, 88
1, 41472, Note_on_c, 0, 65, 83
1, 41472, Note_on_c, 0, 41, 91
1, 41472, Note_on_c, 1, 41, 109
1, 41472, Note_on_c, 2, 69, 118
1, 41472, Note_on_c, 3, 69, 105
1, 41472, Note_on_c, 4, 77, 91
1, 41472, Note_on_c, 4, 69, 91
1, 41472, Note_on_c, 4, 74, 98
1, 41472, Note_on_c, 5, 81, 93
1, 41472, Note_on_c, 5, 74, 90
1, 41472, Note_on_c, 5, 77, 87
1, 41472, Note_on_c, 9, 51, 94
1, 41472, Note_on_c, 9, 35, 93
1, 41473, Control_c, 0, 64, 0
1, 41474, Note_on_c, 6, 57, 84
1, 41481, Note_off_c, 9, 35, 93
1, 41481, Note_off_c, 9, 51, 94
1, 41487, Pitch_bend_c, 3, 2272
1, 41497, Pitch_bend_c, 3, 4032
1, 41498, Note_on_c, 6, 62, 75
1, 41511, Pitch_bend_c, 3, 6336
1, 41523, Control_c, 2, 64, 127
1, 41527, Pitch_bend_c, 3, 7296
1, 41539, Pitch_bend_c, 3, 8032
1, 41548, Note_on_c, 6, 65, 73
1, 41553, Pitch_bend_c, 3, 8160
1, 41557, Pitch_bend_c, 3, 8192
1, 41575, Note_off_c, 2, 69, 118
1, 41579, Control_c, 0, 64, 127
1, 41637, Note_off_c, 0, 57, 88
1, 41661, Control_c, 3, 1, 2
1, 41664, Note_on_c, 0, 57, 61
1, 41675, Control_c, 3, 1, 4
1, 41703, Control_c, 3, 1, 5
1, 41715, Control_c, 3, 1, 7
1, 41727, Control_c, 3, 1, 9
1, 41745, Note_off_c, 0, 62, 86
1, 41751, Control_c, 3, 1, 10
1, 41765, Control_c, 3, 1, 11
1, 41779, Note_off_c, 0, 65, 83
1, 41789, Control_c, 3, 1, 12
1, 41807, Control_c, 3, 1, 14
1, 41827, Control_c, 3, 1, 15
1, 41837, Control_c, 3, 1, 16
1, 41856, Note_on_c, 0, 62, 72
1, 41856, Note_on_c, 9, 51, 101
1, 41856, Note_on_c, 9, 37, 110
1, 41865, Note_off_c, 9, 37, 110
1, 41865, Note_off_c, 9, 51, 101
1, 41877, Note_off_c, 0, 62, 72
1, 41883, Note_off_c, 0, 57, 61
1, 41909, Control_c, 3, 1, 17
1, 41919, Note_off_c, 0, 41, 91
1, 41923, Note_off_c, 6, 62, 75
1, 41935, Note_off_c, 6, 57, 84
1, 41949, Control_c, 3, 1, 18
1, 41957, Note_off_c, 6, 53, 79
1, 41977, Note_off_c, 6, 65, 73
1, 41987, Note_off_c, 4, 74, 98
1, 41999, Note_off_c, 4, 69, 91
1, 42007, Control_c, 3, 1, 18
1, 42010, Note_on_c, 6, 55, 76
1, 42015, Note_off_c, 1, 41, 109
1, 42015, Control_c, 3, 1, 8
1, 42025, Note_off_c, 4, 77, 91
1, 42031, Control_c, 3, 1, 0
1, 42034, Note_on_c, 6, 60, 65
1, 42037, Note_off_c, 3, 69, 105
1, 42045, Note_off_c, 5, 77, 87
1, 42045, Note_off_c, 5, 74, 90
1, 42045, Note_off_c, 5, 81, 93
1, 42048, Note_on_c, 0, 60, 81
1, 42048, Note_on_c, 0, 55, 70
1, 42048, Note_on_c, 0, 63, 75
1, 42048, Note_on_c, 1, 41, 103
1, 42048, Note_on_c, 2, 67, 89
1, 42048, Note_on_c, 3, 67, 96
1, 42048, Note_on_c, 4, 72, 91
1, 42048, Note_on_c, 4, 67, 89
1, 42048, Note_on_c, 4, 75, 82
1, 42048, Note_on_c, 5, 79, 91
1, 42048, Note_on_c, 5, 72, 89
1, 42048, Note_on_c, 5, 75, 89
1, 42048, Note_on_c, 9, 51, 55
1, 42057, Note_off_c, 9, 51, 55
1, 42062, Note_on_c, 6, 63, 69
1, 42087, Note_off_c, 2, 67, 89
1, 42095, Note_off_c, 0, 55, 70
1, 42097, Note_off_c, 0, 63, 75
1, 42097, Note_off_c, 0, 60, 81
1, 42109, Note_off_c, 6, 55, 76
1, 42121, Note_off_c, 6, 60, 65
1, 42163, Note_off_c, 6, 63, 69
1, 42195, Note_off_c, 1, 41, 103
1, 42205, Note_off_c, 3, 67, 96
1, 42205, Control_c, 0, 64, 0
1, 42207, Pitch_bend_c, 3, 8160
1, 42211, Pitch_bend_c, 3, 4832
1, 42225, Pitch_bend_c, 3, 2080
1, 42226, Note_on_c, 6, 53, 64
1, 42229, Control_c, 2, 64, 0
1, 42234, Note_on_c, 3, 69, 97
1, 42237, Note_off_c, 5, 75, 89
1, 42237, Note_off_c, 5, 72, 89
1, 42237, Note_off_c, 4, 75, 82
1, 42237, Note_off_c, 4, 67, 89
1, 42237, Note_off_c, 4, 72, 91
1, 42238, Note_on_c, 6, 57, 80
1, 42239, Pitch_bend_c, 3, 1696
1, 42240, Note_on_c, 0, 41, 80
1, 42240, Note_on_c, 0, 57, 71
1, 42240, Note_on_c, 0, 62, 80
1, 42240, Note_on_c, 0, 65, 65
1, 42240, Note_on_c, 1, 41, 105
1, 42240, Note_on_c, 2, 69, 118
1, 42240, Note_on_c, 4, 74, 95
1, 42240, Note_on_c, 4, 69, 95
1, 42240, Note_on_c, 4, 77, 92
1, 42240, Note_on_c, 5, 81, 87
1, 42240, Note_on_c, 5, 74, 91
1, 42240, Note_on_c, 5, 77, 91
1, 42240, Note_on_c, 9, 51, 79
1, 42249, Note_off_c, 9, 51, 79
1, 42253, Note_off_c, 5, 79, 91
1, 42256, Note_on_c, 6, 62, 77
1, 42263, Pitch_bend_c, 3, 1760
1, 42267, Note_off_c, 6, 53, 64
1, 42267, Pitch_bend_c, 3, 3072
1, 42281, Pitch_bend_c, 3, 5760
1, 42292, Note_on_c, 6, 65, 85
1, 42297, Control_c, 2, 64, 127
1, 42297, Pitch_bend_c, 3, 7680
1, 42309, Pitch_bend_c, 3, 8160
1, 42315, Pitch_bend_c, 3, 8192
1, 42333, Control_c, 0, 64, 127
1, 42357, Note_off_c, 2, 69, 118
1, 42413, Note_off_c, 0, 62, 80
1, 42415, Note_off_c, 0, 65, 65
1, 42421, Note_off_c, 0, 41, 80
1, 42423, Note_off_c, 0, 57, 71
1, 42432, Note_on_c, 9, 51, 55
1, 42441, Note_off_c, 9, 51, 55
1, 42533, Note_off_c, 6, 62, 77
1, 42551, Note_off_c, 6, 57, 80
1, 42587, Note_off_c, 6, 65, 85
1, 42611, Note_off_c, 1, 41, 105
1, 42613, Control_c, 0, 64, 0
1, 42619, Note_off_c, 3, 69, 97
1, 42621, Note_off_c, 5, 77, 91
1, 42621, Note_off_c, 5, 74, 91
1, 42621, Note_off_c, 5, 81, 87
1, 42621, Note_off_c, 4, 77, 92
1, 42621, Note_off_c, 4, 69, 95
1, 42621, Note_off_c, 4, 74, 95
1, 42624, Note_on_c, 0, 63, 80
1, 42624, Note_on_c, 0, 41, 87
1, 42624, Note_on_c, 0, 60, 84
1, 42624, Note_on_c, 0, 55, 80
1, 42624, Note_on_c, 1, 29, 109
1, 42624, Note_on_c, 2, 67, 121
1, 42624, Note_on_c, 4, 67, 87
1, 42624, Note_on_c, 4, 75, 82
1, 42624, Note_on_c, 4, 72, 91
1, 42624, Note_on_c, 5, 79, 82
1, 42624, Note_on_c, 5, 72, 80
1, 42624, Note_on_c, 5, 75, 86
1, 42624, Note_on_c, 6, 55, 75
1, 42624, Note_on_c, 9, 51, 98
1, 42624, Note_on_c, 9, 37, 113
1, 42632, Note_on_c, 3, 67, 98
1, 42633, Note_off_c, 9, 37, 113
1, 42633, Note_off_c, 9, 51, 98
1, 42655, Note_off_c, 2, 67, 121
1, 42656, Note_on_c, 6, 60, 75
1, 42675, Control_c, 3, 1, 1
1, 42676, Note_on_c, 6, 63, 79
1, 42679, Control_c, 3, 1, 7
1, 42699, Control_c, 3, 1, 10
1, 42719, Control_c, 3, 1, 12
1, 42725, Control_c, 0, 64, 127
1, 42747, Control_c, 3, 1, 13
1, 42797, Control_c, 3, 1, 15
1, 42805, Control_c, 3, 1, 19
1, 42823, Control_c, 3, 1, 24
1, 42841, Control_c, 3, 1, 27
1, 42859, Control_c, 3, 1, 30
1, 42877, Control_c, 3, 1, 33
1, 42909, Control_c, 3, 1, 34
1, 42931, Control_c, 3, 1, 35
1, 42933, Note_off_c, 0, 60, 84
1, 42963, Control_c, 3, 1, 34
1, 42969, Control_c, 3, 1, 34
1, 42973, Note_off_c, 6, 60, 75
1, 42973, Note_off_c, 6, 55, 75
1, 42993, Control_c, 3, 1, 30
1, 43008, Note_on_c, 0, 61, 81
1, 43008, Note_on_c, 4, 73, 72
1, 43019, Note_off_c, 0, 63, 80
1, 43023, Control_c, 3, 1, 31
1, 43027, Note_off_c, 5, 72, 80
1, 43030, Note_on_c, 6, 53, 75
1, 43031, Note_off_c, 6, 63, 79
1, 43039, Control_c, 3, 1, 19
1, 43044, Note_on_c, 6, 61, 81
1, 43045, Note_off_c, 4, 72, 91
1, 43047, Control_c, 0, 64, 0
1, 43057, Control_c, 3, 1, 16
1, 43079, Control_c, 3, 1, 13
1, 43104, Note_on_c, 5, 73, 89
1, 43107, Control_c, 3, 1, 12
1, 43129, Control_c, 3, 1, 9
1, 43153, Control_c, 3, 1, 6
1, 43183, Control_c, 3, 1, 3
1, 43205, Control_c, 3, 1, 0
1, 43265, Control_c, 5, 11, 127
1, 43281, Control_c, 5, 11, 126
1, 43295, Note_off_c, 3, 67, 98
1, 43297, Control_c, 5, 11, 124
1, 43313, Control_c, 5, 11, 122
1, 43329, Control_c, 5, 11, 120
1, 43345, Control_c, 5, 11, 116
1, 43377, Control_c, 5, 11, 114
1, 43393, Control_c, 5, 11, 112
1, 43409, Control_c, 5, 11, 110
1, 43425, Control_c, 5, 11, 108
1, 43441, Control_c, 5, 11, 106
1, 43457, Control_c, 5, 11, 104
1, 43473, Control_c, 5, 11, 102
1, 43489, Control_c, 4, 11, 125
1, 43489, Control_c, 5, 11, 98
1, 43521, Control_c, 4, 11, 123
1, 43521, Control_c, 5, 11, 96
1, 43537, Control_c, 4, 11, 121
1, 43537, Control_c, 5, 11, 95
1, 43553, Control_c, 4, 11, 119
1, 43553, Control_c, 5, 11, 93
1, 43569, Control_c, 4, 11, 116
1, 43569, Control_c, 5, 11, 91
1, 43585, Control_c, 4, 11, 114
1, 43585, Control_c, 5, 11, 89
1, 43601, Control_c, 4, 11, 112
1, 43601, Control_c, 5, 11, 87
1, 43617, Control_c, 4, 11, 110
1, 43617, Control_c, 5, 11, 85
1, 43633, Control_c, 4, 11, 105
1, 43633, Control_c, 5, 11, 81
1, 43665, Control_c, 4, 11, 103
1, 43665, Control_c, 5, 11, 79
1, 43681, Control_c, 4, 11, 101
1, 43681, Control_c, 5, 11, 77
1, 43697, Control_c, 4, 11, 99
1, 43697, Control_c, 5, 11, 75
1, 43699, Note_off_c, 6, 61, 81
1, 43699, Note_off_c, 6, 53, 75
1, 43713, Control_c, 4, 11, 97
1, 43713, Control_c, 5, 11, 73
1, 43729, Control_c, 4, 11, 94
1, 43729, Control_c, 5, 11, 71
1, 43745, Control_c, 4, 11, 92
1, 43745, Control_c, 5, 11, 69
1, 43761, Control_c, 4, 11, 90
1, 43761, Control_c, 5, 11, 67
1, 43777, Control_c, 4, 11, 86
1, 43777, Control_c, 5, 11, 64
1, 43809, Control_c, 4, 11, 83
1, 43809, Control_c, 5, 11, 62
1, 43825, Control_c, 4, 11, 81
1, 43825, Control_c, 5, 11, 60
1, 43841, Control_c, 4, 11, 79
1, 43841, Control_c, 5, 11, 58
1, 43857, Control_c, 4, 11, 77
1, 43857, Control_c, 5, 11, 56
1, 43873, Control_c, 4, 11, 75
1, 43873, Control_c, 5, 11, 54
1, 43889, Control_c, 4, 11, 72
1, 43889, Control_c, 5, 11, 52
1, 43905, Control_c, 4, 11, 70
1, 43905, Control_c, 5, 11, 50
1, 43921, Control_c, 4, 11, 66
1, 43921, Control_c, 5, 11, 46
1, 43953, Control_c, 4, 11, 64
1, 43953, Control_c, 5, 11, 44
1, 43969, Control_c, 4, 11, 61
1, 43969, Control_c, 5, 11, 42
1, 43985, Control_c, 4, 11, 59
1, 43985, Control_c, 5, 11, 40
1, 44001, Control_c, 4, 11, 57
1, 44001, Control_c, 5, 11, 38
1, 44017, Control_c, 4, 11, 55
1, 44017, Control_c, 5, 11, 36
1, 44033, Control_c, 4, 11, 52
1, 44033, Control_c, 5, 11, 34
1, 44049, Control_c, 4, 11, 50
1, 44049, Control_c, 5, 11, 32
1, 44065, Control_c, 4, 11, 46
1, 44065, Control_c, 5, 11, 29
1, 44097, Control_c, 4, 11, 44
1, 44097, Control_c, 5, 11, 27
1, 44113, Control_c, 4, 11, 41
1, 44113, Control_c, 5, 11, 25
1, 44129, Control_c, 4, 11, 39
1, 44129, Control_c, 5, 11, 23
1, 44141, Control_c, 2, 64, 0
1, 44145, Control_c, 4, 11, 37
1, 44145, Control_c, 5, 11, 21
1, 44161, Control_c, 4, 11, 35
1, 44161, Control_c, 5, 11, 19
1, 44177, Control_c, 4, 11, 33
1, 44177, Control_c, 5, 11, 17
1, 44193, Control_c, 4, 11, 30
1, 44193, Control_c, 5, 11, 15
1, 44209, Control_c, 4, 11, 26
1, 44209, Control_c, 5, 11, 11
1, 44241, Control_c, 4, 11, 24
1, 44241, Control_c, 5, 11, 9
1, 44253, Note_off_c, 4, 73, 72
1, 44253, Note_off_c, 4, 75, 82
1, 44255, Note_off_c, 1, 29, 109
1, 44257, Control_c, 4, 11, 22
1, 44257, Control_c, 5, 11, 7
1, 44273, Control_c, 4, 11, 19
1, 44273, Control_c, 5, 11, 5
1, 44289, Control_c, 4, 11, 17
1, 44289, Control_c, 5, 11, 3
1, 44305, Control_c, 4, 11, 15
1, 44305, Control_c, 5, 11, 1
1, 44321, Control_c, 4, 11, 13
1, 44337, Control_c, 4, 11, 11
1, 44349, Note_off_c, 5, 73, 89
1, 44349, Note_off_c, 5, 75, 86
1, 44349, Note_off_c, 5, 79, 82
1, 44349, Note_off_c, 4, 67, 87
1, 44353, Control_c, 4, 11, 6
1, 44357, Note_off_c, 0, 61, 81
1, 44385, Control_c, 4, 11, 4
1, 44393, Note_off_c, 0, 55, 80
1, 44401, Note_off_c, 0, 41, 87
1, 44401, Control_c, 4, 11, 2
1, 44531, Pitch_bend_c, 3, 8000
1, 44535, Pitch_bend_c, 3, 3200
1, 44544, Note_on_c, 0, 34, 91
1, 44544, Note_on_c, 0, 62, 97
1, 44544, Note_on_c, 0, 57, 88
1, 44544, Note_on_c, 0, 65, 97
1, 44544, Note_on_c, 1, 34, 112
1, 44544, Note_on_c, 5, 57, 106
1, 44544, Note_on_c, 5, 46, 117
1, 44544, Note_on_c, 5, 62, 111
1, 44544, Note_on_c, 9, 35, 87
1, 44544, Note_on_c, 9, 51, 71
1, 44549, Pitch_bend_c, 3, 0
1, 44553, Note_off_c, 9, 51, 71
1, 44553, Note_off_c, 9, 35, 87
1, 44575, Control_c, 5, 11, 127
1, 44576, Note_on_c, 3, 65, 105
1, 44579, Pitch_bend_c, 3, 2432
1, 44591, Pitch_bend_c, 3, 6240
1, 44605, Pitch_bend_c, 3, 8096
1, 44617, Pitch_bend_c, 3, 8192
1, 44691, Control_c, 0, 64, 127
1, 44703, Control_c, 2, 64, 127
1, 44721, Note_off_c, 3, 65, 105
1, 44732, Note_on_c, 3, 63, 79
1, 44809, Note_off_c, 0, 34, 91
1, 44813, Note_off_c, 3, 63, 79
1, 44828, Note_on_c, 3, 62, 92
1, 44845, Note_off_c, 0, 57, 88
1, 44869, Note_off_c, 0, 65, 97
1, 44885, Note_off_c, 0, 62, 97
1, 44898, Note_on_c, 6, 46, 77
1, 44909, Note_off_c, 3, 62, 92
1, 44916, Note_on_c, 3, 63, 90
1, 44922, Note_on_c, 6, 53, 69
1, 44928, Note_on_c, 0, 57, 69
1, 44928, Note_on_c, 9, 51, 73
1, 44928, Note_on_c, 9, 37, 76
1, 44932, Note_on_c, 6, 57, 83
1, 44937, Note_off_c, 9, 37, 76
1, 44937, Note_off_c, 9, 51, 73
1, 44940, Note_on_c, 2, 65, 96
1, 44970, Note_on_c, 6, 62, 81
1, 44971, Note_off_c, 2, 65, 96
1, 45007, Note_off_c, 3, 63, 90
1, 45009, Pitch_bend_c, 3, 8000
1, 45013, Pitch_bend_c, 3, 2976
1, 45027, Pitch_bend_c, 3, 736
1, 45039, Pitch_bend_c, 3, 512
1, 45040, Note_on_c, 3, 65, 91
1, 45051, Note_off_c, 1, 34, 112
1, 45053, Pitch_bend_c, 3, 1952
1, 45069, Pitch_bend_c, 3, 3616
1, 45081, Pitch_bend_c, 3, 6496
1, 45095, Pitch_bend_c, 3, 8096
1, 45103, Pitch_bend_c, 3, 8192
1, 45120, Note_on_c, 1, 34, 112
1, 45120, Note_on_c, 9, 35, 71
1, 45125, Note_off_c, 0, 57, 69
1, 45129, Note_off_c, 9, 35, 71
1, 45221, Control_c, 3, 1, 4
1, 45239, Control_c, 3, 1, 6
1, 45253, Control_c, 3, 1, 8
1, 45261, Note_off_c, 1, 34, 112
1, 45277, Control_c, 3, 1, 9
1, 45287, Note_off_c, 5, 46, 117
1, 45295, Note_off_c, 5, 57, 106
1, 45297, Note_off_c, 6, 53, 69
1, 45297, Control_c, 3, 1, 11
1, 45305, Note_off_c, 5, 62, 111
1, 45312, Note_on_c, 0, 62, 87
1, 45312, Note_on_c, 0, 60, 87
1, 45312, Note_on_c, 0, 65, 87
1, 45312, Note_on_c, 1, 34, 113
1, 45312, Note_on_c, 5, 46, 115
1, 45312, Note_on_c, 5, 62, 101
1, 45312, Note_on_c, 5, 55, 107
1, 45312, Note_on_c, 9, 35, 94
1, 45312, Note_on_c, 9, 51, 79
1, 45321, Note_off_c, 9, 51, 79
1, 45321, Note_off_c, 9, 35, 94
1, 45321, Control_c, 3, 1, 12
1, 45329, Control_c, 3, 1, 14
1, 45340, Note_on_c, 6, 55, 87
1, 45342, Note_on_c, 2, 72, 111
1, 45351, Control_c, 3, 1, 15
1, 45359, Note_off_c, 6, 57, 83
1, 45369, Note_off_c, 0, 65, 87
1, 45373, Note_off_c, 2, 72, 111
1, 45375, Note_off_c, 0, 62, 87
1, 45383, Note_off_c, 0, 60, 87
1, 45397, Control_c, 3, 1, 16
1, 45449, Control_c, 3, 1, 17
1, 45451, Note_off_c, 6, 62, 81
1, 45461, Control_c, 3, 1, 15
1, 45473, Control_c, 3, 1, 12
1, 45499, Control_c, 3, 1, 13
1, 45504, Note_on_c, 0, 58, 71
1, 45504, Note_on_c, 9, 51, 61
1, 45505, Control_c, 3, 1, 14
1, 45510, Note_on_c, 2, 70, 107
1, 45513, Note_off_c, 9, 51, 61
1, 45545, Note_off_c, 2, 70, 107
1, 45553, Control_c, 3, 1, 12
1, 45561, Note_off_c, 0, 58, 71
1, 45561, Control_c, 3, 1, 9
1, 45579, Control_c, 3, 1, 3
1, 45595, Control_c, 3, 1, 0
1, 45696, Note_on_c, 0, 57, 78
1, 45696, Note_on_c, 0, 65, 75
1, 45696, Note_on_c, 0, 62, 82
1, 45696, Note_on_c, 9, 51, 82
1, 45696, Note_on_c, 9, 37, 90
1, 45704, Note_on_c, 2, 69, 106
1, 45705, Note_off_c, 9, 37, 90
1, 45705, Note_off_c, 9, 51, 82
1, 45708, Note_on_c, 6, 62, 77
1, 45729, Note_off_c, 3, 65, 91
1, 45735, Note_off_c, 2, 69, 106
1, 45735, Note_off_c, 0, 62, 82
1, 45741, Note_off_c, 0, 65, 75
1, 45747, Note_off_c, 0, 57, 78
1, 45795, Note_off_c, 6, 46, 77
1, 45834, Note_on_c, 2, 67, 107
1, 45861, Note_off_c, 2, 67, 107
1, 45888, Note_on_c, 0, 55, 72
1, 45888, Note_on_c, 6, 46, 68
1, 45888, Note_on_c, 9, 51, 70
1, 45897, Note_off_c, 9, 51, 70
1, 45899, Note_off_c, 6, 55, 87
1, 45901, Note_off_c, 6, 62, 77
1, 45921, Note_off_c, 6, 46, 68
1, 45933, Note_off_c, 0, 55, 72
1, 45956, Note_on_c, 2, 65, 93
1, 45981, Note_off_c, 2, 65, 93
1, 45984, Note_on_c, 0, 53, 80
1, 46021, Note_off_c, 5, 46, 115
1, 46023, Note_off_c, 0, 53, 80
1, 46031, Note_off_c, 5, 55, 107
1, 46041, Note_off_c, 5, 62, 101
1, 46066, Note_on_c, 3, 63, 101
1, 46068, Note_on_c, 6, 53, 95
1, 46075, Control_c, 0, 64, 0
1, 46080, Note_on_c, 0, 55, 78
1, 46080, Note_on_c, 0, 48, 97
1, 46080, Note_on_c, 0, 58, 81
1, 46080, Note_on_c, 0, 63, 81
1, 46080, Note_on_c, 1, 41, 109
1, 46080, Note_on_c, 5, 58, 107
1, 46080, Note_on_c, 5, 55, 99
1, 46080, Note_on_c, 5, 63, 112
1, 46080, Note_on_c, 5, 41, 116
1, 46080, Note_on_c, 9, 51, 90
1, 46080, Note_on_c, 9, 35, 98
1, 46089, Note_off_c, 9, 35, 98
1, 46089, Note_off_c, 9, 51, 90
1, 46094, Note_on_c, 2, 63, 112
1, 46094, Note_on_c, 6, 55, 87
1, 46101, Control_c, 2, 64, 0
1, 46105, Note_off_c, 1, 34, 113
1, 46111, Control_c, 4, 11, 127
1, 46115, Control_c, 3, 1, 1
1, 46117, Control_c, 3, 1, 4
1, 46120, Note_on_c, 6, 58, 81
1, 46135, Control_c, 3, 1, 6
1, 46136, Note_on_c, 6, 63, 76
1, 46153, Control_c, 3, 1, 8
1, 46173, Control_c, 2, 64, 127
1, 46173, Control_c, 3, 1, 9
1, 46205, Control_c, 3, 1, 10
1, 46207, Control_c, 0, 64, 127
1, 46221, Control_c, 3, 1, 11
1, 46227, Control_c, 3, 1, 11
1, 46243, Control_c, 3, 1, 5
1, 46259, Note_off_c, 2, 63, 112
1, 46261, Control_c, 3, 1, 1
1, 46267, Note_off_c, 3, 63, 101
1, 46272, Note_on_c, 9, 51, 63
1, 46276, Note_on_c, 3, 70, 100
1, 46281, Note_off_c, 9, 51, 63
1, 46289, Note_off_c, 0, 48, 97
1, 46325, Control_c, 3, 1, 4
1, 46333, Control_c, 3, 1, 8
1, 46359, Control_c, 3, 1, 10
1, 46377, Control_c, 3, 1, 8
1, 46397, Control_c, 3, 1, 10
1, 46415, Note_off_c, 3, 70, 100
1, 46454, Note_on_c, 3, 70, 104
1, 46459, Control_c, 3, 1, 13
1, 46464, Note_on_c, 0, 41, 84
1, 46464, Note_on_c, 2, 70, 92
1, 46464, Note_on_c, 9, 51, 88
1, 46464, Note_on_c, 9, 37, 101
1, 46473, Note_off_c, 9, 37, 101
1, 46473, Note_off_c, 9, 51, 88
1, 46477, Control_c, 3, 1, 17
1, 46495, Control_c, 3, 1, 21
1, 46497, Note_off_c, 2, 70, 92
1, 46513, Control_c, 3, 1, 24
1, 46527, Note_off_c, 0, 55, 78
1, 46531, Control_c, 3, 1, 27
1, 46541, Note_off_c, 0, 63, 81
1, 46551, Control_c, 3, 1, 23
1, 46553, Note_off_c, 0, 58, 81
1, 46557, Note_off_c, 6, 53, 95
1, 46567, Control_c, 3, 1, 21
1, 46581, Note_off_c, 1, 41, 109
1, 46585, Control_c, 3, 1, 25
1, 46607, Control_c, 3, 1, 27
1, 46627, Control_c, 3, 1, 28
1, 46647, Control_c, 3, 1, 30
1, 46656, Note_on_c, 1, 41, 110
1, 46656, Note_on_c, 9, 51, 70
1, 46656, Note_on_c, 9, 35, 75
1, 46657, Control_c, 3, 1, 30
1, 46665, Note_off_c, 9, 35, 75
1, 46665, Note_off_c, 9, 51, 70
1, 46677, Control_c, 3, 1, 27
1, 46693, Control_c, 3, 1, 25
1, 46719, Control_c, 3, 1, 22
1, 46733, Control_c, 3, 1, 21
1, 46749, Control_c, 3, 1, 16
1, 46753, Note_off_c, 6, 55, 87
1, 46765, Control_c, 3, 1, 10
1, 46771, Note_off_c, 5, 55, 99
1, 46777, Note_off_c, 6, 58, 81
1, 46785, Control_c, 3, 1, 6
1, 46787, Note_off_c, 6, 63, 76
1, 46798, Note_on_c, 6, 48, 92
1, 46817, Note_off_c, 1, 41, 110
1, 46823, Control_c, 3, 1, 10
1, 46837, Control_c, 0, 64, 0
1, 46838, Note_on_c, 6, 55, 87
1, 46847, Control_c, 3, 1, 12
1, 46848, Note_on_c, 0, 67, 91
1, 46848, Note_on_c, 0, 58, 87
1, 46848, Note_on_c, 0, 55, 83
1, 46848, Note_on_c, 0, 63, 78
1, 46848, Note_on_c, 1, 41, 107
1, 46848, Note_on_c, 5, 67, 110
1, 46848, Note_on_c, 9, 35, 101
1, 46848, Note_on_c, 9, 51, 92
1, 46857, Note_off_c, 9, 51, 92
1, 46857, Note_off_c, 9, 35, 101
1, 46857, Control_c, 3, 1, 15
1, 46864, Note_on_c, 6, 58, 79
1, 46874, Note_on_c, 6, 63, 77
1, 46877, Control_c, 3, 1, 17
1, 46891, Control_c, 3, 1, 20
1, 46899, Control_c, 0, 64, 127
1, 46909, Control_c, 3, 1, 22
1, 46927, Control_c, 3, 1, 14
1, 46945, Control_c, 3, 1, 0
1, 46991, Note_off_c, 0, 55, 83
1, 47003, Note_off_c, 3, 70, 104
1, 47040, Note_on_c, 0, 55, 67
1, 47040, Note_on_c, 9, 51, 57
1, 47049, Note_off_c, 9, 51, 57
1, 47115, Note_off_c, 0, 41, 84
1, 47127, Note_off_c, 0, 63, 78
1, 47147, Note_off_c, 0, 67, 91
1, 47157, Note_off_c, 0, 58, 87
1, 47161, Note_off_c, 0, 55, 67
1, 47232, Note_on_c, 0, 58, 70
1, 47232, Note_on_c, 0, 63, 79
1, 47232, Note_on_c, 0, 55, 64
1, 47232, Note_on_c, 7, 43, 120
1, 47232, Note_on_c, 9, 51, 96
1, 47232, Note_on_c, 9, 37, 101
1, 47241, Note_off_c, 9, 37, 101
1, 47241, Note_off_c, 9, 51, 96
1, 47241, Note_off_c, 7, 43, 120
1, 47328, Note_on_c, 0, 43, 91
1, 47387, Note_off_c, 0, 43, 91
1, 47395, Note_off_c, 6, 48, 92
1, 47424, Note_on_c, 0, 41, 97
1, 47424, Note_on_c, 1, 43, 106
1, 47424, Note_on_c, 7, 41, 127
1, 47424, Note_on_c, 9, 51, 57
1, 47433, Note_off_c, 9, 51, 57
1, 47433, Note_off_c, 7, 41, 127
1, 47433, Note_off_c, 1, 41, 107
1, 47437, Note_off_c, 0, 63, 79
1, 47445, Note_off_c, 0, 58, 70
1, 47461, Note_off_c, 0, 55, 64
1, 47465, Note_off_c, 6, 58, 79
1, 47487, Note_off_c, 6, 63, 77
1, 47491, Note_off_c, 0, 41, 97
1, 47491, Note_off_c, 6, 55, 87
1, 47497, Note_off_c, 1, 43, 106
1, 47520, Note_on_c, 1, 41, 94
1, 47535, Note_off_c, 5, 41, 116
1, 47539, Note_off_c, 5, 63, 112
1, 47539, Note_off_c, 5, 58, 107
1, 47573, Note_off_c, 5, 67, 110
1, 47583, Note_off_c, 1, 41, 94
1, 47585, Control_c, 0, 64, 0
1, 47607, Control_c, 2, 64, 0
1, 47616, Note_on_c, 0, 62, 103
1, 47616, Note_on_c, 0, 67, 106
1, 47616, Note_on_c, 0, 58, 100
1, 47616, Note_on_c, 0, 40, 111
1, 47616, Note_on_c, 0, 55, 101
1, 47616, Note_on_c, 1, 40, 120
1, 47616, Note_on_c, 2, 58, 101
1, 47616, Note_on_c, 2, 70, 101
1, 47616, Note_on_c, 4, 70, 92
1, 47616, Note_on_c, 4, 67, 92
1, 47616, Note_on_c, 4, 74, 98
1, 47616, Note_on_c, 5, 55, 113
1, 47616, Note_on_c, 5, 79, 113
1, 47616, Note_on_c, 7, 40, 127
1, 47616, Note_on_c, 9, 35, 102
1, 47616, Note_on_c, 9, 51, 87
1, 47625, Note_off_c, 9, 51, 87
1, 47625, Note_off_c, 9, 35, 102
1, 47625, Note_off_c, 7, 40, 127
1, 47626, Note_on_c, 6, 52, 106
1, 47705, Control_c, 2, 64, 127
1, 47719, Control_c, 0, 64, 127
1, 47728, Note_on_c, 6, 55, 83
1, 47781, Note_off_c, 0, 55, 101
1, 47808, Note_on_c, 0, 55, 80
1, 47808, Note_on_c, 9, 51, 70
1, 47817, Note_off_c, 9, 51, 70
1, 47822, Note_on_c, 3, 67, 106
1, 47822, Note_on_c, 6, 58, 72
1, 47847, Control_c, 3, 1, 4
1, 47867, Control_c, 3, 1, 6
1, 47883, Control_c, 3, 1, 1
1, 47885, Note_off_c, 3, 67, 106
1, 47893, Note_off_c, 2, 70, 101
1, 47901, Note_off_c, 0, 62, 103
1, 47901, Control_c, 3, 1, 0
1, 47905, Note_off_c, 2, 58, 101
1, 47909, Note_off_c, 0, 67, 106
1, 47915, Note_off_c, 0, 58, 100
1, 47935, Note_off_c, 0, 40, 111
1, 47973, Pitch_bend_c, 3, 7840
1, 47979, Note_off_c, 0, 55, 80
1, 47979, Pitch_bend_c, 3, 3616
1, 47993, Pitch_bend_c, 3, 960
1, 48000, Note_on_c, 0, 62, 91
1, 48000, Note_on_c, 0, 55, 55
1, 48000, Note_on_c, 9, 37, 108
1, 48000, Note_on_c, 9, 51, 94
1, 48004, Note_on_c, 3, 69, 110
1, 48004, Note_on_c, 6, 62, 72
1, 48007, Pitch_bend_c, 3, 960
1, 48009, Note_off_c, 9, 51, 94
1, 48009, Note_off_c, 9, 37, 108
1, 48021, Pitch_bend_c, 3, 3616
1, 48035, Pitch_bend_c, 3, 7456
1, 48051, Pitch_bend_c, 3, 8160
1, 48057, Pitch_bend_c, 3, 8192
1, 48133, Note_off_c, 6, 52, 106
1, 48133, Note_off_c, 1, 40, 120
1, 48147, Note_off_c, 0, 62, 91
1, 48175, Note_off_c, 0, 55, 55
1, 48179, Note_off_c, 3, 69, 110
1, 48192, Note_on_c, 0, 40, 84
1, 48192, Note_on_c, 1, 40, 105
1, 48192, Note_on_c, 9, 35, 77
1, 48192, Note_on_c, 9, 51, 65
1, 48198, Note_on_c, 3, 70, 91
1, 48198, Note_on_c, 6, 52, 95
1, 48201, Note_off_c, 9, 51, 65
1, 48201, Note_off_c, 9, 35, 77
1, 48279, Note_off_c, 0, 40, 84
1, 48285, Note_off_c, 6, 52, 95
1, 48301, Control_c, 3, 1, 3
1, 48313, Control_c, 3, 1, 7
1, 48331, Control_c, 3, 1, 9
1, 48335, Note_off_c, 1, 40, 105
1, 48349, Control_c, 3, 1, 11
1, 48359, Note_off_c, 5, 55, 113
1, 48363, Note_off_c, 3, 70, 91
1, 48363, Note_off_c, 5, 79, 113
1, 48367, Control_c, 3, 1, 14
1, 48369, Note_off_c, 6, 62, 72
1, 48379, Control_c, 0, 64, 0
1, 48381, Note_off_c, 4, 74, 98
1, 48381, Note_off_c, 4, 67, 92
1, 48381, Note_off_c, 4, 70, 92
1, 48384, Note_on_c, 0, 39, 107
1, 48384, Note_on_c, 0, 61, 100
1, 48384, Note_on_c, 0, 55, 94
1, 48384, Note_on_c, 0, 58, 101
1, 48384, Note_on_c, 1, 39, 113
1, 48384, Note_on_c, 2, 60, 92
1, 48384, Note_on_c, 2, 72, 90
1, 48384, Note_on_c, 4, 70, 96
1, 48384, Note_on_c, 4, 73, 100
1, 48384, Note_on_c, 4, 67, 100
1, 48384, Note_on_c, 5, 81, 93
1, 48384, Note_on_c, 5, 57, 110
1, 48384, Note_on_c, 7, 39, 115
1, 48384, Note_on_c, 9, 35, 99
1, 48384, Note_on_c, 9, 51, 88
1, 48385, Note_off_c, 6, 55, 83
1, 48386, Note_on_c, 6, 51, 105
1, 48387, Control_c, 3, 1, 17
1, 48388, Note_on_c, 3, 60, 101
1, 48391, Note_off_c, 6, 58, 72
1, 48393, Note_off_c, 9, 51, 88
1, 48393, Note_off_c, 9, 35, 99
1, 48393, Note_off_c, 7, 39, 115
1, 48395, Note_off_c, 2, 72, 90
1, 48399, Control_c, 2, 64, 0
1, 48419, Control_c, 3, 1, 15
1, 48423, Control_c, 3, 1, 14
1, 48439, Control_c, 3, 1, 16
1, 48471, Control_c, 3, 1, 17
1, 48475, Control_c, 3, 1, 23
1, 48483, Control_c, 2, 64, 127
1, 48495, Control_c, 3, 1, 27
1, 48496, Note_on_c, 6, 55, 87
1, 48519, Control_c, 3, 1, 29
1, 48521, Control_c, 0, 64, 127
1, 48539, Control_c, 3, 1, 31
1, 48551, Control_c, 3, 1, 34
1, 48565, Control_c, 3, 1, 10
1, 48569, Note_off_c, 3, 60, 101
1, 48576, Note_on_c, 9, 51, 57
1, 48578, Note_on_c, 3, 58, 89
1, 48585, Note_off_c, 9, 51, 57
1, 48585, Control_c, 3, 1, 0
1, 48588, Note_on_c, 6, 58, 71
1, 48599, Note_off_c, 2, 60, 92
1, 48615, Note_off_c, 3, 58, 89
1, 48623, Note_off_c, 0, 58, 101
1, 48631, Note_off_c, 0, 61, 100
1, 48653, Pitch_bend_c, 3, 5760
1, 48655, Note_off_c, 0, 55, 94
1, 48665, Pitch_bend_c, 3, 960
1, 48681, Pitch_bend_c, 3, 0
1, 48688, Note_on_c, 3, 72, 102
1, 48703, Pitch_bend_c, 3, 576
1, 48709, Pitch_bend_c, 3, 2880
1, 48721, Pitch_bend_c, 3, 5952
1, 48735, Pitch_bend_c, 3, 7680
1, 48747, Note_off_c, 5, 57, 110
1, 48751, Pitch_bend_c, 3, 8096
1, 48753, Note_off_c, 0, 39, 107
1, 48759, Pitch_bend_c, 3, 8192
1, 48765, Note_off_c, 5, 81, 93
1, 48766, Note_on_c, 6, 61, 68
1, 48768, Note_on_c, 0, 61, 87
1, 48768, Note_on_c, 0, 55, 87
1, 48768, Note_on_c, 0, 58, 87
1, 48768, Note_on_c, 2, 70, 97
1, 48768, Note_on_c, 2, 58, 90
1, 48768, Note_on_c, 5, 58, 112
1, 48768, Note_on_c, 5, 82, 88
1, 48768, Note_on_c, 9, 37, 104
1, 48768, Note_on_c, 9, 51, 89
1, 48777, Note_off_c, 9, 51, 89
1, 48777, Note_off_c, 9, 37, 104
1, 48799, Note_off_c, 2, 58, 90
1, 48805, Note_off_c, 2, 70, 97
1, 48857, Control_c, 3, 1, 5
1, 48873, Control_c, 3, 1, 11
1, 48895, Control_c, 3, 1, 9
1, 48909, Control_c, 3, 1, 7
1, 48925, Control_c, 3, 1, 5
1, 48927, Note_off_c, 1, 39, 113
1, 48931, Note_off_c, 6, 51, 105
1, 48935, Note_off_c, 3, 72, 102
1, 48943, Control_c, 3, 1, 2
1, 48945, Note_off_c, 0, 58, 87
1, 48949, Note_off_c, 0, 61, 87
1, 48950, Note_on_c, 3, 70, 112
1, 48951, Note_off_c, 0, 55, 87
1, 48960, Note_on_c, 0, 39, 95
1, 48960, Note_on_c, 1, 39, 115
1, 48960, Note_on_c, 7, 51, 100
1, 48960, Note_on_c, 9, 51, 56
1, 48969, Note_off_c, 9, 51, 56
1, 48969, Note_off_c, 7, 51, 100
1, 48969, Control_c, 3, 1, 3
1, 48976, Note_on_c, 6, 51, 72
1, 48999, Control_c, 3, 1, 5
1, 49015, Control_c, 3, 1, 9
1, 49017, Note_off_c, 0, 39, 95
1, 49033, Control_c, 3, 1, 16
1, 49045, Note_off_c, 6, 51, 72
1, 49051, Control_c, 3, 1, 26
1, 49069, Control_c, 3, 1, 32
1, 49087, Control_c, 3, 1, 35
1, 49107, Note_off_c, 1, 39, 115
1, 49107, Control_c, 3, 1, 38
1, 49121, Note_off_c, 3, 70, 112
1, 49125, Note_off_c, 6, 61, 68
1, 49127, Control_c, 0, 64, 0
1, 49131, Note_off_c, 6, 58, 71
1, 49131, Control_c, 2, 64, 0
1, 49139, Note_off_c, 6, 55, 87
1, 49141, Control_c, 3, 1, 41
1, 49143, Note_off_c, 5, 58, 112
1, 49145, Note_off_c, 5, 82, 88
1, 49146, Note_on_c, 3, 65, 107
1, 49149, Note_off_c, 4, 67, 100
1, 49149, Note_off_c, 4, 73, 100
1, 49149, Note_off_c, 4, 70, 96
1, 49152, Note_on_c, 0, 60, 94
1, 49152, Note_on_c, 0, 53, 87
1, 49152, Note_on_c, 0, 57, 94
1, 49152, Note_on_c, 0, 38, 111
1, 49152, Note_on_c, 1, 38, 120
1, 49152, Note_on_c, 2, 53, 92
1, 49152, Note_on_c, 2, 65, 99
1, 49152, Note_on_c, 4, 65, 102
1, 49152, Note_on_c, 4, 72, 87
1, 49152, Note_on_c, 4, 69, 110
1, 49152, Note_on_c, 5, 53, 100
1, 49152, Note_on_c, 5, 77, 105
1, 49152, Note_on_c, 7, 50, 121
1, 49152, Note_on_c, 9, 51, 82
1, 49152, Note_on_c, 9, 35, 103
1, 49158, Note_on_c, 6, 50, 103
1, 49159, Control_c, 3, 1, 45
1, 49161, Note_off_c, 9, 35, 103
1, 49161, Note_off_c, 9, 51, 82
1, 49161, Note_off_c, 7, 50, 121
1, 49179, Control_c, 3, 1, 47
1, 49197, Control_c, 3, 1, 45
1, 49215, Control_c, 3, 1, 44
1, 49223, Control_c, 2, 64, 127
1, 49233, Control_c, 3, 1, 51
1, 49251, Control_c, 0, 64, 127
1, 49251, Control_c, 3, 1, 58
1, 49256, Note_on_c, 6, 53, 85
1, 49267, Control_c, 3, 1, 45
1, 49287, Control_c, 3, 1, 16
1, 49303, Note_off_c, 0, 53, 87
1, 49305, Control_c, 3, 1, 0
1, 49327, Note_off_c, 3, 65, 107
1, 49344, Note_on_c, 0, 53, 71
1, 49344, Note_on_c, 9, 51, 56
1, 49350, Note_on_c, 6, 60, 77
1, 49353, Note_off_c, 9, 51, 56
1, 49423, Note_off_c, 6, 53, 85
1, 49460, Note_on_c, 6, 53, 80
1, 49499, Note_off_c, 0, 60, 94
1, 49525, Note_off_c, 0, 38, 111
1, 49536, Note_on_c, 0, 60, 69
1, 49536, Note_on_c, 0, 65, 101
1, 49536, Note_on_c, 9, 37, 107
1, 49536, Note_on_c, 9, 51, 92
1, 49544, Note_on_c, 6, 65, 85
1, 49545, Note_off_c, 9, 51, 92
1, 49545, Note_off_c, 9, 37, 107
1, 49627, Control_c, 2, 64, 0
1, 49637, Note_off_c, 0, 53, 71
1, 49675, Note_off_c, 6, 50, 103
1, 49677, Note_off_c, 0, 65, 101
1, 49683, Note_off_c, 1, 38, 120
1, 49722, Note_on_c, 6, 50, 83
1, 49728, Note_on_c, 0, 38, 99
1, 49728, Note_on_c, 0, 53, 71
1, 49728, Note_on_c, 1, 38, 120
1, 49728, Note_on_c, 7, 50, 127
1, 49728, Note_on_c, 9, 51, 64
1, 49728, Note_on_c, 9, 35, 81
1, 49737, Note_off_c, 9, 35, 81
1, 49737, Note_off_c, 9, 51, 64
1, 49737, Note_off_c, 7, 50, 127
1, 49741, Note_off_c, 0, 57, 94
1, 49743, Note_off_c, 0, 60, 69
1, 49765, Note_off_c, 6, 53, 80
1, 49771, Note_off_c, 0, 53, 71
1, 49813, Note_off_c, 6, 65, 85
1, 49822, Note_on_c, 6, 53, 68
1, 49823, Note_off_c, 0, 38, 99
1, 49873, Note_off_c, 1, 38, 120
1, 49877, Note_off_c, 6, 50, 83
1, 49881, Note_off_c, 4, 69, 110
1, 49891, Note_off_c, 5, 77, 105
1, 49895, Note_off_c, 6, 60, 77
1, 49895, Note_off_c, 2, 53, 92
1, 49899, Note_off_c, 2, 65, 99
1, 49905, Control_c, 0, 64, 0
1, 49911, Note_off_c, 5, 53, 100
1, 49917, Note_off_c, 6, 53, 68
1, 49917, Note_off_c, 4, 65, 102
1, 49920, Note_on_c, 0, 53, 96
1, 49920, Note_on_c, 0, 58, 91
1, 49920, Note_on_c, 0, 43, 102
1, 49920, Note_on_c, 0, 62, 97
1, 49920, Note_on_c, 0, 57, 100
1, 49920, Note_on_c, 1, 43, 118
1, 49920, Note_on_c, 4, 67, 103
1, 49920, Note_on_c, 4, 70, 82
1, 49920, Note_on_c, 4, 65, 102
1, 49920, Note_on_c, 5, 89, 91
1, 49920, Note_on_c, 5, 77, 94
1, 49920, Note_on_c, 6, 43, 101
1, 49920, Note_on_c, 7, 43, 127
1, 49920, Note_on_c, 9, 35, 100
1, 49920, Note_on_c, 9, 51, 89
1, 49925, Note_off_c, 4, 72, 87
1, 49929, Note_off_c, 9, 51, 89
1, 49929, Note_off_c, 9, 35, 100
1, 49929, Note_off_c, 7, 43, 127
1, 50015, Pitch_bend_c, 3, 6176
1, 50023, Pitch_bend_c, 3, 0
1, 50027, Control_c, 0, 64, 127
1, 50038, Note_on_c, 3, 72, 105
1, 50065, Pitch_bend_c, 3, 2112
1, 50079, Pitch_bend_c, 3, 5792
1, 50085, Note_off_c, 0, 53, 96
1, 50093, Pitch_bend_c, 3, 8160
1, 50107, Pitch_bend_c, 3, 8192
1, 50110, Note_on_c, 6, 53, 82
1, 50112, Note_on_c, 0, 53, 56
1, 50112, Note_on_c, 9, 51, 70
1, 50121, Note_off_c, 9, 51, 70
1, 50157, Note_off_c, 3, 72, 105
1, 50168, Note_on_c, 3, 70, 87
1, 50179, Note_off_c, 0, 62, 97
1, 50181, Note_off_c, 0, 57, 100
1, 50187, Note_off_c, 0, 58, 91
1, 50191, Note_off_c, 0, 53, 56
1, 50200, Note_on_c, 6, 57, 83
1, 50261, Note_off_c, 3, 70, 87
1, 50279, Note_off_c, 0, 43, 102
1, 50286, Note_on_c, 6, 58, 84
1, 50288, Note_on_c, 3, 70, 100
1, 50289, Note_off_c, 6, 57, 83
1, 50289, Control_c, 3, 1, 1
1, 50293, Control_c, 3, 1, 14
1, 50304, Note_on_c, 0, 53, 91
1, 50304, Note_on_c, 0, 57, 97
1, 50304, Note_on_c, 0, 62, 96
1, 50304, Note_on_c, 0, 58, 91
1, 50304, Note_on_c, 7, 43, 113
1, 50304, Note_on_c, 9, 51, 92
1, 50304, Note_on_c, 9, 37, 102
1, 50313, Note_off_c, 9, 37, 102
1, 50313, Note_off_c, 9, 51, 92
1, 50313, Note_off_c, 7, 43, 113
1, 50313, Control_c, 3, 1, 29
1, 50331, Control_c, 3, 1, 38
1, 50347, Control_c, 3, 1, 46
1, 50367, Control_c, 3, 1, 52
1, 50383, Control_c, 3, 1, 53
1, 50409, Control_c, 3, 1, 49
1, 50419, Control_c, 3, 1, 42
1, 50437, Control_c, 3, 1, 35
1, 50457, Note_off_c, 1, 43, 118
1, 50457, Control_c, 3, 1, 29
1, 50473, Control_c, 3, 1, 12
1, 50475, Note_off_c, 6, 53, 82
1, 50481, Control_c, 0, 64, 0
1, 50493, Control_c, 3, 1, 1
1, 50496, Note_on_c, 0, 43, 102
1, 50496, Note_on_c, 1, 43, 105
1, 50496, Note_on_c, 7, 41, 113
1, 50496, Note_on_c, 9, 51, 62
1, 50505, Note_off_c, 9, 51, 62
1, 50505, Note_off_c, 7, 41, 113
1, 50509, Control_c, 3, 1, 0
1, 50510, Note_on_c, 6, 53, 78
1, 50519, Control_c, 0, 64, 127
1, 50541, Note_off_c, 6, 43, 101
1, 50545, Note_off_c, 3, 70, 100
1, 50559, Note_off_c, 0, 43, 102
1, 50561, Note_off_c, 6, 58, 84
1, 50565, Note_off_c, 1, 43, 105
1, 50567, Note_off_c, 0, 53, 91
1, 50573, Note_off_c, 0, 57, 97
1, 50575, Note_off_c, 0, 58, 91
1, 50577, Note_off_c, 0, 62, 96
1, 50588, Note_on_c, 6, 58, 74
1, 50592, Note_on_c, 0, 41, 80
1, 50592, Note_on_c, 1, 41, 97
1, 50615, Note_off_c, 6, 53, 78
1, 50629, Note_off_c, 6, 58, 74
1, 50635, Note_off_c, 0, 41, 80
1, 50641, Note_off_c, 1, 41, 97
1, 50643, Note_off_c, 5, 77, 94
1, 50653, Control_c, 2, 64, 127
1, 50685, Note_off_c, 5, 89, 91
1, 50685, Note_off_c, 4, 65, 102
1, 50685, Note_off_c, 4, 70, 82
1, 50685, Note_off_c, 4, 67, 103
1, 50688, Note_on_c, 0, 40, 111
1, 50688, Note_on_c, 0, 62, 101
1, 50688, Note_on_c, 0, 58, 97
1, 50688, Note_on_c, 0, 55, 91
1, 50688, Note_on_c, 1, 40, 115
1, 50688, Note_on_c, 2, 67, 94
1, 50688, Note_on_c, 2, 55, 87
1, 50688, Note_on_c, 4, 67, 99
1, 50688, Note_on_c, 4, 70, 100
1, 50688, Note_on_c, 4, 74, 100
1, 50688, Note_on_c, 5, 79, 105
1, 50688, Note_on_c, 5, 67, 111
1, 50688, Note_on_c, 7, 40, 125
1, 50688, Note_on_c, 9, 51, 84
1, 50688, Note_on_c, 9, 35, 102
1, 50691, Control_c, 0, 64, 0
1, 50692, Note_on_c, 6, 52, 103
1, 50697, Note_off_c, 9, 35, 102
1, 50697, Note_off_c, 9, 51, 84
1, 50697, Note_off_c, 7, 40, 125
1, 50727, Note_off_c, 2, 55, 87
1, 50731, Note_off_c, 2, 67, 94
1, 50788, Note_on_c, 6, 55, 85
1, 50823, Control_c, 0, 64, 127
1, 50835, Note_off_c, 0, 55, 91
1, 50878, Note_on_c, 6, 58, 81
1, 50880, Note_on_c, 0, 55, 83
1, 50880, Note_on_c, 9, 51, 69
1, 50889, Note_off_c, 9, 51, 69
1, 50902, Note_on_c, 3, 67, 111
1, 50921, Note_off_c, 6, 55, 85
1, 50925, Control_c, 3, 1, 4
1, 50949, Control_c, 3, 1, 8
1, 50961, Control_c, 3, 1, 12
1, 50974, Note_on_c, 6, 55, 77
1, 50981, Note_off_c, 3, 67, 111
1, 50987, Control_c, 3, 1, 13
1, 51005, Note_off_c, 0, 58, 97
1, 51005, Note_off_c, 0, 62, 101
1, 51021, Control_c, 3, 1, 14
1, 51023, Note_off_c, 0, 55, 83
1, 51037, Control_c, 3, 1, 16
1, 51057, Control_c, 3, 1, 18
1, 51067, Control_c, 3, 1, 20
1, 51072, Note_on_c, 0, 67, 107
1, 51072, Note_on_c, 0, 62, 101
1, 51072, Note_on_c, 0, 58, 86
1, 51072, Note_on_c, 9, 51, 95
1, 51072, Note_on_c, 9, 37, 112
1, 51074, Note_on_c, 6, 62, 91
1, 51079, Note_off_c, 6, 58, 81
1, 51081, Note_off_c, 9, 37, 112
1, 51081, Note_off_c, 9, 51, 95
1, 51089, Control_c, 3, 1, 19
1, 51104, Note_on_c, 3, 69, 120
1, 51109, Control_c, 3, 1, 22
1, 51115, Note_off_c, 0, 40, 111
1, 51121, Control_c, 3, 1, 24
1, 51147, Control_c, 3, 1, 21
1, 51157, Control_c, 3, 1, 23
1, 51168, Note_on_c, 6, 58, 69
1, 51175, Control_c, 3, 1, 31
1, 51193, Control_c, 3, 1, 43
1, 51211, Control_c, 3, 1, 51
1, 51221, Note_off_c, 1, 40, 115
1, 51231, Note_off_c, 6, 55, 77
1, 51233, Control_c, 3, 1, 54
1, 51249, Control_c, 3, 1, 50
1, 51255, Note_off_c, 0, 67, 107
1, 51264, Note_on_c, 0, 55, 71
1, 51264, Note_on_c, 1, 40, 120
1, 51264, Note_on_c, 7, 52, 107
1, 51264, Note_on_c, 9, 51, 68
1, 51264, Note_on_c, 9, 35, 80
1, 51267, Control_c, 3, 1, 36
1, 51271, Note_off_c, 0, 62, 101
1, 51273, Note_off_c, 9, 35, 80
1, 51273, Note_off_c, 9, 51, 68
1, 51273, Note_off_c, 7, 52, 107
1, 51277, Note_off_c, 0, 58, 86
1, 51279, Note_off_c, 3, 69, 120
1, 51280, Note_on_c, 6, 55, 75
1, 51283, Control_c, 3, 1, 25
1, 51296, Note_on_c, 3, 70, 87
1, 51301, Control_c, 3, 1, 14
1, 51315, Note_off_c, 6, 52, 103
1, 51319, Control_c, 3, 1, 6
1, 51335, Note_off_c, 0, 55, 71
1, 51337, Control_c, 3, 1, 3
1, 51363, Control_c, 3, 1, 2
1, 51395, Control_c, 3, 1, 0
1, 51405, Control_c, 2, 64, 0
1, 51411, Note_off_c, 1, 40, 120
1, 51415, Note_off_c, 5, 67, 111
1, 51431, Note_off_c, 3, 70, 87
1, 51439, Note_off_c, 5, 79, 105
1, 51453, Note_off_c, 4, 74, 100
1, 51453, Note_off_c, 4, 70, 100
1, 51453, Note_off_c, 4, 67, 99
1, 51456, Note_on_c, 0, 39, 105
1, 51456, Note_on_c, 0, 61, 98
1, 51456, Note_on_c, 0, 58, 92
1, 51456, Note_on_c, 0, 55, 87
1, 51456, Note_on_c, 1, 39, 119
1, 51456, Note_on_c, 2, 72, 94
1, 51456, Note_on_c, 2, 60, 92
1, 51456, Note_on_c, 4, 70, 91
1, 51456, Note_on_c, 4, 67, 98
1, 51456, Note_on_c, 4, 73, 101
1, 51456, Note_on_c, 5, 69, 106
1, 51456, Note_on_c, 5, 81, 93
1, 51456, Note_on_c, 7, 51, 119
1, 51456, Note_on_c, 9, 35, 109
1, 51456, Note_on_c, 9, 51, 90
1, 51457, Pitch_bend_c, 3, 6912
1, 51465, Note_off_c, 9, 51, 90
1, 51465, Note_off_c, 9, 35, 109
1, 51465, Note_off_c, 7, 51, 119
1, 51465, Pitch_bend_c, 3, 1536
1, 51471, Note_off_c, 6, 62, 91
1, 51473, Note_off_c, 6, 58, 69
1, 51475, Control_c, 0, 64, 0
1, 51481, Note_off_c, 6, 55, 75
1, 51481, Control_c, 2, 64, 127
1, 51481, Pitch_bend_c, 3, 192
1, 51482, Note_on_c, 6, 51, 110
1, 51490, Note_on_c, 3, 60, 109
1, 51493, Note_off_c, 2, 72, 94
1, 51497, Pitch_bend_c, 3, 1376
1, 51499, Note_off_c, 2, 60, 92
1, 51509, Pitch_bend_c, 3, 5280
1, 51523, Pitch_bend_c, 3, 8160
1, 51537, Pitch_bend_c, 3, 8192
1, 51568, Note_on_c, 6, 55, 85
1, 51575, Control_c, 0, 64, 127
1, 51599, Note_off_c, 0, 55, 87
1, 51641, Note_off_c, 3, 60, 109
1, 51648, Note_on_c, 0, 55, 78
1, 51648, Note_on_c, 9, 51, 60
1, 51652, Note_on_c, 6, 61, 72
1, 51656, Note_on_c, 3, 58, 98
1, 51657, Note_off_c, 9, 51, 60
1, 51691, Note_off_c, 3, 58, 98
1, 51719, Note_off_c, 6, 55, 85
1, 51727, Pitch_bend_c, 3, 8160
1, 51731, Pitch_bend_c, 3, 4480
1, 51745, Pitch_bend_c, 3, 1472
1, 51754, Note_on_c, 6, 55, 30
1, 51759, Pitch_bend_c, 3, 1280
1, 51760, Note_on_c, 3, 72, 101
1, 51773, Pitch_bend_c, 3, 2656
1, 51787, Pitch_bend_c, 3, 4896
1, 51801, Pitch_bend_c, 3, 6592
1, 51807, Note_off_c, 6, 55, 30
1, 51815, Note_off_c, 5, 81, 93
1, 51817, Note_off_c, 0, 55, 78
1, 51817, Pitch_bend_c, 3, 7392
1, 51819, Note_off_c, 5, 69, 106
1, 51829, Pitch_bend_c, 3, 8160
1, 51840, Note_on_c, 0, 67, 85
1, 51840, Note_on_c, 2, 70, 102
1, 51840, Note_on_c, 2, 58, 92
1, 51840, Note_on_c, 5, 82, 84
1, 51840, Note_on_c, 5, 70, 108
1, 51840, Note_on_c, 9, 37, 104
1, 51840, Note_on_c, 9, 51, 91
1, 51845, Pitch_bend_c, 3, 8192
1, 51849, Note_off_c, 9, 51, 91
1, 51849, Note_off_c, 9, 37, 104
1, 51850, Note_on_c, 6, 55, 87
1, 51853, Note_off_c, 0, 58, 92
1, 51861, Note_off_c, 0, 61, 98
1, 51865, Note_off_c, 2, 58, 92
1, 51873, Note_off_c, 2, 70, 102
1, 51943, Control_c, 3, 1, 1
1, 51949, Control_c, 3, 1, 4
1, 51969, Note_off_c, 0, 67, 85
1, 51973, Control_c, 3, 1, 2
1, 51989, Control_c, 3, 1, 1
1, 52007, Note_off_c, 1, 39, 119
1, 52011, Note_off_c, 0, 39, 105
1, 52013, Control_c, 3, 1, 2
1, 52023, Note_off_c, 6, 61, 72
1, 52023, Control_c, 3, 1, 4
1, 52032, Note_on_c, 0, 55, 76
1, 52032, Note_on_c, 1, 39, 107
1, 52032, Note_on_c, 7, 51, 108
1, 52032, Note_on_c, 9, 51, 61
1, 52041, Note_off_c, 9, 51, 61
1, 52041, Note_off_c, 7, 51, 108
1, 52041, Control_c, 3, 1, 8
1, 52054, Note_on_c, 6, 61, 81
1, 52057, Note_off_c, 3, 72, 101
1, 52059, Control_c, 3, 1, 12
1, 52066, Note_on_c, 3, 70, 108
1, 52067, Note_off_c, 0, 55, 76
1, 52077, Control_c, 3, 1, 10
1, 52095, Control_c, 3, 1, 8
1, 52113, Control_c, 3, 1, 12
1, 52133, Control_c, 3, 1, 16
1, 52147, Control_c, 3, 1, 25
1, 52151, Note_off_c, 6, 51, 110
1, 52167, Control_c, 3, 1, 31
1, 52179, Note_off_c, 1, 39, 107
1, 52183, Control_c, 3, 1, 29
1, 52201, Note_off_c, 5, 70, 108
1, 52201, Control_c, 3, 1, 26
1, 52203, Control_c, 2, 64, 0
1, 52213, Control_c, 0, 64, 0
1, 52219, Note_off_c, 6, 61, 81
1, 52221, Note_off_c, 4, 73, 101
1, 52221, Note_off_c, 4, 67, 98
1, 52221, Note_off_c, 4, 70, 91
1, 52224, Note_on_c, 0, 60, 82
1, 52224, Note_on_c, 0, 53, 76
1, 52224, Note_on_c, 0, 38, 105
1, 52224, Note_on_c, 0, 57, 83
1, 52224, Note_on_c, 0, 65, 81
1, 52224, Note_on_c, 1, 38, 118
1, 52224, Note_on_c, 2, 53, 96
1, 52224, Note_on_c, 2, 65, 101
1, 52224, Note_on_c, 4, 72, 87
1, 52224, Note_on_c, 4, 69, 102
1, 52224, Note_on_c, 4, 67, 94
1, 52224, Note_on_c, 5, 77, 96
1, 52224, Note_on_c, 5, 65, 100
1, 52224, Note_on_c, 7, 50, 127
1, 52224, Note_on_c, 9, 51, 87
1, 52224, Note_on_c, 9, 35, 106
1, 52233, Note_off_c, 9, 35, 106
1, 52233, Note_off_c, 9, 51, 87
1, 52233, Note_off_c, 7, 50, 127
1, 52233, Control_c, 3, 1, 27
1, 52241, Note_off_c, 6, 55, 87
1, 52243, Control_c, 3, 1, 30
1, 52245, Note_off_c, 3, 70, 108
1, 52246, Note_on_c, 6, 50, 113
1, 52249, Note_off_c, 5, 82, 84
1, 52255, Control_c, 3, 1, 33
1, 52256, Note_on_c, 3, 65, 110
1, 52281, Control_c, 3, 1, 34
1, 52291, Control_c, 3, 1, 36
1, 52311, Control_c, 3, 1, 38
1, 52333, Control_c, 0, 64, 127
1, 52333, Control_c, 3, 1, 40
1, 52334, Note_on_c, 6, 53, 81
1, 52347, Control_c, 3, 1, 40
1, 52365, Control_c, 3, 1, 38
1, 52379, Note_off_c, 0, 53, 76
1, 52379, Control_c, 2, 64, 127
1, 52383, Control_c, 3, 1, 36
1, 52409, Control_c, 3, 1, 33
1, 52412, Note_on_c, 6, 60, 77
1, 52416, Note_on_c, 0, 53, 76
1, 52416, Note_on_c, 9, 51, 63
1, 52419, Control_c, 3, 1, 14
1, 52425, Note_off_c, 9, 51, 63
1, 52437, Control_c, 3, 1, 0
1, 52441, Note_off_c, 3, 65, 110
1, 52465, Note_off_c, 0, 65, 81
1, 52473, Note_off_c, 0, 57, 83
1, 52477, Note_off_c, 0, 60, 82
1, 52573, Note_off_c, 4, 67, 94
1, 52575, Note_off_c, 6, 53, 81
1, 52597, Note_off_c, 0, 53, 76
1, 52608, Note_on_c, 0, 53, 63
1, 52608, Note_on_c, 0, 57, 98
1, 52608, Note_on_c, 4, 65, 97
1, 52608, Note_on_c, 9, 37, 104
1, 52608, Note_on_c, 9, 51, 94
1, 52617, Note_off_c, 9, 51, 94
1, 52617, Note_off_c, 9, 37, 104
1, 52622, Note_on_c, 6, 53, 77
1, 52623, Note_off_c, 0, 38, 105
1, 52643, Note_off_c, 6, 60, 77
1, 52687, Note_off_c, 2, 53, 96
1, 52695, Note_off_c, 2, 65, 101
1, 52702, Note_on_c, 6, 60, 83
1, 52743, Note_off_c, 6, 50, 113
1, 52747, Note_off_c, 1, 38, 118
1, 52789, Note_off_c, 0, 57, 98
1, 52800, Note_on_c, 0, 65, 91
1, 52800, Note_on_c, 1, 38, 113
1, 52800, Note_on_c, 6, 50, 95
1, 52800, Note_on_c, 7, 50, 120
1, 52800, Note_on_c, 9, 51, 71
1, 52800, Note_on_c, 9, 35, 91
1, 52809, Note_off_c, 9, 35, 91
1, 52809, Note_off_c, 9, 51, 71
1, 52809, Note_off_c, 7, 50, 120
1, 52815, Note_off_c, 0, 53, 63
1, 52865, Note_off_c, 0, 65, 91
1, 52895, Pitch_bend_c, 3, 5952
1, 52907, Pitch_bend_c, 3, 1312
1, 52914, Note_on_c, 3, 67, 110
1, 52923, Pitch_bend_c, 3, 640
1, 52925, Note_off_c, 6, 60, 83
1, 52931, Note_off_c, 6, 53, 77
1, 52933, Note_off_c, 1, 38, 113
1, 52935, Pitch_bend_c, 3, 3040
1, 52949, Note_off_c, 4, 69, 102
1, 52949, Pitch_bend_c, 3, 7232
1, 52955, Note_off_c, 4, 72, 87
1, 52963, Pitch_bend_c, 3, 8160
1, 52969, Pitch_bend_c, 3, 8192
1, 52971, Note_off_c, 5, 65, 100
1, 52985, Note_off_c, 5, 77, 96
1, 52985, Control_c, 2, 64, 0
1, 52989, Note_off_c, 4, 65, 97
1, 52990, Note_on_c, 6, 43, 99
1, 52991, Note_off_c, 6, 50, 95
1, 52992, Note_on_c, 0, 43, 106
1, 52992, Note_on_c, 0, 53, 97
1, 52992, Note_on_c, 0, 57, 107
1, 52992, Note_on_c, 1, 43, 111
1, 52992, Note_on_c, 2, 57, 94
1, 52992, Note_on_c, 2, 69, 91
1, 52992, Note_on_c, 4, 72, 72
1, 52992, Note_on_c, 4, 69, 96
1, 52992, Note_on_c, 4, 65, 72
1, 52992, Note_on_c, 5, 81, 100
1, 52992, Note_on_c, 5, 69, 113
1, 52992, Note_on_c, 7, 43, 127
1, 52992, Note_on_c, 9, 51, 87
1, 52992, Note_on_c, 9, 35, 103
1, 53001, Note_off_c, 9, 35, 103
1, 53001, Note_off_c, 9, 51, 87
1, 53001, Note_off_c, 7, 43, 127
1, 53003, Control_c, 0, 64, 0
1, 53041, Note_off_c, 3, 67, 110
1, 53066, Note_on_c, 3, 69, 111
1, 53077, Control_c, 2, 64, 127
1, 53083, Control_c, 0, 64, 127
1, 53111, Control_c, 3, 1, 2
1, 53123, Control_c, 3, 1, 4
1, 53129, Note_off_c, 2, 57, 94
1, 53137, Note_off_c, 2, 69, 91
1, 53139, Control_c, 3, 1, 3
1, 53143, Note_off_c, 0, 53, 97
1, 53165, Note_off_c, 3, 69, 111
1, 53169, Control_c, 3, 1, 2
1, 53171, Note_off_c, 0, 57, 107
1, 53181, Control_c, 3, 1, 4
1, 53184, Note_on_c, 0, 53, 75
1, 53184, Note_on_c, 9, 51, 64
1, 53186, Note_on_c, 3, 70, 97
1, 53186, Note_on_c, 6, 53, 81
1, 53193, Note_off_c, 9, 51, 64
1, 53197, Control_c, 3, 1, 7
1, 53211, Control_c, 3, 1, 12
1, 53227, Control_c, 3, 1, 22
1, 53247, Control_c, 3, 1, 32
1, 53265, Control_c, 3, 1, 42
1, 53275, Note_off_c, 0, 53, 75
1, 53283, Control_c, 3, 1, 46
1, 53299, Control_c, 3, 1, 21
1, 53319, Control_c, 3, 1, 5
1, 53339, Note_off_c, 4, 69, 96
1, 53339, Control_c, 3, 1, 6
1, 53341, Note_off_c, 5, 69, 113
1, 53347, Note_off_c, 4, 65, 72
1, 53351, Note_off_c, 5, 81, 100
1, 53353, Control_c, 3, 1, 12
1, 53367, Note_off_c, 1, 43, 111
1, 53375, Control_c, 3, 1, 16
1, 53376, Note_on_c, 0, 62, 107
1, 53376, Note_on_c, 0, 58, 104
1, 53376, Note_on_c, 0, 53, 97
1, 53376, Note_on_c, 1, 31, 98
1, 53376, Note_on_c, 2, 70, 107
1, 53376, Note_on_c, 2, 58, 98
1, 53376, Note_on_c, 4, 74, 92
1, 53376, Note_on_c, 4, 70, 84
1, 53376, Note_on_c, 4, 65, 85
1, 53376, Note_on_c, 5, 82, 96
1, 53376, Note_on_c, 5, 70, 102
1, 53376, Note_on_c, 7, 43, 127
1, 53376, Note_on_c, 9, 37, 102
1, 53376, Note_on_c, 9, 51, 100
1, 53381, Note_off_c, 4, 72, 72
1, 53383, Control_c, 2, 64, 0
1, 53385, Note_off_c, 9, 51, 100
1, 53385, Note_off_c, 9, 37, 102
1, 53385, Note_off_c, 7, 43, 127
1, 53390, Note_on_c, 6, 58, 97
1, 53391, Control_c, 3, 1, 21
1, 53393, Control_c, 0, 64, 0
1, 53411, Control_c, 3, 1, 23
1, 53431, Control_c, 3, 1, 25
1, 53443, Control_c, 3, 1, 17
1, 53461, Control_c, 0, 64, 127
1, 53463, Control_c, 3, 1, 4
1, 53479, Control_c, 3, 1, 0
1, 53485, Control_c, 2, 64, 127
1, 53497, Note_off_c, 2, 58, 98
1, 53501, Note_off_c, 3, 70, 97
1, 53515, Note_off_c, 2, 70, 107
1, 53519, Note_off_c, 6, 43, 99
1, 53523, Note_off_c, 0, 53, 97
1, 53557, Note_off_c, 0, 43, 106
1, 53568, Note_on_c, 0, 53, 58
1, 53568, Note_on_c, 9, 51, 69
1, 53577, Note_off_c, 9, 51, 69
1, 53586, Note_on_c, 6, 43, 96
1, 53597, Note_off_c, 0, 53, 58
1, 53607, Note_off_c, 0, 62, 107
1, 53613, Note_off_c, 0, 58, 104
1, 53687, Note_off_c, 6, 53, 81
1, 53719, Note_off_c, 6, 43, 96
1, 53725, Note_off_c, 6, 58, 97
1, 53729, Note_off_c, 1, 31, 98
1, 53743, Pitch_bend_c, 3, 7712
1, 53749, Note_off_c, 5, 70, 102
1, 53749, Pitch_bend_c, 3, 3392
1, 53757, Note_off_c, 5, 82, 96
1, 53757, Note_off_c, 4, 65, 85
1, 53757, Note_off_c, 4, 70, 84
1, 53757, Note_off_c, 4, 74, 92
1, 53760, Note_on_c, 0, 36, 105
1, 53760, Note_on_c, 0, 54, 104
1, 53760, Note_on_c, 0, 61, 100
1, 53760, Note_on_c, 0, 58, 96
1, 53760, Note_on_c, 1, 36, 118
1, 53760, Note_on_c, 2, 72, 103
1, 53760, Note_on_c, 2, 60, 106
1, 53760, Note_on_c, 4, 72, 85
1, 53760, Note_on_c, 4, 70, 89
1, 53760, Note_on_c, 4, 66, 92
1, 53760, Note_on_c, 5, 72, 107
1, 53760, Note_on_c, 5, 84, 102
1, 53760, Note_on_c, 7, 48, 127
1, 53760, Note_on_c, 9, 49, 91
1, 53760, Note_on_c, 9, 35, 105
1, 53761, Pitch_bend_c, 3, 0
1, 53765, Control_c, 2, 64, 0
1, 53769, Note_off_c, 9, 35, 105
1, 53769, Note_off_c, 9, 49, 91
1, 53769, Note_off_c, 7, 48, 127
1, 53770, Note_on_c, 3, 72, 110
1, 53774, Note_on_c, 6, 48, 98
1, 53778, Note_on_c, 6, 58, 95
1, 53778, Note_on_c, 6, 54, 95
1, 53799, Control_c, 0, 64, 0
1, 53801, Pitch_bend_c, 3, 192
1, 53805, Pitch_bend_c, 3, 2336
1, 53817, Pitch_bend_c, 3, 5472
1, 53831, Pitch_bend_c, 3, 7872
1, 53845, Pitch_bend_c, 3, 8160
1, 53847, Pitch_bend_c, 3, 8192
1, 53853, Control_c, 2, 64, 127
1, 53885, Note_off_c, 2, 60, 106
1, 53895, Note_off_c, 2, 72, 103
1, 53987, Control_c, 0, 64, 127
1, 54049, Note_off_c, 0, 54, 104
1, 54051, Note_off_c, 0, 58, 96
1, 54063, Note_off_c, 0, 61, 100
1, 54089, Note_off_c, 1, 36, 118
1, 54093, Note_off_c, 3, 72, 110
1, 54102, Note_on_c, 3, 74, 94
1, 54109, Note_off_c, 5, 72, 107
1, 54119, Note_off_c, 5, 84, 102
1, 54127, Note_off_c, 6, 48, 98
1, 54131, Note_off_c, 6, 54, 95
1, 54139, Control_c, 2, 64, 0
1, 54144, Note_on_c, 1, 36, 121
1, 54144, Note_on_c, 2, 62, 113
1, 54144, Note_on_c, 2, 74, 114
1, 54144, Note_on_c, 5, 74, 107
1, 54144, Note_on_c, 5, 86, 87
1, 54144, Note_on_c, 7, 48, 127
1, 54144, Note_on_c, 9, 49, 100
1, 54144, Note_on_c, 9, 35, 91
1, 54153, Note_off_c, 9, 35, 91
1, 54153, Note_off_c, 9, 49, 100
1, 54153, Note_off_c, 7, 48, 127
1, 54157, Note_off_c, 6, 58, 95
1, 54181, Note_off_c, 0, 36, 105
1, 54182, Note_on_c, 6, 55, 99
1, 54184, Note_on_c, 6, 48, 109
1, 54230, Note_on_c, 7, 48, 100
1, 54239, Note_off_c, 7, 48, 100
1, 54286, Note_on_c, 7, 48, 98
1, 54293, Note_off_c, 3, 74, 94
1, 54295, Note_off_c, 7, 48, 98
1, 54328, Note_on_c, 3, 74, 106
1, 54336, Note_on_c, 4, 67, 76
1, 54340, Note_on_c, 7, 48, 81
1, 54345, Note_off_c, 4, 66, 92
1, 54349, Note_off_c, 7, 48, 81
1, 54351, Control_c, 3, 1, 4
1, 54361, Control_c, 3, 1, 14
1, 54381, Control_c, 3, 1, 24
1, 54392, Note_on_c, 7, 48, 78
1, 54397, Control_c, 3, 1, 30
1, 54401, Note_off_c, 7, 48, 78
1, 54417, Control_c, 3, 1, 34
1, 54429, Note_off_c, 4, 72, 85
1, 54432, Note_on_c, 4, 74, 85
1, 54437, Control_c, 3, 1, 29
1, 54444, Note_on_c, 7, 48, 91
1, 54453, Note_off_c, 7, 48, 91
1, 54453, Control_c, 3, 1, 26
1, 54473, Control_c, 3, 1, 31
1, 54489, Control_c, 3, 1, 34
1, 54498, Note_on_c, 7, 48, 87
1, 54507, Note_off_c, 7, 48, 87
1, 54507, Control_c, 3, 1, 36
1, 54523, Control_c, 3, 1, 39
1, 54525, Control_c, 0, 64, 0
1, 54528, Note_on_c, 0, 36, 96
1, 54528, Note_on_c, 0, 62, 99
1, 54528, Note_on_c, 0, 58, 96
1, 54528, Note_on_c, 0, 55, 97
1, 54529, Control_c, 2, 64, 127
1, 54543, Control_c, 3, 1, 43
1, 54548, Note_on_c, 7, 48, 84
1, 54557, Note_off_c, 7, 48, 84
1, 54559, Control_c, 3, 1, 44
1, 54577, Control_c, 3, 1, 41
1, 54589, Note_off_c, 2, 74, 114
1, 54595, Control_c, 3, 1, 38
1, 54598, Note_on_c, 7, 48, 74
1, 54607, Note_off_c, 7, 48, 74
1, 54617, Control_c, 3, 1, 37
1, 54621, Note_off_c, 2, 62, 113
1, 54650, Note_on_c, 7, 48, 90
1, 54653, Control_c, 3, 1, 40
1, 54659, Note_off_c, 7, 48, 90
1, 54681, Control_c, 3, 1, 41
1, 54687, Control_c, 3, 1, 43
1, 54695, Control_c, 0, 64, 127
1, 54698, Note_on_c, 7, 48, 77
1, 54707, Note_off_c, 7, 48, 77
1, 54709, Control_c, 3, 1, 44
1, 54723, Control_c, 3, 1, 34
1, 54739, Control_c, 3, 1, 29
1, 54746, Note_on_c, 7, 48, 87
1, 54755, Note_off_c, 7, 48, 87
1, 54765, Control_c, 3, 1, 31
1, 54779, Control_c, 3, 1, 33
1, 54787, Note_off_c, 0, 55, 97
1, 54793, Control_c, 3, 1, 37
1, 54794, Note_on_c, 7, 48, 91
1, 54803, Note_off_c, 7, 48, 91
1, 54816, Note_on_c, 0, 52, 85
1, 54819, Control_c, 3, 1, 38
1, 54825, Note_off_c, 0, 58, 96
1, 54827, Note_off_c, 0, 62, 99
1, 54831, Control_c, 3, 1, 29
1, 54844, Note_on_c, 2, 64, 92
1, 54844, Note_on_c, 7, 48, 95
1, 54849, Control_c, 3, 1, 24
1, 54853, Note_off_c, 7, 48, 95
1, 54865, Control_c, 3, 1, 20
1, 54887, Note_off_c, 0, 52, 85
1, 54896, Note_on_c, 7, 48, 85
1, 54899, Control_c, 3, 1, 21
1, 54901, Note_off_c, 2, 64, 92
1, 54905, Note_off_c, 7, 48, 85
1, 54929, Control_c, 3, 1, 23
1, 54939, Control_c, 3, 1, 27
1, 54942, Note_on_c, 7, 48, 88
1, 54951, Note_off_c, 7, 48, 88
1, 54960, Note_on_c, 2, 66, 79
1, 54961, Control_c, 3, 1, 28
1, 54973, Control_c, 3, 1, 30
1, 54995, Control_c, 3, 1, 33
1, 55008, Note_on_c, 0, 58, 53
1, 55011, Note_off_c, 2, 66, 79
1, 55011, Control_c, 3, 1, 35
1, 55047, Control_c, 3, 1, 26
1, 55065, Note_off_c, 0, 58, 53
1, 55065, Control_c, 3, 1, 20
1, 55066, Note_on_c, 2, 68, 83
1, 55089, Control_c, 3, 1, 23
1, 55103, Note_off_c, 2, 68, 83
1, 55105, Control_c, 3, 1, 27
1, 55121, Control_c, 3, 1, 30
1, 55137, Control_c, 3, 1, 33
1, 55157, Control_c, 3, 1, 34
1, 55172, Note_on_c, 2, 70, 85
1, 55187, Control_c, 3, 1, 35
1, 55193, Control_c, 3, 1, 36
1, 55201, Note_off_c, 2, 70, 85
1, 55223, Note_off_c, 6, 55, 99
1, 55227, Note_off_c, 6, 48, 109
1, 55237, Control_c, 3, 1, 32
1, 55243, Control_c, 3, 1, 14
1, 55261, Control_c, 3, 1, 0
1, 55269, Note_off_c, 0, 36, 96
1, 55280, Note_on_c, 2, 72, 84
1, 55293, Note_off_c, 4, 74, 85
1, 55293, Note_off_c, 4, 67, 76
1, 55293, Note_off_c, 4, 70, 89
1, 55307, Note_off_c, 3, 74, 106
1, 55317, Note_off_c, 2, 72, 84
1, 55384, Note_on_c, 2, 74, 78
1, 55419, Note_off_c, 2, 74, 78
1, 55488, Note_on_c, 2, 76, 76
1, 55523, Note_off_c, 2, 76, 76
1, 55547, Note_off_c, 5, 86, 87
1, 55567, Note_off_c, 5, 74, 107
1, 55592, Note_on_c, 2, 78, 69
1, 55613, Note_off_c, 2, 78, 69
1, 55714, Note_on_c, 2, 80, 71
1, 55749, Note_off_c, 2, 80, 71
1, 55895, Control_c, 0, 64, 0
1, 56405, Control_c, 2, 64, 0
1, 56527, Note_off_c, 1, 36, 121
1, 56832, Note_on_c, 0, 67, 89
1, 56832, Note_on_c, 0, 63, 83
1, 56832, Note_on_c, 0, 58, 80
1, 56832, Note_on_c, 0, 48, 91
1, 56832, Note_on_c, 1, 41, 113
1, 56832, Note_on_c, 5, 67, 87
1, 56832, Note_on_c, 5, 70, 82
1, 56832, Note_on_c, 5, 75, 84
1, 56832, Note_on_c, 5, 60, 89
1, 56832, Note_on_c, 9, 35, 83
1, 56832, Note_on_c, 9, 51, 81
1, 56841, Note_off_c, 9, 51, 81
1, 56841, Note_off_c, 9, 35, 83
1, 56841, Pitch_bend_c, 3, 3712
1, 56855, Pitch_bend_c, 3, 96
1, 56864, Note_on_c, 3, 67, 106
1, 56869, Pitch_bend_c, 3, 0
1, 56883, Pitch_bend_c, 3, 2176
1, 56899, Pitch_bend_c, 3, 5440
1, 56913, Pitch_bend_c, 3, 7936
1, 56925, Pitch_bend_c, 3, 8160
1, 56927, Pitch_bend_c, 3, 8192
1, 56949, Control_c, 0, 64, 127
1, 56969, Note_off_c, 0, 58, 80
1, 56997, Note_off_c, 0, 67, 89
1, 57024, Note_on_c, 0, 58, 71
1, 57027, Note_off_c, 0, 63, 83
1, 57029, Note_off_c, 3, 67, 106
1, 57046, Note_on_c, 3, 60, 93
1, 57083, Note_off_c, 0, 58, 71
1, 57215, Note_off_c, 3, 60, 93
1, 57216, Note_on_c, 0, 63, 75
1, 57216, Note_on_c, 9, 51, 77
1, 57225, Note_off_c, 9, 51, 77
1, 57226, Note_on_c, 3, 62, 99
1, 57287, Control_c, 3, 1, 3
1, 57297, Control_c, 3, 1, 11
1, 57313, Control_c, 3, 1, 19
1, 57333, Control_c, 3, 1, 22
1, 57349, Control_c, 3, 1, 28
1, 57371, Control_c, 3, 1, 31
1, 57389, Control_c, 3, 1, 36
1, 57391, Note_off_c, 0, 63, 75
1, 57401, Note_off_c, 0, 48, 91
1, 57407, Control_c, 3, 1, 40
1, 57408, Note_on_c, 0, 58, 52
1, 57423, Control_c, 3, 1, 45
1, 57451, Control_c, 3, 1, 44
1, 57457, Control_c, 3, 1, 41
1, 57475, Control_c, 3, 1, 38
1, 57491, Note_off_c, 0, 58, 52
1, 57493, Control_c, 3, 1, 34
1, 57511, Control_c, 3, 1, 33
1, 57537, Control_c, 3, 1, 30
1, 57547, Control_c, 3, 1, 25
1, 57561, Note_off_c, 3, 62, 99
1, 57587, Control_c, 3, 1, 29
1, 57596, Note_on_c, 3, 63, 107
1, 57600, Note_on_c, 0, 67, 76
1, 57600, Note_on_c, 0, 63, 71
1, 57600, Note_on_c, 9, 51, 73
1, 57605, Control_c, 3, 1, 32
1, 57609, Note_off_c, 9, 51, 73
1, 57621, Control_c, 3, 1, 17
1, 57639, Control_c, 3, 1, 16
1, 57671, Control_c, 3, 1, 17
1, 57673, Control_c, 3, 1, 24
1, 57693, Control_c, 3, 1, 29
1, 57711, Control_c, 3, 1, 36
1, 57727, Control_c, 3, 1, 43
1, 57741, Note_off_c, 0, 67, 76
1, 57743, Note_off_c, 0, 63, 71
1, 57747, Control_c, 3, 1, 47
1, 57767, Control_c, 3, 1, 44
1, 57775, Note_off_c, 3, 63, 107
1, 57781, Control_c, 3, 1, 36
1, 57790, Note_on_c, 3, 65, 100
1, 57792, Note_on_c, 0, 58, 61
1, 57809, Control_c, 3, 1, 39
1, 57821, Control_c, 3, 1, 29
1, 57839, Control_c, 3, 1, 32
1, 57853, Control_c, 3, 1, 27
1, 57871, Control_c, 3, 1, 11
1, 57889, Control_c, 3, 1, 0
1, 57891, Note_off_c, 0, 58, 61
1, 57931, Note_off_c, 3, 65, 100
1, 57939, Pitch_bend_c, 3, 6880
1, 57947, Pitch_bend_c, 3, 1760
1, 57963, Pitch_bend_c, 3, 256
1, 57970, Note_on_c, 3, 67, 105
1, 57975, Pitch_bend_c, 3, 96
1, 57984, Note_on_c, 0, 63, 72
1, 57984, Note_on_c, 9, 51, 61
1, 57989, Pitch_bend_c, 3, 2080
1, 57993, Note_off_c, 9, 51, 61
1, 58005, Pitch_bend_c, 3, 5280
1, 58017, Pitch_bend_c, 3, 8160
1, 58033, Pitch_bend_c, 3, 8192
1, 58035, Note_off_c, 0, 63, 72
1, 58161, Control_c, 3, 1, 5
1, 58176, Note_on_c, 9, 35, 84
1, 58176, Note_on_c, 9, 51, 66
1, 58177, Control_c, 3, 1, 8
1, 58185, Note_off_c, 9, 51, 66
1, 58185, Note_off_c, 9, 35, 84
1, 58199, Control_c, 3, 1, 10
1, 58219, Control_c, 3, 1, 12
1, 58231, Control_c, 3, 1, 15
1, 58255, Control_c, 3, 1, 17
1, 58291, Note_off_c, 5, 67, 87
1, 58299, Control_c, 3, 1, 16
1, 58309, Note_off_c, 3, 67, 105
1, 58311, Note_off_c, 5, 70, 82
1, 58321, Note_off_c, 1, 41, 113
1, 58323, Control_c, 3, 1, 14
1, 58339, Note_off_c, 5, 60, 89
1, 58341, Control_c, 3, 1, 16
1, 58347, Note_off_c, 5, 75, 84
1, 58358, Note_on_c, 3, 67, 103
1, 58361, Control_c, 3, 1, 17
1, 58368, Note_on_c, 0, 69, 80
1, 58368, Note_on_c, 0, 64, 73
1, 58368, Note_on_c, 0, 61, 78
1, 58368, Note_on_c, 0, 41, 81
1, 58368, Note_on_c, 1, 29, 102
1, 58368, Note_on_c, 2, 57, 69
1, 58368, Note_on_c, 5, 53, 87
1, 58368, Note_on_c, 5, 73, 85
1, 58368, Note_on_c, 5, 76, 85
1, 58368, Note_on_c, 5, 69, 82
1, 58368, Note_on_c, 9, 51, 82
1, 58368, Note_on_c, 9, 35, 101
1, 58375, Control_c, 2, 64, 127
1, 58377, Note_off_c, 9, 35, 101
1, 58377, Note_off_c, 9, 51, 82
1, 58379, Control_c, 0, 64, 0
1, 58383, Control_c, 3, 1, 20
1, 58403, Control_c, 3, 1, 21
1, 58413, Control_c, 3, 1, 22
1, 58433, Note_off_c, 2, 57, 69
1, 58457, Control_c, 3, 1, 21
1, 58475, Control_c, 3, 1, 23
1, 58485, Control_c, 0, 64, 127
1, 58495, Control_c, 3, 1, 24
1, 58531, Control_c, 3, 1, 23
1, 58533, Note_off_c, 0, 61, 78
1, 58537, Note_off_c, 0, 69, 80
1, 58537, Note_off_c, 3, 67, 103
1, 58539, Note_off_c, 0, 64, 73
1, 58543, Control_c, 3, 1, 25
1, 58554, Note_on_c, 3, 72, 98
1, 58555, Control_c, 3, 1, 17
1, 58560, Note_on_c, 2, 61, 72
1, 58575, Control_c, 3, 1, 9
1, 58591, Control_c, 3, 1, 13
1, 58599, Note_off_c, 2, 61, 72
1, 58609, Control_c, 3, 1, 18
1, 58627, Control_c, 3, 1, 21
1, 58645, Control_c, 3, 1, 24
1, 58663, Control_c, 3, 1, 22
1, 58683, Control_c, 3, 1, 3
1, 58699, Control_c, 3, 1, 0
1, 58725, Note_off_c, 3, 72, 98
1, 58733, Pitch_bend_c, 3, 5216
1, 58745, Pitch_bend_c, 3, 1792
1, 58752, Note_on_c, 2, 64, 71
1, 58752, Note_on_c, 3, 69, 96
1, 58752, Note_on_c, 9, 51, 67
1, 58761, Note_off_c, 9, 51, 67
1, 58761, Pitch_bend_c, 3, 1632
1, 58775, Pitch_bend_c, 3, 2816
1, 58787, Pitch_bend_c, 3, 4672
1, 58797, Note_off_c, 2, 64, 71
1, 58801, Pitch_bend_c, 3, 6720
1, 58817, Pitch_bend_c, 3, 8000
1, 58825, Pitch_bend_c, 3, 8192
1, 58944, Note_on_c, 0, 57, 83
1, 58944, Note_on_c, 2, 69, 77
1, 58963, Control_c, 3, 1, 2
1, 58971, Control_c, 3, 1, 6
1, 58981, Note_off_c, 2, 69, 77
1, 58987, Control_c, 3, 1, 10
1, 59009, Control_c, 3, 1, 12
1, 59029, Control_c, 3, 1, 14
1, 59040, Note_on_c, 0, 61, 77
1, 59063, Control_c, 3, 1, 15
1, 59065, Note_off_c, 0, 57, 83
1, 59105, Control_c, 3, 1, 16
1, 59119, Note_off_c, 0, 61, 77
1, 59123, Control_c, 3, 1, 17
1, 59136, Note_on_c, 0, 64, 87
1, 59136, Note_on_c, 0, 69, 93
1, 59136, Note_on_c, 9, 51, 66
1, 59139, Control_c, 3, 1, 18
1, 59145, Note_off_c, 9, 51, 66
1, 59159, Control_c, 3, 1, 20
1, 59169, Control_c, 3, 1, 20
1, 59189, Control_c, 3, 1, 18
1, 59201, Note_off_c, 0, 64, 87
1, 59207, Note_off_c, 0, 69, 93
1, 59223, Control_c, 3, 1, 19
1, 59263, Control_c, 3, 1, 9
1, 59275, Control_c, 3, 1, 0
1, 59481, Note_off_c, 3, 69, 96
1, 59509, Pitch_bend_c, 3, 7840
1, 59515, Pitch_bend_c, 3, 4480
1, 59516, Note_on_c, 3, 70, 100
1, 59520, Note_on_c, 0, 58, 60
1, 59520, Note_on_c, 0, 70, 87
1, 59520, Note_on_c, 2, 70, 75
1, 59529, Pitch_bend_c, 3, 3296
1, 59545, Pitch_bend_c, 3, 4256
1, 59547, Note_off_c, 0, 58, 60
1, 59557, Note_off_c, 0, 70, 87
1, 59557, Pitch_bend_c, 3, 6720
1, 59561, Note_off_c, 2, 70, 75
1, 59571, Pitch_bend_c, 3, 8000
1, 59587, Pitch_bend_c, 3, 8096
1, 59589, Pitch_bend_c, 3, 8192
1, 59625, Note_off_c, 0, 41, 81
1, 59712, Note_on_c, 9, 35, 68
1, 59712, Note_on_c, 9, 51, 64
1, 59721, Note_off_c, 9, 51, 64
1, 59721, Note_off_c, 9, 35, 68
1, 59775, Note_off_c, 1, 29, 102
1, 59823, Note_off_c, 5, 69, 82
1, 59847, Note_off_c, 5, 76, 85
1, 59857, Control_c, 2, 64, 0
1, 59863, Note_off_c, 3, 70, 100
1, 59866, Note_on_c, 6, 48, 91
1, 59875, Pitch_bend_c, 3, 6752
1, 59877, Note_off_c, 5, 73, 85
1, 59879, Pitch_bend_c, 3, 320
1, 59894, Note_on_c, 3, 67, 101
1, 59895, Pitch_bend_c, 3, 0
1, 59900, Note_on_c, 6, 58, 82
1, 59904, Note_on_c, 0, 67, 89
1, 59904, Note_on_c, 0, 63, 88
1, 59904, Note_on_c, 0, 58, 82
1, 59904, Note_on_c, 0, 48, 96
1, 59904, Note_on_c, 1, 36, 114
1, 59904, Note_on_c, 2, 63, 71
1, 59904, Note_on_c, 5, 75, 82
1, 59904, Note_on_c, 5, 60, 98
1, 59904, Note_on_c, 5, 70, 58
1, 59904, Note_on_c, 5, 79, 69
1, 59904, Note_on_c, 9, 51, 101
1, 59904, Note_on_c, 9, 35, 98
1, 59913, Note_off_c, 9, 35, 98
1, 59913, Note_off_c, 9, 51, 101
1, 59913, Note_off_c, 5, 53, 87
1, 59923, Pitch_bend_c, 3, 3072
1, 59937, Pitch_bend_c, 3, 5760
1, 59939, Control_c, 2, 64, 127
1, 59941, Control_c, 0, 64, 0
1, 59942, Note_on_c, 6, 63, 80
1, 59949, Pitch_bend_c, 3, 7712
1, 59957, Note_off_c, 2, 63, 71
1, 59963, Pitch_bend_c, 3, 8096
1, 59969, Pitch_bend_c, 3, 8192
1, 60039, Control_c, 0, 64, 127
1, 60096, Note_on_c, 2, 58, 72
1, 60119, Note_off_c, 3, 67, 101
1, 60134, Note_on_c, 3, 60, 95
1, 60139, Note_off_c, 2, 58, 72
1, 60151, Note_off_c, 0, 58, 82
1, 60159, Note_off_c, 0, 63, 88
1, 60159, Note_off_c, 0, 67, 89
1, 60201, Control_c, 3, 1, 4
1, 60211, Control_c, 3, 1, 13
1, 60229, Control_c, 3, 1, 20
1, 60247, Control_c, 3, 1, 24
1, 60269, Control_c, 3, 1, 25
1, 60285, Control_c, 3, 1, 27
1, 60288, Note_on_c, 0, 58, 58
1, 60288, Note_on_c, 2, 55, 57
1, 60288, Note_on_c, 9, 51, 54
1, 60297, Note_off_c, 9, 51, 54
1, 60303, Control_c, 3, 1, 30
1, 60321, Control_c, 3, 1, 32
1, 60335, Note_off_c, 2, 55, 57
1, 60339, Control_c, 3, 1, 34
1, 60357, Control_c, 3, 1, 31
1, 60377, Control_c, 3, 1, 25
1, 60391, Control_c, 3, 1, 20
1, 60403, Note_off_c, 3, 60, 95
1, 60409, Control_c, 3, 1, 20
1, 60416, Note_on_c, 3, 62, 91
1, 60427, Control_c, 3, 1, 25
1, 60449, Control_c, 3, 1, 27
1, 60471, Control_c, 3, 1, 25
1, 60480, Note_on_c, 0, 63, 47
1, 60481, Control_c, 3, 1, 15
1, 60485, Note_off_c, 0, 58, 58
1, 60503, Control_c, 3, 1, 12
1, 60523, Control_c, 3, 1, 11
1, 60533, Note_off_c, 0, 63, 47
1, 60547, Control_c, 3, 1, 13
1, 60553, Control_c, 3, 1, 19
1, 60575, Control_c, 3, 1, 22
1, 60599, Control_c, 3, 1, 17
1, 60605, Note_off_c, 3, 62, 91
1, 60607, Control_c, 3, 1, 6
1, 60620, Note_on_c, 3, 63, 87
1, 60629, Control_c, 3, 1, 2
1, 60645, Control_c, 3, 1, 0
1, 60669, Control_c, 3, 1, 1
1, 60672, Note_on_c, 0, 67, 74
1, 60672, Note_on_c, 9, 51, 68
1, 60679, Control_c, 3, 1, 2
1, 60681, Note_off_c, 9, 51, 68
1, 60695, Note_off_c, 3, 63, 87
1, 60715, Control_c, 3, 1, 0
1, 60718, Note_on_c, 3, 65, 87
1, 60763, Note_off_c, 0, 67, 74
1, 60803, Note_off_c, 3, 65, 87
1, 60807, Pitch_bend_c, 3, 6336
1, 60811, Note_off_c, 0, 48, 96
1, 60817, Pitch_bend_c, 3, 1312
1, 60831, Pitch_bend_c, 3, 0
1, 60832, Note_on_c, 3, 67, 98
1, 60861, Pitch_bend_c, 3, 2112
1, 60875, Pitch_bend_c, 3, 4736
1, 60887, Pitch_bend_c, 3, 7456
1, 60901, Pitch_bend_c, 3, 8096
1, 60907, Pitch_bend_c, 3, 8192
1, 61029, Control_c, 3, 1, 5
1, 61041, Control_c, 3, 1, 14
1, 61056, Note_on_c, 9, 51, 55
1, 61059, Control_c, 3, 1, 20
1, 61065, Note_off_c, 9, 51, 55
1, 61077, Control_c, 3, 1, 26
1, 61093, Control_c, 3, 1, 31
1, 61119, Control_c, 3, 1, 33
1, 61137, Control_c, 3, 1, 34
1, 61145, Note_off_c, 5, 70, 58
1, 61149, Control_c, 3, 1, 36
1, 61165, Note_off_c, 5, 60, 98
1, 61167, Control_c, 3, 1, 40
1, 61169, Note_off_c, 5, 79, 69
1, 61181, Note_off_c, 5, 75, 82
1, 61187, Control_c, 3, 1, 43
1, 61199, Control_c, 2, 64, 0
1, 61201, Control_c, 3, 1, 46
1, 61265, Control_c, 3, 1, 44
1, 61273, Control_c, 3, 1, 39
1, 61295, Control_c, 3, 1, 36
1, 61313, Control_c, 3, 1, 25
1, 61327, Control_c, 3, 1, 9
1, 61347, Control_c, 3, 1, 0
1, 61357, Note_off_c, 6, 48, 91
1, 61369, Note_off_c, 6, 63, 80
1, 61377, Note_off_c, 6, 58, 82
1, 61385, Note_off_c, 3, 67, 98
1, 61507, Control_c, 0, 64, 0
1, 61917, Note_off_c, 1, 36, 114
1, 62197, Pitch_bend_c, 3, 7680
1, 62203, Pitch_bend_c, 3, 1856
1, 62208, Note_on_c, 0, 43, 80
1, 62208, Note_on_c, 0, 53, 62
1, 62208, Note_on_c, 0, 59, 83
1, 62208, Note_on_c, 0, 63, 82
1, 62208, Note_on_c, 1, 35, 121
1, 62208, Note_on_c, 2, 67, 102
1, 62208, Note_on_c, 2, 55, 91
1, 62208, Note_on_c, 4, 55, 90
1, 62208, Note_on_c, 4, 67, 90
1, 62208, Note_on_c, 5, 79, 87
1, 62208, Note_on_c, 5, 55, 96
1, 62208, Note_on_c, 9, 51, 98
1, 62208, Note_on_c, 9, 35, 94
1, 62217, Note_off_c, 9, 35, 94
1, 62217, Note_off_c, 9, 51, 98
1, 62217, Pitch_bend_c, 3, 0
1, 62220, Note_on_c, 3, 67, 95
1, 62260, Note_on_c, 6, 43, 76
1, 62263, Pitch_bend_c, 3, 1920
1, 62275, Pitch_bend_c, 3, 5120
1, 62284, Note_on_c, 6, 53, 76
1, 62285, Control_c, 2, 64, 127
1, 62289, Pitch_bend_c, 3, 7520
1, 62293, Control_c, 0, 64, 127
1, 62301, Pitch_bend_c, 3, 8160
1, 62306, Note_on_c, 6, 59, 66
1, 62311, Pitch_bend_c, 3, 8192
1, 62336, Note_on_c, 6, 63, 82
1, 62381, Note_off_c, 2, 67, 102
1, 62399, Note_off_c, 2, 55, 91
1, 62587, Note_off_c, 0, 53, 62
1, 62592, Note_on_c, 0, 53, 57
1, 62649, Note_off_c, 0, 63, 82
1, 62657, Note_off_c, 0, 59, 83
1, 62735, Note_off_c, 4, 55, 90
1, 62761, Note_off_c, 4, 67, 90
1, 62784, Note_on_c, 0, 59, 31
1, 62784, Note_on_c, 0, 63, 62
1, 62784, Note_on_c, 2, 65, 81
1, 62784, Note_on_c, 4, 53, 90
1, 62784, Note_on_c, 4, 65, 90
1, 62784, Note_on_c, 9, 35, 68
1, 62784, Note_on_c, 9, 51, 62
1, 62793, Note_off_c, 9, 51, 62
1, 62793, Note_off_c, 9, 35, 68
1, 62793, Note_off_c, 3, 67, 95
1, 62795, Note_off_c, 0, 53, 57
1, 62800, Note_on_c, 3, 65, 89
1, 62805, Note_off_c, 0, 59, 31
1, 62815, Note_off_c, 0, 63, 62
1, 62875, Note_off_c, 6, 53, 76
1, 62875, Note_off_c, 6, 43, 76
1, 62881, Note_off_c, 6, 59, 66
1, 62889, Note_off_c, 6, 63, 82
1, 62897, Note_off_c, 2, 65, 81
1, 62950, Note_on_c, 6, 43, 94
1, 62962, Note_on_c, 6, 53, 69
1, 62965, Note_off_c, 3, 65, 89
1, 62973, Note_off_c, 1, 35, 121
1, 62976, Note_on_c, 0, 53, 66
1, 62976, Note_on_c, 0, 63, 82
1, 62976, Note_on_c, 0, 59, 72
1, 62976, Note_on_c, 1, 31, 121
1, 62976, Note_on_c, 2, 65, 102
1, 62976, Note_on_c, 2, 53, 105
1, 62976, Note_on_c, 4, 67, 90
1, 62976, Note_on_c, 4, 55, 90
1, 62976, Note_on_c, 5, 53, 93
1, 62976, Note_on_c, 5, 77, 87
1, 62976, Note_on_c, 9, 51, 95
1, 62976, Note_on_c, 9, 35, 105
1, 62984, Note_on_c, 6, 59, 67
1, 62985, Note_off_c, 9, 35, 105
1, 62985, Note_off_c, 9, 51, 95
1, 62993, Note_off_c, 4, 53, 90
1, 62998, Note_on_c, 3, 65, 97
1, 62999, Note_off_c, 4, 65, 90
1, 63006, Note_on_c, 6, 63, 79
1, 63009, Control_c, 2, 64, 0
1, 63027, Note_off_c, 5, 79, 87
1, 63029, Note_off_c, 5, 55, 96
1, 63073, Control_c, 3, 1, 6
1, 63093, Control_c, 3, 1, 11
1, 63111, Control_c, 3, 1, 13
1, 63113, Control_c, 2, 64, 127
1, 63127, Control_c, 3, 1, 18
1, 63149, Control_c, 3, 1, 22
1, 63163, Control_c, 3, 1, 25
1, 63179, Note_off_c, 2, 53, 105
1, 63185, Control_c, 3, 1, 28
1, 63199, Control_c, 3, 1, 26
1, 63201, Note_off_c, 2, 65, 102
1, 63223, Control_c, 3, 1, 25
1, 63247, Note_off_c, 0, 53, 66
1, 63249, Control_c, 3, 1, 26
1, 63255, Control_c, 3, 1, 29
1, 63269, Note_off_c, 0, 59, 72
1, 63275, Note_off_c, 0, 43, 80
1, 63279, Control_c, 3, 1, 30
1, 63299, Control_c, 3, 1, 26
1, 63309, Control_c, 3, 1, 23
1, 63321, Note_off_c, 6, 63, 79
1, 63327, Control_c, 3, 1, 22
1, 63341, Note_off_c, 4, 67, 90
1, 63343, Note_off_c, 4, 55, 90
1, 63347, Control_c, 3, 1, 26
1, 63353, Note_off_c, 0, 63, 82
1, 63358, Note_on_c, 6, 62, 80
1, 63360, Note_on_c, 0, 53, 75
1, 63360, Note_on_c, 0, 59, 23
1, 63360, Note_on_c, 4, 65, 90
1, 63360, Note_on_c, 4, 53, 90
1, 63363, Control_c, 3, 1, 28
1, 63385, Control_c, 3, 1, 29
1, 63389, Note_off_c, 0, 59, 23
1, 63397, Control_c, 3, 1, 31
1, 63425, Control_c, 3, 1, 33
1, 63437, Control_c, 3, 1, 34
1, 63457, Note_off_c, 0, 53, 75
1, 63465, Control_c, 3, 1, 35
1, 63487, Control_c, 3, 1, 37
1, 63523, Control_c, 3, 1, 32
1, 63541, Control_c, 3, 1, 23
1, 63552, Note_on_c, 9, 51, 67
1, 63559, Control_c, 3, 1, 9
1, 63561, Note_off_c, 9, 51, 67
1, 63577, Control_c, 3, 1, 0
1, 63587, Note_off_c, 6, 59, 67
1, 63589, Note_off_c, 6, 53, 69
1, 63617, Note_off_c, 6, 62, 80
1, 63625, Note_off_c, 3, 65, 97
1, 63681, Note_off_c, 6, 43, 94
1, 63714, Note_on_c, 6, 48, 94
1, 63715, Control_c, 2, 64, 0
1, 63717, Note_off_c, 5, 53, 93
1, 63721, Note_off_c, 5, 77, 87
1, 63733, Control_c, 0, 64, 0
1, 63741, Note_off_c, 1, 31, 121
1, 63744, Note_on_c, 0, 62, 85
1, 63744, Note_on_c, 0, 51, 72
1, 63744, Note_on_c, 0, 48, 73
1, 63744, Note_on_c, 0, 58, 79
1, 63744, Note_on_c, 1, 36, 114
1, 63744, Note_on_c, 2, 50, 96
1, 63744, Note_on_c, 2, 62, 101
1, 63744, Note_on_c, 4, 50, 90
1, 63744, Note_on_c, 4, 62, 90
1, 63744, Note_on_c, 5, 74, 94
1, 63744, Note_on_c, 5, 50, 109
1, 63744, Note_on_c, 9, 51, 90
1, 63744, Note_on_c, 9, 35, 101
1, 63748, Note_on_c, 6, 51, 83
1, 63753, Note_off_c, 9, 35, 101
1, 63753, Note_off_c, 9, 51, 90
1, 63765, Note_off_c, 4, 53, 90
1, 63765, Note_off_c, 4, 65, 90
1, 63780, Note_on_c, 6, 58, 78
1, 63804, Note_on_c, 6, 62, 87
1, 63825, Control_c, 2, 64, 127
1, 63863, Control_c, 0, 64, 127
1, 63931, Note_off_c, 2, 50, 96
1, 63943, Note_off_c, 2, 62, 101
1, 64067, Note_off_c, 0, 48, 73
1, 64075, Note_off_c, 0, 51, 72
1, 64128, Note_on_c, 0, 51, 64
1, 64189, Note_off_c, 0, 58, 79
1, 64193, Note_off_c, 0, 62, 85
1, 64201, Note_off_c, 0, 51, 64
1, 64295, Note_off_c, 1, 36, 114
1, 64301, Note_off_c, 5, 50, 109
1, 64303, Note_off_c, 5, 74, 94
1, 64320, Note_on_c, 0, 60, 61
1, 64320, Note_on_c, 0, 58, 57
1, 64320, Note_on_c, 1, 36, 114
1, 64320, Note_on_c, 2, 60, 80
1, 64320, Note_on_c, 2, 48, 75
1, 64320, Note_on_c, 4, 60, 90
1, 64320, Note_on_c, 4, 48, 90
1, 64320, Note_on_c, 5, 72, 91
1, 64320, Note_on_c, 5, 48, 91
1, 64320, Note_on_c, 9, 51, 73
1, 64320, Note_on_c, 9, 35, 77
1, 64329, Note_off_c, 9, 35, 77
1, 64329, Note_off_c, 9, 51, 73
1, 64329, Note_off_c, 4, 50, 90
1, 64331, Note_off_c, 4, 62, 90
1, 64355, Note_off_c, 0, 58, 57
1, 64373, Note_off_c, 2, 48, 75
1, 64377, Note_off_c, 0, 60, 61
1, 64383, Note_off_c, 2, 60, 80
1, 64405, Note_off_c, 6, 48, 94
1, 64411, Note_off_c, 6, 58, 78
1, 64419, Note_off_c, 6, 62, 87
1, 64419, Note_off_c, 6, 51, 83
1, 64473, Note_off_c, 1, 36, 114
1, 64486, Note_on_c, 6, 48, 91
1, 64501, Note_off_c, 4, 48, 90
1, 64507, Note_off_c, 4, 60, 90
1, 64509, Note_off_c, 5, 48, 91
1, 64512, Note_on_c, 0, 62, 77
1, 64512, Note_on_c, 0, 58, 75
1, 64512, Note_on_c, 0, 51, 68
1, 64512, Note_on_c, 1, 36, 110
1, 64512, Note_on_c, 2, 50, 103
1, 64512, Note_on_c, 2, 62, 101
1, 64512, Note_on_c, 4, 50, 90
1, 64512, Note_on_c, 4, 62, 90
1, 64512, Note_on_c, 5, 74, 89
1, 64512, Note_on_c, 5, 50, 102
1, 64512, Note_on_c, 6, 51, 73
1, 64512, Note_on_c, 9, 51, 79
1, 64512, Note_on_c, 9, 35, 96
1, 64519, Note_off_c, 5, 72, 91
1, 64521, Note_off_c, 9, 35, 96
1, 64521, Note_off_c, 9, 51, 79
1, 64531, Control_c, 2, 64, 0
1, 64544, Note_on_c, 6, 58, 84
1, 64580, Note_on_c, 6, 62, 80
1, 64581, Control_c, 0, 64, 0
1, 64609, Control_c, 0, 64, 127
1, 64621, Control_c, 2, 64, 127
1, 64709, Note_off_c, 2, 50, 103
1, 64715, Note_off_c, 2, 62, 101
1, 64791, Note_off_c, 0, 51, 68
1, 64795, Note_off_c, 0, 62, 77
1, 64829, Note_off_c, 0, 58, 75
1, 64859, Note_off_c, 6, 62, 80
1, 64879, Note_off_c, 5, 50, 102
1, 64881, Note_off_c, 4, 50, 90
1, 64885, Note_off_c, 4, 62, 90
1, 64887, Note_off_c, 5, 74, 89
1, 64893, Note_off_c, 1, 36, 110
1, 64896, Note_on_c, 0, 60, 83
1, 64896, Note_on_c, 0, 58, 81
1, 64896, Note_on_c, 0, 51, 77
1, 64896, Note_on_c, 1, 38, 81
1, 64896, Note_on_c, 2, 48, 87
1, 64896, Note_on_c, 2, 60, 83
1, 64896, Note_on_c, 4, 48, 90
1, 64896, Note_on_c, 4, 60, 90
1, 64896, Note_on_c, 5, 48, 101
1, 64896, Note_on_c, 5, 72, 78
1, 64896, Note_on_c, 9, 35, 82
1, 64896, Note_on_c, 9, 51, 78
1, 64905, Note_off_c, 9, 51, 78
1, 64905, Note_off_c, 9, 35, 82
1, 64910, Note_on_c, 6, 60, 77
1, 64919, Control_c, 2, 64, 0
1, 64963, Note_off_c, 0, 58, 81
1, 64967, Note_off_c, 0, 60, 83
1, 64969, Note_off_c, 0, 51, 77
1, 64971, Control_c, 2, 64, 127
1, 65023, Note_off_c, 2, 48, 87
1, 65031, Note_off_c, 2, 60, 83
1, 65065, Note_off_c, 1, 38, 81
1, 65065, Note_off_c, 6, 51, 73
1, 65069, Note_off_c, 6, 60, 77
1, 65073, Note_off_c, 6, 58, 84
1, 65088, Note_on_c, 1, 36, 81
1, 65183, Note_off_c, 6, 48, 91
1, 65257, Note_off_c, 1, 36, 81
1, 65260, Note_on_c, 6, 47, 103
1, 65265, Pitch_bend_c, 3, 7872
1, 65267, Note_off_c, 4, 60, 90
1, 65269, Pitch_bend_c, 3, 2976
1, 65280, Note_on_c, 0, 63, 85
1, 65280, Note_on_c, 0, 53, 86
1, 65280, Note_on_c, 0, 47, 85
1, 65280, Note_on_c, 0, 59, 91
1, 65280, Note_on_c, 1, 35, 120
1, 65280, Note_on_c, 2, 67, 101
1, 65280, Note_on_c, 2, 55, 111
1, 65280, Note_on_c, 4, 67, 90
1, 65280, Note_on_c, 4, 55, 90
1, 65280, Note_on_c, 5, 79, 89
1, 65280, Note_on_c, 5, 55, 99
1, 65280, Note_on_c, 9, 51, 97
1, 65280, Note_on_c, 9, 35, 93
1, 65283, Pitch_bend_c, 3, 96
1, 65285, Control_c, 0, 64, 0
1, 65287, Note_off_c, 4, 48, 90
1, 65288, Note_on_c, 6, 53, 83
1, 65289, Note_off_c, 9, 35, 93
1, 65289, Note_off_c, 9, 51, 97
1, 65290, Note_on_c, 3, 67, 113
1, 65299, Control_c, 2, 64, 0
1, 65299, Pitch_bend_c, 3, 352
1, 65307, Note_off_c, 5, 48, 101
1, 65313, Pitch_bend_c, 3, 2400
1, 65318, Note_on_c, 6, 59, 83
1, 65319, Note_off_c, 5, 72, 78
1, 65325, Pitch_bend_c, 3, 6080
1, 65341, Pitch_bend_c, 3, 7872
1, 65346, Note_on_c, 6, 63, 83
1, 65353, Pitch_bend_c, 3, 8160
1, 65359, Pitch_bend_c, 3, 8192
1, 65379, Control_c, 0, 64, 127
1, 65415, Control_c, 2, 64, 127
1, 65459, Note_off_c, 0, 47, 85
1, 65483, Control_c, 3, 1, 1
1, 65487, Control_c, 3, 1, 8
1, 65505, Control_c, 3, 1, 18
1, 65521, Control_c, 3, 1, 25
1, 65539, Control_c, 3, 1, 30
1, 65557, Note_off_c, 2, 55, 111
1, 65559, Control_c, 3, 1, 32
1, 65573, Note_off_c, 2, 67, 101
1, 65587, Control_c, 3, 1, 33
1, 65595, Control_c, 3, 1, 34
1, 65619, Control_c, 3, 1, 35
1, 65627, Note_off_c, 0, 53, 86
1, 65647, Control_c, 3, 1, 36
1, 65664, Note_on_c, 0, 53, 49
1, 65673, Control_c, 3, 1, 38
1, 65685, Control_c, 3, 1, 39
1, 65703, Control_c, 3, 1, 34
1, 65721, Control_c, 3, 1, 23
1, 65737, Control_c, 3, 1, 1
1, 65755, Control_c, 3, 1, 0
1, 65771, Note_off_c, 3, 67, 113
1, 65773, Note_off_c, 0, 53, 49
1, 65775, Note_off_c, 0, 59, 91
1, 65776, Note_on_c, 3, 68, 67
1, 65787, Note_off_c, 0, 63, 85
1, 65807, Note_off_c, 4, 55, 90
1, 65815, Note_off_c, 5, 55, 99
1, 65816, Note_on_c, 3, 67, 83
1, 65817, Note_off_c, 5, 79, 89
1, 65821, Note_off_c, 3, 68, 67
1, 65833, Note_off_c, 4, 67, 90
1, 65856, Note_on_c, 0, 65, 55
1, 65856, Note_on_c, 2, 65, 75
1, 65856, Note_on_c, 2, 53, 76
1, 65856, Note_on_c, 4, 65, 90
1, 65856, Note_on_c, 4, 53, 90
1, 65856, Note_on_c, 5, 53, 92
1, 65856, Note_on_c, 5, 77, 81
1, 65865, Note_off_c, 3, 67, 83
1, 65866, Note_on_c, 3, 65, 91
1, 65877, Note_off_c, 0, 65, 55
1, 65899, Note_off_c, 2, 53, 76
1, 65905, Note_off_c, 2, 65, 75
1, 65939, Note_off_c, 6, 53, 83
1, 65941, Note_off_c, 6, 59, 83
1, 65953, Note_off_c, 6, 63, 83
1, 66017, Note_off_c, 3, 65, 91
1, 66032, Note_on_c, 6, 53, 69
1, 66046, Note_on_c, 3, 65, 110
1, 66048, Note_on_c, 0, 53, 67
1, 66048, Note_on_c, 0, 63, 77
1, 66048, Note_on_c, 0, 59, 83
1, 66048, Note_on_c, 2, 55, 96
1, 66048, Note_on_c, 2, 67, 95
1, 66048, Note_on_c, 4, 55, 90
1, 66048, Note_on_c, 4, 67, 90
1, 66059, Control_c, 2, 64, 0
1, 66065, Note_off_c, 4, 53, 90
1, 66070, Note_on_c, 6, 59, 67
1, 66071, Note_off_c, 4, 65, 90
1, 66090, Note_on_c, 6, 63, 66
1, 66125, Control_c, 3, 1, 1
1, 66131, Note_off_c, 0, 59, 83
1, 66137, Control_c, 3, 1, 3
1, 66143, Control_c, 2, 64, 127
1, 66145, Note_off_c, 0, 63, 77
1, 66155, Control_c, 3, 1, 7
1, 66165, Note_off_c, 0, 53, 67
1, 66169, Control_c, 3, 1, 10
1, 66187, Control_c, 3, 1, 13
1, 66205, Control_c, 3, 1, 17
1, 66227, Control_c, 3, 1, 20
1, 66231, Note_off_c, 2, 55, 96
1, 66233, Note_off_c, 2, 67, 95
1, 66241, Control_c, 3, 1, 24
1, 66259, Control_c, 3, 1, 23
1, 66277, Control_c, 3, 1, 19
1, 66297, Control_c, 3, 1, 17
1, 66339, Control_c, 3, 1, 19
1, 66365, Control_c, 3, 1, 18
1, 66367, Control_c, 3, 1, 11
1, 66387, Control_c, 3, 1, 5
1, 66413, Note_off_c, 4, 67, 90
1, 66415, Note_off_c, 4, 55, 90
1, 66417, Control_c, 3, 1, 4
1, 66421, Control_c, 3, 1, 2
1, 66429, Note_off_c, 1, 35, 120
1, 66429, Note_off_c, 6, 47, 103
1, 66432, Note_on_c, 2, 53, 91
1, 66432, Note_on_c, 2, 65, 84
1, 66432, Note_on_c, 4, 53, 90
1, 66432, Note_on_c, 4, 65, 90
1, 66437, Control_c, 2, 64, 0
1, 66451, Control_c, 3, 1, 3
1, 66457, Control_c, 3, 1, 5
1, 66475, Control_c, 3, 1, 7
1, 66497, Control_c, 3, 1, 9
1, 66519, Control_c, 3, 1, 10
1, 66547, Control_c, 3, 1, 12
1, 66581, Note_off_c, 6, 59, 67
1, 66583, Control_c, 3, 1, 13
1, 66585, Note_off_c, 6, 63, 66
1, 66591, Note_off_c, 6, 53, 69
1, 66601, Control_c, 3, 1, 15
1, 66659, Control_c, 3, 1, 16
1, 66689, Control_c, 3, 1, 17
1, 66699, Control_c, 3, 1, 19
1, 66713, Control_c, 3, 1, 12
1, 66727, Control_c, 3, 1, 7
1, 66745, Control_c, 3, 1, 4
1, 66775, Control_c, 3, 1, 5
1, 66781, Control_c, 3, 1, 3
1, 66799, Control_c, 3, 1, 0
1, 66807, Control_c, 0, 64, 0
1, 66837, Note_off_c, 4, 65, 90
1, 66837, Note_off_c, 4, 53, 90
1, 66935, Note_off_c, 3, 65, 110
1, 66997, Note_off_c, 5, 53, 92
1, 67015, Note_off_c, 5, 77, 81
1, 67095, Note_off_c, 2, 53, 91
1, 67155, Note_off_c, 2, 65, 84
1, 67584, Note_on_c, 5, 84, 85
1, 67584, Note_on_c, 6, 58, 82
1, 67584, Note_on_c, 9, 51, 75
1, 67593, Note_off_c, 9, 51, 75
1, 67713, Control_c, 0, 64, 127
1, 67737, Control_c, 2, 64, 127
1, 67780, Note_on_c, 6, 65, 76
1, 67968, Note_on_c, 0, 46, 71
1, 67968, Note_on_c, 0, 57, 63
1, 67968, Note_on_c, 0, 65, 70
1, 67968, Note_on_c, 0, 62, 74
1, 67968, Note_on_c, 5, 74, 91
1, 67976, Note_on_c, 6, 69, 77
1, 68147, Note_off_c, 0, 57, 63
1, 68160, Note_on_c, 0, 57, 69
1, 68160, Note_on_c, 2, 65, 71
1, 68188, Note_on_c, 6, 74, 67
1, 68215, Note_off_c, 2, 65, 71
1, 68352, Note_on_c, 0, 69, 75
1, 68352, Note_on_c, 2, 69, 81
1, 68352, Note_on_c, 5, 77, 90
1, 68361, Note_off_c, 0, 57, 69
1, 68387, Note_off_c, 0, 62, 74
1, 68391, Note_off_c, 0, 65, 70
1, 68395, Note_off_c, 2, 69, 81
1, 68443, Note_off_c, 0, 69, 75
1, 68544, Note_on_c, 0, 62, 77
1, 68544, Note_on_c, 2, 72, 87
1, 68569, Note_off_c, 0, 62, 77
1, 68587, Note_off_c, 2, 72, 87
1, 68643, Note_off_c, 5, 84, 85
1, 68736, Note_on_c, 0, 72, 82
1, 68736, Note_on_c, 0, 62, 76
1, 68736, Note_on_c, 2, 74, 83
1, 68736, Note_on_c, 5, 81, 75
1, 68736, Note_on_c, 5, 86, 80
1, 68769, Note_off_c, 2, 74, 83
1, 68839, Note_off_c, 0, 72, 82
1, 68869, Note_off_c, 0, 62, 76
1, 68883, Note_off_c, 0, 46, 71
1, 68928, Note_on_c, 0, 69, 79
1, 68928, Note_on_c, 2, 77, 83
1, 68955, Note_off_c, 2, 77, 83
1, 68985, Note_off_c, 0, 69, 79
1, 69047, Note_off_c, 6, 69, 77
1, 69053, Note_off_c, 6, 65, 76
1, 69055, Note_off_c, 6, 74, 67
1, 69081, Note_off_c, 6, 58, 82
1, 69120, Note_on_c, 0, 77, 70
1, 69120, Note_on_c, 2, 84, 93
1, 69143, Note_off_c, 2, 84, 93
1, 69167, Note_off_c, 0, 77, 70
1, 69567, Control_c, 0, 64, 0
1, 70235, Control_c, 2, 64, 0
1, 71059, Note_off_c, 5, 86, 80
1, 71069, Note_off_c, 5, 81, 75
1, 71089, Note_off_c, 5, 74, 91
1, 71105, Note_off_c, 5, 77, 90
1, 75264, End_track
0, 0, End_of_file
