0, 0, Header, 0, 1, 960
1, 0, Start_track
1, 0, Program_c, 1, 51
1, 0, Program_c, 2, 81
1, 0, Program_c, 3, 60
1, 0, Program_c, 4, 81
1, 0, Program_c, 5, 81
1, 0, Program_c, 6, 49
1, 0, Program_c, 7, 49
1, 0, Program_c, 8, 73
1, 0, Program_c, 10, 35
1, 0, Program_c, 11, 89
1, 0, Program_c, 12, 51
1, 0, Program_c, 13, 103
1, 0, Program_c, 14, 103
1, 0, Program_c, 15, 103
1, 0, Title_t, "SynString2          "
1, 0, Control_c, 1, 7, 120
1, 0, Control_c, 1, 10, 0
1, 0, Title_t, "Saw Ld              "
1, 0, Control_c, 2, 7, 120
1, 0, Control_c, 2, 10, 90
1, 0, Title_t, "FrenchHorn          "
1, 0, Control_c, 3, 7, 120
1, 0, Control_c, 3, 10, 20
1, 0, Title_t, "Saw Ld              "
1, 0, Control_c, 4, 7, 120
1, 0, Control_c, 4, 10, 0
1, 0, Title_t, "Saw Ld              "
1, 0, Control_c, 5, 7, 120
1, 0, Control_c, 5, 10, 0
1, 0, Title_t, "Ensemble2           "
1, 0, Control_c, 6, 7, 120
1, 0, Control_c, 6, 10, 64
1, 0, Title_t, "Ensemble2"
1, 0, Control_c, 7, 7, 120
1, 0, Control_c, 7, 10, 64
1, 0, Title_t, "Flute"
1, 0, Control_c, 8, 7, 120
1, 0, Control_c, 8, 10, 100
1, 0, Title_t, "FretlessBase"
1, 0, Control_c, 10, 7, 120
1, 0, Control_c, 10, 10, 127
1, 0, Title_t, "Warm Pad"
1, 0, Control_c, 11, 7, 120
1, 0, Control_c, 11, 10, 64
1, 0, Title_t, "SynString2"
1, 0, Control_c, 12, 7, 120
1, 0, Control_c, 12, 10, 30
1, 0, Title_t, "Sci Fi               "
1, 0, Control_c, 13, 7, 120
1, 0, Control_c, 13, 10, 0
1, 0, Title_t, "Sci Fi"
1, 0, Control_c, 14, 7, 120
1, 0, Control_c, 14, 10, 127
1, 0, Title_t, "Sci Fi"
1, 0, Control_c, 15, 7, 120
1, 0, Control_c, 15, 10, 64
1, 0, Title_t, "*************************"
1, 0, Title_t, "Equinoxe Part 1"
1, 0, Title_t, "      by"
1, 0, Title_t, "Jean-Michel Jarre"
1, 0, Title_t, "*****************"
1, 60, Control_c, 1, 121, 0
1, 60, Control_c, 2, 121, 0
1, 60, Control_c, 3, 121, 0
1, 60, Control_c, 4, 121, 0
1, 60, Control_c, 5, 121, 0
1, 60, Control_c, 6, 121, 0
1, 60, Control_c, 7, 121, 0
1, 60, Control_c, 8, 121, 0
1, 60, Control_c, 10, 121, 0
1, 60, Control_c, 11, 121, 0
1, 60, Control_c, 12, 121, 0
1, 60, Control_c, 13, 121, 0
1, 60, Control_c, 14, 121, 0
1, 60, Control_c, 15, 121, 0
1, 120, Control_c, 1, 100, 0
1, 120, Control_c, 1, 101, 0
1, 120, Control_c, 1, 6, 2
1, 120, Control_c, 2, 100, 0
1, 120, Control_c, 2, 101, 0
1, 120, Control_c, 2, 6, 2
1, 120, Control_c, 3, 100, 0
1, 120, Control_c, 3, 101, 0
1, 120, Control_c, 3, 6, 2
1, 120, Control_c, 4, 100, 0
1, 120, Control_c, 4, 101, 0
1, 120, Control_c, 4, 6, 24
1, 120, Control_c, 5, 100, 0
1, 120, Control_c, 5, 101, 0
1, 120, Control_c, 5, 6, 24
1, 120, Control_c, 6, 100, 0
1, 120, Control_c, 6, 101, 0
1, 120, Control_c, 6, 6, 2
1, 120, Control_c, 7, 100, 0
1, 120, Control_c, 7, 101, 0
1, 120, Control_c, 7, 6, 2
1, 120, Control_c, 8, 100, 0
1, 120, Control_c, 8, 101, 0
1, 120, Control_c, 8, 6, 2
1, 120, Control_c, 10, 100, 0
1, 120, Control_c, 10, 101, 0
1, 120, Control_c, 10, 6, 2
1, 120, Control_c, 11, 100, 0
1, 120, Control_c, 11, 101, 0
1, 120, Control_c, 11, 6, 2
1, 120, Control_c, 12, 100, 0
1, 120, Control_c, 12, 101, 0
1, 120, Control_c, 12, 6, 2
1, 120, Control_c, 13, 100, 0
1, 120, Control_c, 13, 101, 0
1, 120, Control_c, 13, 6, 24
1, 120, Control_c, 14, 100, 0
1, 120, Control_c, 14, 101, 0
1, 120, Control_c, 14, 6, 24
1, 120, Control_c, 15, 100, 0
1, 120, Control_c, 15, 101, 0
1, 120, Control_c, 15, 6, 2
1, 180, Control_c, 1, 100, 127
1, 180, Control_c, 1, 101, 127
1, 180, Control_c, 2, 100, 127
1, 180, Control_c, 2, 101, 127
1, 180, Control_c, 3, 100, 127
1, 180, Control_c, 3, 101, 127
1, 180, Control_c, 4, 100, 127
1, 180, Control_c, 4, 101, 127
1, 180, Control_c, 5, 100, 127
1, 180, Control_c, 5, 101, 127
1, 180, Control_c, 6, 100, 127
1, 180, Control_c, 6, 101, 127
1, 180, Control_c, 7, 100, 127
1, 180, Control_c, 7, 101, 127
1, 180, Control_c, 8, 100, 127
1, 180, Control_c, 8, 101, 127
1, 180, Control_c, 10, 100, 127
1, 180, Control_c, 10, 101, 127
1, 180, Control_c, 11, 100, 127
1, 180, Control_c, 11, 101, 127
1, 180, Control_c, 12, 100, 127
1, 180, Control_c, 12, 101, 127
1, 180, Control_c, 13, 100, 127
1, 180, Control_c, 13, 101, 127
1, 180, Control_c, 14, 100, 127
1, 180, Control_c, 14, 101, 127
1, 180, Control_c, 15, 100, 127
1, 180, Control_c, 15, 101, 127
1, 480, Control_c, 1, 11, 127
1, 480, Control_c, 2, 11, 127
1, 480, Control_c, 3, 11, 127
1, 480, Control_c, 4, 11, 127
1, 480, Control_c, 5, 11, 127
1, 480, Control_c, 6, 11, 0
1, 480, Control_c, 7, 11, 127
1, 480, Control_c, 8, 11, 127
1, 480, Control_c, 10, 11, 127
1, 480, Control_c, 11, 11, 127
1, 480, Control_c, 12, 11, 127
1, 480, Control_c, 13, 11, 127
1, 480, Control_c, 14, 11, 127
1, 480, Control_c, 15, 11, 127
1, 960, Program_c, 1, 51
1, 960, Program_c, 2, 81
1, 960, Program_c, 3, 60
1, 960, Program_c, 4, 81
1, 960, Program_c, 5, 81
1, 960, Program_c, 6, 49
1, 960, Program_c, 7, 49
1, 960, Program_c, 8, 73
1, 960, Program_c, 10, 35
1, 960, Program_c, 11, 89
1, 960, Program_c, 12, 51
1, 960, Program_c, 13, 103
1, 960, Program_c, 14, 103
1, 960, Program_c, 15, 103
1, 1560, Control_c, 1, 91, 127
1, 1560, Control_c, 2, 91, 0
1, 1560, Control_c, 3, 91, 100
1, 1560, Control_c, 4, 91, 0
1, 1560, Control_c, 5, 91, 0
1, 1560, Control_c, 6, 91, 0
1, 1560, Control_c, 7, 91, 0
1, 1560, Control_c, 8, 91, 100
1, 1560, Control_c, 10, 91, 127
1, 1560, Control_c, 11, 91, 80
1, 1560, Control_c, 12, 91, 0
1, 1560, Control_c, 13, 91, 0
1, 1560, Control_c, 14, 91, 0
1, 1560, Control_c, 15, 91, 127
1, 1740, Control_c, 4, 1, 100
1, 1740, Control_c, 13, 1, 100
1, 1800, Control_c, 5, 1, 100
1, 1800, Control_c, 14, 1, 100
1, 1940, Control_c, 3, 1, 60
1, 1940, Control_c, 8, 1, 60
1, 2880, Note_on_c, 6, 24, 76
1, 2940, Control_c, 6, 11, 2
1, 3000, Control_c, 6, 11, 4
1, 3120, Control_c, 6, 11, 6
1, 3240, Control_c, 6, 11, 8
1, 3360, Control_c, 6, 11, 10
1, 3480, Control_c, 6, 11, 12
1, 3600, Control_c, 6, 11, 14
1, 3720, Control_c, 6, 11, 16
1, 3840, Control_c, 6, 11, 19
1, 3960, Control_c, 6, 11, 21
1, 4080, Control_c, 6, 11, 23
1, 4200, Control_c, 6, 11, 25
1, 4320, Control_c, 6, 11, 27
1, 4440, Control_c, 6, 11, 29
1, 4560, Control_c, 6, 11, 31
1, 4680, Control_c, 6, 11, 33
1, 4800, Control_c, 6, 11, 35
1, 4920, Control_c, 6, 11, 38
1, 5040, Control_c, 6, 11, 40
1, 5160, Control_c, 6, 11, 42
1, 5280, Control_c, 6, 11, 44
1, 5400, Control_c, 6, 11, 46
1, 5520, Control_c, 6, 11, 48
1, 5640, Control_c, 6, 11, 50
1, 5760, Control_c, 6, 11, 52
1, 5880, Control_c, 6, 11, 55
1, 6000, Control_c, 6, 11, 57
1, 6120, Control_c, 6, 11, 59
1, 6240, Control_c, 6, 11, 61
1, 6360, Control_c, 6, 11, 63
1, 6480, Control_c, 6, 11, 65
1, 6600, Control_c, 6, 11, 67
1, 6720, Control_c, 6, 11, 69
1, 6840, Control_c, 6, 11, 71
1, 6960, Control_c, 6, 11, 74
1, 7080, Control_c, 6, 11, 76
1, 7200, Control_c, 6, 11, 78
1, 7320, Control_c, 6, 11, 80
1, 7440, Control_c, 6, 11, 82
1, 7560, Control_c, 6, 11, 84
1, 7680, Control_c, 6, 11, 86
1, 7800, Control_c, 6, 11, 88
1, 7920, Control_c, 6, 11, 91
1, 8040, Control_c, 6, 11, 93
1, 8160, Control_c, 6, 11, 95
1, 8280, Control_c, 6, 11, 97
1, 8400, Control_c, 6, 11, 99
1, 8520, Control_c, 6, 11, 101
1, 8640, Control_c, 6, 11, 103
1, 8760, Control_c, 6, 11, 105
1, 12120, Note_on_c, 1, 84, 105
1, 12120, Note_on_c, 10, 84, 91
1, 12120, Note_on_c, 15, 84, 30
1, 12840, Note_on_c, 10, 84, 0
1, 12900, Note_on_c, 1, 84, 0
1, 13260, Note_on_c, 1, 84, 105
1, 13260, Note_on_c, 10, 84, 91
1, 13980, Note_on_c, 10, 84, 0
1, 14040, Note_on_c, 1, 84, 0
1, 20820, Note_on_c, 15, 84, 0
1, 20940, Note_on_c, 1, 84, 105
1, 20940, Note_on_c, 10, 84, 91
1, 20940, Note_on_c, 15, 84, 30
1, 21660, Note_on_c, 10, 84, 0
1, 21720, Note_on_c, 1, 84, 0
1, 22080, Note_on_c, 1, 84, 105
1, 22080, Note_on_c, 10, 84, 91
1, 22800, Note_on_c, 10, 84, 0
1, 22920, Note_on_c, 1, 84, 0
1, 23160, Note_on_c, 15, 84, 0
1, 23255, Note_on_c, 1, 79, 105
1, 23255, Note_on_c, 10, 79, 91
1, 23255, Note_on_c, 15, 79, 30
1, 23975, Note_on_c, 10, 79, 0
1, 24065, Note_on_c, 1, 79, 0
1, 24540, Note_on_c, 1, 79, 105
1, 24540, Note_on_c, 10, 79, 91
1, 25260, Note_on_c, 10, 79, 0
1, 25380, Note_on_c, 1, 79, 0
1, 31320, Note_on_c, 15, 79, 0
1, 31440, Note_on_c, 1, 84, 105
1, 31440, Note_on_c, 10, 84, 91
1, 31440, Note_on_c, 15, 84, 30
1, 32160, Note_on_c, 10, 84, 0
1, 32340, Note_on_c, 1, 84, 0
1, 32700, Note_on_c, 1, 84, 105
1, 32700, Note_on_c, 10, 84, 91
1, 33420, Note_on_c, 10, 84, 0
1, 33540, Note_on_c, 1, 84, 0
1, 33840, Note_on_c, 15, 84, 0
1, 33960, Note_on_c, 1, 79, 105
1, 33960, Note_on_c, 10, 79, 91
1, 33960, Note_on_c, 15, 79, 30
1, 34680, Note_on_c, 10, 79, 0
1, 34800, Note_on_c, 1, 79, 0
1, 35280, Note_on_c, 1, 79, 105
1, 35280, Note_on_c, 10, 79, 91
1, 36000, Note_on_c, 10, 79, 0
1, 36120, Note_on_c, 1, 79, 0
1, 36600, Note_on_c, 15, 79, 0
1, 36780, Note_on_c, 1, 72, 105
1, 36780, Note_on_c, 10, 72, 91
1, 36780, Note_on_c, 15, 72, 30
1, 37500, Note_on_c, 10, 72, 0
1, 37560, Note_on_c, 1, 72, 0
1, 38160, Note_on_c, 1, 72, 105
1, 38160, Note_on_c, 10, 72, 91
1, 38880, Note_on_c, 10, 72, 0
1, 39000, Note_on_c, 1, 72, 0
1, 44655, Note_on_c, 15, 72, 0
1, 44880, Note_on_c, 1, 84, 105
1, 44880, Note_on_c, 10, 84, 91
1, 44880, Note_on_c, 15, 84, 30
1, 45360, Note_on_c, 10, 84, 0
1, 45420, Note_on_c, 1, 84, 0
1, 45540, Note_on_c, 1, 84, 105
1, 45540, Note_on_c, 10, 84, 91
1, 45960, Note_on_c, 10, 84, 0
1, 46020, Note_on_c, 1, 84, 0
1, 46020, Note_on_c, 15, 84, 0
1, 46085, Note_on_c, 1, 79, 105
1, 46085, Note_on_c, 10, 79, 91
1, 46085, Note_on_c, 15, 79, 30
1, 46445, Note_on_c, 10, 79, 0
1, 46505, Note_on_c, 1, 79, 0
1, 46670, Note_on_c, 1, 79, 105
1, 46670, Note_on_c, 10, 79, 91
1, 47030, Note_on_c, 10, 79, 0
1, 47090, Note_on_c, 1, 79, 0
1, 47225, Note_on_c, 15, 79, 0
1, 47380, Note_on_c, 1, 72, 105
1, 47380, Note_on_c, 10, 72, 91
1, 47380, Note_on_c, 15, 72, 30
1, 47800, Note_on_c, 10, 72, 0
1, 47920, Note_on_c, 1, 72, 0
1, 48120, Note_on_c, 1, 72, 105
1, 48120, Note_on_c, 10, 72, 91
1, 48660, Note_on_c, 10, 72, 0
1, 48720, Note_on_c, 1, 72, 0
1, 54600, Note_on_c, 15, 72, 0
1, 54720, Note_on_c, 1, 84, 105
1, 54720, Note_on_c, 10, 84, 91
1, 55020, Note_on_c, 1, 84, 0
1, 55020, Note_on_c, 10, 84, 0
1, 55140, Note_on_c, 1, 84, 105
1, 55140, Note_on_c, 10, 84, 91
1, 55380, Note_on_c, 1, 84, 0
1, 55385, Note_on_c, 10, 84, 0
1, 55680, Note_on_c, 1, 79, 105
1, 55680, Note_on_c, 10, 79, 91
1, 55980, Note_on_c, 1, 79, 0
1, 55980, Note_on_c, 10, 79, 0
1, 56100, Note_on_c, 1, 79, 105
1, 56100, Note_on_c, 10, 79, 91
1, 56400, Note_on_c, 1, 79, 0
1, 56400, Note_on_c, 10, 79, 0
1, 56640, Note_on_c, 1, 72, 105
1, 56640, Note_on_c, 10, 72, 91
1, 56940, Note_on_c, 1, 72, 0
1, 56940, Note_on_c, 10, 72, 0
1, 57060, Note_on_c, 1, 72, 105
1, 57060, Note_on_c, 10, 72, 91
1, 57360, Note_on_c, 1, 72, 0
1, 57360, Note_on_c, 10, 72, 0
1, 57600, Note_on_c, 1, 84, 105
1, 57600, Note_on_c, 7, 24, 76
1, 57600, Note_on_c, 10, 84, 91
1, 57900, Note_on_c, 1, 84, 0
1, 57900, Note_on_c, 10, 84, 0
1, 58020, Note_on_c, 1, 84, 105
1, 58020, Note_on_c, 10, 84, 91
1, 58265, Note_on_c, 1, 84, 0
1, 58265, Note_on_c, 10, 84, 0
1, 58560, Note_on_c, 1, 79, 105
1, 58560, Note_on_c, 10, 79, 91
1, 58860, Note_on_c, 1, 79, 0
1, 58860, Note_on_c, 10, 79, 0
1, 58980, Note_on_c, 1, 79, 105
1, 58980, Note_on_c, 10, 79, 91
1, 59280, Note_on_c, 1, 79, 0
1, 59280, Note_on_c, 10, 79, 0
1, 59520, Note_on_c, 1, 72, 105
1, 59520, Note_on_c, 10, 72, 91
1, 59820, Note_on_c, 1, 72, 0
1, 59820, Note_on_c, 10, 72, 0
1, 59940, Note_on_c, 1, 72, 105
1, 59940, Note_on_c, 10, 72, 91
1, 60240, Note_on_c, 1, 72, 0
1, 60240, Note_on_c, 10, 72, 0
1, 60480, Note_on_c, 1, 84, 105
1, 60480, Note_on_c, 6, 24, 0
1, 60480, Note_on_c, 10, 84, 91
1, 60780, Note_on_c, 1, 84, 0
1, 60780, Note_on_c, 10, 84, 0
1, 60900, Note_on_c, 1, 84, 105
1, 60900, Note_on_c, 10, 84, 91
1, 61145, Note_on_c, 1, 84, 0
1, 61145, Note_on_c, 10, 84, 0
1, 61440, Note_on_c, 1, 79, 105
1, 61440, Note_on_c, 10, 79, 91
1, 61740, Note_on_c, 1, 79, 0
1, 61740, Note_on_c, 10, 79, 0
1, 61860, Note_on_c, 1, 79, 105
1, 61860, Note_on_c, 10, 79, 91
1, 62160, Note_on_c, 1, 79, 0
1, 62160, Note_on_c, 10, 79, 0
1, 62400, Note_on_c, 1, 72, 105
1, 62400, Note_on_c, 10, 72, 91
1, 62700, Note_on_c, 1, 72, 0
1, 62700, Note_on_c, 10, 72, 0
1, 62820, Note_on_c, 1, 72, 105
1, 62820, Note_on_c, 10, 72, 91
1, 63120, Note_on_c, 1, 72, 0
1, 63120, Note_on_c, 10, 72, 0
1, 63360, Note_on_c, 1, 84, 105
1, 63360, Note_on_c, 10, 84, 91
1, 63660, Note_on_c, 1, 84, 0
1, 63660, Note_on_c, 10, 84, 0
1, 63780, Note_on_c, 1, 84, 105
1, 63780, Note_on_c, 10, 84, 91
1, 64025, Note_on_c, 1, 84, 0
1, 64025, Note_on_c, 10, 84, 0
1, 64320, Note_on_c, 1, 79, 105
1, 64320, Note_on_c, 10, 79, 91
1, 64620, Note_on_c, 1, 79, 0
1, 64620, Note_on_c, 10, 79, 0
1, 64740, Note_on_c, 1, 79, 105
1, 64740, Note_on_c, 10, 79, 91
1, 65040, Note_on_c, 1, 79, 0
1, 65040, Note_on_c, 10, 79, 0
1, 65280, Note_on_c, 1, 72, 105
1, 65280, Note_on_c, 10, 72, 91
1, 65580, Note_on_c, 1, 72, 0
1, 65580, Note_on_c, 10, 72, 0
1, 65700, Note_on_c, 1, 72, 105
1, 65700, Note_on_c, 10, 72, 91
1, 66000, Note_on_c, 1, 72, 0
1, 66000, Note_on_c, 10, 72, 0
1, 66240, Note_on_c, 1, 84, 105
1, 66240, Note_on_c, 10, 84, 91
1, 66540, Note_on_c, 1, 84, 0
1, 66540, Note_on_c, 10, 84, 0
1, 66660, Note_on_c, 1, 84, 105
1, 66660, Note_on_c, 10, 84, 91
1, 66905, Note_on_c, 1, 84, 0
1, 66905, Note_on_c, 10, 84, 0
1, 67200, Note_on_c, 1, 77, 105
1, 67200, Note_on_c, 10, 77, 91
1, 67500, Note_on_c, 1, 77, 0
1, 67500, Note_on_c, 10, 77, 0
1, 67620, Note_on_c, 1, 77, 105
1, 67620, Note_on_c, 10, 77, 91
1, 67920, Note_on_c, 1, 77, 0
1, 67920, Note_on_c, 10, 77, 0
1, 68160, Note_on_c, 1, 72, 105
1, 68160, Note_on_c, 10, 72, 91
1, 68460, Note_on_c, 1, 72, 0
1, 68460, Note_on_c, 10, 72, 0
1, 68580, Note_on_c, 1, 72, 105
1, 68580, Note_on_c, 10, 72, 91
1, 68880, Note_on_c, 1, 72, 0
1, 68880, Note_on_c, 10, 72, 0
1, 69120, Note_on_c, 1, 84, 105
1, 69120, Note_on_c, 10, 84, 91
1, 69420, Note_on_c, 1, 84, 0
1, 69420, Note_on_c, 10, 84, 0
1, 69540, Note_on_c, 1, 84, 105
1, 69540, Note_on_c, 10, 84, 91
1, 69785, Note_on_c, 1, 84, 0
1, 69785, Note_on_c, 10, 84, 0
1, 70080, Note_on_c, 1, 77, 105
1, 70080, Note_on_c, 10, 77, 91
1, 70380, Note_on_c, 1, 77, 0
1, 70380, Note_on_c, 10, 77, 0
1, 70500, Note_on_c, 1, 77, 105
1, 70500, Note_on_c, 10, 77, 91
1, 70800, Note_on_c, 1, 77, 0
1, 70800, Note_on_c, 10, 77, 0
1, 71040, Note_on_c, 1, 72, 105
1, 71040, Note_on_c, 10, 72, 91
1, 71340, Note_on_c, 1, 72, 0
1, 71340, Note_on_c, 10, 72, 0
1, 71460, Note_on_c, 1, 72, 105
1, 71460, Note_on_c, 10, 72, 91
1, 71760, Note_on_c, 1, 72, 0
1, 71760, Note_on_c, 10, 72, 0
1, 72000, Note_on_c, 1, 84, 105
1, 72000, Note_on_c, 10, 84, 91
1, 72300, Note_on_c, 1, 84, 0
1, 72300, Note_on_c, 10, 84, 0
1, 72420, Note_on_c, 1, 84, 105
1, 72420, Note_on_c, 10, 84, 91
1, 72665, Note_on_c, 1, 84, 0
1, 72665, Note_on_c, 10, 84, 0
1, 72960, Note_on_c, 1, 77, 105
1, 72960, Note_on_c, 10, 77, 91
1, 73260, Note_on_c, 1, 77, 0
1, 73260, Note_on_c, 10, 77, 0
1, 73380, Note_on_c, 1, 77, 105
1, 73380, Note_on_c, 10, 77, 91
1, 73680, Note_on_c, 1, 77, 0
1, 73680, Note_on_c, 10, 77, 0
1, 73920, Note_on_c, 1, 72, 105
1, 73920, Note_on_c, 10, 72, 91
1, 74220, Note_on_c, 1, 72, 0
1, 74220, Note_on_c, 10, 72, 0
1, 74340, Note_on_c, 1, 72, 105
1, 74340, Note_on_c, 10, 72, 91
1, 74640, Note_on_c, 1, 72, 0
1, 74640, Note_on_c, 10, 72, 0
1, 74880, Note_on_c, 1, 84, 105
1, 74880, Note_on_c, 10, 84, 91
1, 75180, Note_on_c, 1, 84, 0
1, 75180, Note_on_c, 10, 84, 0
1, 75300, Note_on_c, 1, 84, 105
1, 75300, Note_on_c, 10, 84, 91
1, 75545, Note_on_c, 1, 84, 0
1, 75545, Note_on_c, 10, 84, 0
1, 75840, Note_on_c, 1, 77, 105
1, 75840, Note_on_c, 10, 77, 91
1, 76140, Note_on_c, 1, 77, 0
1, 76140, Note_on_c, 10, 77, 0
1, 76260, Note_on_c, 1, 77, 105
1, 76260, Note_on_c, 10, 77, 91
1, 76560, Note_on_c, 1, 77, 0
1, 76560, Note_on_c, 10, 77, 0
1, 76800, Note_on_c, 1, 72, 105
1, 76800, Note_on_c, 10, 72, 91
1, 77100, Note_on_c, 1, 72, 0
1, 77100, Note_on_c, 10, 72, 0
1, 77220, Note_on_c, 1, 72, 105
1, 77220, Note_on_c, 10, 72, 91
1, 77520, Note_on_c, 1, 72, 0
1, 77520, Note_on_c, 10, 72, 0
1, 77760, Note_on_c, 1, 82, 105
1, 77760, Note_on_c, 10, 82, 91
1, 78060, Note_on_c, 1, 82, 0
1, 78060, Note_on_c, 10, 82, 0
1, 78180, Note_on_c, 1, 82, 105
1, 78180, Note_on_c, 10, 82, 91
1, 78425, Note_on_c, 1, 82, 0
1, 78425, Note_on_c, 10, 82, 0
1, 78720, Note_on_c, 1, 77, 105
1, 78720, Note_on_c, 10, 77, 91
1, 79020, Note_on_c, 1, 77, 0
1, 79020, Note_on_c, 10, 77, 0
1, 79140, Note_on_c, 1, 77, 105
1, 79140, Note_on_c, 10, 77, 91
1, 79440, Note_on_c, 1, 77, 0
1, 79440, Note_on_c, 10, 77, 0
1, 79680, Note_on_c, 1, 72, 105
1, 79680, Note_on_c, 10, 72, 91
1, 79980, Note_on_c, 1, 72, 0
1, 79980, Note_on_c, 10, 72, 0
1, 80100, Note_on_c, 1, 72, 105
1, 80100, Note_on_c, 10, 72, 91
1, 80400, Note_on_c, 1, 72, 0
1, 80400, Note_on_c, 10, 72, 0
1, 80640, Note_on_c, 1, 82, 105
1, 80640, Note_on_c, 10, 82, 91
1, 80940, Note_on_c, 1, 82, 0
1, 80940, Note_on_c, 10, 82, 0
1, 81060, Note_on_c, 1, 82, 105
1, 81060, Note_on_c, 10, 82, 91
1, 81305, Note_on_c, 1, 82, 0
1, 81305, Note_on_c, 10, 82, 0
1, 81600, Note_on_c, 1, 77, 105
1, 81600, Note_on_c, 10, 77, 91
1, 81900, Note_on_c, 1, 77, 0
1, 81900, Note_on_c, 10, 77, 0
1, 82020, Note_on_c, 1, 77, 105
1, 82020, Note_on_c, 10, 77, 91
1, 82320, Note_on_c, 1, 77, 0
1, 82320, Note_on_c, 10, 77, 0
1, 82560, Note_on_c, 1, 72, 105
1, 82560, Note_on_c, 10, 72, 91
1, 82860, Note_on_c, 1, 72, 0
1, 82860, Note_on_c, 10, 72, 0
1, 82980, Note_on_c, 1, 72, 105
1, 82980, Note_on_c, 10, 72, 91
1, 83280, Note_on_c, 1, 72, 0
1, 83280, Note_on_c, 10, 72, 0
1, 83520, Note_on_c, 1, 82, 105
1, 83520, Note_on_c, 10, 82, 91
1, 83820, Note_on_c, 1, 82, 0
1, 83820, Note_on_c, 10, 82, 0
1, 83940, Note_on_c, 1, 82, 105
1, 83940, Note_on_c, 10, 82, 91
1, 84185, Note_on_c, 1, 82, 0
1, 84185, Note_on_c, 10, 82, 0
1, 84480, Note_on_c, 1, 77, 105
1, 84480, Note_on_c, 10, 77, 91
1, 84780, Note_on_c, 1, 77, 0
1, 84780, Note_on_c, 10, 77, 0
1, 84900, Note_on_c, 1, 77, 105
1, 84900, Note_on_c, 10, 77, 91
1, 85200, Note_on_c, 1, 77, 0
1, 85200, Note_on_c, 10, 77, 0
1, 85440, Note_on_c, 1, 72, 105
1, 85440, Note_on_c, 10, 72, 91
1, 85740, Note_on_c, 1, 72, 0
1, 85740, Note_on_c, 10, 72, 0
1, 85860, Note_on_c, 1, 72, 105
1, 85860, Note_on_c, 10, 72, 91
1, 86160, Note_on_c, 1, 72, 0
1, 86160, Note_on_c, 10, 72, 0
1, 86400, Note_on_c, 1, 82, 105
1, 86400, Note_on_c, 10, 82, 91
1, 86700, Note_on_c, 1, 82, 0
1, 86700, Note_on_c, 10, 82, 0
1, 86820, Note_on_c, 1, 82, 105
1, 86820, Note_on_c, 10, 82, 91
1, 87065, Note_on_c, 1, 82, 0
1, 87065, Note_on_c, 10, 82, 0
1, 87360, Note_on_c, 1, 77, 105
1, 87360, Note_on_c, 10, 77, 91
1, 87660, Note_on_c, 1, 77, 0
1, 87660, Note_on_c, 10, 77, 0
1, 87780, Note_on_c, 1, 77, 105
1, 87780, Note_on_c, 10, 77, 91
1, 88080, Note_on_c, 1, 77, 0
1, 88080, Note_on_c, 10, 77, 0
1, 88320, Note_on_c, 1, 72, 105
1, 88320, Note_on_c, 10, 72, 91
1, 88620, Note_on_c, 1, 72, 0
1, 88620, Note_on_c, 10, 72, 0
1, 88740, Note_on_c, 1, 72, 105
1, 88740, Note_on_c, 10, 72, 91
1, 89040, Note_on_c, 1, 72, 0
1, 89040, Note_on_c, 10, 72, 0
1, 89280, Note_on_c, 1, 81, 105
1, 89280, Note_on_c, 10, 81, 91
1, 89580, Note_on_c, 1, 81, 0
1, 89580, Note_on_c, 10, 81, 0
1, 89700, Note_on_c, 1, 81, 105
1, 89700, Note_on_c, 10, 81, 91
1, 89945, Note_on_c, 1, 81, 0
1, 89945, Note_on_c, 10, 81, 0
1, 90240, Note_on_c, 1, 77, 105
1, 90240, Note_on_c, 10, 77, 91
1, 90540, Note_on_c, 1, 77, 0
1, 90540, Note_on_c, 10, 77, 0
1, 90660, Note_on_c, 1, 77, 105
1, 90660, Note_on_c, 10, 77, 91
1, 90960, Note_on_c, 1, 77, 0
1, 90960, Note_on_c, 10, 77, 0
1, 91200, Note_on_c, 1, 72, 105
1, 91200, Note_on_c, 10, 72, 91
1, 91500, Note_on_c, 1, 72, 0
1, 91500, Note_on_c, 10, 72, 0
1, 91620, Note_on_c, 1, 72, 105
1, 91620, Note_on_c, 10, 72, 91
1, 91920, Note_on_c, 1, 72, 0
1, 91920, Note_on_c, 10, 72, 0
1, 92160, Note_on_c, 1, 81, 105
1, 92160, Note_on_c, 10, 81, 91
1, 92460, Note_on_c, 1, 81, 0
1, 92460, Note_on_c, 10, 81, 0
1, 92580, Note_on_c, 1, 81, 105
1, 92580, Note_on_c, 10, 81, 91
1, 92825, Note_on_c, 1, 81, 0
1, 92825, Note_on_c, 10, 81, 0
1, 93120, Note_on_c, 1, 77, 105
1, 93120, Note_on_c, 10, 77, 91
1, 93420, Note_on_c, 1, 77, 0
1, 93420, Note_on_c, 10, 77, 0
1, 93540, Note_on_c, 1, 77, 105
1, 93540, Note_on_c, 10, 77, 91
1, 93840, Note_on_c, 1, 77, 0
1, 93840, Note_on_c, 10, 77, 0
1, 94080, Note_on_c, 1, 72, 105
1, 94080, Note_on_c, 10, 72, 91
1, 94380, Note_on_c, 1, 72, 0
1, 94380, Note_on_c, 10, 72, 0
1, 94500, Note_on_c, 1, 72, 105
1, 94500, Note_on_c, 10, 72, 91
1, 94800, Note_on_c, 1, 72, 0
1, 94800, Note_on_c, 10, 72, 0
1, 95040, Note_on_c, 1, 81, 105
1, 95040, Note_on_c, 10, 81, 91
1, 95340, Note_on_c, 1, 81, 0
1, 95340, Note_on_c, 10, 81, 0
1, 95460, Note_on_c, 1, 81, 105
1, 95460, Note_on_c, 10, 81, 91
1, 95705, Note_on_c, 1, 81, 0
1, 95705, Note_on_c, 10, 81, 0
1, 96000, Note_on_c, 1, 77, 105
1, 96000, Note_on_c, 10, 77, 91
1, 96300, Note_on_c, 1, 77, 0
1, 96300, Note_on_c, 10, 77, 0
1, 96420, Note_on_c, 1, 77, 105
1, 96420, Note_on_c, 10, 77, 91
1, 96720, Note_on_c, 1, 77, 0
1, 96720, Note_on_c, 10, 77, 0
1, 96960, Note_on_c, 1, 72, 105
1, 96960, Note_on_c, 10, 72, 91
1, 97260, Note_on_c, 1, 72, 0
1, 97260, Note_on_c, 10, 72, 0
1, 97380, Note_on_c, 1, 72, 105
1, 97380, Note_on_c, 10, 72, 91
1, 97680, Note_on_c, 1, 72, 0
1, 97680, Note_on_c, 10, 72, 0
1, 97920, Note_on_c, 1, 81, 105
1, 97920, Note_on_c, 10, 81, 91
1, 98220, Note_on_c, 1, 81, 0
1, 98220, Note_on_c, 10, 81, 0
1, 98340, Note_on_c, 1, 81, 105
1, 98340, Note_on_c, 10, 81, 91
1, 98585, Note_on_c, 1, 81, 0
1, 98585, Note_on_c, 10, 81, 0
1, 98880, Note_on_c, 1, 77, 105
1, 98880, Note_on_c, 10, 77, 91
1, 99180, Note_on_c, 1, 77, 0
1, 99180, Note_on_c, 10, 77, 0
1, 99300, Note_on_c, 1, 77, 105
1, 99300, Note_on_c, 10, 77, 91
1, 99600, Note_on_c, 1, 77, 0
1, 99600, Note_on_c, 10, 77, 0
1, 99840, Note_on_c, 1, 72, 105
1, 99840, Note_on_c, 10, 72, 91
1, 100140, Note_on_c, 1, 72, 0
1, 100140, Note_on_c, 10, 72, 0
1, 100260, Note_on_c, 1, 72, 105
1, 100260, Note_on_c, 10, 72, 91
1, 100560, Note_on_c, 1, 72, 0
1, 100560, Note_on_c, 10, 72, 0
1, 100800, Note_on_c, 1, 84, 105
1, 100800, Note_on_c, 3, 72, 81
1, 100800, Note_on_c, 10, 84, 91
1, 101100, Note_on_c, 1, 84, 0
1, 101100, Note_on_c, 10, 84, 0
1, 101220, Note_on_c, 1, 84, 105
1, 101220, Note_on_c, 10, 84, 91
1, 101465, Note_on_c, 1, 84, 0
1, 101465, Note_on_c, 10, 84, 0
1, 101760, Note_on_c, 1, 79, 105
1, 101760, Note_on_c, 10, 79, 91
1, 102060, Note_on_c, 1, 79, 0
1, 102060, Note_on_c, 10, 79, 0
1, 102180, Note_on_c, 1, 79, 105
1, 102180, Note_on_c, 10, 79, 91
1, 102480, Note_on_c, 1, 79, 0
1, 102480, Note_on_c, 10, 79, 0
1, 102720, Note_on_c, 1, 72, 105
1, 102720, Note_on_c, 3, 67, 81
1, 102720, Note_on_c, 3, 72, 0
1, 102720, Note_on_c, 10, 72, 91
1, 103020, Note_on_c, 1, 72, 0
1, 103020, Note_on_c, 10, 72, 0
1, 103140, Note_on_c, 1, 72, 105
1, 103140, Note_on_c, 10, 72, 91
1, 103440, Note_on_c, 1, 72, 0
1, 103440, Note_on_c, 10, 72, 0
1, 103680, Note_on_c, 1, 84, 105
1, 103680, Note_on_c, 10, 84, 91
1, 103980, Note_on_c, 1, 84, 0
1, 103980, Note_on_c, 10, 84, 0
1, 104100, Note_on_c, 1, 84, 105
1, 104100, Note_on_c, 10, 84, 91
1, 104345, Note_on_c, 1, 84, 0
1, 104345, Note_on_c, 10, 84, 0
1, 104640, Note_on_c, 1, 79, 105
1, 104640, Note_on_c, 10, 79, 91
1, 104820, Note_on_c, 3, 76, 81
1, 104940, Note_on_c, 1, 79, 0
1, 104940, Note_on_c, 10, 79, 0
1, 105060, Note_on_c, 1, 79, 105
1, 105060, Note_on_c, 10, 79, 91
1, 105240, Note_on_c, 3, 67, 0
1, 105360, Note_on_c, 1, 79, 0
1, 105360, Note_on_c, 10, 79, 0
1, 105600, Note_on_c, 1, 72, 105
1, 105600, Note_on_c, 10, 72, 91
1, 105780, Note_on_c, 3, 76, 0
1, 105840, Note_on_c, 3, 74, 81
1, 105900, Note_on_c, 1, 72, 0
1, 105900, Note_on_c, 10, 72, 0
1, 106020, Note_on_c, 1, 72, 105
1, 106020, Note_on_c, 10, 72, 91
1, 106320, Note_on_c, 1, 72, 0
1, 106320, Note_on_c, 10, 72, 0
1, 106560, Note_on_c, 1, 84, 105
1, 106560, Note_on_c, 10, 84, 91
1, 106800, Note_on_c, 3, 74, 0
1, 106860, Note_on_c, 1, 84, 0
1, 106860, Note_on_c, 10, 84, 0
1, 106880, Note_on_c, 3, 76, 81
1, 106980, Note_on_c, 1, 84, 105
1, 106980, Note_on_c, 10, 84, 91
1, 107225, Note_on_c, 1, 84, 0
1, 107225, Note_on_c, 10, 84, 0
1, 107520, Note_on_c, 1, 79, 105
1, 107520, Note_on_c, 10, 79, 91
1, 107820, Note_on_c, 1, 79, 0
1, 107820, Note_on_c, 10, 79, 0
1, 107940, Note_on_c, 1, 79, 105
1, 107940, Note_on_c, 10, 79, 91
1, 108240, Note_on_c, 1, 79, 0
1, 108240, Note_on_c, 10, 79, 0
1, 108480, Note_on_c, 1, 72, 105
1, 108480, Note_on_c, 10, 72, 91
1, 108780, Note_on_c, 1, 72, 0
1, 108780, Note_on_c, 10, 72, 0
1, 108900, Note_on_c, 1, 72, 105
1, 108900, Note_on_c, 10, 72, 91
1, 109200, Note_on_c, 1, 72, 0
1, 109200, Note_on_c, 10, 72, 0
1, 109440, Note_on_c, 1, 84, 105
1, 109440, Note_on_c, 10, 84, 91
1, 109740, Note_on_c, 1, 84, 0
1, 109740, Note_on_c, 10, 84, 0
1, 109755, Note_on_c, 3, 76, 0
1, 109760, Note_on_c, 3, 72, 86
1, 109860, Note_on_c, 1, 84, 105
1, 109860, Note_on_c, 10, 84, 91
1, 110105, Note_on_c, 1, 84, 0
1, 110105, Note_on_c, 10, 84, 0
1, 110400, Note_on_c, 1, 79, 105
1, 110400, Note_on_c, 10, 79, 91
1, 110700, Note_on_c, 1, 79, 0
1, 110700, Note_on_c, 10, 79, 0
1, 110820, Note_on_c, 1, 79, 105
1, 110820, Note_on_c, 10, 79, 91
1, 111120, Note_on_c, 1, 79, 0
1, 111120, Note_on_c, 10, 79, 0
1, 111360, Note_on_c, 1, 72, 105
1, 111360, Note_on_c, 10, 72, 91
1, 111660, Note_on_c, 1, 72, 0
1, 111660, Note_on_c, 10, 72, 0
1, 111780, Note_on_c, 1, 72, 105
1, 111780, Note_on_c, 10, 72, 91
1, 112080, Note_on_c, 1, 72, 0
1, 112080, Note_on_c, 10, 72, 0
1, 112320, Note_on_c, 1, 84, 105
1, 112320, Note_on_c, 6, 24, 76
1, 112320, Note_on_c, 10, 84, 91
1, 112620, Note_on_c, 1, 84, 0
1, 112620, Note_on_c, 10, 84, 0
1, 112740, Note_on_c, 1, 84, 105
1, 112740, Note_on_c, 10, 84, 91
1, 112985, Note_on_c, 1, 84, 0
1, 112985, Note_on_c, 10, 84, 0
1, 113280, Note_on_c, 1, 77, 105
1, 113280, Note_on_c, 10, 77, 91
1, 113580, Note_on_c, 1, 77, 0
1, 113580, Note_on_c, 10, 77, 0
1, 113700, Note_on_c, 1, 77, 105
1, 113700, Note_on_c, 10, 77, 91
1, 113915, Note_on_c, 3, 72, 0
1, 114000, Note_on_c, 1, 77, 0
1, 114000, Note_on_c, 10, 77, 0
1, 114240, Note_on_c, 1, 72, 105
1, 114240, Note_on_c, 3, 65, 81
1, 114240, Note_on_c, 10, 72, 91
1, 114540, Note_on_c, 1, 72, 0
1, 114540, Note_on_c, 10, 72, 0
1, 114660, Note_on_c, 1, 72, 105
1, 114660, Note_on_c, 10, 72, 91
1, 114960, Note_on_c, 1, 72, 0
1, 114960, Note_on_c, 10, 72, 0
1, 115200, Note_on_c, 1, 84, 105
1, 115200, Note_on_c, 7, 24, 0
1, 115200, Note_on_c, 10, 84, 91
1, 115500, Note_on_c, 1, 84, 0
1, 115500, Note_on_c, 10, 84, 0
1, 115620, Note_on_c, 1, 84, 105
1, 115620, Note_on_c, 10, 84, 91
1, 115865, Note_on_c, 1, 84, 0
1, 115865, Note_on_c, 10, 84, 0
1, 116160, Note_on_c, 1, 77, 105
1, 116160, Note_on_c, 3, 77, 81
1, 116160, Note_on_c, 3, 65, 0
1, 116160, Note_on_c, 10, 77, 91
1, 116460, Note_on_c, 1, 77, 0
1, 116460, Note_on_c, 10, 77, 0
1, 116580, Note_on_c, 1, 77, 105
1, 116580, Note_on_c, 10, 77, 91
1, 116880, Note_on_c, 1, 77, 0
1, 116880, Note_on_c, 10, 77, 0
1, 117120, Note_on_c, 1, 72, 105
1, 117120, Note_on_c, 10, 72, 91
1, 117240, Note_on_c, 3, 77, 0
1, 117300, Note_on_c, 3, 76, 81
1, 117420, Note_on_c, 1, 72, 0
1, 117420, Note_on_c, 10, 72, 0
1, 117540, Note_on_c, 1, 72, 105
1, 117540, Note_on_c, 10, 72, 91
1, 117840, Note_on_c, 1, 72, 0
1, 117840, Note_on_c, 10, 72, 0
1, 118080, Note_on_c, 1, 84, 105
1, 118080, Note_on_c, 10, 84, 91
1, 118335, Note_on_c, 3, 76, 0
1, 118380, Note_on_c, 1, 84, 0
1, 118380, Note_on_c, 10, 84, 0
1, 118400, Note_on_c, 3, 77, 81
1, 118500, Note_on_c, 1, 84, 105
1, 118500, Note_on_c, 10, 84, 91
1, 118745, Note_on_c, 1, 84, 0
1, 118745, Note_on_c, 10, 84, 0
1, 119040, Note_on_c, 1, 77, 105
1, 119040, Note_on_c, 10, 77, 91
1, 119340, Note_on_c, 1, 77, 0
1, 119340, Note_on_c, 10, 77, 0
1, 119460, Note_on_c, 1, 77, 105
1, 119460, Note_on_c, 10, 77, 91
1, 119760, Note_on_c, 1, 77, 0
1, 119760, Note_on_c, 10, 77, 0
1, 120000, Note_on_c, 1, 72, 105
1, 120000, Note_on_c, 10, 72, 91
1, 120300, Note_on_c, 1, 72, 0
1, 120300, Note_on_c, 10, 72, 0
1, 120420, Note_on_c, 1, 72, 105
1, 120420, Note_on_c, 10, 72, 91
1, 120720, Note_on_c, 1, 72, 0
1, 120720, Note_on_c, 10, 72, 0
1, 120960, Note_on_c, 1, 84, 105
1, 120960, Note_on_c, 10, 84, 91
1, 121260, Note_on_c, 1, 84, 0
1, 121260, Note_on_c, 10, 84, 0
1, 121380, Note_on_c, 1, 84, 105
1, 121380, Note_on_c, 10, 84, 91
1, 121625, Note_on_c, 1, 84, 0
1, 121625, Note_on_c, 10, 84, 0
1, 121920, Note_on_c, 1, 77, 105
1, 121920, Note_on_c, 10, 77, 91
1, 122220, Note_on_c, 1, 77, 0
1, 122220, Note_on_c, 10, 77, 0
1, 122340, Note_on_c, 1, 77, 105
1, 122340, Note_on_c, 10, 77, 91
1, 122640, Note_on_c, 1, 77, 0
1, 122640, Note_on_c, 10, 77, 0
1, 122880, Note_on_c, 1, 72, 105
1, 122880, Note_on_c, 10, 72, 91
1, 123180, Note_on_c, 1, 72, 0
1, 123180, Note_on_c, 10, 72, 0
1, 123300, Note_on_c, 1, 72, 105
1, 123300, Note_on_c, 10, 72, 91
1, 123600, Note_on_c, 1, 72, 0
1, 123600, Note_on_c, 10, 72, 0
1, 123840, Note_on_c, 1, 82, 105
1, 123840, Note_on_c, 10, 82, 91
1, 124140, Note_on_c, 1, 82, 0
1, 124140, Note_on_c, 10, 82, 0
1, 124260, Note_on_c, 1, 82, 105
1, 124260, Note_on_c, 10, 82, 91
1, 124505, Note_on_c, 1, 82, 0
1, 124505, Note_on_c, 10, 82, 0
1, 124800, Note_on_c, 1, 77, 105
1, 124800, Note_on_c, 10, 77, 91
1, 125100, Note_on_c, 1, 77, 0
1, 125100, Note_on_c, 10, 77, 0
1, 125220, Note_on_c, 1, 77, 105
1, 125220, Note_on_c, 10, 77, 91
1, 125480, Note_on_c, 3, 77, 0
1, 125520, Note_on_c, 1, 77, 0
1, 125520, Note_on_c, 10, 77, 0
1, 125760, Note_on_c, 1, 72, 105
1, 125760, Note_on_c, 3, 82, 81
1, 125760, Note_on_c, 10, 72, 91
1, 126060, Note_on_c, 1, 72, 0
1, 126060, Note_on_c, 10, 72, 0
1, 126180, Note_on_c, 1, 72, 105
1, 126180, Note_on_c, 10, 72, 91
1, 126480, Note_on_c, 1, 72, 0
1, 126480, Note_on_c, 10, 72, 0
1, 126720, Note_on_c, 1, 82, 105
1, 126720, Note_on_c, 10, 82, 91
1, 126840, Note_on_c, 3, 82, 0
1, 126900, Note_on_c, 3, 81, 81
1, 127020, Note_on_c, 1, 82, 0
1, 127020, Note_on_c, 10, 82, 0
1, 127140, Note_on_c, 1, 82, 105
1, 127140, Note_on_c, 10, 82, 91
1, 127385, Note_on_c, 1, 82, 0
1, 127385, Note_on_c, 10, 82, 0
1, 127680, Note_on_c, 1, 77, 105
1, 127680, Note_on_c, 10, 77, 91
1, 127980, Note_on_c, 1, 77, 0
1, 127980, Note_on_c, 10, 77, 0
1, 128040, Note_on_c, 3, 81, 0
1, 128100, Note_on_c, 1, 77, 105
1, 128100, Note_on_c, 3, 77, 81
1, 128100, Note_on_c, 10, 77, 91
1, 128400, Note_on_c, 1, 77, 0
1, 128400, Note_on_c, 10, 77, 0
1, 128640, Note_on_c, 1, 72, 105
1, 128640, Note_on_c, 10, 72, 91
1, 128940, Note_on_c, 1, 72, 0
1, 128940, Note_on_c, 10, 72, 0
1, 129060, Note_on_c, 1, 72, 105
1, 129060, Note_on_c, 10, 72, 91
1, 129360, Note_on_c, 1, 72, 0
1, 129360, Note_on_c, 3, 70, 81
1, 129360, Note_on_c, 3, 77, 0
1, 129360, Note_on_c, 10, 72, 0
1, 129600, Note_on_c, 1, 82, 105
1, 129600, Note_on_c, 10, 82, 91
1, 129900, Note_on_c, 1, 82, 0
1, 129900, Note_on_c, 10, 82, 0
1, 130020, Note_on_c, 1, 82, 105
1, 130020, Note_on_c, 10, 82, 91
1, 130265, Note_on_c, 1, 82, 0
1, 130265, Note_on_c, 10, 82, 0
1, 130560, Note_on_c, 1, 77, 105
1, 130560, Note_on_c, 10, 77, 91
1, 130860, Note_on_c, 1, 77, 0
1, 130860, Note_on_c, 10, 77, 0
1, 130980, Note_on_c, 1, 77, 105
1, 130980, Note_on_c, 10, 77, 91
1, 131280, Note_on_c, 1, 77, 0
1, 131280, Note_on_c, 10, 77, 0
1, 131520, Note_on_c, 1, 72, 105
1, 131520, Note_on_c, 10, 72, 91
1, 131820, Note_on_c, 1, 72, 0
1, 131820, Note_on_c, 10, 72, 0
1, 131940, Note_on_c, 1, 72, 105
1, 131940, Note_on_c, 10, 72, 91
1, 132240, Note_on_c, 1, 72, 0
1, 132240, Note_on_c, 10, 72, 0
1, 132480, Note_on_c, 1, 82, 105
1, 132480, Note_on_c, 10, 82, 91
1, 132780, Note_on_c, 1, 82, 0
1, 132780, Note_on_c, 10, 82, 0
1, 132900, Note_on_c, 1, 82, 105
1, 132900, Note_on_c, 10, 82, 91
1, 133145, Note_on_c, 1, 82, 0
1, 133145, Note_on_c, 10, 82, 0
1, 133440, Note_on_c, 1, 77, 105
1, 133440, Note_on_c, 3, 72, 81
1, 133440, Note_on_c, 10, 77, 91
1, 133560, Note_on_c, 3, 70, 0
1, 133740, Note_on_c, 1, 77, 0
1, 133740, Note_on_c, 10, 77, 0
1, 133860, Note_on_c, 1, 77, 105
1, 133860, Note_on_c, 10, 77, 91
1, 134160, Note_on_c, 1, 77, 0
1, 134160, Note_on_c, 10, 77, 0
1, 134400, Note_on_c, 1, 72, 105
1, 134400, Note_on_c, 10, 72, 91
1, 134700, Note_on_c, 1, 72, 0
1, 134700, Note_on_c, 10, 72, 0
1, 134820, Note_on_c, 1, 72, 105
1, 134820, Note_on_c, 10, 72, 91
1, 135120, Note_on_c, 1, 72, 0
1, 135120, Note_on_c, 10, 72, 0
1, 135360, Note_on_c, 1, 81, 105
1, 135360, Note_on_c, 10, 81, 91
1, 135660, Note_on_c, 1, 81, 0
1, 135660, Note_on_c, 10, 81, 0
1, 135780, Note_on_c, 1, 81, 105
1, 135780, Note_on_c, 10, 81, 91
1, 136025, Note_on_c, 1, 81, 0
1, 136025, Note_on_c, 10, 81, 0
1, 136320, Note_on_c, 1, 77, 105
1, 136320, Note_on_c, 10, 77, 91
1, 136620, Note_on_c, 1, 77, 0
1, 136620, Note_on_c, 10, 77, 0
1, 136740, Note_on_c, 1, 77, 105
1, 136740, Note_on_c, 10, 77, 91
1, 137040, Note_on_c, 1, 77, 0
1, 137040, Note_on_c, 10, 77, 0
1, 137220, Note_on_c, 3, 72, 0
1, 137280, Note_on_c, 1, 72, 105
1, 137280, Note_on_c, 3, 69, 64
1, 137280, Note_on_c, 10, 72, 91
1, 137580, Note_on_c, 1, 72, 0
1, 137580, Note_on_c, 10, 72, 0
1, 137700, Note_on_c, 1, 72, 105
1, 137700, Note_on_c, 10, 72, 91
1, 138000, Note_on_c, 1, 72, 0
1, 138000, Note_on_c, 10, 72, 0
1, 138240, Note_on_c, 1, 81, 105
1, 138240, Note_on_c, 10, 81, 91
1, 138540, Note_on_c, 1, 81, 0
1, 138540, Note_on_c, 10, 81, 0
1, 138660, Note_on_c, 1, 81, 105
1, 138660, Note_on_c, 10, 81, 91
1, 138905, Note_on_c, 1, 81, 0
1, 138905, Note_on_c, 10, 81, 0
1, 139200, Note_on_c, 1, 77, 105
1, 139200, Note_on_c, 3, 65, 64
1, 139200, Note_on_c, 3, 69, 0
1, 139200, Note_on_c, 10, 77, 91
1, 139500, Note_on_c, 1, 77, 0
1, 139500, Note_on_c, 10, 77, 0
1, 139620, Note_on_c, 1, 77, 105
1, 139620, Note_on_c, 10, 77, 91
1, 139920, Note_on_c, 1, 77, 0
1, 139920, Note_on_c, 10, 77, 0
1, 140160, Note_on_c, 1, 72, 105
1, 140160, Note_on_c, 10, 72, 91
1, 140400, Note_on_c, 3, 72, 64
1, 140400, Note_on_c, 3, 65, 0
1, 140460, Note_on_c, 1, 72, 0
1, 140460, Note_on_c, 10, 72, 0
1, 140580, Note_on_c, 1, 72, 105
1, 140580, Note_on_c, 10, 72, 91
1, 140880, Note_on_c, 1, 72, 0
1, 140880, Note_on_c, 10, 72, 0
1, 141120, Note_on_c, 1, 81, 105
1, 141120, Note_on_c, 10, 81, 91
1, 141420, Note_on_c, 1, 81, 0
1, 141420, Note_on_c, 10, 81, 0
1, 141540, Note_on_c, 1, 81, 105
1, 141540, Note_on_c, 10, 81, 91
1, 141785, Note_on_c, 1, 81, 0
1, 141785, Note_on_c, 10, 81, 0
1, 142080, Note_on_c, 1, 77, 105
1, 142080, Note_on_c, 10, 77, 91
1, 142380, Note_on_c, 1, 77, 0
1, 142380, Note_on_c, 10, 77, 0
1, 142475, Note_on_c, 3, 72, 0
1, 142480, Note_on_c, 3, 77, 81
1, 142500, Note_on_c, 1, 77, 105
1, 142500, Note_on_c, 10, 77, 91
1, 142800, Note_on_c, 1, 77, 0
1, 142800, Note_on_c, 10, 77, 0
1, 143040, Note_on_c, 1, 72, 105
1, 143040, Note_on_c, 10, 72, 91
1, 143340, Note_on_c, 1, 72, 0
1, 143340, Note_on_c, 10, 72, 0
1, 143460, Note_on_c, 1, 72, 105
1, 143460, Note_on_c, 10, 72, 91
1, 143760, Note_on_c, 1, 72, 0
1, 143760, Note_on_c, 10, 72, 0
1, 144000, Note_on_c, 1, 81, 105
1, 144000, Note_on_c, 10, 81, 91
1, 144300, Note_on_c, 1, 81, 0
1, 144300, Note_on_c, 10, 81, 0
1, 144420, Note_on_c, 1, 81, 105
1, 144420, Note_on_c, 10, 81, 91
1, 144665, Note_on_c, 1, 81, 0
1, 144665, Note_on_c, 10, 81, 0
1, 144960, Note_on_c, 1, 77, 105
1, 144960, Note_on_c, 10, 77, 91
1, 145260, Note_on_c, 1, 77, 0
1, 145260, Note_on_c, 10, 77, 0
1, 145380, Note_on_c, 1, 77, 105
1, 145380, Note_on_c, 10, 77, 91
1, 145680, Note_on_c, 1, 77, 0
1, 145680, Note_on_c, 10, 77, 0
1, 145920, Note_on_c, 1, 72, 105
1, 145920, Note_on_c, 10, 72, 91
1, 146220, Note_on_c, 1, 72, 0
1, 146220, Note_on_c, 10, 72, 0
1, 146340, Note_on_c, 1, 72, 105
1, 146340, Note_on_c, 10, 72, 91
1, 146640, Note_on_c, 1, 72, 0
1, 146640, Note_on_c, 10, 72, 0
1, 146880, Note_on_c, 1, 84, 105
1, 146880, Note_on_c, 2, 43, 86
1, 146880, Note_on_c, 10, 84, 91
1, 146880, Note_on_c, 12, 43, 102
1, 147180, Note_on_c, 1, 84, 0
1, 147180, Note_on_c, 10, 84, 0
1, 147300, Note_on_c, 1, 84, 105
1, 147300, Note_on_c, 10, 84, 91
1, 147515, Note_on_c, 3, 77, 0
1, 147545, Note_on_c, 1, 84, 0
1, 147545, Note_on_c, 10, 84, 0
1, 147660, Note_on_c, 3, 76, 81
1, 147840, Note_on_c, 1, 79, 105
1, 147840, Note_on_c, 10, 79, 91
1, 148140, Note_on_c, 1, 79, 0
1, 148140, Note_on_c, 10, 79, 0
1, 148260, Note_on_c, 1, 79, 105
1, 148260, Note_on_c, 10, 79, 91
1, 148560, Note_on_c, 1, 79, 0
1, 148560, Note_on_c, 3, 76, 0
1, 148560, Note_on_c, 10, 79, 0
1, 148680, Note_on_c, 3, 77, 81
1, 148680, Note_on_c, 12, 43, 0
1, 148800, Note_on_c, 1, 72, 105
1, 148800, Note_on_c, 2, 48, 86
1, 148800, Note_on_c, 2, 43, 0
1, 148800, Note_on_c, 10, 72, 91
1, 148800, Note_on_c, 12, 48, 102
1, 149100, Note_on_c, 1, 72, 0
1, 149100, Note_on_c, 10, 72, 0
1, 149220, Note_on_c, 1, 72, 105
1, 149220, Note_on_c, 10, 72, 91
1, 149520, Note_on_c, 1, 72, 0
1, 149520, Note_on_c, 10, 72, 0
1, 149640, Note_on_c, 3, 79, 81
1, 149640, Note_on_c, 3, 77, 0
1, 149760, Note_on_c, 1, 84, 105
1, 149760, Note_on_c, 10, 84, 91
1, 150060, Note_on_c, 1, 84, 0
1, 150060, Note_on_c, 10, 84, 0
1, 150180, Note_on_c, 1, 84, 105
1, 150180, Note_on_c, 10, 84, 91
1, 150425, Note_on_c, 1, 84, 0
1, 150425, Note_on_c, 10, 84, 0
1, 150720, Note_on_c, 1, 79, 105
1, 150720, Note_on_c, 10, 79, 91
1, 151020, Note_on_c, 1, 79, 0
1, 151020, Note_on_c, 10, 79, 0
1, 151140, Note_on_c, 1, 79, 105
1, 151140, Note_on_c, 10, 79, 91
1, 151200, Note_on_c, 3, 72, 81
1, 151200, Note_on_c, 3, 79, 0
1, 151440, Note_on_c, 1, 79, 0
1, 151440, Note_on_c, 10, 79, 0
1, 151680, Note_on_c, 1, 72, 105
1, 151680, Note_on_c, 10, 72, 91
1, 151980, Note_on_c, 1, 72, 0
1, 151980, Note_on_c, 10, 72, 0
1, 152100, Note_on_c, 1, 72, 105
1, 152100, Note_on_c, 10, 72, 91
1, 152400, Note_on_c, 1, 72, 0
1, 152400, Note_on_c, 10, 72, 0
1, 152640, Note_on_c, 1, 84, 105
1, 152640, Note_on_c, 3, 67, 81
1, 152640, Note_on_c, 10, 84, 91
1, 152645, Note_on_c, 3, 72, 0
1, 152940, Note_on_c, 1, 84, 0
1, 152940, Note_on_c, 10, 84, 0
1, 153060, Note_on_c, 1, 84, 105
1, 153060, Note_on_c, 10, 84, 91
1, 153305, Note_on_c, 1, 84, 0
1, 153305, Note_on_c, 10, 84, 0
1, 153600, Note_on_c, 1, 79, 105
1, 153600, Note_on_c, 3, 76, 81
1, 153600, Note_on_c, 3, 67, 0
1, 153600, Note_on_c, 10, 79, 91
1, 153900, Note_on_c, 1, 79, 0
1, 153900, Note_on_c, 10, 79, 0
1, 154020, Note_on_c, 1, 79, 105
1, 154020, Note_on_c, 10, 79, 91
1, 154320, Note_on_c, 1, 79, 0
1, 154320, Note_on_c, 10, 79, 0
1, 154560, Note_on_c, 1, 72, 105
1, 154560, Note_on_c, 3, 74, 81
1, 154560, Note_on_c, 3, 76, 0
1, 154560, Note_on_c, 10, 72, 91
1, 154860, Note_on_c, 1, 72, 0
1, 154860, Note_on_c, 10, 72, 0
1, 154980, Note_on_c, 1, 72, 105
1, 154980, Note_on_c, 10, 72, 91
1, 155280, Note_on_c, 1, 72, 0
1, 155280, Note_on_c, 10, 72, 0
1, 155520, Note_on_c, 1, 84, 105
1, 155520, Note_on_c, 3, 76, 81
1, 155520, Note_on_c, 3, 74, 0
1, 155520, Note_on_c, 10, 84, 91
1, 155820, Note_on_c, 1, 84, 0
1, 155820, Note_on_c, 10, 84, 0
1, 155940, Note_on_c, 1, 84, 105
1, 155940, Note_on_c, 10, 84, 91
1, 156185, Note_on_c, 1, 84, 0
1, 156185, Note_on_c, 10, 84, 0
1, 156480, Note_on_c, 1, 79, 105
1, 156480, Note_on_c, 10, 79, 91
1, 156780, Note_on_c, 1, 79, 0
1, 156780, Note_on_c, 10, 79, 0
1, 156900, Note_on_c, 1, 79, 105
1, 156900, Note_on_c, 10, 79, 91
1, 157200, Note_on_c, 1, 79, 0
1, 157200, Note_on_c, 10, 79, 0
1, 157440, Note_on_c, 1, 72, 105
1, 157440, Note_on_c, 10, 72, 91
1, 157740, Note_on_c, 1, 72, 0
1, 157740, Note_on_c, 10, 72, 0
1, 157860, Note_on_c, 1, 72, 105
1, 157860, Note_on_c, 10, 72, 91
1, 158160, Note_on_c, 1, 72, 0
1, 158160, Note_on_c, 2, 48, 0
1, 158160, Note_on_c, 10, 72, 0
1, 158220, Note_on_c, 12, 48, 0
1, 158400, Note_on_c, 1, 84, 105
1, 158400, Note_on_c, 2, 41, 86
1, 158400, Note_on_c, 3, 77, 81
1, 158400, Note_on_c, 3, 76, 0
1, 158400, Note_on_c, 10, 84, 91
1, 158400, Note_on_c, 12, 41, 102
1, 158700, Note_on_c, 1, 84, 0
1, 158700, Note_on_c, 10, 84, 0
1, 158820, Note_on_c, 1, 84, 105
1, 158820, Note_on_c, 10, 84, 91
1, 159065, Note_on_c, 1, 84, 0
1, 159065, Note_on_c, 10, 84, 0
1, 159360, Note_on_c, 1, 77, 105
1, 159360, Note_on_c, 10, 77, 91
1, 159660, Note_on_c, 1, 77, 0
1, 159660, Note_on_c, 10, 77, 0
1, 159780, Note_on_c, 1, 77, 105
1, 159780, Note_on_c, 10, 77, 91
1, 160080, Note_on_c, 1, 77, 0
1, 160080, Note_on_c, 10, 77, 0
1, 160140, Note_on_c, 2, 41, 0
1, 160200, Note_on_c, 2, 53, 86
1, 160200, Note_on_c, 12, 53, 102
1, 160200, Note_on_c, 12, 41, 0
1, 160320, Note_on_c, 1, 72, 105
1, 160320, Note_on_c, 10, 72, 91
1, 160620, Note_on_c, 1, 72, 0
1, 160620, Note_on_c, 10, 72, 0
1, 160740, Note_on_c, 1, 72, 105
1, 160740, Note_on_c, 10, 72, 91
1, 161040, Note_on_c, 1, 72, 0
1, 161040, Note_on_c, 10, 72, 0
1, 161280, Note_on_c, 1, 84, 105
1, 161280, Note_on_c, 10, 84, 91
1, 161580, Note_on_c, 1, 84, 0
1, 161580, Note_on_c, 10, 84, 0
1, 161700, Note_on_c, 1, 84, 105
1, 161700, Note_on_c, 10, 84, 91
1, 161945, Note_on_c, 1, 84, 0
1, 161945, Note_on_c, 10, 84, 0
1, 162240, Note_on_c, 1, 77, 105
1, 162240, Note_on_c, 10, 77, 91
1, 162540, Note_on_c, 1, 77, 0
1, 162540, Note_on_c, 10, 77, 0
1, 162660, Note_on_c, 1, 77, 105
1, 162660, Note_on_c, 10, 77, 91
1, 162960, Note_on_c, 1, 77, 0
1, 162960, Note_on_c, 10, 77, 0
1, 163200, Note_on_c, 1, 72, 105
1, 163200, Note_on_c, 3, 72, 81
1, 163200, Note_on_c, 3, 77, 0
1, 163200, Note_on_c, 10, 72, 91
1, 163500, Note_on_c, 1, 72, 0
1, 163500, Note_on_c, 10, 72, 0
1, 163620, Note_on_c, 1, 72, 105
1, 163620, Note_on_c, 10, 72, 91
1, 163920, Note_on_c, 1, 72, 0
1, 163920, Note_on_c, 10, 72, 0
1, 164160, Note_on_c, 1, 84, 105
1, 164160, Note_on_c, 10, 84, 91
1, 164460, Note_on_c, 1, 84, 0
1, 164460, Note_on_c, 10, 84, 0
1, 164580, Note_on_c, 1, 84, 105
1, 164580, Note_on_c, 10, 84, 91
1, 164825, Note_on_c, 1, 84, 0
1, 164825, Note_on_c, 10, 84, 0
1, 165120, Note_on_c, 1, 77, 105
1, 165120, Note_on_c, 10, 77, 91
1, 165420, Note_on_c, 1, 77, 0
1, 165420, Note_on_c, 10, 77, 0
1, 165540, Note_on_c, 1, 77, 105
1, 165540, Note_on_c, 10, 77, 91
1, 165840, Note_on_c, 1, 77, 0
1, 165840, Note_on_c, 10, 77, 0
1, 166080, Note_on_c, 1, 72, 105
1, 166080, Note_on_c, 10, 72, 91
1, 166380, Note_on_c, 1, 72, 0
1, 166380, Note_on_c, 10, 72, 0
1, 166500, Note_on_c, 1, 72, 105
1, 166500, Note_on_c, 10, 72, 91
1, 166800, Note_on_c, 1, 72, 0
1, 166800, Note_on_c, 10, 72, 0
1, 167040, Note_on_c, 1, 84, 105
1, 167040, Note_on_c, 7, 24, 76
1, 167040, Note_on_c, 10, 84, 91
1, 167340, Note_on_c, 1, 84, 0
1, 167340, Note_on_c, 10, 84, 0
1, 167460, Note_on_c, 1, 84, 105
1, 167460, Note_on_c, 10, 84, 91
1, 167705, Note_on_c, 1, 84, 0
1, 167705, Note_on_c, 10, 84, 0
1, 168000, Note_on_c, 1, 77, 105
1, 168000, Note_on_c, 10, 77, 91
1, 168300, Note_on_c, 1, 77, 0
1, 168300, Note_on_c, 10, 77, 0
1, 168420, Note_on_c, 1, 77, 105
1, 168420, Note_on_c, 10, 77, 91
1, 168720, Note_on_c, 1, 77, 0
1, 168720, Note_on_c, 10, 77, 0
1, 168960, Note_on_c, 1, 72, 105
1, 168960, Note_on_c, 10, 72, 91
1, 169260, Note_on_c, 1, 72, 0
1, 169260, Note_on_c, 10, 72, 0
1, 169380, Note_on_c, 1, 72, 105
1, 169380, Note_on_c, 10, 72, 91
1, 169680, Note_on_c, 1, 72, 0
1, 169680, Note_on_c, 10, 72, 0
1, 169800, Note_on_c, 2, 53, 0
1, 169800, Note_on_c, 12, 53, 0
1, 169920, Note_on_c, 1, 82, 105
1, 169920, Note_on_c, 3, 77, 81
1, 169920, Note_on_c, 3, 72, 0
1, 169920, Note_on_c, 6, 24, 0
1, 169920, Note_on_c, 10, 82, 91
1, 169980, Note_on_c, 2, 46, 86
1, 169980, Note_on_c, 12, 46, 102
1, 170220, Note_on_c, 1, 82, 0
1, 170220, Note_on_c, 10, 82, 0
1, 170340, Note_on_c, 1, 82, 105
1, 170340, Note_on_c, 10, 82, 91
1, 170585, Note_on_c, 1, 82, 0
1, 170585, Note_on_c, 10, 82, 0
1, 170880, Note_on_c, 1, 77, 105
1, 170880, Note_on_c, 10, 77, 91
1, 171180, Note_on_c, 1, 77, 0
1, 171180, Note_on_c, 10, 77, 0
1, 171240, Note_on_c, 12, 46, 0
1, 171300, Note_on_c, 1, 77, 105
1, 171300, Note_on_c, 2, 46, 0
1, 171300, Note_on_c, 10, 77, 91
1, 171360, Note_on_c, 2, 45, 86
1, 171360, Note_on_c, 12, 45, 102
1, 171600, Note_on_c, 1, 77, 0
1, 171600, Note_on_c, 10, 77, 0
1, 171840, Note_on_c, 1, 72, 105
1, 171840, Note_on_c, 3, 82, 81
1, 171840, Note_on_c, 3, 77, 0
1, 171840, Note_on_c, 10, 72, 91
1, 172140, Note_on_c, 1, 72, 0
1, 172140, Note_on_c, 10, 72, 0
1, 172260, Note_on_c, 1, 72, 105
1, 172260, Note_on_c, 10, 72, 91
1, 172560, Note_on_c, 1, 72, 0
1, 172560, Note_on_c, 10, 72, 0
1, 172680, Note_on_c, 12, 45, 0
1, 172740, Note_on_c, 2, 45, 0
1, 172800, Note_on_c, 1, 82, 105
1, 172800, Note_on_c, 2, 46, 86
1, 172800, Note_on_c, 10, 82, 91
1, 172800, Note_on_c, 12, 46, 102
1, 172920, Note_on_c, 3, 82, 0
1, 172980, Note_on_c, 3, 81, 81
1, 173100, Note_on_c, 1, 82, 0
1, 173100, Note_on_c, 10, 82, 0
1, 173220, Note_on_c, 1, 82, 105
1, 173220, Note_on_c, 10, 82, 91
1, 173465, Note_on_c, 1, 82, 0
1, 173465, Note_on_c, 10, 82, 0
1, 173760, Note_on_c, 1, 77, 105
1, 173760, Note_on_c, 10, 77, 91
1, 174060, Note_on_c, 1, 77, 0
1, 174060, Note_on_c, 10, 77, 0
1, 174120, Note_on_c, 3, 81, 0
1, 174180, Note_on_c, 1, 77, 105
1, 174180, Note_on_c, 3, 77, 81
1, 174180, Note_on_c, 10, 77, 91
1, 174480, Note_on_c, 1, 77, 0
1, 174480, Note_on_c, 10, 77, 0
1, 174720, Note_on_c, 1, 72, 105
1, 174720, Note_on_c, 10, 72, 91
1, 175020, Note_on_c, 1, 72, 0
1, 175020, Note_on_c, 10, 72, 0
1, 175140, Note_on_c, 1, 72, 105
1, 175140, Note_on_c, 10, 72, 91
1, 175440, Note_on_c, 1, 72, 0
1, 175440, Note_on_c, 3, 70, 81
1, 175440, Note_on_c, 3, 77, 0
1, 175440, Note_on_c, 10, 72, 0
1, 175680, Note_on_c, 1, 82, 105
1, 175680, Note_on_c, 10, 82, 91
1, 175980, Note_on_c, 1, 82, 0
1, 175980, Note_on_c, 10, 82, 0
1, 176100, Note_on_c, 1, 82, 105
1, 176100, Note_on_c, 10, 82, 91
1, 176345, Note_on_c, 1, 82, 0
1, 176345, Note_on_c, 10, 82, 0
1, 176640, Note_on_c, 1, 77, 105
1, 176640, Note_on_c, 10, 77, 91
1, 176940, Note_on_c, 1, 77, 0
1, 176940, Note_on_c, 10, 77, 0
1, 177060, Note_on_c, 1, 77, 105
1, 177060, Note_on_c, 10, 77, 91
1, 177360, Note_on_c, 1, 77, 0
1, 177360, Note_on_c, 10, 77, 0
1, 177600, Note_on_c, 1, 72, 105
1, 177600, Note_on_c, 10, 72, 91
1, 177900, Note_on_c, 1, 72, 0
1, 177900, Note_on_c, 10, 72, 0
1, 178020, Note_on_c, 1, 72, 105
1, 178020, Note_on_c, 10, 72, 91
1, 178320, Note_on_c, 1, 72, 0
1, 178320, Note_on_c, 10, 72, 0
1, 178560, Note_on_c, 1, 82, 105
1, 178560, Note_on_c, 10, 82, 91
1, 178860, Note_on_c, 1, 82, 0
1, 178860, Note_on_c, 10, 82, 0
1, 178980, Note_on_c, 1, 82, 105
1, 178980, Note_on_c, 10, 82, 91
1, 179225, Note_on_c, 1, 82, 0
1, 179225, Note_on_c, 10, 82, 0
1, 179520, Note_on_c, 1, 77, 105
1, 179520, Note_on_c, 3, 72, 81
1, 179520, Note_on_c, 10, 77, 91
1, 179640, Note_on_c, 3, 70, 0
1, 179820, Note_on_c, 1, 77, 0
1, 179820, Note_on_c, 10, 77, 0
1, 179940, Note_on_c, 1, 77, 105
1, 179940, Note_on_c, 10, 77, 91
1, 180240, Note_on_c, 1, 77, 0
1, 180240, Note_on_c, 10, 77, 0
1, 180480, Note_on_c, 1, 72, 105
1, 180480, Note_on_c, 10, 72, 91
1, 180780, Note_on_c, 1, 72, 0
1, 180780, Note_on_c, 10, 72, 0
1, 180900, Note_on_c, 1, 72, 105
1, 180900, Note_on_c, 10, 72, 91
1, 181200, Note_on_c, 1, 72, 0
1, 181200, Note_on_c, 10, 72, 0
1, 181440, Note_on_c, 1, 81, 105
1, 181440, Note_on_c, 10, 81, 91
1, 181740, Note_on_c, 1, 81, 0
1, 181740, Note_on_c, 10, 81, 0
1, 181860, Note_on_c, 1, 81, 105
1, 181860, Note_on_c, 10, 81, 91
1, 182105, Note_on_c, 1, 81, 0
1, 182105, Note_on_c, 10, 81, 0
1, 182160, Note_on_c, 2, 46, 0
1, 182220, Note_on_c, 12, 46, 0
1, 182400, Note_on_c, 1, 77, 105
1, 182400, Note_on_c, 2, 48, 86
1, 182400, Note_on_c, 10, 77, 91
1, 182400, Note_on_c, 12, 48, 102
1, 182700, Note_on_c, 1, 77, 0
1, 182700, Note_on_c, 10, 77, 0
1, 182820, Note_on_c, 1, 77, 105
1, 182820, Note_on_c, 10, 77, 91
1, 183120, Note_on_c, 1, 77, 0
1, 183120, Note_on_c, 10, 77, 0
1, 183300, Note_on_c, 3, 72, 0
1, 183360, Note_on_c, 1, 72, 105
1, 183360, Note_on_c, 3, 69, 64
1, 183360, Note_on_c, 10, 72, 91
1, 183660, Note_on_c, 1, 72, 0
1, 183660, Note_on_c, 10, 72, 0
1, 183780, Note_on_c, 1, 72, 105
1, 183780, Note_on_c, 10, 72, 91
1, 184080, Note_on_c, 1, 72, 0
1, 184080, Note_on_c, 10, 72, 0
1, 184140, Note_on_c, 12, 48, 0
1, 184320, Note_on_c, 1, 81, 105
1, 184320, Note_on_c, 2, 36, 86
1, 184320, Note_on_c, 2, 48, 0
1, 184320, Note_on_c, 10, 81, 91
1, 184320, Note_on_c, 12, 36, 102
1, 184620, Note_on_c, 1, 81, 0
1, 184620, Note_on_c, 10, 81, 0
1, 184740, Note_on_c, 1, 81, 105
1, 184740, Note_on_c, 10, 81, 91
1, 184985, Note_on_c, 1, 81, 0
1, 184985, Note_on_c, 10, 81, 0
1, 185280, Note_on_c, 1, 77, 105
1, 185280, Note_on_c, 3, 65, 64
1, 185280, Note_on_c, 3, 69, 0
1, 185280, Note_on_c, 10, 77, 91
1, 185580, Note_on_c, 1, 77, 0
1, 185580, Note_on_c, 10, 77, 0
1, 185700, Note_on_c, 1, 77, 105
1, 185700, Note_on_c, 10, 77, 91
1, 186000, Note_on_c, 1, 77, 0
1, 186000, Note_on_c, 10, 77, 0
1, 186240, Note_on_c, 1, 72, 105
1, 186240, Note_on_c, 10, 72, 91
1, 186480, Note_on_c, 3, 65, 0
1, 186540, Note_on_c, 1, 72, 0
1, 186540, Note_on_c, 3, 72, 64
1, 186540, Note_on_c, 10, 72, 0
1, 186660, Note_on_c, 1, 72, 105
1, 186660, Note_on_c, 10, 72, 91
1, 186840, Control_c, 4, 100, 0
1, 186840, Control_c, 4, 101, 0
1, 186840, Control_c, 4, 6, 24
1, 186840, Control_c, 13, 100, 0
1, 186840, Control_c, 13, 101, 0
1, 186840, Control_c, 13, 6, 24
1, 186900, Control_c, 4, 100, 127
1, 186900, Control_c, 4, 101, 127
1, 186900, Control_c, 13, 100, 127
1, 186900, Control_c, 13, 101, 127
1, 186960, Note_on_c, 1, 72, 0
1, 186960, Note_on_c, 10, 72, 0
1, 186980, Pitch_bend_c, 4, 8192
1, 186980, Pitch_bend_c, 13, 8192
1, 187100, Control_c, 4, 11, 42
1, 187100, Control_c, 13, 11, 42
1, 187200, Note_on_c, 1, 81, 105
1, 187200, Pitch_bend_c, 4, 8192
1, 187200, Note_on_c, 4, 48, 120
1, 187200, Note_on_c, 10, 81, 91
1, 187200, Pitch_bend_c, 13, 8192
1, 187200, Note_on_c, 13, 48, 120
1, 187320, Control_c, 4, 11, 45
1, 187320, Pitch_bend_c, 4, 8342
1, 187320, Control_c, 13, 11, 45
1, 187320, Pitch_bend_c, 13, 8342
1, 187440, Pitch_bend_c, 4, 8492
1, 187440, Pitch_bend_c, 13, 8492
1, 187500, Note_on_c, 1, 81, 0
1, 187500, Note_on_c, 10, 81, 0
1, 187560, Control_c, 4, 11, 48
1, 187560, Pitch_bend_c, 4, 8642
1, 187560, Control_c, 13, 11, 48
1, 187560, Pitch_bend_c, 13, 8642
1, 187620, Note_on_c, 1, 81, 105
1, 187620, Note_on_c, 10, 81, 91
1, 187680, Pitch_bend_c, 4, 8792
1, 187680, Pitch_bend_c, 13, 8792
1, 187800, Control_c, 4, 11, 51
1, 187800, Pitch_bend_c, 4, 8942
1, 187800, Control_c, 13, 11, 51
1, 187800, Pitch_bend_c, 13, 8942
1, 187865, Note_on_c, 1, 81, 0
1, 187865, Note_on_c, 10, 81, 0
1, 187920, Pitch_bend_c, 4, 9092
1, 187920, Pitch_bend_c, 13, 9092
1, 188040, Control_c, 4, 11, 55
1, 188040, Pitch_bend_c, 4, 9242
1, 188040, Control_c, 13, 11, 55
1, 188040, Pitch_bend_c, 13, 9242
1, 188160, Note_on_c, 1, 77, 105
1, 188160, Pitch_bend_c, 4, 9392
1, 188160, Note_on_c, 10, 77, 91
1, 188160, Pitch_bend_c, 13, 9392
1, 188280, Control_c, 4, 11, 58
1, 188280, Pitch_bend_c, 4, 9542
1, 188280, Control_c, 13, 11, 58
1, 188280, Pitch_bend_c, 13, 9542
1, 188400, Pitch_bend_c, 4, 9692
1, 188400, Pitch_bend_c, 13, 9692
1, 188460, Note_on_c, 1, 77, 0
1, 188460, Note_on_c, 10, 77, 0
1, 188520, Control_c, 4, 11, 61
1, 188520, Pitch_bend_c, 4, 9842
1, 188520, Control_c, 13, 11, 61
1, 188520, Pitch_bend_c, 13, 9842
1, 188580, Note_on_c, 1, 77, 105
1, 188580, Note_on_c, 10, 77, 91
1, 188640, Pitch_bend_c, 4, 9992
1, 188640, Pitch_bend_c, 13, 9992
1, 188760, Control_c, 4, 11, 64
1, 188760, Pitch_bend_c, 4, 10142
1, 188760, Control_c, 13, 11, 64
1, 188760, Pitch_bend_c, 13, 10142
1, 188880, Note_on_c, 1, 77, 0
1, 188880, Pitch_bend_c, 4, 10292
1, 188880, Note_on_c, 10, 77, 0
1, 188880, Pitch_bend_c, 13, 10292
1, 189000, Note_on_c, 3, 72, 0
1, 189000, Control_c, 4, 11, 67
1, 189000, Pitch_bend_c, 4, 10442
1, 189000, Control_c, 13, 11, 67
1, 189000, Pitch_bend_c, 13, 10442
1, 189120, Note_on_c, 1, 72, 105
1, 189120, Note_on_c, 3, 77, 81
1, 189120, Pitch_bend_c, 4, 10592
1, 189120, Note_on_c, 10, 72, 91
1, 189120, Pitch_bend_c, 13, 10592
1, 189240, Control_c, 4, 11, 70
1, 189240, Pitch_bend_c, 4, 10742
1, 189240, Control_c, 13, 11, 70
1, 189240, Pitch_bend_c, 13, 10742
1, 189360, Pitch_bend_c, 4, 10892
1, 189360, Pitch_bend_c, 13, 10892
1, 189420, Note_on_c, 1, 72, 0
1, 189420, Note_on_c, 10, 72, 0
1, 189480, Control_c, 4, 11, 74
1, 189480, Pitch_bend_c, 4, 11042
1, 189480, Control_c, 13, 11, 74
1, 189480, Pitch_bend_c, 13, 11042
1, 189540, Note_on_c, 1, 72, 105
1, 189540, Note_on_c, 10, 72, 91
1, 189600, Pitch_bend_c, 4, 11192
1, 189600, Pitch_bend_c, 13, 11192
1, 189720, Control_c, 4, 11, 77
1, 189720, Pitch_bend_c, 4, 11342
1, 189720, Control_c, 13, 11, 77
1, 189720, Pitch_bend_c, 13, 11342
1, 189840, Note_on_c, 1, 72, 0
1, 189840, Pitch_bend_c, 4, 11492
1, 189840, Note_on_c, 10, 72, 0
1, 189840, Pitch_bend_c, 13, 11492
1, 189960, Control_c, 4, 11, 80
1, 189960, Pitch_bend_c, 4, 11642
1, 189960, Control_c, 13, 11, 80
1, 189960, Pitch_bend_c, 13, 11642
1, 190080, Note_on_c, 1, 81, 105
1, 190080, Pitch_bend_c, 4, 11792
1, 190080, Note_on_c, 10, 81, 91
1, 190080, Pitch_bend_c, 13, 11792
1, 190200, Control_c, 4, 11, 83
1, 190200, Pitch_bend_c, 4, 11942
1, 190200, Control_c, 13, 11, 83
1, 190200, Pitch_bend_c, 13, 11942
1, 190320, Pitch_bend_c, 4, 12092
1, 190320, Pitch_bend_c, 13, 12092
1, 190380, Note_on_c, 1, 81, 0
1, 190380, Note_on_c, 10, 81, 0
1, 190440, Control_c, 4, 11, 86
1, 190440, Pitch_bend_c, 4, 12242
1, 190440, Control_c, 13, 11, 86
1, 190440, Pitch_bend_c, 13, 12242
1, 190500, Note_on_c, 1, 81, 105
1, 190500, Note_on_c, 10, 81, 91
1, 190560, Pitch_bend_c, 4, 12392
1, 190560, Pitch_bend_c, 13, 12392
1, 190680, Control_c, 4, 11, 89
1, 190680, Pitch_bend_c, 4, 12542
1, 190680, Control_c, 13, 11, 89
1, 190680, Pitch_bend_c, 13, 12542
1, 190745, Note_on_c, 1, 81, 0
1, 190745, Note_on_c, 10, 81, 0
1, 190800, Pitch_bend_c, 4, 12692
1, 190800, Pitch_bend_c, 13, 12692
1, 190920, Control_c, 4, 11, 93
1, 190920, Pitch_bend_c, 4, 12842
1, 190920, Control_c, 13, 11, 93
1, 190920, Pitch_bend_c, 13, 12842
1, 191040, Note_on_c, 1, 77, 105
1, 191040, Pitch_bend_c, 4, 12992
1, 191040, Note_on_c, 10, 77, 91
1, 191040, Pitch_bend_c, 13, 12992
1, 191160, Control_c, 4, 11, 96
1, 191160, Pitch_bend_c, 4, 13142
1, 191160, Control_c, 13, 11, 96
1, 191160, Pitch_bend_c, 13, 13142
1, 191280, Pitch_bend_c, 4, 13292
1, 191280, Pitch_bend_c, 13, 13292
1, 191340, Note_on_c, 1, 77, 0
1, 191340, Note_on_c, 10, 77, 0
1, 191400, Control_c, 4, 11, 99
1, 191400, Pitch_bend_c, 4, 13442
1, 191400, Control_c, 13, 11, 99
1, 191400, Pitch_bend_c, 13, 13442
1, 191460, Note_on_c, 1, 77, 105
1, 191460, Note_on_c, 10, 77, 91
1, 191520, Pitch_bend_c, 4, 13592
1, 191520, Pitch_bend_c, 13, 13592
1, 191640, Control_c, 4, 11, 102
1, 191640, Pitch_bend_c, 4, 13742
1, 191640, Control_c, 13, 11, 102
1, 191640, Pitch_bend_c, 13, 13742
1, 191760, Note_on_c, 1, 77, 0
1, 191760, Pitch_bend_c, 4, 13892
1, 191760, Note_on_c, 10, 77, 0
1, 191760, Pitch_bend_c, 13, 13892
1, 191880, Control_c, 4, 11, 105
1, 191880, Pitch_bend_c, 4, 14042
1, 191880, Control_c, 13, 11, 105
1, 191880, Pitch_bend_c, 13, 14042
1, 192000, Note_on_c, 1, 72, 105
1, 192000, Pitch_bend_c, 4, 14192
1, 192000, Note_on_c, 10, 72, 91
1, 192000, Pitch_bend_c, 13, 14192
1, 192120, Pitch_bend_c, 4, 14342
1, 192120, Control_c, 4, 11, 109
1, 192120, Pitch_bend_c, 13, 14342
1, 192120, Control_c, 13, 11, 109
1, 192240, Pitch_bend_c, 4, 14492
1, 192240, Pitch_bend_c, 13, 14492
1, 192300, Note_on_c, 1, 72, 0
1, 192300, Note_on_c, 10, 72, 0
1, 192360, Pitch_bend_c, 4, 14642
1, 192360, Control_c, 4, 11, 112
1, 192360, Pitch_bend_c, 13, 14642
1, 192360, Control_c, 13, 11, 112
1, 192420, Note_on_c, 1, 72, 105
1, 192420, Note_on_c, 10, 72, 91
1, 192480, Pitch_bend_c, 4, 14792
1, 192480, Pitch_bend_c, 13, 14792
1, 192600, Pitch_bend_c, 4, 14942
1, 192600, Control_c, 4, 11, 115
1, 192600, Pitch_bend_c, 13, 14942
1, 192600, Control_c, 13, 11, 115
1, 192720, Note_on_c, 1, 72, 0
1, 192720, Note_on_c, 2, 36, 0
1, 192720, Pitch_bend_c, 4, 15092
1, 192720, Note_on_c, 10, 72, 0
1, 192720, Pitch_bend_c, 13, 15092
1, 192780, Note_on_c, 12, 36, 0
1, 192840, Pitch_bend_c, 4, 15242
1, 192840, Control_c, 4, 11, 118
1, 192840, Pitch_bend_c, 13, 15242
1, 192840, Control_c, 13, 11, 118
1, 192960, Note_on_c, 1, 84, 105
1, 192960, Note_on_c, 2, 43, 86
1, 192960, Pitch_bend_c, 4, 15392
1, 192960, Note_on_c, 10, 84, 91
1, 192960, Control_c, 12, 11, 116
1, 192960, Note_on_c, 12, 43, 102
1, 192960, Pitch_bend_c, 13, 15392
1, 193080, Pitch_bend_c, 4, 15542
1, 193080, Control_c, 4, 11, 121
1, 193080, Pitch_bend_c, 13, 15542
1, 193080, Control_c, 13, 11, 121
1, 193200, Pitch_bend_c, 4, 15692
1, 193200, Pitch_bend_c, 13, 15692
1, 193260, Note_on_c, 1, 84, 0
1, 193260, Note_on_c, 10, 84, 0
1, 193320, Pitch_bend_c, 4, 15842
1, 193320, Control_c, 4, 11, 124
1, 193320, Pitch_bend_c, 13, 15842
1, 193320, Control_c, 13, 11, 124
1, 193380, Note_on_c, 1, 84, 105
1, 193380, Note_on_c, 10, 84, 91
1, 193440, Pitch_bend_c, 4, 15992
1, 193440, Pitch_bend_c, 13, 15992
1, 193560, Pitch_bend_c, 4, 16142
1, 193560, Control_c, 4, 11, 127
1, 193560, Pitch_bend_c, 13, 16142
1, 193560, Control_c, 13, 11, 127
1, 193625, Note_on_c, 1, 84, 0
1, 193625, Note_on_c, 10, 84, 0
1, 193680, Pitch_bend_c, 4, 16383
1, 193680, Pitch_bend_c, 13, 16383
1, 193920, Note_on_c, 1, 79, 105
1, 193920, Note_on_c, 3, 76, 81
1, 193920, Note_on_c, 3, 77, 0
1, 193920, Note_on_c, 10, 79, 91
1, 194220, Note_on_c, 1, 79, 0
1, 194220, Note_on_c, 10, 79, 0
1, 194340, Note_on_c, 1, 79, 105
1, 194340, Note_on_c, 10, 79, 91
1, 194640, Note_on_c, 1, 79, 0
1, 194640, Note_on_c, 10, 79, 0
1, 194760, Note_on_c, 2, 43, 0
1, 194760, Note_on_c, 12, 43, 0
1, 194880, Note_on_c, 1, 72, 105
1, 194880, Note_on_c, 2, 48, 86
1, 194880, Note_on_c, 3, 77, 81
1, 194880, Note_on_c, 3, 76, 0
1, 194880, Note_on_c, 10, 72, 91
1, 194880, Note_on_c, 12, 48, 102
1, 195180, Note_on_c, 1, 72, 0
1, 195180, Note_on_c, 10, 72, 0
1, 195300, Note_on_c, 1, 72, 105
1, 195300, Note_on_c, 10, 72, 91
1, 195600, Note_on_c, 1, 72, 0
1, 195600, Note_on_c, 10, 72, 0
1, 195840, Note_on_c, 1, 84, 105
1, 195840, Note_on_c, 3, 79, 81
1, 195840, Note_on_c, 3, 77, 0
1, 195840, Note_on_c, 10, 84, 91
1, 196140, Note_on_c, 1, 84, 0
1, 196140, Note_on_c, 10, 84, 0
1, 196260, Note_on_c, 1, 84, 105
1, 196260, Note_on_c, 10, 84, 91
1, 196505, Note_on_c, 1, 84, 0
1, 196505, Note_on_c, 10, 84, 0
1, 196800, Note_on_c, 1, 79, 105
1, 196800, Note_on_c, 10, 79, 91
1, 197100, Note_on_c, 1, 79, 0
1, 197100, Note_on_c, 10, 79, 0
1, 197220, Note_on_c, 1, 79, 105
1, 197220, Note_on_c, 10, 79, 91
1, 197520, Note_on_c, 1, 79, 0
1, 197520, Note_on_c, 10, 79, 0
1, 197760, Note_on_c, 1, 72, 105
1, 197760, Note_on_c, 3, 72, 81
1, 197760, Note_on_c, 3, 79, 0
1, 197760, Note_on_c, 10, 72, 91
1, 198060, Note_on_c, 1, 72, 0
1, 198060, Note_on_c, 10, 72, 0
1, 198180, Note_on_c, 1, 72, 105
1, 198180, Note_on_c, 10, 72, 91
1, 198480, Note_on_c, 1, 72, 0
1, 198480, Note_on_c, 10, 72, 0
1, 198720, Note_on_c, 1, 84, 105
1, 198720, Note_on_c, 3, 67, 81
1, 198720, Note_on_c, 3, 72, 0
1, 198720, Note_on_c, 10, 84, 91
1, 199020, Note_on_c, 1, 84, 0
1, 199020, Note_on_c, 10, 84, 0
1, 199140, Note_on_c, 1, 84, 105
1, 199140, Note_on_c, 10, 84, 91
1, 199385, Note_on_c, 1, 84, 0
1, 199385, Note_on_c, 10, 84, 0
1, 199500, Note_on_c, 2, 48, 0
1, 199500, Note_on_c, 12, 48, 0
1, 199680, Note_on_c, 1, 79, 105
1, 199680, Note_on_c, 2, 52, 75
1, 199680, Note_on_c, 3, 76, 81
1, 199680, Note_on_c, 3, 67, 0
1, 199680, Note_on_c, 10, 79, 91
1, 199680, Note_on_c, 12, 52, 91
1, 199980, Note_on_c, 1, 79, 0
1, 199980, Note_on_c, 10, 79, 0
1, 200100, Note_on_c, 1, 79, 105
1, 200100, Note_on_c, 10, 79, 91
1, 200400, Note_on_c, 1, 79, 0
1, 200400, Note_on_c, 10, 79, 0
1, 200460, Note_on_c, 12, 52, 0
1, 200520, Note_on_c, 2, 52, 0
1, 200640, Note_on_c, 1, 72, 105
1, 200640, Note_on_c, 2, 50, 75
1, 200640, Note_on_c, 3, 74, 81
1, 200640, Note_on_c, 3, 76, 0
1, 200640, Note_on_c, 10, 72, 91
1, 200640, Note_on_c, 12, 50, 91
1, 200940, Note_on_c, 1, 72, 0
1, 200940, Note_on_c, 10, 72, 0
1, 201060, Note_on_c, 1, 72, 105
1, 201060, Note_on_c, 10, 72, 91
1, 201360, Note_on_c, 1, 72, 0
1, 201360, Note_on_c, 10, 72, 0
1, 201480, Note_on_c, 12, 50, 0
1, 201600, Note_on_c, 1, 84, 105
1, 201600, Note_on_c, 2, 52, 75
1, 201600, Note_on_c, 2, 50, 0
1, 201600, Note_on_c, 3, 76, 81
1, 201600, Note_on_c, 3, 74, 0
1, 201600, Note_on_c, 10, 84, 91
1, 201600, Note_on_c, 12, 52, 91
1, 201900, Note_on_c, 1, 84, 0
1, 201900, Note_on_c, 10, 84, 0
1, 202020, Note_on_c, 1, 84, 105
1, 202020, Note_on_c, 10, 84, 91
1, 202265, Note_on_c, 1, 84, 0
1, 202265, Note_on_c, 10, 84, 0
1, 202560, Note_on_c, 1, 79, 105
1, 202560, Note_on_c, 10, 79, 91
1, 202860, Note_on_c, 1, 79, 0
1, 202860, Note_on_c, 10, 79, 0
1, 202980, Note_on_c, 1, 79, 105
1, 202980, Note_on_c, 10, 79, 91
1, 203280, Note_on_c, 1, 79, 0
1, 203280, Note_on_c, 10, 79, 0
1, 203520, Note_on_c, 1, 72, 105
1, 203520, Note_on_c, 10, 72, 91
1, 203620, Control_c, 4, 11, 116
1, 203620, Control_c, 13, 11, 116
1, 203700, Control_c, 4, 11, 105
1, 203700, Control_c, 13, 11, 105
1, 203780, Control_c, 4, 11, 95
1, 203780, Control_c, 13, 11, 95
1, 203820, Note_on_c, 1, 72, 0
1, 203820, Note_on_c, 10, 72, 0
1, 203860, Control_c, 4, 11, 84
1, 203860, Control_c, 13, 11, 84
1, 203940, Note_on_c, 1, 72, 105
1, 203940, Control_c, 4, 11, 74
1, 203940, Note_on_c, 10, 72, 91
1, 203940, Control_c, 13, 11, 74
1, 204020, Control_c, 4, 11, 63
1, 204020, Control_c, 13, 11, 63
1, 204100, Control_c, 4, 11, 52
1, 204100, Control_c, 13, 11, 52
1, 204180, Control_c, 4, 11, 42
1, 204180, Control_c, 13, 11, 42
1, 204240, Note_on_c, 1, 72, 0
1, 204240, Note_on_c, 4, 48, 0
1, 204240, Note_on_c, 10, 72, 0
1, 204240, Note_on_c, 13, 48, 0
1, 204265, Control_c, 4, 11, 31
1, 204265, Control_c, 13, 11, 31
1, 204300, Note_on_c, 2, 52, 0
1, 204320, Control_c, 4, 100, 0
1, 204320, Control_c, 4, 101, 0
1, 204320, Control_c, 4, 6, 12
1, 204320, Control_c, 13, 100, 0
1, 204320, Control_c, 13, 101, 0
1, 204320, Control_c, 13, 6, 12
1, 204360, Note_on_c, 12, 52, 0
1, 204380, Control_c, 4, 100, 127
1, 204380, Control_c, 4, 101, 127
1, 204380, Control_c, 13, 100, 127
1, 204380, Control_c, 13, 101, 127
1, 204440, Control_c, 4, 11, 31
1, 204440, Control_c, 13, 11, 31
1, 204480, Note_on_c, 1, 84, 105
1, 204480, Pitch_bend_c, 4, 8192
1, 204480, Note_on_c, 4, 60, 120
1, 204480, Note_on_c, 10, 84, 91
1, 204480, Pitch_bend_c, 13, 8192
1, 204480, Note_on_c, 13, 60, 120
1, 204540, Note_on_c, 2, 53, 81
1, 204540, Control_c, 4, 11, 37
1, 204540, Control_c, 13, 11, 37
1, 204600, Control_c, 4, 11, 42
1, 204600, Pitch_bend_c, 4, 8342
1, 204600, Note_on_c, 12, 53, 96
1, 204600, Control_c, 13, 11, 42
1, 204600, Pitch_bend_c, 13, 8342
1, 204720, Pitch_bend_c, 4, 8492
1, 204720, Control_c, 4, 11, 45
1, 204720, Pitch_bend_c, 13, 8492
1, 204720, Control_c, 13, 11, 45
1, 204780, Note_on_c, 1, 84, 0
1, 204780, Note_on_c, 10, 84, 0
1, 204840, Control_c, 4, 11, 48
1, 204840, Pitch_bend_c, 4, 8642
1, 204840, Control_c, 13, 11, 48
1, 204840, Pitch_bend_c, 13, 8642
1, 204900, Note_on_c, 1, 84, 105
1, 204900, Note_on_c, 10, 84, 91
1, 204960, Pitch_bend_c, 4, 8792
1, 204960, Pitch_bend_c, 13, 8792
1, 205080, Control_c, 4, 11, 51
1, 205080, Pitch_bend_c, 4, 8942
1, 205080, Control_c, 13, 11, 51
1, 205080, Pitch_bend_c, 13, 8942
1, 205145, Note_on_c, 1, 84, 0
1, 205145, Note_on_c, 10, 84, 0
1, 205200, Pitch_bend_c, 4, 9092
1, 205200, Pitch_bend_c, 13, 9092
1, 205320, Control_c, 4, 11, 55
1, 205320, Pitch_bend_c, 4, 9242
1, 205320, Control_c, 13, 11, 55
1, 205320, Pitch_bend_c, 13, 9242
1, 205440, Note_on_c, 1, 77, 105
1, 205440, Pitch_bend_c, 4, 9392
1, 205440, Note_on_c, 10, 77, 91
1, 205440, Pitch_bend_c, 13, 9392
1, 205560, Control_c, 4, 11, 58
1, 205560, Pitch_bend_c, 4, 9542
1, 205560, Control_c, 13, 11, 58
1, 205560, Pitch_bend_c, 13, 9542
1, 205680, Pitch_bend_c, 4, 9692
1, 205680, Pitch_bend_c, 13, 9692
1, 205740, Note_on_c, 1, 77, 0
1, 205740, Note_on_c, 10, 77, 0
1, 205800, Control_c, 4, 11, 61
1, 205800, Pitch_bend_c, 4, 9842
1, 205800, Control_c, 13, 11, 61
1, 205800, Pitch_bend_c, 13, 9842
1, 205860, Note_on_c, 1, 77, 105
1, 205860, Note_on_c, 10, 77, 91
1, 205920, Pitch_bend_c, 4, 9992
1, 205920, Pitch_bend_c, 13, 9992
1, 206040, Control_c, 4, 11, 64
1, 206040, Pitch_bend_c, 4, 10142
1, 206040, Control_c, 13, 11, 64
1, 206040, Pitch_bend_c, 13, 10142
1, 206160, Note_on_c, 1, 77, 0
1, 206160, Pitch_bend_c, 4, 10292
1, 206160, Note_on_c, 10, 77, 0
1, 206160, Pitch_bend_c, 13, 10292
1, 206280, Control_c, 4, 11, 67
1, 206280, Pitch_bend_c, 4, 10442
1, 206280, Note_on_c, 12, 53, 0
1, 206280, Control_c, 13, 11, 67
1, 206280, Pitch_bend_c, 13, 10442
1, 206340, Note_on_c, 2, 53, 0
1, 206400, Note_on_c, 1, 72, 105
1, 206400, Note_on_c, 2, 41, 86
1, 206400, Note_on_c, 3, 77, 81
1, 206400, Note_on_c, 3, 76, 0
1, 206400, Pitch_bend_c, 4, 10592
1, 206400, Note_on_c, 10, 72, 91
1, 206400, Note_on_c, 12, 41, 102
1, 206400, Pitch_bend_c, 13, 10592
1, 206520, Control_c, 4, 11, 70
1, 206520, Pitch_bend_c, 4, 10742
1, 206520, Control_c, 13, 11, 70
1, 206520, Pitch_bend_c, 13, 10742
1, 206640, Pitch_bend_c, 4, 10892
1, 206640, Pitch_bend_c, 13, 10892
1, 206700, Note_on_c, 1, 72, 0
1, 206700, Note_on_c, 10, 72, 0
1, 206760, Control_c, 4, 11, 74
1, 206760, Pitch_bend_c, 4, 11042
1, 206760, Control_c, 13, 11, 74
1, 206760, Pitch_bend_c, 13, 11042
1, 206820, Note_on_c, 1, 72, 105
1, 206820, Note_on_c, 10, 72, 91
1, 206880, Pitch_bend_c, 4, 11192
1, 206880, Pitch_bend_c, 13, 11192
1, 207000, Control_c, 4, 11, 77
1, 207000, Pitch_bend_c, 4, 11342
1, 207000, Control_c, 13, 11, 77
1, 207000, Pitch_bend_c, 13, 11342
1, 207120, Note_on_c, 1, 72, 0
1, 207120, Pitch_bend_c, 4, 11492
1, 207120, Note_on_c, 10, 72, 0
1, 207120, Pitch_bend_c, 13, 11492
1, 207240, Control_c, 4, 11, 80
1, 207240, Pitch_bend_c, 4, 11642
1, 207240, Control_c, 13, 11, 80
1, 207240, Pitch_bend_c, 13, 11642
1, 207360, Note_on_c, 1, 84, 105
1, 207360, Pitch_bend_c, 4, 11792
1, 207360, Note_on_c, 10, 84, 91
1, 207360, Pitch_bend_c, 13, 11792
1, 207480, Control_c, 4, 11, 83
1, 207480, Pitch_bend_c, 4, 11942
1, 207480, Control_c, 13, 11, 83
1, 207480, Pitch_bend_c, 13, 11942
1, 207600, Pitch_bend_c, 4, 12092
1, 207600, Pitch_bend_c, 13, 12092
1, 207660, Note_on_c, 1, 84, 0
1, 207660, Note_on_c, 10, 84, 0
1, 207720, Control_c, 4, 11, 86
1, 207720, Pitch_bend_c, 4, 12242
1, 207720, Control_c, 13, 11, 86
1, 207720, Pitch_bend_c, 13, 12242
1, 207780, Note_on_c, 1, 84, 105
1, 207780, Note_on_c, 10, 84, 91
1, 207840, Pitch_bend_c, 4, 12392
1, 207840, Pitch_bend_c, 13, 12392
1, 207960, Control_c, 4, 11, 89
1, 207960, Pitch_bend_c, 4, 12542
1, 207960, Control_c, 13, 11, 89
1, 207960, Pitch_bend_c, 13, 12542
1, 208025, Note_on_c, 1, 84, 0
1, 208025, Note_on_c, 10, 84, 0
1, 208080, Pitch_bend_c, 4, 12692
1, 208080, Pitch_bend_c, 13, 12692
1, 208200, Control_c, 4, 11, 93
1, 208200, Pitch_bend_c, 4, 12842
1, 208200, Control_c, 13, 11, 93
1, 208200, Pitch_bend_c, 13, 12842
1, 208320, Note_on_c, 1, 77, 105
1, 208320, Pitch_bend_c, 4, 12992
1, 208320, Note_on_c, 10, 77, 91
1, 208320, Pitch_bend_c, 13, 12992
1, 208440, Control_c, 4, 11, 96
1, 208440, Pitch_bend_c, 4, 13142
1, 208440, Control_c, 13, 11, 96
1, 208440, Pitch_bend_c, 13, 13142
1, 208560, Pitch_bend_c, 4, 13292
1, 208560, Pitch_bend_c, 13, 13292
1, 208620, Note_on_c, 1, 77, 0
1, 208620, Note_on_c, 10, 77, 0
1, 208680, Control_c, 4, 11, 99
1, 208680, Pitch_bend_c, 4, 13442
1, 208680, Control_c, 13, 11, 99
1, 208680, Pitch_bend_c, 13, 13442
1, 208740, Note_on_c, 1, 77, 105
1, 208740, Note_on_c, 10, 77, 91
1, 208800, Pitch_bend_c, 4, 13592
1, 208800, Pitch_bend_c, 13, 13592
1, 208920, Control_c, 4, 11, 102
1, 208920, Pitch_bend_c, 4, 13742
1, 208920, Control_c, 13, 11, 102
1, 208920, Pitch_bend_c, 13, 13742
1, 209040, Note_on_c, 1, 77, 0
1, 209040, Pitch_bend_c, 4, 13892
1, 209040, Note_on_c, 10, 77, 0
1, 209040, Pitch_bend_c, 13, 13892
1, 209160, Control_c, 4, 11, 105
1, 209160, Pitch_bend_c, 4, 14042
1, 209160, Control_c, 13, 11, 105
1, 209160, Pitch_bend_c, 13, 14042
1, 209280, Note_on_c, 1, 72, 105
1, 209280, Note_on_c, 3, 72, 81
1, 209280, Note_on_c, 3, 77, 0
1, 209280, Pitch_bend_c, 4, 14192
1, 209280, Note_on_c, 10, 72, 91
1, 209280, Pitch_bend_c, 13, 14192
1, 209400, Pitch_bend_c, 4, 14342
1, 209400, Control_c, 4, 11, 109
1, 209400, Pitch_bend_c, 13, 14342
1, 209400, Control_c, 13, 11, 109
1, 209520, Pitch_bend_c, 4, 14492
1, 209520, Pitch_bend_c, 13, 14492
1, 209580, Note_on_c, 1, 72, 0
1, 209580, Note_on_c, 10, 72, 0
1, 209640, Pitch_bend_c, 4, 14642
1, 209640, Control_c, 4, 11, 112
1, 209640, Pitch_bend_c, 13, 14642
1, 209640, Control_c, 13, 11, 112
1, 209700, Note_on_c, 1, 72, 105
1, 209700, Note_on_c, 10, 72, 91
1, 209760, Pitch_bend_c, 4, 14792
1, 209760, Pitch_bend_c, 13, 14792
1, 209880, Pitch_bend_c, 4, 14942
1, 209880, Control_c, 4, 11, 115
1, 209880, Pitch_bend_c, 13, 14942
1, 209880, Control_c, 13, 11, 115
1, 210000, Note_on_c, 1, 72, 0
1, 210000, Pitch_bend_c, 4, 15092
1, 210000, Note_on_c, 10, 72, 0
1, 210000, Pitch_bend_c, 13, 15092
1, 210120, Pitch_bend_c, 4, 15242
1, 210120, Control_c, 4, 11, 118
1, 210120, Pitch_bend_c, 13, 15242
1, 210120, Control_c, 13, 11, 118
1, 210240, Note_on_c, 1, 84, 105
1, 210240, Pitch_bend_c, 4, 15392
1, 210240, Note_on_c, 10, 84, 91
1, 210240, Pitch_bend_c, 13, 15392
1, 210360, Pitch_bend_c, 4, 15542
1, 210360, Control_c, 4, 11, 121
1, 210360, Pitch_bend_c, 13, 15542
1, 210360, Control_c, 13, 11, 121
1, 210480, Pitch_bend_c, 4, 15692
1, 210480, Pitch_bend_c, 13, 15692
1, 210540, Note_on_c, 1, 84, 0
1, 210540, Note_on_c, 10, 84, 0
1, 210600, Pitch_bend_c, 4, 15842
1, 210600, Control_c, 4, 11, 124
1, 210600, Pitch_bend_c, 13, 15842
1, 210600, Control_c, 13, 11, 124
1, 210660, Note_on_c, 1, 84, 105
1, 210660, Note_on_c, 10, 84, 91
1, 210720, Pitch_bend_c, 4, 15992
1, 210720, Pitch_bend_c, 13, 15992
1, 210840, Pitch_bend_c, 4, 16142
1, 210840, Control_c, 4, 11, 127
1, 210840, Pitch_bend_c, 13, 16142
1, 210840, Control_c, 13, 11, 127
1, 210905, Note_on_c, 1, 84, 0
1, 210905, Note_on_c, 10, 84, 0
1, 210960, Pitch_bend_c, 4, 16383
1, 210960, Pitch_bend_c, 13, 16383
1, 211200, Note_on_c, 1, 77, 105
1, 211200, Note_on_c, 10, 77, 91
1, 211500, Note_on_c, 1, 77, 0
1, 211500, Note_on_c, 10, 77, 0
1, 211620, Note_on_c, 1, 77, 105
1, 211620, Note_on_c, 10, 77, 91
1, 211920, Note_on_c, 1, 77, 0
1, 211920, Note_on_c, 10, 77, 0
1, 212160, Note_on_c, 1, 72, 105
1, 212160, Note_on_c, 10, 72, 91
1, 212460, Note_on_c, 1, 72, 0
1, 212460, Note_on_c, 10, 72, 0
1, 212580, Note_on_c, 1, 72, 105
1, 212580, Note_on_c, 10, 72, 91
1, 212880, Note_on_c, 1, 72, 0
1, 212880, Note_on_c, 10, 72, 0
1, 213120, Note_on_c, 1, 84, 105
1, 213120, Note_on_c, 10, 84, 91
1, 213420, Note_on_c, 1, 84, 0
1, 213420, Note_on_c, 10, 84, 0
1, 213540, Note_on_c, 1, 84, 105
1, 213540, Note_on_c, 10, 84, 91
1, 213785, Note_on_c, 1, 84, 0
1, 213785, Note_on_c, 10, 84, 0
1, 214080, Note_on_c, 1, 77, 105
1, 214080, Note_on_c, 10, 77, 91
1, 214380, Note_on_c, 1, 77, 0
1, 214380, Note_on_c, 10, 77, 0
1, 214500, Note_on_c, 1, 77, 105
1, 214500, Note_on_c, 10, 77, 91
1, 214800, Note_on_c, 1, 77, 0
1, 214800, Note_on_c, 10, 77, 0
1, 215040, Note_on_c, 1, 72, 105
1, 215040, Note_on_c, 10, 72, 91
1, 215340, Note_on_c, 1, 72, 0
1, 215340, Note_on_c, 10, 72, 0
1, 215460, Note_on_c, 1, 72, 105
1, 215460, Note_on_c, 10, 72, 91
1, 215760, Note_on_c, 1, 72, 0
1, 215760, Note_on_c, 2, 41, 0
1, 215760, Note_on_c, 10, 72, 0
1, 215880, Note_on_c, 12, 41, 0
1, 216000, Note_on_c, 1, 82, 105
1, 216000, Note_on_c, 3, 77, 81
1, 216000, Note_on_c, 3, 72, 0
1, 216000, Note_on_c, 10, 82, 91
1, 216060, Note_on_c, 2, 46, 86
1, 216060, Note_on_c, 12, 46, 102
1, 216300, Note_on_c, 1, 82, 0
1, 216300, Note_on_c, 10, 82, 0
1, 216420, Note_on_c, 1, 82, 105
1, 216420, Note_on_c, 10, 82, 91
1, 216665, Note_on_c, 1, 82, 0
1, 216665, Note_on_c, 10, 82, 0
1, 216960, Note_on_c, 1, 77, 105
1, 216960, Note_on_c, 10, 77, 91
1, 217260, Note_on_c, 1, 77, 0
1, 217260, Note_on_c, 10, 77, 0
1, 217260, Note_on_c, 12, 46, 0
1, 217380, Note_on_c, 1, 77, 105
1, 217380, Note_on_c, 2, 46, 0
1, 217380, Note_on_c, 10, 77, 91
1, 217440, Note_on_c, 2, 45, 86
1, 217440, Note_on_c, 12, 45, 102
1, 217680, Note_on_c, 1, 77, 0
1, 217680, Note_on_c, 10, 77, 0
1, 217920, Note_on_c, 1, 72, 105
1, 217920, Note_on_c, 3, 82, 81
1, 217920, Note_on_c, 3, 77, 0
1, 217920, Note_on_c, 10, 72, 91
1, 218220, Note_on_c, 1, 72, 0
1, 218220, Note_on_c, 10, 72, 0
1, 218340, Note_on_c, 1, 72, 105
1, 218340, Note_on_c, 10, 72, 91
1, 218640, Note_on_c, 1, 72, 0
1, 218640, Note_on_c, 10, 72, 0
1, 218760, Note_on_c, 12, 45, 0
1, 218820, Note_on_c, 2, 45, 0
1, 218880, Note_on_c, 1, 82, 105
1, 218880, Note_on_c, 2, 46, 86
1, 218880, Note_on_c, 10, 82, 91
1, 218880, Note_on_c, 12, 46, 102
1, 219000, Note_on_c, 3, 82, 0
1, 219060, Note_on_c, 3, 81, 81
1, 219180, Note_on_c, 1, 82, 0
1, 219180, Note_on_c, 10, 82, 0
1, 219300, Note_on_c, 1, 82, 105
1, 219300, Note_on_c, 10, 82, 91
1, 219545, Note_on_c, 1, 82, 0
1, 219545, Note_on_c, 10, 82, 0
1, 219840, Note_on_c, 1, 77, 105
1, 219840, Note_on_c, 10, 77, 91
1, 220140, Note_on_c, 1, 77, 0
1, 220140, Note_on_c, 10, 77, 0
1, 220200, Note_on_c, 3, 81, 0
1, 220260, Note_on_c, 1, 77, 105
1, 220260, Note_on_c, 3, 77, 81
1, 220260, Note_on_c, 10, 77, 91
1, 220560, Note_on_c, 1, 77, 0
1, 220560, Note_on_c, 10, 77, 0
1, 220800, Note_on_c, 1, 72, 105
1, 220800, Note_on_c, 10, 72, 91
1, 221100, Note_on_c, 1, 72, 0
1, 221100, Note_on_c, 10, 72, 0
1, 221220, Note_on_c, 1, 72, 105
1, 221220, Note_on_c, 10, 72, 91
1, 221520, Note_on_c, 1, 72, 0
1, 221520, Note_on_c, 3, 70, 81
1, 221520, Note_on_c, 3, 77, 0
1, 221520, Note_on_c, 10, 72, 0
1, 221760, Note_on_c, 1, 82, 105
1, 221760, Note_on_c, 6, 24, 76
1, 221760, Note_on_c, 10, 82, 91
1, 222060, Note_on_c, 1, 82, 0
1, 222060, Note_on_c, 10, 82, 0
1, 222180, Note_on_c, 1, 82, 105
1, 222180, Note_on_c, 10, 82, 91
1, 222425, Note_on_c, 1, 82, 0
1, 222425, Note_on_c, 10, 82, 0
1, 222720, Note_on_c, 1, 77, 105
1, 222720, Note_on_c, 10, 77, 91
1, 223020, Note_on_c, 1, 77, 0
1, 223020, Note_on_c, 10, 77, 0
1, 223140, Note_on_c, 1, 77, 105
1, 223140, Note_on_c, 10, 77, 91
1, 223440, Note_on_c, 1, 77, 0
1, 223440, Note_on_c, 10, 77, 0
1, 223680, Note_on_c, 1, 72, 105
1, 223680, Note_on_c, 10, 72, 91
1, 223980, Note_on_c, 1, 72, 0
1, 223980, Note_on_c, 10, 72, 0
1, 224100, Note_on_c, 1, 72, 105
1, 224100, Note_on_c, 10, 72, 91
1, 224400, Note_on_c, 1, 72, 0
1, 224400, Note_on_c, 10, 72, 0
1, 224640, Note_on_c, 1, 82, 105
1, 224640, Note_on_c, 7, 24, 0
1, 224640, Note_on_c, 10, 82, 91
1, 224940, Note_on_c, 1, 82, 0
1, 224940, Note_on_c, 10, 82, 0
1, 225060, Note_on_c, 1, 82, 105
1, 225060, Note_on_c, 10, 82, 91
1, 225305, Note_on_c, 1, 82, 0
1, 225305, Note_on_c, 10, 82, 0
1, 225600, Note_on_c, 1, 77, 105
1, 225600, Note_on_c, 3, 72, 81
1, 225600, Note_on_c, 10, 77, 91
1, 225720, Note_on_c, 3, 70, 0
1, 225900, Note_on_c, 1, 77, 0
1, 225900, Note_on_c, 10, 77, 0
1, 226020, Note_on_c, 1, 77, 105
1, 226020, Note_on_c, 10, 77, 91
1, 226320, Note_on_c, 1, 77, 0
1, 226320, Note_on_c, 10, 77, 0
1, 226560, Note_on_c, 1, 72, 105
1, 226560, Note_on_c, 10, 72, 91
1, 226860, Note_on_c, 1, 72, 0
1, 226860, Note_on_c, 10, 72, 0
1, 226980, Note_on_c, 1, 72, 105
1, 226980, Note_on_c, 10, 72, 91
1, 227280, Note_on_c, 1, 72, 0
1, 227280, Note_on_c, 10, 72, 0
1, 227520, Note_on_c, 1, 81, 105
1, 227520, Note_on_c, 10, 81, 91
1, 227820, Note_on_c, 1, 81, 0
1, 227820, Note_on_c, 10, 81, 0
1, 227940, Note_on_c, 1, 81, 105
1, 227940, Note_on_c, 10, 81, 91
1, 228185, Note_on_c, 1, 81, 0
1, 228185, Note_on_c, 10, 81, 0
1, 228360, Note_on_c, 2, 46, 0
1, 228360, Note_on_c, 12, 46, 0
1, 228480, Note_on_c, 1, 77, 105
1, 228480, Note_on_c, 2, 45, 86
1, 228480, Note_on_c, 10, 77, 91
1, 228480, Note_on_c, 12, 45, 102
1, 228500, Control_c, 4, 11, 121
1, 228500, Control_c, 13, 11, 121
1, 228740, Control_c, 4, 11, 116
1, 228740, Control_c, 13, 11, 116
1, 228780, Note_on_c, 1, 77, 0
1, 228780, Note_on_c, 10, 77, 0
1, 228900, Note_on_c, 1, 77, 105
1, 228900, Note_on_c, 10, 77, 91
1, 228980, Control_c, 4, 11, 111
1, 228980, Control_c, 13, 11, 111
1, 229200, Note_on_c, 1, 77, 0
1, 229200, Note_on_c, 10, 77, 0
1, 229220, Control_c, 4, 11, 105
1, 229220, Control_c, 13, 11, 105
1, 229320, Note_on_c, 12, 45, 0
1, 229380, Note_on_c, 2, 45, 0
1, 229380, Note_on_c, 3, 72, 0
1, 229440, Note_on_c, 1, 72, 105
1, 229440, Note_on_c, 2, 43, 86
1, 229440, Note_on_c, 3, 69, 64
1, 229440, Note_on_c, 10, 72, 91
1, 229440, Note_on_c, 12, 43, 102
1, 229460, Control_c, 4, 11, 100
1, 229460, Control_c, 13, 11, 100
1, 229680, Control_c, 4, 11, 95
1, 229680, Control_c, 13, 11, 95
1, 229740, Note_on_c, 1, 72, 0
1, 229740, Note_on_c, 10, 72, 0
1, 229860, Note_on_c, 1, 72, 105
1, 229860, Note_on_c, 10, 72, 91
1, 229920, Control_c, 4, 11, 89
1, 229920, Control_c, 13, 11, 89
1, 230160, Note_on_c, 1, 72, 0
1, 230160, Control_c, 4, 11, 84
1, 230160, Note_on_c, 10, 72, 0
1, 230160, Control_c, 13, 11, 84
1, 230280, Note_on_c, 12, 43, 0
1, 230340, Note_on_c, 2, 43, 0
1, 230400, Note_on_c, 1, 81, 105
1, 230400, Note_on_c, 2, 41, 86
1, 230400, Control_c, 4, 11, 79
1, 230400, Note_on_c, 10, 81, 91
1, 230400, Note_on_c, 12, 41, 102
1, 230400, Control_c, 13, 11, 79
1, 230640, Control_c, 4, 11, 74
1, 230640, Control_c, 13, 11, 74
1, 230700, Note_on_c, 1, 81, 0
1, 230700, Note_on_c, 10, 81, 0
1, 230820, Note_on_c, 1, 81, 105
1, 230820, Note_on_c, 10, 81, 91
1, 230880, Control_c, 4, 11, 68
1, 230880, Control_c, 13, 11, 68
1, 231065, Note_on_c, 1, 81, 0
1, 231065, Note_on_c, 10, 81, 0
1, 231120, Control_c, 4, 11, 63
1, 231120, Control_c, 13, 11, 63
1, 231360, Note_on_c, 1, 77, 105
1, 231360, Note_on_c, 3, 65, 64
1, 231360, Note_on_c, 3, 69, 0
1, 231360, Control_c, 4, 11, 58
1, 231360, Note_on_c, 10, 77, 91
1, 231360, Control_c, 13, 11, 58
1, 231600, Control_c, 4, 11, 52
1, 231600, Control_c, 13, 11, 52
1, 231660, Note_on_c, 1, 77, 0
1, 231660, Note_on_c, 10, 77, 0
1, 231780, Note_on_c, 1, 77, 105
1, 231780, Note_on_c, 10, 77, 91
1, 231840, Control_c, 4, 11, 47
1, 231840, Control_c, 13, 11, 47
1, 232080, Note_on_c, 1, 77, 0
1, 232080, Control_c, 4, 11, 42
1, 232080, Note_on_c, 10, 77, 0
1, 232080, Control_c, 13, 11, 42
1, 232320, Note_on_c, 1, 72, 105
1, 232320, Control_c, 4, 11, 37
1, 232320, Note_on_c, 10, 72, 91
1, 232320, Control_c, 13, 11, 37
1, 232560, Note_on_c, 3, 65, 0
1, 232560, Control_c, 4, 11, 31
1, 232560, Control_c, 13, 11, 31
1, 232620, Note_on_c, 1, 72, 0
1, 232620, Note_on_c, 3, 72, 64
1, 232620, Note_on_c, 10, 72, 0
1, 232740, Note_on_c, 1, 72, 105
1, 232740, Note_on_c, 10, 72, 91
1, 232860, Note_on_c, 4, 60, 0
1, 232860, Note_on_c, 13, 60, 0
1, 232980, Pitch_bend_c, 4, 8192
1, 232980, Pitch_bend_c, 13, 8192
1, 233040, Note_on_c, 1, 72, 0
1, 233040, Control_c, 4, 100, 0
1, 233040, Control_c, 4, 101, 0
1, 233040, Control_c, 4, 6, 24
1, 233040, Note_on_c, 10, 72, 0
1, 233040, Control_c, 13, 100, 0
1, 233040, Control_c, 13, 101, 0
1, 233040, Control_c, 13, 6, 24
1, 233100, Control_c, 4, 100, 127
1, 233100, Control_c, 4, 101, 127
1, 233100, Control_c, 13, 100, 127
1, 233100, Control_c, 13, 101, 127
1, 233240, Control_c, 4, 11, 31
1, 233240, Control_c, 13, 11, 31
1, 233280, Note_on_c, 1, 81, 105
1, 233280, Pitch_bend_c, 4, 8192
1, 233280, Control_c, 4, 11, 37
1, 233280, Note_on_c, 4, 48, 120
1, 233280, Note_on_c, 10, 81, 91
1, 233280, Pitch_bend_c, 13, 8192
1, 233280, Control_c, 13, 11, 37
1, 233280, Note_on_c, 13, 48, 120
1, 233400, Control_c, 4, 11, 42
1, 233400, Pitch_bend_c, 4, 8342
1, 233400, Control_c, 13, 11, 42
1, 233400, Pitch_bend_c, 13, 8342
1, 233520, Pitch_bend_c, 4, 8492
1, 233520, Control_c, 4, 11, 45
1, 233520, Pitch_bend_c, 13, 8492
1, 233520, Control_c, 13, 11, 45
1, 233580, Note_on_c, 1, 81, 0
1, 233580, Note_on_c, 10, 81, 0
1, 233640, Control_c, 4, 11, 48
1, 233640, Pitch_bend_c, 4, 8642
1, 233640, Control_c, 13, 11, 48
1, 233640, Pitch_bend_c, 13, 8642
1, 233700, Note_on_c, 1, 81, 105
1, 233700, Note_on_c, 10, 81, 91
1, 233760, Pitch_bend_c, 4, 8792
1, 233760, Pitch_bend_c, 13, 8792
1, 233880, Control_c, 4, 11, 51
1, 233880, Pitch_bend_c, 4, 8942
1, 233880, Control_c, 13, 11, 51
1, 233880, Pitch_bend_c, 13, 8942
1, 233945, Note_on_c, 1, 81, 0
1, 233945, Note_on_c, 10, 81, 0
1, 234000, Pitch_bend_c, 4, 9092
1, 234000, Pitch_bend_c, 13, 9092
1, 234120, Control_c, 4, 11, 55
1, 234120, Pitch_bend_c, 4, 9242
1, 234120, Control_c, 13, 11, 55
1, 234120, Pitch_bend_c, 13, 9242
1, 234240, Note_on_c, 1, 77, 105
1, 234240, Pitch_bend_c, 4, 9392
1, 234240, Note_on_c, 10, 77, 91
1, 234240, Pitch_bend_c, 13, 9392
1, 234360, Control_c, 4, 11, 58
1, 234360, Pitch_bend_c, 4, 9542
1, 234360, Control_c, 13, 11, 58
1, 234360, Pitch_bend_c, 13, 9542
1, 234480, Pitch_bend_c, 4, 9692
1, 234480, Pitch_bend_c, 13, 9692
1, 234540, Note_on_c, 1, 77, 0
1, 234540, Note_on_c, 10, 77, 0
1, 234600, Control_c, 4, 11, 61
1, 234600, Pitch_bend_c, 4, 9842
1, 234600, Control_c, 13, 11, 61
1, 234600, Pitch_bend_c, 13, 9842
1, 234660, Note_on_c, 1, 77, 105
1, 234660, Note_on_c, 10, 77, 91
1, 234720, Pitch_bend_c, 4, 9992
1, 234720, Pitch_bend_c, 13, 9992
1, 234840, Control_c, 4, 11, 64
1, 234840, Pitch_bend_c, 4, 10142
1, 234840, Control_c, 13, 11, 64
1, 234840, Pitch_bend_c, 13, 10142
1, 234900, Note_on_c, 3, 77, 81
1, 234900, Note_on_c, 3, 72, 0
1, 234960, Note_on_c, 1, 77, 0
1, 234960, Pitch_bend_c, 4, 10292
1, 234960, Note_on_c, 10, 77, 0
1, 234960, Pitch_bend_c, 13, 10292
1, 235080, Control_c, 4, 11, 67
1, 235080, Pitch_bend_c, 4, 10442
1, 235080, Control_c, 13, 11, 67
1, 235080, Pitch_bend_c, 13, 10442
1, 235200, Note_on_c, 1, 72, 105
1, 235200, Pitch_bend_c, 4, 10592
1, 235200, Note_on_c, 10, 72, 91
1, 235200, Pitch_bend_c, 13, 10592
1, 235320, Control_c, 4, 11, 70
1, 235320, Pitch_bend_c, 4, 10742
1, 235320, Control_c, 13, 11, 70
1, 235320, Pitch_bend_c, 13, 10742
1, 235440, Pitch_bend_c, 4, 10892
1, 235440, Pitch_bend_c, 13, 10892
1, 235500, Note_on_c, 1, 72, 0
1, 235500, Note_on_c, 10, 72, 0
1, 235560, Control_c, 4, 11, 74
1, 235560, Pitch_bend_c, 4, 11042
1, 235560, Control_c, 13, 11, 74
1, 235560, Pitch_bend_c, 13, 11042
1, 235620, Note_on_c, 1, 72, 105
1, 235620, Note_on_c, 10, 72, 91
1, 235680, Pitch_bend_c, 4, 11192
1, 235680, Pitch_bend_c, 13, 11192
1, 235800, Control_c, 4, 11, 77
1, 235800, Pitch_bend_c, 4, 11342
1, 235800, Control_c, 13, 11, 77
1, 235800, Pitch_bend_c, 13, 11342
1, 235920, Note_on_c, 1, 72, 0
1, 235920, Pitch_bend_c, 4, 11492
1, 235920, Note_on_c, 10, 72, 0
1, 235920, Pitch_bend_c, 13, 11492
1, 236040, Control_c, 4, 11, 80
1, 236040, Pitch_bend_c, 4, 11642
1, 236040, Control_c, 13, 11, 80
1, 236040, Pitch_bend_c, 13, 11642
1, 236160, Note_on_c, 1, 81, 105
1, 236160, Pitch_bend_c, 4, 11792
1, 236160, Note_on_c, 10, 81, 91
1, 236160, Pitch_bend_c, 13, 11792
1, 236280, Control_c, 4, 11, 83
1, 236280, Pitch_bend_c, 4, 11942
1, 236280, Control_c, 13, 11, 83
1, 236280, Pitch_bend_c, 13, 11942
1, 236400, Pitch_bend_c, 4, 12092
1, 236400, Pitch_bend_c, 13, 12092
1, 236460, Note_on_c, 1, 81, 0
1, 236460, Note_on_c, 10, 81, 0
1, 236520, Control_c, 4, 11, 86
1, 236520, Pitch_bend_c, 4, 12242
1, 236520, Control_c, 13, 11, 86
1, 236520, Pitch_bend_c, 13, 12242
1, 236580, Note_on_c, 1, 81, 105
1, 236580, Note_on_c, 10, 81, 91
1, 236640, Pitch_bend_c, 4, 12392
1, 236640, Pitch_bend_c, 13, 12392
1, 236760, Control_c, 4, 11, 89
1, 236760, Pitch_bend_c, 4, 12542
1, 236760, Control_c, 13, 11, 89
1, 236760, Pitch_bend_c, 13, 12542
1, 236825, Note_on_c, 1, 81, 0
1, 236825, Note_on_c, 10, 81, 0
1, 236880, Pitch_bend_c, 4, 12692
1, 236880, Pitch_bend_c, 13, 12692
1, 237000, Control_c, 4, 11, 93
1, 237000, Pitch_bend_c, 4, 12842
1, 237000, Control_c, 13, 11, 93
1, 237000, Pitch_bend_c, 13, 12842
1, 237120, Note_on_c, 1, 77, 105
1, 237120, Pitch_bend_c, 4, 12992
1, 237120, Note_on_c, 10, 77, 91
1, 237120, Pitch_bend_c, 13, 12992
1, 237240, Control_c, 4, 11, 96
1, 237240, Pitch_bend_c, 4, 13142
1, 237240, Control_c, 13, 11, 96
1, 237240, Pitch_bend_c, 13, 13142
1, 237360, Pitch_bend_c, 4, 13292
1, 237360, Pitch_bend_c, 13, 13292
1, 237420, Note_on_c, 1, 77, 0
1, 237420, Note_on_c, 10, 77, 0
1, 237480, Control_c, 4, 11, 99
1, 237480, Pitch_bend_c, 4, 13442
1, 237480, Control_c, 13, 11, 99
1, 237480, Pitch_bend_c, 13, 13442
1, 237540, Note_on_c, 1, 77, 105
1, 237540, Note_on_c, 10, 77, 91
1, 237600, Pitch_bend_c, 4, 13592
1, 237600, Pitch_bend_c, 13, 13592
1, 237720, Control_c, 4, 11, 102
1, 237720, Pitch_bend_c, 4, 13842
1, 237720, Control_c, 13, 11, 102
1, 237720, Pitch_bend_c, 13, 13842
1, 237840, Note_on_c, 1, 77, 0
1, 237840, Pitch_bend_c, 4, 13892
1, 237840, Note_on_c, 10, 77, 0
1, 237840, Pitch_bend_c, 13, 13892
1, 237960, Control_c, 4, 11, 105
1, 237960, Pitch_bend_c, 4, 14042
1, 237960, Control_c, 13, 11, 105
1, 237960, Pitch_bend_c, 13, 14042
1, 238080, Note_on_c, 1, 72, 105
1, 238080, Pitch_bend_c, 4, 14192
1, 238080, Note_on_c, 10, 72, 91
1, 238080, Pitch_bend_c, 13, 14192
1, 238200, Control_c, 4, 11, 109
1, 238200, Pitch_bend_c, 4, 14342
1, 238200, Control_c, 13, 11, 109
1, 238200, Pitch_bend_c, 13, 14342
1, 238320, Pitch_bend_c, 4, 14492
1, 238320, Pitch_bend_c, 13, 14492
1, 238380, Note_on_c, 1, 72, 0
1, 238380, Note_on_c, 10, 72, 0
1, 238440, Control_c, 4, 11, 112
1, 238440, Pitch_bend_c, 4, 14642
1, 238440, Control_c, 13, 11, 112
1, 238440, Pitch_bend_c, 13, 14642
1, 238500, Note_on_c, 1, 72, 105
1, 238500, Note_on_c, 10, 72, 91
1, 238560, Pitch_bend_c, 4, 14792
1, 238560, Pitch_bend_c, 13, 14792
1, 238680, Control_c, 4, 11, 115
1, 238680, Pitch_bend_c, 4, 14942
1, 238680, Control_c, 13, 11, 115
1, 238680, Pitch_bend_c, 13, 14942
1, 238800, Note_on_c, 1, 72, 0
1, 238800, Note_on_c, 2, 41, 0
1, 238800, Pitch_bend_c, 4, 15092
1, 238800, Note_on_c, 10, 72, 0
1, 238800, Pitch_bend_c, 13, 15092
1, 238920, Control_c, 4, 11, 118
1, 238920, Pitch_bend_c, 4, 15242
1, 238920, Note_on_c, 12, 41, 0
1, 238920, Control_c, 13, 11, 118
1, 238920, Pitch_bend_c, 13, 15242
1, 239040, Note_on_c, 1, 84, 105
1, 239040, Note_on_c, 2, 43, 86
1, 239040, Pitch_bend_c, 4, 15392
1, 239040, Note_on_c, 10, 84, 91
1, 239040, Note_on_c, 11, 60, 108
1, 239040, Note_on_c, 12, 43, 102
1, 239040, Pitch_bend_c, 13, 15392
1, 239160, Control_c, 4, 11, 121
1, 239160, Pitch_bend_c, 4, 15542
1, 239160, Control_c, 13, 11, 121
1, 239160, Pitch_bend_c, 13, 15542
1, 239280, Pitch_bend_c, 4, 15692
1, 239280, Pitch_bend_c, 13, 15692
1, 239340, Note_on_c, 1, 84, 0
1, 239340, Note_on_c, 10, 84, 0
1, 239400, Control_c, 4, 11, 124
1, 239400, Pitch_bend_c, 4, 15842
1, 239400, Control_c, 13, 11, 124
1, 239400, Pitch_bend_c, 13, 15842
1, 239460, Note_on_c, 1, 84, 105
1, 239460, Note_on_c, 10, 84, 91
1, 239520, Pitch_bend_c, 4, 15992
1, 239520, Pitch_bend_c, 13, 15992
1, 239640, Control_c, 4, 11, 127
1, 239640, Pitch_bend_c, 4, 16142
1, 239640, Control_c, 13, 11, 127
1, 239640, Pitch_bend_c, 13, 16142
1, 239705, Note_on_c, 1, 84, 0
1, 239705, Note_on_c, 10, 84, 0
1, 239760, Pitch_bend_c, 4, 16383
1, 239760, Pitch_bend_c, 13, 16383
1, 240000, Note_on_c, 1, 79, 105
1, 240000, Note_on_c, 3, 76, 81
1, 240000, Note_on_c, 3, 77, 0
1, 240000, Note_on_c, 8, 79, 70
1, 240000, Note_on_c, 10, 79, 91
1, 240000, Note_on_c, 11, 64, 108
1, 240300, Note_on_c, 1, 79, 0
1, 240300, Note_on_c, 10, 79, 0
1, 240420, Note_on_c, 1, 79, 105
1, 240420, Note_on_c, 10, 79, 91
1, 240720, Note_on_c, 1, 79, 0
1, 240720, Note_on_c, 10, 79, 0
1, 240840, Note_on_c, 12, 43, 0
1, 240900, Note_on_c, 2, 43, 0
1, 240900, Note_on_c, 8, 77, 70
1, 240960, Note_on_c, 1, 72, 105
1, 240960, Note_on_c, 2, 48, 86
1, 240960, Note_on_c, 3, 77, 81
1, 240960, Note_on_c, 3, 76, 0
1, 240960, Note_on_c, 10, 72, 91
1, 240960, Note_on_c, 11, 67, 108
1, 240960, Note_on_c, 12, 48, 102
1, 241020, Note_on_c, 8, 79, 0
1, 241260, Note_on_c, 1, 72, 0
1, 241260, Note_on_c, 10, 72, 0
1, 241380, Note_on_c, 1, 72, 105
1, 241380, Note_on_c, 10, 72, 91
1, 241680, Note_on_c, 1, 72, 0
1, 241680, Note_on_c, 10, 72, 0
1, 241920, Note_on_c, 1, 84, 105
1, 241920, Note_on_c, 3, 79, 81
1, 241920, Note_on_c, 3, 77, 0
1, 241920, Note_on_c, 8, 76, 70
1, 241920, Note_on_c, 10, 84, 91
1, 241920, Note_on_c, 11, 72, 108
1, 242100, Note_on_c, 8, 77, 0
1, 242220, Note_on_c, 1, 84, 0
1, 242220, Note_on_c, 10, 84, 0
1, 242340, Note_on_c, 1, 84, 105
1, 242340, Note_on_c, 10, 84, 91
1, 242585, Note_on_c, 1, 84, 0
1, 242585, Note_on_c, 10, 84, 0
1, 242880, Note_on_c, 1, 79, 105
1, 242880, Note_on_c, 10, 79, 91
1, 243180, Note_on_c, 1, 79, 0
1, 243180, Note_on_c, 10, 79, 0
1, 243300, Note_on_c, 1, 79, 105
1, 243300, Note_on_c, 10, 79, 91
1, 243600, Note_on_c, 1, 79, 0
1, 243600, Note_on_c, 10, 79, 0
1, 243840, Note_on_c, 1, 72, 105
1, 243840, Note_on_c, 3, 72, 81
1, 243840, Note_on_c, 3, 79, 0
1, 243840, Note_on_c, 10, 72, 91
1, 244140, Note_on_c, 1, 72, 0
1, 244140, Note_on_c, 10, 72, 0
1, 244260, Note_on_c, 1, 72, 105
1, 244260, Note_on_c, 10, 72, 91
1, 244560, Note_on_c, 1, 72, 0
1, 244560, Note_on_c, 10, 72, 0
1, 244800, Note_on_c, 1, 84, 105
1, 244800, Note_on_c, 3, 67, 81
1, 244800, Note_on_c, 3, 72, 0
1, 244800, Note_on_c, 10, 84, 91
1, 245100, Note_on_c, 1, 84, 0
1, 245100, Note_on_c, 10, 84, 0
1, 245220, Note_on_c, 1, 84, 105
1, 245220, Note_on_c, 10, 84, 91
1, 245465, Note_on_c, 1, 84, 0
1, 245465, Note_on_c, 10, 84, 0
1, 245760, Note_on_c, 1, 79, 105
1, 245760, Note_on_c, 3, 76, 81
1, 245760, Note_on_c, 3, 67, 0
1, 245760, Note_on_c, 10, 79, 91
1, 246060, Note_on_c, 1, 79, 0
1, 246060, Note_on_c, 10, 79, 0
1, 246180, Note_on_c, 1, 79, 105
1, 246180, Note_on_c, 10, 79, 91
1, 246480, Note_on_c, 1, 79, 0
1, 246480, Note_on_c, 10, 79, 0
1, 246720, Note_on_c, 1, 72, 105
1, 246720, Note_on_c, 3, 74, 81
1, 246720, Note_on_c, 3, 76, 0
1, 246720, Note_on_c, 10, 72, 91
1, 247020, Note_on_c, 1, 72, 0
1, 247020, Note_on_c, 10, 72, 0
1, 247140, Note_on_c, 1, 72, 105
1, 247140, Note_on_c, 10, 72, 91
1, 247440, Note_on_c, 1, 72, 0
1, 247440, Note_on_c, 10, 72, 0
1, 247680, Note_on_c, 1, 84, 105
1, 247680, Note_on_c, 3, 76, 81
1, 247680, Note_on_c, 3, 74, 0
1, 247680, Note_on_c, 10, 84, 91
1, 247980, Note_on_c, 1, 84, 0
1, 247980, Note_on_c, 10, 84, 0
1, 248100, Note_on_c, 1, 84, 105
1, 248100, Note_on_c, 10, 84, 91
1, 248345, Note_on_c, 1, 84, 0
1, 248345, Note_on_c, 10, 84, 0
1, 248640, Note_on_c, 1, 79, 105
1, 248640, Note_on_c, 8, 74, 70
1, 248640, Note_on_c, 10, 79, 91
1, 248700, Note_on_c, 8, 76, 0
1, 248940, Note_on_c, 1, 79, 0
1, 248940, Note_on_c, 10, 79, 0
1, 249060, Note_on_c, 1, 79, 105
1, 249060, Note_on_c, 10, 79, 91
1, 249360, Note_on_c, 1, 79, 0
1, 249360, Note_on_c, 10, 79, 0
1, 249600, Note_on_c, 1, 72, 105
1, 249600, Note_on_c, 8, 76, 70
1, 249600, Note_on_c, 10, 72, 91
1, 249660, Note_on_c, 8, 74, 0
1, 249900, Note_on_c, 1, 72, 0
1, 249900, Note_on_c, 10, 72, 0
1, 250020, Note_on_c, 1, 72, 105
1, 250020, Note_on_c, 10, 72, 91
1, 250200, Note_on_c, 2, 48, 0
1, 250320, Note_on_c, 1, 72, 0
1, 250320, Note_on_c, 10, 72, 0
1, 250440, Note_on_c, 12, 48, 0
1, 250560, Note_on_c, 1, 84, 105
1, 250560, Note_on_c, 2, 41, 86
1, 250560, Note_on_c, 8, 77, 70
1, 250560, Note_on_c, 10, 84, 91
1, 250560, Note_on_c, 11, 60, 108
1, 250560, Note_on_c, 11, 72, 0
1, 250560, Note_on_c, 11, 67, 0
1, 250560, Note_on_c, 11, 60, 0
1, 250560, Note_on_c, 11, 64, 0
1, 250560, Note_on_c, 12, 41, 102
1, 250620, Note_on_c, 8, 76, 0
1, 250860, Note_on_c, 1, 84, 0
1, 250860, Note_on_c, 10, 84, 0
1, 250980, Note_on_c, 1, 84, 105
1, 250980, Note_on_c, 10, 84, 91
1, 251225, Note_on_c, 1, 84, 0
1, 251225, Note_on_c, 10, 84, 0
1, 251280, Control_c, 4, 11, 116
1, 251280, Control_c, 13, 11, 116
1, 251520, Note_on_c, 1, 77, 105
1, 251520, Control_c, 4, 11, 105
1, 251520, Note_on_c, 10, 77, 91
1, 251520, Note_on_c, 11, 65, 108
1, 251520, Control_c, 13, 11, 105
1, 251760, Control_c, 4, 11, 95
1, 251760, Control_c, 13, 11, 95
1, 251820, Note_on_c, 1, 77, 0
1, 251820, Note_on_c, 10, 77, 0
1, 251940, Note_on_c, 1, 77, 105
1, 251940, Note_on_c, 10, 77, 91
1, 252000, Control_c, 4, 11, 84
1, 252000, Control_c, 13, 11, 84
1, 252240, Note_on_c, 1, 77, 0
1, 252240, Control_c, 4, 11, 74
1, 252240, Note_on_c, 10, 77, 0
1, 252240, Control_c, 13, 11, 74
1, 252360, Note_on_c, 12, 41, 0
1, 252480, Note_on_c, 1, 72, 105
1, 252480, Note_on_c, 2, 53, 81
1, 252480, Note_on_c, 3, 77, 81
1, 252480, Note_on_c, 3, 76, 0
1, 252480, Control_c, 4, 11, 63
1, 252480, Note_on_c, 10, 72, 91
1, 252480, Note_on_c, 11, 69, 108
1, 252480, Note_on_c, 12, 53, 102
1, 252480, Control_c, 13, 11, 63
1, 252540, Note_on_c, 2, 41, 0
1, 252720, Control_c, 4, 11, 52
1, 252720, Control_c, 13, 11, 52
1, 252780, Note_on_c, 1, 72, 0
1, 252780, Note_on_c, 10, 72, 0
1, 252900, Note_on_c, 1, 72, 105
1, 252900, Note_on_c, 10, 72, 91
1, 252960, Control_c, 4, 11, 42
1, 252960, Control_c, 13, 11, 42
1, 253080, Note_on_c, 4, 48, 0
1, 253080, Note_on_c, 13, 48, 0
1, 253200, Note_on_c, 1, 72, 0
1, 253200, Note_on_c, 10, 72, 0
1, 253260, Control_c, 4, 100, 0
1, 253260, Control_c, 4, 101, 0
1, 253260, Control_c, 4, 6, 12
1, 253260, Control_c, 13, 100, 0
1, 253260, Control_c, 13, 101, 0
1, 253260, Control_c, 13, 6, 12
1, 253320, Control_c, 4, 101, 127
1, 253320, Control_c, 4, 100, 127
1, 253320, Control_c, 13, 101, 127
1, 253320, Control_c, 13, 100, 127
1, 253380, Pitch_bend_c, 4, 8192
1, 253380, Pitch_bend_c, 13, 8192
1, 253400, Control_c, 4, 11, 31
1, 253400, Control_c, 13, 11, 31
1, 253440, Note_on_c, 1, 84, 105
1, 253440, Pitch_bend_c, 4, 8192
1, 253440, Note_on_c, 4, 60, 120
1, 253440, Note_on_c, 10, 84, 91
1, 253440, Note_on_c, 11, 72, 108
1, 253440, Pitch_bend_c, 13, 8192
1, 253440, Note_on_c, 13, 60, 120
1, 253560, Control_c, 4, 11, 34
1, 253560, Control_c, 13, 11, 34
1, 253680, Pitch_bend_c, 4, 8492
1, 253680, Pitch_bend_c, 13, 8492
1, 253740, Note_on_c, 1, 84, 0
1, 253740, Note_on_c, 10, 84, 0
1, 253800, Control_c, 4, 11, 38
1, 253800, Control_c, 13, 11, 38
1, 253860, Note_on_c, 1, 84, 105
1, 253860, Note_on_c, 10, 84, 91
1, 253920, Pitch_bend_c, 4, 8792
1, 253920, Pitch_bend_c, 13, 8792
1, 254040, Control_c, 4, 11, 41
1, 254040, Control_c, 13, 11, 41
1, 254105, Note_on_c, 1, 84, 0
1, 254105, Note_on_c, 10, 84, 0
1, 254160, Pitch_bend_c, 4, 9092
1, 254160, Pitch_bend_c, 13, 9092
1, 254280, Control_c, 4, 11, 44
1, 254280, Control_c, 13, 11, 44
1, 254400, Note_on_c, 1, 77, 105
1, 254400, Pitch_bend_c, 4, 9392
1, 254400, Note_on_c, 10, 77, 91
1, 254400, Pitch_bend_c, 13, 9392
1, 254520, Control_c, 4, 11, 47
1, 254520, Control_c, 13, 11, 47
1, 254640, Pitch_bend_c, 4, 9692
1, 254640, Pitch_bend_c, 13, 9692
1, 254700, Note_on_c, 1, 77, 0
1, 254700, Note_on_c, 10, 77, 0
1, 254760, Control_c, 4, 11, 50
1, 254760, Control_c, 13, 11, 50
1, 254820, Note_on_c, 1, 77, 105
1, 254820, Note_on_c, 10, 77, 91
1, 254880, Pitch_bend_c, 4, 9992
1, 254880, Pitch_bend_c, 13, 9992
1, 255000, Control_c, 4, 11, 53
1, 255000, Control_c, 13, 11, 53
1, 255120, Note_on_c, 1, 77, 0
1, 255120, Pitch_bend_c, 4, 10292
1, 255120, Note_on_c, 10, 77, 0
1, 255120, Pitch_bend_c, 13, 10292
1, 255240, Control_c, 4, 11, 57
1, 255240, Control_c, 13, 11, 57
1, 255360, Note_on_c, 1, 72, 105
1, 255360, Note_on_c, 3, 72, 81
1, 255360, Note_on_c, 3, 77, 0
1, 255360, Pitch_bend_c, 4, 10592
1, 255360, Note_on_c, 10, 72, 91
1, 255360, Pitch_bend_c, 13, 10592
1, 255480, Control_c, 4, 11, 60
1, 255480, Control_c, 13, 11, 60
1, 255600, Pitch_bend_c, 4, 10892
1, 255600, Pitch_bend_c, 13, 10892
1, 255660, Note_on_c, 1, 72, 0
1, 255660, Note_on_c, 10, 72, 0
1, 255720, Control_c, 4, 11, 63
1, 255720, Control_c, 13, 11, 63
1, 255780, Note_on_c, 1, 72, 105
1, 255780, Note_on_c, 10, 72, 91
1, 255840, Pitch_bend_c, 4, 11192
1, 255840, Pitch_bend_c, 13, 11192
1, 255960, Control_c, 4, 11, 66
1, 255960, Control_c, 13, 11, 66
1, 256080, Note_on_c, 1, 72, 0
1, 256080, Pitch_bend_c, 4, 11492
1, 256080, Note_on_c, 10, 72, 0
1, 256080, Pitch_bend_c, 13, 11492
1, 256200, Control_c, 4, 11, 69
1, 256200, Control_c, 13, 11, 69
1, 256320, Note_on_c, 1, 84, 105
1, 256320, Pitch_bend_c, 4, 11792
1, 256320, Note_on_c, 10, 84, 91
1, 256320, Pitch_bend_c, 13, 11792
1, 256440, Control_c, 4, 11, 73
1, 256440, Control_c, 13, 11, 73
1, 256560, Pitch_bend_c, 4, 12092
1, 256560, Pitch_bend_c, 13, 12092
1, 256620, Note_on_c, 1, 84, 0
1, 256620, Note_on_c, 10, 84, 0
1, 256680, Control_c, 4, 11, 76
1, 256680, Control_c, 13, 11, 76
1, 256740, Note_on_c, 1, 84, 105
1, 256740, Note_on_c, 10, 84, 91
1, 256800, Pitch_bend_c, 4, 12392
1, 256800, Pitch_bend_c, 13, 12392
1, 256920, Control_c, 4, 11, 79
1, 256920, Control_c, 13, 11, 79
1, 256985, Note_on_c, 1, 84, 0
1, 256985, Note_on_c, 10, 84, 0
1, 257040, Pitch_bend_c, 4, 12692
1, 257040, Pitch_bend_c, 13, 12692
1, 257160, Control_c, 4, 11, 82
1, 257160, Control_c, 13, 11, 82
1, 257280, Note_on_c, 1, 77, 105
1, 257280, Pitch_bend_c, 4, 12992
1, 257280, Note_on_c, 10, 77, 91
1, 257280, Pitch_bend_c, 13, 12992
1, 257400, Control_c, 4, 11, 85
1, 257400, Control_c, 13, 11, 85
1, 257520, Pitch_bend_c, 4, 13292
1, 257520, Pitch_bend_c, 13, 13292
1, 257580, Note_on_c, 1, 77, 0
1, 257580, Note_on_c, 10, 77, 0
1, 257640, Control_c, 4, 11, 88
1, 257640, Control_c, 13, 11, 88
1, 257700, Note_on_c, 1, 77, 105
1, 257700, Note_on_c, 10, 77, 91
1, 257760, Pitch_bend_c, 4, 13592
1, 257760, Pitch_bend_c, 13, 13592
1, 257880, Control_c, 4, 11, 92
1, 257880, Control_c, 13, 11, 92
1, 258000, Note_on_c, 1, 77, 0
1, 258000, Pitch_bend_c, 4, 13892
1, 258000, Note_on_c, 10, 77, 0
1, 258000, Pitch_bend_c, 13, 13892
1, 258120, Control_c, 4, 11, 95
1, 258120, Control_c, 13, 11, 95
1, 258240, Note_on_c, 1, 72, 105
1, 258240, Pitch_bend_c, 4, 14192
1, 258240, Note_on_c, 10, 72, 91
1, 258240, Pitch_bend_c, 13, 14192
1, 258360, Control_c, 4, 11, 98
1, 258360, Control_c, 13, 11, 98
1, 258480, Pitch_bend_c, 4, 14492
1, 258480, Pitch_bend_c, 13, 14492
1, 258540, Note_on_c, 1, 72, 0
1, 258540, Note_on_c, 10, 72, 0
1, 258600, Control_c, 4, 11, 101
1, 258600, Control_c, 13, 11, 101
1, 258660, Note_on_c, 1, 72, 105
1, 258660, Note_on_c, 10, 72, 91
1, 258720, Pitch_bend_c, 4, 14792
1, 258720, Pitch_bend_c, 13, 14792
1, 258840, Control_c, 4, 11, 104
1, 258840, Control_c, 13, 11, 104
1, 258960, Note_on_c, 1, 72, 0
1, 258960, Pitch_bend_c, 4, 15092
1, 258960, Note_on_c, 10, 72, 0
1, 258960, Pitch_bend_c, 13, 15092
1, 259100, Control_c, 4, 11, 107
1, 259100, Control_c, 13, 11, 107
1, 259200, Note_on_c, 1, 84, 105
1, 259200, Pitch_bend_c, 4, 15392
1, 259200, Note_on_c, 10, 84, 91
1, 259200, Pitch_bend_c, 13, 15392
1, 259320, Control_c, 4, 11, 111
1, 259320, Control_c, 13, 11, 111
1, 259440, Pitch_bend_c, 4, 15692
1, 259440, Pitch_bend_c, 13, 15692
1, 259500, Note_on_c, 1, 84, 0
1, 259500, Note_on_c, 10, 84, 0
1, 259560, Control_c, 4, 11, 114
1, 259560, Control_c, 13, 11, 114
1, 259620, Note_on_c, 1, 84, 105
1, 259620, Note_on_c, 10, 84, 91
1, 259680, Pitch_bend_c, 4, 15992
1, 259680, Pitch_bend_c, 13, 15992
1, 259800, Control_c, 4, 11, 117
1, 259800, Control_c, 13, 11, 117
1, 259865, Note_on_c, 1, 84, 0
1, 259865, Note_on_c, 10, 84, 0
1, 259920, Pitch_bend_c, 4, 16383
1, 259920, Pitch_bend_c, 13, 16383
1, 260040, Control_c, 4, 11, 120
1, 260040, Control_c, 13, 11, 120
1, 260160, Note_on_c, 1, 77, 105
1, 260160, Note_on_c, 10, 77, 91
1, 260280, Control_c, 4, 11, 123
1, 260280, Control_c, 13, 11, 123
1, 260460, Note_on_c, 1, 77, 0
1, 260460, Note_on_c, 10, 77, 0
1, 260580, Note_on_c, 1, 77, 105
1, 260580, Control_c, 4, 11, 127
1, 260580, Note_on_c, 10, 77, 91
1, 260580, Control_c, 13, 11, 127
1, 260880, Note_on_c, 1, 77, 0
1, 260880, Note_on_c, 10, 77, 0
1, 261120, Note_on_c, 1, 72, 105
1, 261120, Note_on_c, 10, 72, 91
1, 261420, Note_on_c, 1, 72, 0
1, 261420, Note_on_c, 10, 72, 0
1, 261540, Note_on_c, 1, 72, 105
1, 261540, Note_on_c, 10, 72, 91
1, 261840, Note_on_c, 1, 72, 0
1, 261840, Note_on_c, 10, 72, 0
1, 261900, Note_on_c, 2, 53, 0
1, 261900, Note_on_c, 12, 53, 0
1, 262020, Note_on_c, 11, 60, 0
1, 262080, Note_on_c, 1, 82, 105
1, 262080, Note_on_c, 3, 77, 81
1, 262080, Note_on_c, 3, 72, 0
1, 262080, Note_on_c, 10, 82, 91
1, 262080, Note_on_c, 11, 58, 108
1, 262080, Note_on_c, 11, 65, 0
1, 262080, Note_on_c, 11, 72, 0
1, 262080, Note_on_c, 11, 69, 0
1, 262140, Note_on_c, 2, 46, 86
1, 262140, Note_on_c, 12, 46, 102
1, 262380, Note_on_c, 1, 82, 0
1, 262380, Note_on_c, 10, 82, 0
1, 262500, Note_on_c, 1, 82, 105
1, 262500, Note_on_c, 10, 82, 91
1, 262745, Note_on_c, 1, 82, 0
1, 262745, Note_on_c, 10, 82, 0
1, 263040, Note_on_c, 1, 77, 105
1, 263040, Note_on_c, 10, 77, 91
1, 263040, Note_on_c, 11, 62, 108
1, 263340, Note_on_c, 1, 77, 0
1, 263340, Note_on_c, 2, 46, 0
1, 263340, Note_on_c, 10, 77, 0
1, 263340, Note_on_c, 12, 46, 0
1, 263460, Note_on_c, 1, 77, 105
1, 263460, Note_on_c, 10, 77, 91
1, 263520, Note_on_c, 2, 45, 86
1, 263520, Note_on_c, 12, 45, 102
1, 263760, Note_on_c, 1, 77, 0
1, 263760, Note_on_c, 10, 77, 0
1, 264000, Note_on_c, 1, 72, 105
1, 264000, Note_on_c, 3, 82, 81
1, 264000, Note_on_c, 3, 77, 0
1, 264000, Note_on_c, 10, 72, 91
1, 264000, Note_on_c, 11, 65, 108
1, 264300, Note_on_c, 1, 72, 0
1, 264300, Note_on_c, 10, 72, 0
1, 264420, Note_on_c, 1, 72, 105
1, 264420, Note_on_c, 10, 72, 91
1, 264720, Note_on_c, 1, 72, 0
1, 264720, Note_on_c, 10, 72, 0
1, 264780, Note_on_c, 2, 45, 0
1, 264840, Note_on_c, 12, 45, 0
1, 264960, Note_on_c, 1, 82, 105
1, 264960, Note_on_c, 2, 46, 86
1, 264960, Note_on_c, 10, 82, 91
1, 264960, Note_on_c, 11, 70, 108
1, 264960, Note_on_c, 12, 46, 102
1, 265080, Note_on_c, 3, 82, 0
1, 265140, Note_on_c, 3, 81, 81
1, 265260, Note_on_c, 1, 82, 0
1, 265260, Note_on_c, 10, 82, 0
1, 265380, Note_on_c, 1, 82, 105
1, 265380, Note_on_c, 10, 82, 91
1, 265625, Note_on_c, 1, 82, 0
1, 265625, Note_on_c, 10, 82, 0
1, 265920, Note_on_c, 1, 77, 105
1, 265920, Note_on_c, 8, 82, 70
1, 265920, Note_on_c, 8, 77, 0
1, 265920, Note_on_c, 10, 77, 91
1, 266220, Note_on_c, 1, 77, 0
1, 266220, Note_on_c, 10, 77, 0
1, 266280, Note_on_c, 3, 81, 0
1, 266340, Note_on_c, 1, 77, 105
1, 266340, Note_on_c, 3, 77, 81
1, 266340, Note_on_c, 10, 77, 91
1, 266640, Note_on_c, 1, 77, 0
1, 266640, Note_on_c, 10, 77, 0
1, 266880, Note_on_c, 1, 72, 105
1, 266880, Note_on_c, 8, 81, 70
1, 266880, Note_on_c, 10, 72, 91
1, 267000, Note_on_c, 8, 82, 0
1, 267180, Note_on_c, 1, 72, 0
1, 267180, Note_on_c, 10, 72, 0
1, 267300, Note_on_c, 1, 72, 105
1, 267300, Note_on_c, 10, 72, 91
1, 267600, Note_on_c, 1, 72, 0
1, 267600, Note_on_c, 3, 70, 81
1, 267600, Note_on_c, 3, 77, 0
1, 267600, Note_on_c, 10, 72, 0
1, 267840, Note_on_c, 1, 82, 105
1, 267840, Note_on_c, 8, 70, 70
1, 267840, Note_on_c, 10, 82, 91
1, 267900, Note_on_c, 8, 81, 0
1, 268140, Note_on_c, 1, 82, 0
1, 268140, Note_on_c, 10, 82, 0
1, 268260, Note_on_c, 1, 82, 105
1, 268260, Note_on_c, 10, 82, 91
1, 268505, Note_on_c, 1, 82, 0
1, 268505, Note_on_c, 10, 82, 0
1, 268800, Note_on_c, 1, 77, 105
1, 268800, Note_on_c, 10, 77, 91
1, 269100, Note_on_c, 1, 77, 0
1, 269100, Note_on_c, 10, 77, 0
1, 269220, Note_on_c, 1, 77, 105
1, 269220, Note_on_c, 10, 77, 91
1, 269520, Note_on_c, 1, 77, 0
1, 269520, Note_on_c, 10, 77, 0
1, 269760, Note_on_c, 1, 72, 105
1, 269760, Note_on_c, 10, 72, 91
1, 270060, Note_on_c, 1, 72, 0
1, 270060, Note_on_c, 10, 72, 0
1, 270180, Note_on_c, 1, 72, 105
1, 270180, Note_on_c, 10, 72, 91
1, 270480, Note_on_c, 1, 72, 0
1, 270480, Note_on_c, 10, 72, 0
1, 270720, Note_on_c, 1, 82, 105
1, 270720, Note_on_c, 10, 82, 91
1, 271020, Note_on_c, 1, 82, 0
1, 271020, Note_on_c, 10, 82, 0
1, 271140, Note_on_c, 1, 82, 105
1, 271140, Note_on_c, 10, 82, 91
1, 271385, Note_on_c, 1, 82, 0
1, 271385, Note_on_c, 10, 82, 0
1, 271680, Note_on_c, 1, 77, 105
1, 271680, Note_on_c, 3, 72, 81
1, 271680, Note_on_c, 10, 77, 91
1, 271800, Note_on_c, 3, 70, 0
1, 271980, Note_on_c, 1, 77, 0
1, 271980, Note_on_c, 10, 77, 0
1, 272100, Note_on_c, 1, 77, 105
1, 272100, Note_on_c, 10, 77, 91
1, 272400, Note_on_c, 1, 77, 0
1, 272400, Note_on_c, 10, 77, 0
1, 272640, Note_on_c, 1, 72, 105
1, 272640, Note_on_c, 10, 72, 91
1, 272940, Note_on_c, 1, 72, 0
1, 272940, Note_on_c, 10, 72, 0
1, 273060, Note_on_c, 1, 72, 105
1, 273060, Note_on_c, 10, 72, 91
1, 273360, Note_on_c, 1, 72, 0
1, 273360, Note_on_c, 10, 72, 0
1, 273600, Note_on_c, 1, 81, 105
1, 273600, Note_on_c, 10, 81, 91
1, 273600, Note_on_c, 11, 53, 108
1, 273600, Note_on_c, 11, 70, 0
1, 273600, Note_on_c, 11, 65, 0
1, 273600, Note_on_c, 11, 58, 0
1, 273600, Note_on_c, 11, 62, 0
1, 273900, Note_on_c, 1, 81, 0
1, 273900, Note_on_c, 10, 81, 0
1, 274020, Note_on_c, 1, 81, 105
1, 274020, Note_on_c, 10, 81, 91
1, 274265, Note_on_c, 1, 81, 0
1, 274265, Note_on_c, 10, 81, 0
1, 274440, Note_on_c, 2, 46, 0
1, 274560, Note_on_c, 1, 77, 105
1, 274560, Note_on_c, 8, 81, 70
1, 274560, Note_on_c, 10, 77, 91
1, 274560, Note_on_c, 11, 57, 108
1, 274560, Note_on_c, 12, 46, 0
1, 274620, Note_on_c, 8, 70, 0
1, 274680, Note_on_c, 2, 45, 86
1, 274680, Note_on_c, 12, 45, 102
1, 274860, Note_on_c, 1, 77, 0
1, 274860, Note_on_c, 10, 77, 0
1, 274980, Note_on_c, 1, 77, 105
1, 274980, Note_on_c, 10, 77, 91
1, 275280, Note_on_c, 1, 77, 0
1, 275280, Note_on_c, 10, 77, 0
1, 275460, Note_on_c, 3, 72, 0
1, 275520, Note_on_c, 1, 72, 105
1, 275520, Note_on_c, 3, 69, 64
1, 275520, Note_on_c, 8, 77, 70
1, 275520, Note_on_c, 10, 72, 91
1, 275520, Note_on_c, 11, 60, 108
1, 275640, Note_on_c, 12, 45, 0
1, 275700, Note_on_c, 2, 45, 0
1, 275700, Note_on_c, 8, 81, 0
1, 275820, Note_on_c, 1, 72, 0
1, 275820, Note_on_c, 2, 43, 86
1, 275820, Note_on_c, 10, 72, 0
1, 275820, Note_on_c, 12, 43, 102
1, 275940, Note_on_c, 1, 72, 105
1, 275940, Note_on_c, 10, 72, 91
1, 276240, Note_on_c, 1, 72, 0
1, 276240, Note_on_c, 10, 72, 0
1, 276480, Note_on_c, 1, 81, 105
1, 276480, Note_on_c, 7, 24, 76
1, 276480, Note_on_c, 8, 72, 70
1, 276480, Note_on_c, 8, 77, 0
1, 276480, Note_on_c, 10, 81, 91
1, 276480, Note_on_c, 11, 65, 108
1, 276780, Note_on_c, 1, 81, 0
1, 276780, Note_on_c, 10, 81, 0
1, 276840, Note_on_c, 2, 43, 0
1, 276900, Note_on_c, 1, 81, 105
1, 276900, Note_on_c, 2, 45, 86
1, 276900, Note_on_c, 10, 81, 91
1, 276900, Note_on_c, 12, 45, 102
1, 276900, Note_on_c, 12, 43, 0
1, 277145, Note_on_c, 1, 81, 0
1, 277145, Note_on_c, 10, 81, 0
1, 277200, Control_c, 4, 11, 116
1, 277200, Control_c, 13, 11, 116
1, 277440, Note_on_c, 1, 77, 105
1, 277440, Note_on_c, 3, 65, 64
1, 277440, Note_on_c, 3, 69, 0
1, 277440, Note_on_c, 10, 77, 91
1, 277460, Control_c, 4, 11, 105
1, 277460, Control_c, 13, 11, 105
1, 277680, Control_c, 4, 11, 95
1, 277680, Control_c, 13, 11, 95
1, 277740, Note_on_c, 1, 77, 0
1, 277740, Note_on_c, 10, 77, 0
1, 277860, Note_on_c, 1, 77, 105
1, 277860, Note_on_c, 10, 77, 91
1, 277920, Control_c, 4, 11, 84
1, 277920, Control_c, 13, 11, 84
1, 278160, Note_on_c, 1, 77, 0
1, 278160, Control_c, 4, 11, 74
1, 278160, Note_on_c, 10, 77, 0
1, 278160, Control_c, 13, 11, 74
1, 278400, Note_on_c, 1, 72, 105
1, 278400, Control_c, 4, 11, 63
1, 278400, Note_on_c, 10, 72, 91
1, 278400, Control_c, 13, 11, 63
1, 278640, Note_on_c, 3, 65, 0
1, 278640, Control_c, 4, 11, 52
1, 278640, Control_c, 13, 11, 52
1, 278700, Note_on_c, 1, 72, 0
1, 278700, Note_on_c, 3, 72, 64
1, 278700, Note_on_c, 10, 72, 0
1, 278820, Note_on_c, 1, 72, 105
1, 278820, Note_on_c, 10, 72, 91
1, 278880, Note_on_c, 2, 45, 0
1, 278880, Control_c, 4, 11, 42
1, 278880, Note_on_c, 4, 60, 0
1, 278880, Note_on_c, 12, 45, 0
1, 278880, Control_c, 13, 11, 42
1, 278880, Note_on_c, 13, 60, 0
1, 278940, Note_on_c, 2, 41, 86
1, 278940, Note_on_c, 12, 41, 102
1, 279080, Pitch_bend_c, 4, 8192
1, 279080, Pitch_bend_c, 13, 8192
1, 279120, Note_on_c, 1, 72, 0
1, 279120, Note_on_c, 10, 72, 0
1, 279200, Control_c, 4, 100, 0
1, 279200, Control_c, 4, 101, 0
1, 279200, Control_c, 4, 6, 24
1, 279200, Control_c, 13, 100, 0
1, 279200, Control_c, 13, 101, 0
1, 279200, Control_c, 13, 6, 24
1, 279260, Control_c, 4, 100, 127
1, 279260, Control_c, 4, 101, 127
1, 279260, Control_c, 13, 100, 127
1, 279260, Control_c, 13, 101, 127
1, 279360, Note_on_c, 1, 81, 105
1, 279360, Pitch_bend_c, 4, 8192
1, 279360, Note_on_c, 4, 48, 120
1, 279360, Note_on_c, 6, 24, 0
1, 279360, Note_on_c, 10, 81, 91
1, 279360, Pitch_bend_c, 13, 8192
1, 279360, Note_on_c, 13, 48, 120
1, 279480, Control_c, 4, 11, 45
1, 279480, Pitch_bend_c, 4, 8342
1, 279480, Control_c, 13, 11, 45
1, 279480, Pitch_bend_c, 13, 8342
1, 279600, Pitch_bend_c, 4, 8492
1, 279600, Pitch_bend_c, 13, 8492
1, 279660, Note_on_c, 1, 81, 0
1, 279660, Note_on_c, 10, 81, 0
1, 279720, Control_c, 4, 11, 48
1, 279720, Pitch_bend_c, 4, 8642
1, 279720, Control_c, 13, 11, 48
1, 279720, Pitch_bend_c, 13, 8642
1, 279780, Note_on_c, 1, 81, 105
1, 279780, Note_on_c, 10, 81, 91
1, 279840, Pitch_bend_c, 4, 8792
1, 279840, Pitch_bend_c, 13, 8792
1, 279960, Control_c, 4, 11, 51
1, 279960, Pitch_bend_c, 4, 8942
1, 279960, Control_c, 13, 11, 51
1, 279960, Pitch_bend_c, 13, 8942
1, 280025, Note_on_c, 1, 81, 0
1, 280025, Note_on_c, 10, 81, 0
1, 280080, Pitch_bend_c, 4, 9092
1, 280080, Pitch_bend_c, 13, 9092
1, 280200, Control_c, 4, 11, 55
1, 280200, Pitch_bend_c, 4, 9242
1, 280200, Control_c, 13, 11, 55
1, 280200, Pitch_bend_c, 13, 9242
1, 280320, Note_on_c, 1, 77, 105
1, 280320, Pitch_bend_c, 4, 9392
1, 280320, Note_on_c, 10, 77, 91
1, 280320, Pitch_bend_c, 13, 9392
1, 280440, Control_c, 4, 11, 58
1, 280440, Pitch_bend_c, 4, 9542
1, 280440, Control_c, 13, 11, 58
1, 280440, Pitch_bend_c, 13, 9542
1, 280560, Pitch_bend_c, 4, 9692
1, 280560, Pitch_bend_c, 13, 9692
1, 280620, Note_on_c, 1, 77, 0
1, 280620, Note_on_c, 10, 77, 0
1, 280680, Control_c, 4, 11, 61
1, 280680, Pitch_bend_c, 4, 9842
1, 280680, Control_c, 13, 11, 61
1, 280680, Pitch_bend_c, 13, 9842
1, 280740, Note_on_c, 1, 77, 105
1, 280740, Note_on_c, 10, 77, 91
1, 280800, Pitch_bend_c, 4, 9992
1, 280800, Pitch_bend_c, 13, 9992
1, 280920, Control_c, 4, 11, 64
1, 280920, Pitch_bend_c, 4, 10142
1, 280920, Control_c, 13, 11, 64
1, 280920, Pitch_bend_c, 13, 10142
1, 280980, Note_on_c, 3, 77, 81
1, 280980, Note_on_c, 3, 72, 0
1, 281040, Note_on_c, 1, 77, 0
1, 281040, Pitch_bend_c, 4, 10292
1, 281040, Note_on_c, 10, 77, 0
1, 281040, Pitch_bend_c, 13, 10292
1, 281160, Control_c, 4, 11, 67
1, 281160, Pitch_bend_c, 4, 10442
1, 281160, Control_c, 13, 11, 67
1, 281160, Pitch_bend_c, 13, 10442
1, 281280, Note_on_c, 1, 72, 105
1, 281280, Pitch_bend_c, 4, 10592
1, 281280, Note_on_c, 10, 72, 91
1, 281280, Pitch_bend_c, 13, 10592
1, 281400, Control_c, 4, 11, 70
1, 281400, Pitch_bend_c, 4, 10742
1, 281400, Control_c, 13, 11, 70
1, 281400, Pitch_bend_c, 13, 10742
1, 281520, Pitch_bend_c, 4, 10892
1, 281520, Pitch_bend_c, 13, 10892
1, 281580, Note_on_c, 1, 72, 0
1, 281580, Note_on_c, 10, 72, 0
1, 281640, Control_c, 4, 11, 74
1, 281640, Pitch_bend_c, 4, 11042
1, 281640, Control_c, 13, 11, 74
1, 281640, Pitch_bend_c, 13, 11042
1, 281700, Note_on_c, 1, 72, 105
1, 281700, Note_on_c, 10, 72, 91
1, 281760, Pitch_bend_c, 4, 11192
1, 281760, Pitch_bend_c, 13, 11192
1, 281880, Control_c, 4, 11, 77
1, 281880, Pitch_bend_c, 4, 11342
1, 281880, Control_c, 13, 11, 77
1, 281880, Pitch_bend_c, 13, 11342
1, 282000, Note_on_c, 1, 72, 0
1, 282000, Pitch_bend_c, 4, 11492
1, 282000, Note_on_c, 10, 72, 0
1, 282000, Pitch_bend_c, 13, 11492
1, 282120, Control_c, 4, 11, 80
1, 282120, Pitch_bend_c, 4, 11642
1, 282120, Control_c, 13, 11, 80
1, 282120, Pitch_bend_c, 13, 11642
1, 282240, Note_on_c, 1, 81, 105
1, 282240, Pitch_bend_c, 4, 11792
1, 282240, Note_on_c, 8, 77, 70
1, 282240, Note_on_c, 10, 81, 91
1, 282240, Pitch_bend_c, 13, 11792
1, 282360, Control_c, 4, 11, 83
1, 282360, Pitch_bend_c, 4, 11942
1, 282360, Note_on_c, 8, 72, 0
1, 282360, Control_c, 13, 11, 83
1, 282360, Pitch_bend_c, 13, 11942
1, 282480, Pitch_bend_c, 4, 12092
1, 282480, Pitch_bend_c, 13, 12092
1, 282540, Note_on_c, 1, 81, 0
1, 282540, Note_on_c, 10, 81, 0
1, 282600, Control_c, 4, 11, 86
1, 282600, Pitch_bend_c, 4, 12242
1, 282600, Control_c, 13, 11, 86
1, 282600, Pitch_bend_c, 13, 12242
1, 282660, Note_on_c, 1, 81, 105
1, 282660, Note_on_c, 10, 81, 91
1, 282720, Pitch_bend_c, 4, 12392
1, 282720, Pitch_bend_c, 13, 12392
1, 282840, Control_c, 4, 11, 89
1, 282840, Pitch_bend_c, 4, 12542
1, 282840, Control_c, 13, 11, 89
1, 282840, Pitch_bend_c, 13, 12542
1, 282905, Note_on_c, 1, 81, 0
1, 282905, Note_on_c, 10, 81, 0
1, 282960, Pitch_bend_c, 4, 12692
1, 282960, Pitch_bend_c, 13, 12692
1, 283080, Control_c, 4, 11, 93
1, 283080, Pitch_bend_c, 4, 12842
1, 283080, Control_c, 13, 11, 93
1, 283080, Pitch_bend_c, 13, 12842
1, 283200, Note_on_c, 1, 77, 105
1, 283200, Pitch_bend_c, 4, 12992
1, 283200, Note_on_c, 8, 76, 70
1, 283200, Note_on_c, 10, 77, 91
1, 283200, Pitch_bend_c, 13, 12992
1, 283320, Control_c, 4, 11, 96
1, 283320, Pitch_bend_c, 4, 13142
1, 283320, Control_c, 13, 11, 96
1, 283320, Pitch_bend_c, 13, 13142
1, 283440, Pitch_bend_c, 4, 13292
1, 283440, Note_on_c, 8, 77, 0
1, 283440, Pitch_bend_c, 13, 13292
1, 283500, Note_on_c, 1, 77, 0
1, 283500, Note_on_c, 10, 77, 0
1, 283560, Control_c, 4, 11, 99
1, 283560, Pitch_bend_c, 4, 13442
1, 283560, Control_c, 13, 11, 99
1, 283560, Pitch_bend_c, 13, 13442
1, 283620, Note_on_c, 1, 77, 105
1, 283620, Note_on_c, 10, 77, 91
1, 283680, Pitch_bend_c, 4, 13592
1, 283680, Pitch_bend_c, 13, 13592
1, 283800, Control_c, 4, 11, 102
1, 283800, Pitch_bend_c, 4, 13742
1, 283800, Control_c, 13, 11, 102
1, 283800, Pitch_bend_c, 13, 13742
1, 283920, Note_on_c, 1, 77, 0
1, 283920, Pitch_bend_c, 4, 13892
1, 283920, Note_on_c, 10, 77, 0
1, 283920, Pitch_bend_c, 13, 13892
1, 284040, Control_c, 4, 11, 105
1, 284040, Pitch_bend_c, 4, 14042
1, 284040, Control_c, 13, 11, 105
1, 284040, Pitch_bend_c, 13, 14042
1, 284160, Note_on_c, 1, 72, 105
1, 284160, Pitch_bend_c, 4, 14192
1, 284160, Note_on_c, 8, 77, 70
1, 284160, Note_on_c, 10, 72, 91
1, 284160, Pitch_bend_c, 13, 14192
1, 284280, Control_c, 4, 11, 111
1, 284280, Pitch_bend_c, 4, 14342
1, 284280, Control_c, 13, 11, 111
1, 284280, Pitch_bend_c, 13, 14342
1, 284340, Note_on_c, 8, 76, 0
1, 284400, Pitch_bend_c, 4, 14492
1, 284400, Pitch_bend_c, 13, 14492
1, 284460, Note_on_c, 1, 72, 0
1, 284460, Note_on_c, 10, 72, 0
1, 284520, Control_c, 4, 11, 116
1, 284520, Pitch_bend_c, 4, 14642
1, 284520, Control_c, 13, 11, 116
1, 284520, Pitch_bend_c, 13, 14642
1, 284580, Note_on_c, 1, 72, 105
1, 284580, Note_on_c, 10, 72, 91
1, 284640, Pitch_bend_c, 4, 14792
1, 284640, Pitch_bend_c, 13, 14792
1, 284700, Note_on_c, 2, 41, 0
1, 284700, Note_on_c, 12, 41, 0
1, 284760, Control_c, 4, 11, 121
1, 284760, Pitch_bend_c, 4, 14942
1, 284760, Control_c, 13, 11, 121
1, 284760, Pitch_bend_c, 13, 14942
1, 284880, Note_on_c, 1, 72, 0
1, 284880, Pitch_bend_c, 4, 15092
1, 284880, Note_on_c, 10, 72, 0
1, 284880, Pitch_bend_c, 13, 15092
1, 285000, Pitch_bend_c, 4, 15242
1, 285000, Pitch_bend_c, 13, 15242
1, 285020, Control_c, 4, 11, 127
1, 285020, Control_c, 13, 11, 127
1, 285120, Note_on_c, 1, 84, 105
1, 285120, Note_on_c, 2, 43, 86
1, 285120, Pitch_bend_c, 4, 15392
1, 285120, Note_on_c, 8, 79, 70
1, 285120, Note_on_c, 10, 84, 91
1, 285120, Note_on_c, 11, 60, 108
1, 285120, Note_on_c, 11, 65, 0
1, 285120, Note_on_c, 11, 60, 0
1, 285120, Note_on_c, 11, 53, 0
1, 285120, Note_on_c, 11, 57, 0
1, 285120, Note_on_c, 12, 43, 102
1, 285120, Pitch_bend_c, 13, 15392
1, 285180, Note_on_c, 8, 77, 0
1, 285240, Pitch_bend_c, 4, 15542
1, 285240, Pitch_bend_c, 13, 15542
1, 285360, Pitch_bend_c, 4, 15692
1, 285360, Pitch_bend_c, 13, 15692
1, 285420, Note_on_c, 1, 84, 0
1, 285420, Note_on_c, 10, 84, 0
1, 285480, Pitch_bend_c, 4, 15842
1, 285480, Pitch_bend_c, 13, 15842
1, 285540, Note_on_c, 1, 84, 105
1, 285540, Note_on_c, 10, 84, 91
1, 285600, Pitch_bend_c, 4, 15992
1, 285600, Pitch_bend_c, 13, 15992
1, 285720, Pitch_bend_c, 4, 16142
1, 285720, Pitch_bend_c, 13, 16142
1, 285785, Note_on_c, 1, 84, 0
1, 285785, Note_on_c, 10, 84, 0
1, 285840, Pitch_bend_c, 4, 16383
1, 285840, Pitch_bend_c, 13, 16383
1, 286080, Note_on_c, 1, 79, 105
1, 286080, Note_on_c, 3, 76, 81
1, 286080, Note_on_c, 3, 77, 0
1, 286080, Note_on_c, 10, 79, 91
1, 286080, Note_on_c, 11, 64, 108
1, 286380, Note_on_c, 1, 79, 0
1, 286380, Note_on_c, 10, 79, 0
1, 286500, Note_on_c, 1, 79, 105
1, 286500, Note_on_c, 10, 79, 91
1, 286800, Note_on_c, 1, 79, 0
1, 286800, Note_on_c, 10, 79, 0
1, 286920, Note_on_c, 2, 43, 0
1, 286920, Note_on_c, 12, 43, 0
1, 287040, Note_on_c, 1, 72, 105
1, 287040, Note_on_c, 2, 48, 86
1, 287040, Note_on_c, 3, 77, 81
1, 287040, Note_on_c, 3, 76, 0
1, 287040, Note_on_c, 10, 72, 91
1, 287040, Note_on_c, 11, 67, 108
1, 287040, Note_on_c, 12, 48, 102
1, 287340, Note_on_c, 1, 72, 0
1, 287340, Note_on_c, 10, 72, 0
1, 287460, Note_on_c, 1, 72, 105
1, 287460, Note_on_c, 10, 72, 91
1, 287760, Note_on_c, 1, 72, 0
1, 287760, Note_on_c, 10, 72, 0
1, 288000, Note_on_c, 1, 84, 105
1, 288000, Note_on_c, 3, 79, 81
1, 288000, Note_on_c, 3, 77, 0
1, 288000, Note_on_c, 10, 84, 91
1, 288000, Note_on_c, 11, 72, 108
1, 288300, Note_on_c, 1, 84, 0
1, 288300, Note_on_c, 10, 84, 0
1, 288420, Note_on_c, 1, 84, 105
1, 288420, Note_on_c, 10, 84, 91
1, 288665, Note_on_c, 1, 84, 0
1, 288665, Note_on_c, 10, 84, 0
1, 288960, Note_on_c, 1, 79, 105
1, 288960, Note_on_c, 10, 79, 91
1, 289260, Note_on_c, 1, 79, 0
1, 289260, Note_on_c, 10, 79, 0
1, 289380, Note_on_c, 1, 79, 105
1, 289380, Note_on_c, 10, 79, 91
1, 289680, Note_on_c, 1, 79, 0
1, 289680, Note_on_c, 10, 79, 0
1, 289860, Note_on_c, 8, 77, 70
1, 289920, Note_on_c, 1, 72, 105
1, 289920, Note_on_c, 3, 72, 81
1, 289920, Note_on_c, 3, 79, 0
1, 289920, Note_on_c, 8, 79, 0
1, 289920, Note_on_c, 10, 72, 91
1, 290220, Note_on_c, 1, 72, 0
1, 290220, Note_on_c, 10, 72, 0
1, 290340, Note_on_c, 1, 72, 105
1, 290340, Note_on_c, 10, 72, 91
1, 290360, Control_c, 5, 100, 0
1, 290360, Control_c, 5, 101, 0
1, 290360, Control_c, 5, 6, 12
1, 290360, Control_c, 14, 100, 0
1, 290360, Control_c, 14, 101, 0
1, 290360, Control_c, 14, 6, 12
1, 290420, Control_c, 5, 100, 127
1, 290420, Control_c, 5, 101, 127
1, 290420, Control_c, 14, 100, 127
1, 290420, Control_c, 14, 101, 127
1, 290600, Pitch_bend_c, 5, 8192
1, 290600, Pitch_bend_c, 14, 8192
1, 290640, Note_on_c, 1, 72, 0
1, 290640, Note_on_c, 10, 72, 0
1, 290720, Control_c, 5, 11, 42
1, 290720, Control_c, 14, 11, 42
1, 290880, Note_on_c, 1, 84, 105
1, 290880, Note_on_c, 3, 67, 81
1, 290880, Note_on_c, 3, 72, 0
1, 290880, Pitch_bend_c, 5, 8192
1, 290880, Note_on_c, 5, 72, 120
1, 290880, Note_on_c, 10, 84, 91
1, 290880, Pitch_bend_c, 14, 8192
1, 290880, Note_on_c, 14, 72, 120
1, 291000, Control_c, 5, 11, 45
1, 291000, Note_on_c, 8, 76, 70
1, 291000, Control_c, 14, 11, 45
1, 291060, Note_on_c, 8, 77, 0
1, 291120, Pitch_bend_c, 5, 8492
1, 291120, Pitch_bend_c, 14, 8492
1, 291180, Note_on_c, 1, 84, 0
1, 291180, Note_on_c, 10, 84, 0
1, 291240, Control_c, 5, 11, 48
1, 291240, Control_c, 14, 11, 48
1, 291300, Note_on_c, 1, 84, 105
1, 291300, Note_on_c, 10, 84, 91
1, 291360, Pitch_bend_c, 5, 8792
1, 291360, Pitch_bend_c, 14, 8792
1, 291480, Control_c, 5, 11, 51
1, 291480, Control_c, 14, 11, 51
1, 291545, Note_on_c, 1, 84, 0
1, 291545, Note_on_c, 10, 84, 0
1, 291600, Pitch_bend_c, 5, 9092
1, 291600, Pitch_bend_c, 14, 9092
1, 291720, Control_c, 5, 11, 55
1, 291720, Control_c, 14, 11, 55
1, 291840, Note_on_c, 1, 79, 105
1, 291840, Note_on_c, 3, 76, 81
1, 291840, Note_on_c, 3, 67, 0
1, 291840, Pitch_bend_c, 5, 9392
1, 291840, Note_on_c, 10, 79, 91
1, 291840, Pitch_bend_c, 14, 9392
1, 291960, Control_c, 5, 11, 58
1, 291960, Control_c, 14, 11, 58
1, 292080, Pitch_bend_c, 5, 9692
1, 292080, Pitch_bend_c, 14, 9692
1, 292140, Note_on_c, 1, 79, 0
1, 292140, Note_on_c, 10, 79, 0
1, 292200, Control_c, 5, 11, 61
1, 292200, Control_c, 14, 11, 61
1, 292260, Note_on_c, 1, 79, 105
1, 292260, Note_on_c, 10, 79, 91
1, 292320, Pitch_bend_c, 5, 9992
1, 292320, Pitch_bend_c, 14, 9992
1, 292440, Control_c, 5, 11, 64
1, 292440, Control_c, 14, 11, 64
1, 292560, Note_on_c, 1, 79, 0
1, 292560, Pitch_bend_c, 5, 10292
1, 292560, Note_on_c, 10, 79, 0
1, 292560, Pitch_bend_c, 14, 10292
1, 292680, Control_c, 5, 11, 67
1, 292680, Control_c, 14, 11, 67
1, 292800, Note_on_c, 1, 72, 105
1, 292800, Note_on_c, 3, 74, 81
1, 292800, Note_on_c, 3, 76, 0
1, 292800, Pitch_bend_c, 5, 10592
1, 292800, Note_on_c, 10, 72, 91
1, 292800, Pitch_bend_c, 14, 10592
1, 292920, Control_c, 5, 11, 70
1, 292920, Control_c, 14, 11, 70
1, 293040, Pitch_bend_c, 5, 10892
1, 293040, Pitch_bend_c, 14, 10892
1, 293100, Note_on_c, 1, 72, 0
1, 293100, Note_on_c, 10, 72, 0
1, 293160, Control_c, 5, 11, 74
1, 293160, Control_c, 14, 11, 74
1, 293220, Note_on_c, 1, 72, 105
1, 293220, Note_on_c, 10, 72, 91
1, 293280, Pitch_bend_c, 5, 11192
1, 293280, Pitch_bend_c, 14, 11192
1, 293400, Control_c, 5, 11, 77
1, 293400, Control_c, 14, 11, 77
1, 293520, Note_on_c, 1, 72, 0
1, 293520, Pitch_bend_c, 5, 11492
1, 293520, Note_on_c, 10, 72, 0
1, 293520, Pitch_bend_c, 14, 11492
1, 293640, Control_c, 5, 11, 80
1, 293640, Control_c, 14, 11, 80
1, 293760, Note_on_c, 1, 84, 105
1, 293760, Note_on_c, 3, 76, 81
1, 293760, Note_on_c, 3, 74, 0
1, 293760, Pitch_bend_c, 5, 11792
1, 293760, Note_on_c, 10, 84, 91
1, 293760, Pitch_bend_c, 14, 11792
1, 293880, Control_c, 5, 11, 83
1, 293880, Control_c, 14, 11, 83
1, 294000, Pitch_bend_c, 5, 12092
1, 294000, Pitch_bend_c, 14, 12092
1, 294060, Note_on_c, 1, 84, 0
1, 294060, Note_on_c, 10, 84, 0
1, 294120, Control_c, 5, 11, 86
1, 294120, Control_c, 14, 11, 86
1, 294180, Note_on_c, 1, 84, 105
1, 294180, Note_on_c, 10, 84, 91
1, 294240, Pitch_bend_c, 5, 12392
1, 294240, Pitch_bend_c, 14, 12392
1, 294360, Control_c, 5, 11, 89
1, 294360, Control_c, 14, 11, 89
1, 294425, Note_on_c, 1, 84, 0
1, 294425, Note_on_c, 10, 84, 0
1, 294480, Pitch_bend_c, 5, 12692
1, 294480, Pitch_bend_c, 14, 12692
1, 294600, Control_c, 5, 11, 93
1, 294600, Control_c, 14, 11, 93
1, 294720, Note_on_c, 1, 79, 105
1, 294720, Control_c, 4, 11, 116
1, 294720, Pitch_bend_c, 5, 12992
1, 294720, Note_on_c, 8, 74, 70
1, 294720, Note_on_c, 8, 76, 0
1, 294720, Note_on_c, 10, 79, 91
1, 294720, Control_c, 13, 11, 116
1, 294720, Pitch_bend_c, 14, 12992
1, 294840, Control_c, 5, 11, 96
1, 294840, Control_c, 14, 11, 96
1, 294960, Control_c, 4, 11, 105
1, 294960, Pitch_bend_c, 5, 13292
1, 294960, Control_c, 13, 11, 105
1, 294960, Pitch_bend_c, 14, 13292
1, 295020, Note_on_c, 1, 79, 0
1, 295020, Note_on_c, 10, 79, 0
1, 295080, Control_c, 5, 11, 99
1, 295080, Control_c, 14, 11, 99
1, 295140, Note_on_c, 1, 79, 105
1, 295140, Note_on_c, 10, 79, 91
1, 295200, Control_c, 4, 11, 95
1, 295200, Pitch_bend_c, 5, 13592
1, 295200, Control_c, 13, 11, 95
1, 295200, Pitch_bend_c, 14, 13592
1, 295320, Control_c, 5, 11, 102
1, 295320, Control_c, 14, 11, 102
1, 295440, Note_on_c, 1, 79, 0
1, 295440, Control_c, 4, 11, 84
1, 295440, Pitch_bend_c, 5, 13892
1, 295440, Note_on_c, 10, 79, 0
1, 295440, Control_c, 13, 11, 84
1, 295440, Pitch_bend_c, 14, 13892
1, 295560, Control_c, 5, 11, 105
1, 295560, Control_c, 14, 11, 105
1, 295680, Note_on_c, 1, 72, 105
1, 295680, Control_c, 4, 11, 74
1, 295680, Pitch_bend_c, 5, 14192
1, 295680, Note_on_c, 8, 76, 70
1, 295680, Note_on_c, 10, 72, 91
1, 295680, Control_c, 13, 11, 74
1, 295680, Pitch_bend_c, 14, 14192
1, 295740, Note_on_c, 8, 74, 0
1, 295800, Control_c, 5, 11, 109
1, 295800, Control_c, 14, 11, 109
1, 295920, Control_c, 4, 11, 63
1, 295920, Pitch_bend_c, 5, 14492
1, 295920, Control_c, 13, 11, 63
1, 295920, Pitch_bend_c, 14, 14492
1, 295980, Note_on_c, 1, 72, 0
1, 295980, Note_on_c, 10, 72, 0
1, 296040, Control_c, 5, 11, 112
1, 296040, Control_c, 14, 11, 112
1, 296100, Note_on_c, 1, 72, 105
1, 296100, Note_on_c, 10, 72, 91
1, 296160, Control_c, 4, 11, 52
1, 296160, Pitch_bend_c, 5, 14792
1, 296160, Control_c, 13, 11, 52
1, 296160, Pitch_bend_c, 14, 14792
1, 296280, Control_c, 5, 11, 115
1, 296280, Control_c, 14, 11, 115
1, 296400, Note_on_c, 1, 72, 0
1, 296400, Note_on_c, 2, 48, 0
1, 296400, Control_c, 4, 11, 42
1, 296400, Pitch_bend_c, 5, 15092
1, 296400, Note_on_c, 10, 72, 0
1, 296400, Control_c, 13, 11, 42
1, 296400, Pitch_bend_c, 14, 15092
1, 296520, Control_c, 5, 11, 118
1, 296520, Note_on_c, 12, 48, 0
1, 296520, Control_c, 14, 11, 118
1, 296600, Control_c, 4, 11, 0
1, 296600, Control_c, 13, 11, 0
1, 296640, Note_on_c, 1, 84, 105
1, 296640, Note_on_c, 4, 48, 0
1, 296640, Pitch_bend_c, 5, 15392
1, 296640, Note_on_c, 8, 77, 70
1, 296640, Note_on_c, 10, 84, 91
1, 296640, Note_on_c, 11, 60, 108
1, 296640, Note_on_c, 11, 72, 0
1, 296640, Note_on_c, 11, 67, 0
1, 296640, Note_on_c, 11, 60, 0
1, 296640, Note_on_c, 11, 64, 0
1, 296640, Note_on_c, 13, 48, 0
1, 296640, Pitch_bend_c, 14, 15392
1, 296700, Note_on_c, 2, 53, 86
1, 296700, Note_on_c, 8, 76, 0
1, 296700, Note_on_c, 12, 53, 102
1, 296760, Control_c, 5, 11, 121
1, 296760, Control_c, 14, 11, 121
1, 296880, Pitch_bend_c, 5, 15692
1, 296880, Pitch_bend_c, 14, 15692
1, 296940, Note_on_c, 1, 84, 0
1, 296940, Note_on_c, 10, 84, 0
1, 297000, Control_c, 5, 11, 124
1, 297000, Control_c, 14, 11, 124
1, 297060, Note_on_c, 1, 84, 105
1, 297060, Note_on_c, 10, 84, 91
1, 297120, Pitch_bend_c, 5, 15992
1, 297120, Pitch_bend_c, 14, 15992
1, 297240, Control_c, 5, 11, 127
1, 297240, Control_c, 14, 11, 127
1, 297305, Note_on_c, 1, 84, 0
1, 297305, Note_on_c, 10, 84, 0
1, 297360, Pitch_bend_c, 5, 16383
1, 297360, Pitch_bend_c, 14, 16383
1, 297600, Note_on_c, 1, 77, 105
1, 297600, Note_on_c, 10, 77, 91
1, 297600, Note_on_c, 11, 65, 108
1, 297900, Note_on_c, 1, 77, 0
1, 297900, Note_on_c, 10, 77, 0
1, 298020, Note_on_c, 1, 77, 105
1, 298020, Note_on_c, 10, 77, 91
1, 298320, Note_on_c, 1, 77, 0
1, 298320, Note_on_c, 10, 77, 0
1, 298440, Note_on_c, 2, 53, 0
1, 298440, Note_on_c, 12, 53, 0
1, 298560, Note_on_c, 1, 72, 105
1, 298560, Note_on_c, 3, 77, 81
1, 298560, Note_on_c, 3, 76, 0
1, 298560, Note_on_c, 10, 72, 91
1, 298560, Note_on_c, 11, 69, 108
1, 298620, Note_on_c, 2, 41, 86
1, 298620, Note_on_c, 12, 41, 102
1, 298860, Note_on_c, 1, 72, 0
1, 298860, Note_on_c, 10, 72, 0
1, 298980, Note_on_c, 1, 72, 105
1, 298980, Note_on_c, 10, 72, 91
1, 299280, Note_on_c, 1, 72, 0
1, 299280, Note_on_c, 10, 72, 0
1, 299520, Note_on_c, 1, 84, 105
1, 299520, Note_on_c, 10, 84, 91
1, 299520, Note_on_c, 11, 72, 108
1, 299820, Note_on_c, 1, 84, 0
1, 299820, Note_on_c, 10, 84, 0
1, 299940, Note_on_c, 1, 84, 105
1, 299940, Note_on_c, 10, 84, 91
1, 300185, Note_on_c, 1, 84, 0
1, 300185, Note_on_c, 10, 84, 0
1, 300480, Note_on_c, 1, 77, 105
1, 300480, Note_on_c, 10, 77, 91
1, 300780, Note_on_c, 1, 77, 0
1, 300780, Note_on_c, 10, 77, 0
1, 300900, Note_on_c, 1, 77, 105
1, 300900, Note_on_c, 10, 77, 91
1, 301200, Note_on_c, 1, 77, 0
1, 301200, Note_on_c, 10, 77, 0
1, 301440, Note_on_c, 1, 72, 105
1, 301440, Note_on_c, 3, 72, 81
1, 301440, Note_on_c, 3, 77, 0
1, 301440, Note_on_c, 10, 72, 91
1, 301740, Note_on_c, 1, 72, 0
1, 301740, Note_on_c, 10, 72, 0
1, 301860, Note_on_c, 1, 72, 105
1, 301860, Note_on_c, 10, 72, 91
1, 302160, Note_on_c, 1, 72, 0
1, 302160, Note_on_c, 10, 72, 0
1, 302400, Note_on_c, 1, 84, 105
1, 302400, Note_on_c, 10, 84, 91
1, 302700, Note_on_c, 1, 84, 0
1, 302700, Note_on_c, 10, 84, 0
1, 302820, Note_on_c, 1, 84, 105
1, 302820, Note_on_c, 10, 84, 91
1, 303065, Note_on_c, 1, 84, 0
1, 303065, Note_on_c, 10, 84, 0
1, 303360, Note_on_c, 1, 77, 105
1, 303360, Note_on_c, 10, 77, 91
1, 303660, Note_on_c, 1, 77, 0
1, 303660, Note_on_c, 10, 77, 0
1, 303780, Note_on_c, 1, 77, 105
1, 303780, Note_on_c, 10, 77, 91
1, 304080, Note_on_c, 1, 77, 0
1, 304080, Note_on_c, 10, 77, 0
1, 304320, Note_on_c, 1, 72, 105
1, 304320, Note_on_c, 10, 72, 91
1, 304620, Note_on_c, 1, 72, 0
1, 304620, Note_on_c, 10, 72, 0
1, 304740, Note_on_c, 1, 72, 105
1, 304740, Note_on_c, 10, 72, 91
1, 305040, Note_on_c, 1, 72, 0
1, 305040, Note_on_c, 10, 72, 0
1, 305280, Note_on_c, 1, 84, 105
1, 305280, Note_on_c, 10, 84, 91
1, 305580, Note_on_c, 1, 84, 0
1, 305580, Note_on_c, 10, 84, 0
1, 305700, Note_on_c, 1, 84, 105
1, 305700, Note_on_c, 10, 84, 91
1, 305945, Note_on_c, 1, 84, 0
1, 305945, Note_on_c, 10, 84, 0
1, 306240, Note_on_c, 1, 77, 105
1, 306240, Note_on_c, 10, 77, 91
1, 306540, Note_on_c, 1, 77, 0
1, 306540, Note_on_c, 10, 77, 0
1, 306660, Note_on_c, 1, 77, 105
1, 306660, Note_on_c, 10, 77, 91
1, 306960, Note_on_c, 1, 77, 0
1, 306960, Note_on_c, 10, 77, 0
1, 307200, Note_on_c, 1, 72, 105
1, 307200, Note_on_c, 10, 72, 91
1, 307500, Note_on_c, 1, 72, 0
1, 307500, Note_on_c, 10, 72, 0
1, 307620, Note_on_c, 1, 72, 105
1, 307620, Note_on_c, 10, 72, 91
1, 307920, Note_on_c, 1, 72, 0
1, 307920, Note_on_c, 10, 72, 0
1, 308040, Note_on_c, 2, 41, 0
1, 308040, Note_on_c, 12, 41, 0
1, 308100, Note_on_c, 11, 60, 0
1, 308160, Note_on_c, 1, 82, 105
1, 308160, Note_on_c, 3, 77, 81
1, 308160, Note_on_c, 3, 72, 0
1, 308160, Note_on_c, 10, 82, 91
1, 308160, Note_on_c, 11, 58, 108
1, 308160, Note_on_c, 11, 65, 0
1, 308160, Note_on_c, 11, 72, 0
1, 308160, Note_on_c, 11, 69, 0
1, 308220, Note_on_c, 2, 46, 86
1, 308220, Note_on_c, 12, 46, 102
1, 308460, Note_on_c, 1, 82, 0
1, 308460, Note_on_c, 10, 82, 0
1, 308580, Note_on_c, 1, 82, 105
1, 308580, Note_on_c, 10, 82, 91
1, 308825, Note_on_c, 1, 82, 0
1, 308825, Note_on_c, 10, 82, 0
1, 309120, Note_on_c, 1, 77, 105
1, 309120, Note_on_c, 10, 77, 91
1, 309120, Note_on_c, 11, 62, 108
1, 309300, Note_on_c, 2, 46, 0
1, 309360, Note_on_c, 12, 46, 0
1, 309420, Note_on_c, 1, 77, 0
1, 309420, Note_on_c, 10, 77, 0
1, 309480, Note_on_c, 2, 45, 86
1, 309480, Note_on_c, 12, 45, 102
1, 309540, Note_on_c, 1, 77, 105
1, 309540, Note_on_c, 10, 77, 91
1, 309840, Note_on_c, 1, 77, 0
1, 309840, Note_on_c, 10, 77, 0
1, 310080, Note_on_c, 1, 72, 105
1, 310080, Note_on_c, 3, 82, 81
1, 310080, Note_on_c, 3, 77, 0
1, 310080, Note_on_c, 10, 72, 91
1, 310080, Note_on_c, 11, 65, 108
1, 310380, Note_on_c, 1, 72, 0
1, 310380, Note_on_c, 10, 72, 0
1, 310500, Note_on_c, 1, 72, 105
1, 310500, Note_on_c, 10, 72, 91
1, 310740, Note_on_c, 2, 45, 0
1, 310800, Note_on_c, 1, 72, 0
1, 310800, Note_on_c, 10, 72, 0
1, 310800, Note_on_c, 12, 45, 0
1, 310920, Note_on_c, 2, 46, 86
1, 310920, Note_on_c, 12, 46, 102
1, 311040, Note_on_c, 1, 82, 105
1, 311040, Note_on_c, 10, 82, 91
1, 311040, Note_on_c, 11, 70, 108
1, 311160, Note_on_c, 3, 82, 0
1, 311220, Note_on_c, 3, 81, 81
1, 311340, Note_on_c, 1, 82, 0
1, 311340, Note_on_c, 10, 82, 0
1, 311460, Note_on_c, 1, 82, 105
1, 311460, Note_on_c, 10, 82, 91
1, 311705, Note_on_c, 1, 82, 0
1, 311705, Note_on_c, 10, 82, 0
1, 312000, Note_on_c, 1, 77, 105
1, 312000, Note_on_c, 8, 82, 70
1, 312000, Note_on_c, 10, 77, 91
1, 312060, Note_on_c, 8, 77, 0
1, 312300, Note_on_c, 1, 77, 0
1, 312300, Note_on_c, 10, 77, 0
1, 312360, Note_on_c, 3, 81, 0
1, 312420, Note_on_c, 1, 77, 105
1, 312420, Note_on_c, 3, 77, 81
1, 312420, Note_on_c, 10, 77, 91
1, 312720, Note_on_c, 1, 77, 0
1, 312720, Note_on_c, 10, 77, 0
1, 312960, Note_on_c, 1, 72, 105
1, 312960, Note_on_c, 8, 81, 70
1, 312960, Note_on_c, 10, 72, 91
1, 313020, Note_on_c, 8, 82, 0
1, 313260, Note_on_c, 1, 72, 0
1, 313260, Note_on_c, 10, 72, 0
1, 313380, Note_on_c, 1, 72, 105
1, 313380, Note_on_c, 10, 72, 91
1, 313460, Control_c, 4, 100, 0
1, 313460, Control_c, 4, 101, 0
1, 313460, Control_c, 4, 6, 24
1, 313460, Control_c, 13, 100, 0
1, 313460, Control_c, 13, 101, 0
1, 313460, Control_c, 13, 6, 24
1, 313495, Control_c, 4, 100, 127
1, 313495, Control_c, 4, 101, 127
1, 313495, Control_c, 13, 100, 127
1, 313495, Control_c, 13, 101, 127
1, 313680, Note_on_c, 1, 72, 0
1, 313680, Note_on_c, 3, 70, 81
1, 313680, Note_on_c, 3, 77, 0
1, 313680, Note_on_c, 10, 72, 0
1, 313700, Control_c, 4, 11, 31
1, 313700, Control_c, 13, 11, 31
1, 313760, Pitch_bend_c, 4, 8192
1, 313760, Pitch_bend_c, 13, 8192
1, 313920, Note_on_c, 1, 82, 105
1, 313920, Pitch_bend_c, 4, 8192
1, 313920, Control_c, 4, 11, 37
1, 313920, Note_on_c, 4, 48, 120
1, 313920, Note_on_c, 8, 70, 70
1, 313920, Note_on_c, 10, 82, 91
1, 313920, Pitch_bend_c, 13, 8192
1, 313920, Control_c, 13, 11, 37
1, 313920, Note_on_c, 13, 48, 120
1, 313980, Note_on_c, 8, 81, 0
1, 314040, Pitch_bend_c, 4, 8342
1, 314040, Pitch_bend_c, 13, 8342
1, 314065, Control_c, 4, 11, 42
1, 314065, Control_c, 13, 11, 42
1, 314160, Pitch_bend_c, 4, 8492
1, 314160, Control_c, 4, 11, 45
1, 314160, Pitch_bend_c, 13, 8492
1, 314160, Control_c, 13, 11, 45
1, 314220, Note_on_c, 1, 82, 0
1, 314220, Note_on_c, 10, 82, 0
1, 314280, Control_c, 4, 11, 48
1, 314280, Pitch_bend_c, 4, 8642
1, 314280, Control_c, 13, 11, 48
1, 314280, Pitch_bend_c, 13, 8642
1, 314340, Note_on_c, 1, 82, 105
1, 314340, Note_on_c, 10, 82, 91
1, 314400, Pitch_bend_c, 4, 8792
1, 314400, Pitch_bend_c, 13, 8792
1, 314520, Control_c, 4, 11, 51
1, 314520, Pitch_bend_c, 4, 8942
1, 314520, Control_c, 13, 11, 51
1, 314520, Pitch_bend_c, 13, 8942
1, 314585, Note_on_c, 1, 82, 0
1, 314585, Note_on_c, 10, 82, 0
1, 314640, Pitch_bend_c, 4, 9092
1, 314640, Pitch_bend_c, 13, 9092
1, 314760, Control_c, 4, 11, 55
1, 314760, Pitch_bend_c, 4, 9242
1, 314760, Control_c, 13, 11, 55
1, 314760, Pitch_bend_c, 13, 9242
1, 314880, Note_on_c, 1, 77, 105
1, 314880, Pitch_bend_c, 4, 9392
1, 314880, Note_on_c, 10, 77, 91
1, 314880, Pitch_bend_c, 13, 9392
1, 315000, Control_c, 4, 11, 58
1, 315000, Pitch_bend_c, 4, 9542
1, 315000, Control_c, 13, 11, 58
1, 315000, Pitch_bend_c, 13, 9542
1, 315120, Pitch_bend_c, 4, 9692
1, 315120, Pitch_bend_c, 13, 9692
1, 315180, Note_on_c, 1, 77, 0
1, 315180, Note_on_c, 10, 77, 0
1, 315240, Control_c, 4, 11, 61
1, 315240, Pitch_bend_c, 4, 9842
1, 315240, Control_c, 13, 11, 61
1, 315240, Pitch_bend_c, 13, 9842
1, 315300, Note_on_c, 1, 77, 105
1, 315300, Note_on_c, 10, 77, 91
1, 315360, Pitch_bend_c, 4, 9992
1, 315360, Pitch_bend_c, 13, 9992
1, 315480, Control_c, 4, 11, 64
1, 315480, Pitch_bend_c, 4, 10142
1, 315480, Control_c, 13, 11, 64
1, 315480, Pitch_bend_c, 13, 10142
1, 315600, Note_on_c, 1, 77, 0
1, 315600, Pitch_bend_c, 4, 10292
1, 315600, Note_on_c, 10, 77, 0
1, 315600, Pitch_bend_c, 13, 10292
1, 315720, Control_c, 4, 11, 67
1, 315720, Pitch_bend_c, 4, 10442
1, 315720, Control_c, 13, 11, 67
1, 315720, Pitch_bend_c, 13, 10442
1, 315840, Note_on_c, 1, 72, 105
1, 315840, Pitch_bend_c, 4, 10592
1, 315840, Note_on_c, 10, 72, 91
1, 315840, Pitch_bend_c, 13, 10592
1, 315960, Control_c, 4, 11, 70
1, 315960, Pitch_bend_c, 4, 10742
1, 315960, Control_c, 13, 11, 70
1, 315960, Pitch_bend_c, 13, 10742
1, 316080, Pitch_bend_c, 4, 10892
1, 316080, Pitch_bend_c, 13, 10892
1, 316140, Note_on_c, 1, 72, 0
1, 316140, Note_on_c, 10, 72, 0
1, 316200, Control_c, 4, 11, 74
1, 316200, Pitch_bend_c, 4, 11042
1, 316200, Control_c, 13, 11, 74
1, 316200, Pitch_bend_c, 13, 11042
1, 316260, Note_on_c, 1, 72, 105
1, 316260, Note_on_c, 10, 72, 91
1, 316320, Pitch_bend_c, 4, 11192
1, 316320, Pitch_bend_c, 13, 11192
1, 316440, Control_c, 4, 11, 77
1, 316440, Pitch_bend_c, 4, 11342
1, 316440, Control_c, 13, 11, 77
1, 316440, Pitch_bend_c, 13, 11342
1, 316560, Note_on_c, 1, 72, 0
1, 316560, Pitch_bend_c, 4, 11492
1, 316560, Note_on_c, 10, 72, 0
1, 316560, Pitch_bend_c, 13, 11492
1, 316680, Control_c, 4, 11, 80
1, 316680, Pitch_bend_c, 4, 11642
1, 316680, Control_c, 13, 11, 80
1, 316680, Pitch_bend_c, 13, 11642
1, 316800, Note_on_c, 1, 82, 105
1, 316800, Pitch_bend_c, 4, 11792
1, 316800, Note_on_c, 10, 82, 91
1, 316800, Pitch_bend_c, 13, 11792
1, 316920, Control_c, 4, 11, 83
1, 316920, Pitch_bend_c, 4, 11942
1, 316920, Control_c, 13, 11, 83
1, 316920, Pitch_bend_c, 13, 11942
1, 317040, Pitch_bend_c, 4, 12092
1, 317040, Pitch_bend_c, 13, 12092
1, 317100, Note_on_c, 1, 82, 0
1, 317100, Note_on_c, 10, 82, 0
1, 317160, Control_c, 4, 11, 86
1, 317160, Pitch_bend_c, 4, 12242
1, 317160, Control_c, 13, 11, 86
1, 317160, Pitch_bend_c, 13, 12242
1, 317220, Note_on_c, 1, 82, 105
1, 317220, Note_on_c, 10, 82, 91
1, 317280, Pitch_bend_c, 4, 12392
1, 317280, Pitch_bend_c, 13, 12392
1, 317400, Control_c, 4, 11, 89
1, 317400, Pitch_bend_c, 4, 12542
1, 317400, Control_c, 13, 11, 89
1, 317400, Pitch_bend_c, 13, 12542
1, 317465, Note_on_c, 1, 82, 0
1, 317465, Note_on_c, 10, 82, 0
1, 317520, Pitch_bend_c, 4, 12692
1, 317520, Pitch_bend_c, 13, 12692
1, 317640, Control_c, 4, 11, 93
1, 317640, Pitch_bend_c, 4, 12842
1, 317640, Control_c, 13, 11, 93
1, 317640, Pitch_bend_c, 13, 12842
1, 317760, Note_on_c, 1, 77, 105
1, 317760, Note_on_c, 3, 72, 81
1, 317760, Pitch_bend_c, 4, 12992
1, 317760, Control_c, 5, 11, 116
1, 317760, Note_on_c, 10, 77, 91
1, 317760, Pitch_bend_c, 13, 12992
1, 317760, Control_c, 14, 11, 116
1, 317880, Note_on_c, 3, 70, 0
1, 317880, Control_c, 4, 11, 96
1, 317880, Pitch_bend_c, 4, 13142
1, 317880, Control_c, 13, 11, 96
1, 317880, Pitch_bend_c, 13, 13142
1, 318000, Pitch_bend_c, 4, 13292
1, 318000, Control_c, 5, 11, 105
1, 318000, Pitch_bend_c, 13, 13292
1, 318000, Control_c, 14, 11, 105
1, 318060, Note_on_c, 1, 77, 0
1, 318060, Note_on_c, 10, 77, 0
1, 318120, Control_c, 4, 11, 99
1, 318120, Pitch_bend_c, 4, 13442
1, 318120, Control_c, 13, 11, 99
1, 318120, Pitch_bend_c, 13, 13442
1, 318180, Note_on_c, 1, 77, 105
1, 318180, Note_on_c, 10, 77, 91
1, 318240, Pitch_bend_c, 4, 13592
1, 318240, Control_c, 5, 11, 95
1, 318240, Pitch_bend_c, 13, 13592
1, 318240, Control_c, 14, 11, 95
1, 318360, Control_c, 4, 11, 102
1, 318360, Pitch_bend_c, 4, 13742
1, 318360, Control_c, 13, 11, 102
1, 318360, Pitch_bend_c, 13, 13742
1, 318480, Note_on_c, 1, 77, 0
1, 318480, Pitch_bend_c, 4, 13892
1, 318480, Control_c, 5, 11, 84
1, 318480, Note_on_c, 10, 77, 0
1, 318480, Pitch_bend_c, 13, 13892
1, 318480, Control_c, 14, 11, 84
1, 318600, Control_c, 4, 11, 105
1, 318600, Pitch_bend_c, 4, 14042
1, 318600, Control_c, 13, 11, 105
1, 318600, Pitch_bend_c, 13, 14042
1, 318720, Note_on_c, 1, 72, 105
1, 318720, Pitch_bend_c, 4, 14192
1, 318720, Control_c, 5, 11, 74
1, 318720, Note_on_c, 10, 72, 91
1, 318720, Pitch_bend_c, 13, 14192
1, 318720, Control_c, 14, 11, 74
1, 318840, Control_c, 4, 11, 109
1, 318840, Pitch_bend_c, 4, 14342
1, 318840, Control_c, 13, 11, 109
1, 318840, Pitch_bend_c, 13, 14342
1, 318960, Pitch_bend_c, 4, 14492
1, 318960, Control_c, 5, 11, 63
1, 318960, Pitch_bend_c, 13, 14492
1, 318960, Control_c, 14, 11, 63
1, 319020, Note_on_c, 1, 72, 0
1, 319020, Note_on_c, 10, 72, 0
1, 319080, Control_c, 4, 11, 112
1, 319080, Pitch_bend_c, 4, 14642
1, 319080, Control_c, 13, 11, 112
1, 319080, Pitch_bend_c, 13, 14642
1, 319140, Note_on_c, 1, 72, 105
1, 319140, Note_on_c, 10, 72, 91
1, 319200, Pitch_bend_c, 4, 14792
1, 319200, Control_c, 5, 11, 52
1, 319200, Pitch_bend_c, 13, 14792
1, 319200, Control_c, 14, 11, 52
1, 319320, Control_c, 4, 11, 115
1, 319320, Pitch_bend_c, 4, 14942
1, 319320, Control_c, 13, 11, 115
1, 319320, Pitch_bend_c, 13, 14942
1, 319440, Note_on_c, 1, 72, 0
1, 319440, Pitch_bend_c, 4, 15092
1, 319440, Control_c, 5, 11, 42
1, 319440, Note_on_c, 10, 72, 0
1, 319440, Pitch_bend_c, 13, 15092
1, 319440, Control_c, 14, 11, 42
1, 319560, Control_c, 4, 11, 118
1, 319560, Pitch_bend_c, 4, 15242
1, 319560, Control_c, 13, 11, 118
1, 319560, Pitch_bend_c, 13, 15242
1, 319680, Note_on_c, 1, 81, 105
1, 319680, Pitch_bend_c, 4, 15392
1, 319680, Note_on_c, 5, 72, 0
1, 319680, Note_on_c, 10, 81, 91
1, 319680, Note_on_c, 11, 53, 108
1, 319680, Note_on_c, 11, 70, 0
1, 319680, Note_on_c, 11, 65, 0
1, 319680, Note_on_c, 11, 58, 0
1, 319680, Note_on_c, 11, 62, 0
1, 319680, Pitch_bend_c, 13, 15392
1, 319680, Note_on_c, 14, 72, 0
1, 319800, Control_c, 4, 11, 121
1, 319800, Pitch_bend_c, 4, 15542
1, 319800, Control_c, 13, 11, 121
1, 319800, Pitch_bend_c, 13, 15542
1, 319920, Pitch_bend_c, 4, 15692
1, 319920, Pitch_bend_c, 13, 15692
1, 319980, Note_on_c, 1, 81, 0
1, 319980, Note_on_c, 10, 81, 0
1, 320040, Control_c, 4, 11, 124
1, 320040, Pitch_bend_c, 4, 15842
1, 320040, Control_c, 13, 11, 124
1, 320040, Pitch_bend_c, 13, 15842
1, 320100, Note_on_c, 1, 81, 105
1, 320100, Note_on_c, 10, 81, 91
1, 320160, Pitch_bend_c, 4, 15992
1, 320160, Pitch_bend_c, 13, 15992
1, 320280, Control_c, 4, 11, 127
1, 320280, Pitch_bend_c, 4, 16142
1, 320280, Control_c, 13, 11, 127
1, 320280, Pitch_bend_c, 13, 16142
1, 320345, Note_on_c, 1, 81, 0
1, 320345, Note_on_c, 10, 81, 0
1, 320400, Pitch_bend_c, 4, 16383
1, 320400, Pitch_bend_c, 13, 16383
1, 320580, Note_on_c, 2, 46, 0
1, 320640, Note_on_c, 1, 77, 105
1, 320640, Note_on_c, 8, 72, 70
1, 320640, Note_on_c, 10, 77, 91
1, 320640, Note_on_c, 11, 57, 108
1, 320640, Note_on_c, 12, 46, 0
1, 320700, Note_on_c, 8, 70, 0
1, 320760, Note_on_c, 2, 45, 86
1, 320760, Note_on_c, 12, 45, 102
1, 320940, Note_on_c, 1, 77, 0
1, 320940, Note_on_c, 10, 77, 0
1, 321060, Note_on_c, 1, 77, 105
1, 321060, Note_on_c, 10, 77, 91
1, 321360, Note_on_c, 1, 77, 0
1, 321360, Note_on_c, 10, 77, 0
1, 321540, Note_on_c, 3, 72, 0
1, 321600, Note_on_c, 1, 72, 105
1, 321600, Note_on_c, 3, 69, 64
1, 321600, Note_on_c, 8, 69, 70
1, 321600, Note_on_c, 10, 72, 91
1, 321600, Note_on_c, 11, 60, 108
1, 321660, Note_on_c, 2, 45, 0
1, 321660, Note_on_c, 12, 45, 0
1, 321780, Note_on_c, 2, 43, 86
1, 321780, Note_on_c, 8, 72, 0
1, 321780, Note_on_c, 12, 43, 102
1, 321900, Note_on_c, 1, 72, 0
1, 321900, Note_on_c, 10, 72, 0
1, 322020, Note_on_c, 1, 72, 105
1, 322020, Note_on_c, 10, 72, 91
1, 322320, Note_on_c, 1, 72, 0
1, 322320, Note_on_c, 10, 72, 0
1, 322560, Note_on_c, 1, 81, 105
1, 322560, Note_on_c, 8, 65, 70
1, 322560, Note_on_c, 10, 81, 91
1, 322560, Note_on_c, 11, 65, 108
1, 322680, Note_on_c, 8, 69, 0
1, 322800, Note_on_c, 2, 43, 0
1, 322800, Note_on_c, 12, 43, 0
1, 322860, Note_on_c, 1, 81, 0
1, 322860, Note_on_c, 2, 41, 86
1, 322860, Note_on_c, 10, 81, 0
1, 322920, Note_on_c, 12, 41, 102
1, 322980, Note_on_c, 1, 81, 105
1, 322980, Note_on_c, 10, 81, 91
1, 323225, Note_on_c, 1, 81, 0
1, 323225, Note_on_c, 10, 81, 0
1, 323520, Note_on_c, 1, 77, 105
1, 323520, Note_on_c, 3, 65, 64
1, 323520, Note_on_c, 3, 69, 0
1, 323520, Note_on_c, 10, 77, 91
1, 323820, Note_on_c, 1, 77, 0
1, 323820, Note_on_c, 10, 77, 0
1, 323940, Note_on_c, 1, 77, 105
1, 323940, Note_on_c, 10, 77, 91
1, 324240, Note_on_c, 1, 77, 0
1, 324240, Note_on_c, 10, 77, 0
1, 324480, Note_on_c, 1, 72, 105
1, 324480, Note_on_c, 10, 72, 91
1, 324720, Note_on_c, 3, 65, 0
1, 324780, Note_on_c, 1, 72, 0
1, 324780, Note_on_c, 3, 72, 64
1, 324780, Note_on_c, 10, 72, 0
1, 324840, Note_on_c, 2, 41, 0
1, 324900, Note_on_c, 1, 72, 105
1, 324900, Note_on_c, 2, 36, 86
1, 324900, Note_on_c, 10, 72, 91
1, 324900, Note_on_c, 12, 41, 0
1, 324960, Note_on_c, 12, 36, 102
1, 324980, Control_c, 5, 100, 0
1, 324980, Control_c, 5, 101, 0
1, 324980, Control_c, 5, 6, 12
1, 324980, Control_c, 14, 100, 0
1, 324980, Control_c, 14, 101, 0
1, 324980, Control_c, 14, 6, 12
1, 325015, Control_c, 5, 100, 127
1, 325015, Control_c, 5, 101, 127
1, 325015, Control_c, 14, 100, 127
1, 325015, Control_c, 14, 101, 127
1, 325200, Note_on_c, 1, 72, 0
1, 325200, Note_on_c, 10, 72, 0
1, 325220, Control_c, 5, 11, 31
1, 325220, Control_c, 14, 11, 31
1, 325280, Pitch_bend_c, 5, 8192
1, 325280, Pitch_bend_c, 14, 8192
1, 325440, Note_on_c, 1, 81, 105
1, 325440, Pitch_bend_c, 5, 8192
1, 325440, Control_c, 5, 11, 37
1, 325440, Note_on_c, 5, 60, 120
1, 325440, Note_on_c, 10, 81, 91
1, 325440, Pitch_bend_c, 14, 8192
1, 325440, Control_c, 14, 11, 37
1, 325440, Note_on_c, 14, 60, 120
1, 325585, Control_c, 5, 11, 42
1, 325585, Control_c, 14, 11, 42
1, 325680, Pitch_bend_c, 5, 8492
1, 325680, Control_c, 5, 11, 45
1, 325680, Pitch_bend_c, 14, 8492
1, 325680, Control_c, 14, 11, 45
1, 325740, Note_on_c, 1, 81, 0
1, 325740, Note_on_c, 10, 81, 0
1, 325800, Control_c, 5, 11, 48
1, 325800, Control_c, 14, 11, 48
1, 325860, Note_on_c, 1, 81, 105
1, 325860, Note_on_c, 10, 81, 91
1, 325920, Pitch_bend_c, 5, 8792
1, 325920, Pitch_bend_c, 14, 8792
1, 326040, Control_c, 5, 11, 51
1, 326040, Control_c, 14, 11, 51
1, 326105, Note_on_c, 1, 81, 0
1, 326105, Note_on_c, 10, 81, 0
1, 326160, Pitch_bend_c, 5, 9092
1, 326160, Pitch_bend_c, 14, 9092
1, 326280, Control_c, 5, 11, 55
1, 326280, Control_c, 14, 11, 55
1, 326400, Note_on_c, 1, 77, 105
1, 326400, Pitch_bend_c, 5, 9392
1, 326400, Note_on_c, 10, 77, 91
1, 326400, Pitch_bend_c, 14, 9392
1, 326520, Control_c, 5, 11, 58
1, 326520, Control_c, 14, 11, 58
1, 326640, Pitch_bend_c, 5, 9692
1, 326640, Pitch_bend_c, 14, 9692
1, 326700, Note_on_c, 1, 77, 0
1, 326700, Note_on_c, 10, 77, 0
1, 326760, Control_c, 5, 11, 61
1, 326760, Control_c, 14, 11, 61
1, 326820, Note_on_c, 1, 77, 105
1, 326820, Note_on_c, 10, 77, 91
1, 326880, Pitch_bend_c, 5, 9992
1, 326880, Pitch_bend_c, 14, 9992
1, 327000, Control_c, 5, 11, 64
1, 327000, Control_c, 14, 11, 64
1, 327060, Note_on_c, 3, 77, 81
1, 327060, Note_on_c, 3, 72, 0
1, 327120, Note_on_c, 1, 77, 0
1, 327120, Pitch_bend_c, 5, 10292
1, 327120, Note_on_c, 10, 77, 0
1, 327120, Pitch_bend_c, 14, 10292
1, 327240, Control_c, 5, 11, 67
1, 327240, Control_c, 14, 11, 67
1, 327360, Note_on_c, 1, 72, 105
1, 327360, Pitch_bend_c, 5, 10592
1, 327360, Note_on_c, 10, 72, 91
1, 327360, Pitch_bend_c, 14, 10592
1, 327480, Control_c, 5, 11, 70
1, 327480, Control_c, 14, 11, 70
1, 327600, Pitch_bend_c, 5, 10892
1, 327600, Pitch_bend_c, 14, 10892
1, 327660, Note_on_c, 1, 72, 0
1, 327660, Note_on_c, 10, 72, 0
1, 327720, Control_c, 5, 11, 74
1, 327720, Control_c, 14, 11, 74
1, 327780, Note_on_c, 1, 72, 105
1, 327780, Note_on_c, 10, 72, 91
1, 327840, Pitch_bend_c, 5, 11192
1, 327840, Pitch_bend_c, 14, 11192
1, 327960, Control_c, 5, 11, 77
1, 327960, Control_c, 14, 11, 77
1, 328080, Note_on_c, 1, 72, 0
1, 328080, Pitch_bend_c, 5, 11492
1, 328080, Note_on_c, 10, 72, 0
1, 328080, Pitch_bend_c, 14, 11492
1, 328200, Control_c, 5, 11, 80
1, 328200, Control_c, 14, 11, 80
1, 328320, Note_on_c, 1, 81, 105
1, 328320, Pitch_bend_c, 5, 11792
1, 328320, Note_on_c, 8, 77, 70
1, 328320, Note_on_c, 10, 81, 91
1, 328320, Pitch_bend_c, 14, 11792
1, 328440, Control_c, 5, 11, 83
1, 328440, Note_on_c, 8, 65, 0
1, 328440, Control_c, 14, 11, 83
1, 328560, Pitch_bend_c, 5, 12092
1, 328560, Pitch_bend_c, 14, 12092
1, 328620, Note_on_c, 1, 81, 0
1, 328620, Note_on_c, 10, 81, 0
1, 328680, Control_c, 5, 11, 86
1, 328680, Control_c, 14, 11, 86
1, 328740, Note_on_c, 1, 81, 105
1, 328740, Note_on_c, 10, 81, 91
1, 328800, Pitch_bend_c, 5, 12392
1, 328800, Pitch_bend_c, 14, 12392
1, 328920, Control_c, 5, 11, 89
1, 328920, Control_c, 14, 11, 89
1, 328985, Note_on_c, 1, 81, 0
1, 328985, Note_on_c, 10, 81, 0
1, 329040, Pitch_bend_c, 5, 12692
1, 329040, Pitch_bend_c, 14, 12692
1, 329160, Control_c, 5, 11, 93
1, 329160, Control_c, 14, 11, 93
1, 329275, Note_on_c, 8, 77, 0
1, 329280, Note_on_c, 1, 77, 105
1, 329280, Control_c, 4, 100, 110
1, 329280, Pitch_bend_c, 5, 12992
1, 329280, Note_on_c, 8, 76, 70
1, 329280, Note_on_c, 10, 77, 91
1, 329280, Control_c, 13, 100, 110
1, 329280, Pitch_bend_c, 14, 12992
1, 329400, Control_c, 5, 11, 96
1, 329400, Control_c, 14, 11, 96
1, 329520, Control_c, 4, 100, 100
1, 329520, Pitch_bend_c, 5, 13292
1, 329520, Control_c, 13, 100, 100
1, 329520, Pitch_bend_c, 14, 13292
1, 329580, Note_on_c, 1, 77, 0
1, 329580, Note_on_c, 10, 77, 0
1, 329640, Control_c, 5, 11, 99
1, 329640, Control_c, 14, 11, 99
1, 329700, Note_on_c, 1, 77, 105
1, 329700, Note_on_c, 10, 77, 91
1, 329760, Control_c, 4, 100, 90
1, 329760, Pitch_bend_c, 5, 13592
1, 329760, Control_c, 13, 100, 90
1, 329760, Pitch_bend_c, 14, 13592
1, 329880, Control_c, 5, 11, 102
1, 329880, Control_c, 14, 11, 102
1, 330000, Note_on_c, 1, 77, 0
1, 330000, Control_c, 4, 100, 80
1, 330000, Pitch_bend_c, 5, 13892
1, 330000, Note_on_c, 10, 77, 0
1, 330000, Control_c, 13, 100, 80
1, 330000, Pitch_bend_c, 14, 13892
1, 330120, Control_c, 5, 11, 105
1, 330120, Control_c, 14, 11, 105
1, 330240, Note_on_c, 1, 72, 105
1, 330240, Control_c, 4, 100, 70
1, 330240, Pitch_bend_c, 5, 14192
1, 330240, Note_on_c, 10, 72, 91
1, 330240, Control_c, 13, 100, 70
1, 330240, Pitch_bend_c, 14, 14192
1, 330360, Control_c, 5, 11, 109
1, 330360, Control_c, 14, 11, 109
1, 330480, Control_c, 4, 100, 60
1, 330480, Pitch_bend_c, 5, 14492
1, 330480, Control_c, 13, 100, 60
1, 330480, Pitch_bend_c, 14, 14492
1, 330540, Note_on_c, 1, 72, 0
1, 330540, Note_on_c, 10, 72, 0
1, 330600, Control_c, 5, 11, 112
1, 330600, Control_c, 14, 11, 112
1, 330660, Note_on_c, 1, 72, 105
1, 330660, Note_on_c, 10, 72, 91
1, 330720, Control_c, 4, 100, 50
1, 330720, Pitch_bend_c, 5, 14792
1, 330720, Control_c, 13, 100, 50
1, 330720, Pitch_bend_c, 14, 14792
1, 330840, Control_c, 5, 11, 115
1, 330840, Control_c, 14, 11, 115
1, 330960, Note_on_c, 1, 72, 0
1, 330960, Control_c, 4, 100, 40
1, 330960, Pitch_bend_c, 5, 15092
1, 330960, Note_on_c, 10, 72, 0
1, 330960, Control_c, 13, 100, 40
1, 330960, Pitch_bend_c, 14, 15092
1, 331080, Note_on_c, 2, 36, 0
1, 331080, Control_c, 5, 11, 118
1, 331080, Note_on_c, 12, 36, 0
1, 331080, Control_c, 14, 11, 118
1, 331195, Note_on_c, 8, 76, 0
1, 331200, Note_on_c, 1, 84, 105
1, 331200, Note_on_c, 2, 43, 86
1, 331200, Note_on_c, 4, 48, 0
1, 331200, Pitch_bend_c, 5, 15392
1, 331200, Note_on_c, 6, 24, 76
1, 331200, Note_on_c, 8, 72, 70
1, 331200, Note_on_c, 10, 84, 91
1, 331200, Note_on_c, 11, 60, 108
1, 331200, Note_on_c, 11, 65, 0
1, 331200, Note_on_c, 11, 60, 0
1, 331200, Note_on_c, 11, 53, 0
1, 331200, Note_on_c, 11, 57, 0
1, 331200, Note_on_c, 12, 43, 102
1, 331200, Note_on_c, 13, 48, 0
1, 331200, Pitch_bend_c, 14, 15392
1, 331320, Control_c, 5, 11, 121
1, 331320, Control_c, 14, 11, 121
1, 331440, Pitch_bend_c, 5, 15692
1, 331440, Pitch_bend_c, 14, 15692
1, 331500, Note_on_c, 1, 84, 0
1, 331500, Note_on_c, 10, 84, 0
1, 331560, Control_c, 5, 11, 124
1, 331560, Control_c, 14, 11, 124
1, 331620, Note_on_c, 1, 84, 105
1, 331620, Note_on_c, 10, 84, 91
1, 331680, Pitch_bend_c, 5, 15992
1, 331680, Pitch_bend_c, 14, 15992
1, 331800, Control_c, 5, 11, 127
1, 331800, Control_c, 14, 11, 127
1, 331865, Note_on_c, 1, 84, 0
1, 331865, Note_on_c, 10, 84, 0
1, 331920, Pitch_bend_c, 5, 16383
1, 331920, Pitch_bend_c, 14, 16383
1, 332160, Note_on_c, 1, 79, 105
1, 332160, Note_on_c, 3, 76, 81
1, 332160, Note_on_c, 3, 77, 0
1, 332160, Note_on_c, 10, 79, 91
1, 332160, Note_on_c, 11, 64, 108
1, 332460, Note_on_c, 1, 79, 0
1, 332460, Note_on_c, 10, 79, 0
1, 332580, Note_on_c, 1, 79, 105
1, 332580, Note_on_c, 10, 79, 91
1, 332880, Note_on_c, 1, 79, 0
1, 332880, Note_on_c, 10, 79, 0
1, 333000, Note_on_c, 2, 43, 0
1, 333000, Note_on_c, 12, 43, 0
1, 333120, Note_on_c, 1, 72, 105
1, 333120, Note_on_c, 2, 48, 86
1, 333120, Note_on_c, 3, 77, 81
1, 333120, Note_on_c, 3, 76, 0
1, 333120, Note_on_c, 10, 72, 91
1, 333120, Note_on_c, 11, 67, 108
1, 333120, Note_on_c, 12, 48, 102
1, 333420, Note_on_c, 1, 72, 0
1, 333420, Note_on_c, 10, 72, 0
1, 333540, Note_on_c, 1, 72, 105
1, 333540, Note_on_c, 10, 72, 91
1, 333840, Note_on_c, 1, 72, 0
1, 333840, Note_on_c, 10, 72, 0
1, 334080, Note_on_c, 1, 84, 105
1, 334080, Note_on_c, 3, 79, 81
1, 334080, Note_on_c, 3, 77, 0
1, 334080, Note_on_c, 7, 24, 0
1, 334080, Note_on_c, 10, 84, 91
1, 334080, Note_on_c, 11, 72, 108
1, 334380, Note_on_c, 1, 84, 0
1, 334380, Note_on_c, 10, 84, 0
1, 334500, Note_on_c, 1, 84, 105
1, 334500, Note_on_c, 10, 84, 91
1, 334745, Note_on_c, 1, 84, 0
1, 334745, Note_on_c, 10, 84, 0
1, 335035, Note_on_c, 8, 72, 0
1, 335040, Note_on_c, 1, 79, 105
1, 335040, Note_on_c, 8, 79, 70
1, 335040, Note_on_c, 10, 79, 91
1, 335340, Note_on_c, 1, 79, 0
1, 335340, Note_on_c, 10, 79, 0
1, 335460, Note_on_c, 1, 79, 105
1, 335460, Note_on_c, 10, 79, 91
1, 335760, Note_on_c, 1, 79, 0
1, 335760, Note_on_c, 10, 79, 0
1, 335940, Note_on_c, 8, 77, 70
1, 336000, Note_on_c, 1, 72, 105
1, 336000, Note_on_c, 3, 72, 81
1, 336000, Note_on_c, 3, 79, 0
1, 336000, Note_on_c, 10, 72, 91
1, 336060, Note_on_c, 8, 79, 0
1, 336300, Note_on_c, 1, 72, 0
1, 336300, Note_on_c, 10, 72, 0
1, 336420, Note_on_c, 1, 72, 105
1, 336420, Note_on_c, 10, 72, 91
1, 336720, Note_on_c, 1, 72, 0
1, 336720, Note_on_c, 10, 72, 0
1, 336780, Control_c, 4, 11, 42
1, 336780, Control_c, 13, 11, 42
1, 336840, Control_c, 4, 100, 0
1, 336840, Control_c, 4, 101, 0
1, 336840, Control_c, 4, 6, 12
1, 336840, Control_c, 13, 100, 0
1, 336840, Control_c, 13, 101, 0
1, 336840, Control_c, 13, 6, 12
1, 336900, Control_c, 4, 100, 127
1, 336900, Control_c, 4, 101, 127
1, 336900, Control_c, 13, 100, 127
1, 336900, Control_c, 13, 101, 127
1, 336920, Pitch_bend_c, 4, 8192
1, 336920, Pitch_bend_c, 13, 8192
1, 336960, Note_on_c, 1, 84, 105
1, 336960, Note_on_c, 3, 67, 81
1, 336960, Note_on_c, 3, 72, 0
1, 336960, Note_on_c, 4, 72, 120
1, 336960, Note_on_c, 10, 84, 91
1, 336960, Note_on_c, 13, 72, 120
1, 337080, Control_c, 4, 11, 45
1, 337080, Pitch_bend_c, 4, 8342
1, 337080, Note_on_c, 8, 72, 70
1, 337080, Control_c, 13, 11, 45
1, 337080, Pitch_bend_c, 13, 8342
1, 337140, Note_on_c, 8, 77, 0
1, 337200, Pitch_bend_c, 4, 8492
1, 337200, Pitch_bend_c, 13, 8492
1, 337260, Note_on_c, 1, 84, 0
1, 337260, Note_on_c, 10, 84, 0
1, 337320, Control_c, 4, 11, 48
1, 337320, Pitch_bend_c, 4, 8642
1, 337320, Control_c, 13, 11, 48
1, 337320, Pitch_bend_c, 13, 8642
1, 337380, Note_on_c, 1, 84, 105
1, 337380, Note_on_c, 10, 84, 91
1, 337440, Pitch_bend_c, 4, 8792
1, 337440, Pitch_bend_c, 13, 8792
1, 337560, Control_c, 4, 11, 51
1, 337560, Pitch_bend_c, 4, 8942
1, 337560, Control_c, 13, 11, 51
1, 337560, Pitch_bend_c, 13, 8942
1, 337625, Note_on_c, 1, 84, 0
1, 337625, Note_on_c, 10, 84, 0
1, 337680, Pitch_bend_c, 4, 9092
1, 337680, Pitch_bend_c, 13, 9092
1, 337800, Control_c, 4, 11, 55
1, 337800, Pitch_bend_c, 4, 9242
1, 337800, Control_c, 13, 11, 55
1, 337800, Pitch_bend_c, 13, 9242
1, 337920, Note_on_c, 1, 79, 105
1, 337920, Pitch_bend_c, 4, 9392
1, 337920, Note_on_c, 10, 79, 91
1, 337920, Pitch_bend_c, 13, 9392
1, 338040, Control_c, 4, 11, 58
1, 338040, Pitch_bend_c, 4, 9542
1, 338040, Control_c, 13, 11, 58
1, 338040, Pitch_bend_c, 13, 9542
1, 338160, Pitch_bend_c, 4, 9692
1, 338160, Pitch_bend_c, 13, 9692
1, 338220, Note_on_c, 1, 79, 0
1, 338220, Note_on_c, 10, 79, 0
1, 338280, Control_c, 4, 11, 61
1, 338280, Pitch_bend_c, 4, 9842
1, 338280, Control_c, 13, 11, 61
1, 338280, Pitch_bend_c, 13, 9842
1, 338340, Note_on_c, 1, 79, 105
1, 338340, Note_on_c, 10, 79, 91
1, 338400, Pitch_bend_c, 4, 9992
1, 338400, Pitch_bend_c, 13, 9992
1, 338520, Control_c, 4, 11, 64
1, 338520, Pitch_bend_c, 4, 10142
1, 338520, Control_c, 13, 11, 64
1, 338520, Pitch_bend_c, 13, 10142
1, 338640, Note_on_c, 1, 79, 0
1, 338640, Pitch_bend_c, 4, 10292
1, 338640, Note_on_c, 10, 79, 0
1, 338640, Pitch_bend_c, 13, 10292
1, 338760, Control_c, 4, 11, 67
1, 338760, Pitch_bend_c, 4, 10442
1, 338760, Control_c, 13, 11, 67
1, 338760, Pitch_bend_c, 13, 10442
1, 338880, Note_on_c, 1, 72, 105
1, 338880, Pitch_bend_c, 4, 10592
1, 338880, Note_on_c, 10, 72, 91
1, 338880, Pitch_bend_c, 13, 10592
1, 339000, Control_c, 4, 11, 70
1, 339000, Pitch_bend_c, 4, 10742
1, 339000, Control_c, 13, 11, 70
1, 339000, Pitch_bend_c, 13, 10742
1, 339120, Pitch_bend_c, 4, 10892
1, 339120, Pitch_bend_c, 13, 10892
1, 339180, Note_on_c, 1, 72, 0
1, 339180, Note_on_c, 10, 72, 0
1, 339240, Control_c, 4, 11, 74
1, 339240, Pitch_bend_c, 4, 11042
1, 339240, Control_c, 13, 11, 74
1, 339240, Pitch_bend_c, 13, 11042
1, 339300, Note_on_c, 1, 72, 105
1, 339300, Note_on_c, 10, 72, 91
1, 339360, Pitch_bend_c, 4, 11192
1, 339360, Pitch_bend_c, 13, 11192
1, 339480, Control_c, 4, 11, 77
1, 339480, Pitch_bend_c, 4, 11342
1, 339480, Control_c, 13, 11, 77
1, 339480, Pitch_bend_c, 13, 11342
1, 339600, Note_on_c, 1, 72, 0
1, 339600, Pitch_bend_c, 4, 11492
1, 339600, Note_on_c, 10, 72, 0
1, 339600, Pitch_bend_c, 13, 11492
1, 339720, Control_c, 4, 11, 80
1, 339720, Pitch_bend_c, 4, 11642
1, 339720, Control_c, 13, 11, 80
1, 339720, Pitch_bend_c, 13, 11642
1, 339840, Note_on_c, 1, 84, 105
1, 339840, Pitch_bend_c, 4, 11792
1, 339840, Note_on_c, 10, 84, 91
1, 339840, Pitch_bend_c, 13, 11792
1, 339960, Control_c, 4, 11, 83
1, 339960, Pitch_bend_c, 4, 11942
1, 339960, Control_c, 13, 11, 83
1, 339960, Pitch_bend_c, 13, 11942
1, 340080, Pitch_bend_c, 4, 12092
1, 340080, Pitch_bend_c, 13, 12092
1, 340140, Note_on_c, 1, 84, 0
1, 340140, Note_on_c, 10, 84, 0
1, 340200, Control_c, 4, 11, 86
1, 340200, Pitch_bend_c, 4, 12242
1, 340200, Control_c, 13, 11, 86
1, 340200, Pitch_bend_c, 13, 12242
1, 340260, Note_on_c, 1, 84, 105
1, 340260, Note_on_c, 10, 84, 91
1, 340320, Pitch_bend_c, 4, 12392
1, 340320, Pitch_bend_c, 13, 12392
1, 340440, Control_c, 4, 11, 89
1, 340440, Pitch_bend_c, 4, 12542
1, 340440, Control_c, 13, 11, 89
1, 340440, Pitch_bend_c, 13, 12542
1, 340505, Note_on_c, 1, 84, 0
1, 340505, Note_on_c, 10, 84, 0
1, 340560, Pitch_bend_c, 4, 12692
1, 340560, Pitch_bend_c, 13, 12692
1, 340680, Control_c, 4, 11, 93
1, 340680, Pitch_bend_c, 4, 12842
1, 340680, Control_c, 13, 11, 93
1, 340680, Pitch_bend_c, 13, 12842
1, 340800, Note_on_c, 1, 79, 105
1, 340800, Pitch_bend_c, 4, 12992
1, 340800, Control_c, 5, 100, 110
1, 340800, Note_on_c, 10, 79, 91
1, 340800, Pitch_bend_c, 13, 12992
1, 340800, Control_c, 14, 100, 110
1, 340920, Control_c, 4, 11, 96
1, 340920, Pitch_bend_c, 4, 13142
1, 340920, Control_c, 13, 11, 96
1, 340920, Pitch_bend_c, 13, 13142
1, 341040, Pitch_bend_c, 4, 13292
1, 341040, Control_c, 5, 100, 100
1, 341040, Pitch_bend_c, 13, 13292
1, 341040, Control_c, 14, 100, 100
1, 341100, Note_on_c, 1, 79, 0
1, 341100, Note_on_c, 10, 79, 0
1, 341160, Control_c, 4, 11, 99
1, 341160, Pitch_bend_c, 4, 13442
1, 341160, Control_c, 13, 11, 99
1, 341160, Pitch_bend_c, 13, 13442
1, 341220, Note_on_c, 1, 79, 105
1, 341220, Note_on_c, 10, 79, 91
1, 341280, Pitch_bend_c, 4, 13592
1, 341280, Control_c, 5, 100, 90
1, 341280, Pitch_bend_c, 13, 13592
1, 341280, Control_c, 14, 100, 90
1, 341400, Control_c, 4, 11, 102
1, 341400, Pitch_bend_c, 4, 13742
1, 341400, Control_c, 13, 11, 102
1, 341400, Pitch_bend_c, 13, 13742
1, 341520, Note_on_c, 1, 79, 0
1, 341520, Pitch_bend_c, 4, 13892
1, 341520, Control_c, 5, 100, 80
1, 341520, Note_on_c, 10, 79, 0
1, 341520, Pitch_bend_c, 13, 13892
1, 341520, Control_c, 14, 100, 80
1, 341640, Pitch_bend_c, 4, 14042
1, 341640, Control_c, 4, 11, 105
1, 341640, Pitch_bend_c, 13, 14042
1, 341640, Control_c, 13, 11, 105
1, 341760, Note_on_c, 1, 72, 105
1, 341760, Pitch_bend_c, 4, 14192
1, 341760, Control_c, 5, 100, 70
1, 341760, Note_on_c, 10, 72, 91
1, 341760, Pitch_bend_c, 13, 14192
1, 341760, Control_c, 14, 100, 70
1, 341880, Pitch_bend_c, 4, 14342
1, 341880, Control_c, 4, 11, 109
1, 341880, Pitch_bend_c, 13, 14342
1, 341880, Control_c, 13, 11, 109
1, 342000, Pitch_bend_c, 4, 14492
1, 342000, Control_c, 5, 100, 60
1, 342000, Pitch_bend_c, 13, 14492
1, 342000, Control_c, 14, 100, 60
1, 342060, Note_on_c, 1, 72, 0
1, 342060, Note_on_c, 10, 72, 0
1, 342120, Pitch_bend_c, 4, 14642
1, 342120, Control_c, 4, 11, 112
1, 342120, Pitch_bend_c, 13, 14642
1, 342120, Control_c, 13, 11, 112
1, 342180, Note_on_c, 1, 72, 105
1, 342180, Note_on_c, 10, 72, 91
1, 342240, Pitch_bend_c, 4, 14792
1, 342240, Control_c, 5, 100, 50
1, 342240, Pitch_bend_c, 13, 14792
1, 342240, Control_c, 14, 100, 50
1, 342360, Pitch_bend_c, 4, 14942
1, 342360, Control_c, 4, 11, 115
1, 342360, Pitch_bend_c, 13, 14942
1, 342360, Control_c, 13, 11, 115
1, 342480, Note_on_c, 1, 72, 0
1, 342480, Pitch_bend_c, 4, 15092
1, 342480, Control_c, 5, 100, 40
1, 342480, Note_on_c, 10, 72, 0
1, 342480, Pitch_bend_c, 13, 15092
1, 342480, Control_c, 14, 100, 40
1, 342600, Pitch_bend_c, 4, 15242
1, 342600, Control_c, 4, 11, 118
1, 342600, Pitch_bend_c, 13, 15242
1, 342600, Control_c, 13, 11, 118
1, 342720, Note_on_c, 1, 84, 105
1, 342720, Pitch_bend_c, 4, 15392
1, 342720, Note_on_c, 5, 60, 0
1, 342720, Note_on_c, 10, 84, 91
1, 342720, Pitch_bend_c, 13, 15392
1, 342720, Note_on_c, 14, 60, 0
1, 342840, Pitch_bend_c, 4, 15542
1, 342840, Control_c, 4, 11, 121
1, 342840, Pitch_bend_c, 13, 15542
1, 342840, Control_c, 13, 11, 121
1, 342960, Pitch_bend_c, 4, 15692
1, 342960, Pitch_bend_c, 13, 15692
1, 343020, Note_on_c, 1, 84, 0
1, 343020, Note_on_c, 10, 84, 0
1, 343080, Pitch_bend_c, 4, 15842
1, 343080, Control_c, 4, 11, 124
1, 343080, Pitch_bend_c, 13, 15842
1, 343080, Control_c, 13, 11, 124
1, 343180, Note_on_c, 1, 84, 105
1, 343180, Note_on_c, 10, 84, 91
1, 343200, Pitch_bend_c, 4, 15992
1, 343200, Pitch_bend_c, 13, 15992
1, 343320, Pitch_bend_c, 4, 16142
1, 343320, Control_c, 4, 11, 127
1, 343320, Pitch_bend_c, 13, 16142
1, 343320, Control_c, 13, 11, 127
1, 343440, Pitch_bend_c, 4, 16383
1, 343440, Pitch_bend_c, 13, 16383
1, 343480, Note_on_c, 1, 84, 0
1, 343480, Note_on_c, 10, 84, 0
1, 343760, Note_on_c, 1, 79, 105
1, 343760, Note_on_c, 10, 79, 91
1, 344060, Note_on_c, 1, 79, 0
1, 344060, Note_on_c, 10, 79, 0
1, 344220, Note_on_c, 1, 79, 105
1, 344220, Note_on_c, 10, 79, 91
1, 344580, Note_on_c, 1, 79, 0
1, 344580, Note_on_c, 10, 79, 0
1, 344850, Note_on_c, 1, 72, 105
1, 344850, Note_on_c, 10, 72, 91
1, 345210, Note_on_c, 1, 72, 0
1, 345210, Note_on_c, 10, 72, 0
1, 345360, Note_on_c, 3, 67, 0
1, 345365, Note_on_c, 1, 72, 105
1, 345365, Note_on_c, 10, 72, 91
1, 345600, Note_on_c, 3, 60, 81
1, 345725, Note_on_c, 1, 72, 0
1, 345725, Note_on_c, 10, 72, 0
1, 346020, Note_on_c, 1, 84, 105
1, 346020, Note_on_c, 10, 84, 91
1, 346380, Note_on_c, 1, 84, 0
1, 346380, Note_on_c, 10, 84, 0
1, 346620, Note_on_c, 1, 84, 105
1, 346620, Note_on_c, 10, 84, 91
1, 347040, Note_on_c, 1, 84, 0
1, 347040, Note_on_c, 10, 84, 0
1, 347220, Note_on_c, 1, 79, 105
1, 347220, Note_on_c, 10, 79, 91
1, 347760, Note_on_c, 1, 79, 0
1, 347760, Note_on_c, 10, 79, 0
1, 347880, Note_on_c, 1, 79, 105
1, 347880, Note_on_c, 10, 79, 91
1, 348540, Note_on_c, 1, 79, 0
1, 348540, Note_on_c, 10, 79, 0
1, 348660, Note_on_c, 1, 72, 105
1, 348660, Note_on_c, 10, 72, 91
1, 349260, Note_on_c, 1, 72, 0
1, 349260, Note_on_c, 10, 72, 0
1, 349440, Note_on_c, 1, 72, 105
1, 349440, Note_on_c, 10, 72, 91
1, 350100, Note_on_c, 1, 72, 0
1, 350100, Note_on_c, 10, 72, 0
1, 350520, Note_on_c, 1, 84, 105
1, 350520, Note_on_c, 10, 84, 91
1, 351240, Note_on_c, 1, 84, 0
1, 351240, Note_on_c, 10, 84, 0
1, 351540, Note_on_c, 1, 84, 105
1, 351540, Note_on_c, 10, 84, 91
1, 352260, Note_on_c, 1, 84, 0
1, 352260, Note_on_c, 10, 84, 0
1, 352560, Note_on_c, 1, 79, 105
1, 352560, Note_on_c, 10, 79, 91
1, 353280, Note_on_c, 1, 79, 0
1, 353280, Note_on_c, 10, 79, 0
1, 353520, Control_c, 4, 11, 116
1, 353520, Control_c, 13, 11, 116
1, 353640, Note_on_c, 1, 79, 105
1, 353640, Note_on_c, 10, 79, 91
1, 353760, Control_c, 4, 11, 105
1, 353760, Control_c, 13, 11, 105
1, 354000, Control_c, 4, 11, 95
1, 354000, Control_c, 5, 100, 0
1, 354000, Control_c, 5, 101, 0
1, 354000, Control_c, 5, 6, 24
1, 354000, Control_c, 13, 11, 95
1, 354000, Control_c, 14, 100, 0
1, 354000, Control_c, 14, 101, 0
1, 354000, Control_c, 14, 6, 24
1, 354060, Control_c, 5, 100, 127
1, 354060, Control_c, 5, 101, 127
1, 354060, Control_c, 14, 100, 127
1, 354060, Control_c, 14, 101, 127
1, 354140, Control_c, 5, 11, 26
1, 354140, Control_c, 14, 11, 26
1, 354180, Pitch_bend_c, 5, 16383
1, 354180, Pitch_bend_c, 14, 16383
1, 354240, Control_c, 4, 11, 84
1, 354240, Control_c, 5, 11, 31
1, 354240, Pitch_bend_c, 5, 16192
1, 354240, Note_on_c, 5, 48, 120
1, 354240, Control_c, 13, 11, 84
1, 354240, Control_c, 14, 11, 31
1, 354240, Pitch_bend_c, 14, 16192
1, 354240, Note_on_c, 14, 48, 120
1, 354360, Pitch_bend_c, 5, 16092
1, 354360, Control_c, 5, 11, 34
1, 354360, Pitch_bend_c, 14, 16092
1, 354360, Control_c, 14, 11, 34
1, 354480, Control_c, 4, 11, 74
1, 354480, Control_c, 5, 11, 38
1, 354480, Pitch_bend_c, 5, 15992
1, 354480, Control_c, 13, 11, 74
1, 354480, Control_c, 14, 11, 38
1, 354480, Pitch_bend_c, 14, 15992
1, 354600, Pitch_bend_c, 5, 15892
1, 354600, Pitch_bend_c, 14, 15892
1, 354660, Note_on_c, 1, 79, 0
1, 354660, Note_on_c, 10, 79, 0
1, 354720, Control_c, 4, 11, 63
1, 354720, Control_c, 5, 11, 41
1, 354720, Pitch_bend_c, 5, 15792
1, 354720, Control_c, 13, 11, 63
1, 354720, Control_c, 14, 11, 41
1, 354720, Pitch_bend_c, 14, 15792
1, 354840, Pitch_bend_c, 5, 15692
1, 354840, Note_on_c, 12, 48, 0
1, 354840, Pitch_bend_c, 14, 15692
1, 354900, Note_on_c, 2, 48, 0
1, 354960, Note_on_c, 2, 43, 86
1, 354960, Control_c, 4, 11, 52
1, 354960, Control_c, 5, 11, 44
1, 354960, Pitch_bend_c, 5, 15592
1, 354960, Note_on_c, 12, 43, 102
1, 354960, Control_c, 13, 11, 52
1, 354960, Control_c, 14, 11, 44
1, 354960, Pitch_bend_c, 14, 15592
1, 355020, Note_on_c, 1, 72, 105
1, 355020, Note_on_c, 10, 72, 91
1, 355080, Pitch_bend_c, 5, 15492
1, 355080, Pitch_bend_c, 14, 15492
1, 355200, Control_c, 4, 11, 42
1, 355200, Control_c, 5, 11, 47
1, 355200, Pitch_bend_c, 5, 15392
1, 355200, Control_c, 13, 11, 42
1, 355200, Control_c, 14, 11, 47
1, 355200, Pitch_bend_c, 14, 15392
1, 355320, Pitch_bend_c, 5, 15292
1, 355320, Pitch_bend_c, 14, 15292
1, 355440, Control_c, 4, 11, 31
1, 355440, Control_c, 5, 11, 50
1, 355440, Pitch_bend_c, 5, 15192
1, 355440, Control_c, 13, 11, 31
1, 355440, Control_c, 14, 11, 50
1, 355440, Pitch_bend_c, 14, 15192
1, 355560, Pitch_bend_c, 5, 15092
1, 355560, Pitch_bend_c, 14, 15092
1, 355680, Control_c, 4, 11, 21
1, 355680, Control_c, 5, 11, 53
1, 355680, Pitch_bend_c, 5, 14992
1, 355680, Control_c, 13, 11, 21
1, 355680, Control_c, 14, 11, 53
1, 355680, Pitch_bend_c, 14, 14992
1, 355800, Pitch_bend_c, 5, 14892
1, 355800, Pitch_bend_c, 14, 14892
1, 355920, Control_c, 4, 11, 10
1, 355920, Control_c, 5, 11, 57
1, 355920, Pitch_bend_c, 5, 14792
1, 355920, Control_c, 13, 11, 10
1, 355920, Control_c, 14, 11, 57
1, 355920, Pitch_bend_c, 14, 14792
1, 356040, Note_on_c, 1, 72, 0
1, 356040, Note_on_c, 4, 72, 0
1, 356040, Pitch_bend_c, 5, 14692
1, 356040, Note_on_c, 10, 72, 0
1, 356040, Note_on_c, 13, 72, 0
1, 356040, Pitch_bend_c, 14, 14692
1, 356160, Control_c, 5, 11, 60
1, 356160, Pitch_bend_c, 5, 14592
1, 356160, Control_c, 14, 11, 60
1, 356160, Pitch_bend_c, 14, 14592
1, 356280, Pitch_bend_c, 5, 14492
1, 356280, Pitch_bend_c, 14, 14492
1, 356400, Control_c, 5, 11, 63
1, 356400, Pitch_bend_c, 5, 14392
1, 356400, Control_c, 14, 11, 63
1, 356400, Pitch_bend_c, 14, 14392
1, 356520, Pitch_bend_c, 5, 14292
1, 356520, Pitch_bend_c, 14, 14292
1, 356640, Control_c, 5, 11, 66
1, 356640, Pitch_bend_c, 5, 14192
1, 356640, Control_c, 14, 11, 66
1, 356640, Pitch_bend_c, 14, 14192
1, 356760, Note_on_c, 1, 72, 105
1, 356760, Pitch_bend_c, 5, 14092
1, 356760, Note_on_c, 10, 72, 91
1, 356760, Pitch_bend_c, 14, 14092
1, 356880, Control_c, 5, 11, 69
1, 356880, Pitch_bend_c, 5, 13992
1, 356880, Control_c, 14, 11, 69
1, 356880, Pitch_bend_c, 14, 13992
1, 357020, Pitch_bend_c, 5, 13892
1, 357020, Pitch_bend_c, 14, 13892
1, 357120, Control_c, 5, 11, 73
1, 357120, Pitch_bend_c, 5, 13792
1, 357120, Control_c, 14, 11, 73
1, 357120, Pitch_bend_c, 14, 13792
1, 357240, Pitch_bend_c, 5, 13692
1, 357240, Pitch_bend_c, 14, 13692
1, 357360, Control_c, 5, 11, 76
1, 357360, Pitch_bend_c, 5, 13592
1, 357360, Control_c, 14, 11, 76
1, 357360, Pitch_bend_c, 14, 13592
1, 357480, Pitch_bend_c, 5, 13492
1, 357480, Pitch_bend_c, 14, 13492
1, 357600, Control_c, 5, 11, 79
1, 357600, Pitch_bend_c, 5, 13392
1, 357600, Control_c, 14, 11, 79
1, 357600, Pitch_bend_c, 14, 13392
1, 357720, Pitch_bend_c, 5, 13292
1, 357720, Pitch_bend_c, 14, 13292
1, 357840, Control_c, 5, 11, 82
1, 357840, Pitch_bend_c, 5, 13192
1, 357840, Control_c, 14, 11, 82
1, 357840, Pitch_bend_c, 14, 13192
1, 357960, Pitch_bend_c, 5, 13092
1, 357960, Pitch_bend_c, 14, 13092
1, 358080, Control_c, 5, 11, 96
1, 358080, Pitch_bend_c, 5, 12992
1, 358080, Control_c, 14, 11, 96
1, 358080, Pitch_bend_c, 14, 12992
1, 358200, Note_on_c, 1, 72, 0
1, 358200, Pitch_bend_c, 5, 12892
1, 358200, Note_on_c, 10, 72, 0
1, 358200, Pitch_bend_c, 14, 12892
1, 358320, Control_c, 5, 11, 99
1, 358320, Pitch_bend_c, 5, 12792
1, 358320, Control_c, 14, 11, 99
1, 358320, Pitch_bend_c, 14, 12792
1, 358440, Pitch_bend_c, 5, 12692
1, 358440, Pitch_bend_c, 14, 12692
1, 358560, Control_c, 5, 11, 102
1, 358560, Pitch_bend_c, 5, 12592
1, 358560, Control_c, 14, 11, 102
1, 358560, Pitch_bend_c, 14, 12592
1, 358680, Pitch_bend_c, 5, 12492
1, 358680, Pitch_bend_c, 14, 12492
1, 358800, Note_on_c, 1, 67, 105
1, 358800, Control_c, 5, 11, 105
1, 358800, Pitch_bend_c, 5, 12392
1, 358800, Note_on_c, 10, 67, 91
1, 358800, Control_c, 14, 11, 105
1, 358800, Pitch_bend_c, 14, 12392
1, 358920, Pitch_bend_c, 5, 12292
1, 358920, Pitch_bend_c, 14, 12292
1, 359040, Control_c, 5, 11, 109
1, 359040, Pitch_bend_c, 5, 12192
1, 359040, Control_c, 14, 11, 109
1, 359040, Pitch_bend_c, 14, 12192
1, 359160, Pitch_bend_c, 5, 12092
1, 359160, Pitch_bend_c, 14, 12092
1, 359280, Control_c, 5, 11, 112
1, 359280, Pitch_bend_c, 5, 11992
1, 359280, Control_c, 14, 11, 112
1, 359280, Pitch_bend_c, 14, 11992
1, 359400, Pitch_bend_c, 5, 11892
1, 359400, Pitch_bend_c, 14, 11892
1, 359520, Control_c, 5, 11, 115
1, 359520, Pitch_bend_c, 5, 11792
1, 359520, Control_c, 14, 11, 115
1, 359520, Pitch_bend_c, 14, 11792
1, 359640, Pitch_bend_c, 5, 11692
1, 359640, Pitch_bend_c, 14, 11692
1, 359760, Control_c, 5, 11, 118
1, 359760, Pitch_bend_c, 5, 11592
1, 359760, Control_c, 14, 11, 118
1, 359760, Pitch_bend_c, 14, 11592
1, 359900, Pitch_bend_c, 5, 11492
1, 359900, Pitch_bend_c, 14, 11492
1, 360000, Pitch_bend_c, 5, 11392
1, 360000, Control_c, 5, 11, 121
1, 360000, Note_on_c, 8, 72, 0
1, 360000, Pitch_bend_c, 14, 11392
1, 360000, Control_c, 14, 11, 121
1, 360120, Pitch_bend_c, 5, 11292
1, 360120, Pitch_bend_c, 14, 11292
1, 360240, Pitch_bend_c, 5, 11192
1, 360240, Control_c, 5, 11, 124
1, 360240, Pitch_bend_c, 14, 11192
1, 360240, Control_c, 14, 11, 124
1, 360300, Note_on_c, 1, 67, 0
1, 360300, Note_on_c, 10, 67, 0
1, 360360, Pitch_bend_c, 5, 11092
1, 360360, Pitch_bend_c, 14, 11092
1, 360480, Pitch_bend_c, 5, 10992
1, 360480, Control_c, 5, 11, 127
1, 360480, Pitch_bend_c, 14, 10992
1, 360480, Control_c, 14, 11, 127
1, 360600, Pitch_bend_c, 5, 10892
1, 360600, Pitch_bend_c, 14, 10892
1, 360720, Pitch_bend_c, 5, 10792
1, 360720, Pitch_bend_c, 14, 10792
1, 360840, Pitch_bend_c, 5, 10692
1, 360840, Pitch_bend_c, 14, 10692
1, 360960, Note_on_c, 1, 67, 105
1, 360960, Pitch_bend_c, 5, 10592
1, 360960, Note_on_c, 10, 67, 91
1, 360960, Pitch_bend_c, 14, 10592
1, 361080, Pitch_bend_c, 5, 10492
1, 361080, Pitch_bend_c, 14, 10492
1, 361200, Pitch_bend_c, 5, 10392
1, 361200, Pitch_bend_c, 14, 10392
1, 361320, Pitch_bend_c, 5, 10292
1, 361320, Pitch_bend_c, 14, 10292
1, 361440, Pitch_bend_c, 5, 10192
1, 361440, Pitch_bend_c, 14, 10192
1, 361560, Pitch_bend_c, 5, 10092
1, 361560, Pitch_bend_c, 14, 10092
1, 361680, Pitch_bend_c, 5, 9992
1, 361680, Pitch_bend_c, 14, 9992
1, 361800, Pitch_bend_c, 5, 9892
1, 361800, Pitch_bend_c, 14, 9892
1, 361920, Pitch_bend_c, 5, 9792
1, 361920, Pitch_bend_c, 14, 9792
1, 362040, Pitch_bend_c, 5, 9692
1, 362040, Pitch_bend_c, 14, 9692
1, 362160, Pitch_bend_c, 5, 9592
1, 362160, Pitch_bend_c, 14, 9592
1, 362280, Pitch_bend_c, 5, 9492
1, 362280, Pitch_bend_c, 14, 9492
1, 362340, Note_on_c, 1, 67, 0
1, 362340, Note_on_c, 10, 67, 0
1, 362400, Pitch_bend_c, 5, 9392
1, 362400, Pitch_bend_c, 14, 9392
1, 362520, Pitch_bend_c, 5, 9292
1, 362520, Pitch_bend_c, 14, 9292
1, 362640, Control_c, 4, 100, 0
1, 362640, Control_c, 4, 101, 0
1, 362640, Control_c, 4, 6, 24
1, 362640, Pitch_bend_c, 5, 9192
1, 362640, Control_c, 13, 100, 0
1, 362640, Control_c, 13, 101, 0
1, 362640, Control_c, 13, 6, 24
1, 362640, Pitch_bend_c, 14, 9192
1, 362700, Control_c, 4, 100, 127
1, 362700, Control_c, 4, 101, 127
1, 362700, Control_c, 13, 100, 127
1, 362700, Control_c, 13, 101, 127
1, 362760, Pitch_bend_c, 5, 9092
1, 362760, Pitch_bend_c, 14, 9092
1, 362780, Control_c, 4, 11, 26
1, 362780, Control_c, 13, 11, 26
1, 362820, Pitch_bend_c, 4, 16383
1, 362820, Pitch_bend_c, 13, 16383
1, 362880, Control_c, 4, 11, 31
1, 362880, Pitch_bend_c, 4, 16192
1, 362880, Note_on_c, 4, 48, 120
1, 362880, Pitch_bend_c, 5, 8992
1, 362880, Control_c, 13, 11, 31
1, 362880, Pitch_bend_c, 13, 16192
1, 362880, Note_on_c, 13, 48, 120
1, 362880, Pitch_bend_c, 14, 8992
1, 362940, Note_on_c, 2, 43, 0
1, 362940, Note_on_c, 12, 43, 0
1, 363000, Pitch_bend_c, 4, 16092
1, 363000, Control_c, 4, 11, 34
1, 363000, Pitch_bend_c, 5, 8892
1, 363000, Pitch_bend_c, 13, 16092
1, 363000, Control_c, 13, 11, 34
1, 363000, Pitch_bend_c, 14, 8892
1, 363120, Note_on_c, 2, 36, 86
1, 363120, Control_c, 4, 11, 38
1, 363120, Pitch_bend_c, 4, 15992
1, 363120, Pitch_bend_c, 5, 8792
1, 363120, Note_on_c, 12, 36, 102
1, 363120, Control_c, 13, 11, 38
1, 363120, Pitch_bend_c, 13, 15992
1, 363120, Pitch_bend_c, 14, 8792
1, 363240, Note_on_c, 1, 60, 105
1, 363240, Pitch_bend_c, 4, 15892
1, 363240, Pitch_bend_c, 5, 8692
1, 363240, Note_on_c, 10, 60, 91
1, 363240, Pitch_bend_c, 13, 15892
1, 363240, Pitch_bend_c, 14, 8692
1, 363360, Control_c, 4, 11, 41
1, 363360, Pitch_bend_c, 4, 15792
1, 363360, Pitch_bend_c, 5, 8592
1, 363360, Control_c, 13, 11, 41
1, 363360, Pitch_bend_c, 13, 15792
1, 363360, Pitch_bend_c, 14, 8592
1, 363480, Pitch_bend_c, 4, 15692
1, 363480, Pitch_bend_c, 5, 8492
1, 363480, Pitch_bend_c, 13, 15692
1, 363480, Pitch_bend_c, 14, 8492
1, 363600, Control_c, 4, 11, 44
1, 363600, Pitch_bend_c, 4, 15592
1, 363600, Pitch_bend_c, 5, 8392
1, 363600, Control_c, 13, 11, 44
1, 363600, Pitch_bend_c, 13, 15592
1, 363600, Pitch_bend_c, 14, 8392
1, 363720, Pitch_bend_c, 4, 15492
1, 363720, Pitch_bend_c, 5, 8292
1, 363720, Pitch_bend_c, 13, 15492
1, 363720, Pitch_bend_c, 14, 8292
1, 363840, Control_c, 4, 11, 47
1, 363840, Pitch_bend_c, 4, 15392
1, 363840, Pitch_bend_c, 5, 8192
1, 363840, Control_c, 13, 11, 47
1, 363840, Pitch_bend_c, 13, 15392
1, 363840, Pitch_bend_c, 14, 8192
1, 363960, Pitch_bend_c, 4, 15292
1, 363960, Pitch_bend_c, 13, 15292
1, 364080, Control_c, 4, 11, 50
1, 364080, Pitch_bend_c, 4, 15192
1, 364080, Control_c, 13, 11, 50
1, 364080, Pitch_bend_c, 13, 15192
1, 364200, Pitch_bend_c, 4, 15092
1, 364200, Pitch_bend_c, 13, 15092
1, 364320, Control_c, 4, 11, 53
1, 364320, Pitch_bend_c, 4, 14992
1, 364320, Control_c, 13, 11, 53
1, 364320, Pitch_bend_c, 13, 14992
1, 364440, Pitch_bend_c, 4, 14892
1, 364440, Pitch_bend_c, 13, 14892
1, 364560, Control_c, 4, 11, 57
1, 364560, Pitch_bend_c, 4, 14792
1, 364560, Control_c, 13, 11, 57
1, 364560, Pitch_bend_c, 13, 14792
1, 364680, Note_on_c, 1, 60, 0
1, 364680, Pitch_bend_c, 4, 14692
1, 364680, Note_on_c, 10, 60, 0
1, 364680, Pitch_bend_c, 13, 14692
1, 364800, Control_c, 4, 11, 60
1, 364800, Pitch_bend_c, 4, 14592
1, 364800, Control_c, 13, 11, 60
1, 364800, Pitch_bend_c, 13, 14592
1, 364920, Pitch_bend_c, 4, 14492
1, 364920, Pitch_bend_c, 13, 14492
1, 365040, Control_c, 4, 11, 63
1, 365040, Pitch_bend_c, 4, 14392
1, 365040, Control_c, 13, 11, 63
1, 365040, Pitch_bend_c, 13, 14392
1, 365160, Pitch_bend_c, 4, 14292
1, 365160, Pitch_bend_c, 13, 14292
1, 365280, Control_c, 4, 11, 66
1, 365280, Pitch_bend_c, 4, 14192
1, 365280, Control_c, 13, 11, 66
1, 365280, Pitch_bend_c, 13, 14192
1, 365400, Pitch_bend_c, 4, 14092
1, 365400, Pitch_bend_c, 13, 14092
1, 365520, Control_c, 4, 11, 69
1, 365520, Pitch_bend_c, 4, 13992
1, 365520, Control_c, 13, 11, 69
1, 365520, Pitch_bend_c, 13, 13992
1, 365580, Note_on_c, 1, 60, 105
1, 365580, Note_on_c, 10, 60, 91
1, 365660, Pitch_bend_c, 4, 13892
1, 365660, Pitch_bend_c, 13, 13892
1, 365760, Control_c, 4, 11, 73
1, 365760, Pitch_bend_c, 4, 13792
1, 365760, Control_c, 13, 11, 73
1, 365760, Pitch_bend_c, 13, 13792
1, 365880, Pitch_bend_c, 4, 13692
1, 365880, Pitch_bend_c, 13, 13692
1, 366000, Control_c, 4, 11, 76
1, 366000, Pitch_bend_c, 4, 13592
1, 366000, Control_c, 13, 11, 76
1, 366000, Pitch_bend_c, 13, 13592
1, 366120, Pitch_bend_c, 4, 13492
1, 366120, Pitch_bend_c, 13, 13492
1, 366240, Control_c, 4, 11, 79
1, 366240, Pitch_bend_c, 4, 13392
1, 366240, Control_c, 13, 11, 79
1, 366240, Pitch_bend_c, 13, 13392
1, 366360, Pitch_bend_c, 4, 13292
1, 366360, Pitch_bend_c, 13, 13292
1, 366480, Control_c, 4, 11, 82
1, 366480, Pitch_bend_c, 4, 13192
1, 366480, Control_c, 13, 11, 82
1, 366480, Pitch_bend_c, 13, 13192
1, 366600, Pitch_bend_c, 4, 13092
1, 366600, Pitch_bend_c, 13, 13092
1, 366720, Control_c, 4, 11, 96
1, 366720, Pitch_bend_c, 4, 12992
1, 366720, Control_c, 5, 11, 116
1, 366720, Control_c, 13, 11, 96
1, 366720, Pitch_bend_c, 13, 12992
1, 366720, Control_c, 14, 11, 116
1, 366840, Pitch_bend_c, 4, 12892
1, 366840, Pitch_bend_c, 13, 12892
1, 366960, Control_c, 4, 11, 99
1, 366960, Pitch_bend_c, 4, 12792
1, 366960, Control_c, 5, 11, 105
1, 366960, Control_c, 13, 11, 99
1, 366960, Pitch_bend_c, 13, 12792
1, 366960, Control_c, 14, 11, 105
1, 367080, Note_on_c, 1, 60, 0
1, 367080, Pitch_bend_c, 4, 12692
1, 367080, Note_on_c, 10, 60, 0
1, 367080, Pitch_bend_c, 13, 12692
1, 367200, Control_c, 4, 11, 102
1, 367200, Pitch_bend_c, 4, 12592
1, 367200, Control_c, 5, 11, 95
1, 367200, Control_c, 13, 11, 102
1, 367200, Pitch_bend_c, 13, 12592
1, 367200, Control_c, 14, 11, 95
1, 367320, Pitch_bend_c, 4, 12492
1, 367320, Pitch_bend_c, 13, 12492
1, 367440, Control_c, 4, 11, 105
1, 367440, Pitch_bend_c, 4, 12392
1, 367440, Control_c, 5, 11, 84
1, 367440, Control_c, 13, 11, 105
1, 367440, Pitch_bend_c, 13, 12392
1, 367440, Control_c, 14, 11, 84
1, 367560, Pitch_bend_c, 4, 12292
1, 367560, Pitch_bend_c, 13, 12292
1, 367680, Control_c, 4, 11, 109
1, 367680, Pitch_bend_c, 4, 12192
1, 367680, Control_c, 5, 11, 74
1, 367680, Control_c, 13, 11, 109
1, 367680, Pitch_bend_c, 13, 12192
1, 367680, Control_c, 14, 11, 74
1, 367800, Pitch_bend_c, 4, 12092
1, 367800, Pitch_bend_c, 13, 12092
1, 367920, Control_c, 4, 11, 112
1, 367920, Pitch_bend_c, 4, 11992
1, 367920, Control_c, 5, 11, 63
1, 367920, Control_c, 13, 11, 112
1, 367920, Pitch_bend_c, 13, 11992
1, 367920, Control_c, 14, 11, 63
1, 368040, Pitch_bend_c, 4, 11892
1, 368040, Pitch_bend_c, 13, 11892
1, 368160, Note_on_c, 1, 55, 105
1, 368160, Control_c, 4, 11, 115
1, 368160, Pitch_bend_c, 4, 11792
1, 368160, Control_c, 5, 11, 52
1, 368160, Note_on_c, 10, 55, 91
1, 368160, Control_c, 13, 11, 115
1, 368160, Pitch_bend_c, 13, 11792
1, 368160, Control_c, 14, 11, 52
1, 368280, Pitch_bend_c, 4, 11692
1, 368280, Pitch_bend_c, 13, 11692
1, 368400, Control_c, 4, 11, 118
1, 368400, Pitch_bend_c, 4, 11592
1, 368400, Control_c, 13, 11, 118
1, 368400, Pitch_bend_c, 13, 11592
1, 368540, Pitch_bend_c, 4, 11492
1, 368540, Pitch_bend_c, 13, 11492
1, 368640, Pitch_bend_c, 4, 11392
1, 368640, Control_c, 4, 11, 121
1, 368640, Pitch_bend_c, 13, 11392
1, 368640, Control_c, 13, 11, 121
1, 368760, Pitch_bend_c, 4, 11292
1, 368760, Pitch_bend_c, 13, 11292
1, 368880, Pitch_bend_c, 4, 11192
1, 368880, Control_c, 4, 11, 124
1, 368880, Pitch_bend_c, 13, 11192
1, 368880, Control_c, 13, 11, 124
1, 369000, Pitch_bend_c, 4, 11092
1, 369000, Pitch_bend_c, 13, 11092
1, 369120, Pitch_bend_c, 4, 10992
1, 369120, Control_c, 4, 11, 127
1, 369120, Pitch_bend_c, 13, 10992
1, 369120, Control_c, 13, 11, 127
1, 369240, Pitch_bend_c, 4, 10892
1, 369240, Pitch_bend_c, 13, 10892
1, 369360, Pitch_bend_c, 4, 10792
1, 369360, Pitch_bend_c, 13, 10792
1, 369480, Pitch_bend_c, 4, 10692
1, 369480, Pitch_bend_c, 13, 10692
1, 369600, Pitch_bend_c, 4, 10592
1, 369600, Pitch_bend_c, 13, 10592
1, 369660, Note_on_c, 1, 55, 0
1, 369660, Note_on_c, 10, 55, 0
1, 369720, Pitch_bend_c, 4, 10492
1, 369720, Pitch_bend_c, 13, 10492
1, 369840, Pitch_bend_c, 4, 10392
1, 369840, Pitch_bend_c, 13, 10392
1, 369960, Pitch_bend_c, 4, 10292
1, 369960, Pitch_bend_c, 13, 10292
1, 370080, Pitch_bend_c, 4, 10192
1, 370080, Pitch_bend_c, 13, 10192
1, 370200, Pitch_bend_c, 4, 10092
1, 370200, Pitch_bend_c, 13, 10092
1, 370320, Pitch_bend_c, 4, 9992
1, 370320, Pitch_bend_c, 13, 9992
1, 370440, Pitch_bend_c, 4, 9892
1, 370440, Pitch_bend_c, 13, 9892
1, 370560, Pitch_bend_c, 4, 9792
1, 370560, Pitch_bend_c, 13, 9792
1, 370680, Pitch_bend_c, 4, 9692
1, 370680, Pitch_bend_c, 13, 9692
1, 370740, Note_on_c, 1, 55, 105
1, 370740, Note_on_c, 10, 55, 91
1, 370800, Pitch_bend_c, 4, 9592
1, 370800, Pitch_bend_c, 13, 9592
1, 370920, Pitch_bend_c, 4, 9492
1, 370920, Pitch_bend_c, 13, 9492
1, 371040, Pitch_bend_c, 4, 9392
1, 371040, Pitch_bend_c, 13, 9392
1, 371160, Pitch_bend_c, 4, 9292
1, 371160, Pitch_bend_c, 13, 9292
1, 371280, Pitch_bend_c, 4, 9192
1, 371280, Pitch_bend_c, 13, 9192
1, 371400, Pitch_bend_c, 4, 9092
1, 371400, Pitch_bend_c, 13, 9092
1, 371520, Pitch_bend_c, 4, 8992
1, 371520, Pitch_bend_c, 13, 8992
1, 371640, Pitch_bend_c, 4, 8892
1, 371640, Pitch_bend_c, 13, 8892
1, 371760, Pitch_bend_c, 4, 8792
1, 371760, Pitch_bend_c, 13, 8792
1, 371880, Pitch_bend_c, 4, 8692
1, 371880, Pitch_bend_c, 13, 8692
1, 372000, Pitch_bend_c, 4, 8592
1, 372000, Pitch_bend_c, 13, 8592
1, 372120, Pitch_bend_c, 4, 8492
1, 372120, Pitch_bend_c, 13, 8492
1, 372240, Pitch_bend_c, 4, 8392
1, 372240, Pitch_bend_c, 13, 8392
1, 372360, Pitch_bend_c, 4, 8292
1, 372360, Pitch_bend_c, 13, 8292
1, 372480, Pitch_bend_c, 4, 8192
1, 372480, Pitch_bend_c, 13, 8192
1, 372540, Note_on_c, 1, 55, 0
1, 372540, Note_on_c, 10, 55, 0
1, 373740, Note_on_c, 1, 48, 105
1, 373740, Note_on_c, 10, 48, 91
1, 375360, Control_c, 4, 11, 116
1, 375360, Control_c, 13, 11, 116
1, 375480, Note_on_c, 1, 48, 0
1, 375480, Note_on_c, 10, 48, 0
1, 375600, Control_c, 4, 11, 105
1, 375600, Control_c, 13, 11, 105
1, 375840, Control_c, 4, 11, 95
1, 375840, Control_c, 13, 11, 95
1, 376080, Control_c, 4, 11, 84
1, 376080, Control_c, 13, 11, 84
1, 376320, Control_c, 4, 11, 74
1, 376320, Control_c, 13, 11, 74
1, 376560, Control_c, 4, 11, 63
1, 376560, Control_c, 13, 11, 63
1, 376800, Control_c, 4, 11, 52
1, 376800, Control_c, 13, 11, 52
1, 376860, Note_on_c, 1, 48, 105
1, 376860, Note_on_c, 10, 48, 91
1, 377280, Note_on_c, 5, 48, 0
1, 377280, Note_on_c, 14, 48, 0
1, 385920, Note_on_c, 7, 24, 76
1, 388800, Note_on_c, 6, 24, 0
1, 389040, Control_c, 3, 11, 74
1, 389280, Control_c, 3, 11, 63
1, 389520, Control_c, 3, 11, 52
1, 389760, Control_c, 3, 11, 42
1, 390000, Control_c, 3, 11, 31
1, 390240, Control_c, 3, 11, 21
1, 390480, Control_c, 3, 11, 10
1, 390720, Control_c, 3, 11, 0
1, 391140, Note_on_c, 3, 60, 0
1, 391260, Note_on_c, 2, 36, 0
1, 391680, Note_on_c, 1, 48, 0
1, 391680, Note_on_c, 4, 48, 0
1, 391680, Note_on_c, 10, 48, 0
1, 391680, Note_on_c, 11, 72, 0
1, 391680, Note_on_c, 11, 60, 0
1, 391680, Note_on_c, 11, 64, 0
1, 391680, Note_on_c, 11, 67, 0
1, 391680, Note_on_c, 12, 36, 0
1, 391680, Note_on_c, 13, 48, 0
1, 394560, Note_on_c, 7, 24, 0
1, 396475, Control_c, 1, 123, 0
1, 396475, Control_c, 2, 123, 0
1, 396475, Control_c, 3, 123, 0
1, 396475, Control_c, 4, 123, 0
1, 396475, Control_c, 5, 123, 0
1, 396475, Control_c, 6, 123, 0
1, 396475, Control_c, 7, 123, 0
1, 396475, Control_c, 8, 123, 0
1, 396475, Control_c, 10, 123, 0
1, 396475, Control_c, 11, 123, 0
1, 396475, Control_c, 12, 123, 0
1, 396475, Control_c, 13, 123, 0
1, 396475, Control_c, 14, 123, 0
1, 396475, Control_c, 15, 123, 0
1, 396475, End_track
0, 0, End_of_file
