0, 0, Header, 0, 1, 96
1, 0, Start_track
1, 0, Title_t, "Thunderbirds Theme"
1, 0, Copyright_t, "(C)1993 Roland Corporation"
1, 0, Time_signature, 3, 2, 24, 8
1, 0, Tempo, 652173
1, 0, System_exclusive, 10, 65, 16, 66, 18, 64, 0, 127, 0, 65, 247
1, 50, System_exclusive, 10, 65, 16, 66, 18, 64, 1, 48, 3, 12, 247
1, 52, System_exclusive, 10, 65, 16, 66, 18, 64, 16, 20, 2, 26, 247
1, 54, System_exclusive, 10, 65, 16, 66, 18, 64, 29, 20, 2, 13, 247
1, 56, System_exclusive, 25, 65, 16, 66, 18, 64, 1, 16, 2, 2, 2, 2, 2, 2, 2, 2, 2, 1, 2, 2, 1, 0, 0, 0, 23, 247
1, 96, Control_c, 0, 0, 0
1, 97, Control_c, 0, 32, 0
1, 98, Program_c, 0, 58
1, 99, Control_c, 0, 10, 90
1, 99, Control_c, 0, 7, 110
1, 99, Control_c, 0, 11, 127
1, 100, Control_c, 0, 91, 50
1, 100, Control_c, 0, 93, 10
1, 101, Control_c, 1, 0, 0
1, 102, Control_c, 1, 32, 0
1, 103, Program_c, 1, 48
1, 104, Control_c, 1, 7, 110
1, 104, Control_c, 1, 10, 64
1, 104, Control_c, 1, 11, 127
1, 105, Control_c, 1, 91, 50
1, 105, Control_c, 1, 93, 10
1, 106, Control_c, 2, 0, 0
1, 107, Control_c, 2, 32, 0
1, 108, Program_c, 2, 48
1, 109, Control_c, 2, 7, 110
1, 109, Control_c, 2, 10, 30
1, 109, Control_c, 2, 11, 127
1, 110, Control_c, 2, 91, 70
1, 110, Control_c, 2, 93, 30
1, 111, Control_c, 3, 0, 0
1, 112, Control_c, 3, 32, 0
1, 113, Program_c, 3, 48
1, 114, Control_c, 3, 7, 110
1, 114, Control_c, 3, 10, 100
1, 114, Control_c, 3, 11, 127
1, 115, Control_c, 3, 91, 70
1, 115, Control_c, 3, 93, 30
1, 116, Control_c, 4, 0, 0
1, 117, Control_c, 4, 32, 0
1, 118, Program_c, 4, 61
1, 119, Control_c, 4, 7, 121
1, 119, Control_c, 4, 10, 74
1, 119, Control_c, 4, 11, 127
1, 120, Control_c, 4, 91, 60
1, 120, Control_c, 4, 93, 20
1, 121, Control_c, 5, 0, 0
1, 122, Control_c, 5, 32, 0
1, 123, Program_c, 5, 57
1, 124, Control_c, 5, 7, 116
1, 124, Control_c, 5, 10, 34
1, 124, Control_c, 5, 11, 127
1, 125, Control_c, 5, 91, 60
1, 125, Control_c, 5, 93, 10
1, 126, Control_c, 6, 0, 0
1, 127, Control_c, 6, 32, 0
1, 128, Program_c, 6, 65
1, 129, Control_c, 6, 7, 110
1, 129, Control_c, 6, 10, 84
1, 129, Control_c, 6, 11, 127
1, 130, Control_c, 6, 91, 70
1, 130, Control_c, 6, 93, 10
1, 131, Control_c, 7, 0, 0
1, 132, Control_c, 7, 32, 0
1, 133, Program_c, 7, 60
1, 134, Control_c, 7, 7, 110
1, 134, Control_c, 7, 11, 127
1, 134, Control_c, 7, 10, 104
1, 135, Control_c, 7, 91, 60
1, 135, Control_c, 7, 93, 40
1, 136, Control_c, 8, 0, 0
1, 137, Control_c, 8, 32, 0
1, 138, Program_c, 8, 73
1, 139, Control_c, 8, 11, 127
1, 139, Control_c, 8, 10, 44
1, 139, Control_c, 8, 7, 110
1, 140, Control_c, 8, 93, 10
1, 140, Control_c, 8, 91, 70
1, 141, Control_c, 9, 0, 0
1, 142, Control_c, 9, 32, 0
1, 143, Program_c, 9, 48
1, 144, Control_c, 9, 7, 110
1, 144, Control_c, 9, 10, 64
1, 144, Control_c, 9, 11, 127
1, 145, Control_c, 9, 91, 50
1, 145, Control_c, 9, 93, 0
1, 146, Control_c, 10, 0, 0
1, 147, Control_c, 10, 32, 0
1, 148, Program_c, 10, 47
1, 149, Control_c, 10, 7, 110
1, 149, Control_c, 10, 10, 94
1, 149, Control_c, 10, 11, 127
1, 150, Control_c, 10, 93, 0
1, 150, Control_c, 10, 91, 50
1, 151, Control_c, 11, 0, 0
1, 152, Control_c, 11, 32, 0
1, 153, Program_c, 11, 119
1, 154, Control_c, 11, 7, 110
1, 154, Control_c, 11, 11, 127
1, 154, Control_c, 11, 10, 34
1, 155, Control_c, 11, 93, 0
1, 155, Control_c, 11, 91, 40
1, 156, Control_c, 12, 0, 0
1, 157, Control_c, 12, 32, 0
1, 158, Program_c, 12, 13
1, 159, Control_c, 12, 11, 127
1, 159, Control_c, 12, 10, 54
1, 159, Control_c, 12, 7, 110
1, 160, Control_c, 12, 93, 0
1, 160, Control_c, 12, 91, 60
1, 161, Control_c, 13, 0, 0
1, 162, Control_c, 13, 32, 0
1, 163, Program_c, 13, 46
1, 164, Control_c, 13, 11, 127
1, 164, Control_c, 13, 10, 14
1, 164, Control_c, 13, 7, 110
1, 165, Control_c, 13, 93, 5
1, 165, Control_c, 13, 91, 90
1, 166, Control_c, 14, 0, 3
1, 167, Control_c, 14, 32, 0
1, 168, Program_c, 14, 127
1, 169, Control_c, 14, 7, 110
1, 169, Control_c, 14, 10, 64
1, 169, Control_c, 14, 11, 127
1, 170, Control_c, 14, 91, 40
1, 170, Control_c, 14, 93, 0
1, 171, Control_c, 15, 0, 2
1, 172, Control_c, 15, 32, 0
1, 173, Program_c, 15, 122
1, 174, Control_c, 15, 7, 110
1, 174, Control_c, 15, 10, 64
1, 174, Control_c, 15, 11, 127
1, 175, Control_c, 15, 91, 40
1, 175, Control_c, 15, 93, 0
1, 192, Control_c, 1, 99, 1
1, 193, Control_c, 1, 98, 99
1, 194, Control_c, 1, 6, 62
1, 195, Control_c, 1, 99, 1
1, 196, Control_c, 1, 98, 102
1, 197, Control_c, 1, 6, 66
1, 198, Control_c, 1, 101, 127
1, 199, Control_c, 1, 100, 127
1, 200, Control_c, 2, 99, 1
1, 201, Control_c, 2, 98, 99
1, 202, Control_c, 2, 6, 62
1, 203, Control_c, 2, 99, 1
1, 204, Control_c, 2, 98, 102
1, 205, Control_c, 2, 6, 68
1, 206, Control_c, 2, 101, 127
1, 207, Control_c, 2, 100, 127
1, 208, Control_c, 3, 99, 1
1, 209, Control_c, 3, 98, 99
1, 210, Control_c, 3, 6, 62
1, 211, Control_c, 3, 99, 1
1, 212, Control_c, 3, 98, 102
1, 213, Control_c, 3, 6, 68
1, 214, Control_c, 3, 101, 127
1, 215, Control_c, 3, 100, 127
1, 216, Control_c, 6, 99, 1
1, 217, Control_c, 6, 98, 9
1, 218, Control_c, 6, 6, 72
1, 219, Control_c, 6, 99, 1
1, 220, Control_c, 6, 98, 10
1, 221, Control_c, 6, 6, 65
1, 222, Control_c, 6, 101, 127
1, 223, Control_c, 6, 100, 127
1, 224, Control_c, 9, 99, 28
1, 225, Control_c, 9, 98, 38
1, 226, Control_c, 9, 6, 50
1, 227, Control_c, 9, 101, 127
1, 228, Control_c, 9, 100, 127
1, 229, Control_c, 11, 99, 1
1, 230, Control_c, 11, 98, 32
1, 231, Control_c, 11, 6, 54
1, 232, Control_c, 11, 99, 1
1, 233, Control_c, 11, 98, 99
1, 234, Control_c, 11, 6, 68
1, 235, Control_c, 11, 101, 127
1, 236, Control_c, 11, 100, 127
1, 383, Note_on_c, 4, 72, 106
1, 383, Note_on_c, 4, 61, 100
1, 383, Note_on_c, 5, 56, 105
1, 383, Note_on_c, 1, 37, 78
1, 383, Note_on_c, 1, 44, 77
1, 384, Note_on_c, 0, 37, 117
1, 384, Note_on_c, 4, 69, 103
1, 384, Note_on_c, 5, 53, 98
1, 384, Note_on_c, 5, 60, 110
1, 579, Control_c, 4, 11, 120
1, 579, Control_c, 5, 11, 120
1, 580, Control_c, 0, 11, 120
1, 582, Control_c, 4, 11, 112
1, 582, Control_c, 5, 11, 112
1, 583, Control_c, 0, 11, 112
1, 585, Control_c, 4, 11, 104
1, 585, Control_c, 5, 11, 104
1, 586, Control_c, 0, 11, 104
1, 588, Control_c, 4, 11, 96
1, 588, Control_c, 5, 11, 96
1, 589, Control_c, 0, 11, 96
1, 591, Control_c, 4, 11, 88
1, 591, Control_c, 5, 11, 88
1, 592, Control_c, 0, 11, 88
1, 594, Control_c, 4, 11, 80
1, 594, Control_c, 5, 11, 80
1, 595, Control_c, 0, 11, 80
1, 597, Control_c, 4, 11, 72
1, 597, Control_c, 5, 11, 72
1, 598, Control_c, 0, 11, 72
1, 599, Note_off_c, 4, 72, 64
1, 599, Note_off_c, 4, 61, 64
1, 599, Note_off_c, 5, 56, 64
1, 599, Note_off_c, 1, 37, 64
1, 599, Note_off_c, 1, 44, 64
1, 600, Note_off_c, 0, 37, 64
1, 600, Note_off_c, 4, 69, 64
1, 600, Note_off_c, 5, 53, 64
1, 600, Note_off_c, 5, 60, 64
1, 600, Control_c, 4, 11, 64
1, 600, Control_c, 5, 11, 64
1, 601, Control_c, 0, 11, 64
1, 624, Control_c, 4, 11, 127
1, 624, Control_c, 5, 11, 127
1, 625, Control_c, 0, 11, 127
1, 671, Note_on_c, 1, 43, 77
1, 671, Note_on_c, 1, 36, 77
1, 671, Note_on_c, 4, 78, 110
1, 671, Note_on_c, 5, 64, 110
1, 672, Note_on_c, 4, 75, 105
1, 672, Note_on_c, 4, 70, 100
1, 672, Note_on_c, 5, 58, 105
1, 672, Note_on_c, 5, 55, 100
1, 673, Note_on_c, 0, 36, 114
1, 867, Control_c, 4, 11, 120
1, 867, Control_c, 5, 11, 120
1, 868, Control_c, 0, 11, 120
1, 870, Control_c, 4, 11, 112
1, 870, Control_c, 5, 11, 112
1, 871, Control_c, 0, 11, 112
1, 873, Control_c, 4, 11, 104
1, 873, Control_c, 5, 11, 104
1, 874, Control_c, 0, 11, 104
1, 876, Control_c, 4, 11, 96
1, 876, Control_c, 5, 11, 96
1, 877, Control_c, 0, 11, 96
1, 879, Control_c, 4, 11, 88
1, 879, Control_c, 5, 11, 88
1, 880, Control_c, 0, 11, 88
1, 882, Control_c, 4, 11, 80
1, 882, Control_c, 5, 11, 80
1, 883, Control_c, 0, 11, 80
1, 885, Control_c, 4, 11, 72
1, 885, Control_c, 5, 11, 72
1, 886, Control_c, 0, 11, 72
1, 887, Note_off_c, 1, 43, 64
1, 887, Note_off_c, 1, 36, 64
1, 887, Note_off_c, 4, 78, 64
1, 887, Note_off_c, 5, 64, 64
1, 888, Note_off_c, 4, 75, 64
1, 888, Note_off_c, 4, 70, 64
1, 888, Note_off_c, 5, 58, 64
1, 888, Note_off_c, 5, 55, 64
1, 888, Control_c, 4, 11, 64
1, 888, Control_c, 5, 11, 64
1, 889, Note_off_c, 0, 36, 64
1, 889, Control_c, 0, 11, 64
1, 912, Control_c, 4, 11, 127
1, 912, Control_c, 5, 11, 127
1, 913, Control_c, 0, 11, 127
1, 958, Note_on_c, 1, 46, 75
1, 959, Note_on_c, 4, 73, 113
1, 959, Note_on_c, 4, 66, 98
1, 959, Note_on_c, 5, 54, 104
1, 959, Note_on_c, 1, 39, 78
1, 960, Note_on_c, 4, 70, 103
1, 960, Note_on_c, 5, 61, 114
1, 960, Note_on_c, 5, 57, 107
1, 961, Note_on_c, 0, 39, 117
1, 1155, Control_c, 4, 11, 120
1, 1155, Control_c, 5, 11, 120
1, 1156, Control_c, 0, 11, 120
1, 1158, Control_c, 4, 11, 112
1, 1158, Control_c, 5, 11, 112
1, 1159, Control_c, 0, 11, 112
1, 1161, Control_c, 4, 11, 104
1, 1161, Control_c, 5, 11, 104
1, 1162, Control_c, 0, 11, 104
1, 1164, Control_c, 4, 11, 96
1, 1164, Control_c, 5, 11, 96
1, 1165, Control_c, 0, 11, 96
1, 1167, Control_c, 4, 11, 88
1, 1167, Control_c, 5, 11, 88
1, 1168, Control_c, 0, 11, 88
1, 1170, Control_c, 4, 11, 80
1, 1170, Control_c, 5, 11, 80
1, 1171, Control_c, 0, 11, 80
1, 1173, Control_c, 4, 11, 72
1, 1173, Control_c, 5, 11, 72
1, 1174, Note_off_c, 1, 46, 64
1, 1174, Control_c, 0, 11, 72
1, 1175, Note_off_c, 4, 73, 64
1, 1175, Note_off_c, 4, 66, 64
1, 1175, Note_off_c, 5, 54, 64
1, 1175, Note_off_c, 1, 39, 64
1, 1176, Note_off_c, 4, 70, 64
1, 1176, Note_off_c, 5, 61, 64
1, 1176, Note_off_c, 5, 57, 64
1, 1176, Control_c, 4, 11, 64
1, 1176, Control_c, 5, 11, 64
1, 1177, Note_off_c, 0, 39, 64
1, 1177, Control_c, 0, 11, 64
1, 1200, Control_c, 4, 11, 127
1, 1200, Control_c, 5, 11, 127
1, 1201, Control_c, 0, 11, 127
1, 1246, Note_on_c, 1, 37, 75
1, 1247, Note_on_c, 4, 76, 103
1, 1247, Note_on_c, 4, 71, 96
1, 1247, Note_on_c, 5, 65, 117
1, 1247, Note_on_c, 1, 44, 78
1, 1248, Note_on_c, 0, 37, 114
1, 1248, Note_on_c, 4, 79, 114
1, 1248, Note_on_c, 5, 59, 109
1, 1248, Note_on_c, 5, 56, 105
1, 1443, Control_c, 4, 11, 120
1, 1443, Control_c, 5, 11, 120
1, 1444, Control_c, 0, 11, 120
1, 1446, Control_c, 4, 11, 112
1, 1446, Control_c, 5, 11, 112
1, 1447, Control_c, 0, 11, 112
1, 1449, Control_c, 4, 11, 104
1, 1449, Control_c, 5, 11, 104
1, 1450, Control_c, 0, 11, 104
1, 1452, Control_c, 4, 11, 96
1, 1452, Control_c, 5, 11, 96
1, 1453, Control_c, 0, 11, 96
1, 1455, Control_c, 4, 11, 88
1, 1455, Control_c, 5, 11, 88
1, 1456, Control_c, 0, 11, 88
1, 1458, Control_c, 4, 11, 80
1, 1458, Control_c, 5, 11, 80
1, 1459, Control_c, 0, 11, 80
1, 1461, Control_c, 4, 11, 72
1, 1461, Control_c, 5, 11, 72
1, 1462, Note_off_c, 1, 37, 64
1, 1462, Control_c, 0, 11, 72
1, 1463, Note_off_c, 4, 76, 64
1, 1463, Note_off_c, 4, 71, 64
1, 1463, Note_off_c, 5, 65, 64
1, 1463, Note_off_c, 1, 44, 64
1, 1464, Note_off_c, 0, 37, 64
1, 1464, Note_off_c, 4, 79, 64
1, 1464, Note_off_c, 5, 59, 64
1, 1464, Note_off_c, 5, 56, 64
1, 1464, Control_c, 4, 11, 64
1, 1464, Control_c, 5, 11, 64
1, 1465, Control_c, 0, 11, 64
1, 1488, Control_c, 4, 11, 127
1, 1488, Control_c, 5, 11, 127
1, 1489, Control_c, 0, 11, 127
1, 1536, Note_on_c, 14, 60, 127
1, 1920, Note_on_c, 15, 60, 127
1, 2266, Note_off_c, 14, 60, 64
1, 2590, Control_c, 1, 11, 87
1, 2591, Note_on_c, 3, 51, 64
1, 2591, Note_on_c, 1, 39, 91
1, 2592, Time_signature, 4, 2, 24, 8
1, 2592, Note_on_c, 0, 39, 108
1, 2592, Tempo, 476190
1, 2592, Control_c, 0, 11, 87
1, 2603, Note_off_c, 3, 51, 64
1, 2603, Note_on_c, 3, 53, 70
1, 2610, Control_c, 1, 11, 89
1, 2611, Control_c, 0, 11, 89
1, 2615, Note_off_c, 3, 53, 64
1, 2615, Note_on_c, 3, 51, 72
1, 2627, Note_off_c, 3, 51, 64
1, 2627, Note_on_c, 3, 53, 72
1, 2629, Control_c, 1, 11, 91
1, 2630, Control_c, 0, 11, 91
1, 2639, Note_off_c, 3, 53, 64
1, 2639, Note_on_c, 3, 51, 73
1, 2648, Control_c, 1, 11, 93
1, 2649, Control_c, 0, 11, 93
1, 2651, Note_off_c, 3, 51, 64
1, 2651, Note_on_c, 3, 53, 74
1, 2663, Note_off_c, 3, 53, 64
1, 2663, Note_on_c, 3, 51, 74
1, 2667, Control_c, 1, 11, 95
1, 2668, Control_c, 0, 11, 95
1, 2675, Note_off_c, 3, 51, 64
1, 2675, Note_on_c, 3, 53, 75
1, 2687, Control_c, 1, 11, 97
1, 2687, Note_off_c, 3, 53, 64
1, 2687, Note_on_c, 2, 63, 77
1, 2687, Note_on_c, 9, 38, 53
1, 2687, Note_on_c, 3, 51, 76
1, 2688, Control_c, 0, 11, 97
1, 2689, Note_off_c, 9, 38, 64
1, 2695, Note_on_c, 9, 38, 48
1, 2697, Note_off_c, 9, 38, 64
1, 2699, Note_off_c, 2, 63, 64
1, 2699, Note_off_c, 3, 51, 64
1, 2699, Note_on_c, 2, 65, 77
1, 2699, Note_on_c, 3, 53, 76
1, 2703, Note_on_c, 9, 38, 52
1, 2705, Note_off_c, 9, 38, 64
1, 2706, Control_c, 1, 11, 99
1, 2707, Control_c, 0, 11, 99
1, 2711, Note_off_c, 2, 65, 64
1, 2711, Note_off_c, 3, 53, 64
1, 2711, Note_on_c, 2, 63, 79
1, 2711, Note_on_c, 3, 51, 77
1, 2712, Note_on_c, 9, 38, 51
1, 2714, Note_off_c, 9, 38, 64
1, 2719, Note_on_c, 9, 38, 57
1, 2721, Note_off_c, 9, 38, 64
1, 2723, Note_off_c, 2, 63, 64
1, 2723, Note_off_c, 3, 51, 64
1, 2723, Note_on_c, 2, 65, 80
1, 2723, Note_on_c, 3, 53, 78
1, 2725, Control_c, 1, 11, 101
1, 2726, Control_c, 0, 11, 101
1, 2727, Note_on_c, 9, 38, 58
1, 2729, Note_off_c, 9, 38, 64
1, 2735, Note_off_c, 2, 65, 64
1, 2735, Note_off_c, 3, 53, 64
1, 2735, Note_on_c, 2, 63, 81
1, 2735, Note_on_c, 3, 51, 78
1, 2735, Note_on_c, 9, 38, 53
1, 2737, Note_off_c, 9, 38, 64
1, 2740, Note_off_c, 15, 60, 64
1, 2743, Note_on_c, 9, 38, 58
1, 2744, Control_c, 1, 11, 103
1, 2745, Note_off_c, 9, 38, 64
1, 2745, Control_c, 0, 11, 103
1, 2747, Note_off_c, 2, 63, 64
1, 2747, Note_off_c, 3, 51, 64
1, 2747, Note_on_c, 2, 65, 83
1, 2747, Note_on_c, 3, 53, 79
1, 2752, Note_on_c, 9, 38, 55
1, 2754, Note_off_c, 9, 38, 64
1, 2759, Note_off_c, 2, 65, 64
1, 2759, Note_off_c, 3, 53, 64
1, 2759, Note_on_c, 2, 63, 84
1, 2759, Note_on_c, 3, 51, 80
1, 2759, Note_on_c, 9, 38, 56
1, 2761, Note_off_c, 9, 38, 64
1, 2763, Control_c, 1, 11, 105
1, 2764, Control_c, 0, 11, 105
1, 2768, Note_on_c, 9, 38, 60
1, 2770, Note_off_c, 9, 38, 64
1, 2771, Note_off_c, 2, 63, 64
1, 2771, Note_off_c, 3, 51, 64
1, 2771, Note_on_c, 2, 65, 85
1, 2771, Note_on_c, 3, 53, 80
1, 2776, Note_on_c, 9, 38, 64
1, 2778, Note_off_c, 9, 38, 64
1, 2783, Control_c, 1, 11, 107
1, 2783, Note_off_c, 2, 65, 64
1, 2783, Note_off_c, 3, 53, 64
1, 2783, Note_on_c, 2, 63, 85
1, 2783, Note_on_c, 3, 51, 81
1, 2784, Control_c, 0, 11, 107
1, 2784, Note_on_c, 9, 38, 66
1, 2786, Note_off_c, 9, 38, 64
1, 2791, Note_on_c, 9, 38, 66
1, 2793, Note_off_c, 9, 38, 64
1, 2795, Note_off_c, 2, 63, 64
1, 2795, Note_off_c, 3, 51, 64
1, 2795, Note_on_c, 2, 65, 86
1, 2795, Note_on_c, 3, 53, 81
1, 2800, Note_on_c, 9, 38, 66
1, 2802, Control_c, 1, 11, 109
1, 2802, Note_off_c, 9, 38, 64
1, 2803, Control_c, 0, 11, 109
1, 2807, Note_off_c, 2, 65, 64
1, 2807, Note_off_c, 3, 53, 64
1, 2807, Note_on_c, 2, 63, 87
1, 2807, Note_on_c, 3, 51, 83
1, 2808, Note_on_c, 9, 38, 67
1, 2810, Note_off_c, 9, 38, 64
1, 2815, Note_on_c, 9, 38, 70
1, 2817, Note_off_c, 9, 38, 64
1, 2819, Note_off_c, 2, 63, 64
1, 2819, Note_off_c, 3, 51, 64
1, 2819, Note_on_c, 2, 65, 88
1, 2819, Note_on_c, 3, 53, 84
1, 2821, Control_c, 1, 11, 111
1, 2822, Control_c, 0, 11, 111
1, 2824, Note_on_c, 9, 38, 65
1, 2826, Note_off_c, 9, 38, 64
1, 2831, Note_off_c, 2, 65, 64
1, 2831, Note_off_c, 3, 53, 64
1, 2831, Note_on_c, 2, 63, 89
1, 2831, Note_on_c, 3, 51, 84
1, 2831, Note_on_c, 9, 38, 66
1, 2833, Note_off_c, 9, 38, 64
1, 2840, Control_c, 1, 11, 113
1, 2840, Note_on_c, 9, 38, 68
1, 2841, Control_c, 0, 11, 113
1, 2842, Note_off_c, 9, 38, 64
1, 2843, Note_off_c, 2, 63, 64
1, 2843, Note_off_c, 3, 51, 64
1, 2843, Note_on_c, 2, 65, 91
1, 2843, Note_on_c, 3, 53, 85
1, 2847, Note_on_c, 9, 38, 75
1, 2849, Note_off_c, 9, 38, 64
1, 2855, Note_off_c, 2, 65, 64
1, 2855, Note_off_c, 3, 53, 64
1, 2855, Note_on_c, 2, 63, 92
1, 2855, Note_on_c, 3, 51, 86
1, 2856, Note_on_c, 9, 38, 74
1, 2858, Note_off_c, 9, 38, 64
1, 2859, Control_c, 1, 11, 115
1, 2860, Control_c, 0, 11, 115
1, 2864, Note_on_c, 9, 38, 73
1, 2866, Note_off_c, 9, 38, 64
1, 2867, Note_off_c, 2, 63, 64
1, 2867, Note_off_c, 3, 51, 64
1, 2867, Note_on_c, 2, 65, 94
1, 2867, Note_on_c, 3, 53, 86
1, 2871, Note_on_c, 9, 38, 73
1, 2872, Note_on_c, 13, 51, 50
1, 2873, Note_off_c, 9, 38, 64
1, 2879, Control_c, 1, 11, 117
1, 2879, Note_off_c, 2, 65, 64
1, 2879, Note_off_c, 3, 53, 64
1, 2879, Note_on_c, 2, 63, 94
1, 2879, Note_on_c, 3, 51, 87
1, 2880, Note_off_c, 13, 51, 64
1, 2880, Control_c, 0, 11, 117
1, 2880, Note_on_c, 10, 51, 85
1, 2880, Note_on_c, 9, 38, 78
1, 2880, Note_on_c, 13, 53, 58
1, 2882, Note_off_c, 9, 38, 64
1, 2884, Note_off_c, 10, 51, 64
1, 2888, Note_off_c, 13, 53, 64
1, 2888, Note_on_c, 13, 55, 60
1, 2891, Note_off_c, 2, 63, 64
1, 2891, Note_off_c, 3, 51, 64
1, 2891, Note_on_c, 2, 65, 95
1, 2891, Note_on_c, 3, 53, 88
1, 2896, Note_off_c, 13, 55, 64
1, 2896, Note_on_c, 13, 56, 55
1, 2898, Control_c, 1, 11, 119
1, 2899, Control_c, 0, 11, 119
1, 2903, Note_off_c, 2, 65, 64
1, 2903, Note_off_c, 3, 53, 64
1, 2903, Note_on_c, 9, 38, 75
1, 2903, Note_on_c, 2, 63, 96
1, 2903, Note_on_c, 3, 51, 88
1, 2904, Note_off_c, 13, 56, 64
1, 2904, Note_on_c, 10, 51, 86
1, 2904, Note_on_c, 13, 58, 59
1, 2905, Note_off_c, 9, 38, 64
1, 2908, Note_off_c, 10, 51, 64
1, 2912, Note_off_c, 13, 58, 64
1, 2912, Note_on_c, 13, 60, 56
1, 2915, Note_off_c, 2, 63, 64
1, 2915, Note_off_c, 3, 51, 64
1, 2915, Note_on_c, 2, 65, 97
1, 2915, Note_on_c, 3, 53, 89
1, 2917, Control_c, 1, 11, 121
1, 2918, Control_c, 0, 11, 121
1, 2920, Note_off_c, 13, 60, 64
1, 2920, Note_on_c, 13, 61, 59
1, 2927, Note_off_c, 2, 65, 64
1, 2927, Note_off_c, 3, 53, 64
1, 2927, Note_on_c, 2, 63, 98
1, 2927, Note_on_c, 3, 51, 90
1, 2928, Note_off_c, 13, 61, 64
1, 2928, Note_on_c, 9, 38, 82
1, 2928, Note_on_c, 10, 51, 89
1, 2928, Note_on_c, 13, 63, 59
1, 2930, Note_off_c, 0, 39, 64
1, 2930, Note_off_c, 9, 38, 64
1, 2932, Note_off_c, 10, 51, 64
1, 2933, Note_off_c, 1, 39, 64
1, 2936, Control_c, 1, 11, 123
1, 2936, Note_off_c, 13, 63, 64
1, 2936, Note_on_c, 13, 65, 56
1, 2937, Control_c, 0, 11, 123
1, 2939, Note_off_c, 2, 63, 64
1, 2939, Note_off_c, 3, 51, 64
1, 2939, Note_on_c, 2, 65, 99
1, 2939, Note_on_c, 3, 53, 90
1, 2944, Note_off_c, 13, 65, 64
1, 2944, Note_on_c, 13, 67, 59
1, 2951, Note_off_c, 2, 65, 64
1, 2951, Note_off_c, 3, 53, 64
1, 2951, Note_on_c, 9, 38, 81
1, 2951, Note_on_c, 2, 63, 100
1, 2951, Note_on_c, 3, 51, 91
1, 2952, Note_off_c, 13, 67, 64
1, 2952, Note_on_c, 10, 51, 93
1, 2952, Note_on_c, 13, 68, 59
1, 2953, Note_off_c, 9, 38, 64
1, 2955, Control_c, 1, 11, 125
1, 2956, Note_off_c, 10, 51, 64
1, 2956, Control_c, 0, 11, 125
1, 2960, Note_off_c, 13, 68, 64
1, 2960, Note_on_c, 13, 70, 58
1, 2963, Note_off_c, 2, 63, 64
1, 2963, Note_off_c, 3, 51, 64
1, 2963, Note_on_c, 2, 65, 101
1, 2963, Note_on_c, 3, 53, 92
1, 2968, Note_off_c, 13, 70, 64
1, 2968, Note_on_c, 13, 72, 65
1, 2974, Note_on_c, 1, 44, 75
1, 2975, Control_c, 1, 11, 127
1, 2975, Note_off_c, 2, 65, 64
1, 2975, Note_off_c, 3, 53, 64
1, 2975, Note_on_c, 0, 44, 104
1, 2975, Note_on_c, 2, 63, 88
1, 2975, Note_on_c, 2, 60, 84
1, 2975, Note_on_c, 3, 56, 68
1, 2975, Note_on_c, 3, 55, 61
1, 2975, Note_on_c, 1, 32, 73
1, 2976, Note_off_c, 13, 72, 64
1, 2976, Control_c, 0, 11, 127
1, 2976, Note_on_c, 9, 38, 89
1, 2976, Note_on_c, 10, 44, 100
1, 2976, Note_on_c, 13, 73, 59
1, 2978, Note_off_c, 9, 38, 64
1, 2980, Note_off_c, 10, 44, 64
1, 2984, Note_off_c, 13, 73, 64
1, 2984, Note_on_c, 13, 75, 70
1, 2990, Note_off_c, 2, 63, 64
1, 2991, Note_off_c, 2, 60, 64
1, 2992, Note_off_c, 13, 75, 64
1, 2993, Note_off_c, 0, 44, 64
1, 2993, Note_off_c, 1, 32, 64
1, 2994, Note_off_c, 1, 44, 64
1, 2996, Note_off_c, 3, 56, 64
1, 2999, Note_off_c, 3, 55, 64
1, 3024, Note_on_c, 9, 38, 77
1, 3026, Note_off_c, 9, 38, 64
1, 3048, Note_on_c, 9, 38, 75
1, 3050, Note_off_c, 9, 38, 64
1, 3070, Note_on_c, 2, 61, 88
1, 3070, Note_on_c, 2, 65, 89
1, 3070, Note_on_c, 3, 56, 62
1, 3070, Note_on_c, 3, 58, 74
1, 3071, Note_on_c, 1, 39, 81
1, 3071, Note_on_c, 0, 39, 100
1, 3071, Note_on_c, 9, 38, 88
1, 3073, Note_off_c, 9, 38, 64
1, 3085, Note_off_c, 2, 61, 64
1, 3087, Note_off_c, 2, 65, 64
1, 3089, Note_off_c, 1, 39, 64
1, 3089, Note_off_c, 0, 39, 64
1, 3090, Note_off_c, 3, 56, 64
1, 3092, Note_off_c, 3, 58, 64
1, 3120, Note_on_c, 9, 38, 83
1, 3122, Note_off_c, 9, 38, 64
1, 3165, Note_on_c, 3, 60, 80
1, 3166, Note_on_c, 2, 67, 94
1, 3166, Note_on_c, 2, 63, 94
1, 3166, Note_on_c, 3, 58, 66
1, 3167, Note_on_c, 1, 44, 70
1, 3167, Note_on_c, 0, 44, 100
1, 3167, Note_on_c, 9, 38, 86
1, 3168, Note_on_c, 1, 32, 70
1, 3169, Note_off_c, 9, 38, 64
1, 3181, Note_off_c, 2, 63, 64
1, 3183, Note_off_c, 2, 67, 64
1, 3183, Note_off_c, 3, 58, 64
1, 3185, Note_off_c, 3, 60, 64
1, 3185, Note_off_c, 0, 44, 64
1, 3186, Note_off_c, 1, 44, 64
1, 3186, Note_off_c, 1, 32, 64
1, 3216, Note_on_c, 9, 38, 78
1, 3218, Note_off_c, 9, 38, 64
1, 3240, Note_on_c, 9, 38, 68
1, 3242, Note_off_c, 9, 38, 64
1, 3261, Note_on_c, 2, 65, 90
1, 3262, Note_on_c, 2, 61, 88
1, 3263, Note_on_c, 3, 58, 74
1, 3263, Note_on_c, 3, 56, 62
1, 3263, Note_on_c, 1, 39, 91
1, 3263, Note_on_c, 9, 38, 95
1, 3264, Note_on_c, 10, 51, 85
1, 3264, Note_on_c, 0, 39, 94
1, 3265, Note_off_c, 9, 38, 64
1, 3268, Note_off_c, 10, 51, 64
1, 3276, Note_off_c, 2, 65, 64
1, 3276, Note_off_c, 2, 61, 64
1, 3281, Note_off_c, 1, 39, 64
1, 3282, Note_off_c, 0, 39, 64
1, 3284, Note_off_c, 3, 56, 64
1, 3285, Note_off_c, 3, 58, 64
1, 3287, Note_on_c, 9, 38, 94
1, 3288, Note_on_c, 10, 51, 86
1, 3289, Note_off_c, 9, 38, 64
1, 3292, Note_off_c, 10, 51, 64
1, 3312, Note_on_c, 0, 39, 87
1, 3312, Note_on_c, 9, 38, 87
1, 3312, Note_on_c, 10, 51, 89
1, 3314, Note_off_c, 9, 38, 64
1, 3316, Note_off_c, 10, 51, 64
1, 3331, Note_off_c, 0, 39, 64
1, 3336, Note_on_c, 9, 38, 92
1, 3336, Note_on_c, 10, 51, 93
1, 3338, Note_off_c, 9, 38, 64
1, 3340, Note_off_c, 10, 51, 64
1, 3358, Note_on_c, 2, 63, 88
1, 3359, Note_on_c, 3, 55, 61
1, 3359, Note_on_c, 3, 56, 68
1, 3359, Note_on_c, 1, 44, 70
1, 3359, Note_on_c, 1, 32, 72
1, 3359, Note_on_c, 9, 38, 84
1, 3359, Note_on_c, 2, 60, 84
1, 3360, Note_on_c, 10, 44, 100
1, 3361, Note_off_c, 9, 38, 64
1, 3361, Note_on_c, 0, 44, 97
1, 3364, Note_off_c, 10, 44, 64
1, 3373, Note_off_c, 2, 63, 64
1, 3375, Note_off_c, 2, 60, 64
1, 3377, Note_off_c, 1, 44, 64
1, 3377, Note_off_c, 1, 32, 64
1, 3381, Note_off_c, 3, 56, 64
1, 3381, Note_off_c, 0, 44, 64
1, 3383, Note_off_c, 3, 55, 64
1, 3408, Note_on_c, 9, 38, 74
1, 3410, Note_off_c, 9, 38, 64
1, 3432, Note_on_c, 9, 38, 79
1, 3434, Note_off_c, 9, 38, 64
1, 3454, Note_on_c, 3, 56, 62
1, 3454, Note_on_c, 3, 58, 74
1, 3454, Note_on_c, 2, 65, 89
1, 3455, Note_on_c, 1, 39, 80
1, 3455, Note_on_c, 9, 38, 87
1, 3455, Note_on_c, 2, 61, 88
1, 3456, Note_on_c, 0, 39, 89
1, 3457, Note_off_c, 9, 38, 64
1, 3469, Note_off_c, 2, 61, 64
1, 3471, Note_off_c, 2, 65, 64
1, 3473, Note_off_c, 1, 39, 64
1, 3474, Note_off_c, 3, 56, 64
1, 3475, Note_off_c, 0, 39, 64
1, 3476, Note_off_c, 3, 58, 64
1, 3504, Note_on_c, 9, 38, 84
1, 3506, Note_off_c, 9, 38, 64
1, 3549, Note_on_c, 3, 58, 66
1, 3549, Note_on_c, 3, 60, 80
1, 3549, Note_on_c, 2, 67, 94
1, 3550, Note_on_c, 2, 63, 94
1, 3551, Note_on_c, 1, 44, 70
1, 3551, Note_on_c, 1, 32, 75
1, 3551, Note_on_c, 9, 38, 83
1, 3552, Note_on_c, 0, 44, 113
1, 3553, Note_off_c, 9, 38, 64
1, 3565, Note_off_c, 2, 63, 64
1, 3566, Note_off_c, 3, 58, 64
1, 3567, Note_off_c, 2, 67, 64
1, 3569, Note_off_c, 1, 44, 64
1, 3569, Note_off_c, 1, 32, 64
1, 3570, Note_off_c, 3, 60, 64
1, 3570, Note_off_c, 0, 44, 64
1, 3599, Note_on_c, 9, 38, 77
1, 3601, Note_off_c, 9, 38, 64
1, 3624, Note_on_c, 9, 38, 67
1, 3626, Note_off_c, 9, 38, 64
1, 3645, Note_on_c, 2, 61, 88
1, 3646, Note_on_c, 3, 58, 74
1, 3646, Note_on_c, 2, 65, 90
1, 3647, Note_on_c, 1, 39, 94
1, 3647, Note_on_c, 9, 38, 88
1, 3647, Note_on_c, 3, 56, 62
1, 3648, Note_on_c, 10, 51, 85
1, 3648, Note_on_c, 0, 39, 97
1, 3649, Note_off_c, 9, 38, 64
1, 3652, Note_off_c, 10, 51, 64
1, 3660, Note_off_c, 2, 61, 64
1, 3661, Note_off_c, 2, 65, 64
1, 3665, Note_off_c, 1, 39, 64
1, 3666, Note_off_c, 0, 39, 64
1, 3668, Note_off_c, 3, 56, 64
1, 3669, Note_off_c, 3, 58, 64
1, 3672, Note_on_c, 9, 38, 87
1, 3672, Note_on_c, 10, 51, 86
1, 3674, Note_off_c, 9, 38, 64
1, 3676, Note_off_c, 10, 51, 64
1, 3695, Note_on_c, 9, 38, 95
1, 3696, Note_on_c, 0, 39, 89
1, 3696, Note_on_c, 10, 51, 89
1, 3697, Note_off_c, 9, 38, 64
1, 3700, Note_off_c, 10, 51, 64
1, 3714, Note_off_c, 0, 39, 64
1, 3719, Note_on_c, 9, 38, 88
1, 3720, Note_on_c, 10, 51, 93
1, 3721, Note_off_c, 9, 38, 64
1, 3724, Note_off_c, 10, 51, 64
1, 3742, Note_on_c, 2, 60, 84
1, 3742, Note_on_c, 3, 55, 61
1, 3743, Note_on_c, 1, 44, 78
1, 3743, Note_on_c, 1, 32, 78
1, 3743, Note_on_c, 2, 63, 88
1, 3743, Note_on_c, 3, 56, 68
1, 3744, Note_on_c, 9, 38, 89
1, 3744, Note_on_c, 10, 44, 100
1, 3745, Note_on_c, 0, 44, 104
1, 3746, Note_off_c, 9, 38, 64
1, 3748, Note_off_c, 10, 44, 64
1, 3758, Note_off_c, 2, 63, 64
1, 3759, Note_off_c, 2, 60, 64
1, 3761, Note_off_c, 1, 44, 64
1, 3761, Note_off_c, 1, 32, 64
1, 3765, Note_off_c, 3, 56, 64
1, 3765, Note_off_c, 0, 44, 64
1, 3767, Note_off_c, 3, 55, 64
1, 3792, Note_on_c, 9, 38, 75
1, 3794, Note_off_c, 9, 38, 64
1, 3816, Note_on_c, 9, 38, 76
1, 3818, Note_off_c, 9, 38, 64
1, 3838, Note_on_c, 2, 65, 89
1, 3838, Note_on_c, 2, 61, 88
1, 3838, Note_on_c, 3, 56, 62
1, 3838, Note_on_c, 3, 58, 74
1, 3839, Note_on_c, 1, 39, 89
1, 3839, Note_on_c, 9, 38, 85
1, 3840, Note_on_c, 0, 39, 100
1, 3841, Note_off_c, 9, 38, 64
1, 3853, Note_off_c, 2, 61, 64
1, 3854, Note_off_c, 2, 65, 64
1, 3857, Note_off_c, 1, 39, 64
1, 3858, Note_off_c, 3, 56, 64
1, 3858, Note_off_c, 0, 39, 64
1, 3860, Note_off_c, 3, 58, 64
1, 3887, Note_on_c, 9, 38, 79
1, 3889, Note_off_c, 9, 38, 64
1, 3933, Note_on_c, 2, 67, 94
1, 3933, Note_on_c, 3, 60, 80
1, 3934, Note_on_c, 2, 63, 94
1, 3934, Note_on_c, 3, 58, 66
1, 3935, Note_on_c, 1, 32, 69
1, 3935, Note_on_c, 1, 44, 75
1, 3935, Note_on_c, 9, 38, 87
1, 3936, Note_on_c, 0, 44, 104
1, 3937, Note_off_c, 9, 38, 64
1, 3949, Note_off_c, 2, 63, 64
1, 3951, Note_off_c, 2, 67, 64
1, 3951, Note_off_c, 3, 58, 64
1, 3953, Note_off_c, 1, 32, 64
1, 3953, Note_off_c, 1, 44, 64
1, 3954, Note_off_c, 3, 60, 64
1, 3954, Note_off_c, 0, 44, 64
1, 3984, Note_on_c, 9, 38, 75
1, 3986, Note_off_c, 9, 38, 64
1, 4007, Note_on_c, 9, 38, 66
1, 4009, Note_off_c, 9, 38, 64
1, 4030, Note_on_c, 2, 61, 88
1, 4030, Note_on_c, 2, 65, 90
1, 4031, Note_on_c, 3, 58, 74
1, 4031, Note_on_c, 3, 56, 62
1, 4031, Note_on_c, 1, 39, 94
1, 4032, Note_on_c, 10, 51, 85
1, 4032, Note_on_c, 0, 39, 94
1, 4032, Note_on_c, 9, 38, 92
1, 4034, Note_off_c, 9, 38, 64
1, 4036, Note_off_c, 10, 51, 64
1, 4044, Note_off_c, 2, 61, 64
1, 4045, Note_off_c, 2, 65, 64
1, 4049, Note_off_c, 1, 39, 64
1, 4050, Note_off_c, 0, 39, 64
1, 4052, Note_off_c, 3, 56, 64
1, 4053, Note_off_c, 3, 58, 64
1, 4055, Note_on_c, 9, 38, 89
1, 4056, Note_on_c, 10, 51, 86
1, 4057, Note_off_c, 9, 38, 64
1, 4060, Note_off_c, 10, 51, 64
1, 4079, Note_on_c, 9, 38, 91
1, 4080, Note_on_c, 0, 39, 85
1, 4080, Note_on_c, 10, 51, 89
1, 4081, Note_off_c, 9, 38, 64
1, 4084, Note_off_c, 10, 51, 64
1, 4098, Note_off_c, 0, 39, 64
1, 4103, Note_on_c, 9, 38, 88
1, 4104, Note_on_c, 10, 51, 93
1, 4105, Note_off_c, 9, 38, 64
1, 4108, Note_off_c, 10, 51, 64
1, 4126, Note_on_c, 2, 63, 88
1, 4126, Note_on_c, 3, 55, 61
1, 4127, Note_on_c, 9, 38, 83
1, 4127, Note_on_c, 2, 60, 84
1, 4127, Note_on_c, 3, 56, 68
1, 4128, Note_on_c, 1, 44, 70
1, 4128, Note_on_c, 1, 32, 78
1, 4128, Note_on_c, 0, 44, 104
1, 4128, Note_on_c, 10, 44, 100
1, 4129, Note_off_c, 9, 38, 64
1, 4132, Note_off_c, 10, 44, 64
1, 4141, Note_off_c, 2, 63, 64
1, 4144, Note_off_c, 2, 60, 64
1, 4146, Note_off_c, 1, 44, 64
1, 4146, Note_off_c, 1, 32, 64
1, 4146, Note_off_c, 0, 44, 64
1, 4149, Note_off_c, 3, 56, 64
1, 4151, Note_off_c, 3, 55, 64
1, 4176, Note_on_c, 9, 38, 70
1, 4178, Note_off_c, 9, 38, 64
1, 4199, Note_on_c, 9, 38, 78
1, 4201, Note_off_c, 9, 38, 64
1, 4222, Note_on_c, 2, 65, 89
1, 4222, Note_on_c, 2, 61, 88
1, 4222, Note_on_c, 3, 58, 74
1, 4223, Note_on_c, 1, 39, 89
1, 4223, Note_on_c, 0, 39, 89
1, 4223, Note_on_c, 3, 56, 62
1, 4224, Note_on_c, 9, 38, 89
1, 4226, Note_off_c, 9, 38, 64
1, 4237, Note_off_c, 2, 61, 64
1, 4238, Note_off_c, 2, 65, 64
1, 4241, Note_off_c, 1, 39, 64
1, 4241, Note_off_c, 0, 39, 64
1, 4243, Note_off_c, 3, 56, 64
1, 4244, Note_off_c, 3, 58, 64
1, 4272, Note_on_c, 9, 38, 84
1, 4274, Note_off_c, 9, 38, 64
1, 4317, Note_on_c, 2, 67, 94
1, 4317, Note_on_c, 3, 60, 80
1, 4318, Note_on_c, 2, 63, 94
1, 4318, Note_on_c, 3, 58, 66
1, 4319, Note_on_c, 1, 32, 70
1, 4319, Note_on_c, 1, 44, 76
1, 4319, Note_on_c, 9, 38, 82
1, 4320, Note_on_c, 0, 44, 104
1, 4321, Note_off_c, 9, 38, 64
1, 4333, Note_off_c, 2, 63, 64
1, 4334, Note_off_c, 2, 67, 64
1, 4335, Note_off_c, 3, 58, 64
1, 4337, Note_off_c, 1, 32, 64
1, 4337, Note_off_c, 1, 44, 64
1, 4338, Note_off_c, 3, 60, 64
1, 4338, Note_off_c, 0, 44, 64
1, 4367, Note_on_c, 9, 38, 71
1, 4369, Note_off_c, 9, 38, 64
1, 4391, Note_on_c, 9, 38, 70
1, 4393, Note_off_c, 9, 38, 64
1, 4414, Note_on_c, 2, 61, 88
1, 4414, Note_on_c, 2, 65, 90
1, 4415, Note_on_c, 3, 58, 74
1, 4415, Note_on_c, 3, 56, 62
1, 4415, Note_on_c, 1, 39, 89
1, 4415, Note_on_c, 9, 38, 95
1, 4416, Note_on_c, 10, 51, 85
1, 4417, Note_off_c, 9, 38, 64
1, 4417, Note_on_c, 0, 39, 100
1, 4420, Note_off_c, 10, 51, 64
1, 4428, Note_off_c, 2, 61, 64
1, 4429, Note_off_c, 2, 65, 64
1, 4433, Note_off_c, 1, 39, 64
1, 4436, Note_off_c, 3, 56, 64
1, 4436, Note_off_c, 0, 39, 64
1, 4437, Note_off_c, 3, 58, 64
1, 4439, Note_on_c, 9, 38, 88
1, 4440, Note_on_c, 10, 51, 86
1, 4441, Note_off_c, 9, 38, 64
1, 4444, Note_off_c, 10, 51, 64
1, 4463, Note_on_c, 9, 38, 89
1, 4464, Note_on_c, 10, 51, 89
1, 4465, Note_off_c, 9, 38, 64
1, 4465, Note_on_c, 0, 39, 81
1, 4468, Note_off_c, 10, 51, 64
1, 4485, Note_off_c, 0, 39, 64
1, 4488, Note_on_c, 9, 38, 91
1, 4488, Note_on_c, 10, 51, 93
1, 4490, Note_off_c, 9, 38, 64
1, 4492, Note_off_c, 10, 51, 64
1, 4510, Note_on_c, 2, 63, 79
1, 4510, Note_on_c, 3, 55, 55
1, 4510, Note_on_c, 3, 56, 62
1, 4511, Note_on_c, 1, 44, 70
1, 4511, Note_on_c, 1, 32, 78
1, 4511, Note_on_c, 2, 60, 75
1, 4512, Note_on_c, 7, 56, 100
1, 4512, Note_on_c, 5, 56, 110
1, 4512, Note_on_c, 9, 38, 83
1, 4512, Note_on_c, 10, 44, 100
1, 4513, Note_on_c, 0, 44, 104
1, 4514, Note_off_c, 9, 38, 64
1, 4516, Note_off_c, 10, 44, 64
1, 4525, Note_off_c, 2, 63, 64
1, 4527, Note_off_c, 2, 60, 64
1, 4528, Note_off_c, 7, 56, 64
1, 4528, Note_off_c, 5, 56, 64
1, 4529, Note_off_c, 1, 44, 64
1, 4529, Note_off_c, 1, 32, 64
1, 4532, Note_off_c, 3, 56, 64
1, 4533, Note_off_c, 0, 44, 64
1, 4535, Note_off_c, 3, 55, 64
1, 4560, Note_on_c, 7, 53, 100
1, 4560, Note_on_c, 5, 53, 110
1, 4560, Note_on_c, 9, 38, 76
1, 4562, Note_off_c, 9, 38, 64
1, 4574, Note_off_c, 5, 53, 64
1, 4576, Note_off_c, 7, 53, 64
1, 4583, Note_on_c, 5, 56, 110
1, 4584, Note_on_c, 7, 56, 100
1, 4584, Note_on_c, 9, 38, 74
1, 4586, Note_off_c, 9, 38, 64
1, 4597, Note_off_c, 5, 56, 64
1, 4600, Note_off_c, 7, 56, 64
1, 4606, Note_on_c, 2, 61, 79
1, 4606, Note_on_c, 2, 65, 80
1, 4607, Note_on_c, 3, 58, 66
1, 4607, Note_on_c, 3, 56, 55
1, 4607, Note_on_c, 1, 39, 79
1, 4608, Note_on_c, 5, 58, 123
1, 4608, Note_on_c, 7, 58, 112
1, 4608, Note_on_c, 9, 38, 82
1, 4609, Note_on_c, 0, 39, 91
1, 4610, Note_off_c, 9, 38, 64
1, 4621, Note_off_c, 2, 61, 64
1, 4623, Note_off_c, 2, 65, 64
1, 4625, Note_off_c, 1, 39, 64
1, 4627, Note_off_c, 3, 56, 64
1, 4628, Note_off_c, 3, 58, 64
1, 4629, Note_off_c, 0, 39, 64
1, 4655, Note_on_c, 9, 38, 83
1, 4656, Note_on_c, 4, 75, 98
1, 4657, Note_off_c, 9, 38, 64
1, 4662, Control_c, 5, 11, 125
1, 4662, Control_c, 7, 11, 125
1, 4665, Control_c, 5, 11, 123
1, 4665, Control_c, 7, 11, 123
1, 4667, Note_off_c, 4, 75, 64
1, 4669, Control_c, 5, 11, 121
1, 4669, Control_c, 7, 11, 121
1, 4672, Control_c, 5, 11, 119
1, 4672, Control_c, 7, 11, 119
1, 4676, Control_c, 5, 11, 117
1, 4676, Control_c, 7, 11, 117
1, 4679, Control_c, 5, 11, 115
1, 4679, Control_c, 7, 11, 115
1, 4681, Note_on_c, 4, 75, 93
1, 4683, Control_c, 5, 11, 113
1, 4683, Control_c, 7, 11, 113
1, 4686, Control_c, 5, 11, 111
1, 4686, Control_c, 7, 11, 111
1, 4690, Control_c, 5, 11, 109
1, 4690, Control_c, 7, 11, 109
1, 4692, Note_off_c, 4, 75, 64
1, 4693, Control_c, 5, 11, 107
1, 4693, Control_c, 7, 11, 107
1, 4697, Control_c, 5, 11, 105
1, 4697, Control_c, 7, 11, 105
1, 4700, Control_c, 5, 11, 103
1, 4700, Control_c, 7, 11, 103
1, 4701, Note_on_c, 2, 67, 85
1, 4701, Note_on_c, 2, 63, 85
1, 4701, Note_on_c, 3, 58, 59
1, 4702, Note_on_c, 3, 60, 73
1, 4703, Note_on_c, 1, 32, 70
1, 4703, Note_on_c, 1, 44, 78
1, 4703, Note_on_c, 9, 38, 86
1, 4704, Control_c, 5, 11, 101
1, 4704, Note_on_c, 4, 75, 110
1, 4704, Control_c, 7, 11, 101
1, 4705, Note_off_c, 9, 38, 64
1, 4705, Note_on_c, 0, 44, 100
1, 4707, Control_c, 5, 11, 99
1, 4707, Control_c, 7, 11, 99
1, 4710, Control_c, 5, 11, 97
1, 4710, Control_c, 7, 11, 97
1, 4714, Control_c, 5, 11, 95
1, 4714, Control_c, 7, 11, 95
1, 4716, Note_off_c, 2, 63, 64
1, 4717, Control_c, 5, 11, 93
1, 4717, Control_c, 7, 11, 93
1, 4718, Note_off_c, 2, 67, 64
1, 4718, Note_off_c, 3, 58, 64
1, 4721, Note_off_c, 1, 32, 64
1, 4721, Note_off_c, 1, 44, 64
1, 4721, Control_c, 5, 11, 91
1, 4721, Control_c, 7, 11, 91
1, 4722, Note_off_c, 3, 60, 64
1, 4724, Control_c, 5, 11, 89
1, 4724, Control_c, 7, 11, 89
1, 4725, Note_off_c, 0, 44, 64
1, 4728, Control_c, 5, 11, 87
1, 4728, Control_c, 7, 11, 87
1, 4731, Control_c, 5, 11, 85
1, 4731, Control_c, 7, 11, 85
1, 4732, Note_off_c, 5, 58, 64
1, 4732, Note_off_c, 7, 58, 64
1, 4735, Control_c, 5, 11, 83
1, 4735, Control_c, 7, 11, 83
1, 4738, Control_c, 5, 11, 81
1, 4738, Control_c, 7, 11, 81
1, 4742, Control_c, 5, 11, 79
1, 4742, Control_c, 7, 11, 79
1, 4745, Control_c, 5, 11, 77
1, 4745, Control_c, 7, 11, 77
1, 4750, Control_c, 5, 11, 127
1, 4750, Control_c, 7, 11, 127
1, 4751, Note_on_c, 7, 51, 104
1, 4752, Note_on_c, 9, 38, 75
1, 4752, Note_on_c, 5, 51, 114
1, 4754, Note_off_c, 9, 38, 64
1, 4767, Note_off_c, 7, 51, 64
1, 4768, Note_off_c, 5, 51, 64
1, 4775, Note_on_c, 9, 38, 71
1, 4776, Note_on_c, 7, 53, 97
1, 4776, Note_on_c, 5, 53, 107
1, 4777, Note_off_c, 9, 38, 64
1, 4792, Note_off_c, 7, 53, 64
1, 4792, Note_off_c, 5, 53, 64
1, 4797, Note_on_c, 2, 65, 81
1, 4797, Note_on_c, 2, 61, 79
1, 4799, Note_on_c, 3, 58, 66
1, 4799, Note_on_c, 3, 56, 55
1, 4799, Note_on_c, 1, 39, 97
1, 4799, Note_on_c, 9, 38, 89
1, 4799, Note_on_c, 7, 56, 107
1, 4800, Note_on_c, 10, 51, 85
1, 4800, Note_on_c, 0, 39, 85
1, 4800, Note_on_c, 5, 56, 118
1, 4801, Note_off_c, 9, 38, 64
1, 4804, Note_off_c, 10, 51, 64
1, 4812, Note_off_c, 2, 65, 64
1, 4812, Note_off_c, 2, 61, 64
1, 4815, Note_off_c, 7, 56, 64
1, 4816, Note_off_c, 5, 56, 64
1, 4817, Note_off_c, 1, 39, 64
1, 4818, Note_off_c, 0, 39, 64
1, 4820, Note_off_c, 3, 56, 64
1, 4821, Note_off_c, 3, 58, 64
1, 4824, Note_on_c, 9, 38, 88
1, 4824, Note_on_c, 10, 51, 86
1, 4826, Note_off_c, 9, 38, 64
1, 4828, Note_off_c, 10, 51, 64
1, 4847, Note_on_c, 7, 58, 112
1, 4847, Note_on_c, 5, 58, 123
1, 4848, Note_on_c, 0, 39, 85
1, 4848, Note_on_c, 9, 38, 95
1, 4848, Note_on_c, 10, 51, 89
1, 4850, Note_off_c, 9, 38, 64
1, 4852, Note_off_c, 10, 51, 64
1, 4863, Note_off_c, 7, 58, 64
1, 4863, Note_off_c, 5, 58, 64
1, 4866, Note_off_c, 0, 39, 64
1, 4871, Note_on_c, 9, 38, 87
1, 4872, Note_on_c, 10, 51, 93
1, 4873, Note_off_c, 9, 38, 64
1, 4876, Note_off_c, 10, 51, 64
1, 4894, Note_on_c, 2, 63, 79
1, 4894, Note_on_c, 2, 60, 75
1, 4894, Note_on_c, 3, 55, 55
1, 4895, Note_on_c, 1, 32, 72
1, 4895, Note_on_c, 1, 44, 65
1, 4895, Note_on_c, 7, 63, 104
1, 4895, Note_on_c, 5, 63, 114
1, 4895, Note_on_c, 3, 56, 62
1, 4896, Note_on_c, 9, 38, 87
1, 4896, Note_on_c, 10, 44, 100
1, 4897, Note_on_c, 0, 44, 100
1, 4898, Note_off_c, 9, 38, 64
1, 4900, Note_off_c, 10, 44, 64
1, 4909, Note_off_c, 2, 63, 64
1, 4911, Note_off_c, 2, 60, 64
1, 4911, Note_off_c, 7, 63, 64
1, 4911, Note_off_c, 5, 63, 64
1, 4913, Note_off_c, 1, 32, 64
1, 4913, Note_off_c, 1, 44, 64
1, 4917, Note_off_c, 3, 56, 64
1, 4917, Note_off_c, 0, 44, 64
1, 4918, Note_off_c, 3, 55, 64
1, 4943, Note_on_c, 5, 65, 104
1, 4944, Note_on_c, 7, 65, 95
1, 4944, Note_on_c, 9, 38, 74
1, 4946, Note_off_c, 9, 38, 64
1, 4959, Note_off_c, 5, 65, 64
1, 4960, Note_off_c, 7, 65, 64
1, 4967, Note_on_c, 5, 60, 104
1, 4967, Note_on_c, 9, 38, 78
1, 4968, Note_on_c, 7, 60, 95
1, 4969, Note_off_c, 9, 38, 64
1, 4983, Note_off_c, 5, 60, 64
1, 4984, Note_off_c, 7, 60, 64
1, 4990, Note_on_c, 2, 65, 80
1, 4990, Note_on_c, 2, 61, 79
1, 4990, Note_on_c, 3, 58, 66
1, 4990, Note_on_c, 3, 56, 55
1, 4991, Note_on_c, 1, 39, 81
1, 4991, Note_on_c, 9, 38, 88
1, 4992, Note_on_c, 5, 63, 114
1, 4992, Note_on_c, 7, 63, 104
1, 4993, Note_off_c, 9, 38, 64
1, 4993, Note_on_c, 0, 39, 89
1, 5005, Note_off_c, 2, 61, 64
1, 5006, Note_off_c, 2, 65, 64
1, 5008, Note_off_c, 5, 63, 64
1, 5008, Note_off_c, 7, 63, 64
1, 5009, Note_off_c, 1, 39, 64
1, 5011, Note_off_c, 3, 56, 64
1, 5012, Note_off_c, 3, 58, 64
1, 5013, Note_off_c, 0, 39, 64
1, 5040, Note_on_c, 9, 38, 80
1, 5040, Note_on_c, 5, 65, 110
1, 5040, Note_on_c, 7, 65, 100
1, 5042, Note_off_c, 9, 38, 64
1, 5056, Note_off_c, 5, 65, 64
1, 5056, Note_off_c, 7, 65, 64
1, 5085, Note_on_c, 2, 67, 85
1, 5085, Note_on_c, 3, 60, 73
1, 5086, Note_on_c, 2, 63, 85
1, 5086, Note_on_c, 3, 58, 59
1, 5087, Note_on_c, 1, 32, 69
1, 5087, Note_on_c, 1, 44, 75
1, 5087, Note_on_c, 5, 58, 120
1, 5088, Note_on_c, 9, 38, 87
1, 5088, Note_on_c, 7, 58, 100
1, 5090, Note_off_c, 9, 38, 64
1, 5090, Note_on_c, 0, 44, 100
1, 5100, Note_off_c, 4, 75, 64
1, 5101, Note_off_c, 2, 63, 64
1, 5102, Note_off_c, 2, 67, 64
1, 5103, Note_off_c, 3, 58, 64
1, 5105, Note_off_c, 1, 32, 64
1, 5105, Note_off_c, 1, 44, 64
1, 5106, Note_off_c, 3, 60, 64
1, 5110, Note_off_c, 0, 44, 64
1, 5135, Note_on_c, 4, 70, 98
1, 5135, Note_on_c, 9, 38, 78
1, 5137, Note_off_c, 9, 38, 64
1, 5142, Control_c, 5, 11, 125
1, 5142, Control_c, 7, 11, 125
1, 5146, Control_c, 5, 11, 123
1, 5146, Control_c, 7, 11, 123
1, 5149, Control_c, 5, 11, 121
1, 5149, Control_c, 7, 11, 121
1, 5153, Control_c, 5, 11, 119
1, 5153, Control_c, 7, 11, 119
1, 5155, Note_off_c, 4, 70, 64
1, 5157, Control_c, 5, 11, 117
1, 5157, Control_c, 7, 11, 117
1, 5160, Note_on_c, 4, 72, 97
1, 5160, Note_on_c, 9, 38, 69
1, 5161, Control_c, 5, 11, 115
1, 5161, Control_c, 7, 11, 115
1, 5162, Note_off_c, 9, 38, 64
1, 5164, Control_c, 5, 11, 113
1, 5164, Control_c, 7, 11, 113
1, 5168, Control_c, 5, 11, 111
1, 5168, Control_c, 7, 11, 111
1, 5172, Control_c, 5, 11, 109
1, 5172, Control_c, 7, 11, 109
1, 5176, Control_c, 5, 11, 107
1, 5176, Control_c, 7, 11, 107
1, 5179, Control_c, 5, 11, 105
1, 5179, Control_c, 7, 11, 105
1, 5180, Note_off_c, 4, 72, 64
1, 5181, Note_on_c, 2, 61, 79
1, 5181, Note_on_c, 2, 65, 81
1, 5183, Control_c, 5, 11, 103
1, 5183, Note_on_c, 3, 58, 66
1, 5183, Control_c, 7, 11, 103
1, 5183, Note_on_c, 3, 56, 55
1, 5183, Note_on_c, 1, 39, 85
1, 5183, Note_on_c, 9, 38, 95
1, 5184, Note_on_c, 10, 51, 85
1, 5184, Note_on_c, 4, 73, 103
1, 5185, Note_off_c, 9, 38, 64
1, 5185, Note_on_c, 0, 39, 91
1, 5187, Control_c, 5, 11, 101
1, 5187, Control_c, 7, 11, 101
1, 5188, Note_off_c, 10, 51, 64
1, 5190, Control_c, 5, 11, 99
1, 5190, Control_c, 7, 11, 99
1, 5194, Control_c, 5, 11, 97
1, 5194, Control_c, 7, 11, 97
1, 5196, Note_off_c, 2, 61, 64
1, 5196, Note_off_c, 2, 65, 64
1, 5198, Note_off_c, 4, 73, 64
1, 5198, Control_c, 5, 11, 95
1, 5198, Control_c, 7, 11, 95
1, 5201, Note_off_c, 1, 39, 64
1, 5202, Control_c, 5, 11, 93
1, 5202, Control_c, 7, 11, 93
1, 5204, Note_off_c, 3, 56, 64
1, 5204, Note_off_c, 0, 39, 64
1, 5205, Note_off_c, 3, 58, 64
1, 5205, Control_c, 5, 11, 91
1, 5205, Control_c, 7, 11, 91
1, 5207, Note_on_c, 9, 38, 91
1, 5208, Note_on_c, 10, 51, 86
1, 5209, Control_c, 5, 11, 89
1, 5209, Note_off_c, 9, 38, 64
1, 5209, Control_c, 7, 11, 89
1, 5212, Note_off_c, 10, 51, 64
1, 5213, Control_c, 5, 11, 87
1, 5213, Control_c, 7, 11, 87
1, 5217, Control_c, 5, 11, 85
1, 5217, Control_c, 7, 11, 85
1, 5220, Control_c, 5, 11, 83
1, 5220, Control_c, 7, 11, 83
1, 5224, Control_c, 5, 11, 81
1, 5224, Control_c, 7, 11, 81
1, 5228, Control_c, 5, 11, 79
1, 5228, Control_c, 7, 11, 79
1, 5232, Note_on_c, 4, 73, 100
1, 5232, Control_c, 5, 11, 77
1, 5232, Note_on_c, 4, 77, 110
1, 5232, Control_c, 7, 11, 77
1, 5232, Note_on_c, 9, 38, 88
1, 5232, Note_on_c, 10, 51, 89
1, 5233, Note_on_c, 0, 39, 78
1, 5234, Note_off_c, 9, 38, 64
1, 5236, Note_off_c, 10, 51, 64
1, 5245, Note_off_c, 4, 73, 64
1, 5247, Note_off_c, 4, 77, 64
1, 5252, Note_off_c, 0, 39, 64
1, 5256, Note_on_c, 9, 38, 89
1, 5256, Note_on_c, 10, 51, 93
1, 5258, Note_off_c, 9, 38, 64
1, 5259, Note_off_c, 5, 58, 64
1, 5260, Note_off_c, 7, 58, 64
1, 5260, Note_off_c, 10, 51, 64
1, 5278, Control_c, 5, 11, 127
1, 5278, Note_on_c, 2, 63, 79
1, 5278, Control_c, 7, 11, 127
1, 5278, Note_on_c, 2, 60, 75
1, 5278, Note_on_c, 1, 32, 73
1, 5278, Note_on_c, 1, 44, 69
1, 5279, Note_on_c, 3, 55, 55
1, 5279, Note_on_c, 3, 56, 62
1, 5279, Note_on_c, 9, 38, 90
1, 5279, Note_on_c, 7, 56, 104
1, 5280, Note_on_c, 10, 44, 100
1, 5280, Note_on_c, 5, 56, 114
1, 5281, Note_off_c, 9, 38, 64
1, 5281, Note_on_c, 4, 72, 94
1, 5281, Note_on_c, 0, 44, 104
1, 5282, Note_on_c, 4, 75, 99
1, 5284, Note_off_c, 10, 44, 64
1, 5293, Note_off_c, 2, 63, 64
1, 5295, Note_off_c, 2, 60, 64
1, 5295, Note_off_c, 7, 56, 64
1, 5296, Note_off_c, 1, 32, 64
1, 5296, Note_off_c, 1, 44, 64
1, 5296, Note_off_c, 5, 56, 64
1, 5299, Note_off_c, 4, 72, 64
1, 5299, Note_off_c, 4, 75, 64
1, 5301, Note_off_c, 3, 56, 64
1, 5301, Note_off_c, 0, 44, 64
1, 5303, Note_off_c, 3, 55, 64
1, 5327, Note_on_c, 7, 53, 95
1, 5328, Note_on_c, 9, 38, 73
1, 5328, Note_on_c, 5, 53, 104
1, 5330, Note_off_c, 9, 38, 64
1, 5342, Note_off_c, 5, 53, 64
1, 5343, Note_off_c, 7, 53, 64
1, 5351, Note_on_c, 7, 56, 112
1, 5351, Note_on_c, 5, 56, 123
1, 5352, Note_on_c, 9, 38, 73
1, 5354, Note_off_c, 9, 38, 64
1, 5365, Note_off_c, 5, 56, 64
1, 5367, Note_off_c, 7, 56, 64
1, 5374, Note_on_c, 2, 61, 79
1, 5374, Note_on_c, 2, 65, 80
1, 5374, Note_on_c, 3, 56, 55
1, 5375, Note_on_c, 1, 39, 83
1, 5375, Note_on_c, 5, 58, 124
1, 5375, Note_on_c, 3, 58, 66
1, 5376, Note_on_c, 0, 39, 94
1, 5376, Note_on_c, 7, 58, 104
1, 5376, Note_on_c, 9, 38, 88
1, 5378, Note_off_c, 9, 38, 64
1, 5388, Note_off_c, 2, 61, 64
1, 5391, Note_off_c, 2, 65, 64
1, 5393, Note_off_c, 1, 39, 64
1, 5394, Note_off_c, 3, 56, 64
1, 5394, Note_off_c, 0, 39, 64
1, 5396, Note_off_c, 3, 58, 64
1, 5423, Note_on_c, 9, 38, 83
1, 5424, Note_on_c, 4, 75, 97
1, 5425, Note_off_c, 9, 38, 64
1, 5430, Control_c, 5, 11, 125
1, 5430, Control_c, 7, 11, 125
1, 5433, Control_c, 5, 11, 123
1, 5433, Control_c, 7, 11, 123
1, 5434, Note_off_c, 4, 75, 64
1, 5437, Control_c, 5, 11, 121
1, 5437, Control_c, 7, 11, 121
1, 5440, Control_c, 5, 11, 119
1, 5440, Control_c, 7, 11, 119
1, 5444, Control_c, 5, 11, 117
1, 5444, Control_c, 7, 11, 117
1, 5447, Control_c, 5, 11, 115
1, 5447, Control_c, 7, 11, 115
1, 5449, Note_on_c, 4, 75, 91
1, 5451, Control_c, 5, 11, 113
1, 5451, Control_c, 7, 11, 113
1, 5454, Control_c, 5, 11, 111
1, 5454, Control_c, 7, 11, 111
1, 5458, Control_c, 5, 11, 109
1, 5458, Control_c, 7, 11, 109
1, 5460, Note_off_c, 4, 75, 64
1, 5461, Control_c, 5, 11, 107
1, 5461, Control_c, 7, 11, 107
1, 5465, Control_c, 5, 11, 105
1, 5465, Control_c, 7, 11, 105
1, 5468, Control_c, 5, 11, 103
1, 5468, Control_c, 7, 11, 103
1, 5469, Note_on_c, 2, 63, 85
1, 5470, Note_on_c, 1, 32, 72
1, 5470, Note_on_c, 1, 44, 69
1, 5470, Note_on_c, 3, 60, 73
1, 5470, Note_on_c, 3, 58, 59
1, 5470, Note_on_c, 2, 67, 85
1, 5471, Note_on_c, 4, 75, 103
1, 5472, Control_c, 5, 11, 101
1, 5472, Note_on_c, 9, 38, 85
1, 5472, Control_c, 7, 11, 101
1, 5473, Note_on_c, 0, 44, 104
1, 5474, Note_off_c, 9, 38, 64
1, 5475, Control_c, 5, 11, 99
1, 5475, Control_c, 7, 11, 99
1, 5478, Control_c, 5, 11, 97
1, 5478, Control_c, 7, 11, 97
1, 5482, Control_c, 5, 11, 95
1, 5482, Control_c, 7, 11, 95
1, 5485, Note_off_c, 2, 63, 64
1, 5485, Control_c, 5, 11, 93
1, 5485, Control_c, 7, 11, 93
1, 5487, Note_off_c, 3, 58, 64
1, 5487, Note_off_c, 2, 67, 64
1, 5488, Note_off_c, 1, 32, 64
1, 5488, Note_off_c, 1, 44, 64
1, 5489, Control_c, 5, 11, 91
1, 5489, Control_c, 7, 11, 91
1, 5490, Note_off_c, 3, 60, 64
1, 5491, Note_off_c, 0, 44, 64
1, 5492, Control_c, 5, 11, 89
1, 5492, Control_c, 7, 11, 89
1, 5496, Control_c, 5, 11, 87
1, 5496, Control_c, 7, 11, 87
1, 5499, Note_off_c, 5, 58, 64
1, 5499, Control_c, 5, 11, 85
1, 5499, Control_c, 7, 11, 85
1, 5500, Note_off_c, 7, 58, 64
1, 5503, Control_c, 5, 11, 83
1, 5503, Control_c, 7, 11, 83
1, 5506, Control_c, 5, 11, 81
1, 5506, Control_c, 7, 11, 81
1, 5510, Control_c, 5, 11, 79
1, 5510, Control_c, 7, 11, 79
1, 5513, Control_c, 5, 11, 77
1, 5513, Control_c, 7, 11, 77
1, 5518, Control_c, 5, 11, 127
1, 5518, Control_c, 7, 11, 127
1, 5519, Note_on_c, 7, 51, 104
1, 5520, Note_on_c, 9, 38, 75
1, 5520, Note_on_c, 5, 51, 114
1, 5522, Note_off_c, 9, 38, 64
1, 5535, Note_off_c, 7, 51, 64
1, 5536, Note_off_c, 5, 51, 64
1, 5543, Note_on_c, 7, 53, 100
1, 5544, Note_on_c, 9, 38, 68
1, 5544, Note_on_c, 5, 53, 110
1, 5546, Note_off_c, 9, 38, 64
1, 5559, Note_off_c, 7, 53, 64
1, 5560, Note_off_c, 5, 53, 64
1, 5565, Note_on_c, 2, 61, 79
1, 5566, Note_on_c, 2, 65, 81
1, 5567, Note_on_c, 1, 39, 87
1, 5567, Note_on_c, 3, 56, 55
1, 5567, Note_on_c, 3, 58, 66
1, 5567, Note_on_c, 7, 56, 104
1, 5568, Note_on_c, 10, 51, 85
1, 5568, Note_on_c, 0, 39, 85
1, 5568, Note_on_c, 9, 38, 94
1, 5568, Note_on_c, 5, 56, 114
1, 5570, Note_off_c, 9, 38, 64
1, 5572, Note_off_c, 10, 51, 64
1, 5579, Note_off_c, 2, 61, 64
1, 5581, Note_off_c, 2, 65, 64
1, 5583, Note_off_c, 7, 56, 64
1, 5584, Note_off_c, 5, 56, 64
1, 5585, Note_off_c, 1, 39, 64
1, 5588, Note_off_c, 3, 56, 64
1, 5588, Note_off_c, 0, 39, 64
1, 5590, Note_off_c, 3, 58, 64
1, 5591, Note_on_c, 9, 38, 93
1, 5592, Note_on_c, 10, 51, 86
1, 5593, Note_off_c, 9, 38, 64
1, 5596, Note_off_c, 10, 51, 64
1, 5615, Note_on_c, 5, 58, 123
1, 5616, Note_on_c, 7, 58, 112
1, 5616, Note_on_c, 0, 39, 85
1, 5616, Note_on_c, 9, 38, 92
1, 5616, Note_on_c, 10, 51, 89
1, 5618, Note_off_c, 9, 38, 64
1, 5620, Note_off_c, 10, 51, 64
1, 5631, Note_off_c, 5, 58, 64
1, 5632, Note_off_c, 7, 58, 64
1, 5634, Note_off_c, 0, 39, 64
1, 5640, Note_on_c, 9, 38, 95
1, 5640, Note_on_c, 10, 51, 93
1, 5642, Note_off_c, 9, 38, 64
1, 5644, Note_off_c, 10, 51, 64
1, 5662, Note_on_c, 1, 44, 75
1, 5662, Note_on_c, 3, 56, 62
1, 5663, Note_on_c, 2, 63, 79
1, 5663, Note_on_c, 2, 60, 75
1, 5663, Note_on_c, 5, 63, 123
1, 5663, Note_on_c, 7, 63, 112
1, 5663, Note_on_c, 1, 32, 78
1, 5663, Note_on_c, 3, 55, 55
1, 5664, Note_on_c, 0, 44, 108
1, 5664, Note_on_c, 9, 38, 88
1, 5664, Note_on_c, 10, 44, 100
1, 5666, Note_off_c, 9, 38, 64
1, 5668, Note_off_c, 10, 44, 64
1, 5670, Note_off_c, 4, 75, 64
1, 5678, Note_off_c, 2, 63, 64
1, 5679, Note_off_c, 5, 63, 64
1, 5679, Note_off_c, 7, 63, 64
1, 5680, Note_off_c, 1, 44, 64
1, 5680, Note_off_c, 2, 60, 64
1, 5681, Note_off_c, 1, 32, 64
1, 5682, Note_off_c, 0, 44, 64
1, 5684, Note_off_c, 3, 56, 64
1, 5687, Note_off_c, 3, 55, 64
1, 5711, Note_on_c, 5, 65, 110
1, 5711, Note_on_c, 7, 65, 100
1, 5711, Note_on_c, 9, 38, 71
1, 5713, Note_off_c, 9, 38, 64
1, 5727, Note_off_c, 5, 65, 64
1, 5727, Note_off_c, 7, 65, 64
1, 5735, Note_on_c, 7, 60, 97
1, 5735, Note_on_c, 9, 38, 79
1, 5736, Note_on_c, 5, 60, 107
1, 5737, Note_off_c, 9, 38, 64
1, 5751, Note_off_c, 7, 60, 64
1, 5752, Note_off_c, 5, 60, 64
1, 5758, Note_on_c, 2, 63, 80
1, 5758, Note_on_c, 2, 60, 79
1, 5758, Note_on_c, 3, 55, 55
1, 5759, Note_on_c, 1, 48, 83
1, 5759, Note_on_c, 1, 36, 79
1, 5759, Note_on_c, 3, 56, 66
1, 5760, Note_on_c, 0, 36, 94
1, 5760, Note_on_c, 7, 63, 100
1, 5760, Note_on_c, 9, 38, 83
1, 5760, Note_on_c, 5, 63, 110
1, 5762, Note_off_c, 9, 38, 64
1, 5773, Note_off_c, 2, 60, 64
1, 5775, Note_off_c, 2, 63, 64
1, 5776, Note_off_c, 7, 63, 64
1, 5776, Note_off_c, 5, 63, 64
1, 5777, Note_off_c, 1, 48, 64
1, 5777, Note_off_c, 1, 36, 64
1, 5779, Note_off_c, 3, 55, 64
1, 5780, Note_off_c, 0, 36, 64
1, 5781, Note_off_c, 3, 56, 64
1, 5807, Note_on_c, 7, 65, 95
1, 5808, Note_on_c, 9, 38, 77
1, 5808, Note_on_c, 5, 65, 104
1, 5810, Note_off_c, 9, 38, 64
1, 5823, Note_off_c, 7, 65, 64
1, 5824, Note_off_c, 5, 65, 64
1, 5853, Note_on_c, 3, 57, 59
1, 5854, Note_on_c, 2, 65, 85
1, 5854, Note_on_c, 2, 60, 85
1, 5855, Note_on_c, 1, 38, 81
1, 5855, Note_on_c, 1, 50, 81
1, 5856, Note_on_c, 0, 38, 78
1, 5856, Note_on_c, 7, 67, 102
1, 5856, Note_on_c, 9, 38, 73
1, 5856, Note_on_c, 5, 67, 118
1, 5858, Note_off_c, 9, 38, 64
1, 5869, Note_off_c, 2, 60, 64
1, 5871, Note_off_c, 3, 57, 64
1, 5871, Note_off_c, 2, 65, 64
1, 5873, Note_off_c, 1, 38, 64
1, 5873, Note_off_c, 1, 50, 64
1, 5876, Note_off_c, 0, 38, 64
1, 5904, Note_on_c, 9, 38, 60
1, 5906, Note_off_c, 9, 38, 64
1, 5910, Control_c, 7, 11, 125
1, 5910, Control_c, 5, 11, 125
1, 5914, Control_c, 7, 11, 123
1, 5914, Control_c, 5, 11, 123
1, 5917, Control_c, 7, 11, 121
1, 5917, Control_c, 5, 11, 121
1, 5921, Control_c, 7, 11, 119
1, 5921, Control_c, 5, 11, 119
1, 5925, Control_c, 7, 11, 117
1, 5925, Control_c, 5, 11, 117
1, 5928, Note_on_c, 9, 38, 56
1, 5929, Control_c, 7, 11, 115
1, 5929, Control_c, 5, 11, 115
1, 5930, Note_off_c, 9, 38, 64
1, 5932, Control_c, 7, 11, 113
1, 5932, Control_c, 5, 11, 113
1, 5936, Control_c, 7, 11, 111
1, 5936, Control_c, 5, 11, 111
1, 5940, Control_c, 7, 11, 109
1, 5940, Control_c, 5, 11, 109
1, 5944, Control_c, 7, 11, 107
1, 5944, Control_c, 5, 11, 107
1, 5947, Control_c, 7, 11, 105
1, 5947, Control_c, 5, 11, 105
1, 5949, Note_on_c, 2, 59, 79
1, 5949, Note_on_c, 2, 65, 81
1, 5951, Control_c, 7, 11, 103
1, 5951, Note_on_c, 3, 55, 55
1, 5951, Control_c, 5, 11, 103
1, 5951, Note_on_c, 1, 43, 83
1, 5952, Note_on_c, 8, 86, 63
1, 5952, Note_on_c, 12, 86, 63
1, 5952, Note_on_c, 0, 43, 97
1, 5952, Note_on_c, 9, 38, 71
1, 5954, Note_off_c, 9, 38, 64
1, 5955, Control_c, 7, 11, 101
1, 5955, Control_c, 5, 11, 101
1, 5958, Control_c, 7, 11, 99
1, 5958, Control_c, 5, 11, 99
1, 5962, Control_c, 7, 11, 97
1, 5962, Control_c, 5, 11, 97
1, 5963, Note_off_c, 2, 59, 64
1, 5964, Note_off_c, 2, 65, 64
1, 5966, Control_c, 7, 11, 95
1, 5966, Control_c, 5, 11, 95
1, 5968, Note_off_c, 8, 86, 64
1, 5968, Note_off_c, 12, 86, 64
1, 5970, Note_off_c, 1, 43, 64
1, 5970, Note_off_c, 0, 43, 64
1, 5970, Control_c, 7, 11, 93
1, 5970, Control_c, 5, 11, 93
1, 5972, Note_off_c, 3, 55, 64
1, 5973, Control_c, 7, 11, 91
1, 5973, Control_c, 5, 11, 91
1, 5975, Note_on_c, 9, 38, 65
1, 5976, Note_on_c, 8, 88, 66
1, 5976, Note_on_c, 12, 88, 66
1, 5977, Control_c, 7, 11, 89
1, 5977, Note_off_c, 9, 38, 64
1, 5977, Control_c, 5, 11, 89
1, 5981, Control_c, 7, 11, 87
1, 5981, Control_c, 5, 11, 87
1, 5985, Control_c, 7, 11, 85
1, 5985, Control_c, 5, 11, 85
1, 5988, Control_c, 7, 11, 83
1, 5988, Control_c, 5, 11, 83
1, 5992, Note_off_c, 8, 88, 64
1, 5992, Note_off_c, 12, 88, 64
1, 5992, Control_c, 7, 11, 81
1, 5992, Control_c, 5, 11, 81
1, 5996, Control_c, 7, 11, 79
1, 5996, Control_c, 5, 11, 79
1, 6000, Note_on_c, 9, 38, 66
1, 6000, Control_c, 7, 11, 77
1, 6000, Note_on_c, 8, 89, 68
1, 6000, Control_c, 5, 11, 77
1, 6000, Note_on_c, 12, 89, 68
1, 6002, Note_off_c, 9, 38, 64
1, 6016, Note_off_c, 8, 89, 64
1, 6016, Note_off_c, 12, 89, 64
1, 6023, Note_on_c, 9, 38, 58
1, 6024, Note_on_c, 8, 90, 70
1, 6024, Note_on_c, 12, 90, 70
1, 6025, Note_off_c, 9, 38, 64
1, 6032, Note_off_c, 7, 67, 64
1, 6032, Note_off_c, 5, 67, 64
1, 6040, Note_off_c, 8, 90, 64
1, 6040, Note_off_c, 12, 90, 64
1, 6046, Note_on_c, 2, 67, 103
1, 6047, Note_on_c, 3, 48, 50
1, 6047, Note_on_c, 1, 36, 76
1, 6048, Control_c, 5, 11, 127
1, 6048, Note_on_c, 0, 36, 87
1, 6048, Note_on_c, 9, 38, 56
1, 6048, Note_on_c, 8, 91, 63
1, 6048, Note_on_c, 12, 91, 73
1, 6048, Note_on_c, 3, 52, 47
1, 6049, Note_on_c, 6, 74, 68
1, 6050, Note_off_c, 9, 38, 64
1, 6062, Note_off_c, 2, 67, 64
1, 6068, Note_off_c, 0, 36, 64
1, 6069, Note_off_c, 8, 91, 64
1, 6069, Note_off_c, 12, 91, 64
1, 6095, Note_on_c, 2, 69, 96
1, 6096, Note_on_c, 9, 38, 44
1, 6098, Note_off_c, 9, 38, 64
1, 6098, Note_on_c, 8, 93, 62
1, 6098, Note_on_c, 12, 93, 72
1, 6111, Note_off_c, 2, 69, 64
1, 6118, Note_on_c, 2, 64, 91
1, 6120, Note_on_c, 9, 38, 50
1, 6121, Note_on_c, 8, 88, 62
1, 6121, Note_on_c, 12, 88, 72
1, 6122, Note_off_c, 9, 38, 64
1, 6123, Note_off_c, 8, 93, 64
1, 6123, Note_off_c, 12, 93, 64
1, 6139, Note_off_c, 2, 64, 64
1, 6143, Note_on_c, 2, 67, 97
1, 6144, Control_c, 7, 11, 127
1, 6144, Note_on_c, 0, 36, 85
1, 6144, Note_on_c, 6, 72, 70
1, 6144, Note_on_c, 9, 38, 54
1, 6145, Note_off_c, 6, 74, 64
1, 6145, Note_on_c, 8, 91, 65
1, 6145, Note_on_c, 12, 91, 75
1, 6146, Note_off_c, 9, 38, 64
1, 6147, Note_off_c, 8, 88, 64
1, 6147, Note_off_c, 12, 88, 64
1, 6164, Note_off_c, 0, 36, 64
1, 6191, Note_on_c, 9, 38, 50
1, 6193, Note_off_c, 9, 38, 64
1, 6218, Note_off_c, 1, 36, 64
1, 6239, Note_on_c, 9, 38, 53
1, 6240, Note_on_c, 1, 33, 79
1, 6240, Note_on_c, 0, 45, 87
1, 6241, Note_off_c, 6, 72, 64
1, 6241, Note_off_c, 9, 38, 64
1, 6241, Note_on_c, 6, 71, 66
1, 6256, Note_off_c, 2, 67, 64
1, 6260, Note_off_c, 8, 91, 64
1, 6260, Note_off_c, 12, 91, 64
1, 6260, Note_off_c, 0, 45, 64
1, 6287, Note_on_c, 2, 64, 91
1, 6287, Note_on_c, 9, 38, 50
1, 6288, Note_on_c, 8, 88, 61
1, 6289, Note_off_c, 9, 38, 64
1, 6303, Note_off_c, 2, 64, 64
1, 6307, Note_off_c, 8, 88, 64
1, 6309, Note_on_c, 2, 62, 90
1, 6311, Note_on_c, 9, 38, 49
1, 6311, Note_on_c, 8, 86, 62
1, 6313, Note_off_c, 9, 38, 64
1, 6325, Note_off_c, 2, 62, 64
1, 6333, Note_on_c, 2, 60, 88
1, 6335, Note_off_c, 8, 86, 64
1, 6335, Note_on_c, 8, 84, 65
1, 6336, Note_on_c, 0, 45, 84
1, 6336, Note_on_c, 6, 69, 68
1, 6336, Note_on_c, 9, 38, 62
1, 6337, Note_off_c, 6, 71, 64
1, 6338, Note_off_c, 9, 38, 64
1, 6348, Note_off_c, 2, 60, 64
1, 6356, Note_off_c, 8, 84, 64
1, 6356, Note_off_c, 0, 45, 64
1, 6360, Note_on_c, 9, 38, 59
1, 6362, Note_off_c, 9, 38, 64
1, 6381, Note_on_c, 2, 59, 87
1, 6384, Note_on_c, 8, 83, 66
1, 6384, Note_on_c, 9, 38, 58
1, 6386, Note_off_c, 9, 38, 64
1, 6394, Note_off_c, 2, 59, 64
1, 6402, Note_off_c, 1, 33, 64
1, 6404, Note_off_c, 8, 83, 64
1, 6407, Note_on_c, 9, 38, 55
1, 6409, Note_off_c, 9, 38, 64
1, 6424, Note_off_c, 3, 52, 64
1, 6429, Note_off_c, 3, 48, 64
1, 6430, Note_on_c, 3, 53, 54
1, 6430, Note_on_c, 3, 45, 52
1, 6430, Note_on_c, 2, 57, 96
1, 6431, Note_on_c, 1, 38, 85
1, 6431, Note_on_c, 0, 38, 87
1, 6431, Note_on_c, 9, 38, 57
1, 6432, Note_off_c, 6, 69, 64
1, 6432, Note_on_c, 6, 72, 70
1, 6432, Note_on_c, 8, 81, 63
1, 6433, Note_off_c, 9, 38, 64
1, 6450, Note_off_c, 0, 38, 64
1, 6480, Note_on_c, 9, 38, 45
1, 6482, Note_off_c, 9, 38, 64
1, 6494, Note_off_c, 8, 81, 64
1, 6495, Note_off_c, 2, 57, 64
1, 6503, Note_on_c, 2, 59, 88
1, 6504, Note_on_c, 8, 83, 62
1, 6504, Note_on_c, 9, 38, 52
1, 6506, Note_off_c, 9, 38, 64
1, 6520, Note_off_c, 2, 59, 64
1, 6524, Note_off_c, 8, 83, 64
1, 6527, Note_on_c, 0, 38, 87
1, 6527, Note_on_c, 2, 60, 94
1, 6527, Note_on_c, 9, 38, 53
1, 6528, Note_on_c, 8, 84, 63
1, 6529, Note_off_c, 9, 38, 64
1, 6543, Note_off_c, 2, 60, 64
1, 6545, Note_off_c, 0, 38, 64
1, 6547, Note_off_c, 8, 84, 64
1, 6575, Note_on_c, 2, 64, 89
1, 6575, Note_on_c, 9, 38, 51
1, 6577, Note_off_c, 9, 38, 64
1, 6577, Note_on_c, 8, 88, 65
1, 6592, Note_off_c, 1, 38, 64
1, 6592, Note_off_c, 2, 64, 64
1, 6597, Note_off_c, 8, 88, 64
1, 6617, Note_off_c, 3, 45, 64
1, 6621, Note_on_c, 3, 47, 55
1, 6622, Note_on_c, 0, 43, 91
1, 6623, Note_on_c, 1, 43, 78
1, 6623, Note_on_c, 2, 62, 86
1, 6624, Note_off_c, 6, 72, 64
1, 6624, Note_on_c, 9, 38, 59
1, 6625, Note_on_c, 6, 71, 66
1, 6625, Note_on_c, 8, 86, 61
1, 6626, Note_off_c, 9, 38, 64
1, 6640, Note_off_c, 0, 43, 64
1, 6672, Note_on_c, 9, 38, 49
1, 6673, Note_on_c, 4, 67, 100
1, 6674, Note_off_c, 9, 38, 64
1, 6689, Note_off_c, 4, 67, 64
1, 6696, Note_on_c, 9, 38, 42
1, 6698, Note_off_c, 9, 38, 64
1, 6698, Note_on_c, 4, 67, 94
1, 6705, Note_off_c, 1, 43, 64
1, 6715, Note_off_c, 4, 67, 64
1, 6718, Note_off_c, 3, 53, 64
1, 6719, Note_on_c, 3, 50, 56
1, 6719, Note_on_c, 0, 41, 94
1, 6719, Note_on_c, 1, 41, 87
1, 6719, Note_on_c, 9, 38, 59
1, 6721, Note_off_c, 9, 38, 64
1, 6721, Note_on_c, 4, 67, 100
1, 6736, Note_off_c, 4, 67, 64
1, 6739, Note_off_c, 0, 41, 64
1, 6743, Note_on_c, 9, 38, 60
1, 6745, Note_off_c, 9, 38, 64
1, 6768, Note_on_c, 9, 38, 59
1, 6770, Note_off_c, 9, 38, 64
1, 6770, Note_on_c, 4, 67, 94
1, 6776, Note_off_c, 8, 86, 64
1, 6781, Note_off_c, 2, 62, 64
1, 6786, Note_off_c, 4, 67, 64
1, 6792, Note_on_c, 9, 38, 58
1, 6794, Note_off_c, 9, 38, 64
1, 6795, Note_off_c, 1, 41, 64
1, 6798, Note_off_c, 6, 71, 64
1, 6810, Note_off_c, 3, 50, 64
1, 6813, Note_off_c, 3, 47, 64
1, 6814, Note_on_c, 12, 87, 73
1, 6814, Note_on_c, 2, 63, 97
1, 6814, Note_on_c, 8, 87, 63
1, 6814, Note_on_c, 3, 51, 53
1, 6814, Note_on_c, 3, 48, 58
1, 6814, Note_on_c, 1, 39, 78
1, 6815, Note_on_c, 0, 39, 89
1, 6815, Note_on_c, 9, 38, 51
1, 6816, Note_on_c, 7, 63, 67
1, 6817, Note_off_c, 9, 38, 64
1, 6817, Note_on_c, 6, 70, 71
1, 6827, Note_off_c, 12, 87, 64
1, 6828, Note_off_c, 2, 63, 64
1, 6831, Note_off_c, 8, 87, 64
1, 6835, Note_off_c, 0, 39, 64
1, 6863, Note_on_c, 12, 89, 70
1, 6863, Note_on_c, 2, 65, 90
1, 6863, Note_on_c, 8, 89, 60
1, 6864, Note_on_c, 9, 38, 51
1, 6866, Note_off_c, 9, 38, 64
1, 6879, Note_off_c, 2, 65, 64
1, 6881, Note_off_c, 12, 89, 64
1, 6881, Note_off_c, 8, 89, 64
1, 6886, Note_on_c, 2, 60, 91
1, 6887, Note_on_c, 12, 84, 68
1, 6887, Note_on_c, 8, 84, 58
1, 6887, Note_on_c, 9, 38, 48
1, 6889, Note_off_c, 9, 38, 64
1, 6906, Note_off_c, 12, 84, 64
1, 6906, Note_off_c, 8, 84, 64
1, 6908, Note_off_c, 2, 60, 64
1, 6910, Note_on_c, 2, 63, 96
1, 6911, Note_on_c, 0, 39, 89
1, 6911, Note_on_c, 12, 87, 73
1, 6911, Note_on_c, 8, 87, 63
1, 6912, Note_on_c, 6, 68, 68
1, 6912, Note_on_c, 9, 38, 59
1, 6913, Note_off_c, 6, 70, 64
1, 6914, Note_off_c, 9, 38, 64
1, 6929, Note_off_c, 0, 39, 64
1, 6950, Note_off_c, 7, 63, 64
1, 6955, Note_off_c, 3, 51, 64
1, 6958, Note_on_c, 3, 53, 56
1, 6960, Note_on_c, 7, 65, 63
1, 6960, Note_on_c, 9, 38, 56
1, 6962, Note_off_c, 9, 38, 64
1, 6979, Note_off_c, 1, 39, 64
1, 7000, Note_off_c, 7, 65, 64
1, 7006, Note_on_c, 1, 41, 81
1, 7006, Note_on_c, 0, 41, 89
1, 7007, Note_off_c, 3, 53, 64
1, 7007, Note_on_c, 3, 55, 59
1, 7008, Note_off_c, 6, 68, 64
1, 7008, Note_on_c, 6, 67, 70
1, 7008, Note_on_c, 9, 38, 51
1, 7009, Note_off_c, 2, 63, 64
1, 7009, Note_on_c, 7, 67, 66
1, 7010, Note_off_c, 9, 38, 64
1, 7022, Note_off_c, 12, 87, 64
1, 7022, Note_off_c, 8, 87, 64
1, 7024, Note_off_c, 0, 41, 64
1, 7053, Note_on_c, 2, 60, 94
1, 7055, Note_on_c, 8, 84, 58
1, 7055, Note_on_c, 9, 38, 46
1, 7057, Note_off_c, 9, 38, 64
1, 7072, Note_off_c, 2, 60, 64
1, 7076, Note_off_c, 8, 84, 64
1, 7077, Note_on_c, 2, 58, 90
1, 7079, Note_on_c, 9, 38, 48
1, 7080, Note_on_c, 8, 82, 66
1, 7081, Note_off_c, 9, 38, 64
1, 7094, Note_off_c, 2, 58, 64
1, 7096, Note_off_c, 7, 67, 64
1, 7100, Note_off_c, 3, 55, 64
1, 7101, Note_on_c, 2, 56, 88
1, 7102, Note_on_c, 0, 41, 94
1, 7102, Note_on_c, 3, 53, 55
1, 7103, Note_on_c, 8, 80, 68
1, 7104, Note_off_c, 6, 67, 64
1, 7104, Note_on_c, 6, 65, 68
1, 7104, Note_on_c, 9, 38, 60
1, 7105, Note_on_c, 7, 65, 65
1, 7106, Note_off_c, 8, 82, 64
1, 7106, Note_off_c, 9, 38, 64
1, 7113, Note_off_c, 2, 56, 64
1, 7120, Note_off_c, 0, 41, 64
1, 7120, Note_off_c, 8, 80, 64
1, 7128, Note_on_c, 9, 38, 62
1, 7130, Note_off_c, 9, 38, 64
1, 7151, Note_on_c, 2, 55, 86
1, 7152, Note_on_c, 9, 38, 60
1, 7154, Note_off_c, 9, 38, 64
1, 7155, Note_on_c, 8, 79, 70
1, 7161, Note_off_c, 1, 41, 64
1, 7167, Note_off_c, 7, 65, 64
1, 7167, Note_off_c, 2, 55, 64
1, 7175, Note_on_c, 9, 38, 60
1, 7177, Note_off_c, 9, 38, 64
1, 7178, Note_off_c, 8, 79, 64
1, 7186, Note_off_c, 3, 53, 64
1, 7189, Note_off_c, 3, 48, 64
1, 7198, Note_on_c, 1, 34, 70
1, 7198, Note_on_c, 1, 46, 78
1, 7198, Note_on_c, 0, 46, 94
1, 7199, Note_on_c, 9, 38, 82
1, 7200, Note_off_c, 6, 65, 64
1, 7200, Note_on_c, 4, 65, 103
1, 7200, Note_on_c, 7, 53, 99
1, 7201, Note_off_c, 9, 38, 64
1, 7216, Note_off_c, 0, 46, 64
1, 7229, Note_off_c, 1, 34, 64
1, 7231, Note_off_c, 1, 46, 64
1, 7245, Note_off_c, 7, 53, 64
1, 7255, Note_off_c, 4, 65, 64
1, 7271, Note_on_c, 7, 55, 103
1, 7272, Note_on_c, 4, 67, 100
1, 7287, Note_off_c, 7, 55, 64
1, 7288, Note_off_c, 4, 67, 64
1, 7295, Note_on_c, 7, 56, 108
1, 7297, Note_on_c, 4, 68, 103
1, 7311, Note_off_c, 7, 56, 64
1, 7314, Note_off_c, 4, 68, 64
1, 7343, Note_on_c, 7, 58, 108
1, 7344, Note_on_c, 4, 70, 102
1, 7362, Note_off_c, 7, 58, 64
1, 7363, Note_off_c, 4, 70, 64
1, 7390, Note_on_c, 0, 48, 94
1, 7392, Note_on_c, 5, 60, 121
1, 7392, Note_on_c, 5, 48, 100
1, 7408, Note_off_c, 0, 48, 64
1, 7410, Note_off_c, 5, 60, 64
1, 7410, Note_off_c, 5, 48, 64
1, 7439, Note_on_c, 0, 46, 104
1, 7440, Note_on_c, 5, 58, 108
1, 7440, Note_on_c, 5, 46, 107
1, 7457, Note_off_c, 0, 46, 64
1, 7458, Note_off_c, 5, 58, 64
1, 7458, Note_off_c, 5, 46, 64
1, 7480, Note_on_c, 13, 51, 50
1, 7487, Note_on_c, 9, 38, 47
1, 7487, Note_on_c, 0, 43, 89
1, 7488, Note_off_c, 13, 51, 64
1, 7488, Note_on_c, 10, 51, 85
1, 7488, Note_on_c, 5, 55, 110
1, 7488, Note_on_c, 5, 43, 91
1, 7488, Note_on_c, 13, 53, 58
1, 7489, Note_off_c, 9, 38, 64
1, 7492, Note_off_c, 10, 51, 64
1, 7496, Note_off_c, 13, 53, 64
1, 7496, Note_on_c, 9, 38, 52
1, 7496, Note_on_c, 13, 55, 60
1, 7498, Note_off_c, 9, 38, 64
1, 7504, Note_off_c, 13, 55, 64
1, 7504, Note_on_c, 9, 38, 52
1, 7504, Note_on_c, 13, 56, 55
1, 7505, Note_off_c, 0, 43, 64
1, 7506, Note_off_c, 5, 55, 64
1, 7506, Note_off_c, 5, 43, 64
1, 7506, Note_off_c, 9, 38, 64
1, 7511, Note_on_c, 9, 38, 57
1, 7512, Note_off_c, 13, 56, 64
1, 7512, Note_on_c, 10, 51, 86
1, 7512, Note_on_c, 13, 58, 59
1, 7513, Note_off_c, 9, 38, 64
1, 7516, Note_off_c, 10, 51, 64
1, 7519, Note_on_c, 9, 38, 61
1, 7520, Note_off_c, 13, 58, 64
1, 7520, Note_on_c, 13, 60, 56
1, 7521, Note_off_c, 9, 38, 64
1, 7528, Note_off_c, 13, 60, 64
1, 7528, Note_on_c, 9, 38, 58
1, 7528, Note_on_c, 13, 61, 59
1, 7530, Note_off_c, 9, 38, 64
1, 7536, Note_off_c, 13, 61, 64
1, 7536, Note_on_c, 0, 39, 94
1, 7536, Note_on_c, 5, 51, 121
1, 7536, Note_on_c, 5, 39, 103
1, 7536, Note_on_c, 10, 51, 89
1, 7536, Note_on_c, 9, 38, 63
1, 7536, Note_on_c, 13, 63, 59
1, 7538, Note_off_c, 9, 38, 64
1, 7540, Note_off_c, 10, 51, 64
1, 7544, Note_off_c, 13, 63, 64
1, 7544, Note_on_c, 9, 38, 64
1, 7544, Note_on_c, 13, 65, 56
1, 7546, Note_off_c, 9, 38, 64
1, 7552, Note_off_c, 13, 65, 64
1, 7552, Note_on_c, 9, 38, 71
1, 7552, Note_on_c, 13, 67, 59
1, 7554, Note_off_c, 0, 39, 64
1, 7554, Note_off_c, 5, 51, 64
1, 7554, Note_off_c, 5, 39, 64
1, 7554, Note_off_c, 9, 38, 64
1, 7560, Note_off_c, 13, 67, 64
1, 7560, Note_on_c, 10, 51, 93
1, 7560, Note_on_c, 9, 38, 71
1, 7560, Note_on_c, 13, 68, 59
1, 7562, Note_off_c, 9, 38, 64
1, 7564, Note_off_c, 10, 51, 64
1, 7568, Note_off_c, 13, 68, 64
1, 7568, Note_on_c, 9, 38, 77
1, 7568, Note_on_c, 13, 70, 58
1, 7570, Note_off_c, 9, 38, 64
1, 7575, Note_on_c, 9, 38, 79
1, 7576, Note_off_c, 13, 70, 64
1, 7576, Note_on_c, 13, 72, 65
1, 7577, Note_off_c, 9, 38, 64
1, 7583, Note_on_c, 3, 56, 62
1, 7583, Note_on_c, 3, 55, 55
1, 7583, Note_on_c, 2, 63, 79
1, 7583, Note_on_c, 2, 60, 75
1, 7583, Note_on_c, 1, 44, 79
1, 7583, Note_on_c, 1, 32, 81
1, 7584, Note_off_c, 13, 72, 64
1, 7584, Note_on_c, 7, 56, 100
1, 7584, Note_on_c, 0, 44, 113
1, 7584, Note_on_c, 5, 56, 110
1, 7584, Note_on_c, 10, 44, 100
1, 7584, Note_on_c, 9, 38, 89
1, 7584, Note_on_c, 13, 73, 59
1, 7586, Note_off_c, 9, 38, 64
1, 7588, Note_off_c, 10, 44, 64
1, 7592, Note_off_c, 13, 73, 64
1, 7592, Note_on_c, 13, 75, 70
1, 7598, Note_off_c, 2, 63, 64
1, 7599, Note_off_c, 2, 60, 64
1, 7600, Note_off_c, 7, 56, 64
1, 7600, Note_off_c, 5, 56, 64
1, 7600, Note_off_c, 13, 75, 64
1, 7601, Note_off_c, 1, 32, 64
1, 7603, Note_off_c, 1, 44, 64
1, 7603, Note_off_c, 0, 44, 64
1, 7604, Note_off_c, 3, 56, 64
1, 7607, Note_off_c, 3, 55, 64
1, 7631, Note_on_c, 7, 53, 100
1, 7631, Note_on_c, 5, 53, 110
1, 7631, Note_on_c, 9, 38, 76
1, 7633, Note_off_c, 9, 38, 64
1, 7645, Note_off_c, 5, 53, 64
1, 7647, Note_off_c, 7, 53, 64
1, 7655, Note_on_c, 9, 38, 81
1, 7656, Note_on_c, 7, 56, 100
1, 7656, Note_on_c, 5, 56, 110
1, 7657, Note_off_c, 9, 38, 64
1, 7670, Note_off_c, 5, 56, 64
1, 7672, Note_off_c, 7, 56, 64
1, 7678, Note_on_c, 3, 56, 55
1, 7678, Note_on_c, 2, 65, 80
1, 7678, Note_on_c, 2, 61, 79
1, 7678, Note_on_c, 1, 39, 89
1, 7679, Note_on_c, 0, 39, 81
1, 7679, Note_on_c, 3, 58, 66
1, 7680, Note_on_c, 9, 38, 85
1, 7680, Note_on_c, 7, 58, 112
1, 7680, Note_on_c, 5, 58, 123
1, 7682, Note_off_c, 9, 38, 64
1, 7693, Note_off_c, 2, 61, 64
1, 7694, Note_off_c, 2, 65, 64
1, 7696, Note_off_c, 1, 39, 64
1, 7697, Note_off_c, 0, 39, 64
1, 7698, Note_off_c, 3, 56, 64
1, 7701, Note_off_c, 3, 58, 64
1, 7728, Note_on_c, 4, 75, 98
1, 7728, Note_on_c, 9, 38, 78
1, 7730, Note_off_c, 9, 38, 64
1, 7734, Control_c, 7, 11, 125
1, 7734, Control_c, 5, 11, 125
1, 7737, Control_c, 7, 11, 123
1, 7737, Control_c, 5, 11, 123
1, 7739, Note_off_c, 4, 75, 64
1, 7741, Control_c, 7, 11, 121
1, 7741, Control_c, 5, 11, 121
1, 7744, Control_c, 7, 11, 119
1, 7744, Control_c, 5, 11, 119
1, 7748, Control_c, 7, 11, 117
1, 7748, Control_c, 5, 11, 117
1, 7751, Control_c, 7, 11, 115
1, 7751, Control_c, 5, 11, 115
1, 7753, Note_on_c, 4, 75, 93
1, 7755, Control_c, 7, 11, 113
1, 7755, Control_c, 5, 11, 113
1, 7758, Control_c, 7, 11, 111
1, 7758, Control_c, 5, 11, 111
1, 7762, Control_c, 7, 11, 109
1, 7762, Control_c, 5, 11, 109
1, 7764, Note_off_c, 4, 75, 64
1, 7765, Control_c, 7, 11, 107
1, 7765, Control_c, 5, 11, 107
1, 7769, Control_c, 7, 11, 105
1, 7769, Control_c, 5, 11, 105
1, 7772, Control_c, 7, 11, 103
1, 7772, Control_c, 5, 11, 103
1, 7773, Note_on_c, 2, 63, 85
1, 7774, Note_on_c, 3, 58, 59
1, 7774, Note_on_c, 3, 60, 73
1, 7774, Note_on_c, 2, 67, 85
1, 7775, Note_on_c, 1, 32, 70
1, 7775, Note_on_c, 1, 44, 79
1, 7776, Control_c, 7, 11, 101
1, 7776, Note_on_c, 0, 44, 100
1, 7776, Control_c, 5, 11, 101
1, 7776, Note_on_c, 9, 38, 90
1, 7776, Note_on_c, 4, 75, 110
1, 7778, Note_off_c, 9, 38, 64
1, 7779, Control_c, 7, 11, 99
1, 7779, Control_c, 5, 11, 99
1, 7782, Control_c, 7, 11, 97
1, 7782, Control_c, 5, 11, 97
1, 7786, Control_c, 7, 11, 95
1, 7786, Control_c, 5, 11, 95
1, 7789, Note_off_c, 2, 63, 64
1, 7789, Control_c, 7, 11, 93
1, 7789, Control_c, 5, 11, 93
1, 7791, Note_off_c, 3, 58, 64
1, 7791, Note_off_c, 2, 67, 64
1, 7793, Note_off_c, 1, 32, 64
1, 7793, Note_off_c, 1, 44, 64
1, 7793, Control_c, 7, 11, 91
1, 7793, Control_c, 5, 11, 91
1, 7794, Note_off_c, 3, 60, 64
1, 7794, Note_off_c, 0, 44, 64
1, 7796, Control_c, 7, 11, 89
1, 7796, Control_c, 5, 11, 89
1, 7800, Control_c, 7, 11, 87
1, 7800, Control_c, 5, 11, 87
1, 7803, Control_c, 7, 11, 85
1, 7803, Control_c, 5, 11, 85
1, 7804, Note_off_c, 7, 58, 64
1, 7804, Note_off_c, 5, 58, 64
1, 7807, Control_c, 7, 11, 83
1, 7807, Control_c, 5, 11, 83
1, 7810, Control_c, 7, 11, 81
1, 7810, Control_c, 5, 11, 81
1, 7814, Control_c, 7, 11, 79
1, 7814, Control_c, 5, 11, 79
1, 7817, Control_c, 7, 11, 77
1, 7817, Control_c, 5, 11, 77
1, 7822, Control_c, 7, 11, 127
1, 7822, Control_c, 5, 11, 127
1, 7823, Note_on_c, 9, 38, 75
1, 7824, Note_on_c, 7, 51, 104
1, 7824, Note_on_c, 5, 51, 114
1, 7825, Note_off_c, 9, 38, 64
1, 7840, Note_off_c, 7, 51, 64
1, 7840, Note_off_c, 5, 51, 64
1, 7847, Note_on_c, 9, 38, 71
1, 7848, Note_on_c, 7, 53, 97
1, 7848, Note_on_c, 5, 53, 107
1, 7849, Note_off_c, 9, 38, 64
1, 7864, Note_off_c, 7, 53, 64
1, 7864, Note_off_c, 5, 53, 64
1, 7870, Note_on_c, 2, 61, 79
1, 7870, Note_on_c, 2, 65, 81
1, 7871, Note_on_c, 3, 58, 66
1, 7871, Note_on_c, 3, 56, 55
1, 7871, Note_on_c, 1, 39, 91
1, 7871, Note_on_c, 9, 38, 94
1, 7871, Note_on_c, 5, 56, 118
1, 7872, Note_on_c, 10, 51, 85
1, 7872, Note_on_c, 0, 39, 89
1, 7872, Note_on_c, 7, 56, 107
1, 7873, Note_off_c, 9, 38, 64
1, 7876, Note_off_c, 10, 51, 64
1, 7884, Note_off_c, 2, 61, 64
1, 7885, Note_off_c, 2, 65, 64
1, 7887, Note_off_c, 5, 56, 64
1, 7888, Note_off_c, 7, 56, 64
1, 7889, Note_off_c, 1, 39, 64
1, 7890, Note_off_c, 0, 39, 64
1, 7892, Note_off_c, 3, 56, 64
1, 7893, Note_off_c, 3, 58, 64
1, 7895, Note_on_c, 9, 38, 90
1, 7896, Note_on_c, 10, 51, 86
1, 7897, Note_off_c, 9, 38, 64
1, 7900, Note_off_c, 10, 51, 64
1, 7919, Note_on_c, 0, 39, 79
1, 7919, Note_on_c, 9, 38, 89
1, 7920, Note_on_c, 5, 58, 123
1, 7920, Note_on_c, 7, 58, 112
1, 7920, Note_on_c, 10, 51, 89
1, 7921, Note_off_c, 9, 38, 64
1, 7924, Note_off_c, 10, 51, 64
1, 7936, Note_off_c, 5, 58, 64
1, 7936, Note_off_c, 7, 58, 64
1, 7937, Note_off_c, 0, 39, 64
1, 7944, Note_on_c, 9, 38, 89
1, 7944, Note_on_c, 10, 51, 93
1, 7946, Note_off_c, 9, 38, 64
1, 7948, Note_off_c, 10, 51, 64
1, 7966, Note_on_c, 3, 56, 62
1, 7966, Note_on_c, 3, 55, 55
1, 7967, Note_on_c, 2, 63, 79
1, 7967, Note_on_c, 2, 60, 75
1, 7967, Note_on_c, 1, 32, 73
1, 7967, Note_on_c, 1, 44, 73
1, 7967, Note_on_c, 0, 44, 100
1, 7967, Note_on_c, 5, 63, 114
1, 7967, Note_on_c, 7, 63, 104
1, 7967, Note_on_c, 9, 38, 90
1, 7968, Note_on_c, 10, 44, 100
1, 7969, Note_off_c, 9, 38, 64
1, 7972, Note_off_c, 10, 44, 64
1, 7982, Note_off_c, 2, 63, 64
1, 7983, Note_off_c, 5, 63, 64
1, 7983, Note_off_c, 7, 63, 64
1, 7984, Note_off_c, 2, 60, 64
1, 7985, Note_off_c, 1, 32, 64
1, 7985, Note_off_c, 1, 44, 64
1, 7985, Note_off_c, 0, 44, 64
1, 7988, Note_off_c, 3, 56, 64
1, 7991, Note_off_c, 3, 55, 64
1, 8015, Note_on_c, 5, 65, 104
1, 8015, Note_on_c, 9, 38, 76
1, 8016, Note_on_c, 7, 65, 95
1, 8017, Note_off_c, 9, 38, 64
1, 8031, Note_off_c, 5, 65, 64
1, 8032, Note_off_c, 7, 65, 64
1, 8039, Note_on_c, 7, 60, 95
1, 8040, Note_on_c, 5, 60, 104
1, 8040, Note_on_c, 9, 38, 78
1, 8042, Note_off_c, 9, 38, 64
1, 8055, Note_off_c, 7, 60, 64
1, 8056, Note_off_c, 5, 60, 64
1, 8062, Note_on_c, 3, 58, 66
1, 8062, Note_on_c, 2, 65, 80
1, 8062, Note_on_c, 2, 61, 79
1, 8062, Note_on_c, 1, 39, 83
1, 8063, Note_on_c, 0, 39, 94
1, 8063, Note_on_c, 3, 56, 55
1, 8064, Note_on_c, 7, 63, 104
1, 8064, Note_on_c, 5, 63, 114
1, 8064, Note_on_c, 9, 38, 82
1, 8066, Note_off_c, 9, 38, 64
1, 8077, Note_off_c, 2, 61, 64
1, 8078, Note_off_c, 2, 65, 64
1, 8080, Note_off_c, 1, 39, 64
1, 8080, Note_off_c, 7, 63, 64
1, 8080, Note_off_c, 5, 63, 64
1, 8081, Note_off_c, 0, 39, 64
1, 8083, Note_off_c, 3, 56, 64
1, 8084, Note_off_c, 3, 58, 64
1, 8111, Note_on_c, 7, 65, 100
1, 8111, Note_on_c, 5, 65, 110
1, 8111, Note_on_c, 9, 38, 79
1, 8113, Note_off_c, 9, 38, 64
1, 8127, Note_off_c, 7, 65, 64
1, 8127, Note_off_c, 5, 65, 64
1, 8157, Note_on_c, 2, 67, 85
1, 8157, Note_on_c, 3, 58, 59
1, 8158, Note_on_c, 0, 44, 100
1, 8158, Note_on_c, 2, 63, 85
1, 8158, Note_on_c, 3, 60, 73
1, 8159, Note_on_c, 1, 32, 78
1, 8159, Note_on_c, 1, 44, 70
1, 8159, Note_on_c, 5, 58, 110
1, 8160, Note_on_c, 7, 58, 100
1, 8160, Note_on_c, 9, 38, 87
1, 8162, Note_off_c, 9, 38, 64
1, 8172, Note_off_c, 4, 75, 64
1, 8173, Note_off_c, 2, 63, 64
1, 8174, Note_off_c, 3, 58, 64
1, 8175, Note_off_c, 2, 67, 64
1, 8176, Note_off_c, 0, 44, 64
1, 8177, Note_off_c, 1, 32, 64
1, 8177, Note_off_c, 1, 44, 64
1, 8178, Note_off_c, 3, 60, 64
1, 8207, Note_on_c, 4, 70, 98
1, 8208, Note_on_c, 9, 38, 71
1, 8210, Note_off_c, 9, 38, 64
1, 8214, Control_c, 5, 11, 125
1, 8214, Control_c, 7, 11, 125
1, 8218, Control_c, 5, 11, 123
1, 8218, Control_c, 7, 11, 123
1, 8221, Control_c, 5, 11, 121
1, 8221, Control_c, 7, 11, 121
1, 8225, Control_c, 5, 11, 119
1, 8225, Control_c, 7, 11, 119
1, 8227, Note_off_c, 4, 70, 64
1, 8229, Control_c, 5, 11, 117
1, 8229, Control_c, 7, 11, 117
1, 8232, Note_on_c, 4, 72, 97
1, 8232, Note_on_c, 9, 38, 74
1, 8233, Control_c, 5, 11, 115
1, 8233, Control_c, 7, 11, 115
1, 8234, Note_off_c, 9, 38, 64
1, 8236, Control_c, 5, 11, 113
1, 8236, Control_c, 7, 11, 113
1, 8240, Control_c, 5, 11, 111
1, 8240, Control_c, 7, 11, 111
1, 8244, Control_c, 5, 11, 109
1, 8244, Control_c, 7, 11, 109
1, 8248, Control_c, 5, 11, 107
1, 8248, Control_c, 7, 11, 107
1, 8251, Control_c, 5, 11, 105
1, 8251, Control_c, 7, 11, 105
1, 8252, Note_off_c, 4, 72, 64
1, 8253, Note_on_c, 2, 61, 79
1, 8253, Note_on_c, 1, 39, 85
1, 8254, Note_on_c, 2, 65, 81
1, 8255, Control_c, 5, 11, 103
1, 8255, Note_on_c, 0, 39, 100
1, 8255, Control_c, 7, 11, 103
1, 8255, Note_on_c, 3, 58, 66
1, 8255, Note_on_c, 3, 56, 55
1, 8255, Note_on_c, 9, 38, 89
1, 8256, Note_on_c, 10, 51, 85
1, 8256, Note_on_c, 4, 73, 103
1, 8257, Note_off_c, 9, 38, 64
1, 8259, Control_c, 5, 11, 101
1, 8259, Control_c, 7, 11, 101
1, 8260, Note_off_c, 10, 51, 64
1, 8262, Control_c, 5, 11, 99
1, 8262, Control_c, 7, 11, 99
1, 8266, Control_c, 5, 11, 97
1, 8266, Control_c, 7, 11, 97
1, 8268, Note_off_c, 2, 61, 64
1, 8269, Note_off_c, 2, 65, 64
1, 8270, Note_off_c, 4, 73, 64
1, 8270, Control_c, 5, 11, 95
1, 8270, Control_c, 7, 11, 95
1, 8271, Note_off_c, 1, 39, 64
1, 8273, Note_off_c, 0, 39, 64
1, 8274, Control_c, 5, 11, 93
1, 8274, Control_c, 7, 11, 93
1, 8276, Note_off_c, 3, 56, 64
1, 8277, Control_c, 5, 11, 91
1, 8277, Control_c, 7, 11, 91
1, 8278, Note_off_c, 3, 58, 64
1, 8280, Note_on_c, 9, 38, 87
1, 8280, Note_on_c, 10, 51, 86
1, 8281, Control_c, 5, 11, 89
1, 8281, Control_c, 7, 11, 89
1, 8282, Note_off_c, 9, 38, 64
1, 8284, Note_off_c, 10, 51, 64
1, 8285, Control_c, 5, 11, 87
1, 8285, Control_c, 7, 11, 87
1, 8289, Control_c, 5, 11, 85
1, 8289, Control_c, 7, 11, 85
1, 8292, Control_c, 5, 11, 83
1, 8292, Control_c, 7, 11, 83
1, 8296, Control_c, 5, 11, 81
1, 8296, Control_c, 7, 11, 81
1, 8300, Control_c, 5, 11, 79
1, 8300, Control_c, 7, 11, 79
1, 8303, Note_on_c, 0, 39, 83
1, 8303, Note_on_c, 9, 38, 87
1, 8304, Control_c, 5, 11, 77
1, 8304, Note_on_c, 4, 73, 100
1, 8304, Control_c, 7, 11, 77
1, 8304, Note_on_c, 4, 77, 110
1, 8304, Note_on_c, 10, 51, 89
1, 8305, Note_off_c, 9, 38, 64
1, 8308, Note_off_c, 10, 51, 64
1, 8317, Note_off_c, 4, 73, 64
1, 8319, Note_off_c, 4, 77, 64
1, 8321, Note_off_c, 0, 39, 64
1, 8328, Note_on_c, 9, 38, 91
1, 8328, Note_on_c, 10, 51, 93
1, 8330, Note_off_c, 9, 38, 64
1, 8331, Note_off_c, 5, 58, 64
1, 8332, Note_off_c, 7, 58, 64
1, 8332, Note_off_c, 10, 51, 64
1, 8350, Control_c, 5, 11, 127
1, 8350, Note_on_c, 2, 60, 75
1, 8350, Control_c, 7, 11, 127
1, 8350, Note_on_c, 3, 55, 55
1, 8350, Note_on_c, 3, 56, 62
1, 8351, Note_on_c, 1, 44, 72
1, 8351, Note_on_c, 1, 32, 69
1, 8351, Note_on_c, 9, 38, 87
1, 8351, Note_on_c, 7, 56, 104
1, 8351, Note_on_c, 2, 63, 79
1, 8352, Note_on_c, 0, 44, 108
1, 8352, Note_on_c, 10, 44, 100
1, 8352, Note_on_c, 5, 56, 114
1, 8353, Note_off_c, 9, 38, 64
1, 8353, Note_on_c, 4, 72, 94
1, 8354, Note_on_c, 4, 75, 99
1, 8356, Note_off_c, 10, 44, 64
1, 8366, Note_off_c, 2, 63, 64
1, 8367, Note_off_c, 2, 60, 64
1, 8367, Note_off_c, 7, 56, 64
1, 8368, Note_off_c, 5, 56, 64
1, 8369, Note_off_c, 1, 44, 64
1, 8369, Note_off_c, 1, 32, 64
1, 8370, Note_off_c, 0, 44, 64
1, 8371, Note_off_c, 4, 72, 64
1, 8371, Note_off_c, 4, 75, 64
1, 8372, Note_off_c, 3, 56, 64
1, 8374, Note_off_c, 3, 55, 64
1, 8399, Note_on_c, 9, 38, 75
1, 8399, Note_on_c, 7, 53, 95
1, 8400, Note_on_c, 5, 53, 104
1, 8401, Note_off_c, 9, 38, 64
1, 8414, Note_off_c, 5, 53, 64
1, 8415, Note_off_c, 7, 53, 64
1, 8423, Note_on_c, 5, 56, 123
1, 8424, Note_on_c, 9, 38, 75
1, 8424, Note_on_c, 7, 56, 112
1, 8426, Note_off_c, 9, 38, 64
1, 8437, Note_off_c, 5, 56, 64
1, 8440, Note_off_c, 7, 56, 64
1, 8446, Note_on_c, 3, 56, 55
1, 8446, Note_on_c, 3, 58, 66
1, 8446, Note_on_c, 2, 65, 80
1, 8446, Note_on_c, 2, 61, 79
1, 8447, Note_on_c, 1, 39, 85
1, 8447, Note_on_c, 0, 39, 91
1, 8447, Note_on_c, 9, 38, 83
1, 8448, Note_on_c, 5, 58, 114
1, 8448, Note_on_c, 7, 58, 104
1, 8449, Note_off_c, 9, 38, 64
1, 8461, Note_off_c, 2, 61, 64
1, 8463, Note_off_c, 2, 65, 64
1, 8465, Note_off_c, 1, 39, 64
1, 8465, Note_off_c, 0, 39, 64
1, 8466, Note_off_c, 3, 56, 64
1, 8468, Note_off_c, 3, 58, 64
1, 8496, Note_on_c, 4, 75, 97
1, 8496, Note_on_c, 9, 38, 77
1, 8498, Note_off_c, 9, 38, 64
1, 8502, Control_c, 5, 11, 125
1, 8502, Control_c, 7, 11, 125
1, 8505, Control_c, 5, 11, 123
1, 8505, Control_c, 7, 11, 123
1, 8506, Note_off_c, 4, 75, 64
1, 8509, Control_c, 5, 11, 121
1, 8509, Control_c, 7, 11, 121
1, 8512, Control_c, 5, 11, 119
1, 8512, Control_c, 7, 11, 119
1, 8516, Control_c, 5, 11, 117
1, 8516, Control_c, 7, 11, 117
1, 8519, Control_c, 5, 11, 115
1, 8519, Control_c, 7, 11, 115
1, 8521, Note_on_c, 4, 75, 91
1, 8523, Control_c, 5, 11, 113
1, 8523, Control_c, 7, 11, 113
1, 8526, Control_c, 5, 11, 111
1, 8526, Control_c, 7, 11, 111
1, 8530, Control_c, 5, 11, 109
1, 8530, Control_c, 7, 11, 109
1, 8532, Note_off_c, 4, 75, 64
1, 8533, Control_c, 5, 11, 107
1, 8533, Control_c, 7, 11, 107
1, 8537, Control_c, 5, 11, 105
1, 8537, Control_c, 7, 11, 105
1, 8540, Control_c, 5, 11, 103
1, 8540, Control_c, 7, 11, 103
1, 8541, Note_on_c, 2, 63, 85
1, 8542, Note_on_c, 3, 58, 59
1, 8542, Note_on_c, 3, 60, 73
1, 8542, Note_on_c, 2, 67, 85
1, 8543, Note_on_c, 1, 44, 73
1, 8543, Note_on_c, 1, 32, 75
1, 8543, Note_on_c, 9, 38, 86
1, 8543, Note_on_c, 4, 75, 103
1, 8544, Control_c, 5, 11, 101
1, 8544, Note_on_c, 0, 44, 100
1, 8544, Control_c, 7, 11, 101
1, 8545, Note_off_c, 9, 38, 64
1, 8547, Control_c, 5, 11, 99
1, 8547, Control_c, 7, 11, 99
1, 8550, Control_c, 5, 11, 97
1, 8550, Control_c, 7, 11, 97
1, 8554, Control_c, 5, 11, 95
1, 8554, Control_c, 7, 11, 95
1, 8557, Note_off_c, 2, 63, 64
1, 8557, Control_c, 5, 11, 93
1, 8557, Control_c, 7, 11, 93
1, 8559, Note_off_c, 3, 58, 64
1, 8559, Note_off_c, 2, 67, 64
1, 8561, Note_off_c, 1, 44, 64
1, 8561, Note_off_c, 1, 32, 64
1, 8561, Control_c, 5, 11, 91
1, 8561, Control_c, 7, 11, 91
1, 8562, Note_off_c, 3, 60, 64
1, 8562, Note_off_c, 0, 44, 64
1, 8564, Control_c, 5, 11, 89
1, 8564, Control_c, 7, 11, 89
1, 8568, Control_c, 5, 11, 87
1, 8568, Control_c, 7, 11, 87
1, 8571, Control_c, 5, 11, 85
1, 8571, Control_c, 7, 11, 85
1, 8572, Note_off_c, 5, 58, 64
1, 8572, Note_off_c, 7, 58, 64
1, 8575, Control_c, 5, 11, 83
1, 8575, Control_c, 7, 11, 83
1, 8578, Control_c, 5, 11, 81
1, 8578, Control_c, 7, 11, 81
1, 8582, Control_c, 5, 11, 79
1, 8582, Control_c, 7, 11, 79
1, 8585, Control_c, 5, 11, 77
1, 8585, Control_c, 7, 11, 77
1, 8590, Control_c, 5, 11, 127
1, 8590, Control_c, 7, 11, 127
1, 8591, Note_on_c, 5, 51, 114
1, 8591, Note_on_c, 7, 51, 104
1, 8592, Note_on_c, 9, 38, 75
1, 8594, Note_off_c, 9, 38, 64
1, 8607, Note_off_c, 5, 51, 64
1, 8607, Note_off_c, 7, 51, 64
1, 8615, Note_on_c, 7, 53, 100
1, 8615, Note_on_c, 9, 38, 68
1, 8616, Note_on_c, 5, 53, 110
1, 8617, Note_off_c, 9, 38, 64
1, 8631, Note_off_c, 7, 53, 64
1, 8632, Note_off_c, 5, 53, 64
1, 8637, Note_on_c, 2, 65, 81
1, 8638, Note_on_c, 2, 61, 79
1, 8639, Note_on_c, 3, 56, 55
1, 8639, Note_on_c, 3, 58, 66
1, 8639, Note_on_c, 1, 39, 85
1, 8639, Note_on_c, 7, 56, 104
1, 8639, Note_on_c, 9, 38, 87
1, 8640, Note_on_c, 10, 51, 85
1, 8640, Note_on_c, 0, 39, 87
1, 8640, Note_on_c, 5, 56, 114
1, 8641, Note_off_c, 9, 38, 64
1, 8644, Note_off_c, 10, 51, 64
1, 8652, Note_off_c, 2, 65, 64
1, 8652, Note_off_c, 2, 61, 64
1, 8655, Note_off_c, 7, 56, 64
1, 8656, Note_off_c, 5, 56, 64
1, 8657, Note_off_c, 1, 39, 64
1, 8659, Note_off_c, 0, 39, 64
1, 8660, Note_off_c, 3, 56, 64
1, 8661, Note_off_c, 3, 58, 64
1, 8664, Note_on_c, 9, 38, 87
1, 8664, Note_on_c, 10, 51, 86
1, 8666, Note_off_c, 9, 38, 64
1, 8668, Note_off_c, 10, 51, 64
1, 8687, Note_on_c, 5, 58, 123
1, 8688, Note_on_c, 7, 58, 112
1, 8688, Note_on_c, 9, 38, 87
1, 8688, Note_on_c, 10, 51, 89
1, 8689, Note_on_c, 0, 39, 79
1, 8690, Note_off_c, 9, 38, 64
1, 8692, Note_off_c, 10, 51, 64
1, 8703, Note_off_c, 5, 58, 64
1, 8704, Note_off_c, 7, 58, 64
1, 8709, Note_off_c, 0, 39, 64
1, 8711, Note_on_c, 9, 38, 94
1, 8712, Note_on_c, 10, 51, 93
1, 8713, Note_off_c, 9, 38, 64
1, 8716, Note_off_c, 10, 51, 64
1, 8734, Note_on_c, 2, 60, 75
1, 8734, Note_on_c, 3, 55, 55
1, 8734, Note_on_c, 3, 56, 62
1, 8735, Note_on_c, 1, 32, 78
1, 8735, Note_on_c, 1, 44, 75
1, 8735, Note_on_c, 7, 63, 112
1, 8735, Note_on_c, 9, 38, 85
1, 8735, Note_on_c, 2, 63, 79
1, 8736, Note_on_c, 5, 63, 123
1, 8736, Note_on_c, 0, 44, 100
1, 8736, Note_on_c, 10, 44, 100
1, 8737, Note_off_c, 9, 38, 64
1, 8740, Note_off_c, 10, 44, 64
1, 8742, Note_off_c, 4, 75, 64
1, 8750, Note_off_c, 2, 63, 64
1, 8751, Note_off_c, 2, 60, 64
1, 8751, Note_off_c, 7, 63, 64
1, 8752, Note_off_c, 5, 63, 64
1, 8753, Note_off_c, 1, 32, 64
1, 8753, Note_off_c, 1, 44, 64
1, 8754, Note_off_c, 0, 44, 64
1, 8756, Note_off_c, 3, 56, 64
1, 8758, Note_off_c, 3, 55, 64
1, 8783, Note_on_c, 7, 65, 100
1, 8783, Note_on_c, 9, 38, 70
1, 8784, Note_on_c, 5, 65, 110
1, 8785, Note_off_c, 9, 38, 64
1, 8799, Note_off_c, 7, 65, 64
1, 8800, Note_off_c, 5, 65, 64
1, 8807, Note_on_c, 7, 60, 97
1, 8807, Note_on_c, 9, 38, 74
1, 8808, Note_on_c, 5, 60, 107
1, 8809, Note_off_c, 9, 38, 64
1, 8823, Note_off_c, 7, 60, 64
1, 8824, Note_off_c, 5, 60, 64
1, 8830, Note_on_c, 3, 56, 66
1, 8830, Note_on_c, 3, 55, 55
1, 8830, Note_on_c, 2, 60, 79
1, 8830, Note_on_c, 2, 63, 80
1, 8831, Note_on_c, 1, 44, 70
1, 8831, Note_on_c, 1, 32, 78
1, 8831, Note_on_c, 7, 63, 100
1, 8831, Note_on_c, 5, 63, 110
1, 8832, Note_on_c, 0, 44, 104
1, 8832, Note_on_c, 9, 38, 87
1, 8834, Note_off_c, 9, 38, 64
1, 8845, Note_off_c, 2, 60, 64
1, 8847, Note_off_c, 2, 63, 64
1, 8847, Note_off_c, 7, 63, 64
1, 8847, Note_off_c, 5, 63, 64
1, 8849, Note_off_c, 1, 44, 64
1, 8849, Note_off_c, 1, 32, 64
1, 8850, Note_off_c, 3, 55, 64
1, 8850, Note_off_c, 0, 44, 64
1, 8852, Note_off_c, 3, 56, 64
1, 8879, Note_on_c, 7, 65, 95
1, 8879, Note_on_c, 5, 65, 104
1, 8880, Note_on_c, 9, 38, 80
1, 8882, Note_off_c, 9, 38, 64
1, 8895, Note_off_c, 7, 65, 64
1, 8895, Note_off_c, 5, 65, 64
1, 8925, Note_on_c, 2, 58, 85
1, 8926, Note_on_c, 3, 54, 59
1, 8926, Note_on_c, 1, 39, 81
1, 8926, Note_on_c, 2, 61, 85
1, 8927, Note_on_c, 0, 39, 89
1, 8927, Note_on_c, 5, 68, 118
1, 8927, Note_on_c, 9, 38, 87
1, 8928, Note_on_c, 7, 68, 107
1, 8929, Note_off_c, 9, 38, 64
1, 8941, Note_off_c, 2, 61, 64
1, 8943, Note_off_c, 2, 58, 64
1, 8943, Note_off_c, 3, 54, 64
1, 8945, Note_off_c, 1, 39, 64
1, 8945, Note_off_c, 0, 39, 64
1, 8975, Note_on_c, 9, 38, 73
1, 8977, Note_off_c, 9, 38, 64
1, 8982, Control_c, 5, 11, 125
1, 8982, Control_c, 7, 11, 125
1, 8986, Control_c, 5, 11, 123
1, 8986, Control_c, 7, 11, 123
1, 8989, Control_c, 5, 11, 121
1, 8989, Control_c, 7, 11, 121
1, 8993, Control_c, 5, 11, 119
1, 8993, Control_c, 7, 11, 119
1, 8997, Control_c, 5, 11, 117
1, 8997, Control_c, 7, 11, 117
1, 9000, Note_on_c, 9, 38, 66
1, 9001, Control_c, 5, 11, 115
1, 9001, Control_c, 7, 11, 115
1, 9002, Note_off_c, 9, 38, 64
1, 9004, Control_c, 5, 11, 113
1, 9004, Control_c, 7, 11, 113
1, 9008, Control_c, 5, 11, 111
1, 9008, Control_c, 7, 11, 111
1, 9012, Control_c, 5, 11, 109
1, 9012, Control_c, 7, 11, 109
1, 9016, Control_c, 5, 11, 107
1, 9016, Control_c, 7, 11, 107
1, 9019, Control_c, 5, 11, 105
1, 9019, Control_c, 7, 11, 105
1, 9022, Note_on_c, 2, 57, 79
1, 9022, Note_on_c, 2, 60, 81
1, 9023, Control_c, 5, 11, 103
1, 9023, Note_on_c, 3, 54, 55
1, 9023, Control_c, 7, 11, 103
1, 9023, Note_on_c, 1, 38, 83
1, 9023, Note_on_c, 9, 38, 89
1, 9024, Note_on_c, 0, 38, 81
1, 9025, Note_off_c, 9, 38, 64
1, 9027, Control_c, 5, 11, 101
1, 9027, Control_c, 7, 11, 101
1, 9030, Control_c, 5, 11, 99
1, 9030, Control_c, 7, 11, 99
1, 9034, Control_c, 5, 11, 97
1, 9034, Control_c, 7, 11, 97
1, 9036, Note_off_c, 2, 57, 64
1, 9037, Note_off_c, 2, 60, 64
1, 9038, Control_c, 5, 11, 95
1, 9038, Control_c, 7, 11, 95
1, 9041, Note_off_c, 1, 38, 64
1, 9042, Control_c, 5, 11, 93
1, 9042, Control_c, 7, 11, 93
1, 9044, Note_off_c, 3, 54, 64
1, 9044, Note_off_c, 0, 38, 64
1, 9045, Control_c, 5, 11, 91
1, 9045, Control_c, 7, 11, 91
1, 9047, Note_on_c, 9, 38, 89
1, 9049, Control_c, 5, 11, 89
1, 9049, Note_off_c, 9, 38, 64
1, 9049, Control_c, 7, 11, 89
1, 9053, Control_c, 5, 11, 87
1, 9053, Control_c, 7, 11, 87
1, 9057, Control_c, 5, 11, 85
1, 9057, Control_c, 7, 11, 85
1, 9060, Control_c, 5, 11, 83
1, 9060, Control_c, 7, 11, 83
1, 9064, Control_c, 5, 11, 81
1, 9064, Control_c, 7, 11, 81
1, 9068, Control_c, 5, 11, 79
1, 9068, Control_c, 7, 11, 79
1, 9071, Note_on_c, 9, 38, 92
1, 9072, Control_c, 5, 11, 77
1, 9072, Control_c, 7, 11, 77
1, 9073, Note_off_c, 9, 38, 64
1, 9095, Note_on_c, 9, 38, 93
1, 9097, Note_off_c, 9, 38, 64
1, 9103, Note_off_c, 5, 68, 64
1, 9104, Note_off_c, 7, 68, 64
1, 9120, Control_c, 5, 11, 127
1, 9120, Note_on_c, 4, 68, 111
1, 9120, Control_c, 7, 11, 127
1, 9135, Note_off_c, 4, 68, 64
1, 9172, Note_on_c, 4, 65, 100
1, 9188, Note_off_c, 4, 65, 64
1, 9195, Note_on_c, 4, 68, 105
1, 9209, Note_off_c, 4, 68, 64
1, 9215, Note_on_c, 2, 84, 97
1, 9215, Note_on_c, 3, 58, 79
1, 9215, Note_on_c, 3, 63, 79
1, 9215, Note_on_c, 3, 53, 78
1, 9215, Note_on_c, 1, 37, 91
1, 9216, Note_on_c, 0, 37, 94
1, 9216, Note_on_c, 7, 65, 79
1, 9216, Note_on_c, 4, 70, 113
1, 9217, Note_on_c, 5, 63, 85
1, 9217, Note_on_c, 5, 58, 75
1, 9239, Note_off_c, 2, 84, 64
1, 9256, Note_off_c, 3, 58, 64
1, 9257, Note_off_c, 3, 63, 64
1, 9257, Note_off_c, 0, 37, 64
1, 9258, Note_off_c, 3, 53, 64
1, 9263, Note_off_c, 7, 65, 64
1, 9263, Note_on_c, 2, 85, 91
1, 9269, Note_off_c, 1, 37, 64
1, 9281, Note_off_c, 5, 58, 64
1, 9286, Note_off_c, 5, 63, 64
1, 9287, Note_off_c, 2, 85, 64
1, 9287, Note_on_c, 2, 84, 85
1, 9311, Note_off_c, 2, 84, 64
1, 9311, Note_on_c, 1, 42, 81
1, 9311, Note_on_c, 2, 82, 80
1, 9312, Note_on_c, 3, 58, 65
1, 9312, Note_on_c, 3, 63, 69
1, 9312, Note_on_c, 3, 52, 72
1, 9313, Note_on_c, 0, 42, 85
1, 9313, Note_on_c, 7, 64, 76
1, 9314, Note_on_c, 5, 58, 73
1, 9314, Note_on_c, 5, 63, 81
1, 9330, Note_off_c, 4, 70, 64
1, 9361, Note_on_c, 4, 75, 107
1, 9381, Note_off_c, 4, 75, 64
1, 9384, Note_on_c, 4, 73, 105
1, 9407, Note_off_c, 4, 73, 64
1, 9407, Note_on_c, 4, 70, 96
1, 9427, Note_off_c, 4, 70, 64
1, 9456, Note_on_c, 4, 68, 94
1, 9462, Note_off_c, 7, 64, 64
1, 9476, Note_off_c, 4, 68, 64
1, 9480, Note_off_c, 3, 58, 64
1, 9480, Note_off_c, 3, 63, 64
1, 9484, Note_off_c, 1, 42, 64
1, 9486, Note_off_c, 3, 52, 64
1, 9498, Note_off_c, 0, 42, 64
1, 9503, Note_off_c, 2, 82, 64
1, 9504, Note_on_c, 4, 66, 110
1, 9517, Note_off_c, 5, 58, 64
1, 9519, Note_off_c, 5, 63, 64
1, 9519, Note_off_c, 4, 66, 64
1, 9556, Note_on_c, 4, 63, 100
1, 9572, Note_off_c, 4, 63, 64
1, 9579, Note_on_c, 4, 66, 105
1, 9593, Note_off_c, 4, 66, 64
1, 9599, Note_on_c, 1, 35, 79
1, 9599, Note_on_c, 2, 82, 85
1, 9599, Note_on_c, 3, 61, 79
1, 9599, Note_on_c, 3, 51, 75
1, 9599, Note_on_c, 3, 56, 79
1, 9599, Note_on_c, 0, 35, 91
1, 9600, Note_on_c, 7, 63, 75
1, 9600, Note_on_c, 4, 68, 113
1, 9601, Note_on_c, 5, 61, 78
1, 9601, Note_on_c, 5, 56, 67
1, 9623, Note_off_c, 2, 82, 64
1, 9626, Note_off_c, 1, 35, 64
1, 9632, Note_off_c, 0, 35, 64
1, 9637, Note_off_c, 3, 56, 64
1, 9642, Note_off_c, 3, 51, 64
1, 9643, Note_off_c, 3, 61, 64
1, 9647, Note_on_c, 2, 83, 76
1, 9650, Note_off_c, 7, 63, 64
1, 9669, Note_off_c, 5, 61, 64
1, 9669, Note_off_c, 5, 56, 64
1, 9671, Note_off_c, 2, 83, 64
1, 9671, Note_on_c, 2, 82, 79
1, 9695, Note_off_c, 2, 82, 64
1, 9695, Note_on_c, 2, 80, 85
1, 9696, Note_on_c, 1, 40, 85
1, 9696, Note_on_c, 3, 56, 69
1, 9696, Note_on_c, 3, 61, 65
1, 9696, Note_on_c, 3, 50, 72
1, 9697, Note_on_c, 0, 40, 85
1, 9697, Note_on_c, 7, 62, 76
1, 9697, Note_on_c, 5, 56, 69
1, 9697, Note_on_c, 5, 61, 78
1, 9743, Note_off_c, 2, 80, 64
1, 9767, Note_on_c, 2, 80, 85
1, 9791, Note_off_c, 2, 80, 64
1, 9791, Note_on_c, 2, 82, 89
1, 9831, Note_off_c, 2, 82, 64
1, 9839, Note_on_c, 2, 83, 87
1, 9847, Note_off_c, 7, 62, 64
1, 9850, Note_off_c, 4, 68, 64
1, 9868, Note_off_c, 1, 40, 64
1, 9872, Note_off_c, 0, 40, 64
1, 9879, Note_off_c, 2, 83, 64
1, 9882, Note_off_c, 3, 56, 64
1, 9884, Note_off_c, 3, 61, 64
1, 9884, Note_off_c, 3, 50, 64
1, 9887, Note_off_c, 5, 56, 64
1, 9887, Note_off_c, 5, 61, 64
1, 9887, Note_on_c, 2, 84, 90
1, 9888, Note_on_c, 4, 68, 109
1, 9902, Note_off_c, 4, 68, 64
1, 9935, Note_off_c, 2, 84, 64
1, 9936, Note_on_c, 4, 65, 100
1, 9952, Note_off_c, 4, 65, 64
1, 9958, Note_on_c, 4, 68, 105
1, 9970, Note_off_c, 4, 68, 64
1, 9976, Note_on_c, 13, 51, 51
1, 9980, Note_on_c, 4, 70, 110
1, 9984, Note_off_c, 13, 51, 64
1, 9984, Note_on_c, 6, 63, 56
1, 9984, Note_on_c, 8, 75, 56
1, 9984, Note_on_c, 13, 53, 53
1, 9992, Note_off_c, 13, 53, 64
1, 9992, Note_on_c, 13, 55, 58
1, 10000, Note_off_c, 6, 63, 64
1, 10000, Note_off_c, 8, 75, 64
1, 10000, Note_off_c, 13, 55, 64
1, 10000, Note_on_c, 6, 65, 62
1, 10000, Note_on_c, 8, 77, 62
1, 10000, Note_on_c, 13, 56, 55
1, 10008, Note_off_c, 13, 56, 64
1, 10008, Note_on_c, 13, 58, 52
1, 10016, Note_off_c, 6, 65, 64
1, 10016, Note_off_c, 8, 77, 64
1, 10016, Note_off_c, 13, 58, 64
1, 10016, Note_on_c, 6, 67, 62
1, 10016, Note_on_c, 8, 79, 62
1, 10016, Note_on_c, 13, 60, 58
1, 10024, Note_off_c, 13, 60, 64
1, 10024, Note_on_c, 13, 61, 50
1, 10032, Note_off_c, 6, 67, 64
1, 10032, Note_off_c, 8, 79, 64
1, 10032, Note_off_c, 13, 61, 64
1, 10032, Note_on_c, 10, 51, 91
1, 10032, Note_on_c, 9, 38, 89
1, 10032, Note_on_c, 6, 68, 73
1, 10032, Note_on_c, 8, 80, 73
1, 10032, Note_on_c, 13, 63, 59
1, 10034, Note_off_c, 9, 38, 64
1, 10036, Note_off_c, 10, 51, 64
1, 10040, Note_off_c, 13, 63, 64
1, 10040, Note_on_c, 13, 65, 56
1, 10044, Note_off_c, 6, 68, 64
1, 10044, Note_off_c, 8, 80, 64
1, 10044, Note_on_c, 6, 70, 73
1, 10044, Note_on_c, 8, 82, 73
1, 10048, Note_off_c, 13, 65, 64
1, 10048, Note_on_c, 13, 67, 58
1, 10056, Note_off_c, 6, 70, 64
1, 10056, Note_off_c, 8, 82, 64
1, 10056, Note_off_c, 13, 67, 64
1, 10056, Note_on_c, 10, 51, 97
1, 10056, Note_on_c, 9, 38, 86
1, 10056, Note_on_c, 6, 72, 69
1, 10056, Note_on_c, 8, 84, 69
1, 10056, Note_on_c, 13, 68, 59
1, 10058, Note_off_c, 9, 38, 64
1, 10060, Note_off_c, 10, 51, 64
1, 10064, Note_off_c, 13, 68, 64
1, 10064, Note_on_c, 13, 70, 59
1, 10068, Note_off_c, 6, 72, 64
1, 10068, Note_off_c, 8, 84, 64
1, 10068, Note_on_c, 6, 73, 78
1, 10068, Note_on_c, 8, 85, 78
1, 10072, Note_off_c, 13, 70, 64
1, 10072, Note_on_c, 13, 72, 59
1, 10076, Note_on_c, 1, 39, 83
1, 10079, Note_on_c, 5, 56, 100
1, 10079, Note_on_c, 5, 60, 97
1, 10080, Note_off_c, 6, 73, 64
1, 10080, Note_off_c, 8, 85, 64
1, 10080, Note_off_c, 13, 72, 64
1, 10080, Note_on_c, 0, 39, 113
1, 10080, Note_on_c, 7, 63, 91
1, 10080, Note_on_c, 10, 51, 100
1, 10080, Note_on_c, 9, 38, 87
1, 10080, Note_on_c, 6, 75, 70
1, 10080, Note_on_c, 8, 87, 70
1, 10080, Note_on_c, 13, 73, 62
1, 10082, Note_off_c, 9, 38, 64
1, 10084, Note_off_c, 10, 51, 64
1, 10088, Note_off_c, 13, 73, 64
1, 10088, Note_on_c, 13, 75, 54
1, 10090, Note_off_c, 4, 70, 64
1, 10092, Note_off_c, 6, 75, 64
1, 10092, Note_off_c, 8, 87, 64
1, 10092, Note_on_c, 6, 77, 73
1, 10092, Note_on_c, 8, 89, 73
1, 10096, Note_off_c, 13, 75, 64
1, 10100, Note_off_c, 1, 39, 64
1, 10104, Note_off_c, 6, 77, 64
1, 10104, Note_off_c, 8, 89, 64
1, 10104, Note_on_c, 6, 75, 70
1, 10104, Note_on_c, 8, 87, 70
1, 10110, Note_off_c, 5, 56, 64
1, 10111, Note_off_c, 7, 63, 64
1, 10112, Note_off_c, 5, 60, 64
1, 10116, Note_off_c, 6, 75, 64
1, 10116, Note_off_c, 8, 87, 64
1, 10116, Note_on_c, 6, 77, 69
1, 10116, Note_on_c, 8, 89, 69
1, 10125, Note_off_c, 0, 39, 64
1, 10128, Note_off_c, 6, 77, 64
1, 10128, Note_off_c, 8, 89, 64
1, 10128, Note_on_c, 6, 75, 69
1, 10128, Note_on_c, 8, 87, 69
1, 10130, Note_on_c, 4, 63, 96
1, 10140, Note_off_c, 6, 75, 64
1, 10140, Note_off_c, 8, 87, 64
1, 10140, Note_on_c, 6, 77, 66
1, 10140, Note_on_c, 8, 89, 66
1, 10146, Note_off_c, 4, 63, 64
1, 10152, Note_off_c, 6, 77, 64
1, 10152, Note_off_c, 8, 89, 64
1, 10152, Note_on_c, 6, 75, 72
1, 10152, Note_on_c, 8, 87, 72
1, 10153, Note_on_c, 4, 65, 101
1, 10164, Note_off_c, 6, 75, 64
1, 10164, Note_off_c, 8, 87, 64
1, 10164, Note_on_c, 6, 77, 65
1, 10164, Note_on_c, 8, 89, 65
1, 10168, Note_off_c, 4, 65, 64
1, 10175, Note_on_c, 4, 68, 106
1, 10176, Note_off_c, 6, 77, 64
1, 10176, Note_off_c, 8, 89, 64
1, 10176, Note_on_c, 6, 75, 67
1, 10176, Note_on_c, 8, 87, 67
1, 10188, Note_off_c, 6, 75, 64
1, 10188, Note_off_c, 8, 87, 64
1, 10188, Note_on_c, 6, 77, 67
1, 10188, Note_on_c, 8, 89, 67
1, 10191, Note_off_c, 4, 68, 64
1, 10200, Note_off_c, 6, 77, 64
1, 10200, Note_off_c, 8, 89, 64
1, 10200, Note_on_c, 6, 75, 70
1, 10200, Note_on_c, 8, 87, 70
1, 10212, Note_off_c, 6, 75, 64
1, 10212, Note_off_c, 8, 87, 64
1, 10212, Note_on_c, 6, 77, 69
1, 10212, Note_on_c, 8, 89, 69
1, 10224, Note_off_c, 6, 77, 64
1, 10224, Note_off_c, 8, 89, 64
1, 10224, Note_on_c, 4, 70, 108
1, 10224, Note_on_c, 6, 75, 66
1, 10224, Note_on_c, 8, 87, 66
1, 10236, Note_off_c, 6, 75, 64
1, 10236, Note_off_c, 8, 87, 64
1, 10236, Note_on_c, 6, 77, 65
1, 10236, Note_on_c, 8, 89, 65
1, 10240, Note_off_c, 4, 70, 64
1, 10248, Note_off_c, 6, 77, 64
1, 10248, Note_off_c, 8, 89, 64
1, 10248, Note_on_c, 6, 75, 65
1, 10248, Note_on_c, 8, 87, 65
1, 10260, Note_off_c, 6, 75, 64
1, 10260, Note_off_c, 8, 87, 64
1, 10260, Note_on_c, 6, 77, 62
1, 10260, Note_on_c, 8, 89, 62
1, 10272, Note_off_c, 6, 77, 64
1, 10272, Note_off_c, 8, 89, 64
1, 10272, Note_on_c, 4, 71, 111
1, 10285, Note_off_c, 4, 71, 64
1, 10320, Note_on_c, 4, 68, 99
1, 10335, Note_off_c, 4, 68, 64
1, 10344, Note_on_c, 4, 71, 105
1, 10356, Note_off_c, 4, 71, 64
1, 10360, Note_on_c, 13, 54, 59
1, 10366, Note_on_c, 4, 73, 110
1, 10368, Note_off_c, 13, 54, 64
1, 10368, Note_on_c, 6, 66, 70
1, 10368, Note_on_c, 8, 78, 70
1, 10368, Note_on_c, 13, 56, 55
1, 10376, Note_off_c, 13, 56, 64
1, 10376, Note_on_c, 13, 58, 57
1, 10384, Note_off_c, 6, 66, 64
1, 10384, Note_off_c, 8, 78, 64
1, 10384, Note_off_c, 13, 58, 64
1, 10384, Note_on_c, 6, 68, 72
1, 10384, Note_on_c, 8, 80, 72
1, 10384, Note_on_c, 13, 59, 59
1, 10392, Note_off_c, 13, 59, 64
1, 10392, Note_on_c, 13, 61, 60
1, 10400, Note_off_c, 6, 68, 64
1, 10400, Note_off_c, 8, 80, 64
1, 10400, Note_off_c, 13, 61, 64
1, 10400, Note_on_c, 6, 70, 76
1, 10400, Note_on_c, 8, 82, 76
1, 10400, Note_on_c, 13, 63, 68
1, 10408, Note_off_c, 13, 63, 64
1, 10408, Note_on_c, 13, 64, 65
1, 10415, Note_on_c, 9, 38, 84
1, 10416, Note_off_c, 6, 70, 64
1, 10416, Note_off_c, 8, 82, 64
1, 10416, Note_off_c, 13, 64, 64
1, 10416, Note_on_c, 10, 43, 91
1, 10416, Note_on_c, 6, 71, 66
1, 10416, Note_on_c, 8, 83, 66
1, 10416, Note_on_c, 13, 66, 59
1, 10417, Note_off_c, 9, 38, 64
1, 10420, Note_off_c, 10, 43, 64
1, 10424, Note_off_c, 13, 66, 64
1, 10424, Note_on_c, 13, 68, 65
1, 10428, Note_off_c, 6, 71, 64
1, 10428, Note_off_c, 8, 83, 64
1, 10428, Note_on_c, 6, 73, 75
1, 10428, Note_on_c, 8, 85, 75
1, 10432, Note_off_c, 13, 68, 64
1, 10432, Note_on_c, 13, 70, 68
1, 10439, Note_on_c, 9, 38, 82
1, 10440, Note_off_c, 6, 73, 64
1, 10440, Note_off_c, 8, 85, 64
1, 10440, Note_off_c, 13, 70, 64
1, 10440, Note_on_c, 10, 43, 95
1, 10440, Note_on_c, 6, 75, 79
1, 10440, Note_on_c, 8, 87, 79
1, 10440, Note_on_c, 13, 71, 68
1, 10441, Note_off_c, 9, 38, 64
1, 10444, Note_off_c, 10, 43, 64
1, 10448, Note_off_c, 13, 71, 64
1, 10448, Note_on_c, 13, 73, 71
1, 10452, Note_off_c, 6, 75, 64
1, 10452, Note_off_c, 8, 87, 64
1, 10452, Note_on_c, 6, 76, 78
1, 10452, Note_on_c, 8, 88, 78
1, 10456, Note_off_c, 13, 73, 64
1, 10456, Note_on_c, 13, 75, 70
1, 10461, Note_on_c, 1, 42, 89
1, 10463, Note_on_c, 5, 59, 100
1, 10463, Note_on_c, 5, 63, 91
1, 10463, Note_on_c, 9, 38, 88
1, 10464, Note_off_c, 6, 76, 64
1, 10464, Note_off_c, 8, 88, 64
1, 10464, Note_off_c, 13, 75, 64
1, 10464, Note_on_c, 0, 42, 113
1, 10464, Note_on_c, 7, 66, 90
1, 10464, Note_on_c, 10, 43, 104
1, 10464, Note_on_c, 6, 78, 77
1, 10464, Note_on_c, 8, 90, 67
1, 10464, Note_on_c, 13, 76, 71
1, 10465, Note_off_c, 9, 38, 64
1, 10468, Note_off_c, 10, 43, 64
1, 10469, Note_off_c, 4, 73, 64
1, 10472, Note_off_c, 13, 76, 64
1, 10472, Note_on_c, 13, 78, 73
1, 10476, Note_off_c, 6, 78, 64
1, 10476, Note_off_c, 8, 90, 64
1, 10476, Note_on_c, 6, 80, 83
1, 10476, Note_on_c, 8, 92, 73
1, 10480, Note_off_c, 13, 78, 64
1, 10488, Note_off_c, 6, 80, 64
1, 10488, Note_off_c, 8, 92, 64
1, 10488, Note_on_c, 6, 78, 77
1, 10488, Note_on_c, 8, 90, 67
1, 10499, Note_off_c, 7, 66, 64
1, 10500, Note_off_c, 1, 42, 64
1, 10500, Note_off_c, 6, 78, 64
1, 10500, Note_off_c, 8, 90, 64
1, 10500, Note_on_c, 6, 80, 76
1, 10500, Note_on_c, 8, 92, 66
1, 10505, Note_off_c, 0, 42, 64
1, 10511, Note_off_c, 5, 59, 64
1, 10511, Note_off_c, 5, 63, 64
1, 10511, Note_on_c, 4, 66, 100
1, 10512, Note_off_c, 6, 80, 64
1, 10512, Note_off_c, 8, 92, 64
1, 10512, Note_on_c, 6, 78, 72
1, 10512, Note_on_c, 8, 90, 62
1, 10524, Note_off_c, 6, 78, 64
1, 10524, Note_off_c, 8, 90, 64
1, 10524, Note_on_c, 6, 80, 79
1, 10524, Note_on_c, 8, 92, 69
1, 10528, Note_off_c, 4, 66, 64
1, 10535, Note_on_c, 4, 68, 107
1, 10536, Note_off_c, 6, 80, 64
1, 10536, Note_off_c, 8, 92, 64
1, 10536, Note_on_c, 6, 78, 82
1, 10536, Note_on_c, 8, 90, 72
1, 10548, Note_off_c, 6, 78, 64
1, 10548, Note_off_c, 8, 90, 64
1, 10548, Note_on_c, 6, 80, 75
1, 10548, Note_on_c, 8, 92, 65
1, 10552, Note_off_c, 4, 68, 64
1, 10560, Note_off_c, 6, 80, 64
1, 10560, Note_off_c, 8, 92, 64
1, 10560, Note_on_c, 6, 78, 73
1, 10560, Note_on_c, 8, 90, 63
1, 10561, Note_on_c, 4, 71, 111
1, 10572, Note_off_c, 6, 78, 64
1, 10572, Note_off_c, 8, 90, 64
1, 10572, Note_on_c, 6, 80, 72
1, 10572, Note_on_c, 8, 92, 62
1, 10577, Note_off_c, 4, 71, 64
1, 10584, Note_off_c, 6, 80, 64
1, 10584, Note_off_c, 8, 92, 64
1, 10584, Note_on_c, 6, 78, 71
1, 10584, Note_on_c, 8, 90, 61
1, 10596, Note_off_c, 6, 78, 64
1, 10596, Note_off_c, 8, 90, 64
1, 10596, Note_on_c, 6, 80, 71
1, 10596, Note_on_c, 8, 92, 61
1, 10608, Note_off_c, 6, 80, 64
1, 10608, Note_off_c, 8, 92, 64
1, 10608, Note_on_c, 4, 73, 114
1, 10608, Note_on_c, 6, 78, 73
1, 10608, Note_on_c, 8, 90, 63
1, 10620, Note_off_c, 6, 78, 64
1, 10620, Note_off_c, 8, 90, 64
1, 10620, Note_on_c, 6, 80, 71
1, 10620, Note_on_c, 8, 92, 61
1, 10624, Note_off_c, 4, 73, 64
1, 10632, Note_off_c, 6, 80, 64
1, 10632, Note_off_c, 8, 92, 64
1, 10632, Note_on_c, 6, 78, 71
1, 10632, Note_on_c, 8, 90, 61
1, 10644, Note_off_c, 6, 78, 64
1, 10644, Note_off_c, 8, 90, 64
1, 10644, Note_on_c, 6, 80, 70
1, 10644, Note_on_c, 8, 92, 60
1, 10655, Note_on_c, 9, 38, 82
1, 10656, Note_off_c, 6, 80, 64
1, 10656, Note_off_c, 8, 92, 64
1, 10656, Note_on_c, 7, 68, 89
1, 10656, Note_on_c, 4, 73, 100
1, 10656, Note_on_c, 4, 70, 97
1, 10657, Note_off_c, 9, 38, 64
1, 10657, Note_on_c, 4, 75, 113
1, 10672, Note_off_c, 4, 73, 64
1, 10672, Note_off_c, 4, 70, 64
1, 10673, Note_off_c, 4, 75, 64
1, 10674, Note_off_c, 7, 68, 64
1, 10704, Note_on_c, 9, 38, 85
1, 10704, Note_on_c, 7, 68, 85
1, 10705, Note_on_c, 4, 75, 113
1, 10705, Note_on_c, 4, 73, 109
1, 10705, Note_on_c, 4, 70, 100
1, 10706, Note_off_c, 9, 38, 64
1, 10721, Note_off_c, 4, 70, 64
1, 10722, Note_off_c, 7, 68, 64
1, 10722, Note_off_c, 4, 75, 64
1, 10722, Note_off_c, 4, 73, 64
1, 10799, Note_on_c, 1, 34, 79
1, 10800, Note_on_c, 0, 34, 113
1, 10801, Note_on_c, 5, 46, 113
1, 10801, Note_on_c, 9, 36, 88
1, 10801, Note_on_c, 9, 59, 99
1, 10803, Note_off_c, 9, 36, 64
1, 10803, Note_off_c, 9, 59, 64
1, 10864, Note_off_c, 1, 34, 64
1, 10874, Note_off_c, 0, 34, 64
1, 10878, Note_off_c, 5, 46, 64
1, 10893, Note_on_c, 1, 36, 90
1, 10895, Note_on_c, 5, 48, 105
1, 10895, Note_on_c, 9, 38, 75
1, 10896, Note_on_c, 0, 36, 93
1, 10897, Note_off_c, 9, 38, 64
1, 10910, Note_off_c, 1, 36, 64
1, 10911, Note_off_c, 5, 48, 64
1, 10914, Note_off_c, 0, 36, 64
1, 10943, Note_on_c, 1, 37, 95
1, 10943, Note_on_c, 9, 38, 86
1, 10944, Note_on_c, 5, 49, 108
1, 10944, Note_on_c, 0, 37, 104
1, 10945, Note_off_c, 9, 38, 64
1, 10960, Note_off_c, 5, 49, 64
1, 10960, Note_off_c, 0, 37, 64
1, 10962, Note_off_c, 1, 37, 64
1, 10991, Note_on_c, 1, 41, 89
1, 10991, Note_on_c, 0, 41, 100
1, 10992, Note_on_c, 9, 38, 88
1, 10992, Note_on_c, 5, 53, 107
1, 10994, Note_off_c, 9, 38, 64
1, 11008, Note_off_c, 5, 53, 64
1, 11009, Note_off_c, 0, 41, 64
1, 11012, Note_off_c, 1, 41, 64
1, 11039, Note_on_c, 7, 67, 91
1, 11039, Note_on_c, 9, 38, 84
1, 11040, Note_on_c, 4, 73, 100
1, 11040, Note_on_c, 4, 70, 97
1, 11040, Note_on_c, 5, 51, 100
1, 11041, Note_off_c, 9, 38, 64
1, 11041, Note_on_c, 4, 75, 113
1, 11056, Note_off_c, 7, 67, 64
1, 11056, Note_off_c, 4, 73, 64
1, 11056, Note_off_c, 4, 70, 64
1, 11056, Note_off_c, 5, 51, 64
1, 11057, Note_off_c, 4, 75, 64
1, 11087, Note_on_c, 9, 38, 88
1, 11088, Note_on_c, 7, 67, 94
1, 11088, Note_on_c, 5, 51, 100
1, 11089, Note_off_c, 9, 38, 64
1, 11089, Note_on_c, 4, 75, 113
1, 11089, Note_on_c, 4, 73, 109
1, 11089, Note_on_c, 4, 70, 100
1, 11104, Note_off_c, 5, 51, 64
1, 11105, Note_off_c, 7, 67, 64
1, 11105, Note_off_c, 4, 70, 64
1, 11106, Note_off_c, 4, 75, 64
1, 11106, Note_off_c, 4, 73, 64
1, 11184, Note_on_c, 1, 39, 94
1, 11185, Note_on_c, 0, 39, 108
1, 11185, Note_on_c, 9, 36, 88
1, 11185, Note_on_c, 9, 59, 99
1, 11186, Note_on_c, 5, 51, 114
1, 11187, Note_off_c, 9, 36, 64
1, 11187, Note_off_c, 9, 59, 64
1, 11240, Note_off_c, 1, 39, 64
1, 11253, Note_off_c, 5, 51, 64
1, 11262, Note_off_c, 0, 39, 64
1, 11278, Note_on_c, 1, 41, 91
1, 11278, Note_on_c, 5, 53, 105
1, 11280, Note_on_c, 0, 41, 91
1, 11280, Note_on_c, 9, 38, 74
1, 11282, Note_off_c, 9, 38, 64
1, 11294, Note_off_c, 5, 53, 64
1, 11298, Note_off_c, 1, 41, 64
1, 11299, Note_off_c, 0, 41, 64
1, 11326, Note_on_c, 5, 55, 104
1, 11327, Note_on_c, 1, 43, 94
1, 11327, Note_on_c, 9, 38, 79
1, 11328, Note_on_c, 10, 51, 85
1, 11328, Note_on_c, 0, 43, 94
1, 11329, Note_off_c, 9, 38, 64
1, 11332, Note_off_c, 10, 51, 64
1, 11342, Note_off_c, 5, 55, 64
1, 11344, Note_off_c, 0, 43, 64
1, 11345, Note_off_c, 1, 43, 64
1, 11352, Note_on_c, 10, 51, 86
1, 11356, Note_off_c, 10, 51, 64
1, 11374, Note_on_c, 5, 58, 109
1, 11374, Note_on_c, 1, 46, 86
1, 11375, Note_on_c, 0, 46, 81
1, 11376, Note_on_c, 9, 38, 85
1, 11376, Note_on_c, 10, 51, 89
1, 11378, Note_off_c, 9, 38, 64
1, 11380, Note_off_c, 10, 51, 64
1, 11390, Note_off_c, 5, 58, 64
1, 11393, Note_off_c, 0, 46, 64
1, 11394, Note_off_c, 1, 46, 64
1, 11400, Note_on_c, 10, 51, 93
1, 11404, Note_off_c, 10, 51, 64
1, 11423, Note_on_c, 5, 56, 108
1, 11423, Note_on_c, 9, 38, 89
1, 11424, Note_on_c, 1, 44, 94
1, 11424, Note_on_c, 0, 44, 110
1, 11424, Note_on_c, 10, 44, 100
1, 11425, Note_off_c, 9, 38, 64
1, 11428, Note_off_c, 10, 44, 64
1, 11439, Note_off_c, 5, 56, 64
1, 11444, Note_off_c, 0, 44, 64
1, 11446, Note_off_c, 1, 44, 64
1, 11471, Note_on_c, 9, 38, 84
1, 11473, Note_off_c, 9, 38, 64
1, 11495, Note_on_c, 9, 38, 77
1, 11497, Note_off_c, 9, 38, 64
1, 11520, Note_on_c, 9, 38, 87
1, 11522, Note_off_c, 9, 38, 64
1, 11567, Note_on_c, 1, 42, 90
1, 11567, Note_on_c, 0, 42, 110
1, 11568, Note_on_c, 5, 54, 124
1, 11569, Note_on_c, 9, 36, 88
1, 11569, Note_on_c, 9, 59, 99
1, 11571, Note_off_c, 9, 36, 64
1, 11571, Note_off_c, 9, 59, 64
1, 11633, Note_off_c, 0, 42, 64
1, 11633, Note_off_c, 5, 54, 64
1, 11634, Note_off_c, 1, 42, 64
1, 11662, Note_on_c, 1, 39, 91
1, 11663, Note_on_c, 0, 39, 94
1, 11663, Note_on_c, 5, 51, 111
1, 11664, Note_on_c, 9, 38, 87
1, 11666, Note_off_c, 9, 38, 64
1, 11678, Note_off_c, 1, 39, 64
1, 11679, Note_off_c, 0, 39, 64
1, 11679, Note_off_c, 5, 51, 64
1, 11711, Note_on_c, 1, 42, 97
1, 11711, Note_on_c, 9, 38, 82
1, 11712, Note_on_c, 10, 51, 85
1, 11712, Note_on_c, 0, 42, 119
1, 11712, Note_on_c, 5, 54, 118
1, 11713, Note_off_c, 9, 38, 64
1, 11716, Note_off_c, 10, 51, 64
1, 11728, Note_off_c, 5, 54, 64
1, 11729, Note_off_c, 0, 42, 64
1, 11733, Note_off_c, 1, 42, 64
1, 11736, Note_on_c, 10, 51, 86
1, 11740, Note_off_c, 10, 51, 64
1, 11759, Note_on_c, 1, 46, 87
1, 11759, Note_on_c, 5, 58, 111
1, 11760, Note_on_c, 9, 38, 87
1, 11760, Note_on_c, 0, 46, 96
1, 11760, Note_on_c, 10, 51, 89
1, 11762, Note_off_c, 9, 38, 64
1, 11764, Note_off_c, 10, 51, 64
1, 11775, Note_off_c, 5, 58, 64
1, 11777, Note_off_c, 0, 46, 64
1, 11780, Note_off_c, 1, 46, 64
1, 11784, Note_on_c, 10, 51, 93
1, 11788, Note_off_c, 10, 51, 64
1, 11808, Note_on_c, 1, 44, 104
1, 11808, Note_on_c, 5, 56, 114
1, 11808, Note_on_c, 9, 38, 90
1, 11808, Note_on_c, 0, 44, 110
1, 11808, Note_on_c, 10, 44, 100
1, 11810, Note_off_c, 9, 38, 64
1, 11812, Note_off_c, 10, 44, 64
1, 11824, Note_off_c, 5, 56, 64
1, 11829, Note_off_c, 0, 44, 64
1, 11831, Note_off_c, 1, 44, 64
1, 11855, Note_on_c, 9, 38, 87
1, 11857, Note_off_c, 9, 38, 64
1, 11880, Note_on_c, 9, 38, 82
1, 11882, Note_off_c, 9, 38, 64
1, 11903, Note_on_c, 9, 38, 85
1, 11905, Note_off_c, 9, 38, 64
1, 11952, Note_on_c, 1, 42, 100
1, 11952, Note_on_c, 5, 54, 124
1, 11952, Note_on_c, 0, 42, 114
1, 11953, Note_on_c, 9, 36, 88
1, 11953, Note_on_c, 9, 59, 99
1, 11955, Note_off_c, 9, 36, 64
1, 11955, Note_off_c, 9, 59, 64
1, 12015, Note_off_c, 0, 42, 64
1, 12025, Note_off_c, 1, 42, 64
1, 12027, Note_off_c, 5, 54, 64
1, 12047, Note_on_c, 1, 39, 100
1, 12047, Note_on_c, 0, 39, 100
1, 12047, Note_on_c, 9, 38, 79
1, 12048, Note_on_c, 5, 51, 110
1, 12049, Note_off_c, 9, 38, 64
1, 12064, Note_off_c, 5, 51, 64
1, 12065, Note_off_c, 0, 39, 64
1, 12067, Note_off_c, 1, 39, 64
1, 12095, Note_on_c, 0, 39, 94
1, 12096, Note_on_c, 10, 51, 85
1, 12096, Note_on_c, 1, 39, 89
1, 12096, Note_on_c, 9, 38, 81
1, 12096, Note_on_c, 5, 51, 110
1, 12098, Note_off_c, 9, 38, 64
1, 12100, Note_off_c, 10, 51, 64
1, 12112, Note_off_c, 0, 39, 64
1, 12112, Note_off_c, 5, 51, 64
1, 12118, Note_off_c, 1, 39, 64
1, 12120, Note_on_c, 10, 51, 86
1, 12124, Note_off_c, 10, 51, 64
1, 12143, Note_on_c, 0, 39, 89
1, 12143, Note_on_c, 1, 39, 94
1, 12144, Note_on_c, 9, 38, 96
1, 12144, Note_on_c, 10, 51, 89
1, 12145, Note_on_c, 5, 51, 100
1, 12146, Note_off_c, 9, 38, 64
1, 12148, Note_off_c, 10, 51, 64
1, 12161, Note_off_c, 5, 51, 64
1, 12162, Note_off_c, 0, 39, 64
1, 12164, Note_off_c, 1, 39, 64
1, 12168, Note_on_c, 10, 51, 93
1, 12172, Note_off_c, 10, 51, 64
1, 12192, Note_on_c, 1, 44, 100
1, 12192, Note_on_c, 9, 38, 89
1, 12192, Note_on_c, 10, 44, 100
1, 12193, Note_on_c, 0, 44, 119
1, 12194, Note_off_c, 9, 38, 64
1, 12194, Note_on_c, 5, 56, 114
1, 12196, Note_off_c, 10, 44, 64
1, 12210, Note_off_c, 5, 56, 64
1, 12215, Note_off_c, 1, 44, 64
1, 12222, Note_off_c, 0, 44, 64
1, 12239, Note_on_c, 9, 38, 82
1, 12241, Note_off_c, 9, 38, 64
1, 12263, Note_on_c, 9, 38, 76
1, 12265, Note_off_c, 9, 38, 64
1, 12288, Note_on_c, 9, 38, 85
1, 12290, Note_off_c, 9, 38, 64
1, 12335, Note_on_c, 1, 42, 100
1, 12336, Note_on_c, 0, 42, 119
1, 12336, Note_on_c, 5, 54, 124
1, 12337, Note_on_c, 9, 36, 88
1, 12337, Note_on_c, 9, 59, 99
1, 12339, Note_off_c, 9, 36, 64
1, 12339, Note_off_c, 9, 59, 64
1, 12405, Note_off_c, 5, 54, 64
1, 12409, Note_off_c, 0, 42, 64
1, 12416, Note_off_c, 1, 42, 64
1, 12431, Note_on_c, 1, 39, 91
1, 12431, Note_on_c, 5, 51, 119
1, 12431, Note_on_c, 9, 38, 84
1, 12432, Note_on_c, 0, 39, 100
1, 12433, Note_off_c, 9, 38, 64
1, 12447, Note_off_c, 5, 51, 64
1, 12449, Note_off_c, 1, 39, 64
1, 12452, Note_off_c, 0, 39, 64
1, 12479, Note_on_c, 1, 42, 94
1, 12479, Note_on_c, 5, 54, 114
1, 12480, Note_on_c, 10, 51, 85
1, 12480, Note_on_c, 9, 38, 82
1, 12480, Note_on_c, 0, 42, 107
1, 12482, Note_off_c, 9, 38, 64
1, 12484, Note_off_c, 10, 51, 64
1, 12495, Note_off_c, 5, 54, 64
1, 12498, Note_off_c, 1, 42, 64
1, 12498, Note_off_c, 0, 42, 64
1, 12504, Note_on_c, 10, 51, 86
1, 12508, Note_off_c, 10, 51, 64
1, 12527, Note_on_c, 1, 46, 87
1, 12527, Note_on_c, 5, 58, 120
1, 12527, Note_on_c, 9, 38, 93
1, 12528, Note_on_c, 0, 46, 94
1, 12528, Note_on_c, 10, 51, 89
1, 12529, Note_off_c, 9, 38, 64
1, 12532, Note_off_c, 10, 51, 64
1, 12543, Note_off_c, 5, 58, 64
1, 12547, Note_off_c, 1, 46, 64
1, 12548, Note_off_c, 0, 46, 64
1, 12552, Note_on_c, 10, 51, 93
1, 12556, Note_off_c, 10, 51, 64
1, 12575, Note_on_c, 5, 56, 120
1, 12576, Note_on_c, 1, 44, 104
1, 12576, Note_on_c, 9, 38, 85
1, 12576, Note_on_c, 10, 44, 100
1, 12577, Note_on_c, 0, 44, 114
1, 12578, Note_off_c, 9, 38, 64
1, 12580, Note_off_c, 10, 44, 64
1, 12591, Note_off_c, 5, 56, 64
1, 12594, Note_off_c, 1, 44, 64
1, 12604, Note_off_c, 0, 44, 64
1, 12624, Note_on_c, 9, 38, 87
1, 12626, Note_off_c, 9, 38, 64
1, 12648, Note_on_c, 9, 38, 81
1, 12650, Note_off_c, 9, 38, 64
1, 12672, Note_on_c, 9, 38, 84
1, 12674, Note_off_c, 9, 38, 64
1, 12718, Note_on_c, 5, 54, 124
1, 12720, Note_on_c, 1, 42, 104
1, 12720, Note_on_c, 0, 42, 119
1, 12721, Note_on_c, 9, 36, 88
1, 12721, Note_on_c, 9, 59, 99
1, 12723, Note_off_c, 9, 36, 64
1, 12723, Note_off_c, 9, 59, 64
1, 12789, Note_off_c, 1, 42, 64
1, 12790, Note_off_c, 0, 42, 64
1, 12796, Note_off_c, 5, 54, 64
1, 12814, Note_on_c, 5, 51, 108
1, 12816, Note_on_c, 1, 39, 104
1, 12816, Note_on_c, 0, 39, 98
1, 12816, Note_on_c, 9, 38, 83
1, 12818, Note_off_c, 9, 38, 64
1, 12830, Note_off_c, 5, 51, 64
1, 12832, Note_off_c, 0, 39, 64
1, 12835, Note_off_c, 1, 39, 64
1, 12863, Note_on_c, 1, 39, 89
1, 12863, Note_on_c, 0, 39, 100
1, 12863, Note_on_c, 9, 38, 84
1, 12864, Note_on_c, 10, 51, 85
1, 12864, Note_on_c, 5, 51, 113
1, 12865, Note_off_c, 9, 38, 64
1, 12868, Note_off_c, 10, 51, 64
1, 12879, Note_off_c, 0, 39, 64
1, 12880, Note_off_c, 5, 51, 64
1, 12881, Note_off_c, 1, 39, 64
1, 12888, Note_on_c, 10, 51, 86
1, 12892, Note_off_c, 10, 51, 64
1, 12911, Note_on_c, 1, 39, 85
1, 12911, Note_on_c, 0, 39, 89
1, 12911, Note_on_c, 9, 38, 95
1, 12912, Note_on_c, 5, 51, 106
1, 12912, Note_on_c, 10, 51, 89
1, 12913, Note_off_c, 9, 38, 64
1, 12916, Note_off_c, 10, 51, 64
1, 12928, Note_off_c, 5, 51, 64
1, 12929, Note_off_c, 0, 39, 64
1, 12932, Note_off_c, 1, 39, 64
1, 12936, Note_on_c, 10, 51, 93
1, 12940, Note_off_c, 10, 51, 64
1, 12959, Note_on_c, 9, 38, 92
1, 12960, Note_on_c, 1, 44, 85
1, 12960, Note_on_c, 5, 51, 94
1, 12960, Note_on_c, 10, 44, 100
1, 12961, Note_off_c, 9, 38, 64
1, 12961, Note_on_c, 0, 44, 104
1, 12964, Note_off_c, 10, 44, 64
1, 13007, Note_on_c, 9, 38, 83
1, 13009, Note_off_c, 9, 38, 64
1, 13031, Note_on_c, 9, 38, 74
1, 13033, Note_off_c, 9, 38, 64
1, 13056, Note_on_c, 9, 38, 88
1, 13058, Note_off_c, 9, 38, 64
1, 13104, Note_on_c, 9, 38, 87
1, 13106, Note_off_c, 9, 38, 64
1, 13151, Note_on_c, 3, 77, 85
1, 13151, Note_on_c, 2, 89, 94
1, 13152, Note_on_c, 9, 38, 90
1, 13154, Note_off_c, 9, 38, 64
1, 13167, Note_off_c, 3, 77, 64
1, 13167, Note_off_c, 2, 89, 64
1, 13175, Note_on_c, 3, 75, 85
1, 13175, Note_on_c, 2, 87, 94
1, 13175, Note_on_c, 9, 38, 85
1, 13177, Note_off_c, 9, 38, 64
1, 13191, Note_off_c, 3, 75, 64
1, 13191, Note_off_c, 2, 87, 64
1, 13199, Note_on_c, 3, 73, 90
1, 13199, Note_on_c, 2, 85, 100
1, 13199, Note_on_c, 9, 38, 89
1, 13201, Note_off_c, 9, 38, 64
1, 13215, Note_off_c, 3, 73, 64
1, 13215, Note_off_c, 2, 85, 64
1, 13223, Note_on_c, 3, 72, 82
1, 13223, Note_on_c, 2, 84, 91
1, 13223, Note_on_c, 9, 38, 78
1, 13225, Note_off_c, 9, 38, 64
1, 13239, Note_off_c, 3, 72, 64
1, 13239, Note_off_c, 2, 84, 64
1, 13247, Note_on_c, 3, 70, 90
1, 13247, Note_on_c, 2, 82, 100
1, 13247, Note_on_c, 9, 38, 92
1, 13249, Note_off_c, 9, 38, 64
1, 13263, Note_off_c, 3, 70, 64
1, 13263, Note_off_c, 2, 82, 64
1, 13271, Note_on_c, 3, 68, 94
1, 13271, Note_on_c, 2, 80, 104
1, 13271, Note_on_c, 9, 38, 96
1, 13273, Note_off_c, 9, 38, 64
1, 13287, Note_off_c, 3, 68, 64
1, 13287, Note_off_c, 2, 80, 64
1, 13295, Note_on_c, 3, 67, 85
1, 13295, Note_on_c, 2, 79, 94
1, 13295, Note_on_c, 9, 38, 87
1, 13297, Note_off_c, 9, 38, 64
1, 13311, Note_off_c, 3, 67, 64
1, 13311, Note_off_c, 2, 79, 64
1, 13319, Note_on_c, 3, 65, 85
1, 13319, Note_on_c, 2, 77, 94
1, 13319, Note_on_c, 9, 38, 88
1, 13321, Note_off_c, 9, 38, 64
1, 13335, Note_off_c, 3, 65, 64
1, 13335, Note_off_c, 2, 77, 64
1, 13343, Note_on_c, 3, 63, 90
1, 13343, Note_on_c, 2, 75, 100
1, 13344, Note_on_c, 10, 44, 87
1, 13344, Note_on_c, 9, 38, 101
1, 13346, Note_off_c, 9, 38, 64
1, 13348, Note_off_c, 10, 44, 64
1, 13353, Note_off_c, 0, 44, 64
1, 13354, Note_off_c, 1, 44, 64
1, 13367, Note_off_c, 3, 63, 64
1, 13367, Note_off_c, 2, 75, 64
1, 13370, Note_off_c, 5, 51, 64
1, 13392, Note_on_c, 10, 44, 73
1, 13392, Note_on_c, 9, 38, 91
1, 13394, Note_off_c, 9, 38, 64
1, 13396, Note_off_c, 10, 44, 64
1, 13416, Note_on_c, 10, 44, 95
1, 13416, Note_on_c, 9, 38, 102
1, 13418, Note_off_c, 9, 38, 64
1, 13420, Note_off_c, 10, 44, 64
1, 13439, Control_c, 3, 0, 0
1, 13440, Note_on_c, 10, 44, 100
1, 13440, Control_c, 3, 32, 0
1, 13440, Note_on_c, 9, 38, 95
1, 13441, Program_c, 3, 49
1, 13442, Note_off_c, 9, 38, 64
1, 13442, Control_c, 3, 91, 80
1, 13444, Note_off_c, 10, 44, 64
1, 13463, Note_on_c, 9, 38, 102
1, 13464, Note_on_c, 10, 44, 104
1, 13465, Note_off_c, 9, 38, 64
1, 13468, Note_off_c, 10, 44, 64
1, 13488, Note_on_c, 9, 38, 105
1, 13488, Note_on_c, 10, 44, 107
1, 13490, Note_off_c, 9, 38, 64
1, 13492, Note_off_c, 10, 44, 64
1, 13511, Note_on_c, 9, 38, 110
1, 13512, Note_on_c, 10, 44, 104
1, 13513, Note_off_c, 9, 38, 64
1, 13516, Note_off_c, 10, 44, 64
1, 13535, Note_on_c, 9, 38, 115
1, 13536, Note_on_c, 10, 44, 117
1, 13537, Note_off_c, 9, 38, 64
1, 13540, Note_off_c, 10, 44, 64
1, 13631, Note_on_c, 2, 72, 67
1, 13631, Note_on_c, 3, 72, 61
1, 13632, Note_on_c, 6, 48, 51
1, 13647, Note_off_c, 2, 72, 64
1, 13647, Note_off_c, 3, 72, 64
1, 13647, Note_on_c, 2, 74, 77
1, 13647, Note_on_c, 3, 74, 61
1, 13663, Note_off_c, 2, 74, 64
1, 13663, Note_off_c, 3, 74, 64
1, 13663, Note_on_c, 2, 76, 78
1, 13663, Note_on_c, 3, 76, 62
1, 13679, Note_off_c, 2, 76, 64
1, 13679, Note_off_c, 3, 76, 64
1, 13679, Note_on_c, 2, 77, 80
1, 13679, Note_on_c, 3, 77, 64
1, 13691, Note_off_c, 2, 77, 64
1, 13691, Note_off_c, 3, 77, 64
1, 13691, Note_on_c, 2, 79, 82
1, 13691, Note_on_c, 3, 79, 66
1, 13703, Note_off_c, 2, 79, 64
1, 13703, Note_off_c, 3, 79, 64
1, 13703, Note_on_c, 2, 81, 83
1, 13703, Note_on_c, 3, 81, 67
1, 13715, Note_off_c, 2, 81, 64
1, 13715, Note_off_c, 3, 81, 64
1, 13715, Note_on_c, 2, 82, 85
1, 13715, Note_on_c, 3, 82, 68
1, 13727, Note_off_c, 2, 82, 64
1, 13727, Note_off_c, 3, 82, 64
1, 13727, Note_on_c, 1, 43, 75
1, 13727, Note_on_c, 2, 84, 84
1, 13727, Note_on_c, 3, 84, 68
1, 13728, Note_off_c, 6, 48, 64
1, 13728, Note_on_c, 7, 65, 75
1, 13728, Note_on_c, 5, 55, 70
1, 13728, Note_on_c, 0, 43, 76
1, 13728, Note_on_c, 9, 38, 61
1, 13728, Note_on_c, 6, 60, 73
1, 13728, Note_on_c, 1, 31, 65
1, 13729, Note_on_c, 5, 58, 66
1, 13730, Note_off_c, 9, 38, 64
1, 13746, Note_off_c, 7, 65, 64
1, 13747, Note_off_c, 1, 43, 64
1, 13748, Note_off_c, 0, 43, 64
1, 13748, Note_off_c, 1, 31, 64
1, 13751, Note_off_c, 5, 55, 64
1, 13752, Note_off_c, 5, 58, 64
1, 13776, Note_on_c, 9, 38, 64
1, 13778, Note_off_c, 9, 38, 64
1, 13800, Note_on_c, 9, 38, 60
1, 13802, Note_off_c, 9, 38, 64
1, 13822, Note_on_c, 1, 36, 75
1, 13824, Note_on_c, 7, 64, 73
1, 13824, Note_on_c, 0, 36, 81
1, 13824, Note_on_c, 5, 58, 66
1, 13824, Note_on_c, 5, 55, 73
1, 13824, Note_on_c, 9, 38, 59
1, 13826, Note_off_c, 9, 38, 64
1, 13840, Note_off_c, 1, 36, 64
1, 13840, Note_off_c, 7, 64, 64
1, 13844, Note_off_c, 0, 36, 64
1, 13845, Note_off_c, 5, 58, 64
1, 13845, Note_off_c, 5, 55, 64
1, 13871, Note_on_c, 9, 38, 58
1, 13873, Note_off_c, 9, 38, 64
1, 13918, Note_on_c, 1, 31, 70
1, 13918, Note_on_c, 1, 43, 78
1, 13919, Note_on_c, 7, 62, 72
1, 13919, Note_on_c, 0, 43, 89
1, 13920, Note_on_c, 5, 55, 70
1, 13920, Note_on_c, 5, 58, 72
1, 13920, Note_on_c, 9, 38, 64
1, 13922, Note_off_c, 9, 38, 64
1, 13933, Note_off_c, 7, 62, 64
1, 13936, Note_off_c, 1, 31, 64
1, 13936, Note_off_c, 1, 43, 64
1, 13937, Note_off_c, 0, 43, 64
1, 13937, Note_off_c, 5, 55, 64
1, 13939, Note_off_c, 5, 58, 64
1, 13968, Note_on_c, 9, 38, 57
1, 13970, Note_off_c, 9, 38, 64
1, 14009, Note_off_c, 2, 84, 64
1, 14009, Note_off_c, 3, 84, 64
1, 14011, Note_off_c, 6, 60, 64
1, 14013, Note_on_c, 1, 36, 70
1, 14015, Note_on_c, 2, 82, 82
1, 14015, Note_on_c, 3, 82, 66
1, 14015, Note_on_c, 0, 36, 75
1, 14016, Note_on_c, 7, 64, 70
1, 14016, Note_on_c, 5, 58, 69
1, 14016, Note_on_c, 5, 55, 73
1, 14016, Note_on_c, 9, 38, 61
1, 14018, Note_off_c, 9, 38, 64
1, 14019, Note_on_c, 6, 58, 72
1, 14031, Note_off_c, 1, 36, 64
1, 14033, Note_off_c, 0, 36, 64
1, 14034, Note_off_c, 5, 55, 64
1, 14036, Note_off_c, 7, 64, 64
1, 14036, Note_off_c, 5, 58, 64
1, 14040, Note_on_c, 9, 38, 64
1, 14042, Note_off_c, 9, 38, 64
1, 14064, Note_on_c, 9, 38, 62
1, 14066, Note_off_c, 9, 38, 64
1, 14073, Note_off_c, 2, 82, 64
1, 14073, Note_off_c, 3, 82, 64
1, 14074, Note_on_c, 2, 84, 74
1, 14074, Note_on_c, 3, 84, 61
1, 14078, Note_off_c, 6, 58, 64
1, 14079, Note_on_c, 6, 60, 66
1, 14088, Note_on_c, 9, 38, 60
1, 14090, Note_off_c, 9, 38, 64
1, 14092, Note_on_c, 2, 82, 68
1, 14092, Note_on_c, 3, 82, 61
1, 14094, Note_off_c, 2, 84, 64
1, 14094, Note_off_c, 3, 84, 64
1, 14098, Note_on_c, 6, 58, 57
1, 14100, Note_off_c, 6, 60, 64
1, 14110, Note_on_c, 1, 43, 75
1, 14110, Note_on_c, 1, 31, 67
1, 14111, Note_on_c, 0, 43, 85
1, 14111, Note_on_c, 7, 65, 70
1, 14111, Note_on_c, 9, 38, 60
1, 14112, Note_on_c, 5, 58, 70
1, 14113, Note_off_c, 9, 38, 64
1, 14113, Note_on_c, 5, 55, 73
1, 14114, Note_on_c, 2, 79, 86
1, 14114, Note_on_c, 3, 79, 69
1, 14114, Note_on_c, 6, 55, 66
1, 14115, Note_off_c, 2, 82, 64
1, 14115, Note_off_c, 3, 82, 64
1, 14121, Note_off_c, 6, 58, 64
1, 14128, Note_off_c, 1, 43, 64
1, 14128, Note_off_c, 1, 31, 64
1, 14128, Note_off_c, 5, 58, 64
1, 14129, Note_off_c, 0, 43, 64
1, 14130, Note_off_c, 7, 65, 64
1, 14132, Note_off_c, 5, 55, 64
1, 14159, Note_on_c, 4, 72, 95
1, 14159, Note_on_c, 9, 38, 62
1, 14161, Note_off_c, 9, 38, 64
1, 14175, Note_off_c, 4, 72, 64
1, 14183, Note_on_c, 4, 72, 97
1, 14183, Note_on_c, 9, 38, 64
1, 14185, Note_off_c, 9, 38, 64
1, 14199, Note_off_c, 4, 72, 64
1, 14205, Note_on_c, 1, 36, 70
1, 14207, Note_on_c, 0, 36, 73
1, 14207, Note_on_c, 7, 64, 67
1, 14208, Note_on_c, 5, 58, 72
1, 14208, Note_on_c, 5, 55, 68
1, 14208, Note_on_c, 4, 72, 100
1, 14208, Note_on_c, 9, 38, 60
1, 14210, Note_off_c, 9, 38, 64
1, 14223, Note_off_c, 1, 36, 64
1, 14223, Note_off_c, 7, 64, 64
1, 14224, Note_off_c, 5, 58, 64
1, 14224, Note_off_c, 4, 72, 64
1, 14225, Note_off_c, 0, 36, 64
1, 14226, Note_off_c, 5, 55, 64
1, 14255, Note_on_c, 9, 38, 61
1, 14256, Note_on_c, 4, 67, 94
1, 14257, Note_off_c, 9, 38, 64
1, 14272, Note_off_c, 4, 67, 64
1, 14302, Note_on_c, 1, 43, 78
1, 14302, Note_on_c, 1, 31, 69
1, 14303, Note_on_c, 0, 43, 85
1, 14303, Note_on_c, 7, 62, 66
1, 14304, Note_on_c, 5, 58, 69
1, 14304, Note_on_c, 5, 55, 75
1, 14304, Note_on_c, 9, 38, 59
1, 14304, Note_on_c, 4, 72, 94
1, 14306, Note_off_c, 9, 38, 64
1, 14317, Note_off_c, 7, 62, 64
1, 14320, Note_off_c, 1, 43, 64
1, 14320, Note_off_c, 1, 31, 64
1, 14320, Note_off_c, 5, 58, 64
1, 14320, Note_off_c, 4, 72, 64
1, 14321, Note_off_c, 0, 43, 64
1, 14321, Note_off_c, 5, 55, 64
1, 14351, Note_on_c, 9, 38, 62
1, 14351, Note_on_c, 4, 72, 97
1, 14353, Note_off_c, 9, 38, 64
1, 14367, Note_off_c, 4, 72, 64
1, 14375, Note_on_c, 4, 72, 98
1, 14391, Note_off_c, 4, 72, 64
1, 14398, Note_on_c, 1, 36, 70
1, 14399, Note_on_c, 0, 36, 69
1, 14400, Note_on_c, 7, 64, 73
1, 14400, Note_on_c, 5, 58, 69
1, 14400, Note_on_c, 5, 55, 73
1, 14400, Note_on_c, 9, 38, 56
1, 14400, Note_on_c, 4, 74, 100
1, 14402, Note_off_c, 9, 38, 64
1, 14416, Note_off_c, 1, 36, 64
1, 14416, Note_off_c, 7, 64, 64
1, 14416, Note_off_c, 5, 58, 64
1, 14416, Note_off_c, 5, 55, 64
1, 14418, Note_off_c, 0, 36, 64
1, 14424, Note_off_c, 4, 74, 64
1, 14424, Note_on_c, 9, 38, 59
1, 14424, Note_on_c, 4, 72, 97
1, 14426, Note_off_c, 9, 38, 64
1, 14440, Note_off_c, 4, 72, 64
1, 14447, Note_on_c, 9, 38, 61
1, 14448, Note_on_c, 4, 70, 96
1, 14449, Note_off_c, 9, 38, 64
1, 14464, Note_off_c, 4, 70, 64
1, 14472, Note_on_c, 9, 38, 59
1, 14472, Note_on_c, 4, 74, 94
1, 14474, Note_off_c, 9, 38, 64
1, 14488, Note_off_c, 4, 74, 64
1, 14495, Note_on_c, 1, 43, 78
1, 14495, Note_on_c, 1, 31, 69
1, 14495, Note_on_c, 0, 43, 85
1, 14495, Note_on_c, 5, 55, 70
1, 14495, Note_on_c, 5, 58, 72
1, 14495, Note_on_c, 4, 72, 97
1, 14496, Note_on_c, 7, 65, 72
1, 14496, Note_on_c, 9, 38, 60
1, 14498, Note_off_c, 9, 38, 64
1, 14504, Note_off_c, 2, 79, 64
1, 14504, Note_off_c, 3, 79, 64
1, 14511, Note_off_c, 5, 55, 64
1, 14511, Note_off_c, 5, 58, 64
1, 14511, Note_off_c, 4, 72, 64
1, 14512, Note_off_c, 7, 65, 64
1, 14513, Note_off_c, 1, 43, 64
1, 14513, Note_off_c, 1, 31, 64
1, 14513, Note_off_c, 0, 43, 64
1, 14514, Note_off_c, 6, 55, 64
1, 14544, Note_on_c, 9, 38, 59
1, 14546, Note_off_c, 9, 38, 64
1, 14568, Note_on_c, 9, 38, 66
1, 14570, Note_off_c, 9, 38, 64
1, 14590, Note_on_c, 2, 79, 80
1, 14590, Note_on_c, 3, 79, 64
1, 14591, Note_on_c, 1, 36, 70
1, 14591, Note_on_c, 5, 58, 69
1, 14591, Note_on_c, 7, 64, 73
1, 14591, Note_on_c, 9, 38, 66
1, 14592, Note_on_c, 6, 55, 70
1, 14592, Note_on_c, 0, 36, 78
1, 14592, Note_on_c, 5, 55, 75
1, 14593, Note_off_c, 9, 38, 64
1, 14605, Note_off_c, 7, 64, 64
1, 14607, Note_off_c, 5, 58, 64
1, 14608, Note_off_c, 5, 55, 64
1, 14609, Note_off_c, 1, 36, 64
1, 14610, Note_off_c, 0, 36, 64
1, 14615, Note_off_c, 2, 79, 64
1, 14615, Note_off_c, 3, 79, 64
1, 14622, Note_off_c, 6, 55, 64
1, 14637, Note_on_c, 2, 81, 77
1, 14637, Note_on_c, 3, 81, 61
1, 14640, Note_on_c, 9, 38, 60
1, 14641, Note_on_c, 6, 57, 75
1, 14642, Note_off_c, 9, 38, 64
1, 14660, Note_off_c, 2, 81, 64
1, 14660, Note_off_c, 3, 81, 64
1, 14665, Note_off_c, 6, 57, 64
1, 14684, Note_on_c, 2, 82, 86
1, 14684, Note_on_c, 3, 82, 69
1, 14687, Note_on_c, 1, 43, 79
1, 14687, Note_on_c, 1, 31, 67
1, 14687, Note_on_c, 5, 58, 66
1, 14687, Note_on_c, 6, 58, 72
1, 14688, Note_on_c, 7, 62, 70
1, 14688, Note_on_c, 0, 43, 85
1, 14688, Note_on_c, 9, 38, 64
1, 14689, Note_on_c, 5, 55, 75
1, 14690, Note_off_c, 9, 38, 64
1, 14702, Note_off_c, 7, 62, 64
1, 14703, Note_off_c, 5, 58, 64
1, 14705, Note_off_c, 1, 43, 64
1, 14705, Note_off_c, 1, 31, 64
1, 14706, Note_off_c, 0, 43, 64
1, 14707, Note_off_c, 5, 55, 64
1, 14728, Note_off_c, 2, 82, 64
1, 14728, Note_off_c, 3, 82, 64
1, 14735, Note_on_c, 9, 38, 60
1, 14737, Note_off_c, 9, 38, 64
1, 14748, Note_off_c, 6, 58, 64
1, 14757, Note_on_c, 2, 81, 72
1, 14757, Note_on_c, 3, 81, 61
1, 14760, Note_on_c, 6, 57, 69
1, 14775, Note_off_c, 2, 81, 64
1, 14775, Note_off_c, 3, 81, 64
1, 14781, Note_off_c, 6, 57, 64
1, 14782, Note_on_c, 2, 82, 94
1, 14782, Note_on_c, 3, 82, 68
1, 14783, Note_on_c, 1, 36, 81
1, 14783, Note_on_c, 7, 64, 72
1, 14783, Note_on_c, 5, 55, 75
1, 14784, Note_on_c, 0, 36, 81
1, 14784, Note_on_c, 9, 38, 63
1, 14784, Note_on_c, 6, 58, 78
1, 14784, Note_on_c, 5, 58, 67
1, 14786, Note_off_c, 9, 38, 64
1, 14797, Note_off_c, 7, 64, 64
1, 14799, Note_off_c, 5, 55, 64
1, 14800, Note_off_c, 2, 82, 64
1, 14800, Note_off_c, 3, 82, 64
1, 14800, Note_off_c, 5, 58, 64
1, 14801, Note_off_c, 1, 36, 64
1, 14801, Note_off_c, 6, 58, 64
1, 14803, Note_off_c, 0, 36, 64
1, 14808, Note_on_c, 9, 38, 58
1, 14810, Note_off_c, 9, 38, 64
1, 14830, Note_on_c, 2, 86, 82
1, 14830, Note_on_c, 3, 86, 66
1, 14832, Note_on_c, 9, 38, 59
1, 14834, Note_off_c, 9, 38, 64
1, 14834, Note_on_c, 6, 62, 76
1, 14847, Note_off_c, 2, 86, 64
1, 14847, Note_off_c, 3, 86, 64
1, 14851, Note_off_c, 6, 62, 64
1, 14856, Note_on_c, 9, 38, 61
1, 14858, Note_off_c, 9, 38, 64
1, 14879, Note_on_c, 1, 43, 81
1, 14879, Note_on_c, 1, 31, 66
1, 14879, Note_on_c, 7, 65, 66
1, 14879, Note_on_c, 0, 43, 87
1, 14879, Note_on_c, 5, 58, 73
1, 14879, Note_on_c, 2, 84, 80
1, 14879, Note_on_c, 3, 84, 64
1, 14880, Note_on_c, 9, 38, 63
1, 14880, Note_on_c, 5, 55, 71
1, 14882, Note_off_c, 9, 38, 64
1, 14882, Note_on_c, 6, 60, 69
1, 14894, Note_off_c, 7, 65, 64
1, 14895, Note_off_c, 5, 58, 64
1, 14897, Note_off_c, 1, 43, 64
1, 14897, Note_off_c, 1, 31, 64
1, 14897, Note_off_c, 0, 43, 64
1, 14898, Note_off_c, 5, 55, 64
1, 14927, Note_on_c, 9, 38, 61
1, 14929, Note_off_c, 9, 38, 64
1, 14951, Note_on_c, 9, 38, 66
1, 14953, Note_off_c, 9, 38, 64
1, 14962, Note_off_c, 2, 84, 64
1, 14962, Note_off_c, 3, 84, 64
1, 14974, Note_on_c, 2, 79, 75
1, 14974, Note_on_c, 3, 79, 61
1, 14975, Note_on_c, 1, 36, 69
1, 14975, Note_on_c, 5, 58, 75
1, 14976, Note_off_c, 6, 60, 64
1, 14976, Note_on_c, 7, 64, 70
1, 14976, Note_on_c, 0, 36, 72
1, 14976, Note_on_c, 9, 38, 60
1, 14976, Note_on_c, 5, 55, 71
1, 14978, Note_off_c, 9, 38, 64
1, 14978, Note_on_c, 6, 55, 70
1, 14990, Note_off_c, 7, 64, 64
1, 14991, Note_off_c, 5, 58, 64
1, 14993, Note_off_c, 1, 36, 64
1, 14993, Note_off_c, 5, 55, 64
1, 14995, Note_off_c, 0, 36, 64
1, 15024, Note_on_c, 9, 38, 60
1, 15026, Note_off_c, 9, 38, 64
1, 15070, Note_on_c, 1, 43, 73
1, 15070, Note_on_c, 1, 31, 70
1, 15071, Note_on_c, 7, 62, 67
1, 15071, Note_on_c, 0, 43, 87
1, 15071, Note_on_c, 5, 58, 72
1, 15071, Note_on_c, 9, 38, 60
1, 15072, Note_on_c, 5, 55, 75
1, 15073, Note_off_c, 9, 38, 64
1, 15085, Note_off_c, 7, 62, 64
1, 15087, Note_off_c, 5, 58, 64
1, 15088, Note_off_c, 1, 43, 64
1, 15088, Note_off_c, 1, 31, 64
1, 15088, Note_off_c, 5, 55, 64
1, 15089, Note_off_c, 0, 43, 64
1, 15106, Note_off_c, 2, 79, 64
1, 15106, Note_off_c, 3, 79, 64
1, 15120, Note_on_c, 9, 38, 58
1, 15122, Note_off_c, 9, 38, 64
1, 15139, Note_off_c, 6, 55, 64
1, 15166, Note_on_c, 2, 84, 91
1, 15166, Note_on_c, 3, 84, 66
1, 15166, Note_on_c, 1, 36, 70
1, 15168, Note_on_c, 7, 64, 70
1, 15168, Note_on_c, 0, 36, 72
1, 15168, Note_on_c, 5, 58, 70
1, 15168, Note_on_c, 5, 55, 75
1, 15168, Note_on_c, 9, 38, 60
1, 15169, Note_on_c, 6, 60, 80
1, 15170, Note_off_c, 9, 38, 64
1, 15182, Note_off_c, 7, 64, 64
1, 15184, Note_off_c, 1, 36, 64
1, 15184, Note_off_c, 5, 58, 64
1, 15185, Note_off_c, 5, 55, 64
1, 15186, Note_off_c, 0, 36, 64
1, 15191, Note_on_c, 9, 38, 61
1, 15193, Note_off_c, 9, 38, 64
1, 15215, Note_on_c, 9, 38, 56
1, 15217, Note_off_c, 9, 38, 64
1, 15240, Note_on_c, 9, 38, 59
1, 15242, Note_off_c, 9, 38, 64
1, 15261, Note_off_c, 2, 84, 64
1, 15261, Note_off_c, 3, 84, 64
1, 15262, Note_on_c, 1, 41, 79
1, 15262, Note_on_c, 1, 29, 66
1, 15263, Note_on_c, 0, 41, 83
1, 15263, Note_on_c, 5, 60, 76
1, 15263, Note_on_c, 9, 38, 67
1, 15264, Note_on_c, 2, 89, 87
1, 15264, Note_on_c, 3, 89, 70
1, 15264, Note_on_c, 7, 65, 72
1, 15264, Note_on_c, 5, 53, 73
1, 15265, Note_off_c, 6, 60, 64
1, 15265, Note_off_c, 9, 38, 64
1, 15267, Note_on_c, 6, 65, 78
1, 15279, Note_off_c, 5, 60, 64
1, 15280, Note_off_c, 1, 41, 64
1, 15280, Note_off_c, 1, 29, 64
1, 15280, Note_off_c, 5, 53, 64
1, 15281, Note_off_c, 0, 41, 64
1, 15281, Note_off_c, 7, 65, 64
1, 15311, Note_on_c, 9, 38, 62
1, 15313, Note_off_c, 9, 38, 64
1, 15335, Note_on_c, 5, 60, 73
1, 15336, Note_on_c, 9, 38, 67
1, 15338, Note_off_c, 9, 38, 64
1, 15356, Note_off_c, 5, 60, 64
1, 15358, Note_on_c, 1, 39, 79
1, 15359, Note_on_c, 0, 39, 85
1, 15359, Note_on_c, 5, 58, 91
1, 15359, Note_on_c, 9, 38, 66
1, 15360, Note_on_c, 5, 53, 75
1, 15361, Note_off_c, 9, 38, 64
1, 15361, Note_on_c, 7, 63, 70
1, 15376, Note_off_c, 1, 39, 64
1, 15376, Note_off_c, 5, 58, 64
1, 15376, Note_off_c, 5, 53, 64
1, 15377, Note_off_c, 0, 39, 64
1, 15378, Note_off_c, 7, 63, 64
1, 15408, Note_on_c, 9, 38, 54
1, 15410, Note_off_c, 9, 38, 64
1, 15454, Note_on_c, 1, 37, 81
1, 15455, Note_on_c, 0, 37, 85
1, 15455, Note_on_c, 9, 38, 63
1, 15456, Note_on_c, 5, 53, 73
1, 15456, Note_on_c, 7, 61, 72
1, 15457, Note_off_c, 9, 38, 64
1, 15457, Note_on_c, 5, 56, 79
1, 15471, Note_off_c, 7, 61, 64
1, 15472, Note_off_c, 1, 37, 64
1, 15473, Note_off_c, 0, 37, 64
1, 15474, Note_off_c, 5, 53, 64
1, 15477, Note_off_c, 5, 56, 64
1, 15504, Note_on_c, 9, 38, 65
1, 15506, Note_off_c, 9, 38, 64
1, 15529, Note_off_c, 2, 89, 64
1, 15529, Note_off_c, 3, 89, 64
1, 15541, Note_off_c, 6, 65, 64
1, 15547, Note_on_c, 2, 87, 86
1, 15547, Note_on_c, 3, 87, 69
1, 15551, Note_on_c, 0, 39, 87
1, 15551, Note_on_c, 5, 53, 71
1, 15552, Note_on_c, 1, 39, 89
1, 15552, Note_on_c, 7, 63, 79
1, 15552, Note_on_c, 9, 38, 63
1, 15552, Note_on_c, 5, 58, 85
1, 15553, Note_on_c, 6, 63, 75
1, 15554, Note_off_c, 9, 38, 64
1, 15567, Note_off_c, 5, 53, 64
1, 15567, Note_off_c, 7, 63, 64
1, 15568, Note_off_c, 5, 58, 64
1, 15569, Note_off_c, 0, 39, 64
1, 15570, Note_off_c, 1, 39, 64
1, 15575, Note_on_c, 9, 38, 63
1, 15577, Note_off_c, 9, 38, 64
1, 15600, Note_on_c, 9, 38, 60
1, 15602, Note_off_c, 9, 38, 64
1, 15603, Note_off_c, 2, 87, 64
1, 15603, Note_off_c, 3, 87, 64
1, 15604, Note_on_c, 2, 89, 67
1, 15604, Note_on_c, 3, 89, 61
1, 15615, Note_off_c, 6, 63, 64
1, 15616, Note_on_c, 6, 65, 70
1, 15624, Note_on_c, 9, 38, 64
1, 15624, Note_on_c, 2, 87, 60
1, 15624, Note_on_c, 3, 87, 61
1, 15626, Note_off_c, 2, 89, 64
1, 15626, Note_off_c, 3, 89, 64
1, 15626, Note_off_c, 9, 38, 64
1, 15633, Note_on_c, 6, 63, 71
1, 15636, Note_off_c, 6, 65, 64
1, 15647, Note_off_c, 2, 87, 64
1, 15647, Note_off_c, 3, 87, 64
1, 15647, Note_on_c, 0, 41, 91
1, 15647, Note_on_c, 1, 29, 75
1, 15647, Note_on_c, 1, 41, 87
1, 15647, Note_on_c, 7, 65, 69
1, 15647, Note_on_c, 5, 53, 73
1, 15647, Note_on_c, 5, 60, 81
1, 15648, Note_on_c, 9, 38, 60
1, 15648, Note_on_c, 2, 84, 86
1, 15648, Note_on_c, 3, 84, 69
1, 15650, Note_off_c, 9, 38, 64
1, 15650, Note_on_c, 6, 60, 76
1, 15655, Note_off_c, 6, 63, 64
1, 15663, Note_off_c, 7, 65, 64
1, 15663, Note_off_c, 5, 53, 64
1, 15665, Note_off_c, 0, 41, 64
1, 15665, Note_off_c, 1, 41, 64
1, 15665, Note_off_c, 5, 60, 64
1, 15666, Note_off_c, 1, 29, 64
1, 15695, Note_on_c, 9, 38, 63
1, 15696, Note_off_c, 2, 84, 64
1, 15696, Note_off_c, 3, 84, 64
1, 15697, Note_off_c, 9, 38, 64
1, 15698, Note_off_c, 6, 60, 64
1, 15719, Note_on_c, 5, 60, 70
1, 15720, Note_on_c, 9, 38, 65
1, 15722, Note_off_c, 9, 38, 64
1, 15735, Note_off_c, 5, 60, 64
1, 15742, Note_on_c, 1, 39, 79
1, 15742, Note_on_c, 2, 84, 84
1, 15742, Note_on_c, 3, 84, 68
1, 15743, Note_on_c, 0, 39, 91
1, 15743, Note_on_c, 5, 58, 81
1, 15744, Note_on_c, 7, 63, 69
1, 15744, Note_on_c, 6, 60, 79
1, 15744, Note_on_c, 9, 38, 62
1, 15744, Note_on_c, 5, 53, 71
1, 15746, Note_off_c, 9, 38, 64
1, 15758, Note_off_c, 7, 63, 64
1, 15759, Note_off_c, 2, 84, 64
1, 15759, Note_off_c, 3, 84, 64
1, 15759, Note_off_c, 5, 58, 64
1, 15760, Note_off_c, 1, 39, 64
1, 15760, Note_off_c, 6, 60, 64
1, 15760, Note_off_c, 5, 53, 64
1, 15761, Note_off_c, 0, 39, 64
1, 15790, Note_on_c, 2, 84, 86
1, 15790, Note_on_c, 3, 84, 69
1, 15792, Note_on_c, 9, 38, 55
1, 15794, Note_off_c, 9, 38, 64
1, 15795, Note_on_c, 6, 60, 75
1, 15810, Note_off_c, 2, 84, 64
1, 15810, Note_off_c, 3, 84, 64
1, 15812, Note_off_c, 6, 60, 64
1, 15837, Note_on_c, 2, 85, 82
1, 15837, Note_on_c, 3, 85, 66
1, 15839, Note_on_c, 1, 37, 79
1, 15839, Note_on_c, 0, 37, 91
1, 15839, Note_on_c, 7, 61, 75
1, 15839, Note_on_c, 5, 56, 89
1, 15840, Note_on_c, 9, 38, 59
1, 15840, Note_on_c, 5, 53, 75
1, 15842, Note_off_c, 9, 38, 64
1, 15842, Note_on_c, 6, 61, 73
1, 15853, Note_off_c, 2, 85, 64
1, 15853, Note_off_c, 3, 85, 64
1, 15853, Note_off_c, 7, 61, 64
1, 15855, Note_off_c, 5, 56, 64
1, 15857, Note_off_c, 1, 37, 64
1, 15857, Note_off_c, 0, 37, 64
1, 15857, Note_off_c, 5, 53, 64
1, 15866, Note_off_c, 6, 61, 64
1, 15886, Note_on_c, 2, 85, 82
1, 15886, Note_on_c, 3, 85, 66
1, 15888, Note_on_c, 9, 38, 58
1, 15889, Note_on_c, 6, 61, 65
1, 15890, Note_off_c, 9, 38, 64
1, 15904, Note_off_c, 2, 85, 64
1, 15904, Note_off_c, 3, 85, 64
1, 15910, Note_on_c, 2, 84, 77
1, 15910, Note_on_c, 3, 84, 61
1, 15913, Note_on_c, 6, 60, 58
1, 15915, Note_off_c, 6, 61, 64
1, 15933, Note_on_c, 2, 85, 90
1, 15933, Note_on_c, 3, 85, 65
1, 15934, Note_off_c, 2, 84, 64
1, 15934, Note_off_c, 3, 84, 64
1, 15934, Note_on_c, 0, 42, 89
1, 15935, Note_on_c, 1, 30, 81
1, 15935, Note_on_c, 1, 42, 78
1, 15935, Note_on_c, 7, 63, 75
1, 15935, Note_on_c, 5, 54, 77
1, 15935, Note_on_c, 5, 58, 100
1, 15935, Note_on_c, 9, 38, 58
1, 15935, Note_on_c, 6, 61, 69
1, 15937, Note_off_c, 9, 38, 64
1, 15940, Note_off_c, 6, 60, 64
1, 15946, Note_off_c, 3, 85, 64
1, 15949, Note_off_c, 2, 85, 64
1, 15949, Note_off_c, 7, 63, 64
1, 15951, Note_off_c, 5, 54, 64
1, 15951, Note_off_c, 5, 58, 64
1, 15952, Note_off_c, 0, 42, 64
1, 15953, Note_off_c, 1, 30, 64
1, 15953, Note_off_c, 1, 42, 64
1, 15955, Note_off_c, 6, 61, 64
1, 15960, Note_on_c, 9, 38, 58
1, 15962, Note_off_c, 9, 38, 64
1, 15981, Note_on_c, 3, 87, 66
1, 15983, Note_on_c, 2, 87, 82
1, 15984, Note_on_c, 6, 63, 63
1, 15984, Note_on_c, 9, 38, 60
1, 15986, Note_off_c, 9, 38, 64
1, 15997, Note_off_c, 3, 87, 64
1, 15999, Note_off_c, 2, 87, 64
1, 16004, Note_off_c, 6, 63, 64
1, 16008, Note_on_c, 9, 38, 60
1, 16010, Note_off_c, 9, 38, 64
1, 16030, Note_on_c, 3, 84, 66
1, 16030, Note_on_c, 2, 84, 82
1, 16031, Note_on_c, 0, 41, 76
1, 16031, Note_on_c, 1, 29, 73
1, 16031, Note_on_c, 1, 41, 79
1, 16032, Note_on_c, 5, 53, 73
1, 16032, Note_on_c, 6, 60, 67
1, 16032, Note_on_c, 9, 38, 66
1, 16034, Note_off_c, 9, 38, 64
1, 16049, Note_off_c, 0, 41, 64
1, 16049, Note_off_c, 1, 29, 64
1, 16049, Note_off_c, 1, 41, 64
1, 16051, Note_off_c, 5, 53, 64
1, 16079, Note_on_c, 9, 38, 63
1, 16080, Note_on_c, 4, 72, 95
1, 16080, Note_on_c, 7, 60, 91
1, 16081, Note_off_c, 9, 38, 64
1, 16081, Note_on_c, 5, 57, 89
1, 16094, Note_off_c, 4, 72, 64
1, 16094, Note_off_c, 7, 60, 64
1, 16099, Note_off_c, 5, 57, 64
1, 16104, Note_on_c, 9, 38, 65
1, 16104, Note_on_c, 4, 72, 94
1, 16104, Note_on_c, 7, 60, 78
1, 16106, Note_off_c, 9, 38, 64
1, 16106, Note_on_c, 5, 57, 89
1, 16118, Note_off_c, 4, 72, 64
1, 16121, Note_off_c, 7, 60, 64
1, 16126, Note_on_c, 1, 36, 72
1, 16127, Note_off_c, 5, 57, 64
1, 16127, Note_on_c, 4, 72, 98
1, 16127, Note_on_c, 5, 53, 80
1, 16128, Note_on_c, 0, 36, 70
1, 16128, Note_on_c, 9, 38, 67
1, 16129, Note_on_c, 7, 60, 67
1, 16129, Note_on_c, 5, 57, 75
1, 16130, Note_off_c, 9, 38, 64
1, 16139, Note_off_c, 4, 72, 64
1, 16143, Note_off_c, 5, 53, 64
1, 16144, Note_off_c, 1, 36, 64
1, 16147, Note_off_c, 5, 57, 64
1, 16148, Note_off_c, 0, 36, 64
1, 16148, Note_off_c, 7, 60, 64
1, 16176, Note_on_c, 9, 38, 59
1, 16177, Note_on_c, 4, 72, 94
1, 16177, Note_on_c, 7, 60, 81
1, 16177, Note_on_c, 5, 57, 89
1, 16178, Note_off_c, 9, 38, 64
1, 16193, Note_off_c, 7, 60, 64
1, 16193, Note_off_c, 5, 57, 64
1, 16196, Note_off_c, 4, 72, 64
1, 16222, Note_on_c, 1, 29, 67
1, 16222, Note_on_c, 1, 41, 85
1, 16224, Note_on_c, 0, 41, 89
1, 16224, Note_on_c, 9, 38, 63
1, 16224, Note_on_c, 4, 73, 108
1, 16224, Note_on_c, 7, 61, 85
1, 16224, Note_on_c, 5, 53, 73
1, 16225, Note_on_c, 5, 58, 91
1, 16226, Note_off_c, 9, 38, 64
1, 16240, Note_off_c, 1, 29, 64
1, 16240, Note_off_c, 1, 41, 64
1, 16240, Note_off_c, 5, 53, 64
1, 16242, Note_off_c, 0, 41, 64
1, 16265, Note_off_c, 4, 73, 64
1, 16266, Note_off_c, 7, 61, 64
1, 16266, Note_off_c, 5, 58, 64
1, 16271, Note_on_c, 9, 38, 60
1, 16272, Note_on_c, 4, 72, 94
1, 16272, Note_on_c, 5, 57, 85
1, 16273, Note_off_c, 9, 38, 64
1, 16273, Note_on_c, 7, 60, 73
1, 16289, Note_off_c, 4, 72, 64
1, 16289, Note_off_c, 5, 57, 64
1, 16294, Note_off_c, 7, 60, 64
1, 16318, Note_on_c, 1, 36, 76
1, 16319, Note_on_c, 0, 36, 78
1, 16320, Note_on_c, 9, 38, 56
1, 16320, Note_on_c, 5, 60, 95
1, 16320, Note_on_c, 5, 53, 73
1, 16320, Note_on_c, 7, 63, 69
1, 16321, Note_on_c, 4, 75, 110
1, 16322, Note_off_c, 9, 38, 64
1, 16336, Note_off_c, 1, 36, 64
1, 16337, Note_off_c, 0, 36, 64
1, 16337, Note_off_c, 5, 53, 64
1, 16343, Note_on_c, 9, 38, 62
1, 16345, Note_off_c, 9, 38, 64
1, 16360, Note_off_c, 5, 60, 64
1, 16361, Note_off_c, 7, 63, 64
1, 16363, Note_off_c, 4, 75, 64
1, 16367, Note_on_c, 5, 58, 91
1, 16367, Note_on_c, 9, 38, 56
1, 16368, Note_on_c, 7, 61, 70
1, 16368, Note_on_c, 4, 73, 104
1, 16369, Note_off_c, 9, 38, 64
1, 16383, Note_off_c, 5, 58, 64
1, 16383, Note_off_c, 4, 73, 64
1, 16385, Note_off_c, 7, 61, 64
1, 16391, Note_on_c, 9, 38, 64
1, 16393, Note_off_c, 9, 38, 64
1, 16414, Note_on_c, 1, 41, 81
1, 16414, Note_on_c, 1, 29, 72
1, 16415, Note_on_c, 0, 41, 87
1, 16415, Note_on_c, 5, 57, 81
1, 16415, Note_on_c, 5, 53, 70
1, 16416, Note_on_c, 7, 60, 70
1, 16416, Note_on_c, 9, 38, 67
1, 16417, Note_on_c, 4, 72, 94
1, 16418, Note_off_c, 9, 38, 64
1, 16431, Note_off_c, 5, 53, 64
1, 16432, Note_off_c, 1, 41, 64
1, 16432, Note_off_c, 1, 29, 64
1, 16433, Note_off_c, 0, 41, 64
1, 16433, Note_off_c, 7, 60, 64
1, 16436, Note_off_c, 5, 57, 64
1, 16437, Note_off_c, 4, 72, 64
1, 16464, Note_on_c, 9, 38, 61
1, 16466, Note_off_c, 9, 38, 64
1, 16487, Note_on_c, 5, 57, 87
1, 16487, Note_on_c, 7, 60, 85
1, 16488, Note_on_c, 4, 72, 94
1, 16488, Note_on_c, 9, 38, 62
1, 16490, Note_off_c, 9, 38, 64
1, 16501, Note_off_c, 7, 60, 64
1, 16503, Note_off_c, 5, 57, 64
1, 16507, Note_off_c, 4, 72, 64
1, 16510, Note_on_c, 1, 36, 83
1, 16511, Note_on_c, 0, 36, 70
1, 16511, Note_on_c, 5, 53, 73
1, 16511, Note_on_c, 9, 38, 63
1, 16512, Note_on_c, 7, 58, 72
1, 16512, Note_on_c, 5, 55, 81
1, 16513, Note_off_c, 9, 38, 64
1, 16513, Note_on_c, 4, 70, 90
1, 16527, Note_off_c, 5, 53, 64
1, 16527, Note_off_c, 7, 58, 64
1, 16528, Note_off_c, 1, 36, 64
1, 16529, Note_off_c, 0, 36, 64
1, 16531, Note_off_c, 5, 55, 64
1, 16533, Note_off_c, 4, 70, 64
1, 16560, Note_on_c, 9, 38, 56
1, 16561, Note_on_c, 7, 60, 70
1, 16561, Note_on_c, 5, 57, 81
1, 16561, Note_on_c, 4, 72, 90
1, 16562, Note_off_c, 9, 38, 64
1, 16606, Note_on_c, 1, 29, 66
1, 16606, Note_on_c, 1, 41, 81
1, 16606, Note_on_c, 5, 53, 71
1, 16607, Note_on_c, 9, 38, 66
1, 16608, Note_on_c, 0, 41, 85
1, 16609, Note_off_c, 3, 84, 64
1, 16609, Note_off_c, 2, 84, 64
1, 16609, Note_off_c, 9, 38, 64
1, 16622, Note_off_c, 5, 53, 64
1, 16624, Note_off_c, 1, 29, 64
1, 16624, Note_off_c, 1, 41, 64
1, 16626, Note_off_c, 6, 60, 64
1, 16626, Note_off_c, 0, 41, 64
1, 16673, Note_off_c, 4, 72, 64
1, 16681, Note_off_c, 5, 57, 64
1, 16694, Note_off_c, 7, 60, 64
1, 16703, Note_on_c, 3, 72, 61
1, 16703, Note_on_c, 2, 72, 76
1, 16704, Note_on_c, 6, 48, 51
1, 16719, Note_off_c, 3, 72, 64
1, 16719, Note_off_c, 2, 72, 64
1, 16719, Note_on_c, 3, 74, 61
1, 16719, Note_on_c, 2, 74, 77
1, 16735, Note_off_c, 3, 74, 64
1, 16735, Note_off_c, 2, 74, 64
1, 16735, Note_on_c, 3, 76, 62
1, 16735, Note_on_c, 2, 76, 78
1, 16751, Note_off_c, 3, 76, 64
1, 16751, Note_off_c, 2, 76, 64
1, 16751, Note_on_c, 3, 77, 64
1, 16751, Note_on_c, 2, 77, 80
1, 16763, Note_off_c, 3, 77, 64
1, 16763, Note_off_c, 2, 77, 64
1, 16763, Note_on_c, 3, 79, 66
1, 16763, Note_on_c, 2, 79, 82
1, 16775, Note_off_c, 3, 79, 64
1, 16775, Note_off_c, 2, 79, 64
1, 16775, Note_on_c, 3, 81, 67
1, 16775, Note_on_c, 2, 81, 83
1, 16787, Note_off_c, 3, 81, 64
1, 16787, Note_off_c, 2, 81, 64
1, 16787, Note_on_c, 3, 82, 68
1, 16787, Note_on_c, 2, 82, 85
1, 16798, Note_on_c, 1, 43, 83
1, 16798, Note_on_c, 1, 31, 70
1, 16799, Note_off_c, 3, 82, 64
1, 16799, Note_off_c, 2, 82, 64
1, 16800, Note_off_c, 6, 48, 64
1, 16800, Note_on_c, 9, 38, 60
1, 16800, Note_on_c, 3, 84, 72
1, 16800, Note_on_c, 2, 84, 89
1, 16801, Note_on_c, 7, 65, 75
1, 16801, Note_on_c, 5, 55, 80
1, 16801, Note_on_c, 5, 58, 78
1, 16801, Note_on_c, 0, 43, 81
1, 16802, Note_off_c, 9, 38, 64
1, 16802, Note_on_c, 6, 60, 78
1, 16816, Note_off_c, 1, 43, 64
1, 16816, Note_off_c, 1, 31, 64
1, 16819, Note_off_c, 5, 55, 64
1, 16820, Note_off_c, 5, 58, 64
1, 16821, Note_off_c, 0, 43, 64
1, 16822, Note_off_c, 7, 65, 64
1, 16848, Note_on_c, 9, 38, 60
1, 16850, Note_off_c, 9, 38, 64
1, 16871, Note_on_c, 9, 38, 60
1, 16873, Note_off_c, 9, 38, 64
1, 16893, Note_on_c, 1, 36, 85
1, 16895, Note_on_c, 5, 55, 77
1, 16895, Note_on_c, 9, 38, 67
1, 16896, Note_on_c, 7, 64, 75
1, 16896, Note_on_c, 0, 36, 85
1, 16896, Note_on_c, 5, 58, 73
1, 16897, Note_off_c, 9, 38, 64
1, 16911, Note_off_c, 1, 36, 64
1, 16911, Note_off_c, 5, 55, 64
1, 16912, Note_off_c, 7, 64, 64
1, 16916, Note_off_c, 0, 36, 64
1, 16916, Note_off_c, 5, 58, 64
1, 16944, Note_on_c, 9, 38, 54
1, 16946, Note_off_c, 9, 38, 64
1, 16990, Note_on_c, 1, 31, 63
1, 16990, Note_on_c, 1, 43, 79
1, 16991, Note_on_c, 5, 58, 73
1, 16992, Note_on_c, 0, 43, 79
1, 16992, Note_on_c, 9, 38, 59
1, 16992, Note_on_c, 5, 55, 73
1, 16993, Note_on_c, 7, 62, 61
1, 16994, Note_off_c, 9, 38, 64
1, 17007, Note_off_c, 5, 58, 64
1, 17008, Note_off_c, 1, 31, 64
1, 17008, Note_off_c, 1, 43, 64
1, 17008, Note_off_c, 5, 55, 64
1, 17010, Note_off_c, 0, 43, 64
1, 17012, Note_off_c, 7, 62, 64
1, 17040, Note_on_c, 9, 38, 58
1, 17042, Note_off_c, 9, 38, 64
1, 17066, Note_off_c, 3, 84, 64
1, 17066, Note_off_c, 2, 84, 64
1, 17071, Note_off_c, 6, 60, 64
1, 17086, Note_on_c, 3, 82, 70
1, 17086, Note_on_c, 2, 82, 87
1, 17087, Note_on_c, 1, 36, 81
1, 17087, Note_on_c, 0, 36, 67
1, 17087, Note_on_c, 5, 58, 78
1, 17088, Note_on_c, 7, 64, 70
1, 17088, Note_on_c, 9, 38, 61
1, 17088, Note_on_c, 5, 55, 75
1, 17090, Note_off_c, 9, 38, 64
1, 17092, Note_on_c, 6, 58, 72
1, 17103, Note_off_c, 5, 58, 64
1, 17105, Note_off_c, 1, 36, 64
1, 17105, Note_off_c, 0, 36, 64
1, 17105, Note_off_c, 7, 64, 64
1, 17106, Note_off_c, 5, 55, 64
1, 17111, Note_on_c, 9, 38, 63
1, 17113, Note_off_c, 9, 38, 64
1, 17135, Note_on_c, 9, 38, 54
1, 17137, Note_off_c, 9, 38, 64
1, 17143, Note_off_c, 3, 82, 64
1, 17143, Note_off_c, 2, 82, 64
1, 17145, Note_on_c, 3, 84, 61
1, 17145, Note_on_c, 2, 84, 77
1, 17150, Note_off_c, 6, 58, 64
1, 17152, Note_on_c, 6, 60, 69
1, 17159, Note_on_c, 9, 38, 66
1, 17161, Note_off_c, 9, 38, 64
1, 17163, Note_on_c, 3, 82, 61
1, 17163, Note_on_c, 2, 82, 71
1, 17166, Note_off_c, 3, 84, 64
1, 17166, Note_off_c, 2, 84, 64
1, 17169, Note_on_c, 6, 58, 57
1, 17173, Note_off_c, 6, 60, 64
1, 17183, Note_on_c, 1, 43, 78
1, 17183, Note_on_c, 1, 31, 66
1, 17183, Note_on_c, 0, 43, 76
1, 17183, Note_on_c, 5, 58, 66
1, 17183, Note_on_c, 9, 38, 64
1, 17184, Note_off_c, 3, 82, 64
1, 17184, Note_off_c, 2, 82, 64
1, 17184, Note_on_c, 7, 65, 73
1, 17184, Note_on_c, 3, 79, 64
1, 17184, Note_on_c, 2, 79, 80
1, 17184, Note_on_c, 5, 55, 73
1, 17185, Note_off_c, 9, 38, 64
1, 17187, Note_on_c, 6, 55, 62
1, 17193, Note_off_c, 6, 58, 64
1, 17199, Note_off_c, 5, 58, 64
1, 17200, Note_off_c, 7, 65, 64
1, 17201, Note_off_c, 1, 43, 64
1, 17201, Note_off_c, 1, 31, 64
1, 17201, Note_off_c, 0, 43, 64
1, 17201, Note_off_c, 5, 55, 64
1, 17232, Note_on_c, 4, 72, 95
1, 17232, Note_on_c, 9, 38, 62
1, 17234, Note_off_c, 9, 38, 64
1, 17248, Note_off_c, 4, 72, 64
1, 17256, Note_on_c, 4, 72, 97
1, 17256, Note_on_c, 9, 38, 61
1, 17258, Note_off_c, 9, 38, 64
1, 17272, Note_off_c, 4, 72, 64
1, 17278, Note_on_c, 1, 36, 78
1, 17279, Note_on_c, 0, 36, 73
1, 17279, Note_on_c, 7, 64, 70
1, 17279, Note_on_c, 5, 55, 70
1, 17279, Note_on_c, 4, 72, 100
1, 17280, Note_on_c, 9, 38, 64
1, 17280, Note_on_c, 5, 58, 70
1, 17282, Note_off_c, 9, 38, 64
1, 17293, Note_off_c, 7, 64, 64
1, 17295, Note_off_c, 5, 55, 64
1, 17295, Note_off_c, 4, 72, 64
1, 17296, Note_off_c, 1, 36, 64
1, 17296, Note_off_c, 5, 58, 64
1, 17299, Note_off_c, 0, 36, 64
1, 17327, Note_on_c, 4, 67, 94
1, 17327, Note_on_c, 9, 38, 54
1, 17329, Note_off_c, 9, 38, 64
1, 17343, Note_off_c, 4, 67, 64
1, 17375, Note_on_c, 1, 43, 76
1, 17375, Note_on_c, 1, 31, 70
1, 17375, Note_on_c, 0, 43, 83
1, 17375, Note_on_c, 5, 55, 75
1, 17375, Note_on_c, 9, 38, 62
1, 17376, Note_on_c, 7, 62, 66
1, 17376, Note_on_c, 4, 72, 94
1, 17376, Note_on_c, 5, 58, 78
1, 17377, Note_off_c, 9, 38, 64
1, 17390, Note_off_c, 7, 62, 64
1, 17391, Note_off_c, 5, 55, 64
1, 17392, Note_off_c, 4, 72, 64
1, 17392, Note_off_c, 5, 58, 64
1, 17393, Note_off_c, 1, 43, 64
1, 17393, Note_off_c, 1, 31, 64
1, 17393, Note_off_c, 0, 43, 64
1, 17424, Note_on_c, 9, 38, 60
1, 17424, Note_on_c, 4, 72, 97
1, 17426, Note_off_c, 9, 38, 64
1, 17440, Note_off_c, 4, 72, 64
1, 17448, Note_on_c, 4, 72, 98
1, 17464, Note_off_c, 4, 72, 64
1, 17470, Note_on_c, 1, 36, 78
1, 17471, Note_on_c, 0, 36, 75
1, 17471, Note_on_c, 9, 38, 57
1, 17472, Note_on_c, 7, 64, 70
1, 17472, Note_on_c, 5, 58, 75
1, 17472, Note_on_c, 5, 55, 75
1, 17472, Note_on_c, 4, 74, 100
1, 17473, Note_off_c, 9, 38, 64
1, 17487, Note_off_c, 7, 64, 64
1, 17488, Note_off_c, 1, 36, 64
1, 17488, Note_off_c, 5, 58, 64
1, 17489, Note_off_c, 0, 36, 64
1, 17490, Note_off_c, 5, 55, 64
1, 17495, Note_on_c, 9, 38, 65
1, 17495, Note_on_c, 4, 72, 97
1, 17496, Note_off_c, 4, 74, 64
1, 17497, Note_off_c, 9, 38, 64
1, 17511, Note_off_c, 4, 72, 64
1, 17519, Note_on_c, 9, 38, 57
1, 17520, Note_on_c, 4, 70, 96
1, 17521, Note_off_c, 9, 38, 64
1, 17536, Note_off_c, 4, 70, 64
1, 17543, Note_on_c, 9, 38, 65
1, 17544, Note_on_c, 4, 74, 94
1, 17545, Note_off_c, 9, 38, 64
1, 17560, Note_off_c, 4, 74, 64
1, 17566, Note_on_c, 1, 43, 81
1, 17567, Note_on_c, 0, 43, 83
1, 17567, Note_on_c, 7, 65, 66
1, 17567, Note_on_c, 5, 55, 73
1, 17567, Note_on_c, 1, 31, 72
1, 17568, Note_on_c, 9, 38, 60
1, 17568, Note_on_c, 4, 72, 97
1, 17568, Note_on_c, 5, 58, 85
1, 17570, Note_off_c, 9, 38, 64
1, 17581, Note_off_c, 7, 65, 64
1, 17583, Note_off_c, 5, 55, 64
1, 17584, Note_off_c, 1, 43, 64
1, 17584, Note_off_c, 4, 72, 64
1, 17584, Note_off_c, 5, 58, 64
1, 17585, Note_off_c, 0, 43, 64
1, 17585, Note_off_c, 1, 31, 64
1, 17588, Note_off_c, 6, 55, 64
1, 17590, Note_off_c, 3, 79, 64
1, 17590, Note_off_c, 2, 79, 64
1, 17615, Note_on_c, 9, 38, 57
1, 17617, Note_off_c, 9, 38, 64
1, 17640, Note_on_c, 9, 38, 64
1, 17642, Note_off_c, 9, 38, 64
1, 17662, Note_on_c, 1, 36, 78
1, 17663, Note_on_c, 3, 79, 61
1, 17663, Note_on_c, 2, 79, 77
1, 17663, Note_on_c, 6, 55, 73
1, 17663, Note_on_c, 0, 36, 69
1, 17663, Note_on_c, 5, 55, 70
1, 17664, Note_on_c, 7, 64, 70
1, 17664, Note_on_c, 9, 38, 64
1, 17664, Note_on_c, 5, 58, 79
1, 17666, Note_off_c, 9, 38, 64
1, 17680, Note_off_c, 1, 36, 64
1, 17680, Note_off_c, 5, 55, 64
1, 17680, Note_off_c, 5, 58, 64
1, 17681, Note_off_c, 0, 36, 64
1, 17681, Note_off_c, 7, 64, 64
1, 17684, Note_off_c, 6, 55, 64
1, 17686, Note_off_c, 3, 79, 64
1, 17686, Note_off_c, 2, 79, 64
1, 17711, Note_on_c, 6, 57, 75
1, 17711, Note_on_c, 9, 38, 62
1, 17712, Note_on_c, 3, 81, 66
1, 17712, Note_on_c, 2, 81, 82
1, 17713, Note_off_c, 9, 38, 64
1, 17731, Note_off_c, 6, 57, 64
1, 17736, Note_off_c, 3, 81, 64
1, 17736, Note_off_c, 2, 81, 64
1, 17758, Note_on_c, 1, 43, 78
1, 17758, Note_on_c, 1, 31, 69
1, 17759, Note_on_c, 0, 43, 79
1, 17759, Note_on_c, 5, 58, 81
1, 17759, Note_on_c, 5, 55, 70
1, 17759, Note_on_c, 6, 58, 73
1, 17759, Note_on_c, 9, 38, 60
1, 17759, Note_on_c, 3, 82, 66
1, 17759, Note_on_c, 2, 82, 82
1, 17760, Note_on_c, 7, 62, 64
1, 17761, Note_off_c, 9, 38, 64
1, 17775, Note_off_c, 5, 58, 64
1, 17775, Note_off_c, 5, 55, 64
1, 17776, Note_off_c, 1, 43, 64
1, 17776, Note_off_c, 1, 31, 64
1, 17777, Note_off_c, 0, 43, 64
1, 17779, Note_off_c, 7, 62, 64
1, 17806, Note_off_c, 3, 82, 64
1, 17806, Note_off_c, 2, 82, 64
1, 17807, Note_on_c, 9, 38, 58
1, 17809, Note_off_c, 9, 38, 64
1, 17814, Note_off_c, 6, 58, 64
1, 17830, Note_on_c, 3, 81, 61
1, 17830, Note_on_c, 2, 81, 71
1, 17831, Note_on_c, 6, 57, 64
1, 17848, Note_off_c, 6, 57, 64
1, 17849, Note_off_c, 3, 81, 64
1, 17849, Note_off_c, 2, 81, 64
1, 17853, Note_on_c, 3, 82, 72
1, 17853, Note_on_c, 2, 82, 89
1, 17855, Note_on_c, 1, 36, 79
1, 17855, Note_on_c, 5, 58, 81
1, 17855, Note_on_c, 7, 64, 67
1, 17855, Note_on_c, 6, 58, 78
1, 17856, Note_on_c, 0, 36, 66
1, 17856, Note_on_c, 9, 38, 63
1, 17856, Note_on_c, 5, 55, 71
1, 17858, Note_off_c, 9, 38, 64
1, 17869, Note_off_c, 6, 58, 64
1, 17871, Note_off_c, 5, 58, 64
1, 17872, Note_off_c, 7, 64, 64
1, 17872, Note_off_c, 5, 55, 64
1, 17873, Note_off_c, 1, 36, 64
1, 17874, Note_off_c, 3, 82, 64
1, 17874, Note_off_c, 2, 82, 64
1, 17876, Note_off_c, 0, 36, 64
1, 17879, Note_on_c, 9, 38, 58
1, 17881, Note_off_c, 9, 38, 64
1, 17902, Note_on_c, 3, 86, 66
1, 17902, Note_on_c, 2, 86, 82
1, 17903, Note_on_c, 9, 38, 59
1, 17904, Note_on_c, 6, 62, 72
1, 17905, Note_off_c, 9, 38, 64
1, 17921, Note_off_c, 6, 62, 64
1, 17923, Note_off_c, 3, 86, 64
1, 17923, Note_off_c, 2, 86, 64
1, 17927, Note_on_c, 9, 38, 60
1, 17929, Note_off_c, 9, 38, 64
1, 17951, Note_on_c, 1, 43, 76
1, 17951, Note_on_c, 1, 31, 64
1, 17951, Note_on_c, 7, 65, 67
1, 17951, Note_on_c, 5, 58, 83
1, 17951, Note_on_c, 5, 55, 73
1, 17951, Note_on_c, 3, 84, 61
1, 17951, Note_on_c, 2, 84, 77
1, 17951, Note_on_c, 9, 38, 60
1, 17952, Note_on_c, 0, 43, 81
1, 17952, Note_on_c, 6, 60, 66
1, 17953, Note_off_c, 9, 38, 64
1, 17967, Note_off_c, 5, 58, 64
1, 17967, Note_off_c, 5, 55, 64
1, 17969, Note_off_c, 1, 43, 64
1, 17969, Note_off_c, 1, 31, 64
1, 17969, Note_off_c, 7, 65, 64
1, 17970, Note_off_c, 0, 43, 64
1, 18000, Note_on_c, 9, 38, 58
1, 18002, Note_off_c, 9, 38, 64
1, 18023, Note_on_c, 9, 38, 64
1, 18025, Note_off_c, 9, 38, 64
1, 18037, Note_off_c, 3, 84, 64
1, 18037, Note_off_c, 2, 84, 64
1, 18039, Note_off_c, 6, 60, 64
1, 18046, Note_on_c, 1, 36, 73
1, 18047, Note_on_c, 7, 64, 66
1, 18047, Note_on_c, 5, 58, 81
1, 18047, Note_on_c, 5, 55, 68
1, 18047, Note_on_c, 3, 79, 63
1, 18047, Note_on_c, 2, 79, 79
1, 18047, Note_on_c, 0, 36, 72
1, 18047, Note_on_c, 9, 38, 66
1, 18049, Note_off_c, 9, 38, 64
1, 18050, Note_on_c, 6, 55, 73
1, 18063, Note_off_c, 7, 64, 64
1, 18063, Note_off_c, 5, 58, 64
1, 18063, Note_off_c, 5, 55, 64
1, 18064, Note_off_c, 1, 36, 64
1, 18065, Note_off_c, 0, 36, 64
1, 18096, Note_on_c, 9, 38, 56
1, 18098, Note_off_c, 9, 38, 64
1, 18143, Note_on_c, 1, 43, 75
1, 18143, Note_on_c, 7, 62, 65
1, 18143, Note_on_c, 5, 55, 71
1, 18143, Note_on_c, 5, 58, 85
1, 18144, Note_on_c, 0, 43, 83
1, 18144, Note_on_c, 9, 38, 61
1, 18144, Note_on_c, 1, 31, 67
1, 18146, Note_off_c, 9, 38, 64
1, 18158, Note_off_c, 7, 62, 64
1, 18159, Note_off_c, 5, 55, 64
1, 18159, Note_off_c, 5, 58, 64
1, 18161, Note_off_c, 1, 43, 64
1, 18162, Note_off_c, 0, 43, 64
1, 18162, Note_off_c, 1, 31, 64
1, 18192, Note_on_c, 9, 38, 59
1, 18194, Note_off_c, 9, 38, 64
1, 18203, Note_off_c, 6, 55, 64
1, 18207, Note_off_c, 3, 79, 64
1, 18207, Note_off_c, 2, 79, 64
1, 18238, Note_on_c, 3, 84, 66
1, 18238, Note_on_c, 2, 84, 91
1, 18239, Note_on_c, 1, 36, 72
1, 18240, Note_on_c, 6, 60, 76
1, 18240, Note_on_c, 7, 64, 69
1, 18240, Note_on_c, 5, 58, 83
1, 18240, Note_on_c, 5, 55, 71
1, 18240, Note_on_c, 0, 36, 70
1, 18240, Note_on_c, 9, 38, 57
1, 18242, Note_off_c, 9, 38, 64
1, 18255, Note_off_c, 7, 64, 64
1, 18256, Note_off_c, 5, 58, 64
1, 18257, Note_off_c, 1, 36, 64
1, 18257, Note_off_c, 5, 55, 64
1, 18258, Note_off_c, 0, 36, 64
1, 18264, Note_on_c, 9, 38, 64
1, 18266, Note_off_c, 9, 38, 64
1, 18287, Note_on_c, 9, 38, 62
1, 18289, Note_off_c, 9, 38, 64
1, 18312, Note_on_c, 9, 38, 59
1, 18314, Note_off_c, 9, 38, 64
1, 18334, Note_on_c, 1, 41, 81
1, 18334, Note_on_c, 1, 29, 76
1, 18335, Note_on_c, 7, 65, 70
1, 18335, Note_on_c, 5, 53, 73
1, 18335, Note_on_c, 0, 41, 81
1, 18336, Note_on_c, 3, 89, 70
1, 18336, Note_on_c, 2, 89, 87
1, 18336, Note_on_c, 9, 38, 62
1, 18336, Note_on_c, 5, 60, 83
1, 18337, Note_off_c, 3, 84, 64
1, 18337, Note_off_c, 2, 84, 64
1, 18337, Note_off_c, 6, 60, 64
1, 18337, Note_on_c, 6, 65, 75
1, 18338, Note_off_c, 9, 38, 64
1, 18351, Note_off_c, 7, 65, 64
1, 18351, Note_off_c, 5, 53, 64
1, 18352, Note_off_c, 1, 41, 64
1, 18352, Note_off_c, 1, 29, 64
1, 18353, Note_off_c, 0, 41, 64
1, 18356, Note_off_c, 5, 60, 64
1, 18383, Note_on_c, 9, 38, 60
1, 18385, Note_off_c, 9, 38, 64
1, 18407, Note_on_c, 5, 60, 76
1, 18407, Note_on_c, 9, 38, 64
1, 18409, Note_off_c, 9, 38, 64
1, 18425, Note_off_c, 5, 60, 64
1, 18430, Note_on_c, 1, 39, 85
1, 18431, Note_on_c, 0, 39, 85
1, 18431, Note_on_c, 9, 38, 63
1, 18432, Note_on_c, 7, 63, 72
1, 18432, Note_on_c, 5, 53, 75
1, 18432, Note_on_c, 5, 58, 85
1, 18433, Note_off_c, 9, 38, 64
1, 18446, Note_off_c, 7, 63, 64
1, 18448, Note_off_c, 1, 39, 64
1, 18448, Note_off_c, 5, 53, 64
1, 18449, Note_off_c, 0, 39, 64
1, 18451, Note_off_c, 5, 58, 64
1, 18480, Note_on_c, 9, 38, 57
1, 18482, Note_off_c, 9, 38, 64
1, 18526, Note_on_c, 1, 37, 85
1, 18527, Note_on_c, 0, 37, 81
1, 18527, Note_on_c, 7, 61, 75
1, 18527, Note_on_c, 5, 53, 68
1, 18527, Note_on_c, 9, 38, 65
1, 18528, Note_on_c, 5, 56, 75
1, 18529, Note_off_c, 9, 38, 64
1, 18542, Note_off_c, 7, 61, 64
1, 18543, Note_off_c, 5, 53, 64
1, 18544, Note_off_c, 1, 37, 64
1, 18544, Note_off_c, 5, 56, 64
1, 18545, Note_off_c, 0, 37, 64
1, 18575, Note_on_c, 9, 38, 63
1, 18577, Note_off_c, 9, 38, 64
1, 18607, Note_off_c, 3, 89, 64
1, 18607, Note_off_c, 2, 89, 64
1, 18620, Note_off_c, 6, 65, 64
1, 18622, Note_on_c, 1, 39, 79
1, 18623, Note_on_c, 0, 39, 85
1, 18623, Note_on_c, 5, 53, 68
1, 18623, Note_on_c, 9, 38, 59
1, 18624, Note_on_c, 2, 87, 86
1, 18624, Note_on_c, 7, 63, 72
1, 18624, Note_on_c, 5, 58, 85
1, 18625, Note_off_c, 9, 38, 64
1, 18626, Note_on_c, 3, 87, 69
1, 18630, Note_on_c, 6, 63, 70
1, 18638, Note_off_c, 7, 63, 64
1, 18639, Note_off_c, 5, 53, 64
1, 18640, Note_off_c, 1, 39, 64
1, 18640, Note_off_c, 5, 58, 64
1, 18641, Note_off_c, 0, 39, 64
1, 18647, Note_on_c, 9, 38, 61
1, 18649, Note_off_c, 9, 38, 64
1, 18671, Note_on_c, 9, 38, 60
1, 18673, Note_off_c, 9, 38, 64
1, 18678, Note_off_c, 2, 87, 64
1, 18680, Note_off_c, 3, 87, 64
1, 18683, Note_on_c, 2, 89, 86
1, 18683, Note_on_c, 3, 89, 61
1, 18688, Note_off_c, 6, 63, 64
1, 18691, Note_on_c, 6, 65, 66
1, 18695, Note_on_c, 9, 38, 65
1, 18697, Note_off_c, 9, 38, 64
1, 18705, Note_on_c, 2, 87, 82
1, 18705, Note_on_c, 3, 87, 66
1, 18706, Note_on_c, 6, 63, 57
1, 18708, Note_off_c, 2, 89, 64
1, 18708, Note_off_c, 3, 89, 64
1, 18712, Note_off_c, 6, 65, 64
1, 18719, Note_on_c, 1, 41, 83
1, 18719, Note_on_c, 1, 29, 75
1, 18719, Note_on_c, 0, 41, 85
1, 18719, Note_on_c, 7, 65, 67
1, 18719, Note_on_c, 5, 60, 91
1, 18719, Note_on_c, 5, 53, 68
1, 18720, Note_on_c, 9, 38, 66
1, 18721, Note_on_c, 2, 84, 86
1, 18721, Note_on_c, 3, 84, 64
1, 18722, Note_off_c, 9, 38, 64
1, 18723, Note_on_c, 6, 60, 60
1, 18726, Note_off_c, 2, 87, 64
1, 18726, Note_off_c, 3, 87, 64
1, 18731, Note_off_c, 6, 63, 64
1, 18733, Note_off_c, 7, 65, 64
1, 18735, Note_off_c, 5, 60, 64
1, 18735, Note_off_c, 5, 53, 64
1, 18737, Note_off_c, 1, 41, 64
1, 18737, Note_off_c, 1, 29, 64
1, 18737, Note_off_c, 0, 41, 64
1, 18761, Note_off_c, 2, 84, 64
1, 18761, Note_off_c, 3, 84, 64
1, 18768, Note_on_c, 9, 38, 58
1, 18770, Note_off_c, 9, 38, 64
1, 18787, Note_off_c, 6, 60, 64
1, 18790, Note_on_c, 5, 60, 76
1, 18791, Note_on_c, 9, 38, 60
1, 18793, Note_off_c, 9, 38, 64
1, 18806, Note_off_c, 5, 60, 64
1, 18814, Note_on_c, 1, 39, 83
1, 18814, Note_on_c, 2, 84, 84
1, 18814, Note_on_c, 3, 84, 68
1, 18815, Note_on_c, 0, 39, 85
1, 18815, Note_on_c, 7, 63, 69
1, 18815, Note_on_c, 5, 58, 100
1, 18815, Note_on_c, 5, 53, 71
1, 18816, Note_on_c, 9, 38, 67
1, 18817, Note_on_c, 6, 60, 72
1, 18818, Note_off_c, 9, 38, 64
1, 18829, Note_off_c, 3, 84, 64
1, 18829, Note_off_c, 7, 63, 64
1, 18831, Note_off_c, 2, 84, 64
1, 18831, Note_off_c, 5, 58, 64
1, 18831, Note_off_c, 5, 53, 64
1, 18832, Note_off_c, 1, 39, 64
1, 18833, Note_off_c, 0, 39, 64
1, 18841, Note_off_c, 6, 60, 64
1, 18862, Note_on_c, 2, 84, 86
1, 18862, Note_on_c, 3, 84, 69
1, 18864, Note_on_c, 9, 38, 56
1, 18866, Note_off_c, 9, 38, 64
1, 18866, Note_on_c, 6, 60, 73
1, 18879, Note_off_c, 2, 84, 64
1, 18879, Note_off_c, 3, 84, 64
1, 18890, Note_off_c, 6, 60, 64
1, 18909, Note_on_c, 2, 85, 84
1, 18909, Note_on_c, 3, 85, 68
1, 18910, Note_on_c, 1, 37, 89
1, 18911, Note_on_c, 0, 37, 85
1, 18911, Note_on_c, 7, 61, 67
1, 18911, Note_on_c, 5, 56, 89
1, 18912, Note_on_c, 9, 38, 65
1, 18912, Note_on_c, 5, 53, 71
1, 18913, Note_on_c, 6, 61, 78
1, 18914, Note_off_c, 9, 38, 64
1, 18924, Note_off_c, 3, 85, 64
1, 18925, Note_off_c, 7, 61, 64
1, 18926, Note_off_c, 2, 85, 64
1, 18927, Note_off_c, 5, 56, 64
1, 18928, Note_off_c, 1, 37, 64
1, 18928, Note_off_c, 5, 53, 64
1, 18929, Note_off_c, 0, 37, 64
1, 18936, Note_off_c, 6, 61, 64
1, 18957, Note_on_c, 2, 85, 90
1, 18957, Note_on_c, 3, 85, 61
1, 18960, Note_on_c, 9, 38, 58
1, 18961, Note_on_c, 6, 61, 66
1, 18962, Note_off_c, 9, 38, 64
1, 18973, Note_off_c, 3, 85, 64
1, 18975, Note_off_c, 2, 85, 64
1, 18980, Note_on_c, 2, 84, 84
1, 18980, Note_on_c, 3, 84, 61
1, 18985, Note_off_c, 6, 61, 64
1, 18985, Note_on_c, 6, 60, 67
1, 19000, Note_off_c, 2, 84, 64
1, 19004, Note_off_c, 3, 84, 64
1, 19004, Note_on_c, 3, 85, 68
1, 19006, Note_on_c, 1, 42, 72
1, 19006, Note_on_c, 1, 30, 75
1, 19007, Note_on_c, 5, 58, 89
1, 19007, Note_on_c, 5, 54, 73
1, 19007, Note_on_c, 9, 38, 60
1, 19007, Note_on_c, 2, 85, 94
1, 19008, Note_on_c, 0, 42, 89
1, 19008, Note_on_c, 7, 63, 72
1, 19008, Note_on_c, 6, 61, 78
1, 19009, Note_off_c, 9, 38, 64
1, 19010, Note_off_c, 6, 60, 64
1, 19017, Note_off_c, 3, 85, 64
1, 19022, Note_off_c, 7, 63, 64
1, 19023, Note_off_c, 5, 58, 64
1, 19023, Note_off_c, 5, 54, 64
1, 19023, Note_off_c, 6, 61, 64
1, 19024, Note_off_c, 1, 42, 64
1, 19024, Note_off_c, 1, 30, 64
1, 19024, Note_off_c, 2, 85, 64
1, 19028, Note_off_c, 0, 42, 64
1, 19031, Note_on_c, 9, 38, 59
1, 19033, Note_off_c, 9, 38, 64
1, 19054, Note_on_c, 3, 87, 64
1, 19054, Note_on_c, 2, 87, 89
1, 19055, Note_on_c, 6, 63, 70
1, 19056, Note_on_c, 9, 38, 54
1, 19058, Note_off_c, 9, 38, 64
1, 19069, Note_off_c, 3, 87, 64
1, 19071, Note_off_c, 2, 87, 64
1, 19072, Note_off_c, 6, 63, 64
1, 19080, Note_on_c, 9, 38, 63
1, 19082, Note_off_c, 9, 38, 64
1, 19103, Note_on_c, 3, 89, 69
1, 19103, Note_on_c, 2, 89, 86
1, 19103, Note_on_c, 6, 65, 76
1, 19152, Note_on_c, 4, 72, 95
1, 19152, Note_on_c, 5, 57, 94
1, 19152, Note_on_c, 0, 41, 94
1, 19152, Note_on_c, 9, 38, 85
1, 19153, Note_on_c, 7, 60, 85
1, 19153, Note_on_c, 5, 53, 91
1, 19154, Note_off_c, 9, 38, 64
1, 19166, Note_off_c, 4, 72, 64
1, 19168, Note_off_c, 5, 57, 64
1, 19168, Note_off_c, 0, 41, 64
1, 19171, Note_off_c, 7, 60, 64
1, 19171, Note_off_c, 5, 53, 64
1, 19176, Note_on_c, 4, 72, 94
1, 19176, Note_on_c, 0, 41, 85
1, 19176, Note_on_c, 9, 38, 87
1, 19177, Note_on_c, 5, 57, 85
1, 19177, Note_on_c, 5, 53, 83
1, 19178, Note_off_c, 9, 38, 64
1, 19178, Note_on_c, 7, 60, 78
1, 19190, Note_off_c, 4, 72, 64
1, 19192, Note_off_c, 0, 41, 64
1, 19195, Note_off_c, 5, 57, 64
1, 19195, Note_off_c, 7, 60, 64
1, 19196, Note_off_c, 5, 53, 64
1, 19199, Note_on_c, 4, 72, 98
1, 19199, Note_on_c, 0, 41, 99
1, 19200, Note_on_c, 9, 38, 96
1, 19200, Note_on_c, 5, 53, 73
1, 19201, Note_on_c, 5, 57, 73
1, 19202, Note_off_c, 9, 38, 64
1, 19202, Note_on_c, 7, 60, 72
1, 19211, Note_off_c, 4, 72, 64
1, 19215, Note_off_c, 0, 41, 64
1, 19216, Note_off_c, 5, 53, 64
1, 19218, Note_off_c, 5, 57, 64
1, 19221, Note_off_c, 7, 60, 64
1, 19247, Note_on_c, 9, 38, 86
1, 19248, Note_on_c, 0, 41, 92
1, 19249, Note_off_c, 9, 38, 64
1, 19249, Note_on_c, 4, 72, 94
1, 19249, Note_on_c, 5, 57, 85
1, 19249, Note_on_c, 5, 53, 79
1, 19250, Note_on_c, 7, 60, 81
1, 19264, Note_off_c, 0, 41, 64
1, 19267, Note_off_c, 5, 57, 64
1, 19267, Note_off_c, 5, 53, 64
1, 19268, Note_off_c, 4, 72, 64
1, 19272, Note_off_c, 7, 60, 64
1, 19296, Note_on_c, 9, 38, 97
1, 19296, Note_on_c, 0, 42, 90
1, 19296, Note_on_c, 4, 73, 108
1, 19296, Note_on_c, 5, 54, 85
1, 19297, Note_on_c, 7, 61, 81
1, 19297, Note_on_c, 5, 58, 91
1, 19298, Note_off_c, 9, 38, 64
1, 19337, Note_off_c, 0, 42, 64
1, 19337, Note_off_c, 4, 73, 64
1, 19337, Note_off_c, 5, 54, 64
1, 19337, Note_off_c, 7, 61, 64
1, 19337, Note_off_c, 5, 58, 64
1, 19343, Note_on_c, 0, 41, 94
1, 19344, Note_on_c, 9, 38, 80
1, 19344, Note_on_c, 4, 72, 94
1, 19344, Note_on_c, 5, 53, 73
1, 19344, Note_on_c, 5, 57, 87
1, 19345, Note_on_c, 7, 60, 73
1, 19346, Note_off_c, 9, 38, 64
1, 19361, Note_off_c, 0, 41, 64
1, 19361, Note_off_c, 4, 72, 64
1, 19361, Note_off_c, 5, 53, 64
1, 19361, Note_off_c, 5, 57, 64
1, 19365, Note_off_c, 7, 60, 64
1, 19391, Note_on_c, 0, 44, 89
1, 19391, Note_on_c, 5, 60, 83
1, 19391, Note_on_c, 5, 56, 87
1, 19392, Note_on_c, 9, 38, 87
1, 19392, Note_on_c, 7, 63, 64
1, 19393, Note_on_c, 4, 75, 110
1, 19394, Note_off_c, 9, 38, 64
1, 19431, Note_off_c, 0, 44, 64
1, 19432, Note_off_c, 5, 60, 64
1, 19433, Note_off_c, 5, 56, 64
1, 19433, Note_off_c, 7, 63, 64
1, 19435, Note_off_c, 4, 75, 64
1, 19439, Note_on_c, 0, 42, 85
1, 19439, Note_on_c, 5, 54, 87
1, 19440, Note_on_c, 9, 38, 88
1, 19440, Note_on_c, 7, 61, 78
1, 19440, Note_on_c, 4, 73, 104
1, 19440, Note_on_c, 5, 58, 100
1, 19442, Note_off_c, 9, 38, 64
1, 19455, Note_off_c, 0, 42, 64
1, 19455, Note_off_c, 5, 54, 64
1, 19455, Note_off_c, 4, 73, 64
1, 19456, Note_off_c, 7, 61, 64
1, 19456, Note_off_c, 5, 58, 64
1, 19486, Note_on_c, 1, 41, 83
1, 19486, Note_on_c, 1, 29, 79
1, 19487, Note_on_c, 9, 38, 95
1, 19487, Note_on_c, 7, 60, 75
1, 19488, Control_c, 12, 0, 0
1, 19488, Note_on_c, 0, 41, 91
1, 19488, Note_on_c, 5, 57, 91
1, 19488, Note_on_c, 5, 53, 73
1, 19489, Note_off_c, 9, 38, 64
1, 19489, Control_c, 12, 32, 0
1, 19489, Note_on_c, 4, 72, 94
1, 19490, Program_c, 12, 9
1, 19491, Control_c, 12, 93, 10
1, 19491, Control_c, 12, 91, 70
1, 19502, Note_off_c, 7, 60, 64
1, 19504, Note_off_c, 1, 41, 64
1, 19504, Note_off_c, 1, 29, 64
1, 19506, Note_off_c, 0, 41, 64
1, 19507, Note_off_c, 5, 53, 64
1, 19509, Note_off_c, 4, 72, 64
1, 19511, Note_off_c, 5, 57, 64
1, 19535, Note_on_c, 9, 38, 76
1, 19537, Note_off_c, 9, 38, 64
1, 19559, Note_on_c, 7, 60, 81
1, 19559, Note_on_c, 5, 53, 75
1, 19560, Note_on_c, 4, 72, 94
1, 19560, Note_on_c, 9, 38, 73
1, 19560, Note_on_c, 5, 57, 89
1, 19562, Note_off_c, 9, 38, 64
1, 19573, Note_off_c, 7, 60, 64
1, 19575, Note_off_c, 5, 53, 64
1, 19576, Note_off_c, 5, 57, 64
1, 19579, Note_off_c, 4, 72, 64
1, 19581, Note_on_c, 1, 36, 76
1, 19583, Note_on_c, 0, 36, 79
1, 19583, Note_on_c, 9, 38, 90
1, 19584, Note_on_c, 7, 58, 73
1, 19584, Note_on_c, 5, 55, 81
1, 19584, Note_on_c, 5, 51, 78
1, 19585, Note_off_c, 9, 38, 64
1, 19585, Note_on_c, 4, 70, 90
1, 19598, Note_off_c, 7, 58, 64
1, 19599, Note_off_c, 1, 36, 64
1, 19600, Note_off_c, 5, 51, 64
1, 19601, Note_off_c, 0, 36, 64
1, 19602, Note_off_c, 5, 55, 64
1, 19605, Note_off_c, 4, 70, 64
1, 19607, Note_on_c, 9, 38, 92
1, 19609, Note_off_c, 9, 38, 64
1, 19632, Note_on_c, 7, 60, 73
1, 19632, Note_on_c, 5, 57, 87
1, 19632, Note_on_c, 5, 53, 82
1, 19632, Note_on_c, 9, 38, 106
1, 19633, Note_on_c, 4, 72, 90
1, 19634, Note_off_c, 9, 38, 64
1, 19655, Note_on_c, 9, 38, 96
1, 19657, Note_off_c, 9, 38, 64
1, 19677, Note_on_c, 1, 41, 85
1, 19677, Note_on_c, 1, 29, 75
1, 19679, Note_on_c, 0, 41, 91
1, 19680, Note_on_c, 9, 38, 112
1, 19682, Note_off_c, 9, 38, 64
1, 19695, Note_off_c, 1, 41, 64
1, 19695, Note_off_c, 1, 29, 64
1, 19695, Note_off_c, 0, 41, 64
1, 19712, Note_off_c, 6, 65, 64
1, 19720, Note_off_c, 3, 89, 64
1, 19720, Note_off_c, 2, 89, 64
1, 19745, Note_off_c, 4, 72, 64
1, 19761, Note_off_c, 5, 57, 64
1, 19768, Note_off_c, 5, 53, 64
1, 19770, Note_off_c, 7, 60, 64
1, 19775, Control_c, 3, 0, 0
1, 19776, Note_on_c, 6, 65, 98
1, 19776, Control_c, 3, 32, 0
1, 19777, Program_c, 3, 48
1, 19778, Note_on_c, 12, 77, 64
1, 19778, Control_c, 3, 91, 70
1, 19803, Note_off_c, 12, 77, 64
1, 19840, Note_off_c, 6, 65, 64
1, 19840, Note_on_c, 6, 70, 78
1, 19848, Note_off_c, 6, 70, 64
1, 19848, Note_on_c, 6, 72, 81
1, 19856, Note_off_c, 6, 72, 64
1, 19856, Note_on_c, 9, 38, 31
1, 19856, Note_on_c, 6, 73, 87
1, 19858, Note_off_c, 9, 38, 64
1, 19864, Note_off_c, 6, 73, 64
1, 19864, Note_on_c, 9, 38, 33
1, 19864, Note_on_c, 6, 75, 91
1, 19866, Note_off_c, 9, 38, 64
1, 19871, Note_on_c, 2, 61, 68
1, 19871, Note_on_c, 1, 39, 54
1, 19871, Note_on_c, 3, 54, 50
1, 19872, Note_off_c, 6, 75, 64
1, 19872, Note_on_c, 9, 38, 67
1, 19872, Note_on_c, 6, 77, 105
1, 19872, Note_on_c, 3, 58, 50
1, 19873, Note_on_c, 12, 89, 73
1, 19874, Note_off_c, 9, 38, 64
1, 19893, Note_off_c, 12, 89, 64
1, 19919, Note_on_c, 9, 38, 55
1, 19921, Note_off_c, 9, 38, 64
1, 19943, Note_on_c, 9, 38, 60
1, 19945, Note_off_c, 9, 38, 64
1, 19962, Note_off_c, 2, 61, 64
1, 19966, Note_on_c, 2, 63, 58
1, 19968, Note_on_c, 9, 38, 57
1, 19970, Note_off_c, 9, 38, 64
1, 20013, Note_off_c, 2, 63, 64
1, 20014, Note_on_c, 2, 61, 67
1, 20016, Note_on_c, 9, 38, 68
1, 20018, Note_off_c, 9, 38, 64
1, 20043, Note_off_c, 1, 39, 64
1, 20048, Note_on_c, 9, 38, 25
1, 20050, Note_off_c, 9, 38, 64
1, 20055, Note_on_c, 9, 38, 36
1, 20057, Note_off_c, 9, 38, 64
1, 20060, Note_off_c, 2, 61, 64
1, 20062, Note_on_c, 1, 44, 58
1, 20062, Note_on_c, 2, 60, 65
1, 20064, Note_on_c, 9, 38, 60
1, 20066, Note_off_c, 9, 38, 64
1, 20088, Note_on_c, 9, 38, 60
1, 20090, Note_off_c, 9, 38, 64
1, 20111, Note_on_c, 9, 38, 60
1, 20113, Note_off_c, 9, 38, 64
1, 20113, Note_on_c, 6, 75, 100
1, 20113, Note_on_c, 12, 87, 70
1, 20115, Note_off_c, 6, 77, 64
1, 20129, Note_off_c, 12, 87, 64
1, 20135, Note_on_c, 9, 38, 63
1, 20137, Note_off_c, 9, 38, 64
1, 20152, Note_off_c, 1, 44, 64
1, 20158, Note_on_c, 2, 63, 57
1, 20159, Note_off_c, 2, 60, 64
1, 20159, Note_on_c, 1, 42, 62
1, 20159, Note_on_c, 9, 38, 68
1, 20160, Note_on_c, 12, 84, 70
1, 20161, Note_off_c, 9, 38, 64
1, 20162, Note_on_c, 6, 72, 95
1, 20165, Note_off_c, 6, 75, 64
1, 20179, Note_off_c, 12, 84, 64
1, 20208, Note_on_c, 9, 38, 60
1, 20210, Note_off_c, 9, 38, 64
1, 20232, Note_on_c, 12, 82, 61
1, 20233, Note_on_c, 6, 70, 92
1, 20236, Note_off_c, 6, 72, 64
1, 20237, Note_off_c, 1, 42, 64
1, 20239, Note_on_c, 9, 38, 26
1, 20241, Note_off_c, 2, 63, 64
1, 20241, Note_off_c, 9, 38, 64
1, 20245, Note_off_c, 12, 82, 64
1, 20247, Note_on_c, 9, 38, 35
1, 20249, Note_off_c, 9, 38, 64
1, 20253, Note_on_c, 1, 41, 66
1, 20254, Note_on_c, 2, 63, 57
1, 20255, Note_off_c, 3, 54, 64
1, 20255, Note_off_c, 6, 70, 64
1, 20255, Note_on_c, 3, 56, 50
1, 20255, Note_on_c, 3, 53, 48
1, 20256, Note_on_c, 9, 38, 60
1, 20257, Note_off_c, 3, 58, 64
1, 20257, Note_on_c, 6, 68, 96
1, 20258, Note_off_c, 9, 38, 64
1, 20258, Note_on_c, 12, 80, 63
1, 20276, Note_off_c, 12, 80, 64
1, 20303, Note_on_c, 9, 38, 52
1, 20305, Note_off_c, 9, 38, 64
1, 20327, Note_on_c, 9, 38, 58
1, 20329, Note_off_c, 9, 38, 64
1, 20347, Note_off_c, 2, 63, 64
1, 20350, Note_on_c, 2, 61, 57
1, 20351, Note_on_c, 9, 38, 60
1, 20353, Note_off_c, 9, 38, 64
1, 20393, Note_off_c, 2, 61, 64
1, 20398, Note_on_c, 2, 60, 56
1, 20400, Note_on_c, 9, 38, 72
1, 20402, Note_off_c, 9, 38, 64
1, 20429, Note_off_c, 1, 41, 64
1, 20432, Note_on_c, 9, 38, 26
1, 20434, Note_off_c, 9, 38, 64
1, 20439, Note_on_c, 9, 38, 31
1, 20441, Note_off_c, 9, 38, 64
1, 20446, Note_on_c, 1, 46, 57
1, 20446, Note_on_c, 1, 34, 57
1, 20446, Note_on_c, 2, 61, 62
1, 20448, Note_on_c, 9, 38, 63
1, 20449, Note_off_c, 2, 60, 64
1, 20450, Note_off_c, 9, 38, 64
1, 20471, Note_on_c, 9, 38, 58
1, 20473, Note_off_c, 9, 38, 64
1, 20474, Note_off_c, 6, 68, 64
1, 20495, Note_on_c, 9, 38, 55
1, 20496, Pitch_bend_c, 6, 6144
1, 20497, Note_off_c, 9, 38, 64
1, 20497, Note_on_c, 12, 85, 68
1, 20497, Note_on_c, 6, 73, 105
1, 20499, Pitch_bend_c, 6, 6656
1, 20502, Pitch_bend_c, 6, 7168
1, 20505, Pitch_bend_c, 6, 7680
1, 20508, Pitch_bend_c, 6, 8192
1, 20515, Note_off_c, 12, 85, 64
1, 20520, Note_on_c, 9, 38, 62
1, 20522, Note_off_c, 9, 38, 64
1, 20544, Note_on_c, 9, 38, 68
1, 20545, Note_on_c, 12, 82, 67
1, 20545, Note_on_c, 6, 70, 102
1, 20546, Note_off_c, 9, 38, 64
1, 20551, Note_off_c, 6, 73, 64
1, 20561, Note_off_c, 12, 82, 64
1, 20568, Note_off_c, 2, 61, 64
1, 20590, Note_on_c, 2, 61, 66
1, 20592, Note_on_c, 9, 38, 58
1, 20593, Note_on_c, 12, 80, 62
1, 20594, Note_off_c, 9, 38, 64
1, 20594, Note_on_c, 6, 68, 99
1, 20595, Note_off_c, 6, 70, 64
1, 20609, Note_off_c, 12, 80, 64
1, 20610, Note_off_c, 2, 61, 64
1, 20614, Note_off_c, 1, 34, 64
1, 20618, Note_off_c, 1, 46, 64
1, 20623, Note_on_c, 9, 38, 30
1, 20625, Note_off_c, 9, 38, 64
1, 20631, Note_on_c, 9, 38, 34
1, 20633, Note_off_c, 9, 38, 64
1, 20637, Note_off_c, 3, 53, 64
1, 20638, Note_on_c, 3, 54, 48
1, 20638, Note_on_c, 3, 58, 45
1, 20638, Note_on_c, 1, 39, 59
1, 20638, Note_on_c, 2, 61, 62
1, 20639, Note_off_c, 3, 56, 64
1, 20639, Note_on_c, 9, 38, 63
1, 20641, Note_off_c, 9, 38, 64
1, 20642, Note_on_c, 12, 78, 69
1, 20642, Note_on_c, 6, 66, 96
1, 20649, Note_off_c, 6, 68, 64
1, 20665, Note_off_c, 12, 78, 64
1, 20688, Note_on_c, 9, 38, 56
1, 20690, Note_off_c, 9, 38, 64
1, 20711, Note_on_c, 9, 38, 57
1, 20713, Note_off_c, 9, 38, 64
1, 20736, Note_on_c, 9, 38, 62
1, 20737, Note_on_c, 12, 80, 57
1, 20738, Note_off_c, 9, 38, 64
1, 20739, Note_on_c, 6, 68, 94
1, 20742, Note_off_c, 6, 66, 64
1, 20754, Note_off_c, 12, 80, 64
1, 20771, Note_off_c, 2, 61, 64
1, 20778, Note_off_c, 3, 58, 64
1, 20781, Note_on_c, 2, 66, 57
1, 20782, Note_on_c, 3, 61, 47
1, 20783, Note_on_c, 9, 38, 71
1, 20784, Note_on_c, 12, 82, 64
1, 20785, Note_off_c, 9, 38, 64
1, 20786, Note_on_c, 6, 70, 97
1, 20794, Note_off_c, 6, 68, 64
1, 20800, Note_off_c, 12, 82, 64
1, 20814, Note_off_c, 1, 39, 64
1, 20816, Note_on_c, 9, 38, 27
1, 20818, Note_off_c, 2, 66, 64
1, 20818, Note_off_c, 9, 38, 64
1, 20823, Note_on_c, 9, 38, 36
1, 20825, Note_off_c, 9, 38, 64
1, 20828, Note_on_c, 2, 65, 62
1, 20829, Note_off_c, 3, 61, 64
1, 20830, Note_on_c, 1, 44, 65
1, 20830, Note_on_c, 3, 60, 50
1, 20831, Note_on_c, 9, 38, 64
1, 20832, Pitch_bend_c, 6, 6144
1, 20832, Note_off_c, 6, 70, 64
1, 20832, Note_on_c, 6, 72, 94
1, 20833, Note_off_c, 9, 38, 64
1, 20833, Note_on_c, 12, 84, 73
1, 20835, Pitch_bend_c, 6, 6528
1, 20838, Pitch_bend_c, 6, 6912
1, 20841, Pitch_bend_c, 6, 7296
1, 20844, Pitch_bend_c, 6, 7680
1, 20847, Pitch_bend_c, 6, 8064
1, 20848, Pitch_bend_c, 6, 8192
1, 20855, Note_on_c, 9, 38, 57
1, 20857, Note_off_c, 12, 84, 64
1, 20857, Note_off_c, 9, 38, 64
1, 20873, Note_off_c, 2, 65, 64
1, 20877, Note_on_c, 2, 62, 59
1, 20879, Note_on_c, 9, 38, 54
1, 20881, Note_off_c, 9, 38, 64
1, 20903, Note_on_c, 9, 38, 60
1, 20905, Note_off_c, 9, 38, 64
1, 20926, Note_on_c, 2, 63, 59
1, 20927, Note_on_c, 9, 38, 66
1, 20928, Note_off_c, 2, 62, 64
1, 20929, Note_off_c, 9, 38, 64
1, 20975, Note_on_c, 2, 65, 66
1, 20975, Note_on_c, 9, 38, 55
1, 20976, Note_off_c, 2, 63, 64
1, 20977, Note_off_c, 9, 38, 64
1, 20977, Note_on_c, 12, 80, 64
1, 20978, Note_on_c, 6, 68, 94
1, 20981, Note_off_c, 6, 72, 64
1, 20995, Note_off_c, 12, 80, 64
1, 21002, Note_off_c, 3, 54, 64
1, 21006, Note_off_c, 1, 44, 64
1, 21008, Note_on_c, 9, 38, 28
1, 21010, Note_off_c, 9, 38, 64
1, 21016, Note_on_c, 9, 38, 32
1, 21018, Note_off_c, 9, 38, 64
1, 21022, Note_on_c, 1, 37, 65
1, 21023, Note_on_c, 3, 53, 50
1, 21023, Note_on_c, 3, 56, 49
1, 21024, Note_off_c, 3, 60, 64
1, 21024, Note_on_c, 9, 38, 67
1, 21025, Note_on_c, 2, 63, 70
1, 21025, Note_on_c, 12, 77, 66
1, 21026, Note_off_c, 9, 38, 64
1, 21026, Note_on_c, 6, 65, 94
1, 21030, Note_off_c, 6, 68, 64
1, 21032, Note_off_c, 2, 65, 64
1, 21040, Note_off_c, 12, 77, 64
1, 21071, Note_on_c, 9, 38, 56
1, 21073, Note_off_c, 9, 38, 64
1, 21096, Note_on_c, 9, 38, 59
1, 21098, Note_off_c, 9, 38, 64
1, 21120, Note_on_c, 2, 61, 67
1, 21120, Note_on_c, 9, 38, 55
1, 21122, Note_off_c, 9, 38, 64
1, 21127, Note_off_c, 2, 63, 64
1, 21167, Note_on_c, 9, 38, 69
1, 21169, Note_off_c, 9, 38, 64
1, 21200, Note_on_c, 9, 38, 31
1, 21202, Note_off_c, 9, 38, 64
1, 21208, Note_on_c, 9, 38, 32
1, 21210, Note_off_c, 2, 61, 64
1, 21210, Note_off_c, 9, 38, 64
1, 21214, Note_on_c, 2, 65, 64
1, 21215, Note_on_c, 3, 60, 55
1, 21215, Note_on_c, 9, 38, 61
1, 21217, Note_off_c, 9, 38, 64
1, 21221, Note_off_c, 3, 56, 64
1, 21239, Note_on_c, 9, 38, 57
1, 21241, Note_off_c, 9, 38, 64
1, 21262, Note_off_c, 6, 65, 64
1, 21263, Note_on_c, 9, 38, 60
1, 21265, Note_off_c, 9, 38, 64
1, 21271, Note_off_c, 1, 37, 64
1, 21287, Note_on_c, 9, 38, 62
1, 21289, Note_off_c, 9, 38, 64
1, 21309, Note_on_c, 1, 37, 63
1, 21311, Note_on_c, 9, 38, 64
1, 21312, Note_on_c, 3, 59, 57
1, 21313, Note_off_c, 9, 38, 64
1, 21313, Note_on_c, 6, 65, 101
1, 21314, Note_off_c, 3, 60, 64
1, 21360, Note_on_c, 9, 38, 58
1, 21362, Note_off_c, 9, 38, 64
1, 21386, Note_off_c, 1, 37, 64
1, 21392, Note_on_c, 9, 38, 31
1, 21394, Note_off_c, 9, 38, 64
1, 21395, Note_off_c, 3, 53, 64
1, 21398, Note_off_c, 3, 59, 64
1, 21399, Note_on_c, 9, 38, 37
1, 21400, Note_off_c, 2, 65, 64
1, 21401, Note_off_c, 9, 38, 64
1, 21406, Note_on_c, 2, 64, 65
1, 21407, Note_on_c, 1, 36, 57
1, 21408, Note_on_c, 3, 59, 57
1, 21408, Note_on_c, 9, 38, 61
1, 21409, Note_on_c, 3, 55, 45
1, 21410, Note_off_c, 9, 38, 64
1, 21411, Note_on_c, 6, 64, 104
1, 21413, Note_off_c, 6, 65, 64
1, 21456, Note_on_c, 9, 38, 51
1, 21458, Note_off_c, 9, 38, 64
1, 21479, Note_on_c, 9, 38, 62
1, 21481, Note_off_c, 9, 38, 64
1, 21503, Note_on_c, 3, 57, 56
1, 21504, Note_on_c, 9, 38, 55
1, 21505, Note_off_c, 3, 59, 64
1, 21506, Note_off_c, 6, 64, 64
1, 21506, Note_off_c, 9, 38, 64
1, 21506, Note_on_c, 6, 67, 99
1, 21551, Note_on_c, 9, 38, 69
1, 21553, Note_off_c, 6, 67, 64
1, 21553, Note_off_c, 9, 38, 64
1, 21553, Note_on_c, 6, 64, 104
1, 21565, Note_off_c, 1, 36, 64
1, 21583, Note_on_c, 9, 38, 30
1, 21585, Note_off_c, 9, 38, 64
1, 21587, Note_off_c, 2, 64, 64
1, 21588, Note_off_c, 3, 57, 64
1, 21592, Note_on_c, 9, 38, 32
1, 21594, Note_off_c, 9, 38, 64
1, 21597, Note_on_c, 2, 65, 70
1, 21597, Note_on_c, 1, 38, 63
1, 21600, Note_on_c, 3, 57, 60
1, 21600, Note_on_c, 3, 60, 57
1, 21600, Note_on_c, 9, 38, 62
1, 21602, Note_off_c, 9, 38, 64
1, 21602, Note_on_c, 6, 65, 99
1, 21605, Note_off_c, 6, 64, 64
1, 21612, Note_off_c, 3, 55, 64
1, 21624, Note_on_c, 9, 38, 54
1, 21626, Note_off_c, 9, 38, 64
1, 21647, Note_on_c, 9, 38, 58
1, 21649, Note_off_c, 9, 38, 64
1, 21671, Note_off_c, 6, 65, 64
1, 21671, Note_on_c, 9, 38, 67
1, 21672, Note_on_c, 6, 67, 96
1, 21673, Note_off_c, 9, 38, 64
1, 21695, Note_on_c, 9, 38, 65
1, 21697, Note_off_c, 9, 38, 64
1, 21697, Note_on_c, 3, 59, 57
1, 21697, Note_on_c, 6, 69, 108
1, 21699, Note_off_c, 6, 67, 64
1, 21708, Note_off_c, 3, 60, 64
1, 21743, Note_on_c, 9, 38, 56
1, 21745, Note_off_c, 9, 38, 64
1, 21746, Note_on_c, 6, 71, 105
1, 21747, Note_off_c, 1, 38, 64
1, 21752, Note_off_c, 6, 69, 64
1, 21775, Note_on_c, 9, 38, 25
1, 21777, Note_off_c, 9, 38, 64
1, 21781, Note_off_c, 3, 59, 64
1, 21783, Note_on_c, 9, 38, 32
1, 21785, Note_off_c, 2, 65, 64
1, 21785, Note_off_c, 9, 38, 64
1, 21788, Note_on_c, 1, 40, 57
1, 21790, Note_on_c, 2, 67, 76
1, 21792, Note_on_c, 9, 38, 60
1, 21793, Note_on_c, 3, 62, 63
1, 21793, Note_on_c, 3, 59, 61
1, 21794, Note_off_c, 9, 38, 64
1, 21794, Note_on_c, 6, 67, 105
1, 21799, Note_off_c, 6, 71, 64
1, 21809, Note_off_c, 3, 57, 64
1, 21839, Note_on_c, 9, 38, 53
1, 21841, Note_off_c, 9, 38, 64
1, 21864, Note_on_c, 9, 38, 57
1, 21866, Note_off_c, 9, 38, 64
1, 21887, Note_on_c, 9, 38, 58
1, 21889, Note_off_c, 9, 38, 64
1, 21890, Note_on_c, 3, 60, 63
1, 21906, Note_off_c, 3, 62, 64
1, 21933, Note_off_c, 2, 67, 64
1, 21935, Note_on_c, 2, 69, 70
1, 21935, Note_on_c, 9, 38, 71
1, 21937, Note_off_c, 9, 38, 64
1, 21962, Note_off_c, 1, 40, 64
1, 21967, Note_off_c, 3, 60, 64
1, 21968, Note_on_c, 9, 38, 29
1, 21970, Note_off_c, 9, 38, 64
1, 21975, Note_on_c, 9, 38, 34
1, 21977, Note_off_c, 9, 38, 64
1, 21981, Note_on_c, 1, 45, 59
1, 21982, Note_off_c, 6, 67, 64
1, 21983, Note_on_c, 6, 72, 100
1, 21983, Note_on_c, 3, 64, 66
1, 21984, Pitch_bend_c, 6, 6144
1, 21984, Note_on_c, 2, 71, 75
1, 21984, Note_on_c, 9, 38, 63
1, 21984, Note_on_c, 3, 60, 65
1, 21986, Note_off_c, 9, 38, 64
1, 21987, Pitch_bend_c, 6, 6528
1, 21990, Note_off_c, 2, 69, 64
1, 21990, Pitch_bend_c, 6, 6912
1, 21993, Note_off_c, 3, 59, 64
1, 21993, Pitch_bend_c, 6, 7296
1, 21996, Pitch_bend_c, 6, 7680
1, 21999, Pitch_bend_c, 6, 8064
1, 22000, Pitch_bend_c, 6, 8192
1, 22008, Note_on_c, 9, 38, 60
1, 22010, Note_off_c, 9, 38, 64
1, 22031, Note_on_c, 9, 38, 54
1, 22033, Note_off_c, 9, 38, 64
1, 22055, Note_on_c, 9, 38, 63
1, 22057, Note_off_c, 9, 38, 64
1, 22079, Note_on_c, 9, 38, 65
1, 22080, Note_on_c, 2, 69, 70
1, 22081, Note_off_c, 9, 38, 64
1, 22088, Note_off_c, 2, 71, 64
1, 22127, Note_on_c, 9, 38, 54
1, 22129, Note_off_c, 9, 38, 64
1, 22136, Note_off_c, 1, 45, 64
1, 22160, Note_on_c, 9, 38, 28
1, 22162, Note_off_c, 9, 38, 64
1, 22167, Note_on_c, 9, 38, 31
1, 22168, Note_off_c, 6, 72, 64
1, 22169, Note_off_c, 9, 38, 64
1, 22173, Note_off_c, 2, 69, 64
1, 22174, Note_off_c, 3, 64, 64
1, 22174, Note_off_c, 3, 60, 64
1, 22174, Note_on_c, 1, 50, 73
1, 22174, Note_on_c, 1, 38, 69
1, 22176, Control_c, 5, 11, 97
1, 22176, Note_on_c, 7, 60, 64
1, 22176, Note_on_c, 0, 38, 87
1, 22176, Note_on_c, 9, 38, 60
1, 22177, Note_on_c, 4, 69, 97
1, 22177, Note_on_c, 5, 57, 73
1, 22178, Note_off_c, 9, 38, 64
1, 22178, Note_on_c, 5, 65, 81
1, 22192, Note_off_c, 1, 50, 64
1, 22192, Note_off_c, 1, 38, 64
1, 22196, Note_off_c, 0, 38, 64
1, 22201, Control_c, 5, 11, 99
1, 22224, Note_on_c, 9, 38, 57
1, 22226, Note_off_c, 9, 38, 64
1, 22227, Control_c, 5, 11, 101
1, 22247, Note_on_c, 9, 38, 61
1, 22248, Note_off_c, 4, 69, 64
1, 22248, Note_on_c, 4, 71, 98
1, 22249, Note_off_c, 9, 38, 64
1, 22252, Control_c, 5, 11, 103
1, 22270, Note_on_c, 1, 50, 73
1, 22270, Note_on_c, 1, 38, 73
1, 22271, Note_on_c, 9, 38, 63
1, 22272, Note_off_c, 4, 71, 64
1, 22272, Note_on_c, 0, 38, 83
1, 22273, Note_off_c, 9, 38, 64
1, 22273, Note_on_c, 4, 72, 100
1, 22278, Control_c, 5, 11, 105
1, 22288, Note_off_c, 1, 50, 64
1, 22288, Note_off_c, 1, 38, 64
1, 22292, Note_off_c, 0, 38, 64
1, 22304, Control_c, 5, 11, 107
1, 22319, Note_off_c, 4, 72, 64
1, 22319, Note_on_c, 9, 38, 75
1, 22321, Note_off_c, 9, 38, 64
1, 22322, Note_on_c, 4, 76, 103
1, 22329, Control_c, 5, 11, 109
1, 22344, Note_off_c, 5, 65, 64
1, 22345, Note_off_c, 5, 57, 64
1, 22348, Note_off_c, 7, 60, 64
1, 22351, Note_on_c, 9, 38, 31
1, 22353, Note_off_c, 9, 38, 64
1, 22355, Control_c, 5, 11, 111
1, 22359, Note_on_c, 9, 38, 41
1, 22361, Note_off_c, 9, 38, 64
1, 22366, Note_on_c, 1, 43, 79
1, 22367, Note_on_c, 0, 43, 94
1, 22368, Note_off_c, 4, 76, 64
1, 22368, Note_on_c, 9, 38, 70
1, 22369, Note_on_c, 7, 60, 66
1, 22369, Note_on_c, 4, 74, 100
1, 22369, Note_on_c, 5, 55, 73
1, 22369, Note_on_c, 5, 65, 76
1, 22370, Note_off_c, 9, 38, 64
1, 22380, Control_c, 5, 11, 113
1, 22384, Note_off_c, 1, 43, 64
1, 22385, Note_off_c, 0, 43, 64
1, 22391, Note_on_c, 9, 38, 63
1, 22393, Note_off_c, 9, 38, 64
1, 22406, Control_c, 5, 11, 115
1, 22415, Note_on_c, 9, 38, 66
1, 22417, Note_off_c, 9, 38, 64
1, 22432, Control_c, 5, 11, 117
1, 22439, Note_on_c, 9, 38, 75
1, 22441, Note_off_c, 9, 38, 64
1, 22457, Control_c, 5, 11, 119
1, 22461, Note_on_c, 1, 43, 76
1, 22463, Note_on_c, 0, 43, 94
1, 22464, Note_on_c, 9, 38, 84
1, 22466, Note_off_c, 9, 38, 64
1, 22466, Note_on_c, 7, 59, 67
1, 22476, Note_off_c, 7, 60, 64
1, 22479, Note_off_c, 1, 43, 64
1, 22481, Note_off_c, 0, 43, 64
1, 22483, Control_c, 5, 11, 121
1, 22487, Note_on_c, 9, 38, 78
1, 22489, Note_off_c, 9, 38, 64
1, 22508, Control_c, 5, 11, 123
1, 22511, Note_off_c, 4, 74, 64
1, 22511, Note_on_c, 9, 38, 83
1, 22512, Note_on_c, 4, 67, 92
1, 22513, Note_off_c, 9, 38, 64
1, 22531, Note_off_c, 5, 65, 64
1, 22534, Note_off_c, 5, 55, 64
1, 22534, Control_c, 5, 11, 125
1, 22536, Note_on_c, 9, 38, 94
1, 22538, Note_off_c, 9, 38, 64
1, 22558, Note_on_c, 1, 48, 78
1, 22558, Note_on_c, 1, 36, 66
1, 22559, Note_off_c, 4, 67, 64
1, 22559, Control_c, 3, 0, 0
1, 22559, Note_on_c, 0, 48, 94
1, 22559, Note_on_c, 9, 38, 90
1, 22560, Control_c, 5, 11, 127
1, 22560, Control_c, 3, 32, 0
1, 22561, Note_off_c, 9, 38, 64
1, 22561, Note_on_c, 7, 58, 63
1, 22561, Program_c, 3, 49
1, 22561, Note_on_c, 5, 55, 75
1, 22561, Note_on_c, 5, 65, 75
1, 22562, Control_c, 3, 91, 80
1, 22562, Note_on_c, 4, 72, 98
1, 22568, Note_off_c, 7, 59, 64
1, 22576, Note_off_c, 1, 48, 64
1, 22576, Note_off_c, 1, 36, 64
1, 22577, Note_off_c, 0, 48, 64
1, 22608, Note_on_c, 9, 38, 82
1, 22610, Note_off_c, 9, 38, 64
1, 22631, Note_on_c, 9, 38, 74
1, 22633, Note_off_c, 9, 38, 64
1, 22653, Note_on_c, 1, 43, 87
1, 22655, Note_on_c, 0, 43, 97
1, 22655, Note_on_c, 9, 38, 90
1, 22657, Note_off_c, 9, 38, 64
1, 22671, Note_off_c, 1, 43, 64
1, 22673, Note_off_c, 0, 43, 64
1, 22679, Note_on_c, 9, 38, 81
1, 22681, Note_off_c, 9, 38, 64
1, 22703, Note_on_c, 9, 38, 74
1, 22705, Note_off_c, 9, 38, 64
1, 22728, Note_on_c, 9, 38, 85
1, 22730, Note_off_c, 9, 38, 64
1, 22750, Note_on_c, 1, 48, 78
1, 22750, Note_on_c, 1, 36, 67
1, 22751, Note_off_c, 5, 65, 64
1, 22751, Note_on_c, 0, 48, 89
1, 22752, Note_on_c, 5, 64, 78
1, 22752, Note_on_c, 9, 38, 90
1, 22754, Note_off_c, 9, 38, 64
1, 22768, Note_off_c, 1, 48, 64
1, 22768, Note_off_c, 1, 36, 64
1, 22770, Note_off_c, 0, 48, 64
1, 22799, Note_on_c, 9, 38, 75
1, 22801, Note_off_c, 9, 38, 64
1, 22824, Note_on_c, 9, 38, 77
1, 22826, Note_off_c, 9, 38, 64
1, 22846, Note_on_c, 1, 48, 76
1, 22846, Note_on_c, 1, 36, 73
1, 22847, Note_on_c, 2, 72, 67
1, 22847, Note_on_c, 3, 72, 61
1, 22847, Note_on_c, 0, 48, 97
1, 22848, Note_on_c, 8, 72, 49
1, 22848, Note_on_c, 6, 48, 51
1, 22848, Note_on_c, 9, 38, 90
1, 22850, Note_off_c, 9, 38, 64
1, 22863, Note_off_c, 2, 72, 64
1, 22863, Note_off_c, 3, 72, 64
1, 22863, Note_on_c, 2, 74, 77
1, 22863, Note_on_c, 3, 74, 61
1, 22864, Note_off_c, 1, 48, 64
1, 22864, Note_off_c, 1, 36, 64
1, 22864, Note_off_c, 8, 72, 64
1, 22864, Note_on_c, 8, 74, 49
1, 22865, Note_off_c, 0, 48, 64
1, 22879, Note_off_c, 2, 74, 64
1, 22879, Note_off_c, 3, 74, 64
1, 22879, Note_on_c, 2, 76, 78
1, 22879, Note_on_c, 3, 76, 62
1, 22880, Note_off_c, 8, 74, 64
1, 22880, Note_on_c, 8, 76, 50
1, 22890, Note_off_c, 4, 72, 64
1, 22895, Note_off_c, 2, 76, 64
1, 22895, Note_off_c, 3, 76, 64
1, 22895, Note_on_c, 9, 38, 87
1, 22895, Note_on_c, 2, 77, 80
1, 22895, Note_on_c, 3, 77, 64
1, 22896, Note_off_c, 8, 76, 64
1, 22896, Note_on_c, 8, 77, 51
1, 22897, Note_off_c, 9, 38, 64
1, 22907, Note_off_c, 2, 77, 64
1, 22907, Note_off_c, 3, 77, 64
1, 22907, Note_on_c, 2, 79, 82
1, 22907, Note_on_c, 3, 79, 66
1, 22908, Note_off_c, 8, 77, 64
1, 22908, Note_on_c, 8, 79, 52
1, 22919, Note_off_c, 2, 79, 64
1, 22919, Note_off_c, 3, 79, 64
1, 22919, Note_on_c, 2, 81, 83
1, 22919, Note_on_c, 3, 81, 67
1, 22920, Note_off_c, 8, 79, 64
1, 22920, Note_on_c, 8, 81, 53
1, 22928, Note_off_c, 5, 64, 64
1, 22929, Note_off_c, 5, 55, 64
1, 22930, Note_off_c, 7, 58, 64
1, 22931, Note_off_c, 2, 81, 64
1, 22931, Note_off_c, 3, 81, 64
1, 22931, Note_on_c, 2, 82, 85
1, 22931, Note_on_c, 3, 82, 68
1, 22932, Note_off_c, 8, 81, 64
1, 22932, Note_on_c, 8, 82, 54
1, 22943, Note_off_c, 2, 82, 64
1, 22943, Note_off_c, 3, 82, 64
1, 22943, Note_on_c, 1, 43, 79
1, 22943, Note_on_c, 1, 31, 62
1, 22943, Note_on_c, 9, 38, 60
1, 22944, Note_off_c, 6, 48, 64
1, 22944, Note_off_c, 8, 82, 64
1, 22944, Note_on_c, 0, 43, 89
1, 22944, Note_on_c, 2, 84, 89
1, 22944, Note_on_c, 3, 84, 72
1, 22945, Note_off_c, 9, 38, 64
1, 22945, Note_on_c, 7, 65, 75
1, 22945, Note_on_c, 5, 55, 80
1, 22945, Note_on_c, 5, 58, 78
1, 22945, Note_on_c, 8, 84, 57
1, 22946, Note_on_c, 6, 60, 78
1, 22961, Note_off_c, 1, 43, 64
1, 22961, Note_off_c, 1, 31, 64
1, 22962, Note_off_c, 0, 43, 64
1, 22963, Note_off_c, 5, 55, 64
1, 22964, Note_off_c, 5, 58, 64
1, 22966, Note_off_c, 7, 65, 64
1, 22991, Note_on_c, 9, 38, 62
1, 22993, Note_off_c, 9, 38, 64
1, 23015, Note_on_c, 9, 38, 63
1, 23017, Note_off_c, 9, 38, 64
1, 23039, Note_on_c, 1, 36, 79
1, 23039, Note_on_c, 5, 55, 77
1, 23040, Note_on_c, 0, 36, 73
1, 23040, Note_on_c, 7, 64, 75
1, 23040, Note_on_c, 9, 38, 60
1, 23040, Note_on_c, 5, 58, 73
1, 23042, Note_off_c, 9, 38, 64
1, 23055, Note_off_c, 5, 55, 64
1, 23056, Note_off_c, 7, 64, 64
1, 23057, Note_off_c, 1, 36, 64
1, 23059, Note_off_c, 0, 36, 64
1, 23060, Note_off_c, 5, 58, 64
1, 23088, Note_on_c, 9, 38, 62
1, 23090, Note_off_c, 9, 38, 64
1, 23135, Note_on_c, 1, 43, 78
1, 23135, Note_on_c, 1, 31, 72
1, 23135, Note_on_c, 5, 58, 73
1, 23135, Note_on_c, 9, 38, 63
1, 23136, Note_on_c, 0, 43, 85
1, 23136, Note_on_c, 5, 55, 73
1, 23137, Note_off_c, 9, 38, 64
1, 23137, Note_on_c, 7, 62, 61
1, 23151, Note_off_c, 5, 58, 64
1, 23152, Note_off_c, 5, 55, 64
1, 23153, Note_off_c, 1, 43, 64
1, 23153, Note_off_c, 1, 31, 64
1, 23154, Note_off_c, 0, 43, 64
1, 23156, Note_off_c, 7, 62, 64
1, 23184, Note_on_c, 9, 38, 59
1, 23186, Note_off_c, 9, 38, 64
1, 23210, Note_off_c, 2, 84, 64
1, 23210, Note_off_c, 3, 84, 64
1, 23211, Note_off_c, 8, 84, 64
1, 23215, Note_off_c, 6, 60, 64
1, 23230, Note_on_c, 2, 82, 96
1, 23230, Note_on_c, 3, 82, 70
1, 23231, Note_on_c, 8, 82, 56
1, 23231, Note_on_c, 1, 36, 79
1, 23231, Note_on_c, 5, 58, 78
1, 23232, Note_on_c, 0, 36, 70
1, 23232, Note_on_c, 7, 64, 70
1, 23232, Note_on_c, 9, 38, 57
1, 23232, Note_on_c, 5, 55, 75
1, 23234, Note_off_c, 9, 38, 64
1, 23236, Note_on_c, 6, 58, 72
1, 23247, Note_off_c, 5, 58, 64
1, 23249, Note_off_c, 1, 36, 64
1, 23249, Note_off_c, 7, 64, 64
1, 23250, Note_off_c, 0, 36, 64
1, 23250, Note_off_c, 5, 55, 64
1, 23255, Note_on_c, 9, 38, 60
1, 23257, Note_off_c, 9, 38, 64
1, 23280, Note_on_c, 9, 38, 58
1, 23282, Note_off_c, 9, 38, 64
1, 23287, Note_off_c, 2, 82, 64
1, 23287, Note_off_c, 3, 82, 64
1, 23288, Note_off_c, 8, 82, 64
1, 23289, Note_on_c, 2, 84, 77
1, 23289, Note_on_c, 3, 84, 61
1, 23290, Note_on_c, 8, 84, 50
1, 23294, Note_off_c, 6, 58, 64
1, 23296, Note_on_c, 6, 60, 69
1, 23304, Note_on_c, 9, 38, 59
1, 23306, Note_off_c, 9, 38, 64
1, 23307, Note_on_c, 2, 82, 71
1, 23307, Note_on_c, 3, 82, 61
1, 23308, Note_on_c, 8, 82, 45
1, 23310, Note_off_c, 2, 84, 64
1, 23310, Note_off_c, 3, 84, 64
1, 23311, Note_off_c, 8, 84, 64
1, 23313, Note_on_c, 6, 58, 57
1, 23317, Note_off_c, 6, 60, 64
1, 23326, Note_on_c, 1, 43, 75
1, 23326, Note_on_c, 1, 31, 61
1, 23327, Note_on_c, 0, 43, 83
1, 23327, Note_on_c, 5, 58, 66
1, 23327, Note_on_c, 9, 38, 62
1, 23328, Note_off_c, 2, 82, 64
1, 23328, Note_off_c, 3, 82, 64
1, 23328, Note_on_c, 7, 65, 73
1, 23328, Note_on_c, 2, 79, 80
1, 23328, Note_on_c, 3, 79, 64
1, 23328, Note_on_c, 5, 55, 73
1, 23329, Note_off_c, 8, 82, 64
1, 23329, Note_off_c, 9, 38, 64
1, 23329, Note_on_c, 8, 79, 51
1, 23331, Note_on_c, 6, 55, 62
1, 23337, Note_off_c, 6, 58, 64
1, 23343, Note_off_c, 5, 58, 64
1, 23344, Note_off_c, 1, 43, 64
1, 23344, Note_off_c, 1, 31, 64
1, 23344, Note_off_c, 7, 65, 64
1, 23345, Note_off_c, 0, 43, 64
1, 23345, Note_off_c, 5, 55, 64
1, 23376, Note_on_c, 4, 72, 95
1, 23376, Note_on_c, 9, 38, 65
1, 23378, Note_off_c, 9, 38, 64
1, 23392, Note_off_c, 4, 72, 64
1, 23400, Note_on_c, 4, 72, 97
1, 23400, Note_on_c, 9, 38, 67
1, 23402, Note_off_c, 9, 38, 64
1, 23416, Note_off_c, 4, 72, 64
1, 23422, Note_on_c, 1, 36, 73
1, 23423, Note_on_c, 7, 64, 70
1, 23423, Note_on_c, 5, 55, 70
1, 23423, Note_on_c, 9, 38, 60
1, 23424, Note_on_c, 0, 36, 69
1, 23424, Note_on_c, 4, 72, 100
1, 23424, Note_on_c, 5, 58, 70
1, 23425, Note_off_c, 9, 38, 64
1, 23437, Note_off_c, 7, 64, 64
1, 23439, Note_off_c, 5, 55, 64
1, 23440, Note_off_c, 1, 36, 64
1, 23440, Note_off_c, 4, 72, 64
1, 23440, Note_off_c, 5, 58, 64
1, 23442, Note_off_c, 0, 36, 64
1, 23472, Note_on_c, 9, 38, 55
1, 23472, Note_on_c, 4, 67, 94
1, 23474, Note_off_c, 9, 38, 64
1, 23488, Note_off_c, 4, 67, 64
1, 23518, Note_on_c, 1, 43, 78
1, 23518, Note_on_c, 1, 31, 63
1, 23519, Note_on_c, 5, 55, 75
1, 23519, Note_on_c, 9, 38, 59
1, 23520, Note_on_c, 7, 62, 66
1, 23520, Note_on_c, 0, 43, 85
1, 23520, Note_on_c, 4, 72, 94
1, 23520, Note_on_c, 5, 58, 78
1, 23521, Note_off_c, 9, 38, 64
1, 23534, Note_off_c, 7, 62, 64
1, 23535, Note_off_c, 5, 55, 64
1, 23536, Note_off_c, 1, 43, 64
1, 23536, Note_off_c, 1, 31, 64
1, 23536, Note_off_c, 4, 72, 64
1, 23536, Note_off_c, 5, 58, 64
1, 23538, Note_off_c, 0, 43, 64
1, 23568, Note_on_c, 9, 38, 60
1, 23568, Note_on_c, 4, 72, 97
1, 23570, Note_off_c, 9, 38, 64
1, 23584, Note_off_c, 4, 72, 64
1, 23592, Note_on_c, 4, 72, 98
1, 23608, Note_off_c, 4, 72, 64
1, 23613, Note_on_c, 1, 36, 76
1, 23615, Note_on_c, 9, 38, 59
1, 23616, Note_on_c, 7, 64, 70
1, 23616, Note_on_c, 0, 36, 65
1, 23616, Note_on_c, 5, 58, 75
1, 23616, Note_on_c, 5, 55, 75
1, 23616, Note_on_c, 4, 74, 100
1, 23617, Note_off_c, 9, 38, 64
1, 23631, Note_off_c, 1, 36, 64
1, 23631, Note_off_c, 7, 64, 64
1, 23632, Note_off_c, 5, 58, 64
1, 23634, Note_off_c, 5, 55, 64
1, 23636, Note_off_c, 0, 36, 64
1, 23639, Note_on_c, 9, 38, 61
1, 23640, Note_off_c, 4, 74, 64
1, 23640, Note_on_c, 4, 72, 97
1, 23641, Note_off_c, 9, 38, 64
1, 23656, Note_off_c, 4, 72, 64
1, 23663, Note_on_c, 9, 38, 56
1, 23664, Note_on_c, 4, 70, 96
1, 23665, Note_off_c, 9, 38, 64
1, 23680, Note_off_c, 4, 70, 64
1, 23687, Note_on_c, 9, 38, 60
1, 23688, Note_on_c, 4, 74, 94
1, 23689, Note_off_c, 9, 38, 64
1, 23704, Note_off_c, 4, 74, 64
1, 23710, Note_on_c, 1, 43, 76
1, 23710, Note_on_c, 1, 31, 65
1, 23711, Note_on_c, 7, 65, 66
1, 23711, Note_on_c, 0, 43, 79
1, 23711, Note_on_c, 5, 55, 73
1, 23712, Note_on_c, 9, 38, 60
1, 23712, Note_on_c, 4, 72, 97
1, 23712, Note_on_c, 5, 58, 85
1, 23714, Note_off_c, 9, 38, 64
1, 23725, Note_off_c, 7, 65, 64
1, 23727, Note_off_c, 5, 55, 64
1, 23728, Note_off_c, 1, 43, 64
1, 23728, Note_off_c, 1, 31, 64
1, 23728, Note_off_c, 4, 72, 64
1, 23728, Note_off_c, 5, 58, 64
1, 23729, Note_off_c, 0, 43, 64
1, 23732, Note_off_c, 6, 55, 64
1, 23734, Note_off_c, 2, 79, 64
1, 23734, Note_off_c, 3, 79, 64
1, 23735, Note_off_c, 8, 79, 64
1, 23760, Note_on_c, 9, 38, 61
1, 23762, Note_off_c, 9, 38, 64
1, 23783, Note_on_c, 9, 38, 63
1, 23785, Note_off_c, 9, 38, 64
1, 23806, Note_on_c, 1, 36, 76
1, 23807, Note_on_c, 2, 79, 77
1, 23807, Note_on_c, 3, 79, 61
1, 23807, Note_on_c, 6, 55, 73
1, 23807, Note_on_c, 0, 36, 73
1, 23807, Note_on_c, 5, 55, 70
1, 23807, Note_on_c, 9, 38, 61
1, 23808, Note_on_c, 8, 79, 50
1, 23808, Note_on_c, 7, 64, 70
1, 23808, Note_on_c, 5, 58, 79
1, 23809, Note_off_c, 9, 38, 64
1, 23824, Note_off_c, 1, 36, 64
1, 23824, Note_off_c, 5, 55, 64
1, 23824, Note_off_c, 5, 58, 64
1, 23825, Note_off_c, 0, 36, 64
1, 23825, Note_off_c, 7, 64, 64
1, 23828, Note_off_c, 6, 55, 64
1, 23830, Note_off_c, 2, 79, 64
1, 23830, Note_off_c, 3, 79, 64
1, 23831, Note_off_c, 8, 79, 64
1, 23855, Note_on_c, 6, 57, 75
1, 23855, Note_on_c, 9, 38, 58
1, 23856, Note_on_c, 2, 81, 82
1, 23856, Note_on_c, 3, 81, 66
1, 23857, Note_off_c, 9, 38, 64
1, 23857, Note_on_c, 8, 81, 52
1, 23875, Note_off_c, 6, 57, 64
1, 23880, Note_off_c, 2, 81, 64
1, 23880, Note_off_c, 3, 81, 64
1, 23881, Note_off_c, 8, 81, 64
1, 23902, Note_on_c, 1, 31, 64
1, 23902, Note_on_c, 1, 43, 78
1, 23903, Note_on_c, 0, 43, 83
1, 23903, Note_on_c, 5, 58, 81
1, 23903, Note_on_c, 5, 55, 70
1, 23903, Note_on_c, 6, 58, 73
1, 23903, Note_on_c, 9, 38, 65
1, 23903, Note_on_c, 2, 82, 82
1, 23903, Note_on_c, 3, 82, 66
1, 23904, Note_on_c, 7, 62, 64
1, 23904, Note_on_c, 8, 82, 52
1, 23905, Note_off_c, 9, 38, 64
1, 23919, Note_off_c, 5, 58, 64
1, 23919, Note_off_c, 5, 55, 64
1, 23920, Note_off_c, 1, 31, 64
1, 23920, Note_off_c, 1, 43, 64
1, 23921, Note_off_c, 0, 43, 64
1, 23923, Note_off_c, 7, 62, 64
1, 23950, Note_off_c, 2, 82, 64
1, 23950, Note_off_c, 3, 82, 64
1, 23951, Note_off_c, 8, 82, 64
1, 23951, Note_on_c, 9, 38, 57
1, 23953, Note_off_c, 9, 38, 64
1, 23958, Note_off_c, 6, 58, 64
1, 23974, Note_on_c, 2, 81, 71
1, 23974, Note_on_c, 3, 81, 61
1, 23975, Note_on_c, 6, 57, 64
1, 23975, Note_on_c, 8, 81, 45
1, 23992, Note_off_c, 6, 57, 64
1, 23993, Note_off_c, 2, 81, 64
1, 23993, Note_off_c, 3, 81, 64
1, 23994, Note_off_c, 8, 81, 64
1, 23997, Note_on_c, 2, 82, 89
1, 23997, Note_on_c, 3, 82, 72
1, 23998, Note_on_c, 1, 36, 78
1, 23998, Note_on_c, 8, 82, 57
1, 23999, Note_on_c, 0, 36, 76
1, 23999, Note_on_c, 5, 58, 81
1, 23999, Note_on_c, 7, 64, 67
1, 23999, Note_on_c, 6, 58, 78
1, 24000, Note_on_c, 9, 38, 55
1, 24000, Note_on_c, 5, 55, 71
1, 24002, Note_off_c, 9, 38, 64
1, 24013, Note_off_c, 6, 58, 64
1, 24015, Note_off_c, 5, 58, 64
1, 24016, Note_off_c, 1, 36, 64
1, 24016, Note_off_c, 7, 64, 64
1, 24016, Note_off_c, 5, 55, 64
1, 24017, Note_off_c, 0, 36, 64
1, 24018, Note_off_c, 2, 82, 64
1, 24018, Note_off_c, 3, 82, 64
1, 24019, Note_off_c, 8, 82, 64
1, 24023, Note_on_c, 9, 38, 64
1, 24025, Note_off_c, 9, 38, 64
1, 24046, Note_on_c, 2, 86, 82
1, 24046, Note_on_c, 3, 86, 66
1, 24047, Note_on_c, 8, 86, 52
1, 24048, Note_on_c, 6, 62, 72
1, 24048, Note_on_c, 9, 38, 56
1, 24050, Note_off_c, 9, 38, 64
1, 24065, Note_off_c, 6, 62, 64
1, 24067, Note_off_c, 2, 86, 64
1, 24067, Note_off_c, 3, 86, 64
1, 24068, Note_off_c, 8, 86, 64
1, 24072, Note_on_c, 9, 38, 65
1, 24074, Note_off_c, 9, 38, 64
1, 24094, Note_on_c, 1, 43, 78
1, 24094, Note_on_c, 1, 31, 62
1, 24095, Note_on_c, 0, 43, 91
1, 24095, Note_on_c, 7, 65, 67
1, 24095, Note_on_c, 5, 58, 83
1, 24095, Note_on_c, 5, 55, 73
1, 24095, Note_on_c, 2, 84, 77
1, 24095, Note_on_c, 3, 84, 61
1, 24095, Note_on_c, 9, 38, 65
1, 24096, Note_on_c, 8, 84, 50
1, 24096, Note_on_c, 6, 60, 66
1, 24097, Note_off_c, 9, 38, 64
1, 24111, Note_off_c, 5, 58, 64
1, 24111, Note_off_c, 5, 55, 64
1, 24112, Note_off_c, 1, 43, 64
1, 24112, Note_off_c, 1, 31, 64
1, 24113, Note_off_c, 0, 43, 64
1, 24113, Note_off_c, 7, 65, 64
1, 24143, Note_on_c, 9, 38, 65
1, 24145, Note_off_c, 9, 38, 64
1, 24167, Note_on_c, 9, 38, 61
1, 24169, Note_off_c, 9, 38, 64
1, 24181, Note_off_c, 2, 84, 64
1, 24181, Note_off_c, 3, 84, 64
1, 24182, Note_off_c, 8, 84, 64
1, 24183, Note_off_c, 6, 60, 64
1, 24190, Note_on_c, 1, 36, 73
1, 24191, Note_on_c, 0, 36, 75
1, 24191, Note_on_c, 7, 64, 66
1, 24191, Note_on_c, 5, 58, 81
1, 24191, Note_on_c, 5, 55, 68
1, 24191, Note_on_c, 2, 79, 79
1, 24191, Note_on_c, 3, 79, 63
1, 24192, Note_on_c, 8, 79, 50
1, 24192, Note_on_c, 9, 38, 66
1, 24194, Note_off_c, 9, 38, 64
1, 24194, Note_on_c, 6, 55, 73
1, 24207, Note_off_c, 7, 64, 64
1, 24207, Note_off_c, 5, 58, 64
1, 24207, Note_off_c, 5, 55, 64
1, 24208, Note_off_c, 1, 36, 64
1, 24209, Note_off_c, 0, 36, 64
1, 24239, Note_on_c, 9, 38, 55
1, 24241, Note_off_c, 9, 38, 64
1, 24286, Note_on_c, 1, 43, 75
1, 24286, Note_on_c, 1, 31, 63
1, 24287, Note_on_c, 7, 62, 65
1, 24287, Note_on_c, 5, 55, 71
1, 24287, Note_on_c, 5, 58, 85
1, 24288, Note_on_c, 0, 43, 85
1, 24288, Note_on_c, 9, 38, 60
1, 24290, Note_off_c, 9, 38, 64
1, 24302, Note_off_c, 7, 62, 64
1, 24303, Note_off_c, 5, 55, 64
1, 24303, Note_off_c, 5, 58, 64
1, 24304, Note_off_c, 1, 43, 64
1, 24304, Note_off_c, 1, 31, 64
1, 24306, Note_off_c, 0, 43, 64
1, 24335, Note_on_c, 9, 38, 63
1, 24337, Note_off_c, 9, 38, 64
1, 24347, Note_off_c, 6, 55, 64
1, 24351, Note_off_c, 2, 79, 64
1, 24351, Note_off_c, 3, 79, 64
1, 24352, Note_off_c, 8, 79, 64
1, 24381, Note_on_c, 1, 36, 65
1, 24382, Note_on_c, 2, 84, 91
1, 24382, Note_on_c, 3, 84, 66
1, 24383, Note_on_c, 8, 84, 59
1, 24384, Note_on_c, 6, 60, 76
1, 24384, Note_on_c, 7, 64, 69
1, 24384, Note_on_c, 5, 58, 83
1, 24384, Note_on_c, 5, 55, 71
1, 24384, Note_on_c, 0, 36, 78
1, 24384, Note_on_c, 9, 38, 59
1, 24386, Note_off_c, 9, 38, 64
1, 24399, Note_off_c, 1, 36, 64
1, 24399, Note_off_c, 7, 64, 64
1, 24400, Note_off_c, 5, 58, 64
1, 24401, Note_off_c, 5, 55, 64
1, 24404, Note_off_c, 0, 36, 64
1, 24408, Note_on_c, 9, 38, 60
1, 24410, Note_off_c, 9, 38, 64
1, 24432, Note_on_c, 9, 38, 57
1, 24434, Note_off_c, 9, 38, 64
1, 24455, Note_on_c, 9, 38, 61
1, 24457, Note_off_c, 9, 38, 64
1, 24477, Note_on_c, 1, 41, 83
1, 24478, Note_on_c, 1, 29, 72
1, 24479, Note_on_c, 7, 65, 70
1, 24479, Note_on_c, 5, 53, 73
1, 24479, Note_on_c, 9, 38, 60
1, 24480, Note_on_c, 2, 89, 87
1, 24480, Note_on_c, 3, 89, 70
1, 24480, Note_on_c, 0, 41, 81
1, 24480, Note_on_c, 5, 60, 83
1, 24481, Note_off_c, 2, 84, 64
1, 24481, Note_off_c, 3, 84, 64
1, 24481, Note_off_c, 6, 60, 64
1, 24481, Note_off_c, 9, 38, 64
1, 24481, Note_on_c, 8, 89, 56
1, 24481, Note_on_c, 6, 65, 75
1, 24482, Note_off_c, 8, 84, 64
1, 24495, Note_off_c, 1, 41, 64
1, 24495, Note_off_c, 7, 65, 64
1, 24495, Note_off_c, 5, 53, 64
1, 24496, Note_off_c, 1, 29, 64
1, 24498, Note_off_c, 0, 41, 64
1, 24500, Note_off_c, 5, 60, 64
1, 24528, Note_on_c, 9, 38, 64
1, 24530, Note_off_c, 9, 38, 64
1, 24551, Note_on_c, 5, 60, 76
1, 24552, Note_on_c, 9, 38, 67
1, 24554, Note_off_c, 9, 38, 64
1, 24569, Note_off_c, 5, 60, 64
1, 24574, Note_on_c, 1, 39, 79
1, 24575, Note_on_c, 0, 39, 85
1, 24576, Note_on_c, 7, 63, 72
1, 24576, Note_on_c, 5, 53, 75
1, 24576, Note_on_c, 5, 58, 85
1, 24576, Note_on_c, 9, 38, 66
1, 24578, Note_off_c, 9, 38, 64
1, 24590, Note_off_c, 7, 63, 64
1, 24592, Note_off_c, 1, 39, 64
1, 24592, Note_off_c, 5, 53, 64
1, 24593, Note_off_c, 0, 39, 64
1, 24595, Note_off_c, 5, 58, 64
1, 24623, Note_on_c, 9, 38, 57
1, 24625, Note_off_c, 9, 38, 64
1, 24669, Note_on_c, 1, 37, 78
1, 24671, Note_on_c, 0, 37, 78
1, 24671, Note_on_c, 7, 61, 75
1, 24671, Note_on_c, 5, 53, 68
1, 24672, Note_on_c, 9, 38, 59
1, 24672, Note_on_c, 5, 56, 75
1, 24674, Note_off_c, 9, 38, 64
1, 24686, Note_off_c, 7, 61, 64
1, 24687, Note_off_c, 1, 37, 64
1, 24687, Note_off_c, 5, 53, 64
1, 24688, Note_off_c, 5, 56, 64
1, 24689, Note_off_c, 0, 37, 64
1, 24720, Note_on_c, 9, 38, 65
1, 24722, Note_off_c, 9, 38, 64
1, 24751, Note_off_c, 2, 89, 64
1, 24751, Note_off_c, 3, 89, 64
1, 24752, Note_off_c, 8, 89, 64
1, 24764, Note_off_c, 6, 65, 64
1, 24766, Note_on_c, 1, 39, 78
1, 24767, Note_on_c, 0, 39, 87
1, 24767, Note_on_c, 5, 53, 68
1, 24768, Note_on_c, 2, 87, 86
1, 24768, Note_on_c, 7, 63, 72
1, 24768, Note_on_c, 9, 38, 63
1, 24768, Note_on_c, 5, 58, 85
1, 24770, Note_off_c, 9, 38, 64
1, 24770, Note_on_c, 3, 87, 69
1, 24771, Note_on_c, 8, 87, 55
1, 24774, Note_on_c, 6, 63, 70
1, 24782, Note_off_c, 7, 63, 64
1, 24783, Note_off_c, 5, 53, 64
1, 24784, Note_off_c, 1, 39, 64
1, 24784, Note_off_c, 5, 58, 64
1, 24785, Note_off_c, 0, 39, 64
1, 24791, Note_on_c, 9, 38, 60
1, 24793, Note_off_c, 9, 38, 64
1, 24815, Note_on_c, 9, 38, 59
1, 24817, Note_off_c, 9, 38, 64
1, 24822, Note_off_c, 2, 87, 64
1, 24824, Note_off_c, 3, 87, 64
1, 24825, Note_off_c, 8, 87, 64
1, 24827, Note_on_c, 2, 89, 68
1, 24827, Note_on_c, 3, 89, 61
1, 24828, Note_on_c, 8, 89, 55
1, 24832, Note_off_c, 6, 63, 64
1, 24835, Note_on_c, 6, 65, 66
1, 24839, Note_on_c, 9, 38, 62
1, 24841, Note_off_c, 9, 38, 64
1, 24849, Note_on_c, 2, 87, 82
1, 24849, Note_on_c, 3, 87, 66
1, 24850, Note_on_c, 8, 87, 52
1, 24850, Note_on_c, 6, 63, 57
1, 24852, Note_off_c, 2, 89, 64
1, 24852, Note_off_c, 3, 89, 64
1, 24853, Note_off_c, 8, 89, 64
1, 24856, Note_off_c, 6, 65, 64
1, 24861, Note_on_c, 1, 41, 76
1, 24861, Note_on_c, 1, 29, 67
1, 24863, Note_on_c, 0, 41, 85
1, 24863, Note_on_c, 7, 65, 67
1, 24863, Note_on_c, 5, 60, 91
1, 24863, Note_on_c, 5, 53, 68
1, 24863, Note_on_c, 9, 38, 61
1, 24865, Note_off_c, 9, 38, 64
1, 24865, Note_on_c, 2, 84, 89
1, 24865, Note_on_c, 3, 84, 64
1, 24866, Note_on_c, 8, 84, 55
1, 24867, Note_on_c, 6, 60, 60
1, 24870, Note_off_c, 2, 87, 64
1, 24870, Note_off_c, 3, 87, 64
1, 24871, Note_off_c, 8, 87, 64
1, 24875, Note_off_c, 6, 63, 64
1, 24877, Note_off_c, 7, 65, 64
1, 24879, Note_off_c, 1, 41, 64
1, 24879, Note_off_c, 1, 29, 64
1, 24879, Note_off_c, 5, 60, 64
1, 24879, Note_off_c, 5, 53, 64
1, 24881, Note_off_c, 0, 41, 64
1, 24905, Note_off_c, 2, 84, 64
1, 24905, Note_off_c, 3, 84, 64
1, 24906, Note_off_c, 8, 84, 64
1, 24911, Note_on_c, 9, 38, 62
1, 24913, Note_off_c, 9, 38, 64
1, 24931, Note_off_c, 6, 60, 64
1, 24934, Note_on_c, 5, 60, 76
1, 24936, Note_on_c, 9, 38, 65
1, 24938, Note_off_c, 9, 38, 64
1, 24950, Note_off_c, 5, 60, 64
1, 24957, Note_on_c, 1, 39, 72
1, 24958, Note_on_c, 2, 84, 84
1, 24958, Note_on_c, 3, 84, 68
1, 24959, Note_on_c, 0, 39, 91
1, 24959, Note_on_c, 7, 63, 69
1, 24959, Note_on_c, 8, 84, 53
1, 24959, Note_on_c, 5, 58, 100
1, 24959, Note_on_c, 5, 53, 71
1, 24959, Note_on_c, 9, 38, 62
1, 24961, Note_off_c, 9, 38, 64
1, 24961, Note_on_c, 6, 60, 72
1, 24973, Note_off_c, 3, 84, 64
1, 24973, Note_off_c, 7, 63, 64
1, 24974, Note_off_c, 8, 84, 64
1, 24975, Note_off_c, 1, 39, 64
1, 24975, Note_off_c, 2, 84, 64
1, 24975, Note_off_c, 5, 58, 64
1, 24975, Note_off_c, 5, 53, 64
1, 24977, Note_off_c, 0, 39, 64
1, 24985, Note_off_c, 6, 60, 64
1, 25006, Note_on_c, 2, 84, 86
1, 25006, Note_on_c, 3, 84, 69
1, 25007, Note_on_c, 8, 84, 55
1, 25008, Note_on_c, 9, 38, 60
1, 25010, Note_off_c, 9, 38, 64
1, 25010, Note_on_c, 6, 60, 73
1, 25023, Note_off_c, 2, 84, 64
1, 25023, Note_off_c, 3, 84, 64
1, 25024, Note_off_c, 8, 84, 64
1, 25034, Note_off_c, 6, 60, 64
1, 25053, Note_on_c, 1, 37, 78
1, 25053, Note_on_c, 2, 85, 84
1, 25053, Note_on_c, 3, 85, 68
1, 25054, Note_on_c, 8, 85, 53
1, 25055, Note_on_c, 0, 37, 91
1, 25055, Note_on_c, 7, 61, 67
1, 25055, Note_on_c, 5, 56, 89
1, 25055, Note_on_c, 9, 38, 58
1, 25056, Note_on_c, 5, 53, 71
1, 25057, Note_off_c, 9, 38, 64
1, 25057, Note_on_c, 6, 61, 78
1, 25068, Note_off_c, 2, 85, 64
1, 25068, Note_off_c, 3, 85, 64
1, 25069, Note_off_c, 7, 61, 64
1, 25071, Note_off_c, 1, 37, 64
1, 25071, Note_off_c, 8, 85, 64
1, 25071, Note_off_c, 5, 56, 64
1, 25072, Note_off_c, 5, 53, 64
1, 25073, Note_off_c, 0, 37, 64
1, 25080, Note_off_c, 6, 61, 64
1, 25101, Note_on_c, 2, 85, 90
1, 25101, Note_on_c, 3, 85, 61
1, 25102, Note_on_c, 8, 85, 58
1, 25104, Note_on_c, 9, 38, 64
1, 25105, Note_on_c, 6, 61, 66
1, 25106, Note_off_c, 9, 38, 64
1, 25117, Note_off_c, 2, 85, 64
1, 25117, Note_off_c, 3, 85, 64
1, 25120, Note_off_c, 8, 85, 64
1, 25124, Note_on_c, 2, 84, 84
1, 25124, Note_on_c, 3, 84, 61
1, 25125, Note_on_c, 8, 84, 53
1, 25129, Note_off_c, 6, 61, 64
1, 25129, Note_on_c, 6, 60, 67
1, 25144, Note_off_c, 2, 84, 64
1, 25148, Note_off_c, 3, 84, 64
1, 25148, Note_on_c, 3, 85, 68
1, 25149, Note_off_c, 8, 84, 64
1, 25149, Note_on_c, 8, 85, 59
1, 25150, Note_on_c, 1, 42, 72
1, 25150, Note_on_c, 1, 30, 70
1, 25150, Note_on_c, 2, 85, 86
1, 25151, Note_on_c, 0, 42, 81
1, 25151, Note_on_c, 5, 58, 89
1, 25151, Note_on_c, 5, 54, 73
1, 25151, Note_on_c, 9, 38, 62
1, 25152, Note_on_c, 7, 63, 72
1, 25152, Note_on_c, 6, 61, 78
1, 25153, Note_off_c, 9, 38, 64
1, 25154, Note_off_c, 6, 60, 64
1, 25161, Note_off_c, 3, 85, 64
1, 25166, Note_off_c, 8, 85, 64
1, 25166, Note_off_c, 7, 63, 64
1, 25167, Note_off_c, 2, 85, 64
1, 25167, Note_off_c, 5, 58, 64
1, 25167, Note_off_c, 5, 54, 64
1, 25167, Note_off_c, 6, 61, 64
1, 25168, Note_off_c, 1, 42, 64
1, 25168, Note_off_c, 1, 30, 64
1, 25169, Note_off_c, 0, 42, 64
1, 25176, Note_on_c, 9, 38, 60
1, 25178, Note_off_c, 9, 38, 64
1, 25198, Note_on_c, 3, 87, 64
1, 25198, Note_on_c, 2, 87, 88
1, 25199, Note_on_c, 8, 87, 57
1, 25199, Note_on_c, 6, 63, 70
1, 25199, Note_on_c, 9, 38, 57
1, 25201, Note_off_c, 9, 38, 64
1, 25213, Note_off_c, 3, 87, 64
1, 25215, Note_off_c, 2, 87, 64
1, 25216, Note_off_c, 8, 87, 64
1, 25216, Note_off_c, 6, 63, 64
1, 25224, Note_on_c, 9, 38, 58
1, 25226, Note_off_c, 9, 38, 64
1, 25247, Note_on_c, 3, 89, 69
1, 25247, Note_on_c, 2, 89, 86
1, 25247, Note_on_c, 6, 65, 76
1, 25248, Note_on_c, 8, 89, 55
1, 25296, Note_on_c, 4, 72, 95
1, 25296, Note_on_c, 0, 41, 94
1, 25296, Note_on_c, 5, 57, 94
1, 25296, Note_on_c, 9, 38, 88
1, 25297, Note_on_c, 7, 60, 85
1, 25297, Note_on_c, 5, 53, 91
1, 25298, Note_off_c, 9, 38, 64
1, 25310, Note_off_c, 4, 72, 64
1, 25312, Note_off_c, 0, 41, 64
1, 25312, Note_off_c, 5, 57, 64
1, 25315, Note_off_c, 7, 60, 64
1, 25315, Note_off_c, 5, 53, 64
1, 25320, Note_on_c, 4, 72, 94
1, 25320, Note_on_c, 0, 41, 91
1, 25320, Note_on_c, 9, 38, 91
1, 25321, Note_on_c, 5, 57, 85
1, 25321, Note_on_c, 5, 53, 83
1, 25322, Note_off_c, 9, 38, 64
1, 25322, Note_on_c, 7, 60, 78
1, 25334, Note_off_c, 4, 72, 64
1, 25336, Note_off_c, 0, 41, 64
1, 25339, Note_off_c, 5, 57, 64
1, 25339, Note_off_c, 7, 60, 64
1, 25340, Note_off_c, 5, 53, 64
1, 25343, Note_on_c, 4, 72, 98
1, 25343, Note_on_c, 0, 41, 99
1, 25343, Note_on_c, 9, 38, 96
1, 25344, Note_on_c, 5, 53, 73
1, 25345, Note_off_c, 9, 38, 64
1, 25345, Note_on_c, 5, 57, 73
1, 25346, Note_on_c, 7, 60, 72
1, 25355, Note_off_c, 4, 72, 64
1, 25359, Note_off_c, 0, 41, 64
1, 25360, Note_off_c, 5, 53, 64
1, 25362, Note_off_c, 5, 57, 64
1, 25365, Note_off_c, 7, 60, 64
1, 25392, Note_on_c, 0, 41, 94
1, 25392, Note_on_c, 9, 38, 90
1, 25393, Note_on_c, 4, 72, 94
1, 25393, Note_on_c, 5, 57, 85
1, 25393, Note_on_c, 5, 53, 79
1, 25394, Note_off_c, 9, 38, 64
1, 25394, Note_on_c, 7, 60, 81
1, 25408, Note_off_c, 0, 41, 64
1, 25411, Note_off_c, 5, 57, 64
1, 25411, Note_off_c, 5, 53, 64
1, 25412, Note_off_c, 4, 72, 64
1, 25416, Note_off_c, 7, 60, 64
1, 25439, Note_on_c, 9, 38, 92
1, 25440, Note_on_c, 0, 42, 89
1, 25440, Note_on_c, 4, 73, 108
1, 25440, Note_on_c, 5, 54, 85
1, 25441, Note_off_c, 9, 38, 64
1, 25441, Note_on_c, 7, 61, 81
1, 25441, Note_on_c, 5, 58, 91
1, 25480, Note_off_c, 0, 42, 64
1, 25480, Note_off_c, 5, 54, 64
1, 25481, Note_off_c, 4, 73, 64
1, 25481, Note_off_c, 5, 58, 64
1, 25482, Note_off_c, 7, 61, 64
1, 25488, Note_on_c, 9, 38, 87
1, 25488, Note_on_c, 4, 72, 94
1, 25488, Note_on_c, 5, 53, 73
1, 25488, Note_on_c, 5, 57, 87
1, 25489, Note_on_c, 0, 41, 81
1, 25489, Note_on_c, 7, 60, 73
1, 25490, Note_off_c, 9, 38, 64
1, 25505, Note_off_c, 4, 72, 64
1, 25505, Note_off_c, 5, 53, 64
1, 25505, Note_off_c, 5, 57, 64
1, 25509, Note_off_c, 7, 60, 64
1, 25511, Note_off_c, 0, 41, 64
1, 25535, Note_on_c, 5, 60, 83
1, 25535, Note_on_c, 5, 56, 87
1, 25536, Note_on_c, 9, 38, 91
1, 25536, Note_on_c, 7, 63, 64
1, 25537, Note_on_c, 4, 75, 110
1, 25537, Note_on_c, 0, 44, 91
1, 25538, Note_off_c, 9, 38, 64
1, 25576, Note_off_c, 5, 60, 64
1, 25576, Note_off_c, 5, 56, 64
1, 25577, Note_off_c, 7, 63, 64
1, 25578, Note_off_c, 0, 44, 64
1, 25579, Note_off_c, 4, 75, 64
1, 25583, Note_on_c, 5, 54, 87
1, 25583, Note_on_c, 9, 38, 91
1, 25584, Note_on_c, 7, 61, 78
1, 25584, Note_on_c, 4, 73, 104
1, 25584, Note_on_c, 5, 58, 100
1, 25585, Note_off_c, 9, 38, 64
1, 25585, Note_on_c, 0, 42, 94
1, 25599, Note_off_c, 5, 54, 64
1, 25599, Note_off_c, 4, 73, 64
1, 25600, Note_off_c, 7, 61, 64
1, 25600, Note_off_c, 5, 58, 64
1, 25602, Note_off_c, 0, 42, 64
1, 25631, Note_on_c, 1, 41, 78
1, 25631, Note_on_c, 1, 29, 72
1, 25631, Note_on_c, 9, 38, 95
1, 25631, Note_on_c, 7, 60, 75
1, 25632, Note_on_c, 5, 57, 91
1, 25632, Note_on_c, 5, 53, 73
1, 25633, Note_off_c, 9, 38, 64
1, 25633, Note_on_c, 4, 72, 94
1, 25633, Note_on_c, 0, 41, 85
1, 25646, Note_off_c, 7, 60, 64
1, 25651, Note_off_c, 5, 53, 64
1, 25653, Note_off_c, 1, 29, 64
1, 25653, Note_off_c, 4, 72, 64
1, 25655, Note_off_c, 5, 57, 64
1, 25656, Note_off_c, 1, 41, 64
1, 25658, Note_off_c, 0, 41, 64
1, 25680, Note_on_c, 9, 38, 71
1, 25682, Note_off_c, 9, 38, 64
1, 25703, Note_on_c, 7, 60, 81
1, 25703, Note_on_c, 5, 53, 75
1, 25703, Note_on_c, 9, 38, 77
1, 25704, Note_on_c, 4, 72, 94
1, 25704, Note_on_c, 0, 41, 85
1, 25704, Note_on_c, 5, 57, 89
1, 25705, Note_off_c, 9, 38, 64
1, 25717, Note_off_c, 7, 60, 64
1, 25719, Note_off_c, 5, 53, 64
1, 25720, Note_off_c, 0, 41, 64
1, 25720, Note_off_c, 5, 57, 64
1, 25723, Note_off_c, 4, 72, 64
1, 25726, Note_on_c, 1, 36, 73
1, 25728, Note_on_c, 7, 58, 73
1, 25728, Note_on_c, 9, 38, 87
1, 25728, Note_on_c, 0, 36, 85
1, 25728, Note_on_c, 5, 55, 81
1, 25728, Note_on_c, 5, 51, 78
1, 25729, Note_on_c, 4, 70, 90
1, 25730, Note_off_c, 9, 38, 64
1, 25742, Note_off_c, 1, 36, 64
1, 25742, Note_off_c, 7, 58, 64
1, 25744, Note_off_c, 5, 51, 64
1, 25746, Note_off_c, 5, 55, 64
1, 25749, Note_off_c, 4, 70, 64
1, 25752, Note_on_c, 9, 38, 90
1, 25754, Note_off_c, 0, 36, 64
1, 25754, Note_off_c, 9, 38, 64
1, 25775, Note_on_c, 1, 41, 67
1, 25775, Note_on_c, 1, 29, 63
1, 25775, Note_on_c, 9, 38, 96
1, 25776, Note_on_c, 7, 60, 73
1, 25776, Note_on_c, 0, 41, 94
1, 25776, Note_on_c, 5, 57, 87
1, 25776, Note_on_c, 5, 53, 82
1, 25777, Note_off_c, 9, 38, 64
1, 25777, Note_on_c, 4, 72, 90
1, 25800, Note_on_c, 9, 38, 100
1, 25802, Note_off_c, 9, 38, 64
1, 25823, Note_on_c, 9, 38, 103
1, 25825, Note_off_c, 9, 38, 64
1, 25856, Note_off_c, 6, 65, 64
1, 25864, Note_off_c, 3, 89, 64
1, 25864, Note_off_c, 2, 89, 64
1, 25865, Note_off_c, 8, 89, 64
1, 25871, Note_off_c, 1, 41, 64
1, 25871, Note_off_c, 1, 29, 64
1, 25889, Note_off_c, 4, 72, 64
1, 25899, Note_off_c, 0, 41, 64
1, 25905, Note_off_c, 5, 57, 64
1, 25912, Note_off_c, 5, 53, 64
1, 25914, Note_off_c, 7, 60, 64
1, 25919, Control_c, 3, 0, 0
1, 25920, Note_on_c, 9, 38, 65
1, 25920, Control_c, 3, 32, 0
1, 25921, Program_c, 3, 48
1, 25922, Note_off_c, 9, 38, 64
1, 25922, Control_c, 3, 91, 70
1, 25927, Note_on_c, 9, 38, 62
1, 25929, Note_off_c, 9, 38, 64
1, 25936, Note_on_c, 9, 38, 69
1, 25938, Note_off_c, 9, 38, 64
1, 25943, Note_on_c, 9, 38, 68
1, 25945, Note_off_c, 9, 38, 64
1, 25952, Note_on_c, 9, 38, 71
1, 25954, Note_off_c, 9, 38, 64
1, 25960, Note_on_c, 9, 38, 75
1, 25962, Note_off_c, 9, 38, 64
1, 25967, Note_on_c, 9, 38, 80
1, 25969, Note_off_c, 9, 38, 64
1, 25976, Note_on_c, 9, 38, 86
1, 25978, Note_off_c, 9, 38, 64
1, 25984, Note_on_c, 9, 38, 85
1, 25986, Note_off_c, 9, 38, 64
1, 25991, Note_on_c, 9, 38, 90
1, 25993, Note_off_c, 9, 38, 64
1, 26000, Note_on_c, 9, 38, 88
1, 26002, Note_off_c, 9, 38, 64
1, 26015, Note_on_c, 9, 38, 102
1, 26017, Note_off_c, 9, 38, 64
1, 26017, Note_on_c, 9, 59, 84
1, 26017, Note_on_c, 9, 36, 81
1, 26019, Note_off_c, 9, 59, 64
1, 26019, Note_off_c, 9, 36, 64
1, 26064, Note_on_c, 9, 38, 87
1, 26066, Note_off_c, 9, 38, 64
1, 26087, Note_on_c, 9, 38, 99
1, 26089, Note_off_c, 9, 38, 64
1, 26112, Note_on_c, 9, 38, 103
1, 26114, Note_off_c, 9, 38, 64
1, 26159, Note_on_c, 9, 38, 110
1, 26161, Note_off_c, 9, 38, 64
1, 26208, Note_on_c, 9, 38, 103
1, 26209, Note_on_c, 9, 59, 84
1, 26209, Note_on_c, 9, 36, 79
1, 26210, Note_off_c, 9, 38, 64
1, 26211, Note_off_c, 9, 59, 64
1, 26211, Note_off_c, 9, 36, 64
1, 26255, Note_on_c, 9, 38, 101
1, 26257, Note_off_c, 9, 38, 64
1, 26304, Note_on_c, 9, 38, 101
1, 26306, Note_off_c, 9, 38, 64
1, 26327, Note_on_c, 9, 38, 103
1, 26329, Note_off_c, 9, 38, 64
1, 26351, Note_on_c, 9, 38, 99
1, 26353, Note_off_c, 9, 38, 64
1, 26375, Note_on_c, 9, 38, 96
1, 26377, Note_off_c, 9, 38, 64
1, 26400, Note_on_c, 9, 38, 101
1, 26401, Note_on_c, 9, 59, 81
1, 26401, Note_on_c, 9, 36, 75
1, 26402, Note_off_c, 9, 38, 64
1, 26403, Note_off_c, 9, 59, 64
1, 26403, Note_off_c, 9, 36, 64
1, 26407, Note_on_c, 9, 38, 99
1, 26409, Note_off_c, 9, 38, 64
1, 26415, Note_on_c, 9, 38, 97
1, 26417, Note_off_c, 9, 38, 64
1, 26424, Note_on_c, 9, 38, 97
1, 26426, Note_off_c, 9, 38, 64
1, 26432, Note_on_c, 9, 38, 93
1, 26434, Note_off_c, 9, 38, 64
1, 26440, Note_on_c, 9, 38, 88
1, 26442, Note_off_c, 9, 38, 64
1, 26447, Note_on_c, 9, 38, 87
1, 26449, Note_off_c, 9, 38, 64
1, 26456, Note_on_c, 9, 38, 86
1, 26458, Note_off_c, 9, 38, 64
1, 26464, Note_on_c, 9, 38, 88
1, 26466, Note_off_c, 9, 38, 64
1, 26472, Note_on_c, 9, 38, 83
1, 26474, Note_off_c, 9, 38, 64
1, 26479, Note_on_c, 9, 38, 85
1, 26481, Note_off_c, 9, 38, 64
1, 26487, Note_on_c, 9, 38, 79
1, 26489, Note_off_c, 9, 38, 64
1, 26496, Note_on_c, 9, 38, 79
1, 26497, Note_on_c, 9, 36, 77
1, 26497, Note_on_c, 9, 59, 84
1, 26498, Note_off_c, 9, 38, 64
1, 26499, Note_off_c, 9, 36, 64
1, 26499, Note_off_c, 9, 59, 64
1, 26503, Note_on_c, 9, 38, 76
1, 26505, Note_off_c, 9, 38, 64
1, 26511, Note_on_c, 9, 38, 82
1, 26513, Note_off_c, 9, 38, 64
1, 26520, Note_on_c, 9, 38, 76
1, 26522, Note_off_c, 9, 38, 64
1, 26528, Note_on_c, 9, 38, 71
1, 26530, Note_off_c, 9, 38, 64
1, 26536, Note_on_c, 9, 38, 73
1, 26538, Note_off_c, 9, 38, 64
1, 26544, Note_on_c, 9, 38, 70
1, 26546, Note_off_c, 9, 38, 64
1, 26551, Note_on_c, 9, 38, 72
1, 26553, Note_off_c, 9, 38, 64
1, 26559, Note_on_c, 9, 38, 65
1, 26561, Note_off_c, 9, 38, 64
1, 26567, Note_on_c, 9, 38, 68
1, 26569, Note_off_c, 9, 38, 64
1, 26576, Note_on_c, 9, 38, 65
1, 26578, Note_off_c, 9, 38, 64
1, 26583, Note_on_c, 9, 38, 61
1, 26585, Note_off_c, 9, 38, 64
1, 26592, Note_on_c, 9, 38, 59
1, 26593, Note_on_c, 9, 59, 84
1, 26593, Note_on_c, 9, 36, 81
1, 26594, Note_off_c, 9, 38, 64
1, 26595, Note_off_c, 9, 59, 64
1, 26595, Note_off_c, 9, 36, 64
1, 26639, Note_on_c, 9, 38, 101
1, 26641, Note_off_c, 9, 38, 64
1, 26680, Note_on_c, 13, 51, 50
1, 26688, Note_off_c, 13, 51, 64
1, 26688, Note_on_c, 10, 51, 85
1, 26688, Note_on_c, 9, 38, 98
1, 26688, Note_on_c, 13, 53, 58
1, 26690, Note_off_c, 9, 38, 64
1, 26692, Note_off_c, 10, 51, 64
1, 26696, Note_off_c, 13, 53, 64
1, 26696, Note_on_c, 13, 55, 60
1, 26704, Note_off_c, 13, 55, 64
1, 26704, Note_on_c, 13, 56, 55
1, 26712, Note_off_c, 13, 56, 64
1, 26712, Note_on_c, 10, 51, 86
1, 26712, Note_on_c, 9, 38, 87
1, 26712, Note_on_c, 13, 58, 59
1, 26714, Note_off_c, 9, 38, 64
1, 26716, Note_off_c, 10, 51, 64
1, 26720, Note_off_c, 13, 58, 64
1, 26720, Note_on_c, 13, 60, 56
1, 26728, Note_off_c, 13, 60, 64
1, 26728, Note_on_c, 13, 61, 59
1, 26736, Note_off_c, 13, 61, 64
1, 26736, Note_on_c, 10, 51, 89
1, 26736, Note_on_c, 9, 38, 86
1, 26736, Note_on_c, 13, 63, 59
1, 26738, Note_off_c, 9, 38, 64
1, 26740, Note_off_c, 10, 51, 64
1, 26744, Note_off_c, 13, 63, 64
1, 26744, Note_on_c, 13, 65, 56
1, 26752, Note_off_c, 13, 65, 64
1, 26752, Note_on_c, 13, 67, 59
1, 26760, Note_off_c, 13, 67, 64
1, 26760, Note_on_c, 10, 51, 93
1, 26760, Note_on_c, 9, 38, 86
1, 26760, Note_on_c, 13, 68, 59
1, 26762, Note_off_c, 9, 38, 64
1, 26764, Note_off_c, 10, 51, 64
1, 26768, Note_off_c, 13, 68, 64
1, 26768, Note_on_c, 13, 70, 58
1, 26776, Note_off_c, 13, 70, 64
1, 26776, Note_on_c, 13, 72, 65
1, 26782, Note_on_c, 2, 60, 76
1, 26782, Note_on_c, 3, 56, 62
1, 26783, Note_on_c, 1, 44, 79
1, 26783, Note_on_c, 1, 32, 81
1, 26783, Note_on_c, 9, 38, 88
1, 26783, Note_on_c, 2, 63, 80
1, 26783, Note_on_c, 3, 55, 55
1, 26784, Note_off_c, 13, 72, 64
1, 26784, Note_on_c, 7, 56, 100
1, 26784, Note_on_c, 0, 44, 113
1, 26784, Note_on_c, 5, 56, 110
1, 26784, Note_on_c, 10, 44, 100
1, 26784, Note_on_c, 13, 73, 59
1, 26785, Note_off_c, 9, 38, 64
1, 26788, Note_off_c, 10, 44, 64
1, 26792, Note_off_c, 13, 73, 64
1, 26792, Note_on_c, 13, 75, 70
1, 26798, Note_off_c, 2, 63, 64
1, 26799, Note_off_c, 2, 60, 64
1, 26800, Note_off_c, 7, 56, 64
1, 26800, Note_off_c, 5, 56, 64
1, 26800, Note_off_c, 13, 75, 64
1, 26801, Note_off_c, 1, 32, 64
1, 26803, Note_off_c, 1, 44, 64
1, 26803, Note_off_c, 0, 44, 64
1, 26804, Note_off_c, 3, 56, 64
1, 26807, Note_off_c, 3, 55, 64
1, 26832, Note_on_c, 9, 38, 73
1, 26832, Note_on_c, 7, 53, 100
1, 26832, Note_on_c, 5, 53, 110
1, 26834, Note_off_c, 9, 38, 64
1, 26846, Note_off_c, 5, 53, 64
1, 26848, Note_off_c, 7, 53, 64
1, 26855, Note_on_c, 7, 56, 100
1, 26855, Note_on_c, 5, 56, 110
1, 26856, Note_on_c, 9, 38, 73
1, 26858, Note_off_c, 9, 38, 64
1, 26869, Note_off_c, 5, 56, 64
1, 26871, Note_off_c, 7, 56, 64
1, 26878, Note_on_c, 1, 39, 89
1, 26878, Note_on_c, 2, 61, 80
1, 26878, Note_on_c, 2, 65, 81
1, 26879, Note_on_c, 3, 58, 67
1, 26879, Note_on_c, 3, 56, 56
1, 26879, Note_on_c, 0, 39, 81
1, 26879, Note_on_c, 7, 58, 112
1, 26879, Note_on_c, 5, 58, 123
1, 26880, Note_on_c, 9, 38, 82
1, 26882, Note_off_c, 9, 38, 64
1, 26893, Note_off_c, 2, 61, 64
1, 26895, Note_off_c, 2, 65, 64
1, 26896, Note_off_c, 1, 39, 64
1, 26897, Note_off_c, 0, 39, 64
1, 26899, Note_off_c, 3, 56, 64
1, 26900, Note_off_c, 3, 58, 64
1, 26927, Note_on_c, 9, 38, 84
1, 26928, Note_on_c, 4, 75, 98
1, 26929, Note_off_c, 9, 38, 64
1, 26934, Control_c, 7, 11, 125
1, 26934, Control_c, 5, 11, 125
1, 26937, Control_c, 7, 11, 123
1, 26937, Control_c, 5, 11, 123
1, 26939, Note_off_c, 4, 75, 64
1, 26941, Control_c, 7, 11, 121
1, 26941, Control_c, 5, 11, 121
1, 26944, Control_c, 7, 11, 119
1, 26944, Control_c, 5, 11, 119
1, 26948, Control_c, 7, 11, 117
1, 26948, Control_c, 5, 11, 117
1, 26951, Control_c, 7, 11, 115
1, 26951, Control_c, 5, 11, 115
1, 26953, Note_on_c, 4, 75, 93
1, 26955, Control_c, 7, 11, 113
1, 26955, Control_c, 5, 11, 113
1, 26958, Control_c, 7, 11, 111
1, 26958, Control_c, 5, 11, 111
1, 26962, Control_c, 7, 11, 109
1, 26962, Control_c, 5, 11, 109
1, 26964, Note_off_c, 4, 75, 64
1, 26965, Control_c, 7, 11, 107
1, 26965, Control_c, 5, 11, 107
1, 26969, Control_c, 7, 11, 105
1, 26969, Control_c, 5, 11, 105
1, 26972, Control_c, 7, 11, 103
1, 26972, Control_c, 5, 11, 103
1, 26973, Note_on_c, 3, 58, 60
1, 26974, Note_on_c, 2, 67, 85
1, 26974, Note_on_c, 2, 63, 85
1, 26974, Note_on_c, 3, 60, 73
1, 26975, Note_on_c, 1, 32, 70
1, 26975, Note_on_c, 1, 44, 79
1, 26975, Note_on_c, 9, 38, 86
1, 26976, Control_c, 7, 11, 101
1, 26976, Note_on_c, 0, 44, 100
1, 26976, Control_c, 5, 11, 101
1, 26976, Note_on_c, 4, 75, 110
1, 26977, Note_off_c, 9, 38, 64
1, 26979, Control_c, 7, 11, 99
1, 26979, Control_c, 5, 11, 99
1, 26982, Control_c, 7, 11, 97
1, 26982, Control_c, 5, 11, 97
1, 26986, Control_c, 7, 11, 95
1, 26986, Control_c, 5, 11, 95
1, 26989, Note_off_c, 2, 63, 64
1, 26989, Control_c, 7, 11, 93
1, 26989, Control_c, 5, 11, 93
1, 26991, Note_off_c, 3, 58, 64
1, 26991, Note_off_c, 2, 67, 64
1, 26993, Note_off_c, 1, 32, 64
1, 26993, Note_off_c, 1, 44, 64
1, 26993, Control_c, 7, 11, 91
1, 26993, Control_c, 5, 11, 91
1, 26994, Note_off_c, 3, 60, 64
1, 26994, Note_off_c, 0, 44, 64
1, 26996, Control_c, 7, 11, 89
1, 26996, Control_c, 5, 11, 89
1, 27000, Control_c, 7, 11, 87
1, 27000, Control_c, 5, 11, 87
1, 27003, Note_off_c, 7, 58, 64
1, 27003, Note_off_c, 5, 58, 64
1, 27003, Control_c, 7, 11, 85
1, 27003, Control_c, 5, 11, 85
1, 27007, Control_c, 7, 11, 83
1, 27007, Control_c, 5, 11, 83
1, 27010, Control_c, 7, 11, 81
1, 27010, Control_c, 5, 11, 81
1, 27014, Control_c, 7, 11, 79
1, 27014, Control_c, 5, 11, 79
1, 27017, Control_c, 7, 11, 77
1, 27017, Control_c, 5, 11, 77
1, 27022, Control_c, 7, 11, 127
1, 27022, Control_c, 5, 11, 127
1, 27024, Note_on_c, 9, 38, 76
1, 27024, Note_on_c, 7, 51, 104
1, 27024, Note_on_c, 5, 51, 114
1, 27026, Note_off_c, 9, 38, 64
1, 27040, Note_off_c, 7, 51, 64
1, 27040, Note_off_c, 5, 51, 64
1, 27047, Note_on_c, 7, 53, 97
1, 27048, Note_on_c, 9, 38, 68
1, 27048, Note_on_c, 5, 53, 107
1, 27050, Note_off_c, 9, 38, 64
1, 27063, Note_off_c, 7, 53, 64
1, 27064, Note_off_c, 5, 53, 64
1, 27070, Note_on_c, 2, 61, 80
1, 27070, Note_on_c, 2, 65, 82
1, 27071, Note_on_c, 3, 58, 67
1, 27071, Note_on_c, 3, 56, 56
1, 27071, Note_on_c, 1, 39, 91
1, 27071, Note_on_c, 7, 56, 107
1, 27072, Note_on_c, 10, 51, 85
1, 27072, Note_on_c, 0, 39, 89
1, 27072, Note_on_c, 9, 38, 91
1, 27072, Note_on_c, 5, 56, 118
1, 27074, Note_off_c, 9, 38, 64
1, 27076, Note_off_c, 10, 51, 64
1, 27084, Note_off_c, 2, 61, 64
1, 27085, Note_off_c, 2, 65, 64
1, 27087, Note_off_c, 7, 56, 64
1, 27088, Note_off_c, 5, 56, 64
1, 27089, Note_off_c, 1, 39, 64
1, 27090, Note_off_c, 0, 39, 64
1, 27092, Note_off_c, 3, 56, 64
1, 27093, Note_off_c, 3, 58, 64
1, 27096, Note_on_c, 10, 51, 86
1, 27096, Note_on_c, 9, 38, 89
1, 27098, Note_off_c, 9, 38, 64
1, 27100, Note_off_c, 10, 51, 64
1, 27119, Note_on_c, 0, 39, 79
1, 27119, Note_on_c, 5, 58, 123
1, 27120, Note_on_c, 7, 58, 112
1, 27120, Note_on_c, 10, 51, 89
1, 27120, Note_on_c, 9, 38, 89
1, 27122, Note_off_c, 9, 38, 64
1, 27124, Note_off_c, 10, 51, 64
1, 27135, Note_off_c, 5, 58, 64
1, 27136, Note_off_c, 7, 58, 64
1, 27137, Note_off_c, 0, 39, 64
1, 27144, Note_on_c, 10, 51, 93
1, 27144, Note_on_c, 9, 38, 87
1, 27146, Note_off_c, 9, 38, 64
1, 27148, Note_off_c, 10, 51, 64
1, 27166, Note_on_c, 2, 63, 80
1, 27166, Note_on_c, 3, 55, 55
1, 27167, Note_on_c, 1, 32, 73
1, 27167, Note_on_c, 1, 44, 73
1, 27167, Note_on_c, 0, 44, 100
1, 27167, Note_on_c, 5, 63, 114
1, 27167, Note_on_c, 2, 60, 76
1, 27167, Note_on_c, 3, 56, 62
1, 27168, Note_on_c, 7, 63, 104
1, 27168, Note_on_c, 10, 44, 100
1, 27168, Note_on_c, 9, 38, 84
1, 27170, Note_off_c, 9, 38, 64
1, 27172, Note_off_c, 10, 44, 64
1, 27181, Note_off_c, 2, 63, 64
1, 27183, Note_off_c, 5, 63, 64
1, 27183, Note_off_c, 2, 60, 64
1, 27184, Note_off_c, 7, 63, 64
1, 27185, Note_off_c, 1, 32, 64
1, 27185, Note_off_c, 1, 44, 64
1, 27185, Note_off_c, 0, 44, 64
1, 27188, Note_off_c, 3, 56, 64
1, 27191, Note_off_c, 3, 55, 64
1, 27215, Note_on_c, 7, 65, 95
1, 27216, Note_on_c, 5, 65, 104
1, 27216, Note_on_c, 9, 38, 71
1, 27218, Note_off_c, 9, 38, 64
1, 27231, Note_off_c, 7, 65, 64
1, 27232, Note_off_c, 5, 65, 64
1, 27239, Note_on_c, 5, 60, 104
1, 27240, Note_on_c, 7, 60, 95
1, 27240, Note_on_c, 9, 38, 78
1, 27242, Note_off_c, 9, 38, 64
1, 27255, Note_off_c, 5, 60, 64
1, 27256, Note_off_c, 7, 60, 64
1, 27262, Note_on_c, 1, 39, 83
1, 27262, Note_on_c, 2, 65, 81
1, 27262, Note_on_c, 2, 61, 80
1, 27262, Note_on_c, 3, 56, 56
1, 27262, Note_on_c, 3, 58, 67
1, 27263, Note_on_c, 0, 39, 94
1, 27263, Note_on_c, 5, 63, 114
1, 27263, Note_on_c, 9, 38, 90
1, 27264, Note_on_c, 7, 63, 104
1, 27265, Note_off_c, 9, 38, 64
1, 27277, Note_off_c, 2, 61, 64
1, 27279, Note_off_c, 2, 65, 64
1, 27279, Note_off_c, 5, 63, 64
1, 27280, Note_off_c, 1, 39, 64
1, 27280, Note_off_c, 7, 63, 64
1, 27281, Note_off_c, 0, 39, 64
1, 27282, Note_off_c, 3, 56, 64
1, 27284, Note_off_c, 3, 58, 64
1, 27311, Note_on_c, 7, 65, 100
1, 27312, Note_on_c, 5, 65, 110
1, 27312, Note_on_c, 9, 38, 77
1, 27314, Note_off_c, 9, 38, 64
1, 27327, Note_off_c, 7, 65, 64
1, 27328, Note_off_c, 5, 65, 64
1, 27357, Note_on_c, 3, 60, 73
1, 27358, Note_on_c, 2, 67, 85
1, 27358, Note_on_c, 2, 63, 85
1, 27358, Note_on_c, 0, 44, 100
1, 27358, Note_on_c, 3, 58, 60
1, 27359, Note_on_c, 1, 32, 78
1, 27359, Note_on_c, 1, 44, 70
1, 27359, Note_on_c, 7, 58, 100
1, 27359, Note_on_c, 9, 38, 87
1, 27360, Note_on_c, 5, 58, 110
1, 27361, Note_off_c, 9, 38, 64
1, 27372, Note_off_c, 4, 75, 64
1, 27373, Note_off_c, 2, 63, 64
1, 27375, Note_off_c, 2, 67, 64
1, 27375, Note_off_c, 3, 58, 64
1, 27376, Note_off_c, 0, 44, 64
1, 27377, Note_off_c, 3, 60, 64
1, 27377, Note_off_c, 1, 32, 64
1, 27377, Note_off_c, 1, 44, 64
1, 27407, Note_on_c, 4, 70, 98
1, 27407, Note_on_c, 9, 38, 72
1, 27409, Note_off_c, 9, 38, 64
1, 27414, Control_c, 7, 11, 125
1, 27414, Control_c, 5, 11, 125
1, 27418, Control_c, 7, 11, 123
1, 27418, Control_c, 5, 11, 123
1, 27421, Control_c, 7, 11, 121
1, 27421, Control_c, 5, 11, 121
1, 27425, Control_c, 7, 11, 119
1, 27425, Control_c, 5, 11, 119
1, 27427, Note_off_c, 4, 70, 64
1, 27429, Control_c, 7, 11, 117
1, 27429, Control_c, 5, 11, 117
1, 27432, Note_on_c, 4, 72, 97
1, 27432, Note_on_c, 9, 38, 68
1, 27433, Control_c, 7, 11, 115
1, 27433, Control_c, 5, 11, 115
1, 27434, Note_off_c, 9, 38, 64
1, 27436, Control_c, 7, 11, 113
1, 27436, Control_c, 5, 11, 113
1, 27440, Control_c, 7, 11, 111
1, 27440, Control_c, 5, 11, 111
1, 27444, Control_c, 7, 11, 109
1, 27444, Control_c, 5, 11, 109
1, 27448, Control_c, 7, 11, 107
1, 27448, Control_c, 5, 11, 107
1, 27451, Control_c, 7, 11, 105
1, 27451, Control_c, 5, 11, 105
1, 27452, Note_off_c, 4, 72, 64
1, 27453, Note_on_c, 2, 61, 80
1, 27453, Note_on_c, 1, 39, 85
1, 27454, Note_on_c, 2, 65, 82
1, 27455, Control_c, 7, 11, 103
1, 27455, Note_on_c, 0, 39, 100
1, 27455, Control_c, 5, 11, 103
1, 27455, Note_on_c, 3, 58, 67
1, 27455, Note_on_c, 9, 38, 92
1, 27456, Note_on_c, 10, 51, 85
1, 27456, Note_on_c, 4, 73, 103
1, 27456, Note_on_c, 3, 56, 56
1, 27457, Note_off_c, 9, 38, 64
1, 27459, Control_c, 7, 11, 101
1, 27459, Control_c, 5, 11, 101
1, 27460, Note_off_c, 10, 51, 64
1, 27462, Control_c, 7, 11, 99
1, 27462, Control_c, 5, 11, 99
1, 27466, Control_c, 7, 11, 97
1, 27466, Control_c, 5, 11, 97
1, 27467, Note_off_c, 2, 61, 64
1, 27469, Note_off_c, 2, 65, 64
1, 27470, Note_off_c, 4, 73, 64
1, 27470, Control_c, 7, 11, 95
1, 27470, Control_c, 5, 11, 95
1, 27471, Note_off_c, 1, 39, 64
1, 27473, Note_off_c, 0, 39, 64
1, 27474, Control_c, 7, 11, 93
1, 27474, Control_c, 5, 11, 93
1, 27477, Note_off_c, 3, 58, 64
1, 27477, Note_off_c, 3, 56, 64
1, 27477, Control_c, 7, 11, 91
1, 27477, Control_c, 5, 11, 91
1, 27480, Note_on_c, 9, 38, 87
1, 27480, Note_on_c, 10, 51, 86
1, 27481, Control_c, 7, 11, 89
1, 27481, Control_c, 5, 11, 89
1, 27482, Note_off_c, 9, 38, 64
1, 27484, Note_off_c, 10, 51, 64
1, 27485, Control_c, 7, 11, 87
1, 27485, Control_c, 5, 11, 87
1, 27489, Control_c, 7, 11, 85
1, 27489, Control_c, 5, 11, 85
1, 27492, Control_c, 7, 11, 83
1, 27492, Control_c, 5, 11, 83
1, 27496, Control_c, 7, 11, 81
1, 27496, Control_c, 5, 11, 81
1, 27500, Control_c, 7, 11, 79
1, 27500, Control_c, 5, 11, 79
1, 27503, Note_on_c, 0, 39, 83
1, 27504, Control_c, 7, 11, 77
1, 27504, Note_on_c, 4, 73, 100
1, 27504, Control_c, 5, 11, 77
1, 27504, Note_on_c, 4, 77, 110
1, 27504, Note_on_c, 9, 38, 92
1, 27504, Note_on_c, 10, 51, 89
1, 27506, Note_off_c, 9, 38, 64
1, 27508, Note_off_c, 10, 51, 64
1, 27517, Note_off_c, 4, 73, 64
1, 27519, Note_off_c, 4, 77, 64
1, 27521, Note_off_c, 0, 39, 64
1, 27528, Note_on_c, 9, 38, 95
1, 27528, Note_on_c, 10, 51, 93
1, 27530, Note_off_c, 9, 38, 64
1, 27531, Note_off_c, 7, 58, 64
1, 27532, Note_off_c, 5, 58, 64
1, 27532, Note_off_c, 10, 51, 64
1, 27550, Control_c, 7, 11, 127
1, 27550, Note_on_c, 2, 63, 80
1, 27550, Control_c, 5, 11, 127
1, 27551, Note_on_c, 1, 44, 72
1, 27551, Note_on_c, 1, 32, 69
1, 27551, Note_on_c, 3, 55, 55
1, 27551, Note_on_c, 3, 56, 62
1, 27551, Note_on_c, 9, 38, 88
1, 27551, Note_on_c, 7, 56, 104
1, 27551, Note_on_c, 5, 56, 114
1, 27551, Note_on_c, 2, 60, 76
1, 27552, Note_on_c, 0, 44, 108
1, 27552, Note_on_c, 10, 44, 100
1, 27553, Note_off_c, 9, 38, 64
1, 27553, Note_on_c, 4, 72, 94
1, 27554, Note_on_c, 4, 75, 99
1, 27556, Note_off_c, 10, 44, 64
1, 27565, Note_off_c, 2, 63, 64
1, 27567, Note_off_c, 7, 56, 64
1, 27567, Note_off_c, 5, 56, 64
1, 27568, Note_off_c, 2, 60, 64
1, 27569, Note_off_c, 1, 44, 64
1, 27569, Note_off_c, 1, 32, 64
1, 27570, Note_off_c, 0, 44, 64
1, 27571, Note_off_c, 4, 72, 64
1, 27571, Note_off_c, 4, 75, 64
1, 27573, Note_off_c, 3, 56, 64
1, 27575, Note_off_c, 3, 55, 64
1, 27599, Note_on_c, 9, 38, 69
1, 27600, Note_on_c, 7, 53, 95
1, 27600, Note_on_c, 5, 53, 104
1, 27601, Note_off_c, 9, 38, 64
1, 27614, Note_off_c, 5, 53, 64
1, 27616, Note_off_c, 7, 53, 64
1, 27623, Note_on_c, 9, 38, 78
1, 27623, Note_on_c, 7, 56, 112
1, 27624, Note_on_c, 5, 56, 123
1, 27625, Note_off_c, 9, 38, 64
1, 27638, Note_off_c, 5, 56, 64
1, 27639, Note_off_c, 7, 56, 64
1, 27646, Note_on_c, 3, 56, 56
1, 27646, Note_on_c, 3, 58, 67
1, 27646, Note_on_c, 2, 65, 81
1, 27646, Note_on_c, 2, 61, 80
1, 27647, Note_on_c, 1, 39, 85
1, 27647, Note_on_c, 0, 39, 91
1, 27648, Note_on_c, 9, 38, 86
1, 27648, Note_on_c, 7, 58, 104
1, 27648, Note_on_c, 5, 58, 114
1, 27650, Note_off_c, 9, 38, 64
1, 27661, Note_off_c, 2, 61, 64
1, 27663, Note_off_c, 2, 65, 64
1, 27665, Note_off_c, 1, 39, 64
1, 27665, Note_off_c, 0, 39, 64
1, 27666, Note_off_c, 3, 56, 64
1, 27668, Note_off_c, 3, 58, 64
1, 27695, Note_on_c, 9, 38, 80
1, 27696, Note_on_c, 4, 75, 97
1, 27697, Note_off_c, 9, 38, 64
1, 27702, Control_c, 7, 11, 125
1, 27702, Control_c, 5, 11, 125
1, 27705, Control_c, 7, 11, 123
1, 27705, Control_c, 5, 11, 123
1, 27706, Note_off_c, 4, 75, 64
1, 27709, Control_c, 7, 11, 121
1, 27709, Control_c, 5, 11, 121
1, 27712, Control_c, 7, 11, 119
1, 27712, Control_c, 5, 11, 119
1, 27716, Control_c, 7, 11, 117
1, 27716, Control_c, 5, 11, 117
1, 27719, Control_c, 7, 11, 115
1, 27719, Control_c, 5, 11, 115
1, 27721, Note_on_c, 4, 75, 91
1, 27723, Control_c, 7, 11, 113
1, 27723, Control_c, 5, 11, 113
1, 27726, Control_c, 7, 11, 111
1, 27726, Control_c, 5, 11, 111
1, 27730, Control_c, 7, 11, 109
1, 27730, Control_c, 5, 11, 109
1, 27732, Note_off_c, 4, 75, 64
1, 27733, Control_c, 7, 11, 107
1, 27733, Control_c, 5, 11, 107
1, 27737, Control_c, 7, 11, 105
1, 27737, Control_c, 5, 11, 105
1, 27740, Control_c, 7, 11, 103
1, 27740, Control_c, 5, 11, 103
1, 27741, Note_on_c, 2, 67, 85
1, 27742, Note_on_c, 3, 58, 60
1, 27742, Note_on_c, 3, 60, 73
1, 27742, Note_on_c, 2, 63, 85
1, 27743, Note_on_c, 1, 44, 73
1, 27743, Note_on_c, 1, 32, 75
1, 27743, Note_on_c, 4, 75, 103
1, 27744, Control_c, 7, 11, 101
1, 27744, Note_on_c, 0, 44, 100
1, 27744, Control_c, 5, 11, 101
1, 27744, Note_on_c, 9, 38, 90
1, 27746, Note_off_c, 9, 38, 64
1, 27747, Control_c, 7, 11, 99
1, 27747, Control_c, 5, 11, 99
1, 27750, Control_c, 7, 11, 97
1, 27750, Control_c, 5, 11, 97
1, 27754, Control_c, 7, 11, 95
1, 27754, Control_c, 5, 11, 95
1, 27757, Note_off_c, 2, 63, 64
1, 27757, Control_c, 7, 11, 93
1, 27757, Control_c, 5, 11, 93
1, 27759, Note_off_c, 2, 67, 64
1, 27759, Note_off_c, 3, 58, 64
1, 27761, Note_off_c, 1, 44, 64
1, 27761, Note_off_c, 1, 32, 64
1, 27761, Control_c, 7, 11, 91
1, 27761, Control_c, 5, 11, 91
1, 27762, Note_off_c, 3, 60, 64
1, 27762, Note_off_c, 0, 44, 64
1, 27764, Control_c, 7, 11, 89
1, 27764, Control_c, 5, 11, 89
1, 27768, Control_c, 7, 11, 87
1, 27768, Control_c, 5, 11, 87
1, 27771, Control_c, 7, 11, 85
1, 27771, Control_c, 5, 11, 85
1, 27772, Note_off_c, 7, 58, 64
1, 27772, Note_off_c, 5, 58, 64
1, 27775, Control_c, 7, 11, 83
1, 27775, Control_c, 5, 11, 83
1, 27778, Control_c, 7, 11, 81
1, 27778, Control_c, 5, 11, 81
1, 27782, Control_c, 7, 11, 79
1, 27782, Control_c, 5, 11, 79
1, 27785, Control_c, 7, 11, 77
1, 27785, Control_c, 5, 11, 77
1, 27790, Control_c, 7, 11, 127
1, 27790, Control_c, 5, 11, 127
1, 27792, Note_on_c, 9, 38, 75
1, 27792, Note_on_c, 7, 51, 104
1, 27792, Note_on_c, 5, 51, 114
1, 27794, Note_off_c, 9, 38, 64
1, 27808, Note_off_c, 7, 51, 64
1, 27808, Note_off_c, 5, 51, 64
1, 27815, Note_on_c, 5, 53, 110
1, 27816, Note_on_c, 9, 38, 72
1, 27816, Note_on_c, 7, 53, 100
1, 27818, Note_off_c, 9, 38, 64
1, 27831, Note_off_c, 5, 53, 64
1, 27832, Note_off_c, 7, 53, 64
1, 27837, Note_on_c, 2, 61, 80
1, 27837, Note_on_c, 2, 65, 82
1, 27839, Note_on_c, 3, 58, 67
1, 27839, Note_on_c, 3, 56, 56
1, 27839, Note_on_c, 1, 39, 85
1, 27839, Note_on_c, 5, 56, 114
1, 27840, Note_on_c, 10, 51, 85
1, 27840, Note_on_c, 0, 39, 87
1, 27840, Note_on_c, 9, 38, 95
1, 27840, Note_on_c, 7, 56, 104
1, 27842, Note_off_c, 9, 38, 64
1, 27844, Note_off_c, 10, 51, 64
1, 27852, Note_off_c, 2, 61, 64
1, 27852, Note_off_c, 2, 65, 64
1, 27855, Note_off_c, 5, 56, 64
1, 27856, Note_off_c, 7, 56, 64
1, 27857, Note_off_c, 1, 39, 64
1, 27859, Note_off_c, 0, 39, 64
1, 27860, Note_off_c, 3, 56, 64
1, 27862, Note_off_c, 3, 58, 64
1, 27863, Note_on_c, 9, 38, 87
1, 27864, Note_on_c, 10, 51, 86
1, 27865, Note_off_c, 9, 38, 64
1, 27868, Note_off_c, 10, 51, 64
1, 27887, Note_on_c, 5, 58, 123
1, 27887, Note_on_c, 7, 58, 112
1, 27888, Note_on_c, 9, 38, 93
1, 27888, Note_on_c, 10, 51, 89
1, 27889, Note_on_c, 0, 39, 79
1, 27890, Note_off_c, 9, 38, 64
1, 27892, Note_off_c, 10, 51, 64
1, 27903, Note_off_c, 5, 58, 64
1, 27903, Note_off_c, 7, 58, 64
1, 27909, Note_off_c, 0, 39, 64
1, 27911, Note_on_c, 9, 38, 89
1, 27912, Note_on_c, 10, 51, 93
1, 27913, Note_off_c, 9, 38, 64
1, 27916, Note_off_c, 10, 51, 64
1, 27934, Note_on_c, 2, 63, 80
1, 27934, Note_on_c, 3, 55, 55
1, 27935, Note_on_c, 1, 32, 78
1, 27935, Note_on_c, 1, 44, 75
1, 27935, Note_on_c, 5, 63, 123
1, 27935, Note_on_c, 2, 60, 76
1, 27935, Note_on_c, 3, 56, 62
1, 27936, Note_on_c, 7, 63, 112
1, 27936, Note_on_c, 0, 44, 100
1, 27936, Note_on_c, 9, 38, 89
1, 27936, Note_on_c, 10, 44, 100
1, 27938, Note_off_c, 9, 38, 64
1, 27940, Note_off_c, 10, 44, 64
1, 27942, Note_off_c, 4, 75, 64
1, 27949, Note_off_c, 2, 63, 64
1, 27951, Note_off_c, 5, 63, 64
1, 27952, Note_off_c, 2, 60, 64
1, 27952, Note_off_c, 7, 63, 64
1, 27953, Note_off_c, 1, 32, 64
1, 27953, Note_off_c, 1, 44, 64
1, 27954, Note_off_c, 0, 44, 64
1, 27957, Note_off_c, 3, 56, 64
1, 27958, Note_off_c, 3, 55, 64
1, 27983, Note_on_c, 5, 65, 110
1, 27984, Note_on_c, 7, 65, 100
1, 27984, Note_on_c, 9, 38, 74
1, 27986, Note_off_c, 9, 38, 64
1, 27999, Note_off_c, 5, 65, 64
1, 28000, Note_off_c, 7, 65, 64
1, 28007, Note_on_c, 7, 60, 97
1, 28007, Note_on_c, 9, 38, 74
1, 28008, Note_on_c, 5, 60, 107
1, 28009, Note_off_c, 9, 38, 64
1, 28023, Note_off_c, 7, 60, 64
1, 28024, Note_off_c, 5, 60, 64
1, 28030, Note_on_c, 2, 60, 80
1, 28030, Note_on_c, 2, 63, 81
1, 28030, Note_on_c, 3, 55, 56
1, 28031, Note_on_c, 1, 44, 70
1, 28031, Note_on_c, 1, 32, 78
1, 28031, Note_on_c, 5, 63, 110
1, 28031, Note_on_c, 3, 56, 67
1, 28032, Note_on_c, 0, 44, 104
1, 28032, Note_on_c, 7, 63, 100
1, 28032, Note_on_c, 9, 38, 85
1, 28034, Note_off_c, 9, 38, 64
1, 28045, Note_off_c, 2, 60, 64
1, 28047, Note_off_c, 2, 63, 64
1, 28047, Note_off_c, 5, 63, 64
1, 28048, Note_off_c, 7, 63, 64
1, 28049, Note_off_c, 1, 44, 64
1, 28049, Note_off_c, 1, 32, 64
1, 28050, Note_off_c, 3, 55, 64
1, 28050, Note_off_c, 0, 44, 64
1, 28052, Note_off_c, 3, 56, 64
1, 28079, Note_on_c, 7, 65, 95
1, 28079, Note_on_c, 9, 38, 81
1, 28080, Note_on_c, 5, 65, 104
1, 28081, Note_off_c, 9, 38, 64
1, 28095, Note_off_c, 7, 65, 64
1, 28096, Note_off_c, 5, 65, 64
1, 28126, Note_on_c, 2, 58, 85
1, 28126, Note_on_c, 2, 61, 85
1, 28126, Note_on_c, 1, 39, 81
1, 28126, Note_on_c, 3, 54, 60
1, 28127, Note_on_c, 0, 39, 89
1, 28127, Note_on_c, 7, 68, 107
1, 28127, Note_on_c, 9, 38, 90
1, 28128, Note_on_c, 5, 68, 118
1, 28129, Note_off_c, 9, 38, 64
1, 28141, Note_off_c, 2, 61, 64
1, 28143, Note_off_c, 2, 58, 64
1, 28143, Note_off_c, 3, 54, 64
1, 28145, Note_off_c, 1, 39, 64
1, 28145, Note_off_c, 0, 39, 64
1, 28175, Note_on_c, 9, 38, 72
1, 28177, Note_off_c, 9, 38, 64
1, 28182, Control_c, 7, 11, 125
1, 28182, Control_c, 5, 11, 125
1, 28186, Control_c, 7, 11, 123
1, 28186, Control_c, 5, 11, 123
1, 28189, Control_c, 7, 11, 121
1, 28189, Control_c, 5, 11, 121
1, 28193, Control_c, 7, 11, 119
1, 28193, Control_c, 5, 11, 119
1, 28197, Control_c, 7, 11, 117
1, 28197, Control_c, 5, 11, 117
1, 28200, Note_on_c, 9, 38, 69
1, 28201, Control_c, 7, 11, 115
1, 28201, Control_c, 5, 11, 115
1, 28202, Note_off_c, 9, 38, 64
1, 28204, Control_c, 7, 11, 113
1, 28204, Control_c, 5, 11, 113
1, 28208, Control_c, 7, 11, 111
1, 28208, Control_c, 5, 11, 111
1, 28212, Control_c, 7, 11, 109
1, 28212, Control_c, 5, 11, 109
1, 28216, Control_c, 7, 11, 107
1, 28216, Control_c, 5, 11, 107
1, 28219, Control_c, 7, 11, 105
1, 28219, Control_c, 5, 11, 105
1, 28221, Note_on_c, 2, 57, 80
1, 28221, Note_on_c, 2, 60, 82
1, 28223, Control_c, 7, 11, 103
1, 28223, Note_on_c, 1, 38, 83
1, 28223, Control_c, 5, 11, 103
1, 28223, Note_on_c, 3, 54, 56
1, 28223, Note_on_c, 9, 38, 92
1, 28224, Note_on_c, 0, 38, 81
1, 28225, Note_off_c, 9, 38, 64
1, 28227, Control_c, 7, 11, 101
1, 28227, Control_c, 5, 11, 101
1, 28230, Control_c, 7, 11, 99
1, 28230, Control_c, 5, 11, 99
1, 28234, Control_c, 7, 11, 97
1, 28234, Control_c, 5, 11, 97
1, 28235, Note_off_c, 2, 57, 64
1, 28236, Note_off_c, 2, 60, 64
1, 28238, Control_c, 7, 11, 95
1, 28238, Control_c, 5, 11, 95
1, 28241, Note_off_c, 1, 38, 64
1, 28242, Control_c, 7, 11, 93
1, 28242, Control_c, 5, 11, 93
1, 28244, Note_off_c, 3, 54, 64
1, 28244, Note_off_c, 0, 38, 64
1, 28245, Control_c, 7, 11, 91
1, 28245, Control_c, 5, 11, 91
1, 28248, Note_on_c, 9, 38, 90
1, 28249, Control_c, 7, 11, 89
1, 28249, Control_c, 5, 11, 89
1, 28250, Note_off_c, 9, 38, 64
1, 28253, Control_c, 7, 11, 87
1, 28253, Control_c, 5, 11, 87
1, 28257, Control_c, 7, 11, 85
1, 28257, Control_c, 5, 11, 85
1, 28260, Control_c, 7, 11, 83
1, 28260, Control_c, 5, 11, 83
1, 28264, Control_c, 7, 11, 81
1, 28264, Control_c, 5, 11, 81
1, 28268, Control_c, 7, 11, 79
1, 28268, Control_c, 5, 11, 79
1, 28272, Note_on_c, 9, 38, 95
1, 28272, Control_c, 7, 11, 77
1, 28272, Control_c, 5, 11, 77
1, 28274, Note_off_c, 9, 38, 64
1, 28296, Note_on_c, 9, 38, 88
1, 28298, Note_off_c, 9, 38, 64
1, 28303, Note_off_c, 7, 68, 64
1, 28304, Note_off_c, 5, 68, 64
1, 28320, Control_c, 7, 11, 127
1, 28320, Note_on_c, 4, 68, 111
1, 28320, Control_c, 5, 11, 127
1, 28335, Note_off_c, 4, 68, 64
1, 28372, Note_on_c, 4, 65, 100
1, 28388, Note_off_c, 4, 65, 64
1, 28395, Note_on_c, 4, 68, 105
1, 28409, Note_off_c, 4, 68, 64
1, 28415, Note_on_c, 2, 84, 97
1, 28415, Note_on_c, 1, 37, 91
1, 28415, Note_on_c, 3, 58, 79
1, 28415, Note_on_c, 3, 63, 79
1, 28415, Note_on_c, 3, 53, 78
1, 28416, Note_on_c, 0, 37, 94
1, 28416, Note_on_c, 7, 65, 79
1, 28416, Note_on_c, 4, 70, 113
1, 28417, Note_on_c, 5, 63, 85
1, 28417, Note_on_c, 5, 58, 75
1, 28439, Note_off_c, 2, 84, 64
1, 28456, Note_off_c, 3, 58, 64
1, 28457, Note_off_c, 3, 63, 64
1, 28457, Note_off_c, 0, 37, 64
1, 28458, Note_off_c, 3, 53, 64
1, 28463, Note_off_c, 7, 65, 64
1, 28463, Note_on_c, 2, 85, 91
1, 28469, Note_off_c, 1, 37, 64
1, 28481, Note_off_c, 5, 58, 64
1, 28486, Note_off_c, 5, 63, 64
1, 28487, Note_off_c, 2, 85, 64
1, 28487, Note_on_c, 2, 84, 85
1, 28511, Note_off_c, 2, 84, 64
1, 28511, Note_on_c, 1, 42, 81
1, 28511, Note_on_c, 2, 82, 80
1, 28512, Note_on_c, 3, 58, 65
1, 28512, Note_on_c, 3, 63, 69
1, 28512, Note_on_c, 3, 52, 72
1, 28513, Note_on_c, 0, 42, 85
1, 28513, Note_on_c, 7, 64, 76
1, 28514, Note_on_c, 5, 58, 73
1, 28514, Note_on_c, 5, 63, 81
1, 28530, Note_off_c, 4, 70, 64
1, 28561, Note_on_c, 4, 75, 107
1, 28581, Note_off_c, 4, 75, 64
1, 28584, Note_on_c, 4, 73, 105
1, 28607, Note_off_c, 4, 73, 64
1, 28607, Note_on_c, 4, 70, 96
1, 28627, Note_off_c, 4, 70, 64
1, 28656, Note_on_c, 4, 68, 94
1, 28662, Note_off_c, 7, 64, 64
1, 28676, Note_off_c, 4, 68, 64
1, 28680, Note_off_c, 3, 58, 64
1, 28680, Note_off_c, 3, 63, 64
1, 28684, Note_off_c, 1, 42, 64
1, 28686, Note_off_c, 3, 52, 64
1, 28698, Note_off_c, 0, 42, 64
1, 28703, Note_off_c, 2, 82, 64
1, 28704, Note_on_c, 4, 66, 110
1, 28717, Note_off_c, 5, 58, 64
1, 28719, Note_off_c, 5, 63, 64
1, 28719, Note_off_c, 4, 66, 64
1, 28756, Note_on_c, 4, 63, 100
1, 28772, Note_off_c, 4, 63, 64
1, 28779, Note_on_c, 4, 66, 105
1, 28793, Note_off_c, 4, 66, 64
1, 28799, Note_on_c, 1, 35, 85
1, 28799, Note_on_c, 2, 82, 85
1, 28799, Note_on_c, 3, 61, 79
1, 28799, Note_on_c, 3, 51, 75
1, 28799, Note_on_c, 3, 56, 79
1, 28799, Note_on_c, 0, 35, 91
1, 28800, Note_on_c, 7, 63, 75
1, 28800, Note_on_c, 4, 68, 113
1, 28801, Note_on_c, 5, 61, 78
1, 28801, Note_on_c, 5, 56, 67
1, 28823, Note_off_c, 2, 82, 64
1, 28826, Note_off_c, 1, 35, 64
1, 28832, Note_off_c, 0, 35, 64
1, 28837, Note_off_c, 3, 56, 64
1, 28842, Note_off_c, 3, 51, 64
1, 28843, Note_off_c, 3, 61, 64
1, 28847, Note_on_c, 2, 83, 76
1, 28850, Note_off_c, 7, 63, 64
1, 28869, Note_off_c, 5, 61, 64
1, 28869, Note_off_c, 5, 56, 64
1, 28871, Note_off_c, 2, 83, 64
1, 28871, Note_on_c, 2, 82, 79
1, 28895, Note_off_c, 2, 82, 64
1, 28895, Note_on_c, 2, 80, 85
1, 28896, Note_on_c, 1, 40, 85
1, 28896, Note_on_c, 3, 56, 69
1, 28896, Note_on_c, 3, 61, 65
1, 28896, Note_on_c, 3, 50, 72
1, 28897, Note_on_c, 0, 40, 85
1, 28897, Note_on_c, 7, 62, 76
1, 28897, Note_on_c, 5, 56, 69
1, 28897, Note_on_c, 5, 61, 78
1, 28943, Note_off_c, 2, 80, 64
1, 28967, Note_on_c, 2, 80, 85
1, 28991, Note_off_c, 2, 80, 64
1, 28991, Note_on_c, 2, 82, 89
1, 29031, Note_off_c, 2, 82, 64
1, 29039, Note_on_c, 2, 83, 87
1, 29047, Note_off_c, 7, 62, 64
1, 29050, Note_off_c, 4, 68, 64
1, 29068, Note_off_c, 1, 40, 64
1, 29072, Note_off_c, 0, 40, 64
1, 29079, Note_off_c, 2, 83, 64
1, 29082, Note_off_c, 3, 56, 64
1, 29084, Note_off_c, 3, 61, 64
1, 29084, Note_off_c, 3, 50, 64
1, 29087, Note_off_c, 5, 56, 64
1, 29087, Note_off_c, 5, 61, 64
1, 29087, Note_on_c, 2, 84, 90
1, 29088, Note_on_c, 4, 68, 109
1, 29102, Note_off_c, 4, 68, 64
1, 29135, Note_off_c, 2, 84, 64
1, 29136, Note_on_c, 4, 65, 100
1, 29152, Note_off_c, 4, 65, 64
1, 29158, Note_on_c, 4, 68, 105
1, 29170, Note_off_c, 4, 68, 64
1, 29176, Note_on_c, 13, 51, 51
1, 29180, Note_on_c, 4, 70, 110
1, 29184, Note_off_c, 13, 51, 64
1, 29184, Note_on_c, 6, 63, 56
1, 29184, Note_on_c, 8, 75, 56
1, 29184, Note_on_c, 13, 53, 53
1, 29192, Note_off_c, 13, 53, 64
1, 29192, Note_on_c, 13, 55, 58
1, 29200, Note_off_c, 6, 63, 64
1, 29200, Note_off_c, 8, 75, 64
1, 29200, Note_off_c, 13, 55, 64
1, 29200, Note_on_c, 6, 65, 62
1, 29200, Note_on_c, 8, 77, 62
1, 29200, Note_on_c, 13, 56, 55
1, 29208, Note_off_c, 13, 56, 64
1, 29208, Note_on_c, 13, 58, 52
1, 29216, Note_off_c, 6, 65, 64
1, 29216, Note_off_c, 8, 77, 64
1, 29216, Note_off_c, 13, 58, 64
1, 29216, Note_on_c, 6, 67, 62
1, 29216, Note_on_c, 8, 79, 62
1, 29216, Note_on_c, 13, 60, 58
1, 29224, Note_off_c, 13, 60, 64
1, 29224, Note_on_c, 13, 61, 50
1, 29231, Note_on_c, 9, 38, 89
1, 29232, Note_off_c, 6, 67, 64
1, 29232, Note_off_c, 8, 79, 64
1, 29232, Note_off_c, 13, 61, 64
1, 29232, Note_on_c, 10, 51, 91
1, 29232, Note_on_c, 6, 68, 73
1, 29232, Note_on_c, 8, 80, 73
1, 29232, Note_on_c, 13, 63, 59
1, 29233, Note_off_c, 9, 38, 64
1, 29236, Note_off_c, 10, 51, 64
1, 29240, Note_off_c, 13, 63, 64
1, 29240, Note_on_c, 13, 65, 56
1, 29244, Note_off_c, 6, 68, 64
1, 29244, Note_off_c, 8, 80, 64
1, 29244, Note_on_c, 6, 70, 73
1, 29244, Note_on_c, 8, 82, 73
1, 29248, Note_off_c, 13, 65, 64
1, 29248, Note_on_c, 13, 67, 58
1, 29255, Note_on_c, 9, 38, 83
1, 29256, Note_off_c, 6, 70, 64
1, 29256, Note_off_c, 8, 82, 64
1, 29256, Note_off_c, 13, 67, 64
1, 29256, Note_on_c, 10, 51, 97
1, 29256, Note_on_c, 6, 72, 69
1, 29256, Note_on_c, 8, 84, 69
1, 29256, Note_on_c, 13, 68, 59
1, 29257, Note_off_c, 9, 38, 64
1, 29260, Note_off_c, 10, 51, 64
1, 29264, Note_off_c, 13, 68, 64
1, 29264, Note_on_c, 13, 70, 59
1, 29268, Note_off_c, 6, 72, 64
1, 29268, Note_off_c, 8, 84, 64
1, 29268, Note_on_c, 6, 73, 78
1, 29268, Note_on_c, 8, 85, 78
1, 29272, Note_off_c, 13, 70, 64
1, 29272, Note_on_c, 13, 72, 59
1, 29276, Note_on_c, 1, 39, 83
1, 29279, Note_on_c, 5, 56, 100
1, 29279, Note_on_c, 5, 60, 97
1, 29280, Note_off_c, 6, 73, 64
1, 29280, Note_off_c, 8, 85, 64
1, 29280, Note_off_c, 13, 72, 64
1, 29280, Note_on_c, 0, 39, 113
1, 29280, Note_on_c, 7, 63, 91
1, 29280, Note_on_c, 9, 38, 95
1, 29280, Note_on_c, 10, 51, 100
1, 29280, Note_on_c, 6, 75, 70
1, 29280, Note_on_c, 8, 87, 70
1, 29280, Note_on_c, 13, 73, 62
1, 29282, Note_off_c, 9, 38, 64
1, 29284, Note_off_c, 10, 51, 64
1, 29288, Note_off_c, 13, 73, 64
1, 29288, Note_on_c, 13, 75, 54
1, 29290, Note_off_c, 4, 70, 64
1, 29292, Note_off_c, 6, 75, 64
1, 29292, Note_off_c, 8, 87, 64
1, 29292, Note_on_c, 6, 77, 73
1, 29292, Note_on_c, 8, 89, 73
1, 29296, Note_off_c, 13, 75, 64
1, 29300, Note_off_c, 1, 39, 64
1, 29304, Note_off_c, 6, 77, 64
1, 29304, Note_off_c, 8, 89, 64
1, 29304, Note_on_c, 6, 75, 70
1, 29304, Note_on_c, 8, 87, 70
1, 29310, Note_off_c, 5, 56, 64
1, 29311, Note_off_c, 7, 63, 64
1, 29312, Note_off_c, 5, 60, 64
1, 29316, Note_off_c, 6, 75, 64
1, 29316, Note_off_c, 8, 87, 64
1, 29316, Note_on_c, 6, 77, 69
1, 29316, Note_on_c, 8, 89, 69
1, 29325, Note_off_c, 0, 39, 64
1, 29328, Note_off_c, 6, 77, 64
1, 29328, Note_off_c, 8, 89, 64
1, 29328, Note_on_c, 6, 75, 69
1, 29328, Note_on_c, 8, 87, 69
1, 29330, Note_on_c, 4, 63, 96
1, 29340, Note_off_c, 6, 75, 64
1, 29340, Note_off_c, 8, 87, 64
1, 29340, Note_on_c, 6, 77, 66
1, 29340, Note_on_c, 8, 89, 66
1, 29346, Note_off_c, 4, 63, 64
1, 29352, Note_off_c, 6, 77, 64
1, 29352, Note_off_c, 8, 89, 64
1, 29352, Note_on_c, 6, 75, 72
1, 29352, Note_on_c, 8, 87, 72
1, 29353, Note_on_c, 4, 65, 101
1, 29364, Note_off_c, 6, 75, 64
1, 29364, Note_off_c, 8, 87, 64
1, 29364, Note_on_c, 6, 77, 65
1, 29364, Note_on_c, 8, 89, 65
1, 29368, Note_off_c, 4, 65, 64
1, 29375, Note_on_c, 4, 68, 106
1, 29376, Note_off_c, 6, 77, 64
1, 29376, Note_off_c, 8, 89, 64
1, 29376, Note_on_c, 6, 75, 67
1, 29376, Note_on_c, 8, 87, 67
1, 29388, Note_off_c, 6, 75, 64
1, 29388, Note_off_c, 8, 87, 64
1, 29388, Note_on_c, 6, 77, 67
1, 29388, Note_on_c, 8, 89, 67
1, 29391, Note_off_c, 4, 68, 64
1, 29400, Note_off_c, 6, 77, 64
1, 29400, Note_off_c, 8, 89, 64
1, 29400, Note_on_c, 6, 75, 70
1, 29400, Note_on_c, 8, 87, 70
1, 29412, Note_off_c, 6, 75, 64
1, 29412, Note_off_c, 8, 87, 64
1, 29412, Note_on_c, 6, 77, 69
1, 29412, Note_on_c, 8, 89, 69
1, 29424, Note_off_c, 6, 77, 64
1, 29424, Note_off_c, 8, 89, 64
1, 29424, Note_on_c, 4, 70, 108
1, 29424, Note_on_c, 6, 75, 66
1, 29424, Note_on_c, 8, 87, 66
1, 29436, Note_off_c, 6, 75, 64
1, 29436, Note_off_c, 8, 87, 64
1, 29436, Note_on_c, 6, 77, 65
1, 29436, Note_on_c, 8, 89, 65
1, 29440, Note_off_c, 4, 70, 64
1, 29448, Note_off_c, 6, 77, 64
1, 29448, Note_off_c, 8, 89, 64
1, 29448, Note_on_c, 6, 75, 65
1, 29448, Note_on_c, 8, 87, 65
1, 29460, Note_off_c, 6, 75, 64
1, 29460, Note_off_c, 8, 87, 64
1, 29460, Note_on_c, 6, 77, 62
1, 29460, Note_on_c, 8, 89, 62
1, 29472, Note_off_c, 6, 77, 64
1, 29472, Note_off_c, 8, 89, 64
1, 29472, Note_on_c, 4, 71, 111
1, 29485, Note_off_c, 4, 71, 64
1, 29520, Note_on_c, 4, 68, 99
1, 29535, Note_off_c, 4, 68, 64
1, 29544, Note_on_c, 4, 71, 105
1, 29556, Note_off_c, 4, 71, 64
1, 29560, Note_on_c, 13, 54, 59
1, 29566, Note_on_c, 4, 73, 110
1, 29568, Note_off_c, 13, 54, 64
1, 29568, Note_on_c, 6, 66, 70
1, 29568, Note_on_c, 8, 78, 70
1, 29568, Note_on_c, 13, 56, 55
1, 29576, Note_off_c, 13, 56, 64
1, 29576, Note_on_c, 13, 58, 57
1, 29584, Note_off_c, 6, 66, 64
1, 29584, Note_off_c, 8, 78, 64
1, 29584, Note_off_c, 13, 58, 64
1, 29584, Note_on_c, 6, 68, 72
1, 29584, Note_on_c, 8, 80, 72
1, 29584, Note_on_c, 13, 59, 59
1, 29592, Note_off_c, 13, 59, 64
1, 29592, Note_on_c, 13, 61, 60
1, 29600, Note_off_c, 6, 68, 64
1, 29600, Note_off_c, 8, 80, 64
1, 29600, Note_off_c, 13, 61, 64
1, 29600, Note_on_c, 6, 70, 76
1, 29600, Note_on_c, 8, 82, 76
1, 29600, Note_on_c, 13, 63, 68
1, 29608, Note_off_c, 13, 63, 64
1, 29608, Note_on_c, 13, 64, 65
1, 29615, Note_on_c, 9, 38, 83
1, 29616, Note_off_c, 6, 70, 64
1, 29616, Note_off_c, 8, 82, 64
1, 29616, Note_off_c, 13, 64, 64
1, 29616, Note_on_c, 10, 43, 91
1, 29616, Note_on_c, 6, 71, 66
1, 29616, Note_on_c, 8, 83, 66
1, 29616, Note_on_c, 13, 66, 59
1, 29617, Note_off_c, 9, 38, 64
1, 29620, Note_off_c, 10, 43, 64
1, 29624, Note_off_c, 13, 66, 64
1, 29624, Note_on_c, 13, 68, 65
1, 29628, Note_off_c, 6, 71, 64
1, 29628, Note_off_c, 8, 83, 64
1, 29628, Note_on_c, 6, 73, 75
1, 29628, Note_on_c, 8, 85, 75
1, 29632, Note_off_c, 13, 68, 64
1, 29632, Note_on_c, 13, 70, 68
1, 29639, Note_on_c, 9, 38, 82
1, 29640, Note_off_c, 6, 73, 64
1, 29640, Note_off_c, 8, 85, 64
1, 29640, Note_off_c, 13, 70, 64
1, 29640, Note_on_c, 10, 43, 95
1, 29640, Note_on_c, 6, 75, 79
1, 29640, Note_on_c, 8, 87, 79
1, 29640, Note_on_c, 13, 71, 68
1, 29641, Note_off_c, 9, 38, 64
1, 29644, Note_off_c, 10, 43, 64
1, 29648, Note_off_c, 13, 71, 64
1, 29648, Note_on_c, 13, 73, 71
1, 29652, Note_off_c, 6, 75, 64
1, 29652, Note_off_c, 8, 87, 64
1, 29652, Note_on_c, 6, 76, 78
1, 29652, Note_on_c, 8, 88, 78
1, 29656, Note_off_c, 13, 73, 64
1, 29656, Note_on_c, 13, 75, 70
1, 29661, Note_on_c, 1, 42, 89
1, 29663, Note_on_c, 5, 59, 100
1, 29663, Note_on_c, 5, 63, 91
1, 29663, Note_on_c, 9, 38, 91
1, 29664, Note_off_c, 6, 76, 64
1, 29664, Note_off_c, 8, 88, 64
1, 29664, Note_off_c, 13, 75, 64
1, 29664, Note_on_c, 0, 42, 113
1, 29664, Note_on_c, 7, 66, 90
1, 29664, Note_on_c, 10, 43, 104
1, 29664, Note_on_c, 6, 78, 77
1, 29664, Note_on_c, 8, 90, 67
1, 29664, Note_on_c, 13, 76, 71
1, 29665, Note_off_c, 9, 38, 64
1, 29668, Note_off_c, 10, 43, 64
1, 29669, Note_off_c, 4, 73, 64
1, 29672, Note_off_c, 13, 76, 64
1, 29672, Note_on_c, 13, 78, 73
1, 29676, Note_off_c, 6, 78, 64
1, 29676, Note_off_c, 8, 90, 64
1, 29676, Note_on_c, 6, 80, 83
1, 29676, Note_on_c, 8, 92, 73
1, 29680, Note_off_c, 13, 78, 64
1, 29688, Note_off_c, 6, 80, 64
1, 29688, Note_off_c, 8, 92, 64
1, 29688, Note_on_c, 6, 78, 77
1, 29688, Note_on_c, 8, 90, 67
1, 29699, Note_off_c, 7, 66, 64
1, 29700, Note_off_c, 1, 42, 64
1, 29700, Note_off_c, 6, 78, 64
1, 29700, Note_off_c, 8, 90, 64
1, 29700, Note_on_c, 6, 80, 76
1, 29700, Note_on_c, 8, 92, 66
1, 29705, Note_off_c, 0, 42, 64
1, 29711, Note_off_c, 5, 59, 64
1, 29711, Note_off_c, 5, 63, 64
1, 29711, Note_on_c, 4, 66, 100
1, 29712, Note_off_c, 6, 80, 64
1, 29712, Note_off_c, 8, 92, 64
1, 29712, Note_on_c, 6, 78, 72
1, 29712, Note_on_c, 8, 90, 62
1, 29724, Note_off_c, 6, 78, 64
1, 29724, Note_off_c, 8, 90, 64
1, 29724, Note_on_c, 6, 80, 79
1, 29724, Note_on_c, 8, 92, 69
1, 29728, Note_off_c, 4, 66, 64
1, 29735, Note_on_c, 4, 68, 107
1, 29736, Note_off_c, 6, 80, 64
1, 29736, Note_off_c, 8, 92, 64
1, 29736, Note_on_c, 6, 78, 82
1, 29736, Note_on_c, 8, 90, 72
1, 29748, Note_off_c, 6, 78, 64
1, 29748, Note_off_c, 8, 90, 64
1, 29748, Note_on_c, 6, 80, 75
1, 29748, Note_on_c, 8, 92, 65
1, 29752, Note_off_c, 4, 68, 64
1, 29760, Note_off_c, 6, 80, 64
1, 29760, Note_off_c, 8, 92, 64
1, 29760, Note_on_c, 6, 78, 73
1, 29760, Note_on_c, 8, 90, 63
1, 29761, Note_on_c, 4, 71, 111
1, 29772, Note_off_c, 6, 78, 64
1, 29772, Note_off_c, 8, 90, 64
1, 29772, Note_on_c, 6, 80, 72
1, 29772, Note_on_c, 8, 92, 62
1, 29777, Note_off_c, 4, 71, 64
1, 29784, Note_off_c, 6, 80, 64
1, 29784, Note_off_c, 8, 92, 64
1, 29784, Note_on_c, 6, 78, 71
1, 29784, Note_on_c, 8, 90, 61
1, 29796, Note_off_c, 6, 78, 64
1, 29796, Note_off_c, 8, 90, 64
1, 29796, Note_on_c, 6, 80, 71
1, 29796, Note_on_c, 8, 92, 61
1, 29808, Note_off_c, 6, 80, 64
1, 29808, Note_off_c, 8, 92, 64
1, 29808, Note_on_c, 4, 73, 114
1, 29808, Note_on_c, 6, 78, 73
1, 29808, Note_on_c, 8, 90, 63
1, 29820, Note_off_c, 6, 78, 64
1, 29820, Note_off_c, 8, 90, 64
1, 29820, Note_on_c, 6, 80, 71
1, 29820, Note_on_c, 8, 92, 61
1, 29824, Note_off_c, 4, 73, 64
1, 29832, Note_off_c, 6, 80, 64
1, 29832, Note_off_c, 8, 92, 64
1, 29832, Note_on_c, 6, 78, 71
1, 29832, Note_on_c, 8, 90, 61
1, 29844, Note_off_c, 6, 78, 64
1, 29844, Note_off_c, 8, 90, 64
1, 29844, Note_on_c, 6, 80, 70
1, 29844, Note_on_c, 8, 92, 60
1, 29855, Note_on_c, 9, 38, 89
1, 29856, Note_off_c, 6, 80, 64
1, 29856, Note_off_c, 8, 92, 64
1, 29856, Note_on_c, 7, 68, 89
1, 29856, Note_on_c, 4, 73, 100
1, 29856, Note_on_c, 4, 70, 97
1, 29857, Note_off_c, 9, 38, 64
1, 29857, Note_on_c, 4, 75, 113
1, 29872, Note_off_c, 4, 73, 64
1, 29872, Note_off_c, 4, 70, 64
1, 29873, Note_off_c, 4, 75, 64
1, 29874, Note_off_c, 7, 68, 64
1, 29903, Note_on_c, 9, 38, 87
1, 29904, Note_on_c, 7, 68, 85
1, 29905, Note_off_c, 9, 38, 64
1, 29905, Note_on_c, 4, 75, 113
1, 29905, Note_on_c, 4, 73, 109
1, 29905, Note_on_c, 4, 70, 100
1, 29921, Note_off_c, 4, 70, 64
1, 29922, Note_off_c, 7, 68, 64
1, 29922, Note_off_c, 4, 75, 64
1, 29922, Note_off_c, 4, 73, 64
1, 29999, Note_on_c, 1, 34, 79
1, 30000, Note_on_c, 0, 34, 113
1, 30001, Note_on_c, 5, 46, 112
1, 30001, Note_on_c, 9, 36, 88
1, 30001, Note_on_c, 9, 59, 99
1, 30003, Note_off_c, 9, 36, 64
1, 30003, Note_off_c, 9, 59, 64
1, 30064, Note_off_c, 1, 34, 64
1, 30074, Note_off_c, 0, 34, 64
1, 30078, Note_off_c, 5, 46, 64
1, 30093, Note_on_c, 1, 36, 90
1, 30095, Note_on_c, 5, 48, 105
1, 30095, Note_on_c, 9, 38, 71
1, 30096, Note_on_c, 0, 36, 93
1, 30097, Note_off_c, 9, 38, 64
1, 30110, Note_off_c, 1, 36, 64
1, 30111, Note_off_c, 5, 48, 64
1, 30114, Note_off_c, 0, 36, 64
1, 30143, Note_on_c, 1, 37, 95
1, 30144, Note_on_c, 5, 49, 108
1, 30144, Note_on_c, 9, 38, 85
1, 30144, Note_on_c, 0, 37, 104
1, 30146, Note_off_c, 9, 38, 64
1, 30160, Note_off_c, 5, 49, 64
1, 30160, Note_off_c, 0, 37, 64
1, 30162, Note_off_c, 1, 37, 64
1, 30191, Note_on_c, 1, 41, 89
1, 30191, Note_on_c, 9, 38, 86
1, 30191, Note_on_c, 0, 41, 100
1, 30192, Note_on_c, 5, 53, 107
1, 30193, Note_off_c, 9, 38, 64
1, 30208, Note_off_c, 5, 53, 64
1, 30209, Note_off_c, 0, 41, 64
1, 30212, Note_off_c, 1, 41, 64
1, 30239, Note_on_c, 7, 67, 91
1, 30240, Note_on_c, 4, 73, 100
1, 30240, Note_on_c, 4, 70, 97
1, 30240, Note_on_c, 9, 38, 82
1, 30240, Note_on_c, 5, 51, 100
1, 30241, Note_on_c, 4, 75, 113
1, 30242, Note_off_c, 9, 38, 64
1, 30256, Note_off_c, 7, 67, 64
1, 30256, Note_off_c, 4, 73, 64
1, 30256, Note_off_c, 4, 70, 64
1, 30256, Note_off_c, 5, 51, 64
1, 30257, Note_off_c, 4, 75, 64
1, 30288, Note_on_c, 7, 67, 94
1, 30288, Note_on_c, 9, 38, 88
1, 30288, Note_on_c, 5, 51, 100
1, 30289, Note_on_c, 4, 75, 113
1, 30289, Note_on_c, 4, 73, 109
1, 30289, Note_on_c, 4, 70, 100
1, 30290, Note_off_c, 9, 38, 64
1, 30304, Note_off_c, 5, 51, 64
1, 30305, Note_off_c, 7, 67, 64
1, 30305, Note_off_c, 4, 70, 64
1, 30306, Note_off_c, 4, 75, 64
1, 30306, Note_off_c, 4, 73, 64
1, 30384, Note_on_c, 1, 39, 104
1, 30385, Note_on_c, 0, 39, 108
1, 30385, Note_on_c, 9, 36, 88
1, 30385, Note_on_c, 9, 59, 99
1, 30386, Note_on_c, 5, 51, 114
1, 30387, Note_off_c, 9, 36, 64
1, 30387, Note_off_c, 9, 59, 64
1, 30440, Note_off_c, 1, 39, 64
1, 30453, Note_off_c, 5, 51, 64
1, 30462, Note_off_c, 0, 39, 64
1, 30478, Note_on_c, 1, 41, 91
1, 30478, Note_on_c, 5, 53, 105
1, 30479, Note_on_c, 9, 38, 71
1, 30480, Note_on_c, 0, 41, 91
1, 30481, Note_off_c, 9, 38, 64
1, 30494, Note_off_c, 5, 53, 64
1, 30498, Note_off_c, 1, 41, 64
1, 30499, Note_off_c, 0, 41, 64
1, 30526, Note_on_c, 5, 55, 104
1, 30527, Note_on_c, 1, 43, 94
1, 30528, Note_on_c, 10, 51, 85
1, 30528, Note_on_c, 9, 38, 78
1, 30528, Note_on_c, 0, 43, 94
1, 30530, Note_off_c, 9, 38, 64
1, 30532, Note_off_c, 10, 51, 64
1, 30542, Note_off_c, 5, 55, 64
1, 30544, Note_off_c, 0, 43, 64
1, 30545, Note_off_c, 1, 43, 64
1, 30552, Note_on_c, 10, 51, 86
1, 30556, Note_off_c, 10, 51, 64
1, 30574, Note_on_c, 5, 58, 109
1, 30574, Note_on_c, 1, 46, 86
1, 30575, Note_on_c, 0, 46, 81
1, 30576, Note_on_c, 9, 38, 91
1, 30576, Note_on_c, 10, 51, 89
1, 30578, Note_off_c, 9, 38, 64
1, 30580, Note_off_c, 10, 51, 64
1, 30590, Note_off_c, 5, 58, 64
1, 30593, Note_off_c, 0, 46, 64
1, 30594, Note_off_c, 1, 46, 64
1, 30600, Note_on_c, 10, 51, 93
1, 30604, Note_off_c, 10, 51, 64
1, 30623, Note_on_c, 5, 56, 108
1, 30624, Note_on_c, 1, 44, 94
1, 30624, Note_on_c, 0, 44, 110
1, 30624, Note_on_c, 9, 38, 87
1, 30624, Note_on_c, 10, 44, 100
1, 30626, Note_off_c, 9, 38, 64
1, 30628, Note_off_c, 10, 44, 64
1, 30639, Note_off_c, 5, 56, 64
1, 30644, Note_off_c, 0, 44, 64
1, 30646, Note_off_c, 1, 44, 64
1, 30672, Note_on_c, 9, 38, 90
1, 30674, Note_off_c, 9, 38, 64
1, 30695, Note_on_c, 9, 38, 78
1, 30697, Note_off_c, 9, 38, 64
1, 30720, Note_on_c, 9, 38, 87
1, 30722, Note_off_c, 9, 38, 64
1, 30767, Note_on_c, 1, 42, 100
1, 30767, Note_on_c, 0, 42, 110
1, 30768, Note_on_c, 5, 54, 124
1, 30769, Note_on_c, 9, 36, 88
1, 30769, Note_on_c, 9, 59, 99
1, 30771, Note_off_c, 9, 36, 64
1, 30771, Note_off_c, 9, 59, 64
1, 30833, Note_off_c, 0, 42, 64
1, 30833, Note_off_c, 5, 54, 64
1, 30834, Note_off_c, 1, 42, 64
1, 30862, Note_on_c, 1, 39, 91
1, 30863, Note_on_c, 0, 39, 94
1, 30863, Note_on_c, 5, 51, 111
1, 30863, Note_on_c, 9, 38, 85
1, 30865, Note_off_c, 9, 38, 64
1, 30878, Note_off_c, 1, 39, 64
1, 30879, Note_off_c, 0, 39, 64
1, 30879, Note_off_c, 5, 51, 64
1, 30911, Note_on_c, 1, 42, 97
1, 30912, Note_on_c, 10, 51, 85
1, 30912, Note_on_c, 0, 42, 119
1, 30912, Note_on_c, 5, 54, 118
1, 30912, Note_on_c, 9, 38, 84
1, 30914, Note_off_c, 9, 38, 64
1, 30916, Note_off_c, 10, 51, 64
1, 30928, Note_off_c, 5, 54, 64
1, 30929, Note_off_c, 0, 42, 64
1, 30933, Note_off_c, 1, 42, 64
1, 30936, Note_on_c, 10, 51, 86
1, 30940, Note_off_c, 10, 51, 64
1, 30959, Note_on_c, 1, 46, 87
1, 30959, Note_on_c, 5, 58, 111
1, 30959, Note_on_c, 9, 38, 93
1, 30960, Note_on_c, 0, 46, 96
1, 30960, Note_on_c, 10, 51, 89
1, 30961, Note_off_c, 9, 38, 64
1, 30964, Note_off_c, 10, 51, 64
1, 30975, Note_off_c, 5, 58, 64
1, 30977, Note_off_c, 0, 46, 64
1, 30980, Note_off_c, 1, 46, 64
1, 30984, Note_on_c, 10, 51, 93
1, 30988, Note_off_c, 10, 51, 64
1, 31007, Note_on_c, 9, 38, 84
1, 31008, Note_on_c, 1, 44, 104
1, 31008, Note_on_c, 5, 56, 120
1, 31008, Note_on_c, 0, 44, 124
1, 31008, Note_on_c, 10, 44, 100
1, 31009, Note_off_c, 9, 38, 64
1, 31012, Note_off_c, 10, 44, 64
1, 31024, Note_off_c, 5, 56, 64
1, 31029, Note_off_c, 0, 44, 64
1, 31031, Note_off_c, 1, 44, 64
1, 31055, Note_on_c, 9, 38, 82
1, 31057, Note_off_c, 9, 38, 64
1, 31080, Note_on_c, 9, 38, 77
1, 31082, Note_off_c, 9, 38, 64
1, 31103, Note_on_c, 9, 38, 90
1, 31105, Note_off_c, 9, 38, 64
1, 31152, Note_on_c, 1, 42, 100
1, 31152, Note_on_c, 5, 54, 124
1, 31152, Note_on_c, 0, 42, 114
1, 31153, Note_on_c, 9, 36, 88
1, 31153, Note_on_c, 9, 59, 99
1, 31155, Note_off_c, 9, 36, 64
1, 31155, Note_off_c, 9, 59, 64
1, 31215, Note_off_c, 0, 42, 64
1, 31225, Note_off_c, 1, 42, 64
1, 31227, Note_off_c, 5, 54, 64
1, 31247, Note_on_c, 1, 39, 100
1, 31247, Note_on_c, 0, 39, 100
1, 31248, Note_on_c, 5, 51, 110
1, 31248, Note_on_c, 9, 38, 83
1, 31250, Note_off_c, 9, 38, 64
1, 31264, Note_off_c, 5, 51, 64
1, 31265, Note_off_c, 0, 39, 64
1, 31267, Note_off_c, 1, 39, 64
1, 31295, Note_on_c, 0, 39, 94
1, 31296, Note_on_c, 10, 51, 85
1, 31296, Note_on_c, 1, 39, 89
1, 31296, Note_on_c, 5, 51, 110
1, 31296, Note_on_c, 9, 38, 87
1, 31298, Note_off_c, 9, 38, 64
1, 31300, Note_off_c, 10, 51, 64
1, 31312, Note_off_c, 0, 39, 64
1, 31312, Note_off_c, 5, 51, 64
1, 31318, Note_off_c, 1, 39, 64
1, 31320, Note_on_c, 10, 51, 86
1, 31324, Note_off_c, 10, 51, 64
1, 31343, Note_on_c, 0, 39, 89
1, 31343, Note_on_c, 1, 39, 94
1, 31343, Note_on_c, 9, 38, 89
1, 31344, Note_on_c, 10, 51, 89
1, 31345, Note_off_c, 9, 38, 64
1, 31345, Note_on_c, 5, 51, 100
1, 31348, Note_off_c, 10, 51, 64
1, 31361, Note_off_c, 5, 51, 64
1, 31362, Note_off_c, 0, 39, 64
1, 31364, Note_off_c, 1, 39, 64
1, 31368, Note_on_c, 10, 51, 93
1, 31372, Note_off_c, 10, 51, 64
1, 31392, Note_on_c, 1, 44, 100
1, 31392, Note_on_c, 9, 38, 87
1, 31392, Note_on_c, 10, 44, 100
1, 31393, Note_on_c, 0, 44, 119
1, 31394, Note_off_c, 9, 38, 64
1, 31394, Note_on_c, 5, 56, 110
1, 31396, Note_off_c, 10, 44, 64
1, 31410, Note_off_c, 5, 56, 64
1, 31415, Note_off_c, 1, 44, 64
1, 31422, Note_off_c, 0, 44, 64
1, 31439, Note_on_c, 9, 38, 86
1, 31441, Note_off_c, 9, 38, 64
1, 31463, Note_on_c, 9, 38, 76
1, 31465, Note_off_c, 9, 38, 64
1, 31487, Note_on_c, 9, 38, 89
1, 31489, Note_off_c, 9, 38, 64
1, 31535, Note_on_c, 1, 42, 100
1, 31536, Note_on_c, 0, 42, 119
1, 31536, Note_on_c, 5, 54, 124
1, 31537, Note_on_c, 9, 36, 88
1, 31537, Note_on_c, 9, 59, 99
1, 31539, Note_off_c, 9, 36, 64
1, 31539, Note_off_c, 9, 59, 64
1, 31605, Note_off_c, 5, 54, 64
1, 31609, Note_off_c, 0, 42, 64
1, 31616, Note_off_c, 1, 42, 64
1, 31631, Note_on_c, 1, 39, 91
1, 31631, Note_on_c, 5, 51, 119
1, 31631, Note_on_c, 9, 38, 87
1, 31632, Note_on_c, 0, 39, 100
1, 31633, Note_off_c, 9, 38, 64
1, 31647, Note_off_c, 5, 51, 64
1, 31649, Note_off_c, 1, 39, 64
1, 31652, Note_off_c, 0, 39, 64
1, 31679, Note_on_c, 1, 42, 94
1, 31679, Note_on_c, 5, 54, 114
1, 31679, Note_on_c, 9, 38, 88
1, 31680, Note_on_c, 10, 51, 85
1, 31680, Note_on_c, 0, 42, 107
1, 31681, Note_off_c, 9, 38, 64
1, 31684, Note_off_c, 10, 51, 64
1, 31695, Note_off_c, 5, 54, 64
1, 31698, Note_off_c, 1, 42, 64
1, 31698, Note_off_c, 0, 42, 64
1, 31704, Note_on_c, 10, 51, 86
1, 31708, Note_off_c, 10, 51, 64
1, 31727, Note_on_c, 1, 46, 87
1, 31727, Note_on_c, 5, 58, 120
1, 31728, Note_on_c, 9, 38, 87
1, 31728, Note_on_c, 0, 46, 94
1, 31728, Note_on_c, 10, 51, 89
1, 31730, Note_off_c, 9, 38, 64
1, 31732, Note_off_c, 10, 51, 64
1, 31743, Note_off_c, 5, 58, 64
1, 31747, Note_off_c, 1, 46, 64
1, 31748, Note_off_c, 0, 46, 64
1, 31752, Note_on_c, 10, 51, 93
1, 31756, Note_off_c, 10, 51, 64
1, 31775, Note_on_c, 5, 56, 120
1, 31776, Note_on_c, 1, 44, 104
1, 31776, Note_on_c, 9, 38, 90
1, 31776, Note_on_c, 10, 44, 100
1, 31777, Note_on_c, 0, 44, 124
1, 31778, Note_off_c, 9, 38, 64
1, 31780, Note_off_c, 10, 44, 64
1, 31791, Note_off_c, 5, 56, 64
1, 31794, Note_off_c, 1, 44, 64
1, 31804, Note_off_c, 0, 44, 64
1, 31823, Note_on_c, 9, 38, 85
1, 31825, Note_off_c, 9, 38, 64
1, 31847, Note_on_c, 9, 38, 76
1, 31849, Note_off_c, 9, 38, 64
1, 31872, Note_on_c, 9, 38, 88
1, 31874, Note_off_c, 9, 38, 64
1, 31918, Note_on_c, 5, 54, 124
1, 31920, Note_on_c, 1, 42, 104
1, 31920, Note_on_c, 0, 42, 119
1, 31921, Note_on_c, 9, 36, 88
1, 31921, Note_on_c, 9, 59, 99
1, 31923, Note_off_c, 9, 36, 64
1, 31923, Note_off_c, 9, 59, 64
1, 31989, Note_off_c, 1, 42, 64
1, 31990, Note_off_c, 0, 42, 64
1, 31996, Note_off_c, 5, 54, 64
1, 32014, Note_on_c, 5, 51, 108
1, 32016, Note_on_c, 1, 39, 104
1, 32016, Note_on_c, 0, 39, 98
1, 32016, Note_on_c, 9, 38, 81
1, 32018, Note_off_c, 9, 38, 64
1, 32030, Note_off_c, 5, 51, 64
1, 32032, Note_off_c, 0, 39, 64
1, 32035, Note_off_c, 1, 39, 64
1, 32056, Note_on_c, 13, 51, 50
1, 32063, Note_on_c, 2, 75, 63
1, 32063, Note_on_c, 1, 39, 89
1, 32063, Note_on_c, 0, 39, 100
1, 32063, Note_on_c, 9, 38, 86
1, 32064, Note_off_c, 13, 51, 64
1, 32064, Note_on_c, 8, 75, 50
1, 32064, Note_on_c, 10, 51, 85
1, 32064, Note_on_c, 5, 51, 113
1, 32064, Note_on_c, 13, 53, 58
1, 32065, Note_off_c, 9, 38, 64
1, 32068, Note_off_c, 10, 51, 64
1, 32072, Note_off_c, 13, 53, 64
1, 32072, Note_on_c, 13, 55, 60
1, 32079, Note_off_c, 2, 75, 64
1, 32079, Note_off_c, 0, 39, 64
1, 32079, Note_on_c, 2, 77, 69
1, 32080, Note_off_c, 8, 75, 64
1, 32080, Note_off_c, 5, 51, 64
1, 32080, Note_off_c, 13, 55, 64
1, 32080, Note_on_c, 8, 77, 55
1, 32080, Note_on_c, 13, 56, 55
1, 32081, Note_off_c, 1, 39, 64
1, 32088, Note_off_c, 13, 56, 64
1, 32088, Note_on_c, 10, 51, 86
1, 32088, Note_on_c, 13, 58, 59
1, 32092, Note_off_c, 10, 51, 64
1, 32095, Note_off_c, 2, 77, 64
1, 32095, Note_on_c, 2, 79, 78
1, 32096, Note_off_c, 8, 77, 64
1, 32096, Note_off_c, 13, 58, 64
1, 32096, Note_on_c, 8, 79, 62
1, 32096, Note_on_c, 13, 60, 56
1, 32104, Note_off_c, 13, 60, 64
1, 32104, Note_on_c, 13, 61, 59
1, 32111, Note_off_c, 2, 79, 64
1, 32111, Note_on_c, 1, 39, 85
1, 32111, Note_on_c, 0, 39, 89
1, 32111, Note_on_c, 2, 80, 78
1, 32112, Note_off_c, 8, 79, 64
1, 32112, Note_off_c, 13, 61, 64
1, 32112, Note_on_c, 9, 38, 89
1, 32112, Note_on_c, 5, 51, 106
1, 32112, Note_on_c, 10, 51, 89
1, 32112, Note_on_c, 8, 80, 62
1, 32112, Note_on_c, 13, 63, 59
1, 32114, Note_off_c, 9, 38, 64
1, 32116, Note_off_c, 10, 51, 64
1, 32120, Note_off_c, 13, 63, 64
1, 32120, Note_on_c, 13, 65, 56
1, 32123, Note_off_c, 2, 80, 64
1, 32123, Note_on_c, 2, 82, 78
1, 32124, Note_off_c, 8, 80, 64
1, 32124, Note_on_c, 8, 82, 62
1, 32128, Note_off_c, 5, 51, 64
1, 32128, Note_off_c, 13, 65, 64
1, 32128, Note_on_c, 13, 67, 59
1, 32129, Note_off_c, 0, 39, 64
1, 32132, Note_off_c, 1, 39, 64
1, 32135, Note_off_c, 2, 82, 64
1, 32135, Note_on_c, 2, 84, 85
1, 32136, Note_off_c, 8, 82, 64
1, 32136, Note_off_c, 13, 67, 64
1, 32136, Note_on_c, 10, 51, 93
1, 32136, Note_on_c, 8, 84, 68
1, 32136, Note_on_c, 13, 68, 59
1, 32140, Note_off_c, 10, 51, 64
1, 32144, Note_off_c, 13, 68, 64
1, 32144, Note_on_c, 13, 70, 58
1, 32147, Note_off_c, 2, 84, 64
1, 32147, Note_on_c, 2, 85, 87
1, 32148, Note_off_c, 8, 84, 64
1, 32148, Note_on_c, 8, 85, 70
1, 32152, Note_off_c, 13, 70, 64
1, 32152, Note_on_c, 13, 72, 65
1, 32159, Note_off_c, 2, 85, 64
1, 32159, Note_on_c, 2, 87, 74
1, 32160, Tempo, 483870
1, 32160, Note_off_c, 8, 85, 64
1, 32160, Note_off_c, 13, 72, 64
1, 32160, Note_on_c, 8, 87, 59
1, 32160, Note_on_c, 13, 73, 59
1, 32161, Note_on_c, 9, 59, 100
1, 32163, Note_off_c, 9, 59, 64
1, 32168, Note_off_c, 13, 73, 64
1, 32168, Note_on_c, 13, 75, 70
1, 32171, Note_off_c, 2, 87, 64
1, 32171, Note_on_c, 2, 89, 64
1, 32172, Note_off_c, 8, 87, 64
1, 32172, Note_on_c, 8, 89, 59
1, 32176, Note_off_c, 13, 75, 64
1, 32180, Tempo, 487804
1, 32183, Note_off_c, 2, 89, 64
1, 32183, Note_on_c, 2, 87, 64
1, 32184, Note_off_c, 8, 89, 64
1, 32184, Tempo, 491803
1, 32184, Note_on_c, 8, 87, 59
1, 32195, Note_off_c, 2, 87, 64
1, 32195, Note_on_c, 2, 89, 64
1, 32196, Note_off_c, 8, 87, 64
1, 32196, Note_on_c, 8, 89, 59
1, 32200, Tempo, 495867
1, 32204, Tempo, 504201
1, 32207, Note_off_c, 2, 89, 64
1, 32207, Note_on_c, 2, 87, 64
1, 32208, Note_off_c, 8, 89, 64
1, 32208, Note_on_c, 8, 87, 59
1, 32219, Note_off_c, 2, 87, 64
1, 32219, Note_on_c, 2, 89, 64
1, 32220, Tempo, 508474
1, 32220, Note_off_c, 8, 87, 64
1, 32220, Note_on_c, 8, 89, 59
1, 32224, Tempo, 512820
1, 32231, Note_off_c, 2, 89, 64
1, 32231, Note_on_c, 2, 87, 64
1, 32232, Note_off_c, 8, 89, 64
1, 32232, Note_on_c, 8, 87, 59
1, 32240, Tempo, 517241
1, 32243, Note_off_c, 2, 87, 64
1, 32243, Note_on_c, 2, 89, 64
1, 32244, Note_off_c, 8, 87, 64
1, 32244, Tempo, 521739
1, 32244, Note_on_c, 8, 89, 59
1, 32255, Note_off_c, 2, 89, 64
1, 32255, Note_on_c, 2, 87, 64
1, 32256, Note_off_c, 8, 89, 64
1, 32256, Note_on_c, 8, 87, 59
1, 32260, Tempo, 535714
1, 32264, Tempo, 535714
1, 32267, Note_off_c, 2, 87, 64
1, 32267, Note_on_c, 2, 89, 64
1, 32268, Note_off_c, 8, 87, 64
1, 32268, Note_on_c, 8, 89, 59
1, 32276, Tempo, 540540
1, 32279, Note_off_c, 2, 89, 64
1, 32279, Note_on_c, 2, 87, 64
1, 32280, Note_off_c, 8, 89, 64
1, 32280, Tempo, 545454
1, 32280, Note_on_c, 8, 87, 59
1, 32291, Note_off_c, 2, 87, 64
1, 32291, Note_on_c, 2, 89, 64
1, 32292, Tempo, 550458
1, 32292, Note_off_c, 8, 87, 64
1, 32292, Note_on_c, 8, 89, 59
1, 32296, Tempo, 555555
1, 32303, Note_off_c, 2, 89, 64
1, 32303, Note_on_c, 2, 87, 64
1, 32304, Note_off_c, 8, 89, 64
1, 32304, Note_on_c, 8, 87, 59
1, 32308, Tempo, 560747
1, 32312, Tempo, 566037
1, 32315, Note_off_c, 2, 87, 64
1, 32315, Note_on_c, 2, 89, 64
1, 32316, Note_off_c, 8, 87, 64
1, 32316, Note_on_c, 8, 89, 59
1, 32324, Tempo, 571428
1, 32327, Note_off_c, 2, 89, 64
1, 32327, Note_on_c, 2, 87, 64
1, 32328, Note_off_c, 8, 89, 64
1, 32328, Tempo, 576923
1, 32328, Note_on_c, 8, 87, 59
1, 32339, Note_off_c, 2, 87, 64
1, 32339, Note_on_c, 2, 89, 64
1, 32340, Tempo, 582524
1, 32340, Note_off_c, 8, 87, 64
1, 32340, Note_on_c, 8, 89, 59
1, 32344, Tempo, 588235
1, 32351, Note_off_c, 2, 89, 64
1, 32351, Note_on_c, 2, 87, 64
1, 32352, Note_off_c, 8, 89, 64
1, 32352, Note_on_c, 8, 87, 59
1, 32356, Tempo, 600000
1, 32360, Tempo, 600000
1, 32363, Note_off_c, 2, 87, 64
1, 32363, Note_on_c, 2, 89, 64
1, 32364, Note_off_c, 8, 87, 64
1, 32364, Note_on_c, 8, 89, 59
1, 32368, Tempo, 606060
1, 32372, Tempo, 612244
1, 32375, Note_off_c, 2, 89, 64
1, 32375, Note_on_c, 2, 87, 64
1, 32376, Note_off_c, 8, 89, 64
1, 32376, Note_on_c, 8, 87, 59
1, 32384, Tempo, 625000
1, 32387, Note_off_c, 2, 87, 64
1, 32387, Note_on_c, 2, 89, 64
1, 32388, Note_off_c, 8, 87, 64
1, 32388, Tempo, 625000
1, 32388, Note_on_c, 8, 89, 59
1, 32396, Tempo, 631578
1, 32399, Note_off_c, 2, 89, 64
1, 32399, Note_on_c, 2, 87, 64
1, 32400, Note_off_c, 8, 89, 64
1, 32400, Tempo, 638297
1, 32400, Note_on_c, 8, 87, 59
1, 32408, Tempo, 645161
1, 32411, Note_off_c, 2, 87, 64
1, 32411, Note_on_c, 2, 89, 64
1, 32412, Note_off_c, 8, 87, 64
1, 32412, Tempo, 652173
1, 32412, Note_on_c, 8, 89, 59
1, 32420, Tempo, 659340
1, 32423, Note_off_c, 2, 89, 64
1, 32423, Note_on_c, 2, 87, 64
1, 32424, Note_off_c, 8, 89, 64
1, 32424, Tempo, 666666
1, 32424, Note_on_c, 8, 87, 59
1, 32432, Tempo, 666666
1, 32435, Note_off_c, 2, 87, 64
1, 32435, Note_on_c, 2, 89, 64
1, 32436, Note_off_c, 8, 87, 64
1, 32436, Tempo, 681818
1, 32436, Note_on_c, 8, 89, 59
1, 32444, Tempo, 681818
1, 32445, Note_on_c, 5, 56, 110
1, 32445, Note_on_c, 5, 53, 110
1, 32447, Note_off_c, 2, 89, 64
1, 32447, Note_on_c, 6, 55, 86
1, 32447, Note_on_c, 6, 60, 91
1, 32447, Note_on_c, 1, 34, 85
1, 32447, Note_on_c, 1, 46, 85
1, 32447, Note_on_c, 2, 87, 64
1, 32448, Note_off_c, 8, 89, 64
1, 32448, Tempo, 697674
1, 32448, Note_on_c, 0, 46, 110
1, 32448, Note_on_c, 8, 87, 59
1, 32449, Note_on_c, 7, 60, 99
1, 32456, Tempo, 705882
1, 32459, Note_off_c, 2, 87, 64
1, 32459, Note_on_c, 2, 89, 64
1, 32460, Note_off_c, 8, 87, 64
1, 32460, Tempo, 705882
1, 32460, Note_on_c, 8, 89, 59
1, 32465, Note_off_c, 0, 46, 64
1, 32468, Note_off_c, 1, 34, 64
1, 32468, Note_off_c, 1, 46, 64
1, 32468, Tempo, 722891
1, 32469, Note_off_c, 5, 56, 64
1, 32469, Note_off_c, 5, 53, 64
1, 32471, Note_off_c, 2, 89, 64
1, 32471, Note_on_c, 2, 87, 64
1, 32472, Note_off_c, 8, 89, 64
1, 32472, Tempo, 722891
1, 32472, Note_on_c, 8, 87, 59
1, 32473, Note_off_c, 6, 55, 64
1, 32473, Note_off_c, 7, 60, 64
1, 32474, Note_off_c, 6, 60, 64
1, 32476, Tempo, 722891
1, 32480, Tempo, 740740
1, 32483, Note_off_c, 2, 87, 64
1, 32483, Note_on_c, 2, 89, 64
1, 32484, Note_off_c, 8, 87, 64
1, 32484, Note_on_c, 8, 89, 59
1, 32488, Tempo, 750000
1, 32492, Tempo, 750000
1, 32495, Note_off_c, 2, 89, 64
1, 32495, Note_on_c, 2, 87, 64
1, 32496, Note_off_c, 8, 89, 64
1, 32496, Tempo, 759493
1, 32496, Note_on_c, 5, 55, 110
1, 32496, Note_on_c, 5, 52, 110
1, 32496, Note_on_c, 6, 61, 90
1, 32496, Note_on_c, 1, 33, 83
1, 32496, Note_on_c, 1, 45, 81
1, 32496, Note_on_c, 0, 45, 114
1, 32496, Note_on_c, 8, 87, 59
1, 32497, Note_on_c, 6, 56, 88
1, 32498, Note_on_c, 7, 59, 99
1, 32500, Tempo, 769230
1, 32507, Note_off_c, 2, 87, 64
1, 32507, Note_on_c, 2, 89, 64
1, 32508, Note_off_c, 8, 87, 64
1, 32508, Tempo, 779220
1, 32508, Note_on_c, 8, 89, 59
1, 32510, Note_off_c, 0, 45, 64
1, 32512, Tempo, 779220
1, 32516, Tempo, 789473
1, 32518, Note_off_c, 1, 33, 64
1, 32519, Note_off_c, 6, 56, 64
1, 32519, Note_off_c, 2, 89, 64
1, 32519, Note_on_c, 2, 87, 64
1, 32520, Note_off_c, 8, 89, 64
1, 32520, Tempo, 800000
1, 32520, Note_on_c, 8, 87, 59
1, 32523, Note_off_c, 1, 45, 64
1, 32524, Note_off_c, 5, 55, 64
1, 32524, Note_off_c, 5, 52, 64
1, 32524, Note_off_c, 6, 61, 64
1, 32524, Tempo, 800000
1, 32527, Note_off_c, 7, 59, 64
1, 32528, Tempo, 810810
1, 32531, Note_off_c, 2, 87, 64
1, 32531, Note_on_c, 2, 89, 64
1, 32532, Note_off_c, 8, 87, 64
1, 32532, Note_on_c, 8, 89, 59
1, 32536, Tempo, 833333
1, 32540, Tempo, 833333
1, 32543, Note_off_c, 2, 89, 64
1, 32543, Note_on_c, 3, 51, 62
1, 32543, Note_on_c, 3, 54, 64
1, 32543, Note_on_c, 2, 87, 64
1, 32544, Note_off_c, 8, 89, 64
1, 32544, Tempo, 714285
1, 32544, Note_on_c, 10, 44, 97
1, 32544, Note_on_c, 0, 44, 117
1, 32544, Note_on_c, 6, 63, 95
1, 32544, Note_on_c, 6, 58, 90
1, 32544, Note_on_c, 8, 87, 59
1, 32545, Note_on_c, 9, 59, 100
1, 32545, Note_on_c, 5, 54, 111
1, 32545, Note_on_c, 5, 51, 119
1, 32545, Note_on_c, 1, 44, 91
1, 32545, Note_on_c, 1, 32, 81
1, 32546, Note_on_c, 7, 58, 99
1, 32547, Note_off_c, 9, 59, 64
1, 32548, Note_off_c, 10, 44, 64
1, 32555, Note_off_c, 2, 87, 64
1, 32555, Note_on_c, 2, 89, 64
1, 32556, Control_c, 6, 11, 125
1, 32556, Note_off_c, 8, 87, 64
1, 32556, Note_on_c, 10, 44, 89
1, 32556, Note_on_c, 8, 89, 59
1, 32557, Control_c, 7, 11, 125
1, 32558, Control_c, 5, 11, 125
1, 32559, Control_c, 0, 11, 125
1, 32559, Control_c, 6, 11, 121
1, 32560, Note_off_c, 10, 44, 64
1, 32560, Control_c, 7, 11, 121
1, 32561, Control_c, 5, 11, 121
1, 32562, Control_c, 0, 11, 121
1, 32562, Control_c, 6, 11, 117
1, 32563, Control_c, 7, 11, 117
1, 32564, Control_c, 5, 11, 117
1, 32565, Control_c, 0, 11, 117
1, 32565, Control_c, 6, 11, 112
1, 32566, Control_c, 7, 11, 112
1, 32567, Note_off_c, 2, 89, 64
1, 32567, Note_on_c, 2, 87, 64
1, 32567, Control_c, 5, 11, 112
1, 32568, Note_off_c, 8, 89, 64
1, 32568, Note_on_c, 10, 44, 81
1, 32568, Control_c, 0, 11, 112
1, 32568, Note_on_c, 8, 87, 59
1, 32568, Control_c, 6, 11, 108
1, 32569, Control_c, 7, 11, 108
1, 32570, Control_c, 5, 11, 108
1, 32571, Control_c, 0, 11, 108
1, 32571, Control_c, 6, 11, 104
1, 32572, Note_off_c, 10, 44, 64
1, 32572, Control_c, 7, 11, 104
1, 32573, Control_c, 5, 11, 104
1, 32574, Control_c, 0, 11, 104
1, 32574, Control_c, 6, 11, 99
1, 32575, Control_c, 7, 11, 99
1, 32576, Control_c, 5, 11, 99
1, 32577, Control_c, 0, 11, 99
1, 32577, Control_c, 6, 11, 95
1, 32578, Control_c, 7, 11, 95
1, 32579, Note_off_c, 2, 87, 64
1, 32579, Note_on_c, 2, 89, 64
1, 32579, Control_c, 5, 11, 95
1, 32580, Note_off_c, 8, 87, 64
1, 32580, Note_on_c, 10, 44, 73
1, 32580, Control_c, 0, 11, 95
1, 32580, Note_on_c, 8, 89, 59
1, 32580, Control_c, 6, 11, 91
1, 32581, Control_c, 7, 11, 91
1, 32582, Control_c, 5, 11, 91
1, 32583, Control_c, 0, 11, 91
1, 32583, Control_c, 6, 11, 86
1, 32584, Note_off_c, 10, 44, 64
1, 32584, Control_c, 7, 11, 86
1, 32585, Control_c, 5, 11, 86
1, 32586, Control_c, 0, 11, 86
1, 32586, Control_c, 6, 11, 82
1, 32587, Control_c, 7, 11, 82
1, 32588, Control_c, 5, 11, 82
1, 32589, Control_c, 0, 11, 82
1, 32589, Control_c, 6, 11, 77
1, 32590, Control_c, 7, 11, 77
1, 32591, Note_off_c, 2, 89, 64
1, 32591, Note_on_c, 2, 87, 64
1, 32591, Control_c, 5, 11, 77
1, 32592, Note_off_c, 8, 89, 64
1, 32592, Note_on_c, 10, 44, 64
1, 32592, Control_c, 0, 11, 77
1, 32592, Note_on_c, 8, 87, 59
1, 32596, Note_off_c, 10, 44, 64
1, 32602, Control_c, 6, 11, 79
1, 32603, Note_off_c, 2, 87, 64
1, 32603, Note_on_c, 2, 89, 64
1, 32603, Control_c, 7, 11, 79
1, 32604, Note_off_c, 8, 87, 64
1, 32604, Note_on_c, 10, 44, 65
1, 32604, Control_c, 5, 11, 79
1, 32604, Note_on_c, 8, 89, 59
1, 32605, Control_c, 0, 11, 79
1, 32608, Note_off_c, 10, 44, 64
1, 32615, Note_off_c, 2, 89, 64
1, 32615, Note_on_c, 2, 87, 64
1, 32615, Control_c, 6, 11, 81
1, 32616, Note_off_c, 8, 89, 64
1, 32616, Note_on_c, 10, 44, 67
1, 32616, Control_c, 7, 11, 81
1, 32616, Note_on_c, 8, 87, 59
1, 32617, Control_c, 5, 11, 81
1, 32618, Control_c, 0, 11, 81
1, 32620, Note_off_c, 10, 44, 64
1, 32627, Note_off_c, 2, 87, 64
1, 32627, Note_on_c, 2, 89, 64
1, 32628, Note_off_c, 8, 87, 64
1, 32628, Note_on_c, 10, 44, 69
1, 32628, Note_on_c, 8, 89, 59
1, 32629, Control_c, 6, 11, 83
1, 32630, Control_c, 7, 11, 83
1, 32631, Control_c, 5, 11, 83
1, 32632, Note_off_c, 10, 44, 64
1, 32632, Control_c, 0, 11, 83
1, 32639, Note_off_c, 2, 89, 64
1, 32639, Note_on_c, 2, 87, 64
1, 32640, Note_off_c, 8, 89, 64
1, 32640, Note_on_c, 10, 44, 71
1, 32640, Note_on_c, 8, 87, 59
1, 32642, Control_c, 6, 11, 85
1, 32643, Control_c, 7, 11, 85
1, 32644, Note_off_c, 10, 44, 64
1, 32644, Control_c, 5, 11, 85
1, 32645, Control_c, 0, 11, 85
1, 32651, Note_off_c, 2, 87, 64
1, 32651, Note_on_c, 2, 89, 64
1, 32652, Note_off_c, 8, 87, 64
1, 32652, Note_on_c, 10, 44, 74
1, 32652, Note_on_c, 8, 89, 59
1, 32656, Control_c, 6, 11, 87
1, 32656, Note_off_c, 10, 44, 64
1, 32657, Control_c, 7, 11, 87
1, 32658, Control_c, 5, 11, 87
1, 32659, Control_c, 0, 11, 87
1, 32663, Note_off_c, 2, 89, 64
1, 32663, Note_on_c, 2, 87, 64
1, 32664, Note_off_c, 8, 89, 64
1, 32664, Note_on_c, 10, 44, 76
1, 32664, Note_on_c, 8, 87, 59
1, 32668, Note_off_c, 10, 44, 64
1, 32669, Control_c, 6, 11, 89
1, 32670, Control_c, 7, 11, 89
1, 32671, Control_c, 5, 11, 89
1, 32672, Control_c, 0, 11, 89
1, 32675, Note_off_c, 2, 87, 64
1, 32675, Note_on_c, 2, 89, 64
1, 32676, Note_off_c, 8, 87, 64
1, 32676, Note_on_c, 10, 44, 77
1, 32676, Note_on_c, 8, 89, 59
1, 32680, Note_off_c, 10, 44, 64
1, 32683, Control_c, 6, 11, 91
1, 32684, Control_c, 7, 11, 91
1, 32685, Control_c, 5, 11, 91
1, 32686, Control_c, 0, 11, 91
1, 32687, Note_off_c, 2, 89, 64
1, 32687, Note_on_c, 2, 87, 64
1, 32688, Note_off_c, 8, 89, 64
1, 32688, Note_on_c, 10, 44, 80
1, 32688, Note_on_c, 8, 87, 59
1, 32692, Note_off_c, 10, 44, 64
1, 32696, Control_c, 6, 11, 93
1, 32697, Control_c, 7, 11, 93
1, 32698, Control_c, 5, 11, 93
1, 32699, Note_off_c, 2, 87, 64
1, 32699, Note_on_c, 2, 89, 64
1, 32699, Control_c, 0, 11, 93
1, 32700, Note_off_c, 8, 87, 64
1, 32700, Note_on_c, 10, 44, 82
1, 32700, Note_on_c, 8, 89, 59
1, 32704, Note_off_c, 10, 44, 64
1, 32709, Control_c, 6, 11, 95
1, 32710, Control_c, 7, 11, 95
1, 32711, Note_off_c, 2, 89, 64
1, 32711, Note_on_c, 2, 87, 64
1, 32711, Control_c, 5, 11, 95
1, 32712, Note_off_c, 8, 89, 64
1, 32712, Note_on_c, 10, 44, 84
1, 32712, Control_c, 0, 11, 95
1, 32712, Note_on_c, 8, 87, 59
1, 32716, Note_off_c, 10, 44, 64
1, 32723, Note_off_c, 2, 87, 64
1, 32723, Control_c, 6, 11, 97
1, 32723, Note_on_c, 2, 89, 64
1, 32724, Note_off_c, 8, 87, 64
1, 32724, Control_c, 7, 11, 97
1, 32724, Note_on_c, 10, 44, 85
1, 32724, Note_on_c, 8, 89, 59
1, 32725, Control_c, 5, 11, 97
1, 32726, Control_c, 0, 11, 97
1, 32728, Note_off_c, 10, 44, 64
1, 32735, Note_off_c, 2, 89, 64
1, 32735, Note_on_c, 2, 87, 64
1, 32736, Note_off_c, 8, 89, 64
1, 32736, Control_c, 6, 11, 99
1, 32736, Note_on_c, 11, 60, 100
1, 32736, Note_on_c, 10, 44, 88
1, 32736, Note_on_c, 8, 87, 59
1, 32737, Control_c, 7, 11, 99
1, 32738, Control_c, 5, 11, 99
1, 32739, Control_c, 0, 11, 99
1, 32740, Note_off_c, 10, 44, 64
1, 32747, Note_off_c, 2, 87, 64
1, 32747, Note_on_c, 2, 89, 64
1, 32748, Note_off_c, 8, 87, 64
1, 32748, Note_on_c, 10, 44, 89
1, 32748, Note_on_c, 8, 89, 59
1, 32750, Control_c, 6, 11, 101
1, 32751, Control_c, 7, 11, 101
1, 32752, Note_off_c, 10, 44, 64
1, 32752, Control_c, 5, 11, 101
1, 32753, Control_c, 0, 11, 101
1, 32759, Note_off_c, 2, 89, 64
1, 32759, Note_on_c, 2, 87, 64
1, 32760, Note_off_c, 8, 89, 64
1, 32760, Note_on_c, 10, 44, 91
1, 32760, Note_on_c, 8, 87, 59
1, 32763, Control_c, 6, 11, 103
1, 32764, Note_off_c, 10, 44, 64
1, 32764, Control_c, 7, 11, 103
1, 32765, Control_c, 5, 11, 103
1, 32766, Control_c, 0, 11, 103
1, 32771, Note_off_c, 2, 87, 64
1, 32771, Note_on_c, 2, 89, 64
1, 32772, Note_off_c, 8, 87, 64
1, 32772, Note_on_c, 10, 44, 94
1, 32772, Note_on_c, 8, 89, 59
1, 32776, Note_off_c, 10, 44, 64
1, 32777, Control_c, 6, 11, 105
1, 32778, Control_c, 7, 11, 105
1, 32779, Control_c, 5, 11, 105
1, 32780, Control_c, 0, 11, 105
1, 32783, Note_off_c, 2, 89, 64
1, 32783, Note_on_c, 2, 87, 64
1, 32784, Note_off_c, 8, 89, 64
1, 32784, Note_on_c, 10, 44, 96
1, 32784, Note_on_c, 8, 87, 59
1, 32788, Note_off_c, 10, 44, 64
1, 32790, Control_c, 6, 11, 107
1, 32791, Control_c, 7, 11, 107
1, 32792, Control_c, 5, 11, 107
1, 32793, Control_c, 0, 11, 107
1, 32795, Note_off_c, 2, 87, 64
1, 32795, Note_on_c, 2, 89, 64
1, 32796, Note_off_c, 8, 87, 64
1, 32796, Note_on_c, 10, 44, 98
1, 32796, Note_on_c, 8, 89, 59
1, 32800, Note_off_c, 10, 44, 64
1, 32804, Control_c, 6, 11, 109
1, 32805, Control_c, 7, 11, 109
1, 32806, Control_c, 5, 11, 109
1, 32807, Note_off_c, 2, 89, 64
1, 32807, Note_on_c, 2, 87, 64
1, 32807, Control_c, 0, 11, 109
1, 32808, Note_off_c, 8, 89, 64
1, 32808, Note_on_c, 10, 44, 100
1, 32808, Note_on_c, 8, 87, 59
1, 32812, Note_off_c, 10, 44, 64
1, 32817, Control_c, 6, 11, 111
1, 32818, Control_c, 7, 11, 111
1, 32819, Note_off_c, 2, 87, 64
1, 32819, Note_on_c, 2, 89, 64
1, 32819, Control_c, 5, 11, 111
1, 32820, Note_off_c, 8, 87, 64
1, 32820, Note_on_c, 10, 44, 102
1, 32820, Control_c, 0, 11, 111
1, 32820, Note_on_c, 8, 89, 59
1, 32824, Note_off_c, 10, 44, 64
1, 32830, Control_c, 6, 11, 113
1, 32831, Note_off_c, 2, 89, 64
1, 32831, Note_on_c, 2, 87, 64
1, 32831, Control_c, 7, 11, 113
1, 32832, Note_off_c, 8, 89, 64
1, 32832, Note_on_c, 10, 44, 104
1, 32832, Control_c, 5, 11, 113
1, 32832, Note_on_c, 8, 87, 59
1, 32833, Control_c, 0, 11, 113
1, 32836, Note_off_c, 10, 44, 64
1, 32843, Note_off_c, 2, 87, 64
1, 32843, Note_on_c, 2, 89, 64
1, 32844, Note_off_c, 8, 87, 64
1, 32844, Control_c, 6, 11, 115
1, 32844, Note_on_c, 10, 44, 106
1, 32844, Note_on_c, 8, 89, 59
1, 32845, Control_c, 7, 11, 115
1, 32846, Control_c, 5, 11, 115
1, 32847, Control_c, 0, 11, 115
1, 32848, Note_off_c, 10, 44, 64
1, 32855, Note_off_c, 2, 89, 64
1, 32855, Note_on_c, 2, 87, 64
1, 32856, Note_off_c, 8, 89, 64
1, 32856, Note_on_c, 10, 44, 108
1, 32856, Note_on_c, 8, 87, 59
1, 32857, Control_c, 6, 11, 117
1, 32858, Control_c, 7, 11, 117
1, 32859, Control_c, 5, 11, 117
1, 32860, Note_off_c, 10, 44, 64
1, 32860, Control_c, 0, 11, 117
1, 32867, Note_off_c, 2, 87, 64
1, 32867, Note_on_c, 2, 89, 64
1, 32868, Note_off_c, 8, 87, 64
1, 32868, Note_on_c, 10, 44, 110
1, 32868, Note_on_c, 8, 89, 59
1, 32871, Control_c, 6, 11, 119
1, 32872, Note_off_c, 10, 44, 64
1, 32872, Control_c, 7, 11, 119
1, 32873, Control_c, 5, 11, 119
1, 32874, Control_c, 0, 11, 119
1, 32879, Note_off_c, 2, 89, 64
1, 32879, Note_on_c, 2, 87, 64
1, 32880, Note_off_c, 8, 89, 64
1, 32880, Note_on_c, 10, 44, 112
1, 32880, Note_on_c, 8, 87, 59
1, 32884, Control_c, 6, 11, 121
1, 32884, Note_off_c, 10, 44, 64
1, 32885, Control_c, 7, 11, 121
1, 32886, Control_c, 5, 11, 121
1, 32887, Control_c, 0, 11, 121
1, 32891, Note_off_c, 2, 87, 64
1, 32891, Note_on_c, 2, 89, 64
1, 32892, Note_off_c, 8, 87, 64
1, 32892, Note_on_c, 10, 44, 114
1, 32892, Note_on_c, 8, 89, 59
1, 32896, Note_off_c, 10, 44, 64
1, 32898, Control_c, 6, 11, 123
1, 32899, Control_c, 7, 11, 123
1, 32900, Control_c, 5, 11, 123
1, 32901, Control_c, 0, 11, 123
1, 32903, Note_off_c, 2, 89, 64
1, 32903, Note_on_c, 2, 87, 64
1, 32904, Note_off_c, 8, 89, 64
1, 32904, Note_on_c, 10, 44, 116
1, 32904, Note_on_c, 8, 87, 59
1, 32908, Note_off_c, 10, 44, 64
1, 32911, Control_c, 6, 11, 125
1, 32912, Control_c, 7, 11, 125
1, 32913, Control_c, 5, 11, 125
1, 32914, Control_c, 0, 11, 125
1, 32915, Note_off_c, 2, 87, 64
1, 32915, Note_on_c, 2, 89, 64
1, 32916, Note_off_c, 8, 87, 64
1, 32916, Note_on_c, 10, 44, 118
1, 32916, Note_on_c, 8, 89, 59
1, 32920, Note_off_c, 10, 44, 64
1, 32925, Control_c, 6, 11, 127
1, 32926, Control_c, 7, 11, 127
1, 32927, Note_off_c, 2, 89, 64
1, 32927, Note_on_c, 2, 87, 64
1, 32927, Control_c, 5, 11, 127
1, 32928, Note_off_c, 11, 60, 64
1, 32928, Note_off_c, 8, 89, 64
1, 32928, Note_on_c, 10, 44, 120
1, 32928, Control_c, 0, 11, 127
1, 32928, Note_on_c, 8, 87, 59
1, 32929, Note_on_c, 9, 59, 100
1, 32929, Note_on_c, 9, 36, 100
1, 32931, Note_off_c, 9, 59, 64
1, 32931, Note_off_c, 9, 36, 64
1, 32932, Note_off_c, 10, 44, 64
1, 32951, Note_off_c, 3, 51, 64
1, 32951, Note_off_c, 3, 54, 64
1, 32951, Note_off_c, 2, 87, 64
1, 32952, Note_off_c, 8, 87, 64
1, 32955, Note_off_c, 0, 44, 64
1, 32956, Note_off_c, 5, 51, 64
1, 32958, Note_off_c, 5, 54, 64
1, 32959, Note_off_c, 6, 58, 64
1, 32960, Note_off_c, 6, 63, 64
1, 32961, Note_off_c, 7, 58, 64
1, 32963, Note_off_c, 1, 44, 64
1, 32964, Note_off_c, 1, 32, 64
1, 33696, End_track
0, 0, End_of_file
