0, 0, Header, 0, 1, 192
1, 0, Start_track
1, 0, Time_signature, 2, 2, 24, 8
1, 0, Tempo, 387096
1, 0, Text_t, "MIDI"
1, 0, Program_c, 0, 1
1, 0, Control_c, 0, 7, 100
1, 0, Control_c, 0, 10, 64
1, 0, Control_c, 0, 91, 40
1, 0, Control_c, 0, 93, 0
1, 0, Control_c, 0, 121, 0
1, 0, Text_t, "MIDI"
1, 0, Program_c, 1, 56
1, 0, Control_c, 1, 7, 101
1, 0, Control_c, 1, 10, 64
1, 0, Control_c, 1, 91, 40
1, 0, Control_c, 1, 93, 0
1, 0, Control_c, 1, 121, 0
1, 0, Text_t, "MIDI"
1, 0, Program_c, 2, 57
1, 0, Control_c, 2, 7, 102
1, 0, Control_c, 2, 10, 64
1, 0, Control_c, 2, 91, 40
1, 0, Control_c, 2, 93, 0
1, 0, Control_c, 2, 121, 0
1, 0, Text_t, "MIDI"
1, 0, Program_c, 3, 48
1, 0, Control_c, 3, 7, 103
1, 0, Control_c, 3, 10, 64
1, 0, Control_c, 3, 91, 40
1, 0, Control_c, 3, 93, 0
1, 0, Control_c, 3, 121, 0
1, 0, Text_t, "MIDI"
1, 0, Program_c, 4, 48
1, 0, Control_c, 4, 7, 103
1, 0, Control_c, 4, 10, 64
1, 0, Control_c, 4, 91, 40
1, 0, Control_c, 4, 93, 0
1, 0, Control_c, 4, 121, 0
1, 0, Text_t, "MIDI"
1, 0, Program_c, 5, 47
1, 0, Control_c, 5, 7, 99
1, 0, Control_c, 5, 10, 64
1, 0, Control_c, 5, 91, 40
1, 0, Control_c, 5, 93, 0
1, 0, Control_c, 5, 121, 0
1, 0, Text_t, "MIDI"
1, 0, Program_c, 9, 48
1, 0, Control_c, 9, 7, 99
1, 0, Control_c, 9, 10, 64
1, 0, Control_c, 9, 91, 40
1, 0, Control_c, 9, 93, 0
1, 0, Control_c, 9, 121, 0
1, 0, Text_t, "MIDI"
1, 0, Program_c, 12, 1
1, 0, Text_t, "MIDI"
1, 0, Program_c, 13, 48
1, 0, Text_t, "MIDI"
1, 0, Program_c, 14, 57
1, 0, Program_c, 14, 56
1, 0, Text_t, "MIDI"
1, 0, Program_c, 9, 48
1, 193, Note_on_c, 1, 78, 122
1, 193, Note_on_c, 14, 78, 122
1, 195, Note_on_c, 1, 74, 126
1, 195, Note_on_c, 14, 74, 126
1, 196, Note_on_c, 2, 66, 124
1, 196, Note_on_c, 14, 66, 124
1, 200, Note_on_c, 3, 78, 114
1, 200, Note_on_c, 13, 78, 114
1, 201, Note_on_c, 2, 62, 121
1, 201, Note_on_c, 14, 62, 121
1, 204, Note_on_c, 5, 50, 127
1, 206, Note_on_c, 2, 57, 116
1, 227, Note_off_c, 2, 62, 121
1, 227, Note_off_c, 14, 62, 121
1, 232, Note_off_c, 1, 74, 126
1, 232, Note_off_c, 1, 78, 122
1, 232, Note_off_c, 2, 57, 116
1, 232, Note_off_c, 14, 74, 126
1, 232, Note_off_c, 14, 78, 122
1, 236, Note_off_c, 2, 66, 124
1, 236, Note_off_c, 14, 66, 124
1, 248, Note_off_c, 3, 78, 114
1, 248, Note_off_c, 5, 50, 127
1, 248, Note_off_c, 13, 78, 114
1, 289, Note_on_c, 3, 78, 103
1, 289, Note_on_c, 13, 78, 103
1, 294, Note_on_c, 2, 66, 122
1, 294, Note_on_c, 14, 66, 122
1, 296, Note_on_c, 1, 78, 119
1, 296, Note_on_c, 2, 62, 106
1, 296, Note_on_c, 5, 45, 122
1, 296, Note_on_c, 14, 62, 106
1, 296, Note_on_c, 14, 78, 119
1, 297, Note_on_c, 1, 74, 121
1, 297, Note_on_c, 14, 74, 121
1, 299, Note_on_c, 2, 57, 116
1, 318, Note_off_c, 2, 62, 106
1, 318, Note_off_c, 14, 62, 106
1, 326, Note_off_c, 1, 74, 121
1, 326, Note_off_c, 14, 74, 121
1, 329, Note_off_c, 2, 57, 116
1, 331, Note_off_c, 1, 78, 119
1, 331, Note_off_c, 14, 78, 119
1, 336, Note_off_c, 2, 66, 122
1, 336, Note_off_c, 3, 78, 103
1, 336, Note_off_c, 13, 78, 103
1, 336, Note_off_c, 14, 66, 122
1, 345, Note_off_c, 5, 45, 122
1, 382, Note_on_c, 3, 81, 116
1, 382, Note_on_c, 13, 81, 116
1, 384, Time_signature, 4, 2, 24, 8
1, 384, Note_on_c, 9, 36, 122
1, 384, Note_on_c, 9, 53, 122
1, 396, Note_on_c, 2, 69, 127
1, 396, Note_on_c, 14, 69, 127
1, 398, Note_on_c, 4, 50, 124
1, 398, Note_on_c, 4, 38, 122
1, 398, Note_on_c, 13, 38, 122
1, 401, Note_on_c, 1, 81, 127
1, 401, Note_on_c, 5, 50, 127
1, 401, Note_on_c, 14, 81, 127
1, 403, Note_on_c, 2, 62, 114
1, 403, Note_on_c, 14, 62, 114
1, 404, Note_on_c, 1, 73, 121
1, 404, Note_on_c, 14, 73, 121
1, 406, Note_on_c, 2, 61, 116
1, 408, Note_on_c, 9, 57, 127
1, 411, Note_on_c, 9, 59, 127
1, 451, Note_off_c, 9, 57, 127
1, 473, Note_off_c, 9, 59, 127
1, 555, Note_off_c, 4, 38, 122
1, 555, Note_off_c, 13, 38, 122
1, 558, Note_off_c, 9, 53, 122
1, 580, Note_off_c, 4, 50, 124
1, 584, Note_off_c, 9, 36, 122
1, 616, Note_off_c, 2, 69, 127
1, 616, Note_off_c, 14, 69, 127
1, 619, Note_off_c, 2, 62, 114
1, 619, Note_off_c, 14, 62, 114
1, 625, Note_off_c, 1, 73, 121
1, 625, Note_off_c, 14, 73, 121
1, 628, Note_off_c, 2, 61, 116
1, 630, Note_off_c, 1, 81, 127
1, 630, Note_off_c, 14, 81, 127
1, 648, Note_off_c, 3, 81, 116
1, 648, Note_off_c, 13, 81, 116
1, 670, Note_on_c, 2, 59, 121
1, 670, Note_on_c, 2, 67, 127
1, 670, Note_on_c, 14, 67, 127
1, 673, Note_on_c, 2, 62, 119
1, 673, Note_on_c, 14, 62, 119
1, 684, Note_on_c, 4, 38, 127
1, 684, Note_on_c, 13, 38, 127
1, 688, Note_on_c, 1, 79, 127
1, 688, Note_on_c, 14, 79, 127
1, 691, Note_on_c, 3, 79, 127
1, 691, Note_on_c, 13, 79, 127
1, 692, Note_on_c, 1, 71, 112
1, 692, Note_on_c, 4, 31, 86
1, 692, Note_on_c, 13, 31, 86
1, 692, Note_on_c, 14, 71, 112
1, 716, Note_off_c, 4, 31, 86
1, 716, Note_off_c, 13, 31, 86
1, 801, Note_off_c, 4, 38, 127
1, 801, Note_off_c, 13, 38, 127
1, 873, Note_off_c, 3, 79, 127
1, 873, Note_off_c, 13, 79, 127
1, 883, Note_off_c, 1, 71, 112
1, 883, Note_off_c, 14, 71, 112
1, 891, Note_off_c, 1, 79, 127
1, 891, Note_off_c, 14, 79, 127
1, 913, Note_off_c, 2, 62, 119
1, 913, Note_off_c, 2, 59, 121
1, 913, Note_off_c, 14, 62, 119
1, 931, Note_off_c, 2, 67, 127
1, 931, Note_off_c, 14, 67, 127
1, 950, Note_on_c, 2, 66, 124
1, 950, Note_on_c, 4, 50, 119
1, 950, Note_on_c, 4, 38, 111
1, 950, Note_on_c, 13, 38, 111
1, 950, Note_on_c, 14, 66, 124
1, 955, Note_on_c, 2, 57, 112
1, 958, Note_on_c, 2, 62, 104
1, 958, Note_on_c, 14, 62, 104
1, 963, Note_on_c, 3, 78, 127
1, 963, Note_on_c, 13, 78, 127
1, 972, Note_off_c, 5, 50, 127
1, 974, Note_on_c, 5, 50, 124
1, 979, Note_on_c, 1, 78, 127
1, 979, Note_on_c, 1, 69, 121
1, 979, Note_on_c, 14, 78, 127
1, 979, Note_on_c, 14, 69, 121
1, 990, Note_off_c, 2, 62, 104
1, 990, Note_off_c, 14, 62, 104
1, 996, Note_off_c, 2, 57, 112
1, 1003, Note_off_c, 3, 78, 127
1, 1003, Note_off_c, 13, 78, 127
1, 1006, Note_off_c, 5, 50, 124
1, 1008, Note_off_c, 4, 38, 111
1, 1008, Note_off_c, 13, 38, 111
1, 1009, Note_off_c, 2, 66, 124
1, 1009, Note_off_c, 14, 66, 124
1, 1016, Note_off_c, 1, 69, 121
1, 1016, Note_off_c, 1, 78, 127
1, 1016, Note_off_c, 14, 69, 121
1, 1016, Note_off_c, 14, 78, 127
1, 1022, Note_off_c, 4, 50, 119
1, 1054, Note_on_c, 2, 64, 121
1, 1054, Note_on_c, 2, 55, 114
1, 1054, Note_on_c, 2, 62, 112
1, 1054, Note_on_c, 3, 76, 121
1, 1054, Note_on_c, 13, 76, 121
1, 1054, Note_on_c, 14, 64, 121
1, 1054, Note_on_c, 14, 62, 112
1, 1062, Note_on_c, 5, 45, 119
1, 1076, Note_on_c, 1, 67, 126
1, 1076, Note_on_c, 14, 67, 126
1, 1078, Note_on_c, 1, 76, 126
1, 1078, Note_off_c, 2, 62, 112
1, 1078, Note_off_c, 14, 62, 112
1, 1078, Note_on_c, 14, 76, 126
1, 1097, Note_off_c, 2, 64, 121
1, 1097, Note_off_c, 14, 64, 121
1, 1099, Note_off_c, 3, 76, 121
1, 1099, Note_off_c, 13, 76, 121
1, 1100, Note_off_c, 5, 45, 119
1, 1104, Note_off_c, 2, 55, 114
1, 1115, Note_off_c, 1, 76, 126
1, 1115, Note_off_c, 1, 67, 126
1, 1115, Note_off_c, 14, 76, 126
1, 1115, Note_off_c, 14, 67, 126
1, 1139, Note_on_c, 4, 50, 124
1, 1142, Note_on_c, 4, 38, 116
1, 1142, Note_on_c, 13, 38, 116
1, 1152, Note_on_c, 9, 36, 97
1, 1152, Note_on_c, 9, 51, 117
1, 1158, Note_on_c, 2, 66, 127
1, 1158, Note_on_c, 14, 66, 127
1, 1161, Note_on_c, 3, 78, 122
1, 1161, Note_on_c, 13, 78, 122
1, 1163, Note_on_c, 2, 62, 117
1, 1163, Note_on_c, 14, 62, 117
1, 1166, Note_on_c, 2, 57, 119
1, 1166, Note_on_c, 5, 50, 127
1, 1180, Note_on_c, 1, 78, 124
1, 1180, Note_on_c, 14, 78, 124
1, 1182, Note_on_c, 1, 69, 126
1, 1182, Note_on_c, 14, 69, 126
1, 1416, Note_off_c, 5, 50, 127
1, 1440, Note_off_c, 9, 36, 97
1, 1444, Note_off_c, 9, 51, 117
1, 1531, Note_off_c, 2, 57, 119
1, 1542, Note_off_c, 2, 62, 117
1, 1542, Note_off_c, 2, 66, 127
1, 1542, Note_off_c, 14, 62, 117
1, 1542, Note_off_c, 14, 66, 127
1, 1566, Note_off_c, 1, 69, 126
1, 1566, Note_off_c, 4, 38, 116
1, 1566, Note_off_c, 13, 38, 116
1, 1566, Note_off_c, 14, 69, 126
1, 1574, Note_off_c, 4, 50, 124
1, 1576, Note_off_c, 1, 78, 124
1, 1576, Note_off_c, 3, 78, 122
1, 1576, Note_off_c, 13, 78, 122
1, 1576, Note_off_c, 14, 78, 124
1, 1712, Note_on_c, 3, 78, 122
1, 1712, Note_on_c, 13, 78, 122
1, 1716, Note_on_c, 1, 78, 126
1, 1716, Note_on_c, 14, 78, 126
1, 1724, Note_on_c, 1, 69, 124
1, 1724, Note_on_c, 14, 69, 124
1, 1726, Note_on_c, 2, 66, 119
1, 1726, Note_on_c, 2, 62, 117
1, 1726, Note_on_c, 2, 57, 122
1, 1726, Note_on_c, 14, 66, 119
1, 1726, Note_on_c, 14, 62, 117
1, 1729, Note_on_c, 4, 50, 126
1, 1731, Note_on_c, 4, 38, 124
1, 1731, Note_on_c, 13, 38, 124
1, 1745, Note_off_c, 2, 62, 117
1, 1745, Note_off_c, 14, 62, 117
1, 1753, Note_off_c, 3, 78, 122
1, 1753, Note_off_c, 13, 78, 122
1, 1755, Note_off_c, 2, 57, 122
1, 1758, Note_off_c, 1, 69, 124
1, 1758, Note_off_c, 1, 78, 126
1, 1758, Note_off_c, 14, 69, 124
1, 1758, Note_off_c, 14, 78, 126
1, 1761, Note_off_c, 2, 66, 119
1, 1761, Note_off_c, 14, 66, 119
1, 1776, Note_off_c, 4, 38, 124
1, 1776, Note_off_c, 13, 38, 124
1, 1784, Note_off_c, 4, 50, 126
1, 1808, Note_on_c, 2, 66, 117
1, 1808, Note_on_c, 3, 78, 117
1, 1808, Note_on_c, 13, 78, 117
1, 1808, Note_on_c, 14, 66, 117
1, 1809, Note_on_c, 2, 62, 111
1, 1809, Note_on_c, 14, 62, 111
1, 1816, Note_on_c, 2, 57, 122
1, 1820, Note_on_c, 1, 69, 122
1, 1820, Note_on_c, 14, 69, 122
1, 1822, Note_on_c, 1, 78, 116
1, 1822, Note_on_c, 14, 78, 116
1, 1836, Note_off_c, 2, 62, 111
1, 1836, Note_off_c, 14, 62, 111
1, 1849, Note_off_c, 2, 66, 117
1, 1849, Note_off_c, 14, 66, 117
1, 1851, Note_off_c, 1, 78, 116
1, 1851, Note_off_c, 14, 78, 116
1, 1854, Note_off_c, 3, 78, 117
1, 1854, Note_off_c, 13, 78, 117
1, 1856, Note_off_c, 2, 57, 122
1, 1857, Note_off_c, 1, 69, 122
1, 1857, Note_off_c, 14, 69, 122
1, 1881, Note_on_c, 9, 57, 124
1, 1883, Note_on_c, 9, 59, 127
1, 1894, Note_on_c, 5, 50, 127
1, 1912, Note_on_c, 3, 81, 126
1, 1912, Note_on_c, 13, 81, 126
1, 1915, Note_on_c, 2, 69, 127
1, 1915, Note_on_c, 14, 69, 127
1, 1916, Note_on_c, 1, 81, 126
1, 1916, Note_on_c, 14, 81, 126
1, 1918, Note_on_c, 1, 73, 119
1, 1918, Note_on_c, 2, 61, 112
1, 1918, Note_on_c, 4, 50, 124
1, 1918, Note_on_c, 4, 38, 119
1, 1918, Note_on_c, 13, 38, 119
1, 1918, Note_on_c, 14, 73, 119
1, 1920, Note_on_c, 2, 62, 117
1, 1920, Note_on_c, 14, 62, 117
1, 1920, Note_on_c, 9, 53, 107
1, 1920, Note_on_c, 9, 36, 112
1, 1950, Note_off_c, 9, 57, 124
1, 1963, Note_off_c, 9, 59, 127
1, 2052, Note_off_c, 9, 36, 112
1, 2056, Note_off_c, 9, 53, 107
1, 2081, Note_off_c, 4, 38, 119
1, 2081, Note_off_c, 13, 38, 119
1, 2086, Note_off_c, 4, 50, 124
1, 2107, Note_off_c, 3, 81, 126
1, 2107, Note_off_c, 13, 81, 126
1, 2131, Note_off_c, 1, 73, 119
1, 2131, Note_off_c, 14, 73, 119
1, 2140, Note_off_c, 2, 62, 117
1, 2140, Note_off_c, 14, 62, 117
1, 2142, Note_off_c, 1, 81, 126
1, 2142, Note_off_c, 14, 81, 126
1, 2144, Note_off_c, 2, 61, 112
1, 2161, Note_off_c, 5, 50, 127
1, 2166, Note_off_c, 2, 69, 127
1, 2166, Note_off_c, 14, 69, 127
1, 2190, Note_on_c, 3, 74, 127
1, 2190, Note_on_c, 13, 74, 127
1, 2196, Note_on_c, 2, 62, 127
1, 2196, Note_on_c, 14, 62, 127
1, 2198, Note_on_c, 4, 38, 127
1, 2198, Note_on_c, 13, 38, 127
1, 2200, Note_on_c, 2, 55, 116
1, 2200, Note_on_c, 2, 59, 116
1, 2200, Note_on_c, 14, 59, 116
1, 2206, Note_on_c, 1, 74, 127
1, 2206, Note_on_c, 14, 74, 127
1, 2208, Note_on_c, 1, 71, 124
1, 2208, Note_on_c, 14, 71, 124
1, 2208, Note_on_c, 9, 36, 112
1, 2208, Note_on_c, 9, 51, 122
1, 2350, Note_off_c, 9, 51, 122
1, 2356, Note_off_c, 9, 36, 112
1, 2379, Note_off_c, 4, 38, 127
1, 2379, Note_off_c, 13, 38, 127
1, 2380, Note_off_c, 1, 71, 124
1, 2380, Note_off_c, 14, 71, 124
1, 2384, Note_off_c, 1, 74, 127
1, 2384, Note_off_c, 14, 74, 127
1, 2408, Note_off_c, 3, 74, 127
1, 2408, Note_off_c, 13, 74, 127
1, 2409, Note_off_c, 2, 55, 116
1, 2422, Note_off_c, 2, 59, 116
1, 2422, Note_off_c, 14, 59, 116
1, 2438, Note_off_c, 2, 62, 127
1, 2438, Note_off_c, 14, 62, 127
1, 2476, Note_on_c, 3, 74, 124
1, 2476, Note_on_c, 13, 74, 124
1, 2480, Note_on_c, 4, 31, 126
1, 2480, Note_on_c, 4, 43, 126
1, 2480, Note_on_c, 13, 31, 126
1, 2483, Note_on_c, 2, 62, 124
1, 2483, Note_on_c, 14, 62, 124
1, 2488, Note_on_c, 2, 59, 111
1, 2488, Note_on_c, 2, 55, 111
1, 2488, Note_on_c, 14, 59, 111
1, 2492, Note_on_c, 5, 43, 127
1, 2496, Note_on_c, 1, 74, 127
1, 2496, Note_on_c, 14, 74, 127
1, 2496, Note_on_c, 9, 53, 102
1, 2496, Note_on_c, 9, 36, 102
1, 2500, Note_on_c, 1, 71, 119
1, 2500, Note_on_c, 14, 71, 119
1, 2518, Note_off_c, 1, 71, 119
1, 2518, Note_off_c, 14, 71, 119
1, 2523, Note_off_c, 2, 59, 111
1, 2523, Note_off_c, 14, 59, 111
1, 2526, Note_off_c, 9, 36, 102
1, 2531, Note_off_c, 9, 53, 102
1, 2532, Note_off_c, 5, 43, 127
1, 2534, Note_off_c, 2, 55, 111
1, 2534, Note_off_c, 2, 62, 124
1, 2534, Note_off_c, 14, 62, 124
1, 2537, Note_off_c, 1, 74, 127
1, 2537, Note_off_c, 3, 74, 124
1, 2537, Note_off_c, 13, 74, 124
1, 2537, Note_off_c, 14, 74, 127
1, 2544, Note_off_c, 4, 31, 126
1, 2544, Note_off_c, 13, 31, 126
1, 2545, Note_off_c, 4, 43, 126
1, 2574, Note_on_c, 3, 76, 127
1, 2574, Note_on_c, 13, 76, 127
1, 2579, Note_on_c, 4, 45, 126
1, 2582, Note_on_c, 4, 33, 127
1, 2582, Note_on_c, 13, 33, 127
1, 2584, Note_on_c, 2, 64, 127
1, 2584, Note_on_c, 14, 64, 127
1, 2587, Note_on_c, 1, 76, 127
1, 2587, Note_on_c, 14, 76, 127
1, 2588, Note_on_c, 1, 69, 126
1, 2588, Note_on_c, 14, 69, 126
1, 2592, Note_on_c, 9, 53, 117
1, 2592, Note_on_c, 9, 36, 107
1, 2593, Note_on_c, 2, 57, 122
1, 2595, Note_on_c, 2, 61, 121
1, 2595, Note_on_c, 14, 61, 121
1, 2596, Note_on_c, 5, 45, 127
1, 2636, Note_off_c, 9, 36, 107
1, 2638, Note_off_c, 9, 53, 117
1, 2976, Note_on_c, 9, 45, 97
1, 2988, Note_off_c, 9, 45, 97
1, 3024, Note_on_c, 9, 45, 84
1, 3049, Note_off_c, 9, 45, 84
1, 3072, Note_on_c, 9, 45, 112
1, 3083, Note_off_c, 1, 69, 126
1, 3083, Note_off_c, 2, 61, 121
1, 3083, Note_off_c, 14, 61, 121
1, 3083, Note_off_c, 14, 69, 126
1, 3084, Note_off_c, 2, 57, 122
1, 3088, Note_off_c, 2, 64, 127
1, 3088, Note_off_c, 14, 64, 127
1, 3088, Note_off_c, 9, 45, 112
1, 3089, Note_off_c, 1, 76, 127
1, 3089, Note_off_c, 14, 76, 127
1, 3113, Note_off_c, 3, 76, 127
1, 3113, Note_off_c, 13, 76, 127
1, 3136, Note_off_c, 4, 45, 126
1, 3137, Note_off_c, 4, 33, 127
1, 3137, Note_off_c, 13, 33, 127
1, 3168, Note_on_c, 9, 43, 80
1, 3208, Note_off_c, 9, 43, 80
1, 3257, Note_on_c, 1, 74, 127
1, 3257, Note_on_c, 1, 62, 127
1, 3257, Note_on_c, 14, 74, 127
1, 3257, Note_on_c, 14, 62, 127
1, 3264, Note_on_c, 3, 78, 121
1, 3264, Note_on_c, 13, 78, 121
1, 3264, Note_on_c, 9, 41, 117
1, 3265, Note_on_c, 2, 62, 127
1, 3265, Note_on_c, 14, 62, 127
1, 3268, Note_on_c, 2, 50, 127
1, 3268, Note_on_c, 14, 50, 127
1, 3273, Note_off_c, 14, 62, 127
1, 3283, Note_off_c, 9, 41, 117
1, 3299, Note_off_c, 2, 62, 127
1, 3299, Note_off_c, 14, 62, 127
1, 3305, Note_off_c, 1, 62, 127
1, 3305, Note_off_c, 1, 74, 127
1, 3305, Note_off_c, 14, 74, 127
1, 3308, Note_off_c, 2, 50, 127
1, 3308, Note_off_c, 14, 50, 127
1, 3347, Note_on_c, 3, 81, 121
1, 3347, Note_off_c, 5, 45, 127
1, 3347, Note_on_c, 13, 81, 121
1, 3353, Note_on_c, 2, 61, 127
1, 3353, Note_on_c, 14, 61, 127
1, 3356, Note_on_c, 1, 69, 121
1, 3356, Note_on_c, 14, 69, 121
1, 3358, Note_on_c, 1, 57, 122
1, 3358, Note_on_c, 2, 49, 127
1, 3358, Note_on_c, 14, 49, 127
1, 3358, Note_on_c, 14, 57, 122
1, 3360, Note_on_c, 9, 43, 62
1, 3371, Note_off_c, 3, 78, 121
1, 3371, Note_off_c, 13, 78, 121
1, 3379, Note_off_c, 9, 43, 62
1, 3396, Note_off_c, 2, 61, 127
1, 3396, Note_off_c, 14, 61, 127
1, 3403, Note_off_c, 1, 57, 122
1, 3403, Note_off_c, 1, 69, 121
1, 3403, Note_off_c, 14, 57, 122
1, 3403, Note_off_c, 14, 69, 121
1, 3404, Note_off_c, 2, 49, 127
1, 3404, Note_off_c, 14, 49, 127
1, 3435, Note_on_c, 5, 45, 127
1, 3441, Note_on_c, 4, 38, 127
1, 3441, Note_on_c, 13, 38, 127
1, 3446, Note_on_c, 3, 86, 126
1, 3446, Note_on_c, 13, 86, 126
1, 3448, Note_on_c, 9, 57, 127
1, 3449, Note_on_c, 9, 59, 127
1, 3451, Note_off_c, 3, 81, 121
1, 3451, Note_off_c, 13, 81, 121
1, 3456, Note_on_c, 2, 50, 127
1, 3456, Note_on_c, 14, 50, 127
1, 3456, Note_on_c, 9, 51, 122
1, 3456, Note_on_c, 9, 36, 112
1, 3457, Note_on_c, 2, 62, 127
1, 3457, Note_on_c, 14, 62, 127
1, 3460, Note_on_c, 1, 74, 127
1, 3460, Note_on_c, 14, 74, 127
1, 3462, Note_on_c, 1, 62, 127
1, 3462, Note_on_c, 14, 62, 127
1, 3467, Note_off_c, 14, 62, 127
1, 3587, Note_off_c, 9, 57, 127
1, 3604, Note_off_c, 1, 62, 127
1, 3604, Note_off_c, 14, 62, 127
1, 3628, Note_off_c, 9, 36, 112
1, 3628, Note_off_c, 9, 51, 122
1, 3641, Note_off_c, 1, 74, 127
1, 3641, Note_off_c, 14, 74, 127
1, 3643, Note_on_c, 1, 69, 111
1, 3643, Note_on_c, 14, 69, 111
1, 3646, Note_off_c, 2, 50, 127
1, 3646, Note_off_c, 14, 50, 127
1, 3654, Note_on_c, 1, 66, 117
1, 3654, Note_off_c, 2, 62, 127
1, 3654, Note_on_c, 14, 66, 117
1, 3681, Note_off_c, 1, 66, 117
1, 3681, Note_off_c, 14, 66, 117
1, 3683, Note_off_c, 1, 69, 111
1, 3683, Note_off_c, 14, 69, 111
1, 3739, Note_on_c, 1, 71, 106
1, 3739, Note_on_c, 1, 67, 119
1, 3739, Note_on_c, 14, 71, 106
1, 3739, Note_on_c, 14, 67, 119
1, 3744, Note_off_c, 5, 45, 127
1, 3744, Note_on_c, 9, 51, 112
1, 3760, Note_on_c, 2, 50, 127
1, 3760, Note_on_c, 14, 50, 127
1, 3761, Note_on_c, 2, 38, 127
1, 3761, Note_on_c, 14, 38, 127
1, 3776, Note_off_c, 9, 51, 112
1, 3779, Note_off_c, 1, 71, 106
1, 3779, Note_off_c, 14, 71, 106
1, 3784, Note_off_c, 1, 67, 119
1, 3784, Note_off_c, 14, 67, 119
1, 3788, Note_off_c, 9, 59, 127
1, 3835, Note_on_c, 1, 71, 126
1, 3835, Note_on_c, 14, 71, 126
1, 3838, Note_on_c, 1, 67, 126
1, 3838, Note_on_c, 14, 67, 126
1, 3840, Note_on_c, 9, 51, 122
1, 3931, Note_on_c, 1, 69, 114
1, 3931, Note_on_c, 14, 69, 114
1, 3934, Note_off_c, 1, 67, 126
1, 3934, Note_off_c, 1, 71, 126
1, 3934, Note_off_c, 14, 67, 126
1, 3934, Note_off_c, 14, 71, 126
1, 3939, Note_on_c, 1, 66, 114
1, 3939, Note_on_c, 14, 66, 114
1, 3974, Note_off_c, 1, 69, 114
1, 3974, Note_off_c, 14, 69, 114
1, 3982, Note_off_c, 1, 66, 114
1, 3982, Note_off_c, 14, 66, 114
1, 4008, Note_off_c, 9, 51, 122
1, 4032, Note_on_c, 1, 69, 106
1, 4032, Note_on_c, 14, 69, 106
1, 4040, Note_on_c, 1, 66, 109
1, 4040, Note_on_c, 14, 66, 109
1, 4065, Note_off_c, 1, 66, 109
1, 4065, Note_off_c, 14, 66, 109
1, 4080, Note_off_c, 1, 69, 106
1, 4080, Note_off_c, 14, 69, 106
1, 4123, Note_on_c, 1, 74, 119
1, 4123, Note_on_c, 14, 74, 119
1, 4124, Note_on_c, 1, 67, 119
1, 4124, Note_on_c, 14, 67, 119
1, 4128, Note_on_c, 9, 53, 97
1, 4158, Note_off_c, 9, 53, 97
1, 4161, Note_off_c, 1, 67, 119
1, 4161, Note_off_c, 1, 74, 119
1, 4161, Note_off_c, 14, 67, 119
1, 4161, Note_off_c, 14, 74, 119
1, 4212, Note_on_c, 1, 74, 126
1, 4212, Note_on_c, 14, 74, 126
1, 4217, Note_on_c, 1, 67, 124
1, 4217, Note_on_c, 14, 67, 124
1, 4224, Note_on_c, 9, 36, 117
1, 4224, Note_on_c, 9, 53, 107
1, 4291, Note_off_c, 1, 67, 124
1, 4291, Note_off_c, 14, 67, 124
1, 4308, Note_off_c, 1, 74, 126
1, 4308, Note_off_c, 14, 74, 126
1, 4313, Note_on_c, 1, 66, 97
1, 4313, Note_on_c, 14, 66, 97
1, 4315, Note_on_c, 1, 69, 112
1, 4315, Note_on_c, 14, 69, 112
1, 4347, Note_off_c, 1, 66, 97
1, 4347, Note_off_c, 14, 66, 97
1, 4363, Note_off_c, 1, 69, 112
1, 4363, Note_off_c, 14, 69, 112
1, 4393, Note_off_c, 9, 53, 107
1, 4408, Note_on_c, 1, 66, 121
1, 4408, Note_on_c, 14, 66, 121
1, 4408, Note_off_c, 9, 36, 117
1, 4411, Note_on_c, 1, 69, 114
1, 4411, Note_on_c, 14, 69, 114
1, 4451, Note_off_c, 1, 69, 114
1, 4451, Note_off_c, 1, 66, 121
1, 4451, Note_off_c, 14, 69, 114
1, 4451, Note_off_c, 14, 66, 121
1, 4504, Note_on_c, 1, 74, 117
1, 4504, Note_on_c, 1, 67, 124
1, 4504, Note_on_c, 14, 74, 117
1, 4504, Note_on_c, 14, 67, 124
1, 4512, Note_on_c, 9, 51, 112
1, 4542, Note_off_c, 9, 51, 112
1, 4544, Note_off_c, 1, 67, 124
1, 4544, Note_off_c, 1, 74, 117
1, 4544, Note_off_c, 14, 67, 124
1, 4544, Note_off_c, 14, 74, 117
1, 4598, Note_on_c, 1, 76, 126
1, 4598, Note_on_c, 1, 67, 127
1, 4598, Note_on_c, 14, 76, 126
1, 4598, Note_on_c, 14, 67, 127
1, 4608, Note_on_c, 9, 51, 117
1, 4624, Note_off_c, 2, 38, 127
1, 4624, Note_off_c, 14, 38, 127
1, 4630, Note_off_c, 3, 86, 126
1, 4630, Note_off_c, 13, 86, 126
1, 4632, Note_off_c, 2, 50, 127
1, 4632, Note_off_c, 14, 50, 127
1, 4646, Note_off_c, 1, 67, 127
1, 4646, Note_off_c, 14, 67, 127
1, 4654, Note_off_c, 1, 76, 126
1, 4654, Note_off_c, 14, 76, 126
1, 4686, Note_on_c, 1, 69, 114
1, 4686, Note_on_c, 14, 69, 114
1, 4721, Note_off_c, 9, 51, 117
1, 4728, Note_off_c, 1, 69, 114
1, 4728, Note_off_c, 14, 69, 114
1, 4780, Note_on_c, 1, 67, 127
1, 4780, Note_on_c, 14, 67, 127
1, 4784, Note_on_c, 1, 76, 124
1, 4784, Note_on_c, 14, 76, 124
1, 4790, Note_on_c, 3, 79, 126
1, 4790, Note_on_c, 13, 79, 126
1, 4819, Note_off_c, 1, 67, 127
1, 4819, Note_off_c, 14, 67, 127
1, 4836, Note_off_c, 1, 76, 124
1, 4836, Note_off_c, 14, 76, 124
1, 4862, Note_on_c, 3, 81, 119
1, 4862, Note_on_c, 13, 81, 119
1, 4875, Note_off_c, 3, 79, 126
1, 4875, Note_off_c, 13, 79, 126
1, 4881, Note_on_c, 1, 79, 124
1, 4881, Note_on_c, 14, 79, 124
1, 4896, Note_on_c, 9, 51, 112
1, 4918, Note_off_c, 1, 79, 124
1, 4918, Note_off_c, 14, 79, 124
1, 4926, Note_off_c, 9, 51, 112
1, 4966, Note_off_c, 3, 81, 119
1, 4966, Note_off_c, 13, 81, 119
1, 4976, Note_on_c, 1, 69, 121
1, 4976, Note_on_c, 3, 86, 126
1, 4976, Note_on_c, 13, 86, 126
1, 4976, Note_on_c, 14, 69, 121
1, 4982, Note_on_c, 1, 78, 127
1, 4982, Note_on_c, 14, 78, 127
1, 4992, Note_on_c, 9, 53, 117
1, 4992, Note_on_c, 9, 36, 107
1, 5012, Note_off_c, 1, 69, 121
1, 5012, Note_off_c, 14, 69, 121
1, 5028, Note_off_c, 1, 78, 127
1, 5028, Note_off_c, 14, 78, 127
1, 5075, Note_on_c, 1, 74, 124
1, 5075, Note_on_c, 14, 74, 124
1, 5110, Note_off_c, 1, 74, 124
1, 5110, Note_off_c, 14, 74, 124
1, 5116, Note_off_c, 9, 53, 117
1, 5131, Note_off_c, 9, 36, 107
1, 5169, Note_on_c, 9, 59, 127
1, 5174, Note_on_c, 2, 69, 127
1, 5174, Note_on_c, 14, 69, 127
1, 5176, Note_on_c, 2, 62, 127
1, 5176, Note_on_c, 2, 66, 127
1, 5176, Note_on_c, 14, 66, 127
1, 5177, Note_on_c, 1, 62, 117
1, 5177, Note_on_c, 14, 62, 117
1, 5180, Note_on_c, 3, 81, 114
1, 5180, Note_on_c, 13, 81, 114
1, 5182, Note_on_c, 1, 81, 127
1, 5182, Note_on_c, 3, 74, 107
1, 5182, Note_on_c, 14, 81, 127
1, 5184, Note_on_c, 5, 50, 117
1, 5200, Note_off_c, 9, 59, 127
1, 5214, Note_off_c, 2, 66, 127
1, 5214, Note_off_c, 14, 66, 127
1, 5220, Note_off_c, 2, 62, 127
1, 5222, Note_off_c, 2, 69, 127
1, 5222, Note_off_c, 14, 69, 127
1, 5224, Note_off_c, 5, 50, 117
1, 5230, Note_off_c, 3, 74, 107
1, 5230, Note_off_c, 3, 81, 114
1, 5230, Note_off_c, 13, 81, 114
1, 5265, Note_on_c, 2, 62, 124
1, 5267, Note_on_c, 2, 69, 127
1, 5267, Note_on_c, 3, 81, 89
1, 5267, Note_on_c, 13, 81, 89
1, 5267, Note_on_c, 14, 69, 127
1, 5268, Note_on_c, 2, 66, 127
1, 5268, Note_on_c, 3, 74, 91
1, 5268, Note_on_c, 14, 66, 127
1, 5280, Note_on_c, 5, 50, 116
1, 5310, Note_off_c, 2, 66, 127
1, 5310, Note_off_c, 14, 66, 127
1, 5313, Note_off_c, 3, 86, 126
1, 5313, Note_off_c, 13, 86, 126
1, 5316, Note_off_c, 2, 62, 124
1, 5321, Note_off_c, 3, 74, 91
1, 5326, Note_off_c, 2, 69, 127
1, 5326, Note_off_c, 14, 69, 127
1, 5329, Note_off_c, 5, 50, 116
1, 5332, Note_off_c, 3, 81, 89
1, 5332, Note_off_c, 13, 81, 89
1, 5337, Note_off_c, 1, 62, 117
1, 5337, Note_off_c, 14, 62, 117
1, 5347, Note_off_c, 1, 81, 127
1, 5347, Note_off_c, 14, 81, 127
1, 5355, Note_off_c, 4, 38, 127
1, 5355, Note_off_c, 13, 38, 127
1, 5356, Note_on_c, 4, 43, 117
1, 5363, Note_on_c, 2, 71, 127
1, 5363, Note_on_c, 14, 71, 127
1, 5366, Note_on_c, 2, 62, 127
1, 5366, Note_on_c, 2, 67, 127
1, 5366, Note_on_c, 14, 67, 127
1, 5369, Note_on_c, 3, 83, 127
1, 5369, Note_on_c, 13, 83, 127
1, 5372, Note_on_c, 3, 79, 122
1, 5376, Note_on_c, 9, 36, 117
1, 5376, Note_on_c, 9, 51, 122
1, 5379, Note_on_c, 5, 43, 127
1, 5422, Note_off_c, 9, 51, 122
1, 5438, Note_off_c, 9, 36, 117
1, 5473, Note_off_c, 3, 79, 122
1, 5480, Note_off_c, 3, 83, 127
1, 5480, Note_off_c, 13, 83, 127
1, 5486, Note_on_c, 4, 31, 124
1, 5486, Note_on_c, 13, 31, 124
1, 5518, Note_off_c, 4, 31, 124
1, 5518, Note_off_c, 13, 31, 124
1, 5523, Note_off_c, 4, 43, 117
1, 5524, Note_off_c, 5, 43, 127
1, 5531, Note_off_c, 2, 71, 127
1, 5531, Note_off_c, 14, 71, 127
1, 5539, Note_off_c, 2, 67, 127
1, 5539, Note_off_c, 14, 67, 127
1, 5544, Note_off_c, 2, 62, 127
1, 5646, Note_on_c, 4, 43, 124
1, 5651, Note_on_c, 4, 31, 127
1, 5651, Note_on_c, 13, 31, 127
1, 5664, Note_on_c, 9, 38, 122
1, 5664, Note_on_c, 9, 51, 122
1, 5665, Note_on_c, 3, 79, 122
1, 5665, Note_on_c, 13, 79, 122
1, 5667, Note_on_c, 3, 71, 114
1, 5670, Note_on_c, 2, 55, 127
1, 5672, Note_on_c, 2, 59, 127
1, 5672, Note_on_c, 14, 59, 127
1, 5673, Note_on_c, 2, 62, 127
1, 5673, Note_on_c, 14, 62, 127
1, 5680, Note_on_c, 2, 43, 127
1, 5680, Note_on_c, 14, 43, 127
1, 5697, Note_on_c, 5, 43, 127
1, 5710, Note_off_c, 9, 51, 122
1, 5723, Note_off_c, 9, 38, 122
1, 5755, Note_off_c, 3, 71, 114
1, 5758, Note_off_c, 5, 43, 127
1, 5760, Note_off_c, 3, 79, 122
1, 5760, Note_off_c, 13, 79, 122
1, 5785, Note_off_c, 4, 31, 127
1, 5785, Note_off_c, 13, 31, 127
1, 5795, Note_off_c, 4, 43, 124
1, 5897, Note_off_c, 2, 55, 127
1, 5904, Note_off_c, 2, 59, 127
1, 5904, Note_off_c, 14, 59, 127
1, 5912, Note_off_c, 2, 43, 127
1, 5912, Note_off_c, 2, 62, 127
1, 5912, Note_off_c, 14, 43, 127
1, 5912, Note_off_c, 14, 62, 127
1, 5934, Note_on_c, 4, 45, 124
1, 5936, Note_on_c, 4, 33, 126
1, 5936, Note_on_c, 13, 33, 126
1, 5952, Note_on_c, 3, 76, 122
1, 5952, Note_on_c, 3, 69, 107
1, 5952, Note_on_c, 13, 76, 122
1, 5952, Note_on_c, 9, 53, 112
1, 5952, Note_on_c, 9, 40, 117
1, 5955, Note_on_c, 2, 64, 127
1, 5955, Note_on_c, 14, 64, 127
1, 5956, Note_on_c, 2, 61, 127
1, 5956, Note_on_c, 14, 61, 127
1, 5958, Note_on_c, 2, 57, 127
1, 5960, Note_on_c, 2, 45, 127
1, 5960, Note_on_c, 5, 45, 127
1, 5960, Note_on_c, 14, 45, 127
1, 5998, Note_off_c, 9, 53, 112
1, 6008, Note_off_c, 9, 40, 117
1, 6051, Note_off_c, 3, 69, 107
1, 6052, Note_off_c, 3, 76, 122
1, 6052, Note_off_c, 13, 76, 122
1, 6147, Note_off_c, 5, 45, 127
1, 6174, Note_off_c, 2, 45, 127
1, 6174, Note_off_c, 4, 33, 126
1, 6174, Note_off_c, 13, 33, 126
1, 6174, Note_off_c, 14, 45, 127
1, 6182, Note_off_c, 2, 57, 127
1, 6182, Note_off_c, 2, 61, 127
1, 6182, Note_off_c, 14, 61, 127
1, 6187, Note_off_c, 4, 45, 124
1, 6214, Note_off_c, 2, 64, 127
1, 6214, Note_off_c, 14, 64, 127
1, 6227, Note_on_c, 3, 74, 112
1, 6227, Note_on_c, 13, 74, 112
1, 6233, Note_on_c, 3, 66, 116
1, 6240, Note_on_c, 9, 38, 117
1, 6240, Note_on_c, 9, 51, 122
1, 6244, Note_on_c, 4, 38, 127
1, 6244, Note_on_c, 13, 38, 127
1, 6248, Note_on_c, 2, 62, 127
1, 6248, Note_on_c, 14, 62, 127
1, 6254, Note_on_c, 2, 57, 127
1, 6257, Note_on_c, 2, 50, 127
1, 6257, Note_on_c, 2, 38, 127
1, 6257, Note_on_c, 14, 50, 127
1, 6257, Note_on_c, 14, 38, 127
1, 6270, Note_on_c, 9, 57, 127
1, 6272, Note_on_c, 9, 59, 127
1, 6276, Note_on_c, 5, 50, 127
1, 6296, Note_off_c, 9, 38, 117
1, 6305, Note_off_c, 9, 51, 122
1, 6329, Note_off_c, 9, 59, 127
1, 6329, Note_off_c, 9, 57, 127
1, 6956, Note_on_c, 0, 50, 59
1, 6963, Note_off_c, 5, 50, 127
1, 6980, Note_off_c, 0, 50, 59
1, 7006, Note_on_c, 0, 50, 109
1, 7040, Note_off_c, 4, 38, 127
1, 7040, Note_off_c, 13, 38, 127
1, 7068, Note_off_c, 0, 50, 109
1, 7084, Note_on_c, 5, 50, 127
1, 7096, Note_off_c, 3, 66, 116
1, 7099, Note_off_c, 3, 74, 112
1, 7099, Note_off_c, 13, 74, 112
1, 7107, Note_off_c, 2, 50, 127
1, 7107, Note_off_c, 14, 50, 127
1, 7112, Note_off_c, 2, 38, 127
1, 7112, Note_off_c, 2, 57, 127
1, 7112, Note_off_c, 14, 38, 127
1, 7115, Note_on_c, 0, 50, 124
1, 7115, Note_on_c, 12, 50, 124
1, 7118, Note_on_c, 0, 38, 124
1, 7121, Note_off_c, 2, 62, 127
1, 7121, Note_off_c, 14, 62, 127
1, 7158, Note_off_c, 0, 38, 124
1, 7158, Note_off_c, 0, 50, 124
1, 7158, Note_off_c, 12, 50, 124
1, 7208, Note_on_c, 0, 50, 103
1, 7208, Note_on_c, 12, 50, 103
1, 7209, Note_on_c, 0, 38, 97
1, 7243, Note_off_c, 0, 38, 97
1, 7244, Note_off_c, 0, 50, 103
1, 7244, Note_off_c, 12, 50, 103
1, 7288, Note_off_c, 5, 50, 127
1, 7296, Note_on_c, 0, 50, 95
1, 7296, Note_on_c, 12, 50, 95
1, 7297, Note_on_c, 0, 38, 92
1, 7334, Note_off_c, 0, 38, 92
1, 7336, Note_off_c, 0, 50, 95
1, 7336, Note_off_c, 12, 50, 95
1, 7392, Note_on_c, 0, 50, 79
1, 7392, Note_on_c, 12, 50, 79
1, 7395, Note_on_c, 0, 38, 70
1, 7424, Note_off_c, 0, 38, 70
1, 7432, Note_off_c, 0, 50, 79
1, 7432, Note_off_c, 12, 50, 79
1, 7486, Note_on_c, 0, 50, 83
1, 7486, Note_on_c, 12, 50, 83
1, 7491, Note_on_c, 0, 38, 69
1, 7521, Note_off_c, 0, 38, 69
1, 7528, Note_off_c, 0, 50, 83
1, 7528, Note_off_c, 12, 50, 83
1, 7580, Note_on_c, 0, 50, 83
1, 7580, Note_on_c, 12, 50, 83
1, 7585, Note_on_c, 0, 38, 61
1, 7616, Note_off_c, 0, 38, 61
1, 7622, Note_off_c, 0, 50, 83
1, 7622, Note_off_c, 12, 50, 83
1, 7676, Note_on_c, 0, 50, 77
1, 7676, Note_on_c, 12, 50, 77
1, 7680, Note_on_c, 0, 38, 51
1, 7715, Note_off_c, 0, 38, 51
1, 7716, Note_off_c, 0, 50, 77
1, 7716, Note_off_c, 12, 50, 77
1, 7771, Note_on_c, 0, 50, 54
1, 7771, Note_on_c, 12, 50, 54
1, 7774, Note_on_c, 0, 38, 49
1, 7803, Note_off_c, 0, 38, 49
1, 7806, Note_off_c, 0, 50, 54
1, 7806, Note_off_c, 12, 50, 54
1, 7860, Note_on_c, 3, 57, 127
1, 7860, Note_on_c, 13, 57, 127
1, 7870, Note_on_c, 0, 57, 114
1, 7870, Note_on_c, 12, 57, 114
1, 7872, Note_on_c, 0, 50, 92
1, 7872, Note_on_c, 0, 55, 106
1, 7872, Note_on_c, 12, 50, 92
1, 7872, Note_on_c, 12, 55, 106
1, 7872, Note_on_c, 9, 36, 112
1, 7875, Note_on_c, 0, 38, 64
1, 7912, Note_off_c, 3, 57, 127
1, 7912, Note_off_c, 13, 57, 127
1, 7916, Note_off_c, 0, 38, 64
1, 7918, Note_off_c, 0, 55, 106
1, 7918, Note_off_c, 0, 50, 92
1, 7918, Note_off_c, 12, 55, 106
1, 7918, Note_off_c, 12, 50, 92
1, 7920, Note_off_c, 0, 57, 114
1, 7920, Note_off_c, 12, 57, 114
1, 7942, Note_off_c, 9, 36, 112
1, 7958, Note_on_c, 3, 59, 106
1, 7958, Note_on_c, 13, 59, 106
1, 7966, Note_on_c, 0, 59, 78
1, 7966, Note_on_c, 12, 59, 78
1, 7968, Note_on_c, 0, 55, 47
1, 7968, Note_on_c, 12, 55, 47
1, 7972, Note_on_c, 0, 50, 69
1, 7972, Note_on_c, 12, 50, 69
1, 7982, Note_on_c, 0, 38, 24
1, 7993, Note_off_c, 3, 59, 106
1, 7993, Note_off_c, 13, 59, 106
1, 8006, Note_off_c, 0, 38, 24
1, 8006, Note_off_c, 0, 59, 78
1, 8006, Note_off_c, 12, 59, 78
1, 8009, Note_off_c, 0, 50, 69
1, 8009, Note_off_c, 12, 50, 69
1, 8011, Note_off_c, 0, 55, 47
1, 8011, Note_off_c, 12, 55, 47
1, 8046, Note_on_c, 3, 61, 101
1, 8046, Note_on_c, 13, 61, 101
1, 8049, Note_on_c, 4, 38, 107
1, 8049, Note_on_c, 13, 38, 107
1, 8057, Note_on_c, 0, 55, 51
1, 8057, Note_on_c, 12, 55, 51
1, 8060, Note_on_c, 0, 61, 92
1, 8060, Note_on_c, 12, 61, 92
1, 8064, Note_on_c, 9, 36, 107
1, 8072, Note_on_c, 0, 50, 70
1, 8072, Note_on_c, 12, 50, 70
1, 8078, Note_on_c, 0, 38, 49
1, 8081, Note_off_c, 3, 61, 101
1, 8081, Note_off_c, 13, 61, 101
1, 8088, Note_off_c, 0, 55, 51
1, 8088, Note_off_c, 12, 55, 51
1, 8100, Note_off_c, 0, 61, 92
1, 8100, Note_off_c, 12, 61, 92
1, 8102, Note_off_c, 0, 38, 49
1, 8104, Note_off_c, 0, 50, 70
1, 8104, Note_off_c, 12, 50, 70
1, 8115, Note_off_c, 4, 38, 107
1, 8115, Note_off_c, 13, 38, 107
1, 8136, Note_off_c, 9, 36, 107
1, 8145, Note_on_c, 3, 61, 112
1, 8145, Note_on_c, 13, 61, 112
1, 8160, Note_on_c, 0, 61, 104
1, 8160, Note_on_c, 12, 61, 104
1, 8166, Note_on_c, 0, 55, 63
1, 8166, Note_on_c, 12, 55, 63
1, 8172, Note_on_c, 0, 50, 78
1, 8172, Note_on_c, 12, 50, 78
1, 8174, Note_on_c, 0, 38, 57
1, 8200, Note_off_c, 0, 38, 57
1, 8204, Note_off_c, 0, 50, 78
1, 8204, Note_off_c, 12, 50, 78
1, 8235, Note_on_c, 4, 38, 97
1, 8235, Note_on_c, 13, 38, 97
1, 8256, Note_on_c, 9, 36, 102
1, 8262, Note_on_c, 0, 50, 64
1, 8262, Note_on_c, 12, 50, 64
1, 8268, Note_on_c, 0, 38, 40
1, 8286, Note_off_c, 3, 61, 112
1, 8286, Note_off_c, 4, 38, 97
1, 8286, Note_off_c, 13, 38, 97
1, 8286, Note_off_c, 13, 61, 112
1, 8297, Note_off_c, 0, 38, 40
1, 8302, Note_off_c, 0, 50, 64
1, 8302, Note_off_c, 12, 50, 64
1, 8304, Note_off_c, 0, 55, 63
1, 8304, Note_off_c, 12, 55, 63
1, 8320, Note_off_c, 0, 61, 104
1, 8320, Note_off_c, 12, 61, 104
1, 8323, Note_off_c, 9, 36, 102
1, 8340, Note_on_c, 3, 59, 92
1, 8340, Note_on_c, 13, 59, 92
1, 8353, Note_on_c, 0, 59, 76
1, 8353, Note_on_c, 12, 59, 76
1, 8361, Note_on_c, 0, 50, 43
1, 8361, Note_on_c, 12, 50, 43
1, 8364, Note_on_c, 0, 38, 32
1, 8366, Note_on_c, 0, 55, 19
1, 8366, Note_on_c, 12, 55, 19
1, 8379, Note_off_c, 3, 59, 92
1, 8379, Note_off_c, 13, 59, 92
1, 8390, Note_off_c, 0, 55, 19
1, 8390, Note_off_c, 12, 55, 19
1, 8392, Note_off_c, 0, 59, 76
1, 8392, Note_off_c, 12, 59, 76
1, 8396, Note_off_c, 0, 38, 32
1, 8401, Note_off_c, 0, 50, 43
1, 8401, Note_off_c, 12, 50, 43
1, 8414, Note_on_c, 4, 38, 70
1, 8414, Note_on_c, 13, 38, 70
1, 8435, Note_on_c, 3, 57, 101
1, 8435, Note_on_c, 13, 57, 101
1, 8446, Note_on_c, 0, 57, 89
1, 8446, Note_on_c, 12, 57, 89
1, 8448, Note_on_c, 9, 36, 102
1, 8449, Note_on_c, 0, 55, 61
1, 8449, Note_on_c, 12, 55, 61
1, 8456, Note_on_c, 0, 50, 69
1, 8456, Note_on_c, 12, 50, 69
1, 8459, Note_on_c, 0, 38, 56
1, 8472, Note_off_c, 0, 55, 61
1, 8472, Note_off_c, 12, 55, 61
1, 8478, Note_off_c, 3, 57, 101
1, 8478, Note_off_c, 13, 57, 101
1, 8483, Note_off_c, 0, 57, 89
1, 8483, Note_off_c, 12, 57, 89
1, 8488, Note_off_c, 4, 38, 70
1, 8488, Note_off_c, 13, 38, 70
1, 8489, Note_off_c, 0, 38, 56
1, 8496, Note_off_c, 0, 50, 69
1, 8496, Note_off_c, 12, 50, 69
1, 8523, Note_off_c, 9, 36, 102
1, 8531, Note_on_c, 3, 57, 92
1, 8531, Note_on_c, 13, 57, 92
1, 8539, Note_on_c, 0, 57, 98
1, 8539, Note_on_c, 12, 57, 98
1, 8547, Note_on_c, 0, 55, 63
1, 8547, Note_on_c, 12, 55, 63
1, 8552, Note_on_c, 0, 50, 76
1, 8552, Note_on_c, 12, 50, 76
1, 8555, Note_on_c, 0, 38, 54
1, 8584, Note_off_c, 0, 38, 54
1, 8592, Note_off_c, 0, 50, 76
1, 8592, Note_off_c, 12, 50, 76
1, 8612, Note_on_c, 4, 38, 109
1, 8612, Note_on_c, 13, 38, 109
1, 8640, Note_on_c, 9, 36, 97
1, 8648, Note_on_c, 0, 50, 77
1, 8648, Note_on_c, 12, 50, 77
1, 8654, Note_on_c, 0, 38, 66
1, 8680, Note_off_c, 0, 38, 66
1, 8688, Note_off_c, 0, 50, 77
1, 8688, Note_off_c, 12, 50, 77
1, 8702, Note_off_c, 9, 36, 97
1, 8736, Note_on_c, 9, 42, 107
1, 8740, Note_on_c, 1, 69, 92
1, 8740, Note_on_c, 14, 69, 92
1, 8742, Note_on_c, 1, 62, 74
1, 8742, Note_on_c, 14, 62, 74
1, 8744, Note_on_c, 0, 50, 65
1, 8744, Note_on_c, 12, 50, 65
1, 8750, Note_on_c, 0, 38, 40
1, 8761, Note_off_c, 4, 38, 109
1, 8761, Note_off_c, 13, 38, 109
1, 8764, Note_off_c, 9, 42, 107
1, 8771, Note_off_c, 1, 62, 74
1, 8771, Note_off_c, 14, 62, 74
1, 8774, Note_off_c, 0, 38, 40
1, 8774, Note_off_c, 1, 69, 92
1, 8774, Note_off_c, 14, 69, 92
1, 8777, Note_off_c, 0, 50, 65
1, 8777, Note_off_c, 12, 50, 65
1, 8796, Note_on_c, 4, 38, 101
1, 8796, Note_on_c, 13, 38, 101
1, 8832, Note_on_c, 9, 42, 102
1, 8832, Note_on_c, 9, 36, 88
1, 8838, Note_on_c, 1, 69, 101
1, 8838, Note_on_c, 1, 62, 86
1, 8838, Note_on_c, 14, 69, 101
1, 8838, Note_on_c, 14, 62, 86
1, 8840, Note_on_c, 0, 50, 79
1, 8840, Note_on_c, 12, 50, 79
1, 8844, Note_on_c, 0, 38, 60
1, 8857, Note_off_c, 4, 38, 101
1, 8857, Note_off_c, 13, 38, 101
1, 8862, Note_off_c, 9, 42, 102
1, 8868, Note_off_c, 1, 62, 86
1, 8868, Note_off_c, 14, 62, 86
1, 8872, Note_off_c, 0, 38, 60
1, 8876, Note_off_c, 1, 69, 101
1, 8876, Note_off_c, 14, 69, 101
1, 8876, Note_off_c, 9, 36, 88
1, 8883, Note_off_c, 0, 50, 79
1, 8883, Note_off_c, 12, 50, 79
1, 8928, Note_on_c, 9, 42, 97
1, 8931, Note_on_c, 1, 71, 116
1, 8931, Note_on_c, 1, 67, 111
1, 8931, Note_on_c, 14, 71, 116
1, 8931, Note_on_c, 14, 67, 111
1, 8932, Note_on_c, 0, 50, 63
1, 8932, Note_on_c, 12, 50, 63
1, 8934, Note_on_c, 0, 38, 53
1, 8948, Note_off_c, 1, 67, 111
1, 8948, Note_off_c, 14, 67, 111
1, 8950, Note_off_c, 9, 42, 97
1, 8952, Note_off_c, 1, 71, 116
1, 8952, Note_off_c, 14, 71, 116
1, 8961, Note_off_c, 0, 38, 53
1, 8966, Note_off_c, 0, 50, 63
1, 8966, Note_off_c, 12, 50, 63
1, 8982, Note_on_c, 4, 38, 101
1, 8982, Note_on_c, 13, 38, 101
1, 9022, Note_on_c, 1, 71, 119
1, 9022, Note_on_c, 14, 71, 119
1, 9024, Note_on_c, 1, 67, 117
1, 9024, Note_on_c, 14, 67, 117
1, 9024, Note_on_c, 9, 36, 88
1, 9024, Note_on_c, 9, 42, 107
1, 9030, Note_on_c, 0, 50, 77
1, 9030, Note_on_c, 12, 50, 77
1, 9032, Note_on_c, 0, 38, 64
1, 9033, Note_off_c, 4, 38, 101
1, 9033, Note_off_c, 13, 38, 101
1, 9044, Note_off_c, 9, 42, 107
1, 9054, Note_off_c, 1, 67, 117
1, 9054, Note_off_c, 14, 67, 117
1, 9059, Note_off_c, 0, 38, 64
1, 9060, Note_off_c, 1, 71, 119
1, 9060, Note_off_c, 14, 71, 119
1, 9065, Note_off_c, 0, 50, 77
1, 9065, Note_off_c, 12, 50, 77
1, 9065, Note_off_c, 9, 36, 88
1, 9120, Note_on_c, 9, 42, 102
1, 9124, Note_on_c, 0, 50, 65
1, 9124, Note_on_c, 12, 50, 65
1, 9129, Note_on_c, 1, 69, 98
1, 9129, Note_on_c, 14, 69, 98
1, 9131, Note_on_c, 0, 38, 32
1, 9131, Note_on_c, 1, 62, 97
1, 9131, Note_on_c, 14, 62, 97
1, 9137, Note_off_c, 9, 42, 102
1, 9145, Note_off_c, 1, 69, 98
1, 9145, Note_off_c, 14, 69, 98
1, 9153, Note_off_c, 1, 62, 97
1, 9153, Note_off_c, 14, 62, 97
1, 9160, Note_off_c, 0, 50, 65
1, 9160, Note_off_c, 12, 50, 65
1, 9163, Note_off_c, 0, 38, 32
1, 9182, Note_on_c, 4, 38, 72
1, 9182, Note_on_c, 13, 38, 72
1, 9188, Note_off_c, 3, 57, 92
1, 9188, Note_off_c, 13, 57, 92
1, 9216, Note_on_c, 9, 36, 97
1, 9216, Note_on_c, 9, 42, 112
1, 9220, Note_on_c, 0, 50, 63
1, 9220, Note_on_c, 1, 69, 111
1, 9220, Note_on_c, 12, 50, 63
1, 9220, Note_on_c, 14, 69, 111
1, 9222, Note_on_c, 1, 62, 101
1, 9222, Note_on_c, 14, 62, 101
1, 9224, Note_on_c, 0, 38, 49
1, 9233, Note_off_c, 4, 38, 72
1, 9233, Note_off_c, 13, 38, 72
1, 9243, Note_off_c, 1, 62, 101
1, 9243, Note_off_c, 14, 62, 101
1, 9244, Note_off_c, 9, 42, 112
1, 9252, Note_off_c, 0, 38, 49
1, 9254, Note_off_c, 0, 50, 63
1, 9254, Note_off_c, 12, 50, 63
1, 9256, Note_off_c, 1, 69, 111
1, 9256, Note_off_c, 14, 69, 111
1, 9257, Note_off_c, 9, 36, 97
1, 9280, Note_off_c, 0, 55, 63
1, 9280, Note_off_c, 12, 55, 63
1, 9315, Note_on_c, 0, 50, 77
1, 9315, Note_on_c, 12, 50, 77
1, 9320, Note_on_c, 0, 38, 60
1, 9336, Note_off_c, 0, 57, 98
1, 9336, Note_off_c, 12, 57, 98
1, 9356, Note_off_c, 0, 38, 60
1, 9360, Note_off_c, 0, 50, 77
1, 9360, Note_off_c, 12, 50, 77
1, 9392, Note_on_c, 4, 38, 122
1, 9392, Note_on_c, 13, 38, 122
1, 9400, Note_on_c, 3, 57, 127
1, 9400, Note_on_c, 13, 57, 127
1, 9408, Note_on_c, 9, 36, 107
1, 9409, Note_on_c, 0, 57, 114
1, 9409, Note_on_c, 12, 57, 114
1, 9414, Note_on_c, 0, 55, 109
1, 9414, Note_on_c, 12, 55, 109
1, 9416, Note_on_c, 0, 50, 93
1, 9416, Note_on_c, 12, 50, 93
1, 9420, Note_on_c, 0, 38, 81
1, 9446, Note_off_c, 3, 57, 127
1, 9446, Note_off_c, 13, 57, 127
1, 9451, Note_off_c, 4, 38, 122
1, 9451, Note_off_c, 13, 38, 122
1, 9456, Note_off_c, 0, 38, 81
1, 9456, Note_off_c, 9, 36, 107
1, 9457, Note_off_c, 0, 50, 93
1, 9457, Note_off_c, 0, 55, 109
1, 9457, Note_off_c, 12, 50, 93
1, 9457, Note_off_c, 12, 55, 109
1, 9462, Note_off_c, 0, 57, 114
1, 9462, Note_off_c, 12, 57, 114
1, 9494, Note_on_c, 3, 59, 114
1, 9494, Note_on_c, 13, 59, 114
1, 9510, Note_on_c, 0, 59, 89
1, 9510, Note_on_c, 12, 59, 89
1, 9512, Note_on_c, 0, 50, 63
1, 9512, Note_on_c, 12, 50, 63
1, 9520, Note_on_c, 0, 55, 32
1, 9520, Note_on_c, 12, 55, 32
1, 9524, Note_on_c, 0, 38, 13
1, 9531, Note_off_c, 3, 59, 114
1, 9531, Note_off_c, 13, 59, 114
1, 9542, Note_off_c, 0, 55, 32
1, 9542, Note_off_c, 0, 50, 63
1, 9542, Note_off_c, 12, 55, 32
1, 9542, Note_off_c, 12, 50, 63
1, 9547, Note_off_c, 0, 38, 13
1, 9547, Note_off_c, 0, 59, 89
1, 9547, Note_off_c, 12, 59, 89
1, 9587, Note_on_c, 3, 61, 107
1, 9587, Note_on_c, 13, 61, 107
1, 9600, Note_on_c, 4, 38, 109
1, 9600, Note_on_c, 13, 38, 109
1, 9600, Note_on_c, 9, 36, 102
1, 9603, Note_on_c, 0, 55, 57
1, 9603, Note_on_c, 12, 55, 57
1, 9604, Note_on_c, 0, 61, 85
1, 9604, Note_on_c, 12, 61, 85
1, 9608, Note_on_c, 0, 50, 69
1, 9608, Note_on_c, 12, 50, 69
1, 9614, Note_on_c, 0, 38, 47
1, 9622, Note_off_c, 3, 61, 107
1, 9622, Note_off_c, 13, 61, 107
1, 9635, Note_off_c, 0, 55, 57
1, 9635, Note_off_c, 12, 55, 57
1, 9636, Note_off_c, 0, 50, 69
1, 9636, Note_off_c, 12, 50, 69
1, 9638, Note_off_c, 0, 38, 47
1, 9638, Note_off_c, 4, 38, 109
1, 9638, Note_off_c, 13, 38, 109
1, 9643, Note_off_c, 0, 61, 85
1, 9643, Note_off_c, 12, 61, 85
1, 9646, Note_off_c, 9, 36, 102
1, 9686, Note_on_c, 3, 61, 121
1, 9686, Note_on_c, 13, 61, 121
1, 9694, Note_on_c, 0, 61, 114
1, 9694, Note_on_c, 12, 61, 114
1, 9702, Note_on_c, 0, 55, 92
1, 9702, Note_on_c, 12, 55, 92
1, 9705, Note_on_c, 0, 50, 86
1, 9705, Note_on_c, 12, 50, 86
1, 9707, Note_on_c, 0, 38, 72
1, 9740, Note_off_c, 0, 38, 72
1, 9744, Note_off_c, 0, 50, 86
1, 9744, Note_off_c, 12, 50, 86
1, 9776, Note_on_c, 4, 38, 97
1, 9776, Note_on_c, 13, 38, 97
1, 9792, Note_on_c, 9, 36, 107
1, 9803, Note_on_c, 0, 50, 64
1, 9803, Note_on_c, 12, 50, 64
1, 9809, Note_on_c, 0, 38, 49
1, 9816, Note_off_c, 4, 38, 97
1, 9816, Note_off_c, 13, 38, 97
1, 9833, Note_off_c, 0, 38, 49
1, 9835, Note_off_c, 0, 50, 64
1, 9835, Note_off_c, 12, 50, 64
1, 9838, Note_off_c, 0, 55, 92
1, 9838, Note_off_c, 12, 55, 92
1, 9846, Note_off_c, 9, 36, 107
1, 9859, Note_off_c, 0, 61, 114
1, 9859, Note_off_c, 3, 61, 121
1, 9859, Note_off_c, 12, 61, 114
1, 9859, Note_off_c, 13, 61, 121
1, 9880, Note_on_c, 3, 59, 98
1, 9880, Note_on_c, 13, 59, 98
1, 9892, Note_on_c, 0, 59, 72
1, 9892, Note_on_c, 12, 59, 72
1, 9900, Note_on_c, 0, 55, 32
1, 9900, Note_on_c, 12, 55, 32
1, 9902, Note_on_c, 0, 50, 66
1, 9902, Note_on_c, 12, 50, 66
1, 9907, Note_on_c, 0, 38, 49
1, 9924, Note_off_c, 3, 59, 98
1, 9924, Note_off_c, 13, 59, 98
1, 9928, Note_off_c, 0, 55, 32
1, 9928, Note_off_c, 12, 55, 32
1, 9929, Note_off_c, 0, 50, 66
1, 9929, Note_off_c, 12, 50, 66
1, 9931, Note_off_c, 0, 38, 49
1, 9932, Note_off_c, 0, 59, 72
1, 9932, Note_off_c, 12, 59, 72
1, 9952, Note_on_c, 4, 38, 109
1, 9952, Note_on_c, 13, 38, 109
1, 9976, Note_on_c, 3, 57, 89
1, 9976, Note_on_c, 13, 57, 89
1, 9984, Note_on_c, 0, 57, 95
1, 9984, Note_on_c, 12, 57, 95
1, 9984, Note_on_c, 9, 36, 107
1, 9990, Note_on_c, 0, 55, 69
1, 9990, Note_on_c, 12, 55, 69
1, 9992, Note_on_c, 0, 50, 78
1, 9992, Note_off_c, 4, 38, 109
1, 9992, Note_on_c, 12, 50, 78
1, 9992, Note_off_c, 13, 38, 109
1, 9996, Note_on_c, 0, 38, 56
1, 10011, Note_off_c, 0, 55, 69
1, 10011, Note_off_c, 12, 55, 69
1, 10014, Note_off_c, 3, 57, 89
1, 10014, Note_off_c, 13, 57, 89
1, 10022, Note_off_c, 0, 38, 56
1, 10022, Note_off_c, 0, 57, 95
1, 10022, Note_off_c, 12, 57, 95
1, 10025, Note_off_c, 0, 50, 78
1, 10025, Note_off_c, 12, 50, 78
1, 10038, Note_off_c, 9, 36, 107
1, 10067, Note_on_c, 3, 57, 97
1, 10067, Note_on_c, 13, 57, 97
1, 10073, Note_on_c, 0, 57, 121
1, 10073, Note_on_c, 12, 57, 121
1, 10081, Note_on_c, 0, 55, 93
1, 10081, Note_on_c, 12, 55, 93
1, 10084, Note_on_c, 0, 50, 98
1, 10084, Note_on_c, 12, 50, 98
1, 10088, Note_on_c, 0, 38, 81
1, 10129, Note_off_c, 0, 38, 81
1, 10131, Note_off_c, 0, 50, 98
1, 10131, Note_off_c, 12, 50, 98
1, 10158, Note_on_c, 4, 38, 121
1, 10158, Note_on_c, 13, 38, 121
1, 10176, Note_on_c, 9, 36, 107
1, 10187, Note_on_c, 0, 50, 76
1, 10187, Note_on_c, 12, 50, 76
1, 10190, Note_on_c, 0, 38, 47
1, 10227, Note_off_c, 0, 50, 76
1, 10227, Note_off_c, 12, 50, 76
1, 10228, Note_off_c, 0, 38, 47
1, 10241, Note_off_c, 9, 36, 107
1, 10272, Note_on_c, 9, 42, 102
1, 10275, Note_on_c, 1, 69, 86
1, 10275, Note_on_c, 14, 69, 86
1, 10278, Note_on_c, 1, 62, 64
1, 10278, Note_on_c, 14, 62, 64
1, 10280, Note_on_c, 0, 50, 73
1, 10280, Note_on_c, 12, 50, 73
1, 10286, Note_off_c, 4, 38, 121
1, 10286, Note_off_c, 13, 38, 121
1, 10294, Note_on_c, 0, 38, 13
1, 10299, Note_off_c, 1, 69, 86
1, 10299, Note_off_c, 14, 69, 86
1, 10305, Note_off_c, 9, 42, 102
1, 10307, Note_off_c, 1, 62, 64
1, 10307, Note_off_c, 14, 62, 64
1, 10310, Note_off_c, 0, 50, 73
1, 10310, Note_off_c, 12, 50, 73
1, 10315, Note_off_c, 0, 38, 13
1, 10340, Note_on_c, 4, 38, 97
1, 10340, Note_on_c, 13, 38, 97
1, 10364, Note_on_c, 0, 50, 79
1, 10364, Note_on_c, 12, 50, 79
1, 10368, Note_on_c, 9, 42, 107
1, 10368, Note_on_c, 9, 36, 92
1, 10372, Note_on_c, 0, 38, 64
1, 10374, Note_on_c, 1, 62, 66
1, 10374, Note_on_c, 14, 62, 66
1, 10376, Note_on_c, 1, 69, 92
1, 10376, Note_on_c, 14, 69, 92
1, 10398, Note_off_c, 1, 69, 92
1, 10398, Note_off_c, 14, 69, 92
1, 10400, Note_off_c, 0, 38, 64
1, 10404, Note_off_c, 1, 62, 66
1, 10404, Note_off_c, 14, 62, 66
1, 10406, Note_off_c, 0, 50, 79
1, 10406, Note_off_c, 12, 50, 79
1, 10408, Note_off_c, 9, 42, 107
1, 10414, Note_off_c, 4, 38, 97
1, 10414, Note_off_c, 13, 38, 97
1, 10417, Note_off_c, 9, 36, 92
1, 10457, Note_on_c, 1, 71, 117
1, 10457, Note_on_c, 14, 71, 117
1, 10459, Note_on_c, 0, 50, 86
1, 10459, Note_on_c, 12, 50, 86
1, 10462, Note_on_c, 1, 67, 112
1, 10462, Note_on_c, 14, 67, 112
1, 10464, Note_on_c, 9, 42, 102
1, 10465, Note_off_c, 0, 55, 93
1, 10465, Note_off_c, 12, 55, 93
1, 10468, Note_on_c, 0, 38, 57
1, 10484, Note_off_c, 1, 67, 112
1, 10484, Note_off_c, 14, 67, 112
1, 10491, Note_off_c, 0, 38, 57
1, 10492, Note_off_c, 1, 71, 117
1, 10492, Note_off_c, 14, 71, 117
1, 10496, Note_off_c, 9, 42, 102
1, 10500, Note_off_c, 0, 50, 86
1, 10500, Note_off_c, 12, 50, 86
1, 10542, Note_on_c, 4, 38, 100
1, 10542, Note_on_c, 13, 38, 100
1, 10555, Note_on_c, 0, 50, 98
1, 10555, Note_on_c, 1, 71, 127
1, 10555, Note_on_c, 12, 50, 98
1, 10555, Note_on_c, 14, 71, 127
1, 10558, Note_on_c, 1, 67, 124
1, 10558, Note_on_c, 14, 67, 124
1, 10560, Note_on_c, 9, 36, 92
1, 10560, Note_on_c, 9, 42, 107
1, 10563, Note_on_c, 0, 38, 83
1, 10596, Note_off_c, 1, 67, 124
1, 10596, Note_off_c, 14, 67, 124
1, 10598, Note_off_c, 9, 42, 107
1, 10601, Note_off_c, 0, 38, 83
1, 10601, Note_off_c, 0, 50, 98
1, 10601, Note_off_c, 12, 50, 98
1, 10603, Note_off_c, 1, 71, 127
1, 10603, Note_off_c, 14, 71, 127
1, 10608, Note_off_c, 4, 38, 100
1, 10608, Note_off_c, 13, 38, 100
1, 10617, Note_off_c, 9, 36, 92
1, 10641, Note_off_c, 3, 57, 97
1, 10641, Note_off_c, 13, 57, 97
1, 10651, Note_on_c, 1, 69, 111
1, 10651, Note_on_c, 14, 69, 111
1, 10654, Note_on_c, 1, 62, 98
1, 10654, Note_on_c, 14, 62, 98
1, 10656, Note_on_c, 9, 42, 102
1, 10657, Note_on_c, 0, 50, 86
1, 10657, Note_on_c, 12, 50, 86
1, 10662, Note_on_c, 0, 38, 68
1, 10673, Note_off_c, 1, 62, 98
1, 10673, Note_off_c, 14, 62, 98
1, 10675, Note_off_c, 1, 69, 111
1, 10675, Note_off_c, 14, 69, 111
1, 10686, Note_off_c, 9, 42, 102
1, 10694, Note_off_c, 0, 38, 68
1, 10699, Note_off_c, 0, 50, 86
1, 10699, Note_off_c, 12, 50, 86
1, 10742, Note_on_c, 1, 69, 116
1, 10742, Note_on_c, 4, 38, 101
1, 10742, Note_on_c, 13, 38, 101
1, 10742, Note_on_c, 14, 69, 116
1, 10745, Note_on_c, 0, 52, 101
1, 10745, Note_on_c, 12, 52, 101
1, 10747, Note_on_c, 1, 62, 111
1, 10747, Note_on_c, 14, 62, 111
1, 10752, Note_on_c, 9, 36, 97
1, 10752, Note_on_c, 9, 42, 112
1, 10753, Note_on_c, 0, 50, 95
1, 10753, Note_on_c, 12, 50, 95
1, 10758, Note_on_c, 0, 38, 81
1, 10763, Note_off_c, 1, 62, 111
1, 10763, Note_off_c, 14, 62, 111
1, 10779, Note_off_c, 1, 69, 116
1, 10779, Note_off_c, 14, 69, 116
1, 10792, Note_off_c, 9, 42, 112
1, 10798, Note_off_c, 0, 38, 81
1, 10798, Note_off_c, 0, 50, 95
1, 10798, Note_off_c, 4, 38, 101
1, 10798, Note_off_c, 12, 50, 95
1, 10798, Note_off_c, 13, 38, 101
1, 10803, Note_off_c, 9, 36, 97
1, 10844, Note_off_c, 0, 57, 121
1, 10844, Note_on_c, 0, 57, 98
1, 10844, Note_off_c, 12, 57, 121
1, 10844, Note_on_c, 12, 57, 98
1, 10848, Note_on_c, 0, 50, 89
1, 10848, Note_on_c, 12, 50, 89
1, 10851, Note_on_c, 0, 38, 66
1, 10860, Note_off_c, 0, 52, 101
1, 10860, Note_off_c, 12, 52, 101
1, 10878, Note_off_c, 0, 57, 98
1, 10878, Note_off_c, 12, 57, 98
1, 10883, Note_off_c, 0, 38, 66
1, 10889, Note_off_c, 0, 50, 89
1, 10889, Note_off_c, 12, 50, 89
1, 10916, Note_on_c, 3, 69, 127
1, 10916, Note_on_c, 13, 69, 127
1, 10928, Note_on_c, 4, 38, 124
1, 10928, Note_on_c, 13, 38, 124
1, 10934, Note_on_c, 0, 57, 122
1, 10934, Note_on_c, 0, 55, 119
1, 10934, Note_on_c, 12, 57, 122
1, 10934, Note_on_c, 12, 55, 119
1, 10942, Note_on_c, 0, 50, 106
1, 10942, Note_on_c, 12, 50, 106
1, 10944, Note_on_c, 9, 36, 107
1, 10947, Note_on_c, 0, 38, 91
1, 10968, Note_off_c, 3, 69, 127
1, 10968, Note_off_c, 13, 69, 127
1, 10976, Note_off_c, 0, 55, 119
1, 10976, Note_off_c, 12, 55, 119
1, 10980, Note_off_c, 0, 50, 106
1, 10980, Note_off_c, 12, 50, 106
1, 10982, Note_off_c, 0, 38, 91
1, 10993, Note_off_c, 0, 57, 122
1, 10993, Note_off_c, 12, 57, 122
1, 10998, Note_off_c, 9, 36, 107
1, 11006, Note_off_c, 4, 38, 124
1, 11006, Note_off_c, 13, 38, 124
1, 11019, Note_on_c, 3, 71, 114
1, 11019, Note_on_c, 13, 71, 114
1, 11030, Note_on_c, 0, 55, 65
1, 11030, Note_on_c, 0, 59, 91
1, 11030, Note_on_c, 12, 55, 65
1, 11030, Note_on_c, 12, 59, 91
1, 11043, Note_on_c, 0, 50, 72
1, 11043, Note_on_c, 12, 50, 72
1, 11052, Note_on_c, 0, 38, 28
1, 11054, Note_off_c, 0, 55, 65
1, 11054, Note_off_c, 3, 71, 114
1, 11054, Note_off_c, 12, 55, 65
1, 11054, Note_off_c, 13, 71, 114
1, 11067, Note_off_c, 0, 50, 72
1, 11067, Note_off_c, 12, 50, 72
1, 11068, Note_off_c, 0, 59, 91
1, 11068, Note_off_c, 12, 59, 91
1, 11072, Note_off_c, 0, 38, 28
1, 11112, Note_on_c, 3, 73, 121
1, 11112, Note_on_c, 13, 73, 121
1, 11123, Note_on_c, 4, 38, 112
1, 11123, Note_on_c, 13, 38, 112
1, 11124, Note_on_c, 0, 61, 97
1, 11124, Note_on_c, 12, 61, 97
1, 11131, Note_on_c, 0, 55, 35
1, 11131, Note_on_c, 12, 55, 35
1, 11136, Note_on_c, 9, 36, 107
1, 11137, Note_on_c, 0, 50, 69
1, 11137, Note_on_c, 12, 50, 69
1, 11142, Note_on_c, 0, 38, 40
1, 11155, Note_off_c, 3, 73, 121
1, 11155, Note_off_c, 13, 73, 121
1, 11158, Note_off_c, 0, 55, 35
1, 11158, Note_off_c, 12, 55, 35
1, 11160, Note_off_c, 0, 50, 69
1, 11160, Note_off_c, 0, 61, 97
1, 11160, Note_off_c, 12, 50, 69
1, 11160, Note_off_c, 12, 61, 97
1, 11163, Note_off_c, 0, 38, 40
1, 11185, Note_off_c, 9, 36, 107
1, 11187, Note_off_c, 4, 38, 112
1, 11187, Note_off_c, 13, 38, 112
1, 11211, Note_on_c, 3, 73, 126
1, 11211, Note_on_c, 13, 73, 126
1, 11222, Note_on_c, 0, 61, 124
1, 11222, Note_on_c, 12, 61, 124
1, 11225, Note_on_c, 0, 50, 106
1, 11225, Note_on_c, 12, 50, 106
1, 11227, Note_on_c, 0, 55, 114
1, 11227, Note_on_c, 0, 38, 86
1, 11227, Note_on_c, 12, 55, 114
1, 11267, Note_off_c, 0, 38, 86
1, 11267, Note_off_c, 0, 50, 106
1, 11267, Note_off_c, 12, 50, 106
1, 11312, Note_on_c, 4, 38, 114
1, 11312, Note_on_c, 13, 38, 114
1, 11316, Note_on_c, 0, 50, 83
1, 11316, Note_on_c, 12, 50, 83
1, 11320, Note_on_c, 0, 38, 69
1, 11328, Note_on_c, 9, 36, 102
1, 11347, Note_off_c, 0, 38, 69
1, 11350, Note_off_c, 0, 55, 114
1, 11350, Note_off_c, 12, 55, 114
1, 11355, Note_off_c, 0, 50, 83
1, 11355, Note_off_c, 12, 50, 83
1, 11376, Note_off_c, 9, 36, 102
1, 11382, Note_off_c, 3, 73, 126
1, 11382, Note_off_c, 13, 73, 126
1, 11385, Note_off_c, 4, 38, 114
1, 11385, Note_off_c, 13, 38, 114
1, 11396, Note_off_c, 0, 61, 124
1, 11396, Note_off_c, 12, 61, 124
1, 11406, Note_on_c, 3, 71, 98
1, 11406, Note_on_c, 13, 71, 98
1, 11409, Note_on_c, 0, 50, 91
1, 11409, Note_on_c, 12, 50, 91
1, 11411, Note_on_c, 0, 38, 53
1, 11416, Note_on_c, 0, 59, 76
1, 11416, Note_on_c, 12, 59, 76
1, 11428, Note_on_c, 0, 55, 32
1, 11428, Note_on_c, 12, 55, 32
1, 11446, Note_off_c, 0, 38, 53
1, 11446, Note_off_c, 3, 71, 98
1, 11446, Note_off_c, 13, 71, 98
1, 11448, Note_off_c, 0, 50, 91
1, 11448, Note_off_c, 12, 50, 91
1, 11452, Note_off_c, 0, 55, 32
1, 11452, Note_off_c, 12, 55, 32
1, 11475, Note_off_c, 0, 59, 76
1, 11475, Note_off_c, 12, 59, 76
1, 11494, Note_on_c, 3, 69, 114
1, 11494, Note_on_c, 13, 69, 114
1, 11508, Note_on_c, 0, 50, 83
1, 11508, Note_on_c, 4, 38, 106
1, 11508, Note_on_c, 12, 50, 83
1, 11508, Note_on_c, 13, 38, 106
1, 11510, Note_on_c, 0, 57, 88
1, 11510, Note_on_c, 12, 57, 88
1, 11512, Note_on_c, 0, 55, 68
1, 11512, Note_on_c, 12, 55, 68
1, 11515, Note_on_c, 0, 38, 69
1, 11520, Note_on_c, 9, 36, 97
1, 11531, Note_off_c, 9, 36, 97
1, 11542, Note_off_c, 0, 50, 83
1, 11542, Note_off_c, 12, 50, 83
1, 11544, Note_off_c, 0, 55, 68
1, 11544, Note_off_c, 12, 55, 68
1, 11555, Note_off_c, 0, 38, 69
1, 11560, Note_off_c, 3, 69, 114
1, 11560, Note_off_c, 13, 69, 114
1, 11566, Note_off_c, 0, 57, 88
1, 11566, Note_off_c, 12, 57, 88
1, 11579, Note_off_c, 4, 38, 106
1, 11579, Note_off_c, 13, 38, 106
1, 11590, Note_on_c, 3, 74, 127
1, 11590, Note_on_c, 13, 74, 127
1, 11595, Note_on_c, 0, 62, 107
1, 11595, Note_on_c, 12, 62, 107
1, 11596, Note_on_c, 4, 35, 116
1, 11596, Note_on_c, 13, 35, 116
1, 11598, Note_on_c, 4, 47, 127
1, 11601, Note_on_c, 0, 54, 114
1, 11601, Note_on_c, 12, 54, 114
1, 11604, Note_on_c, 0, 47, 114
1, 11604, Note_on_c, 0, 59, 91
1, 11604, Note_on_c, 12, 47, 114
1, 11606, Note_on_c, 2, 59, 122
1, 11606, Note_on_c, 14, 59, 122
1, 11608, Note_on_c, 0, 35, 116
1, 11608, Note_on_c, 1, 78, 127
1, 11608, Note_on_c, 14, 78, 127
1, 11611, Note_on_c, 1, 62, 122
1, 11611, Note_on_c, 2, 47, 117
1, 11611, Note_on_c, 14, 62, 122
1, 11611, Note_on_c, 14, 47, 117
1, 11616, Note_on_c, 9, 38, 107
1, 11616, Note_on_c, 9, 51, 117
1, 11641, Note_off_c, 9, 38, 107
1, 11648, Note_off_c, 9, 51, 117
1, 11696, Note_off_c, 0, 59, 91
1, 11710, Note_off_c, 0, 54, 114
1, 11710, Note_off_c, 12, 54, 114
1, 11718, Note_off_c, 0, 47, 114
1, 11718, Note_off_c, 12, 47, 114
1, 11723, Note_off_c, 4, 35, 116
1, 11723, Note_off_c, 13, 35, 116
1, 11724, Note_off_c, 0, 62, 107
1, 11724, Note_off_c, 12, 62, 107
1, 11728, Note_off_c, 3, 74, 127
1, 11728, Note_off_c, 13, 74, 127
1, 11734, Note_off_c, 1, 78, 127
1, 11734, Note_off_c, 14, 78, 127
1, 11737, Note_off_c, 0, 35, 116
1, 11740, Note_off_c, 2, 47, 117
1, 11740, Note_off_c, 4, 47, 127
1, 11740, Note_off_c, 14, 47, 117
1, 11768, Note_off_c, 2, 59, 122
1, 11768, Note_off_c, 14, 59, 122
1, 11776, Note_off_c, 1, 62, 122
1, 11776, Note_off_c, 14, 62, 122
1, 11785, Note_on_c, 1, 69, 127
1, 11785, Note_on_c, 14, 69, 127
1, 11788, Note_on_c, 3, 76, 124
1, 11788, Note_on_c, 13, 76, 124
1, 11790, Note_on_c, 4, 33, 127
1, 11790, Note_on_c, 13, 33, 127
1, 11792, Note_on_c, 4, 45, 127
1, 11793, Note_on_c, 0, 64, 126
1, 11793, Note_on_c, 12, 64, 126
1, 11798, Note_on_c, 0, 45, 117
1, 11798, Note_on_c, 0, 57, 104
1, 11798, Note_on_c, 0, 61, 117
1, 11798, Note_on_c, 0, 33, 117
1, 11798, Note_on_c, 1, 64, 127
1, 11798, Note_on_c, 12, 45, 117
1, 11798, Note_on_c, 12, 57, 104
1, 11798, Note_on_c, 14, 64, 127
1, 11800, Note_on_c, 2, 57, 124
1, 11800, Note_on_c, 14, 57, 124
1, 11801, Note_on_c, 2, 45, 122
1, 11801, Note_on_c, 14, 45, 122
1, 11808, Note_on_c, 9, 53, 107
1, 11808, Note_on_c, 9, 40, 107
1, 11817, Note_off_c, 9, 40, 107
1, 11824, Note_off_c, 9, 53, 107
1, 11894, Note_off_c, 0, 45, 117
1, 11894, Note_off_c, 0, 64, 126
1, 11894, Note_off_c, 12, 45, 117
1, 11894, Note_off_c, 12, 64, 126
1, 11910, Note_off_c, 3, 76, 124
1, 11910, Note_off_c, 13, 76, 124
1, 11926, Note_off_c, 0, 33, 117
1, 11929, Note_off_c, 0, 57, 104
1, 11929, Note_off_c, 1, 69, 127
1, 11929, Note_off_c, 12, 57, 104
1, 11929, Note_off_c, 14, 69, 127
1, 11932, Note_off_c, 0, 61, 117
1, 11934, Note_off_c, 4, 45, 127
1, 11937, Note_off_c, 2, 57, 124
1, 11937, Note_off_c, 14, 57, 124
1, 11942, Note_off_c, 2, 45, 122
1, 11942, Note_off_c, 14, 45, 122
1, 11950, Note_off_c, 1, 64, 127
1, 11950, Note_off_c, 14, 64, 127
1, 11953, Note_off_c, 4, 33, 127
1, 11953, Note_off_c, 13, 33, 127
1, 11966, Note_on_c, 2, 38, 126
1, 11966, Note_on_c, 14, 38, 126
1, 11971, Note_on_c, 2, 50, 126
1, 11971, Note_on_c, 3, 78, 121
1, 11971, Note_on_c, 13, 78, 121
1, 11971, Note_on_c, 14, 50, 126
1, 11974, Note_on_c, 4, 38, 127
1, 11974, Note_on_c, 13, 38, 127
1, 11980, Note_on_c, 1, 74, 127
1, 11980, Note_on_c, 14, 74, 127
1, 11987, Note_on_c, 1, 66, 127
1, 11987, Note_on_c, 14, 66, 127
1, 11990, Note_on_c, 0, 38, 124
1, 11990, Note_on_c, 0, 62, 119
1, 11990, Note_on_c, 0, 57, 111
1, 11990, Note_on_c, 0, 66, 122
1, 11990, Note_on_c, 12, 57, 111
1, 11990, Note_on_c, 12, 66, 122
1, 11992, Note_on_c, 0, 26, 124
1, 12000, Note_on_c, 9, 38, 117
1, 12000, Note_on_c, 9, 51, 122
1, 12016, Note_off_c, 9, 51, 122
1, 12019, Note_off_c, 9, 38, 117
1, 12192, Note_on_c, 9, 38, 112
1, 12195, Note_off_c, 9, 38, 112
1, 12233, Note_off_c, 1, 66, 127
1, 12233, Note_off_c, 14, 66, 127
1, 12288, Note_on_c, 9, 38, 107
1, 12289, Note_off_c, 9, 38, 107
1, 12291, Note_off_c, 2, 50, 126
1, 12291, Note_off_c, 14, 50, 126
1, 12292, Note_off_c, 2, 38, 126
1, 12292, Note_off_c, 14, 38, 126
1, 12294, Note_off_c, 0, 26, 124
1, 12294, Note_off_c, 3, 78, 121
1, 12294, Note_off_c, 13, 78, 121
1, 12299, Note_off_c, 1, 74, 127
1, 12299, Note_off_c, 14, 74, 127
1, 12307, Note_off_c, 0, 62, 119
1, 12310, Note_off_c, 0, 38, 124
1, 12313, Note_off_c, 0, 57, 111
1, 12313, Note_off_c, 12, 57, 111
1, 12316, Note_off_c, 0, 66, 122
1, 12316, Note_off_c, 12, 66, 122
1, 12384, Note_on_c, 9, 38, 107
1, 12388, Note_off_c, 9, 38, 107
1, 12416, Note_off_c, 4, 38, 127
1, 12416, Note_off_c, 13, 38, 127
1, 12443, Note_on_c, 4, 52, 127
1, 12444, Note_on_c, 4, 40, 127
1, 12444, Note_on_c, 13, 40, 127
1, 12454, Note_on_c, 3, 79, 127
1, 12454, Note_on_c, 13, 79, 127
1, 12457, Note_on_c, 3, 71, 127
1, 12470, Note_on_c, 2, 50, 127
1, 12470, Note_on_c, 14, 50, 127
1, 12476, Note_on_c, 1, 79, 127
1, 12476, Note_on_c, 14, 79, 127
1, 12480, Note_on_c, 9, 42, 122
1, 12480, Note_on_c, 9, 36, 112
1, 12488, Note_on_c, 0, 59, 126
1, 12488, Note_on_c, 12, 59, 126
1, 12489, Note_on_c, 0, 67, 122
1, 12489, Note_on_c, 0, 50, 124
1, 12489, Note_on_c, 12, 67, 122
1, 12489, Note_on_c, 12, 50, 124
1, 12491, Note_on_c, 0, 64, 127
1, 12494, Note_on_c, 0, 38, 119
1, 12507, Note_on_c, 0, 39, 61
1, 12507, Note_off_c, 9, 36, 112
1, 12507, Note_off_c, 9, 42, 122
1, 12512, Note_off_c, 3, 71, 127
1, 12518, Note_off_c, 1, 79, 127
1, 12518, Note_off_c, 14, 79, 127
1, 12523, Note_off_c, 3, 79, 127
1, 12523, Note_off_c, 13, 79, 127
1, 12526, Note_off_c, 0, 38, 119
1, 12526, Note_off_c, 0, 67, 122
1, 12526, Note_off_c, 0, 59, 126
1, 12526, Note_off_c, 12, 67, 122
1, 12526, Note_off_c, 12, 59, 126
1, 12529, Note_off_c, 0, 64, 127
1, 12531, Note_off_c, 0, 39, 61
1, 12531, Note_off_c, 0, 50, 124
1, 12531, Note_off_c, 12, 50, 124
1, 12547, Note_off_c, 2, 50, 127
1, 12547, Note_off_c, 14, 50, 127
1, 12555, Note_off_c, 4, 52, 127
1, 12566, Note_off_c, 4, 40, 127
1, 12566, Note_off_c, 13, 40, 127
1, 12574, Note_on_c, 1, 71, 117
1, 12574, Note_on_c, 14, 71, 117
1, 12580, Note_on_c, 0, 67, 103
1, 12580, Note_on_c, 12, 67, 103
1, 12584, Note_on_c, 0, 59, 79
1, 12584, Note_on_c, 12, 59, 79
1, 12585, Note_on_c, 0, 50, 97
1, 12585, Note_on_c, 0, 64, 85
1, 12585, Note_on_c, 12, 50, 97
1, 12590, Note_on_c, 0, 38, 88
1, 12590, Note_off_c, 1, 71, 117
1, 12590, Note_off_c, 14, 71, 117
1, 12611, Note_off_c, 0, 64, 85
1, 12619, Note_off_c, 0, 38, 88
1, 12619, Note_off_c, 0, 59, 79
1, 12619, Note_off_c, 12, 59, 79
1, 12620, Note_off_c, 0, 67, 103
1, 12620, Note_off_c, 12, 67, 103
1, 12622, Note_off_c, 0, 50, 97
1, 12622, Note_off_c, 12, 50, 97
1, 12670, Note_on_c, 1, 64, 127
1, 12670, Note_on_c, 14, 64, 127
1, 12675, Note_on_c, 0, 67, 84
1, 12675, Note_on_c, 12, 67, 84
1, 12680, Note_on_c, 0, 59, 72
1, 12680, Note_on_c, 0, 64, 76
1, 12680, Note_on_c, 12, 59, 72
1, 12681, Note_on_c, 0, 50, 83
1, 12681, Note_on_c, 12, 50, 83
1, 12688, Note_on_c, 0, 38, 63
1, 12696, Note_off_c, 1, 64, 127
1, 12696, Note_off_c, 14, 64, 127
1, 12702, Note_off_c, 0, 64, 76
1, 12705, Note_off_c, 0, 59, 72
1, 12705, Note_off_c, 12, 59, 72
1, 12707, Note_off_c, 0, 67, 84
1, 12707, Note_off_c, 12, 67, 84
1, 12708, Note_off_c, 0, 50, 83
1, 12708, Note_off_c, 12, 50, 83
1, 12712, Note_off_c, 0, 38, 63
1, 12747, Note_on_c, 4, 38, 127
1, 12747, Note_on_c, 13, 38, 127
1, 12748, Note_on_c, 3, 69, 112
1, 12750, Note_on_c, 3, 78, 126
1, 12750, Note_on_c, 4, 50, 127
1, 12750, Note_on_c, 13, 78, 126
1, 12766, Note_on_c, 0, 66, 117
1, 12766, Note_on_c, 0, 57, 116
1, 12766, Note_on_c, 2, 50, 127
1, 12766, Note_on_c, 12, 66, 117
1, 12766, Note_on_c, 12, 57, 116
1, 12766, Note_on_c, 14, 50, 127
1, 12768, Note_on_c, 0, 50, 109
1, 12768, Note_on_c, 0, 62, 116
1, 12768, Note_on_c, 12, 50, 109
1, 12768, Note_on_c, 9, 44, 127
1, 12768, Note_on_c, 9, 36, 112
1, 12771, Note_on_c, 0, 38, 100
1, 12772, Note_on_c, 1, 78, 127
1, 12772, Note_on_c, 14, 78, 127
1, 12798, Note_off_c, 0, 62, 116
1, 12803, Note_off_c, 0, 57, 116
1, 12803, Note_off_c, 3, 69, 112
1, 12803, Note_off_c, 12, 57, 116
1, 12806, Note_off_c, 0, 66, 117
1, 12806, Note_off_c, 12, 66, 117
1, 12808, Note_off_c, 0, 38, 100
1, 12808, Note_off_c, 3, 78, 126
1, 12808, Note_off_c, 13, 78, 126
1, 12811, Note_off_c, 0, 50, 109
1, 12811, Note_off_c, 12, 50, 109
1, 12816, Note_off_c, 9, 44, 127
1, 12824, Note_off_c, 9, 36, 112
1, 12828, Note_off_c, 1, 78, 127
1, 12828, Note_off_c, 2, 50, 127
1, 12828, Note_off_c, 14, 78, 127
1, 12828, Note_off_c, 14, 50, 127
1, 12852, Note_on_c, 0, 57, 40
1, 12852, Note_on_c, 12, 57, 40
1, 12857, Note_on_c, 0, 66, 66
1, 12857, Note_on_c, 12, 66, 66
1, 12859, Note_off_c, 4, 50, 127
1, 12860, Note_off_c, 4, 38, 127
1, 12860, Note_off_c, 13, 38, 127
1, 12864, Note_on_c, 0, 62, 40
1, 12864, Note_on_c, 0, 50, 74
1, 12864, Note_on_c, 1, 69, 121
1, 12864, Note_on_c, 12, 50, 74
1, 12864, Note_on_c, 14, 69, 121
1, 12870, Note_on_c, 0, 38, 57
1, 12888, Note_off_c, 0, 66, 66
1, 12888, Note_off_c, 12, 66, 66
1, 12889, Note_off_c, 0, 62, 40
1, 12896, Note_off_c, 0, 57, 40
1, 12896, Note_off_c, 12, 57, 40
1, 12899, Note_off_c, 0, 38, 57
1, 12900, Note_off_c, 1, 69, 121
1, 12900, Note_off_c, 14, 69, 121
1, 12902, Note_off_c, 0, 50, 74
1, 12902, Note_off_c, 12, 50, 74
1, 12950, Note_on_c, 0, 66, 89
1, 12950, Note_on_c, 0, 57, 69
1, 12950, Note_on_c, 0, 62, 73
1, 12950, Note_on_c, 12, 66, 89
1, 12950, Note_on_c, 12, 57, 69
1, 12953, Note_on_c, 1, 62, 127
1, 12953, Note_on_c, 14, 62, 127
1, 12960, Note_on_c, 0, 50, 78
1, 12960, Note_on_c, 12, 50, 78
1, 12968, Note_off_c, 0, 62, 73
1, 12968, Note_on_c, 0, 38, 53
1, 12972, Note_off_c, 0, 57, 69
1, 12972, Note_off_c, 12, 57, 69
1, 12977, Note_off_c, 0, 66, 89
1, 12977, Note_off_c, 12, 66, 89
1, 12988, Note_off_c, 1, 62, 127
1, 12988, Note_off_c, 14, 62, 127
1, 12990, Note_off_c, 0, 38, 53
1, 12993, Note_off_c, 0, 50, 78
1, 12993, Note_off_c, 12, 50, 78
1, 13041, Note_on_c, 2, 50, 127
1, 13041, Note_on_c, 3, 72, 126
1, 13041, Note_on_c, 14, 50, 127
1, 13043, Note_on_c, 3, 76, 127
1, 13043, Note_on_c, 13, 76, 127
1, 13046, Note_on_c, 0, 64, 126
1, 13046, Note_on_c, 0, 55, 122
1, 13046, Note_on_c, 0, 50, 107
1, 13046, Note_on_c, 0, 60, 121
1, 13046, Note_on_c, 12, 64, 126
1, 13046, Note_on_c, 12, 55, 122
1, 13046, Note_on_c, 12, 50, 107
1, 13049, Note_on_c, 4, 48, 127
1, 13049, Note_on_c, 4, 36, 127
1, 13049, Note_on_c, 13, 36, 127
1, 13051, Note_on_c, 0, 38, 97
1, 13056, Note_on_c, 9, 36, 117
1, 13056, Note_on_c, 9, 42, 122
1, 13057, Note_on_c, 1, 76, 127
1, 13057, Note_on_c, 14, 76, 127
1, 13072, Note_off_c, 0, 60, 121
1, 13083, Note_off_c, 0, 55, 122
1, 13083, Note_off_c, 12, 55, 122
1, 13088, Note_off_c, 0, 38, 97
1, 13089, Note_off_c, 0, 64, 126
1, 13089, Note_off_c, 12, 64, 126
1, 13091, Note_off_c, 0, 50, 107
1, 13091, Note_off_c, 12, 50, 107
1, 13094, Note_off_c, 9, 42, 122
1, 13097, Note_off_c, 9, 36, 117
1, 13099, Note_off_c, 1, 76, 127
1, 13099, Note_off_c, 2, 50, 127
1, 13099, Note_off_c, 14, 76, 127
1, 13099, Note_off_c, 14, 50, 127
1, 13102, Note_off_c, 3, 72, 126
1, 13107, Note_off_c, 3, 76, 127
1, 13107, Note_off_c, 13, 76, 127
1, 13136, Note_on_c, 0, 64, 85
1, 13136, Note_on_c, 12, 64, 85
1, 13137, Note_on_c, 0, 55, 66
1, 13137, Note_on_c, 12, 55, 66
1, 13140, Note_on_c, 0, 60, 74
1, 13144, Note_on_c, 0, 50, 81
1, 13144, Note_on_c, 12, 50, 81
1, 13147, Note_on_c, 1, 67, 119
1, 13147, Note_on_c, 14, 67, 119
1, 13148, Note_on_c, 0, 38, 64
1, 13148, Note_off_c, 4, 48, 127
1, 13153, Note_off_c, 4, 36, 127
1, 13153, Note_off_c, 13, 36, 127
1, 13161, Note_off_c, 0, 60, 74
1, 13168, Note_off_c, 0, 55, 66
1, 13168, Note_off_c, 12, 55, 66
1, 13172, Note_off_c, 0, 64, 85
1, 13172, Note_off_c, 12, 64, 85
1, 13176, Note_off_c, 0, 38, 64
1, 13180, Note_off_c, 0, 50, 81
1, 13180, Note_off_c, 12, 50, 81
1, 13184, Note_off_c, 1, 67, 119
1, 13184, Note_off_c, 14, 67, 119
1, 13227, Note_on_c, 0, 64, 93
1, 13227, Note_on_c, 12, 64, 93
1, 13228, Note_on_c, 0, 55, 86
1, 13228, Note_on_c, 12, 55, 86
1, 13230, Note_on_c, 0, 60, 83
1, 13232, Note_on_c, 0, 50, 88
1, 13232, Note_on_c, 12, 50, 88
1, 13235, Note_on_c, 0, 38, 65
1, 13236, Note_on_c, 1, 60, 127
1, 13236, Note_on_c, 14, 60, 127
1, 13256, Note_off_c, 0, 60, 83
1, 13257, Note_off_c, 0, 55, 86
1, 13257, Note_off_c, 12, 55, 86
1, 13264, Note_off_c, 0, 64, 93
1, 13264, Note_off_c, 12, 64, 93
1, 13272, Note_off_c, 0, 50, 88
1, 13272, Note_off_c, 1, 60, 127
1, 13272, Note_off_c, 12, 50, 88
1, 13272, Note_off_c, 14, 60, 127
1, 13275, Note_off_c, 0, 38, 65
1, 13302, Note_on_c, 3, 74, 127
1, 13302, Note_on_c, 3, 67, 126
1, 13302, Note_on_c, 13, 74, 127
1, 13323, Note_on_c, 0, 55, 117
1, 13323, Note_on_c, 12, 55, 117
1, 13324, Note_on_c, 0, 59, 119
1, 13326, Note_on_c, 0, 50, 103
1, 13326, Note_on_c, 0, 62, 111
1, 13326, Note_on_c, 1, 67, 119
1, 13326, Note_on_c, 12, 50, 103
1, 13326, Note_on_c, 12, 62, 111
1, 13326, Note_on_c, 14, 67, 119
1, 13331, Note_on_c, 0, 38, 85
1, 13345, Note_off_c, 1, 67, 119
1, 13345, Note_off_c, 14, 67, 119
1, 13364, Note_off_c, 0, 59, 119
1, 13364, Note_off_c, 3, 67, 126
1, 13368, Note_off_c, 0, 62, 111
1, 13368, Note_off_c, 12, 62, 111
1, 13369, Note_off_c, 0, 38, 85
1, 13369, Note_off_c, 3, 74, 127
1, 13369, Note_off_c, 13, 74, 127
1, 13371, Note_off_c, 0, 50, 103
1, 13371, Note_off_c, 0, 55, 117
1, 13371, Note_off_c, 12, 50, 103
1, 13371, Note_off_c, 12, 55, 117
1, 13414, Note_on_c, 0, 55, 63
1, 13414, Note_on_c, 1, 74, 127
1, 13414, Note_on_c, 4, 31, 127
1, 13414, Note_on_c, 4, 43, 127
1, 13414, Note_on_c, 12, 55, 63
1, 13414, Note_on_c, 13, 31, 127
1, 13414, Note_on_c, 14, 74, 127
1, 13416, Note_on_c, 0, 62, 56
1, 13416, Note_on_c, 12, 62, 56
1, 13419, Note_on_c, 1, 59, 127
1, 13419, Note_on_c, 14, 59, 127
1, 13420, Note_on_c, 0, 59, 57
1, 13428, Note_on_c, 0, 50, 79
1, 13428, Note_on_c, 12, 50, 79
1, 13433, Note_on_c, 0, 38, 43
1, 13440, Note_on_c, 9, 36, 117
1, 13440, Note_on_c, 9, 44, 122
1, 13443, Note_off_c, 0, 59, 57
1, 13449, Note_off_c, 9, 36, 117
1, 13451, Note_off_c, 1, 59, 127
1, 13451, Note_off_c, 14, 59, 127
1, 13454, Note_off_c, 0, 62, 56
1, 13454, Note_off_c, 1, 74, 127
1, 13454, Note_off_c, 12, 62, 56
1, 13454, Note_off_c, 14, 74, 127
1, 13454, Note_off_c, 9, 44, 122
1, 13456, Note_off_c, 0, 55, 63
1, 13456, Note_off_c, 12, 55, 63
1, 13459, Note_off_c, 0, 38, 43
1, 13460, Note_off_c, 0, 50, 79
1, 13460, Note_off_c, 12, 50, 79
1, 13507, Note_on_c, 0, 55, 73
1, 13507, Note_on_c, 0, 59, 85
1, 13507, Note_on_c, 0, 62, 85
1, 13507, Note_on_c, 12, 55, 73
1, 13507, Note_on_c, 12, 62, 85
1, 13520, Note_on_c, 0, 50, 74
1, 13520, Note_on_c, 12, 50, 74
1, 13523, Note_on_c, 0, 38, 56
1, 13531, Note_off_c, 0, 55, 73
1, 13531, Note_off_c, 4, 31, 127
1, 13531, Note_off_c, 12, 55, 73
1, 13531, Note_off_c, 13, 31, 127
1, 13534, Note_off_c, 0, 59, 85
1, 13536, Note_off_c, 4, 43, 127
1, 13539, Note_off_c, 0, 62, 85
1, 13539, Note_off_c, 12, 62, 85
1, 13548, Note_off_c, 0, 50, 74
1, 13548, Note_off_c, 12, 50, 74
1, 13550, Note_off_c, 0, 38, 56
1, 13592, Note_on_c, 2, 45, 127
1, 13592, Note_on_c, 14, 45, 127
1, 13603, Note_on_c, 4, 33, 127
1, 13603, Note_on_c, 13, 33, 127
1, 13604, Note_on_c, 4, 45, 127
1, 13606, Note_on_c, 0, 64, 127
1, 13606, Note_on_c, 3, 69, 124
1, 13606, Note_on_c, 3, 76, 127
1, 13606, Note_on_c, 12, 64, 127
1, 13606, Note_on_c, 13, 76, 127
1, 13609, Note_on_c, 0, 57, 127
1, 13609, Note_on_c, 0, 61, 127
1, 13609, Note_on_c, 12, 57, 127
1, 13614, Note_on_c, 0, 50, 107
1, 13614, Note_on_c, 1, 76, 127
1, 13614, Note_on_c, 12, 50, 107
1, 13614, Note_on_c, 14, 76, 127
1, 13616, Note_on_c, 0, 38, 98
1, 13616, Note_on_c, 1, 61, 127
1, 13616, Note_on_c, 14, 61, 127
1, 13632, Note_on_c, 9, 46, 127
1, 13632, Note_on_c, 9, 36, 117
1, 13649, Note_off_c, 9, 36, 117
1, 13651, Note_off_c, 9, 46, 127
1, 13657, Note_off_c, 0, 38, 98
1, 13662, Note_off_c, 0, 50, 107
1, 13662, Note_off_c, 12, 50, 107
1, 13707, Note_on_c, 0, 50, 74
1, 13707, Note_on_c, 12, 50, 74
1, 13710, Note_on_c, 0, 38, 56
1, 13747, Note_off_c, 0, 38, 56
1, 13750, Note_off_c, 0, 50, 74
1, 13750, Note_off_c, 12, 50, 74
1, 13768, Note_off_c, 3, 69, 124
1, 13780, Note_off_c, 3, 76, 127
1, 13780, Note_off_c, 13, 76, 127
1, 13798, Note_on_c, 0, 50, 88
1, 13798, Note_on_c, 12, 50, 88
1, 13801, Note_on_c, 0, 38, 72
1, 13840, Note_off_c, 0, 50, 88
1, 13840, Note_off_c, 12, 50, 88
1, 13841, Note_off_c, 0, 38, 72
1, 13843, Note_off_c, 1, 61, 127
1, 13843, Note_off_c, 14, 61, 127
1, 13848, Note_off_c, 1, 76, 127
1, 13848, Note_off_c, 14, 76, 127
1, 13883, Note_off_c, 2, 45, 127
1, 13883, Note_off_c, 14, 45, 127
1, 13889, Note_on_c, 0, 50, 91
1, 13889, Note_on_c, 12, 50, 91
1, 13897, Note_on_c, 0, 38, 69
1, 13926, Note_off_c, 0, 57, 127
1, 13926, Note_off_c, 12, 57, 127
1, 13931, Note_off_c, 0, 38, 69
1, 13931, Note_off_c, 0, 50, 91
1, 13931, Note_off_c, 0, 64, 127
1, 13931, Note_off_c, 12, 50, 91
1, 13931, Note_off_c, 12, 64, 127
1, 13953, Note_off_c, 0, 61, 127
1, 13958, Note_off_c, 4, 33, 127
1, 13958, Note_off_c, 13, 33, 127
1, 13960, Note_off_c, 4, 45, 127
1, 13974, Note_on_c, 4, 38, 127
1, 13974, Note_on_c, 13, 38, 127
1, 14000, Note_on_c, 0, 57, 127
1, 14000, Note_on_c, 0, 50, 112
1, 14000, Note_on_c, 3, 57, 127
1, 14000, Note_on_c, 12, 57, 127
1, 14000, Note_on_c, 12, 50, 112
1, 14000, Note_on_c, 13, 57, 127
1, 14001, Note_on_c, 0, 55, 121
1, 14001, Note_on_c, 12, 55, 121
1, 14006, Note_on_c, 0, 38, 100
1, 14016, Note_on_c, 9, 36, 117
1, 14032, Note_off_c, 9, 36, 117
1, 14041, Note_off_c, 0, 55, 121
1, 14041, Note_off_c, 12, 55, 121
1, 14043, Note_off_c, 4, 38, 127
1, 14043, Note_off_c, 13, 38, 127
1, 14044, Note_off_c, 0, 38, 100
1, 14044, Note_off_c, 0, 50, 112
1, 14044, Note_off_c, 12, 50, 112
1, 14046, Note_off_c, 0, 57, 127
1, 14046, Note_off_c, 12, 57, 127
1, 14052, Note_off_c, 3, 57, 127
1, 14052, Note_off_c, 13, 57, 127
1, 14091, Note_on_c, 3, 59, 112
1, 14091, Note_on_c, 13, 59, 112
1, 14099, Note_on_c, 0, 59, 97
1, 14099, Note_on_c, 12, 59, 97
1, 14100, Note_on_c, 0, 50, 72
1, 14100, Note_on_c, 12, 50, 72
1, 14102, Note_on_c, 0, 55, 61
1, 14102, Note_on_c, 12, 55, 61
1, 14112, Note_on_c, 0, 38, 28
1, 14126, Note_off_c, 0, 55, 61
1, 14126, Note_off_c, 12, 55, 61
1, 14131, Note_off_c, 0, 50, 72
1, 14131, Note_off_c, 12, 50, 72
1, 14132, Note_off_c, 0, 38, 28
1, 14134, Note_off_c, 3, 59, 112
1, 14134, Note_off_c, 13, 59, 112
1, 14137, Note_off_c, 0, 59, 97
1, 14137, Note_off_c, 12, 59, 97
1, 14182, Note_on_c, 4, 38, 107
1, 14182, Note_on_c, 13, 38, 107
1, 14187, Note_on_c, 3, 61, 121
1, 14187, Note_on_c, 13, 61, 121
1, 14190, Note_on_c, 0, 61, 92
1, 14190, Note_on_c, 12, 61, 92
1, 14192, Note_on_c, 0, 55, 56
1, 14192, Note_on_c, 12, 55, 56
1, 14195, Note_on_c, 0, 50, 65
1, 14195, Note_on_c, 12, 50, 65
1, 14200, Note_on_c, 0, 38, 56
1, 14208, Note_on_c, 9, 36, 112
1, 14216, Note_off_c, 0, 55, 56
1, 14216, Note_off_c, 4, 38, 107
1, 14216, Note_off_c, 12, 55, 56
1, 14216, Note_off_c, 13, 38, 107
1, 14222, Note_off_c, 9, 36, 112
1, 14227, Note_off_c, 0, 38, 56
1, 14227, Note_off_c, 0, 50, 65
1, 14227, Note_off_c, 3, 61, 121
1, 14227, Note_off_c, 12, 50, 65
1, 14227, Note_off_c, 13, 61, 121
1, 14230, Note_off_c, 0, 61, 92
1, 14230, Note_off_c, 12, 61, 92
1, 14281, Note_on_c, 0, 61, 111
1, 14281, Note_on_c, 12, 61, 111
1, 14286, Note_on_c, 0, 50, 73
1, 14286, Note_on_c, 12, 50, 73
1, 14288, Note_on_c, 0, 38, 63
1, 14288, Note_on_c, 3, 61, 124
1, 14288, Note_on_c, 13, 61, 124
1, 14291, Note_on_c, 0, 55, 91
1, 14291, Note_on_c, 12, 55, 91
1, 14323, Note_off_c, 0, 50, 73
1, 14323, Note_off_c, 12, 50, 73
1, 14324, Note_off_c, 0, 38, 63
1, 14360, Note_on_c, 4, 38, 104
1, 14360, Note_on_c, 13, 38, 104
1, 14377, Note_on_c, 0, 50, 65
1, 14377, Note_on_c, 12, 50, 65
1, 14380, Note_on_c, 0, 38, 59
1, 14396, Note_off_c, 0, 55, 91
1, 14396, Note_off_c, 12, 55, 91
1, 14400, Note_on_c, 9, 36, 112
1, 14408, Note_off_c, 4, 38, 104
1, 14408, Note_off_c, 13, 38, 104
1, 14409, Note_off_c, 9, 36, 112
1, 14412, Note_off_c, 0, 38, 59
1, 14414, Note_off_c, 0, 50, 65
1, 14414, Note_off_c, 12, 50, 65
1, 14422, Note_off_c, 0, 61, 111
1, 14422, Note_off_c, 12, 61, 111
1, 14441, Note_off_c, 3, 61, 124
1, 14441, Note_off_c, 13, 61, 124
1, 14473, Note_on_c, 0, 50, 66
1, 14473, Note_on_c, 12, 50, 66
1, 14476, Note_on_c, 3, 59, 116
1, 14476, Note_on_c, 13, 59, 116
1, 14478, Note_on_c, 0, 38, 57
1, 14480, Note_on_c, 0, 59, 84
1, 14480, Note_on_c, 12, 59, 84
1, 14507, Note_off_c, 0, 38, 57
1, 14510, Note_off_c, 0, 50, 66
1, 14510, Note_off_c, 12, 50, 66
1, 14513, Note_off_c, 3, 59, 116
1, 14513, Note_off_c, 13, 59, 116
1, 14521, Note_off_c, 0, 59, 84
1, 14521, Note_off_c, 12, 59, 84
1, 14561, Note_on_c, 4, 38, 119
1, 14561, Note_on_c, 13, 38, 119
1, 14569, Note_on_c, 0, 50, 65
1, 14569, Note_on_c, 3, 57, 122
1, 14569, Note_on_c, 12, 50, 65
1, 14569, Note_on_c, 13, 57, 122
1, 14571, Note_on_c, 0, 38, 53
1, 14572, Note_on_c, 0, 55, 76
1, 14572, Note_on_c, 12, 55, 76
1, 14574, Note_on_c, 0, 57, 89
1, 14574, Note_on_c, 12, 57, 89
1, 14592, Note_on_c, 9, 36, 112
1, 14596, Note_off_c, 4, 38, 119
1, 14596, Note_off_c, 13, 38, 119
1, 14603, Note_off_c, 0, 38, 53
1, 14604, Note_off_c, 0, 50, 65
1, 14604, Note_off_c, 12, 50, 65
1, 14606, Note_off_c, 3, 57, 122
1, 14606, Note_off_c, 13, 57, 122
1, 14608, Note_off_c, 0, 55, 76
1, 14608, Note_off_c, 12, 55, 76
1, 14609, Note_off_c, 0, 57, 89
1, 14609, Note_off_c, 12, 57, 89
1, 14609, Note_off_c, 9, 36, 112
1, 14659, Note_on_c, 0, 57, 117
1, 14659, Note_on_c, 12, 57, 117
1, 14665, Note_on_c, 0, 55, 88
1, 14665, Note_on_c, 12, 55, 88
1, 14670, Note_on_c, 3, 57, 104
1, 14670, Note_on_c, 13, 57, 104
1, 14676, Note_on_c, 0, 50, 77
1, 14676, Note_on_c, 12, 50, 77
1, 14681, Note_on_c, 0, 38, 63
1, 14707, Note_off_c, 0, 38, 63
1, 14715, Note_off_c, 0, 50, 77
1, 14715, Note_off_c, 12, 50, 77
1, 14745, Note_on_c, 4, 38, 124
1, 14745, Note_on_c, 13, 38, 124
1, 14769, Note_on_c, 0, 50, 92
1, 14769, Note_on_c, 12, 50, 92
1, 14774, Note_on_c, 0, 38, 78
1, 14784, Note_on_c, 9, 36, 107
1, 14803, Note_off_c, 9, 36, 107
1, 14812, Note_off_c, 0, 50, 92
1, 14812, Note_off_c, 12, 50, 92
1, 14814, Note_off_c, 0, 38, 78
1, 14814, Note_off_c, 4, 38, 124
1, 14814, Note_off_c, 13, 38, 124
1, 14867, Note_on_c, 0, 50, 84
1, 14867, Note_on_c, 12, 50, 84
1, 14868, Note_on_c, 0, 38, 69
1, 14872, Note_on_c, 1, 69, 101
1, 14872, Note_on_c, 14, 69, 101
1, 14873, Note_on_c, 1, 62, 93
1, 14873, Note_on_c, 14, 62, 93
1, 14880, Note_on_c, 9, 42, 107
1, 14900, Note_off_c, 1, 62, 93
1, 14900, Note_off_c, 14, 62, 93
1, 14902, Note_off_c, 1, 69, 101
1, 14902, Note_off_c, 14, 69, 101
1, 14904, Note_off_c, 0, 50, 84
1, 14904, Note_off_c, 12, 50, 84
1, 14907, Note_off_c, 0, 38, 69
1, 14928, Note_off_c, 9, 42, 107
1, 14932, Note_on_c, 4, 38, 109
1, 14932, Note_on_c, 13, 38, 109
1, 14963, Note_on_c, 1, 69, 101
1, 14963, Note_on_c, 14, 69, 101
1, 14964, Note_on_c, 1, 62, 86
1, 14964, Note_on_c, 14, 62, 86
1, 14969, Note_on_c, 0, 50, 88
1, 14969, Note_on_c, 12, 50, 88
1, 14972, Note_on_c, 0, 38, 73
1, 14976, Note_off_c, 9, 42, 102
1, 14976, Note_on_c, 9, 42, 102
1, 14976, Note_on_c, 9, 36, 92
1, 14976, Note_on_c, 9, 42, 107
1, 14984, Note_off_c, 4, 38, 109
1, 14984, Note_off_c, 13, 38, 109
1, 14998, Note_off_c, 1, 62, 86
1, 14998, Note_off_c, 1, 69, 101
1, 14998, Note_off_c, 14, 62, 86
1, 14998, Note_off_c, 14, 69, 101
1, 15003, Note_off_c, 0, 38, 73
1, 15003, Note_off_c, 0, 50, 88
1, 15003, Note_off_c, 12, 50, 88
1, 15024, Note_off_c, 9, 42, 107
1, 15024, Note_off_c, 9, 36, 92
1, 15065, Note_on_c, 0, 50, 61
1, 15065, Note_on_c, 1, 71, 112
1, 15065, Note_on_c, 12, 50, 61
1, 15065, Note_on_c, 14, 71, 112
1, 15067, Note_on_c, 1, 67, 97
1, 15067, Note_on_c, 14, 67, 97
1, 15070, Note_on_c, 0, 38, 43
1, 15072, Note_on_c, 9, 42, 107
1, 15086, Note_off_c, 1, 67, 97
1, 15086, Note_off_c, 1, 71, 112
1, 15086, Note_off_c, 14, 67, 97
1, 15086, Note_off_c, 14, 71, 112
1, 15096, Note_off_c, 0, 50, 61
1, 15096, Note_off_c, 12, 50, 61
1, 15099, Note_off_c, 0, 38, 43
1, 15120, Note_off_c, 9, 42, 107
1, 15139, Note_on_c, 4, 38, 119
1, 15139, Note_on_c, 13, 38, 119
1, 15161, Note_on_c, 1, 67, 114
1, 15161, Note_on_c, 14, 67, 114
1, 15163, Note_on_c, 0, 50, 88
1, 15163, Note_on_c, 1, 71, 116
1, 15163, Note_on_c, 12, 50, 88
1, 15163, Note_on_c, 14, 71, 116
1, 15166, Note_on_c, 0, 38, 70
1, 15168, Note_on_c, 9, 42, 80
1, 15168, Note_on_c, 9, 36, 102
1, 15184, Note_off_c, 4, 38, 119
1, 15184, Note_off_c, 13, 38, 119
1, 15200, Note_off_c, 1, 71, 116
1, 15200, Note_off_c, 1, 67, 114
1, 15200, Note_off_c, 14, 71, 116
1, 15200, Note_off_c, 14, 67, 114
1, 15201, Note_off_c, 0, 38, 70
1, 15203, Note_off_c, 0, 50, 88
1, 15203, Note_off_c, 12, 50, 88
1, 15216, Note_off_c, 9, 36, 102
1, 15216, Note_off_c, 9, 42, 80
1, 15260, Note_on_c, 1, 69, 111
1, 15260, Note_on_c, 14, 69, 111
1, 15262, Note_on_c, 1, 62, 107
1, 15262, Note_off_c, 3, 57, 104
1, 15262, Note_off_c, 13, 57, 104
1, 15262, Note_on_c, 14, 62, 107
1, 15264, Note_on_c, 0, 38, 49
1, 15264, Note_on_c, 9, 42, 102
1, 15265, Note_on_c, 0, 50, 49
1, 15265, Note_on_c, 12, 50, 49
1, 15284, Note_off_c, 1, 69, 111
1, 15284, Note_off_c, 14, 69, 111
1, 15288, Note_off_c, 1, 62, 107
1, 15288, Note_off_c, 14, 62, 107
1, 15291, Note_off_c, 0, 50, 49
1, 15291, Note_off_c, 12, 50, 49
1, 15296, Note_off_c, 0, 38, 49
1, 15312, Note_off_c, 9, 42, 102
1, 15340, Note_on_c, 4, 38, 122
1, 15340, Note_on_c, 13, 38, 122
1, 15355, Note_on_c, 1, 69, 116
1, 15355, Note_on_c, 14, 69, 116
1, 15360, Note_on_c, 1, 62, 101
1, 15360, Note_on_c, 14, 62, 101
1, 15360, Note_on_c, 9, 42, 112
1, 15360, Note_on_c, 9, 36, 97
1, 15361, Note_on_c, 0, 50, 88
1, 15361, Note_on_c, 12, 50, 88
1, 15363, Note_on_c, 0, 38, 70
1, 15374, Note_off_c, 4, 38, 122
1, 15374, Note_off_c, 13, 38, 122
1, 15377, Note_off_c, 1, 62, 101
1, 15377, Note_off_c, 14, 62, 101
1, 15385, Note_off_c, 1, 69, 116
1, 15385, Note_off_c, 14, 69, 116
1, 15401, Note_off_c, 0, 38, 70
1, 15403, Note_off_c, 0, 50, 88
1, 15403, Note_off_c, 12, 50, 88
1, 15408, Note_off_c, 9, 36, 97
1, 15408, Note_off_c, 9, 42, 112
1, 15414, Note_off_c, 0, 55, 88
1, 15414, Note_off_c, 12, 55, 88
1, 15438, Note_off_c, 0, 57, 117
1, 15438, Note_off_c, 12, 57, 117
1, 15464, Note_on_c, 0, 38, 43
1, 15464, Note_on_c, 0, 50, 57
1, 15464, Note_on_c, 12, 50, 57
1, 15489, Note_off_c, 0, 50, 57
1, 15489, Note_off_c, 12, 50, 57
1, 15494, Note_off_c, 0, 38, 43
1, 15534, Note_on_c, 3, 57, 127
1, 15534, Note_on_c, 13, 57, 127
1, 15537, Note_on_c, 4, 38, 127
1, 15537, Note_on_c, 13, 38, 127
1, 15552, Note_on_c, 0, 57, 127
1, 15552, Note_on_c, 12, 57, 127
1, 15552, Note_on_c, 9, 36, 107
1, 15555, Note_on_c, 0, 55, 121
1, 15555, Note_on_c, 12, 55, 121
1, 15558, Note_on_c, 0, 50, 100
1, 15558, Note_on_c, 12, 50, 100
1, 15561, Note_on_c, 0, 38, 86
1, 15574, Note_off_c, 9, 36, 107
1, 15588, Note_off_c, 3, 57, 127
1, 15588, Note_off_c, 13, 57, 127
1, 15592, Note_off_c, 4, 38, 127
1, 15592, Note_off_c, 13, 38, 127
1, 15596, Note_off_c, 0, 55, 121
1, 15596, Note_off_c, 12, 55, 121
1, 15598, Note_off_c, 0, 38, 86
1, 15603, Note_off_c, 0, 50, 100
1, 15603, Note_off_c, 12, 50, 100
1, 15619, Note_off_c, 0, 57, 127
1, 15619, Note_off_c, 12, 57, 127
1, 15632, Note_on_c, 3, 59, 122
1, 15632, Note_on_c, 13, 59, 122
1, 15651, Note_on_c, 0, 59, 89
1, 15651, Note_on_c, 12, 59, 89
1, 15654, Note_on_c, 0, 55, 53
1, 15654, Note_on_c, 12, 55, 53
1, 15662, Note_on_c, 0, 50, 66
1, 15662, Note_on_c, 12, 50, 66
1, 15668, Note_on_c, 0, 38, 56
1, 15672, Note_off_c, 3, 59, 122
1, 15672, Note_off_c, 13, 59, 122
1, 15680, Note_off_c, 0, 55, 53
1, 15680, Note_off_c, 12, 55, 53
1, 15691, Note_off_c, 0, 38, 56
1, 15692, Note_off_c, 0, 59, 89
1, 15692, Note_off_c, 12, 59, 89
1, 15699, Note_off_c, 0, 50, 66
1, 15699, Note_off_c, 12, 50, 66
1, 15726, Note_on_c, 3, 61, 127
1, 15726, Note_on_c, 4, 38, 116
1, 15726, Note_on_c, 13, 38, 116
1, 15726, Note_on_c, 13, 61, 127
1, 15744, Note_on_c, 9, 36, 112
1, 15750, Note_on_c, 0, 61, 103
1, 15750, Note_on_c, 0, 55, 77
1, 15750, Note_on_c, 12, 61, 103
1, 15750, Note_on_c, 12, 55, 77
1, 15760, Note_off_c, 9, 36, 112
1, 15763, Note_on_c, 0, 38, 56
1, 15763, Note_on_c, 0, 50, 56
1, 15763, Note_on_c, 12, 50, 56
1, 15771, Note_off_c, 3, 61, 127
1, 15771, Note_off_c, 13, 61, 127
1, 15772, Note_off_c, 4, 38, 116
1, 15772, Note_off_c, 13, 38, 116
1, 15776, Note_off_c, 0, 55, 77
1, 15776, Note_off_c, 12, 55, 77
1, 15787, Note_off_c, 0, 38, 56
1, 15787, Note_off_c, 0, 61, 103
1, 15787, Note_off_c, 12, 61, 103
1, 15790, Note_off_c, 0, 50, 56
1, 15790, Note_off_c, 12, 50, 56
1, 15825, Note_on_c, 3, 61, 127
1, 15825, Note_on_c, 13, 61, 127
1, 15843, Note_on_c, 0, 61, 121
1, 15843, Note_on_c, 12, 61, 121
1, 15849, Note_on_c, 0, 55, 111
1, 15849, Note_on_c, 12, 55, 111
1, 15851, Note_on_c, 0, 50, 88
1, 15851, Note_on_c, 12, 50, 88
1, 15854, Note_on_c, 0, 38, 74
1, 15891, Note_off_c, 0, 50, 88
1, 15891, Note_off_c, 12, 50, 88
1, 15892, Note_off_c, 0, 38, 74
1, 15905, Note_on_c, 4, 38, 114
1, 15905, Note_on_c, 13, 38, 114
1, 15936, Note_on_c, 9, 36, 112
1, 15953, Note_on_c, 0, 50, 65
1, 15953, Note_on_c, 12, 50, 65
1, 15955, Note_on_c, 0, 38, 47
1, 15956, Note_off_c, 9, 36, 112
1, 15958, Note_off_c, 0, 55, 111
1, 15958, Note_off_c, 12, 55, 111
1, 15960, Note_off_c, 4, 38, 114
1, 15960, Note_off_c, 13, 38, 114
1, 15980, Note_off_c, 0, 50, 65
1, 15980, Note_off_c, 0, 61, 121
1, 15980, Note_off_c, 12, 50, 65
1, 15980, Note_off_c, 12, 61, 121
1, 15985, Note_off_c, 0, 38, 47
1, 15985, Note_off_c, 3, 61, 127
1, 15985, Note_off_c, 13, 61, 127
1, 16030, Note_on_c, 3, 59, 121
1, 16030, Note_on_c, 13, 59, 121
1, 16036, Note_on_c, 0, 59, 98
1, 16036, Note_on_c, 12, 59, 98
1, 16043, Note_on_c, 0, 55, 76
1, 16043, Note_on_c, 12, 55, 76
1, 16048, Note_on_c, 0, 50, 61
1, 16048, Note_on_c, 12, 50, 61
1, 16052, Note_on_c, 0, 38, 47
1, 16068, Note_off_c, 0, 55, 76
1, 16068, Note_off_c, 3, 59, 121
1, 16068, Note_off_c, 12, 55, 76
1, 16068, Note_off_c, 13, 59, 121
1, 16073, Note_off_c, 0, 59, 98
1, 16073, Note_off_c, 12, 59, 98
1, 16075, Note_off_c, 0, 50, 61
1, 16075, Note_off_c, 12, 50, 61
1, 16076, Note_off_c, 0, 38, 47
1, 16096, Note_on_c, 4, 38, 116
1, 16096, Note_on_c, 13, 38, 116
1, 16121, Note_on_c, 3, 57, 126
1, 16121, Note_on_c, 13, 57, 126
1, 16126, Note_on_c, 0, 57, 106
1, 16126, Note_on_c, 12, 57, 106
1, 16128, Note_on_c, 0, 55, 86
1, 16128, Note_on_c, 12, 55, 86
1, 16128, Note_on_c, 9, 36, 107
1, 16134, Note_off_c, 4, 38, 116
1, 16134, Note_off_c, 13, 38, 116
1, 16140, Note_on_c, 0, 50, 68
1, 16140, Note_on_c, 12, 50, 68
1, 16142, Note_on_c, 0, 38, 61
1, 16158, Note_off_c, 0, 55, 86
1, 16158, Note_off_c, 12, 55, 86
1, 16160, Note_off_c, 9, 36, 107
1, 16163, Note_off_c, 3, 57, 126
1, 16163, Note_off_c, 13, 57, 126
1, 16164, Note_off_c, 0, 57, 106
1, 16164, Note_off_c, 12, 57, 106
1, 16166, Note_off_c, 0, 38, 61
1, 16166, Note_off_c, 0, 50, 68
1, 16166, Note_off_c, 12, 50, 68
1, 16220, Note_on_c, 3, 57, 117
1, 16220, Note_on_c, 13, 57, 117
1, 16227, Note_on_c, 0, 57, 126
1, 16227, Note_on_c, 0, 55, 114
1, 16227, Note_on_c, 12, 57, 126
1, 16227, Note_on_c, 12, 55, 114
1, 16232, Note_on_c, 0, 50, 100
1, 16232, Note_on_c, 12, 50, 100
1, 16235, Note_on_c, 0, 38, 81
1, 16272, Note_off_c, 0, 50, 100
1, 16272, Note_off_c, 12, 50, 100
1, 16275, Note_off_c, 0, 38, 81
1, 16294, Note_on_c, 4, 38, 127
1, 16294, Note_on_c, 13, 38, 127
1, 16320, Note_on_c, 9, 36, 107
1, 16326, Note_on_c, 0, 50, 85
1, 16326, Note_on_c, 12, 50, 85
1, 16331, Note_on_c, 0, 38, 65
1, 16352, Note_off_c, 9, 36, 107
1, 16363, Note_off_c, 0, 38, 65
1, 16364, Note_off_c, 0, 50, 85
1, 16364, Note_off_c, 12, 50, 85
1, 16395, Note_off_c, 4, 38, 127
1, 16395, Note_off_c, 13, 38, 127
1, 16416, Note_on_c, 9, 42, 107
1, 16417, Note_on_c, 1, 69, 107
1, 16417, Note_on_c, 14, 69, 107
1, 16419, Note_on_c, 0, 50, 88
1, 16419, Note_on_c, 1, 62, 104
1, 16419, Note_on_c, 12, 50, 88
1, 16419, Note_on_c, 14, 62, 104
1, 16424, Note_on_c, 0, 38, 70
1, 16432, Note_off_c, 9, 42, 107
1, 16443, Note_off_c, 1, 62, 104
1, 16443, Note_off_c, 14, 62, 104
1, 16446, Note_off_c, 1, 69, 107
1, 16446, Note_off_c, 14, 69, 107
1, 16449, Note_off_c, 0, 38, 70
1, 16457, Note_off_c, 0, 50, 88
1, 16457, Note_off_c, 12, 50, 88
1, 16504, Note_on_c, 0, 50, 92
1, 16504, Note_on_c, 4, 38, 121
1, 16504, Note_on_c, 12, 50, 92
1, 16504, Note_on_c, 13, 38, 121
1, 16507, Note_on_c, 0, 38, 78
1, 16512, Note_on_c, 9, 42, 97
1, 16512, Note_on_c, 9, 36, 92
1, 16513, Note_on_c, 1, 62, 109
1, 16513, Note_on_c, 14, 62, 109
1, 16516, Note_on_c, 1, 69, 109
1, 16516, Note_on_c, 14, 69, 109
1, 16528, Note_off_c, 9, 42, 97
1, 16539, Note_off_c, 9, 36, 92
1, 16544, Note_off_c, 0, 38, 78
1, 16545, Note_off_c, 1, 62, 109
1, 16545, Note_off_c, 4, 38, 121
1, 16545, Note_off_c, 13, 38, 121
1, 16545, Note_off_c, 14, 62, 109
1, 16547, Note_off_c, 0, 50, 92
1, 16547, Note_off_c, 12, 50, 92
1, 16548, Note_off_c, 1, 69, 109
1, 16548, Note_off_c, 14, 69, 109
1, 16579, Note_off_c, 0, 55, 114
1, 16579, Note_off_c, 12, 55, 114
1, 16606, Note_on_c, 0, 50, 104
1, 16606, Note_on_c, 12, 50, 104
1, 16608, Note_on_c, 9, 42, 97
1, 16609, Note_on_c, 1, 64, 116
1, 16609, Note_on_c, 1, 71, 119
1, 16609, Note_on_c, 14, 64, 116
1, 16609, Note_on_c, 14, 71, 119
1, 16611, Note_on_c, 0, 38, 93
1, 16616, Note_on_c, 0, 52, 127
1, 16616, Note_on_c, 12, 52, 127
1, 16619, Note_off_c, 9, 42, 97
1, 16630, Note_off_c, 1, 64, 116
1, 16630, Note_off_c, 14, 64, 116
1, 16638, Note_off_c, 1, 71, 119
1, 16638, Note_off_c, 14, 71, 119
1, 16646, Note_off_c, 0, 38, 93
1, 16646, Note_off_c, 0, 50, 104
1, 16646, Note_off_c, 12, 50, 104
1, 16692, Note_on_c, 4, 38, 114
1, 16692, Note_on_c, 13, 38, 114
1, 16696, Note_on_c, 1, 64, 121
1, 16696, Note_on_c, 14, 64, 121
1, 16697, Note_on_c, 1, 71, 121
1, 16697, Note_on_c, 14, 71, 121
1, 16699, Note_on_c, 0, 50, 81
1, 16699, Note_on_c, 12, 50, 81
1, 16700, Note_on_c, 0, 38, 68
1, 16704, Note_on_c, 9, 42, 107
1, 16704, Note_on_c, 9, 36, 92
1, 16726, Note_off_c, 9, 42, 107
1, 16728, Note_off_c, 0, 38, 68
1, 16732, Note_off_c, 1, 64, 121
1, 16732, Note_off_c, 14, 64, 121
1, 16734, Note_off_c, 1, 71, 121
1, 16734, Note_off_c, 14, 71, 121
1, 16736, Note_off_c, 9, 36, 92
1, 16739, Note_off_c, 0, 50, 81
1, 16739, Note_off_c, 4, 38, 114
1, 16739, Note_off_c, 12, 50, 81
1, 16739, Note_off_c, 13, 38, 114
1, 16790, Note_on_c, 1, 64, 121
1, 16790, Note_on_c, 1, 69, 119
1, 16790, Note_on_c, 14, 64, 121
1, 16790, Note_on_c, 14, 69, 119
1, 16795, Note_on_c, 0, 38, 63
1, 16800, Note_on_c, 9, 42, 102
1, 16811, Note_off_c, 1, 64, 121
1, 16811, Note_off_c, 14, 64, 121
1, 16812, Note_off_c, 9, 42, 102
1, 16814, Note_off_c, 1, 69, 119
1, 16814, Note_off_c, 14, 69, 119
1, 16822, Note_off_c, 0, 38, 63
1, 16833, Note_off_c, 3, 57, 117
1, 16833, Note_off_c, 13, 57, 117
1, 16870, Note_on_c, 4, 38, 117
1, 16870, Note_on_c, 13, 38, 117
1, 16889, Note_on_c, 0, 50, 103
1, 16889, Note_on_c, 12, 50, 103
1, 16892, Note_on_c, 0, 38, 86
1, 16896, Note_on_c, 9, 42, 102
1, 16896, Note_on_c, 9, 36, 97
1, 16908, Note_off_c, 4, 38, 117
1, 16908, Note_off_c, 13, 38, 117
1, 16913, Note_off_c, 9, 42, 102
1, 16921, Note_off_c, 9, 36, 97
1, 16929, Note_off_c, 0, 50, 103
1, 16929, Note_off_c, 12, 50, 103
1, 16932, Note_off_c, 0, 38, 86
1, 16974, Note_off_c, 0, 57, 126
1, 16974, Note_on_c, 0, 57, 126
1, 16974, Note_off_c, 12, 57, 126
1, 16974, Note_on_c, 12, 57, 126
1, 16984, Note_off_c, 0, 52, 127
1, 16984, Note_off_c, 12, 52, 127
1, 16993, Note_on_c, 0, 50, 85
1, 16993, Note_on_c, 12, 50, 85
1, 16995, Note_on_c, 0, 38, 57
1, 17014, Note_off_c, 0, 57, 126
1, 17014, Note_off_c, 12, 57, 126
1, 17016, Note_off_c, 0, 38, 57
1, 17022, Note_off_c, 0, 50, 85
1, 17022, Note_off_c, 12, 50, 85
1, 17062, Note_on_c, 4, 38, 127
1, 17062, Note_on_c, 13, 38, 127
1, 17076, Note_on_c, 4, 39, 86
1, 17083, Note_on_c, 0, 57, 127
1, 17083, Note_on_c, 0, 55, 127
1, 17083, Note_on_c, 3, 69, 127
1, 17083, Note_on_c, 12, 57, 127
1, 17083, Note_on_c, 12, 55, 127
1, 17083, Note_on_c, 13, 69, 127
1, 17088, Note_on_c, 9, 36, 107
1, 17092, Note_on_c, 0, 50, 111
1, 17092, Note_on_c, 12, 50, 111
1, 17094, Note_on_c, 0, 38, 98
1, 17104, Note_off_c, 4, 39, 86
1, 17120, Note_off_c, 9, 36, 107
1, 17132, Note_off_c, 0, 38, 98
1, 17132, Note_off_c, 0, 50, 111
1, 17132, Note_off_c, 3, 69, 127
1, 17132, Note_off_c, 12, 50, 111
1, 17132, Note_off_c, 13, 69, 127
1, 17134, Note_off_c, 0, 55, 127
1, 17134, Note_off_c, 12, 55, 127
1, 17145, Note_off_c, 4, 38, 127
1, 17145, Note_off_c, 13, 38, 127
1, 17164, Note_off_c, 0, 57, 127
1, 17164, Note_off_c, 12, 57, 127
1, 17174, Note_on_c, 3, 71, 122
1, 17174, Note_on_c, 13, 71, 122
1, 17182, Note_on_c, 0, 59, 88
1, 17182, Note_on_c, 12, 59, 88
1, 17187, Note_on_c, 0, 55, 32
1, 17187, Note_on_c, 12, 55, 32
1, 17203, Note_on_c, 0, 50, 51
1, 17203, Note_on_c, 12, 50, 51
1, 17208, Note_on_c, 0, 38, 32
1, 17211, Note_off_c, 3, 71, 122
1, 17211, Note_off_c, 13, 71, 122
1, 17212, Note_off_c, 0, 55, 32
1, 17212, Note_off_c, 12, 55, 32
1, 17222, Note_off_c, 0, 59, 88
1, 17222, Note_off_c, 12, 59, 88
1, 17233, Note_off_c, 0, 38, 32
1, 17241, Note_off_c, 0, 50, 51
1, 17241, Note_off_c, 12, 50, 51
1, 17260, Note_on_c, 3, 73, 126
1, 17260, Note_on_c, 13, 73, 126
1, 17264, Note_on_c, 4, 38, 121
1, 17264, Note_on_c, 13, 38, 121
1, 17280, Note_on_c, 0, 55, 78
1, 17280, Note_on_c, 0, 61, 104
1, 17280, Note_on_c, 12, 55, 78
1, 17280, Note_on_c, 12, 61, 104
1, 17280, Note_on_c, 9, 36, 112
1, 17291, Note_on_c, 0, 38, 51
1, 17291, Note_on_c, 0, 50, 49
1, 17291, Note_on_c, 12, 50, 49
1, 17302, Note_off_c, 3, 73, 126
1, 17302, Note_off_c, 13, 73, 126
1, 17308, Note_off_c, 0, 55, 78
1, 17308, Note_off_c, 12, 55, 78
1, 17313, Note_off_c, 0, 38, 51
1, 17315, Note_off_c, 0, 50, 49
1, 17315, Note_off_c, 12, 50, 49
1, 17316, Note_off_c, 0, 61, 104
1, 17316, Note_off_c, 12, 61, 104
1, 17321, Note_off_c, 9, 36, 112
1, 17328, Note_off_c, 4, 38, 121
1, 17328, Note_off_c, 13, 38, 121
1, 17358, Note_on_c, 3, 73, 127
1, 17358, Note_on_c, 13, 73, 127
1, 17379, Note_on_c, 0, 61, 124
1, 17379, Note_on_c, 12, 61, 124
1, 17382, Note_on_c, 0, 55, 116
1, 17382, Note_on_c, 0, 50, 104
1, 17382, Note_on_c, 12, 55, 116
1, 17382, Note_on_c, 12, 50, 104
1, 17384, Note_on_c, 0, 38, 91
1, 17422, Note_off_c, 0, 38, 91
1, 17422, Note_off_c, 0, 50, 104
1, 17422, Note_off_c, 12, 50, 104
1, 17459, Note_on_c, 4, 38, 119
1, 17459, Note_on_c, 13, 38, 119
1, 17472, Note_on_c, 9, 36, 107
1, 17476, Note_on_c, 0, 38, 74
1, 17478, Note_on_c, 0, 50, 73
1, 17478, Note_on_c, 12, 50, 73
1, 17496, Note_off_c, 0, 55, 116
1, 17496, Note_off_c, 12, 55, 116
1, 17500, Note_off_c, 0, 50, 73
1, 17500, Note_off_c, 12, 50, 73
1, 17508, Note_off_c, 0, 38, 74
1, 17515, Note_off_c, 9, 36, 107
1, 17520, Note_off_c, 4, 38, 119
1, 17520, Note_off_c, 13, 38, 119
1, 17521, Note_off_c, 0, 61, 124
1, 17521, Note_off_c, 12, 61, 124
1, 17534, Note_off_c, 3, 73, 127
1, 17534, Note_off_c, 13, 73, 127
1, 17563, Note_on_c, 0, 50, 81
1, 17563, Note_on_c, 3, 71, 114
1, 17563, Note_on_c, 12, 50, 81
1, 17563, Note_on_c, 13, 71, 114
1, 17564, Note_on_c, 0, 38, 70
1, 17566, Note_on_c, 0, 59, 85
1, 17566, Note_on_c, 12, 59, 85
1, 17574, Note_on_c, 0, 55, 65
1, 17574, Note_on_c, 12, 55, 65
1, 17598, Note_off_c, 0, 38, 70
1, 17600, Note_off_c, 0, 55, 65
1, 17600, Note_off_c, 12, 55, 65
1, 17603, Note_off_c, 0, 50, 81
1, 17603, Note_off_c, 12, 50, 81
1, 17606, Note_off_c, 3, 71, 114
1, 17606, Note_off_c, 13, 71, 114
1, 17619, Note_off_c, 0, 59, 85
1, 17619, Note_off_c, 12, 59, 85
1, 17646, Note_on_c, 3, 69, 124
1, 17646, Note_on_c, 13, 69, 124
1, 17654, Note_on_c, 4, 38, 121
1, 17654, Note_on_c, 13, 38, 121
1, 17657, Note_on_c, 0, 57, 101
1, 17657, Note_on_c, 12, 57, 101
1, 17660, Note_on_c, 0, 50, 89
1, 17660, Note_on_c, 12, 50, 89
1, 17662, Note_on_c, 0, 55, 85
1, 17662, Note_on_c, 12, 55, 85
1, 17664, Note_on_c, 9, 36, 97
1, 17668, Note_on_c, 0, 38, 83
1, 17689, Note_off_c, 9, 36, 97
1, 17699, Note_off_c, 0, 50, 89
1, 17699, Note_off_c, 12, 50, 89
1, 17700, Note_off_c, 0, 55, 85
1, 17700, Note_off_c, 12, 55, 85
1, 17704, Note_off_c, 0, 38, 83
1, 17712, Note_off_c, 4, 38, 121
1, 17712, Note_off_c, 13, 38, 121
1, 17715, Note_off_c, 3, 69, 124
1, 17715, Note_off_c, 13, 69, 124
1, 17721, Note_off_c, 0, 57, 101
1, 17721, Note_off_c, 12, 57, 101
1, 17742, Note_on_c, 4, 35, 127
1, 17742, Note_on_c, 4, 47, 127
1, 17742, Note_on_c, 13, 35, 127
1, 17750, Note_on_c, 3, 74, 127
1, 17750, Note_on_c, 13, 74, 127
1, 17752, Note_on_c, 0, 62, 103
1, 17752, Note_on_c, 2, 59, 124
1, 17752, Note_on_c, 12, 62, 103
1, 17752, Note_on_c, 14, 59, 124
1, 17758, Note_on_c, 0, 54, 117
1, 17758, Note_on_c, 2, 47, 121
1, 17758, Note_on_c, 12, 54, 117
1, 17758, Note_on_c, 14, 47, 121
1, 17760, Note_on_c, 0, 59, 97
1, 17760, Note_on_c, 0, 47, 117
1, 17760, Note_on_c, 12, 47, 117
1, 17760, Note_on_c, 9, 36, 107
1, 17760, Note_on_c, 9, 51, 122
1, 17761, Note_on_c, 1, 62, 119
1, 17761, Note_on_c, 14, 62, 119
1, 17763, Note_on_c, 0, 35, 117
1, 17764, Note_on_c, 1, 78, 127
1, 17764, Note_on_c, 14, 78, 127
1, 17774, Note_on_c, 1, 60, 88
1, 17774, Note_on_c, 14, 60, 88
1, 17800, Note_off_c, 1, 60, 88
1, 17800, Note_off_c, 14, 60, 88
1, 17800, Note_off_c, 9, 51, 122
1, 17804, Note_off_c, 9, 36, 107
1, 17859, Note_off_c, 0, 59, 97
1, 17864, Note_off_c, 0, 54, 117
1, 17864, Note_off_c, 12, 54, 117
1, 17870, Note_off_c, 0, 47, 117
1, 17870, Note_off_c, 12, 47, 117
1, 17872, Note_off_c, 2, 47, 121
1, 17872, Note_off_c, 14, 47, 121
1, 17881, Note_off_c, 0, 62, 103
1, 17881, Note_off_c, 12, 62, 103
1, 17883, Note_off_c, 2, 59, 124
1, 17883, Note_off_c, 14, 59, 124
1, 17888, Note_off_c, 0, 35, 117
1, 17889, Note_off_c, 3, 74, 127
1, 17889, Note_off_c, 13, 74, 127
1, 17894, Note_off_c, 4, 35, 127
1, 17894, Note_off_c, 13, 35, 127
1, 17897, Note_off_c, 4, 47, 127
1, 17902, Note_off_c, 1, 62, 119
1, 17902, Note_off_c, 14, 62, 119
1, 17904, Note_off_c, 1, 78, 127
1, 17904, Note_off_c, 14, 78, 127
1, 17940, Note_on_c, 2, 57, 122
1, 17940, Note_on_c, 14, 57, 122
1, 17942, Note_on_c, 4, 45, 127
1, 17942, Note_on_c, 4, 33, 127
1, 17942, Note_on_c, 13, 33, 127
1, 17944, Note_on_c, 2, 45, 122
1, 17944, Note_on_c, 14, 45, 122
1, 17947, Note_on_c, 0, 64, 127
1, 17947, Note_on_c, 12, 64, 127
1, 17948, Note_on_c, 1, 64, 127
1, 17948, Note_on_c, 3, 76, 127
1, 17948, Note_on_c, 13, 76, 127
1, 17948, Note_on_c, 14, 64, 127
1, 17950, Note_on_c, 0, 61, 122
1, 17950, Note_on_c, 0, 45, 124
1, 17950, Note_on_c, 0, 57, 112
1, 17950, Note_on_c, 1, 69, 122
1, 17950, Note_on_c, 12, 45, 124
1, 17950, Note_on_c, 12, 57, 112
1, 17950, Note_on_c, 14, 69, 122
1, 17952, Note_on_c, 0, 33, 126
1, 17952, Note_on_c, 9, 53, 107
1, 17952, Note_on_c, 9, 38, 112
1, 17969, Note_off_c, 9, 38, 112
1, 17977, Note_off_c, 9, 53, 107
1, 18038, Note_off_c, 0, 45, 124
1, 18038, Note_off_c, 0, 64, 127
1, 18038, Note_off_c, 12, 45, 124
1, 18038, Note_off_c, 12, 64, 127
1, 18067, Note_off_c, 0, 33, 126
1, 18070, Note_off_c, 0, 57, 112
1, 18070, Note_off_c, 12, 57, 112
1, 18083, Note_off_c, 0, 61, 122
1, 18083, Note_off_c, 2, 45, 122
1, 18083, Note_off_c, 14, 45, 122
1, 18089, Note_off_c, 4, 45, 127
1, 18092, Note_off_c, 2, 57, 122
1, 18092, Note_off_c, 3, 76, 127
1, 18092, Note_off_c, 13, 76, 127
1, 18092, Note_off_c, 14, 57, 122
1, 18105, Note_off_c, 4, 33, 127
1, 18105, Note_off_c, 13, 33, 127
1, 18110, Note_off_c, 1, 69, 122
1, 18110, Note_off_c, 1, 64, 127
1, 18110, Note_off_c, 14, 69, 122
1, 18110, Note_off_c, 14, 64, 127
1, 18123, Note_on_c, 4, 38, 127
1, 18123, Note_on_c, 13, 38, 127
1, 18139, Note_on_c, 1, 74, 127
1, 18139, Note_on_c, 2, 38, 126
1, 18139, Note_on_c, 3, 78, 127
1, 18139, Note_on_c, 13, 78, 127
1, 18139, Note_on_c, 14, 74, 127
1, 18139, Note_on_c, 14, 38, 126
1, 18140, Note_on_c, 1, 66, 126
1, 18140, Note_on_c, 14, 66, 126
1, 18142, Note_on_c, 0, 62, 122
1, 18142, Note_on_c, 0, 66, 122
1, 18142, Note_on_c, 0, 57, 126
1, 18142, Note_on_c, 12, 66, 122
1, 18142, Note_on_c, 12, 57, 126
1, 18144, Note_on_c, 2, 50, 127
1, 18144, Note_on_c, 14, 50, 127
1, 18144, Note_on_c, 9, 39, 122
1, 18144, Note_on_c, 9, 51, 122
1, 18145, Note_on_c, 0, 38, 127
1, 18145, Note_on_c, 0, 26, 122
1, 18168, Note_off_c, 9, 51, 122
1, 18171, Note_off_c, 9, 39, 122
1, 18446, Note_off_c, 2, 38, 126
1, 18446, Note_off_c, 14, 38, 126
1, 18456, Note_off_c, 0, 26, 122
1, 18459, Note_off_c, 3, 78, 127
1, 18459, Note_off_c, 13, 78, 127
1, 18460, Note_off_c, 0, 62, 122
1, 18462, Note_off_c, 0, 38, 127
1, 18462, Note_off_c, 1, 66, 126
1, 18462, Note_off_c, 2, 50, 127
1, 18462, Note_off_c, 14, 50, 127
1, 18462, Note_off_c, 14, 66, 126
1, 18465, Note_off_c, 0, 57, 126
1, 18465, Note_off_c, 0, 66, 122
1, 18465, Note_off_c, 12, 57, 126
1, 18465, Note_off_c, 12, 66, 122
1, 18472, Note_off_c, 1, 74, 127
1, 18472, Note_off_c, 14, 74, 127
1, 18550, Note_off_c, 4, 38, 127
1, 18550, Note_off_c, 13, 38, 127
1, 18609, Note_on_c, 4, 52, 127
1, 18614, Note_on_c, 2, 52, 127
1, 18614, Note_on_c, 14, 52, 127
1, 18616, Note_on_c, 4, 40, 127
1, 18616, Note_on_c, 13, 40, 127
1, 18617, Note_on_c, 1, 79, 127
1, 18617, Note_on_c, 14, 79, 127
1, 18624, Note_on_c, 9, 36, 117
1, 18624, Note_on_c, 9, 53, 107
1, 18630, Note_on_c, 3, 79, 127
1, 18630, Note_on_c, 13, 79, 127
1, 18632, Note_on_c, 3, 64, 124
1, 18638, Note_on_c, 0, 52, 126
1, 18638, Note_on_c, 12, 52, 126
1, 18640, Note_on_c, 0, 59, 127
1, 18640, Note_on_c, 0, 67, 124
1, 18640, Note_on_c, 0, 64, 127
1, 18640, Note_on_c, 12, 59, 127
1, 18640, Note_on_c, 12, 67, 124
1, 18641, Note_on_c, 0, 40, 126
1, 18646, Note_off_c, 9, 53, 107
1, 18654, Note_on_c, 0, 63, 51
1, 18659, Note_off_c, 2, 52, 127
1, 18659, Note_off_c, 14, 52, 127
1, 18659, Note_off_c, 9, 36, 117
1, 18662, Note_off_c, 1, 79, 127
1, 18662, Note_off_c, 14, 79, 127
1, 18676, Note_off_c, 0, 63, 51
1, 18704, Note_off_c, 0, 64, 127
1, 18712, Note_off_c, 0, 52, 126
1, 18712, Note_off_c, 3, 64, 124
1, 18712, Note_off_c, 3, 79, 127
1, 18712, Note_off_c, 12, 52, 126
1, 18712, Note_off_c, 13, 79, 127
1, 18715, Note_off_c, 0, 67, 124
1, 18715, Note_off_c, 0, 59, 127
1, 18715, Note_off_c, 12, 67, 124
1, 18715, Note_off_c, 12, 59, 127
1, 18720, Note_off_c, 0, 40, 126
1, 18720, Note_on_c, 2, 52, 127
1, 18720, Note_on_c, 14, 52, 127
1, 18732, Note_on_c, 1, 71, 127
1, 18732, Note_on_c, 14, 71, 127
1, 18742, Note_on_c, 0, 67, 104
1, 18742, Note_on_c, 0, 52, 89
1, 18742, Note_on_c, 12, 67, 104
1, 18742, Note_on_c, 12, 52, 89
1, 18745, Note_on_c, 0, 64, 69
1, 18745, Note_on_c, 0, 40, 101
1, 18747, Note_on_c, 0, 59, 93
1, 18747, Note_on_c, 12, 59, 93
1, 18752, Note_off_c, 4, 40, 127
1, 18752, Note_off_c, 13, 40, 127
1, 18763, Note_off_c, 4, 52, 127
1, 18766, Note_off_c, 1, 71, 127
1, 18766, Note_off_c, 2, 52, 127
1, 18766, Note_off_c, 14, 71, 127
1, 18766, Note_off_c, 14, 52, 127
1, 18784, Note_off_c, 0, 64, 69
1, 18785, Note_off_c, 0, 40, 101
1, 18787, Note_off_c, 0, 59, 93
1, 18787, Note_off_c, 0, 52, 89
1, 18787, Note_off_c, 12, 59, 93
1, 18787, Note_off_c, 12, 52, 89
1, 18792, Note_off_c, 0, 67, 104
1, 18792, Note_off_c, 12, 67, 104
1, 18828, Note_on_c, 1, 64, 127
1, 18828, Note_on_c, 14, 64, 127
1, 18862, Note_off_c, 1, 64, 127
1, 18862, Note_off_c, 14, 64, 127
1, 18904, Note_on_c, 4, 50, 127
1, 18905, Note_on_c, 4, 38, 127
1, 18905, Note_on_c, 13, 38, 127
1, 18910, Note_on_c, 0, 57, 121
1, 18910, Note_on_c, 0, 66, 121
1, 18910, Note_on_c, 12, 57, 121
1, 18910, Note_on_c, 12, 66, 121
1, 18912, Note_on_c, 0, 62, 119
1, 18912, Note_on_c, 9, 51, 122
1, 18912, Note_on_c, 9, 36, 112
1, 18916, Note_on_c, 0, 50, 127
1, 18916, Note_on_c, 12, 50, 127
1, 18918, Note_on_c, 2, 50, 127
1, 18918, Note_on_c, 14, 50, 127
1, 18920, Note_on_c, 0, 38, 124
1, 18920, Note_on_c, 3, 78, 127
1, 18920, Note_on_c, 13, 78, 127
1, 18921, Note_on_c, 3, 62, 127
1, 18931, Note_on_c, 1, 78, 127
1, 18931, Note_on_c, 14, 78, 127
1, 18932, Note_on_c, 0, 39, 78
1, 18950, Note_off_c, 0, 39, 78
1, 18955, Note_off_c, 9, 51, 122
1, 18956, Note_off_c, 9, 36, 112
1, 18966, Note_off_c, 1, 78, 127
1, 18966, Note_off_c, 14, 78, 127
1, 18968, Note_off_c, 0, 57, 121
1, 18968, Note_off_c, 12, 57, 121
1, 18969, Note_off_c, 0, 50, 127
1, 18969, Note_off_c, 12, 50, 127
1, 18971, Note_off_c, 0, 38, 124
1, 18971, Note_off_c, 0, 62, 119
1, 18977, Note_off_c, 0, 66, 121
1, 18977, Note_off_c, 12, 66, 121
1, 18985, Note_off_c, 2, 50, 127
1, 18985, Note_off_c, 14, 50, 127
1, 18987, Note_off_c, 3, 78, 127
1, 18987, Note_off_c, 13, 78, 127
1, 18996, Note_off_c, 3, 62, 127
1, 19011, Note_on_c, 2, 50, 127
1, 19011, Note_on_c, 14, 50, 127
1, 19012, Note_on_c, 0, 57, 66
1, 19012, Note_on_c, 12, 57, 66
1, 19014, Note_on_c, 0, 66, 83
1, 19014, Note_on_c, 12, 66, 83
1, 19016, Note_on_c, 0, 50, 95
1, 19016, Note_on_c, 0, 38, 111
1, 19016, Note_on_c, 0, 62, 72
1, 19016, Note_on_c, 12, 50, 95
1, 19022, Note_on_c, 1, 69, 127
1, 19022, Note_on_c, 14, 69, 127
1, 19051, Note_off_c, 0, 50, 95
1, 19051, Note_off_c, 12, 50, 95
1, 19054, Note_off_c, 0, 62, 72
1, 19054, Note_off_c, 0, 38, 111
1, 19054, Note_off_c, 0, 57, 66
1, 19054, Note_off_c, 2, 50, 127
1, 19054, Note_off_c, 12, 57, 66
1, 19054, Note_off_c, 14, 50, 127
1, 19057, Note_off_c, 1, 69, 127
1, 19057, Note_off_c, 14, 69, 127
1, 19065, Note_off_c, 4, 50, 127
1, 19067, Note_off_c, 0, 66, 83
1, 19067, Note_off_c, 12, 66, 83
1, 19080, Note_off_c, 4, 38, 127
1, 19080, Note_off_c, 13, 38, 127
1, 19115, Note_on_c, 1, 62, 127
1, 19115, Note_on_c, 14, 62, 127
1, 19142, Note_off_c, 1, 62, 127
1, 19142, Note_off_c, 14, 62, 127
1, 19195, Note_on_c, 3, 76, 126
1, 19195, Note_on_c, 3, 60, 122
1, 19195, Note_on_c, 13, 76, 126
1, 19196, Note_on_c, 0, 48, 127
1, 19196, Note_on_c, 0, 55, 127
1, 19196, Note_on_c, 12, 48, 127
1, 19196, Note_on_c, 12, 55, 127
1, 19198, Note_on_c, 0, 64, 126
1, 19198, Note_on_c, 0, 36, 124
1, 19198, Note_on_c, 0, 60, 126
1, 19198, Note_on_c, 12, 64, 126
1, 19200, Note_on_c, 4, 48, 127
1, 19200, Note_on_c, 4, 36, 127
1, 19200, Note_on_c, 13, 36, 127
1, 19200, Note_on_c, 9, 36, 107
1, 19200, Note_on_c, 9, 53, 107
1, 19204, Note_on_c, 2, 48, 127
1, 19204, Note_on_c, 14, 48, 127
1, 19211, Note_on_c, 1, 76, 127
1, 19211, Note_on_c, 14, 76, 127
1, 19236, Note_off_c, 0, 36, 124
1, 19238, Note_off_c, 0, 55, 127
1, 19238, Note_off_c, 12, 55, 127
1, 19238, Note_off_c, 9, 53, 107
1, 19240, Note_off_c, 0, 60, 126
1, 19240, Note_off_c, 0, 48, 127
1, 19240, Note_off_c, 12, 48, 127
1, 19246, Note_off_c, 0, 64, 126
1, 19246, Note_off_c, 12, 64, 126
1, 19248, Note_off_c, 9, 36, 107
1, 19249, Note_off_c, 1, 76, 127
1, 19249, Note_off_c, 14, 76, 127
1, 19262, Note_off_c, 2, 48, 127
1, 19262, Note_off_c, 14, 48, 127
1, 19292, Note_on_c, 0, 64, 107
1, 19292, Note_on_c, 12, 64, 107
1, 19294, Note_on_c, 0, 48, 117
1, 19294, Note_on_c, 0, 36, 112
1, 19294, Note_on_c, 0, 55, 97
1, 19294, Note_off_c, 3, 76, 126
1, 19294, Note_on_c, 12, 48, 117
1, 19294, Note_on_c, 12, 55, 97
1, 19294, Note_off_c, 13, 76, 126
1, 19296, Note_on_c, 0, 60, 101
1, 19297, Note_off_c, 3, 60, 122
1, 19300, Note_on_c, 2, 48, 127
1, 19300, Note_on_c, 14, 48, 127
1, 19307, Note_on_c, 1, 67, 127
1, 19307, Note_on_c, 14, 67, 127
1, 19344, Note_off_c, 1, 67, 127
1, 19344, Note_off_c, 14, 67, 127
1, 19350, Note_off_c, 2, 48, 127
1, 19350, Note_off_c, 14, 48, 127
1, 19369, Note_off_c, 4, 48, 127
1, 19371, Note_off_c, 4, 36, 127
1, 19371, Note_off_c, 13, 36, 127
1, 19395, Note_on_c, 1, 60, 127
1, 19395, Note_on_c, 14, 60, 127
1, 19424, Note_off_c, 1, 60, 127
1, 19424, Note_off_c, 14, 60, 127
1, 19427, Note_off_c, 0, 60, 101
1, 19443, Note_off_c, 0, 48, 117
1, 19443, Note_off_c, 12, 48, 117
1, 19448, Note_off_c, 0, 55, 97
1, 19448, Note_off_c, 12, 55, 97
1, 19465, Note_off_c, 0, 36, 112
1, 19476, Note_off_c, 0, 64, 107
1, 19476, Note_off_c, 12, 64, 107
1, 19489, Note_on_c, 1, 67, 126
1, 19489, Note_on_c, 14, 67, 126
1, 19523, Note_off_c, 1, 67, 126
1, 19523, Note_off_c, 14, 67, 126
1, 19558, Note_on_c, 3, 74, 127
1, 19558, Note_on_c, 4, 47, 127
1, 19558, Note_on_c, 4, 35, 127
1, 19558, Note_on_c, 13, 35, 127
1, 19558, Note_on_c, 13, 74, 127
1, 19560, Note_on_c, 3, 59, 119
1, 19563, Note_on_c, 2, 47, 127
1, 19563, Note_on_c, 14, 47, 127
1, 19577, Note_on_c, 1, 59, 127
1, 19577, Note_on_c, 14, 59, 127
1, 19579, Note_on_c, 0, 59, 124
1, 19579, Note_on_c, 0, 62, 119
1, 19579, Note_on_c, 0, 47, 122
1, 19579, Note_on_c, 12, 62, 119
1, 19579, Note_on_c, 12, 47, 122
1, 19580, Note_on_c, 0, 55, 124
1, 19580, Note_on_c, 12, 55, 124
1, 19584, Note_on_c, 0, 35, 117
1, 19584, Note_on_c, 1, 74, 127
1, 19584, Note_on_c, 14, 74, 127
1, 19584, Note_on_c, 9, 36, 112
1, 19584, Note_on_c, 9, 51, 117
1, 19603, Note_off_c, 3, 59, 119
1, 19609, Note_off_c, 1, 59, 127
1, 19609, Note_off_c, 14, 59, 127
1, 19617, Note_off_c, 1, 74, 127
1, 19617, Note_off_c, 14, 74, 127
1, 19619, Note_off_c, 3, 74, 127
1, 19619, Note_off_c, 13, 74, 127
1, 19620, Note_off_c, 9, 51, 117
1, 19620, Note_off_c, 9, 36, 112
1, 19628, Note_off_c, 2, 47, 127
1, 19628, Note_off_c, 14, 47, 127
1, 19736, Note_on_c, 4, 33, 127
1, 19736, Note_on_c, 13, 33, 127
1, 19737, Note_off_c, 0, 55, 124
1, 19737, Note_off_c, 12, 55, 124
1, 19739, Note_off_c, 0, 47, 122
1, 19739, Note_on_c, 4, 45, 127
1, 19739, Note_off_c, 12, 47, 122
1, 19752, Note_off_c, 0, 35, 117
1, 19755, Note_off_c, 0, 62, 119
1, 19755, Note_off_c, 12, 62, 119
1, 19758, Note_off_c, 0, 59, 124
1, 19761, Note_on_c, 2, 45, 127
1, 19761, Note_on_c, 14, 45, 127
1, 19763, Note_on_c, 3, 76, 126
1, 19763, Note_on_c, 13, 76, 126
1, 19766, Note_on_c, 3, 61, 117
1, 19769, Note_off_c, 4, 47, 127
1, 19776, Note_off_c, 4, 35, 127
1, 19776, Note_off_c, 13, 35, 127
1, 19776, Note_on_c, 9, 36, 117
1, 19776, Note_on_c, 9, 53, 117
1, 19780, Note_on_c, 1, 61, 127
1, 19780, Note_on_c, 14, 61, 127
1, 19782, Note_on_c, 1, 76, 127
1, 19782, Note_on_c, 14, 76, 127
1, 19785, Note_on_c, 0, 45, 121
1, 19785, Note_on_c, 12, 45, 121
1, 19787, Note_on_c, 0, 33, 122
1, 19787, Note_on_c, 0, 57, 126
1, 19787, Note_on_c, 12, 57, 126
1, 19788, Note_on_c, 0, 64, 127
1, 19788, Note_on_c, 0, 61, 127
1, 19788, Note_on_c, 12, 64, 127
1, 19790, Note_on_c, 3, 63, 1
1, 19811, Note_off_c, 3, 63, 1
1, 19812, Note_off_c, 9, 53, 117
1, 19832, Note_off_c, 9, 36, 117
1, 19926, Note_off_c, 3, 76, 126
1, 19926, Note_off_c, 13, 76, 126
1, 19958, Note_on_c, 3, 69, 109
1, 19958, Note_on_c, 13, 69, 109
1, 19961, Note_off_c, 3, 61, 117
1, 19963, Note_on_c, 2, 69, 127
1, 19963, Note_on_c, 14, 69, 127
1, 19964, Note_on_c, 2, 57, 127
1, 19964, Note_on_c, 14, 57, 127
1, 20016, Note_off_c, 2, 57, 127
1, 20016, Note_off_c, 2, 69, 127
1, 20016, Note_off_c, 14, 57, 127
1, 20016, Note_off_c, 14, 69, 127
1, 20046, Note_off_c, 3, 69, 109
1, 20046, Note_off_c, 13, 69, 109
1, 20048, Note_on_c, 3, 73, 126
1, 20048, Note_on_c, 13, 73, 126
1, 20049, Note_on_c, 2, 52, 121
1, 20049, Note_on_c, 14, 52, 121
1, 20056, Note_on_c, 2, 64, 127
1, 20056, Note_on_c, 14, 64, 127
1, 20086, Note_off_c, 2, 52, 121
1, 20086, Note_off_c, 14, 52, 121
1, 20096, Note_off_c, 2, 64, 127
1, 20096, Note_off_c, 14, 64, 127
1, 20137, Note_off_c, 0, 61, 127
1, 20137, Note_off_c, 0, 45, 121
1, 20137, Note_off_c, 12, 45, 121
1, 20139, Note_off_c, 0, 57, 126
1, 20139, Note_off_c, 12, 57, 126
1, 20144, Note_off_c, 0, 33, 122
1, 20145, Note_off_c, 3, 73, 126
1, 20145, Note_off_c, 13, 73, 126
1, 20147, Note_off_c, 0, 64, 127
1, 20147, Note_off_c, 12, 64, 127
1, 20148, Note_on_c, 3, 76, 127
1, 20148, Note_on_c, 13, 76, 127
1, 20158, Note_off_c, 2, 45, 127
1, 20158, Note_on_c, 2, 45, 127
1, 20158, Note_off_c, 14, 45, 127
1, 20158, Note_on_c, 14, 45, 127
1, 20161, Note_on_c, 2, 57, 127
1, 20161, Note_on_c, 14, 57, 127
1, 20200, Note_off_c, 1, 61, 127
1, 20200, Note_off_c, 14, 61, 127
1, 20206, Note_off_c, 1, 76, 127
1, 20206, Note_off_c, 14, 76, 127
1, 20240, Note_on_c, 3, 81, 124
1, 20240, Note_on_c, 13, 81, 124
1, 20268, Note_off_c, 3, 76, 127
1, 20268, Note_off_c, 13, 76, 127
1, 20310, Note_off_c, 3, 81, 124
1, 20310, Note_off_c, 13, 81, 124
1, 20342, Note_on_c, 3, 88, 127
1, 20342, Note_on_c, 13, 88, 127
1, 20344, Note_on_c, 1, 73, 127
1, 20344, Note_on_c, 14, 73, 127
1, 20348, Note_on_c, 1, 57, 124
1, 20348, Note_on_c, 14, 57, 124
1, 20390, Note_off_c, 1, 57, 124
1, 20390, Note_off_c, 1, 73, 127
1, 20390, Note_off_c, 14, 57, 124
1, 20390, Note_off_c, 14, 73, 127
1, 20433, Note_on_c, 1, 59, 121
1, 20433, Note_on_c, 14, 59, 121
1, 20435, Note_off_c, 3, 88, 127
1, 20435, Note_on_c, 3, 76, 107
1, 20435, Note_off_c, 13, 88, 127
1, 20435, Note_on_c, 13, 76, 107
1, 20436, Note_on_c, 1, 64, 126
1, 20436, Note_on_c, 14, 64, 126
1, 20473, Note_off_c, 1, 59, 121
1, 20473, Note_off_c, 14, 59, 121
1, 20486, Note_off_c, 1, 64, 126
1, 20486, Note_off_c, 14, 64, 126
1, 20489, Note_off_c, 3, 76, 107
1, 20489, Note_off_c, 13, 76, 107
1, 20528, Note_on_c, 3, 81, 109
1, 20528, Note_on_c, 13, 81, 109
1, 20532, Note_on_c, 1, 61, 124
1, 20532, Note_on_c, 14, 61, 124
1, 20535, Note_off_c, 14, 57, 127
1, 20536, Note_on_c, 1, 69, 127
1, 20536, Note_on_c, 14, 69, 127
1, 20593, Note_off_c, 3, 81, 109
1, 20593, Note_off_c, 13, 81, 109
1, 20624, Note_on_c, 3, 88, 107
1, 20624, Note_on_c, 13, 88, 107
1, 20676, Note_off_c, 3, 88, 107
1, 20676, Note_off_c, 13, 88, 107
1, 20715, Note_on_c, 3, 81, 117
1, 20715, Note_on_c, 13, 81, 117
1, 20796, Note_off_c, 3, 81, 117
1, 20796, Note_off_c, 13, 81, 117
1, 20811, Note_on_c, 3, 88, 119
1, 20811, Note_on_c, 13, 88, 119
1, 20820, Note_on_c, 3, 89, 40
1, 20835, Note_off_c, 3, 89, 40
1, 20880, Note_off_c, 3, 88, 119
1, 20880, Note_off_c, 13, 88, 119
1, 20907, Note_on_c, 3, 93, 127
1, 20907, Note_on_c, 13, 93, 127
1, 20958, Note_off_c, 2, 57, 127
1, 20958, Note_off_c, 2, 45, 127
1, 20958, Note_off_c, 14, 45, 127
1, 21022, Note_off_c, 1, 61, 124
1, 21022, Note_off_c, 14, 61, 124
1, 21038, Note_off_c, 3, 93, 127
1, 21038, Note_off_c, 13, 93, 127
1, 21040, Note_off_c, 1, 69, 127
1, 21040, Note_off_c, 14, 69, 127
1, 21110, Note_on_c, 3, 78, 124
1, 21110, Note_on_c, 13, 78, 124
1, 21121, Note_on_c, 1, 78, 122
1, 21121, Note_on_c, 14, 78, 122
1, 21124, Note_on_c, 1, 74, 126
1, 21124, Note_on_c, 14, 74, 126
1, 21126, Note_on_c, 2, 66, 124
1, 21126, Note_on_c, 14, 66, 124
1, 21128, Note_on_c, 2, 62, 121
1, 21128, Note_on_c, 14, 62, 121
1, 21132, Note_on_c, 5, 50, 127
1, 21134, Note_on_c, 2, 57, 116
1, 21155, Note_off_c, 2, 62, 121
1, 21155, Note_off_c, 3, 78, 124
1, 21155, Note_off_c, 4, 45, 127
1, 21155, Note_off_c, 4, 33, 127
1, 21155, Note_off_c, 13, 78, 124
1, 21155, Note_off_c, 13, 33, 127
1, 21155, Note_off_c, 14, 62, 121
1, 21160, Note_off_c, 1, 74, 126
1, 21160, Note_off_c, 1, 78, 122
1, 21160, Note_off_c, 2, 57, 116
1, 21160, Note_off_c, 14, 74, 126
1, 21160, Note_off_c, 14, 78, 122
1, 21166, Note_off_c, 2, 66, 124
1, 21166, Note_off_c, 14, 66, 124
1, 21176, Note_off_c, 5, 50, 127
1, 21211, Note_on_c, 3, 78, 124
1, 21211, Note_on_c, 13, 78, 124
1, 21222, Note_on_c, 2, 66, 122
1, 21222, Note_on_c, 14, 66, 122
1, 21224, Note_on_c, 1, 78, 119
1, 21224, Note_on_c, 2, 62, 106
1, 21224, Note_on_c, 5, 45, 122
1, 21224, Note_on_c, 14, 62, 106
1, 21224, Note_on_c, 14, 78, 119
1, 21225, Note_on_c, 1, 74, 121
1, 21225, Note_on_c, 14, 74, 121
1, 21227, Note_on_c, 2, 57, 116
1, 21246, Note_off_c, 2, 62, 106
1, 21246, Note_off_c, 14, 62, 106
1, 21254, Note_off_c, 1, 74, 121
1, 21254, Note_off_c, 14, 74, 121
1, 21257, Note_off_c, 2, 57, 116
1, 21259, Note_off_c, 1, 78, 119
1, 21259, Note_off_c, 14, 78, 119
1, 21260, Note_off_c, 3, 78, 124
1, 21260, Note_off_c, 13, 78, 124
1, 21264, Note_off_c, 2, 66, 122
1, 21264, Note_off_c, 14, 66, 122
1, 21273, Note_off_c, 5, 45, 122
1, 21310, Note_on_c, 3, 81, 126
1, 21310, Note_on_c, 13, 81, 126
1, 21312, Note_on_c, 4, 38, 127
1, 21312, Note_on_c, 13, 38, 127
1, 21312, Note_on_c, 9, 36, 112
1, 21312, Note_on_c, 9, 51, 127
1, 21324, Note_on_c, 2, 69, 127
1, 21324, Note_on_c, 14, 69, 127
1, 21329, Note_on_c, 1, 81, 127
1, 21329, Note_on_c, 5, 50, 127
1, 21329, Note_on_c, 14, 81, 127
1, 21331, Note_on_c, 2, 62, 114
1, 21331, Note_on_c, 14, 62, 114
1, 21332, Note_on_c, 1, 73, 121
1, 21332, Note_on_c, 14, 73, 121
1, 21334, Note_on_c, 2, 61, 116
1, 21336, Note_on_c, 9, 57, 127
1, 21339, Note_on_c, 9, 59, 127
1, 21377, Note_off_c, 9, 57, 127
1, 21403, Note_off_c, 9, 59, 127
1, 21499, Note_off_c, 9, 51, 127
1, 21504, Note_off_c, 9, 36, 112
1, 21544, Note_off_c, 2, 69, 127
1, 21544, Note_off_c, 14, 69, 127
1, 21547, Note_off_c, 2, 62, 114
1, 21547, Note_off_c, 14, 62, 114
1, 21553, Note_off_c, 1, 73, 121
1, 21553, Note_off_c, 14, 73, 121
1, 21555, Note_off_c, 2, 61, 116
1, 21558, Note_off_c, 1, 81, 127
1, 21558, Note_off_c, 3, 81, 126
1, 21558, Note_off_c, 13, 81, 126
1, 21558, Note_off_c, 14, 81, 127
1, 21598, Note_on_c, 2, 59, 121
1, 21598, Note_on_c, 2, 67, 127
1, 21598, Note_on_c, 14, 67, 127
1, 21601, Note_on_c, 2, 62, 119
1, 21601, Note_on_c, 14, 62, 119
1, 21616, Note_on_c, 3, 79, 127
1, 21616, Note_on_c, 13, 79, 127
1, 21617, Note_on_c, 1, 79, 127
1, 21617, Note_on_c, 14, 79, 127
1, 21620, Note_on_c, 1, 71, 112
1, 21620, Note_on_c, 14, 71, 112
1, 21779, Note_off_c, 3, 79, 127
1, 21779, Note_off_c, 13, 79, 127
1, 21812, Note_off_c, 1, 71, 112
1, 21812, Note_off_c, 14, 71, 112
1, 21819, Note_off_c, 1, 79, 127
1, 21819, Note_off_c, 14, 79, 127
1, 21841, Note_off_c, 2, 62, 119
1, 21841, Note_off_c, 2, 59, 121
1, 21841, Note_off_c, 14, 62, 119
1, 21859, Note_off_c, 2, 67, 127
1, 21859, Note_off_c, 14, 67, 127
1, 21878, Note_on_c, 2, 66, 124
1, 21878, Note_on_c, 14, 66, 124
1, 21883, Note_on_c, 2, 57, 112
1, 21886, Note_on_c, 2, 62, 104
1, 21886, Note_on_c, 14, 62, 104
1, 21900, Note_off_c, 5, 50, 127
1, 21902, Note_on_c, 3, 78, 127
1, 21902, Note_on_c, 5, 50, 124
1, 21902, Note_on_c, 13, 78, 127
1, 21907, Note_on_c, 1, 78, 127
1, 21907, Note_on_c, 1, 69, 121
1, 21907, Note_on_c, 14, 78, 127
1, 21907, Note_on_c, 14, 69, 121
1, 21916, Note_off_c, 2, 62, 104
1, 21916, Note_off_c, 14, 62, 104
1, 21926, Note_off_c, 2, 57, 112
1, 21934, Note_off_c, 5, 50, 124
1, 21937, Note_off_c, 2, 66, 124
1, 21937, Note_off_c, 14, 66, 124
1, 21942, Note_off_c, 3, 78, 127
1, 21942, Note_off_c, 13, 78, 127
1, 21944, Note_off_c, 1, 69, 121
1, 21944, Note_off_c, 14, 69, 121
1, 21945, Note_off_c, 1, 78, 127
1, 21945, Note_off_c, 14, 78, 127
1, 21982, Note_on_c, 2, 64, 121
1, 21982, Note_on_c, 2, 55, 114
1, 21982, Note_on_c, 2, 62, 112
1, 21982, Note_on_c, 14, 64, 121
1, 21982, Note_on_c, 14, 62, 112
1, 21990, Note_on_c, 5, 45, 119
1, 21992, Note_on_c, 3, 76, 124
1, 21992, Note_on_c, 13, 76, 124
1, 22004, Note_on_c, 1, 67, 126
1, 22004, Note_on_c, 14, 67, 126
1, 22006, Note_on_c, 1, 76, 126
1, 22006, Note_off_c, 2, 62, 112
1, 22006, Note_off_c, 14, 62, 112
1, 22006, Note_on_c, 14, 76, 126
1, 22025, Note_off_c, 2, 64, 121
1, 22025, Note_off_c, 14, 64, 121
1, 22028, Note_off_c, 5, 45, 119
1, 22032, Note_off_c, 2, 55, 114
1, 22043, Note_off_c, 1, 76, 126
1, 22043, Note_off_c, 1, 67, 126
1, 22043, Note_off_c, 3, 76, 124
1, 22043, Note_off_c, 13, 76, 124
1, 22043, Note_off_c, 14, 76, 126
1, 22043, Note_off_c, 14, 67, 126
1, 22086, Note_on_c, 2, 66, 127
1, 22086, Note_on_c, 14, 66, 127
1, 22091, Note_on_c, 2, 62, 117
1, 22091, Note_on_c, 14, 62, 117
1, 22094, Note_on_c, 2, 57, 119
1, 22094, Note_on_c, 5, 50, 127
1, 22099, Note_on_c, 3, 78, 127
1, 22099, Note_on_c, 13, 78, 127
1, 22107, Note_on_c, 1, 78, 124
1, 22107, Note_on_c, 14, 78, 124
1, 22110, Note_on_c, 1, 69, 126
1, 22110, Note_on_c, 14, 69, 126
1, 22344, Note_off_c, 5, 50, 127
1, 22459, Note_off_c, 2, 57, 119
1, 22470, Note_off_c, 2, 62, 117
1, 22470, Note_off_c, 2, 66, 127
1, 22470, Note_off_c, 14, 62, 117
1, 22470, Note_off_c, 14, 66, 127
1, 22491, Note_off_c, 1, 69, 126
1, 22491, Note_off_c, 14, 69, 126
1, 22502, Note_off_c, 3, 78, 127
1, 22502, Note_off_c, 13, 78, 127
1, 22504, Note_off_c, 1, 78, 124
1, 22504, Note_off_c, 14, 78, 124
1, 22644, Note_on_c, 1, 78, 126
1, 22644, Note_on_c, 14, 78, 126
1, 22651, Note_on_c, 1, 69, 124
1, 22651, Note_on_c, 2, 66, 119
1, 22651, Note_on_c, 2, 62, 117
1, 22651, Note_on_c, 2, 57, 122
1, 22651, Note_on_c, 14, 69, 124
1, 22651, Note_on_c, 14, 66, 119
1, 22651, Note_on_c, 14, 62, 117
1, 22662, Note_off_c, 4, 38, 127
1, 22662, Note_off_c, 13, 38, 127
1, 22667, Note_on_c, 3, 78, 122
1, 22667, Note_on_c, 13, 78, 122
1, 22673, Note_off_c, 2, 62, 117
1, 22673, Note_off_c, 14, 62, 117
1, 22678, Note_on_c, 9, 51, 117
1, 22683, Note_off_c, 2, 57, 122
1, 22686, Note_off_c, 1, 69, 124
1, 22686, Note_off_c, 1, 78, 126
1, 22686, Note_off_c, 14, 69, 124
1, 22686, Note_off_c, 14, 78, 126
1, 22689, Note_off_c, 2, 66, 119
1, 22689, Note_off_c, 14, 66, 119
1, 22707, Note_off_c, 3, 78, 122
1, 22707, Note_off_c, 13, 78, 122
1, 22721, Note_off_c, 9, 51, 117
1, 22736, Note_on_c, 2, 66, 117
1, 22736, Note_on_c, 14, 66, 117
1, 22737, Note_on_c, 2, 62, 111
1, 22737, Note_on_c, 14, 62, 111
1, 22745, Note_on_c, 2, 57, 122
1, 22750, Note_on_c, 1, 69, 122
1, 22750, Note_on_c, 1, 78, 116
1, 22750, Note_on_c, 1, 76, 119
1, 22750, Note_on_c, 14, 69, 122
1, 22750, Note_on_c, 14, 78, 116
1, 22750, Note_on_c, 14, 76, 119
1, 22760, Note_on_c, 3, 78, 121
1, 22760, Note_on_c, 13, 78, 121
1, 22763, Note_off_c, 2, 62, 111
1, 22763, Note_off_c, 14, 62, 111
1, 22769, Note_off_c, 1, 76, 119
1, 22769, Note_off_c, 14, 76, 119
1, 22777, Note_off_c, 2, 66, 117
1, 22777, Note_off_c, 14, 66, 117
1, 22779, Note_off_c, 1, 78, 116
1, 22779, Note_off_c, 14, 78, 116
1, 22785, Note_off_c, 1, 69, 122
1, 22785, Note_off_c, 2, 57, 122
1, 22785, Note_off_c, 14, 69, 122
1, 22808, Note_off_c, 3, 78, 121
1, 22808, Note_off_c, 13, 78, 121
1, 22809, Note_on_c, 9, 57, 124
1, 22812, Note_on_c, 9, 59, 127
1, 22820, Note_on_c, 5, 50, 127
1, 22822, Note_on_c, 4, 38, 127
1, 22822, Note_on_c, 13, 38, 127
1, 22838, Note_on_c, 4, 39, 83
1, 22843, Note_on_c, 1, 81, 126
1, 22843, Note_on_c, 2, 69, 127
1, 22843, Note_on_c, 14, 81, 126
1, 22843, Note_on_c, 14, 69, 127
1, 22844, Note_on_c, 1, 73, 119
1, 22844, Note_on_c, 2, 61, 112
1, 22844, Note_on_c, 14, 73, 119
1, 22848, Note_on_c, 2, 62, 117
1, 22848, Note_on_c, 14, 62, 117
1, 22854, Note_on_c, 3, 81, 127
1, 22854, Note_on_c, 13, 81, 127
1, 22859, Note_on_c, 9, 53, 112
1, 22859, Note_on_c, 9, 36, 112
1, 22870, Note_off_c, 4, 39, 83
1, 22878, Note_off_c, 9, 57, 124
1, 22891, Note_off_c, 9, 59, 127
1, 23003, Note_off_c, 3, 81, 127
1, 23003, Note_off_c, 13, 81, 127
1, 23024, Note_off_c, 9, 36, 112
1, 23024, Note_off_c, 9, 53, 112
1, 23059, Note_off_c, 1, 73, 119
1, 23059, Note_off_c, 14, 73, 119
1, 23067, Note_off_c, 2, 62, 117
1, 23067, Note_off_c, 14, 62, 117
1, 23068, Note_off_c, 1, 81, 126
1, 23068, Note_off_c, 14, 81, 126
1, 23072, Note_off_c, 2, 61, 112
1, 23089, Note_off_c, 5, 50, 127
1, 23094, Note_off_c, 2, 69, 127
1, 23094, Note_off_c, 14, 69, 127
1, 23115, Note_on_c, 3, 74, 127
1, 23115, Note_on_c, 13, 74, 127
1, 23124, Note_on_c, 2, 62, 127
1, 23124, Note_on_c, 14, 62, 127
1, 23128, Note_on_c, 2, 55, 116
1, 23129, Note_on_c, 2, 59, 116
1, 23129, Note_on_c, 14, 59, 116
1, 23134, Note_on_c, 1, 74, 127
1, 23134, Note_on_c, 14, 74, 127
1, 23136, Note_on_c, 1, 71, 124
1, 23136, Note_on_c, 14, 71, 124
1, 23139, Note_on_c, 9, 53, 112
1, 23140, Note_on_c, 9, 36, 102
1, 23188, Note_off_c, 9, 53, 112
1, 23195, Note_off_c, 9, 36, 102
1, 23307, Note_off_c, 3, 74, 127
1, 23307, Note_off_c, 13, 74, 127
1, 23308, Note_off_c, 1, 71, 124
1, 23308, Note_off_c, 14, 71, 124
1, 23312, Note_off_c, 1, 74, 127
1, 23312, Note_off_c, 14, 74, 127
1, 23337, Note_off_c, 2, 55, 116
1, 23350, Note_off_c, 2, 59, 116
1, 23350, Note_off_c, 14, 59, 116
1, 23366, Note_off_c, 2, 62, 127
1, 23366, Note_off_c, 14, 62, 127
1, 23380, Note_off_c, 4, 38, 127
1, 23380, Note_off_c, 13, 38, 127
1, 23396, Note_on_c, 9, 36, 92
1, 23400, Note_on_c, 3, 74, 126
1, 23400, Note_on_c, 13, 74, 126
1, 23403, Note_on_c, 4, 31, 127
1, 23403, Note_on_c, 4, 43, 127
1, 23403, Note_on_c, 13, 31, 127
1, 23404, Note_on_c, 9, 51, 112
1, 23412, Note_on_c, 2, 62, 124
1, 23412, Note_on_c, 14, 62, 124
1, 23416, Note_on_c, 2, 59, 111
1, 23416, Note_on_c, 2, 55, 111
1, 23416, Note_on_c, 14, 59, 111
1, 23420, Note_on_c, 5, 43, 127
1, 23424, Note_on_c, 1, 74, 127
1, 23424, Note_on_c, 14, 74, 127
1, 23428, Note_on_c, 1, 71, 119
1, 23428, Note_on_c, 14, 71, 119
1, 23432, Note_off_c, 9, 36, 92
1, 23433, Note_off_c, 9, 51, 112
1, 23446, Note_off_c, 1, 71, 119
1, 23446, Note_off_c, 3, 74, 126
1, 23446, Note_off_c, 13, 74, 126
1, 23446, Note_off_c, 14, 71, 119
1, 23451, Note_off_c, 2, 59, 111
1, 23451, Note_off_c, 14, 59, 111
1, 23459, Note_off_c, 2, 55, 111
1, 23459, Note_off_c, 5, 43, 127
1, 23460, Note_off_c, 2, 62, 124
1, 23460, Note_off_c, 14, 62, 124
1, 23465, Note_off_c, 1, 74, 127
1, 23465, Note_off_c, 14, 74, 127
1, 23488, Note_off_c, 4, 43, 127
1, 23492, Note_on_c, 3, 76, 127
1, 23492, Note_on_c, 13, 76, 127
1, 23497, Note_off_c, 4, 31, 127
1, 23497, Note_off_c, 13, 31, 127
1, 23502, Note_on_c, 4, 45, 127
1, 23502, Note_on_c, 4, 33, 127
1, 23502, Note_on_c, 13, 33, 127
1, 23512, Note_on_c, 9, 36, 102
1, 23513, Note_on_c, 2, 64, 127
1, 23513, Note_on_c, 14, 64, 127
1, 23513, Note_on_c, 9, 51, 122
1, 23515, Note_on_c, 1, 76, 127
1, 23515, Note_on_c, 14, 76, 127
1, 23518, Note_on_c, 1, 69, 126
1, 23518, Note_on_c, 14, 69, 126
1, 23521, Note_on_c, 2, 57, 122
1, 23524, Note_on_c, 2, 61, 121
1, 23524, Note_on_c, 5, 45, 127
1, 23524, Note_on_c, 14, 61, 121
1, 23556, Note_off_c, 9, 51, 122
1, 23556, Note_off_c, 9, 36, 102
1, 23697, Note_on_c, 9, 45, 107
1, 23721, Note_off_c, 9, 45, 107
1, 23748, Note_on_c, 9, 45, 92
1, 23784, Note_off_c, 9, 45, 92
1, 23798, Note_on_c, 9, 45, 112
1, 23833, Note_off_c, 9, 45, 112
1, 23894, Note_on_c, 9, 45, 84
1, 23940, Note_off_c, 9, 45, 84
1, 23980, Note_on_c, 9, 43, 112
1, 24008, Note_off_c, 3, 76, 127
1, 24008, Note_off_c, 13, 76, 127
1, 24009, Note_off_c, 1, 69, 126
1, 24009, Note_off_c, 2, 61, 121
1, 24009, Note_off_c, 14, 61, 121
1, 24009, Note_off_c, 14, 69, 126
1, 24011, Note_off_c, 2, 57, 122
1, 24014, Note_off_c, 9, 43, 112
1, 24016, Note_off_c, 1, 76, 127
1, 24016, Note_off_c, 2, 64, 127
1, 24016, Note_off_c, 14, 76, 127
1, 24016, Note_off_c, 14, 64, 127
1, 24078, Note_on_c, 9, 43, 80
1, 24134, Note_off_c, 9, 43, 80
1, 24172, Note_on_c, 9, 41, 112
1, 24182, Note_on_c, 3, 78, 124
1, 24182, Note_on_c, 13, 78, 124
1, 24185, Note_on_c, 1, 74, 127
1, 24185, Note_on_c, 1, 62, 127
1, 24185, Note_on_c, 14, 74, 127
1, 24185, Note_on_c, 14, 62, 127
1, 24193, Note_on_c, 2, 62, 127
1, 24193, Note_on_c, 14, 62, 127
1, 24196, Note_on_c, 2, 50, 127
1, 24196, Note_on_c, 14, 50, 127
1, 24200, Note_off_c, 4, 33, 127
1, 24200, Note_off_c, 13, 33, 127
1, 24201, Note_off_c, 4, 45, 127
1, 24201, Note_off_c, 14, 62, 127
1, 24217, Note_off_c, 9, 41, 112
1, 24227, Note_off_c, 2, 62, 127
1, 24227, Note_off_c, 14, 62, 127
1, 24233, Note_off_c, 1, 62, 127
1, 24233, Note_off_c, 1, 74, 127
1, 24233, Note_off_c, 14, 74, 127
1, 24236, Note_off_c, 2, 50, 127
1, 24236, Note_off_c, 14, 50, 127
1, 24262, Note_on_c, 3, 81, 124
1, 24262, Note_on_c, 13, 81, 124
1, 24270, Note_off_c, 3, 78, 124
1, 24270, Note_off_c, 13, 78, 124
1, 24275, Note_off_c, 5, 45, 127
1, 24278, Note_on_c, 9, 43, 76
1, 24280, Note_on_c, 2, 61, 127
1, 24280, Note_on_c, 14, 61, 127
1, 24283, Note_on_c, 1, 69, 121
1, 24283, Note_on_c, 2, 49, 127
1, 24283, Note_on_c, 14, 69, 121
1, 24283, Note_on_c, 14, 49, 127
1, 24284, Note_on_c, 1, 57, 122
1, 24284, Note_on_c, 14, 57, 122
1, 24310, Note_off_c, 9, 43, 76
1, 24324, Note_off_c, 2, 61, 127
1, 24324, Note_off_c, 14, 61, 127
1, 24331, Note_off_c, 1, 57, 122
1, 24331, Note_off_c, 1, 69, 121
1, 24331, Note_off_c, 14, 57, 122
1, 24331, Note_off_c, 14, 69, 121
1, 24332, Note_off_c, 2, 49, 127
1, 24332, Note_off_c, 14, 49, 127
1, 24342, Note_off_c, 3, 81, 124
1, 24342, Note_off_c, 13, 81, 124
1, 24360, Note_on_c, 3, 86, 127
1, 24360, Note_on_c, 13, 86, 127
1, 24363, Note_on_c, 4, 50, 127
1, 24371, Note_on_c, 4, 38, 127
1, 24371, Note_on_c, 13, 38, 127
1, 24377, Note_on_c, 9, 57, 127
1, 24377, Note_on_c, 9, 59, 127
1, 24384, Note_on_c, 2, 50, 127
1, 24384, Note_on_c, 14, 50, 127
1, 24384, Note_on_c, 9, 51, 117
1, 24384, Note_on_c, 9, 36, 102
1, 24385, Note_on_c, 2, 62, 127
1, 24385, Note_on_c, 14, 62, 127
1, 24388, Note_on_c, 1, 74, 127
1, 24388, Note_on_c, 14, 74, 127
1, 24390, Note_on_c, 1, 62, 127
1, 24390, Note_on_c, 14, 62, 127
1, 24392, Note_on_c, 5, 50, 127
1, 24395, Note_off_c, 14, 62, 127
1, 24486, Note_off_c, 9, 51, 117
1, 24513, Note_off_c, 9, 57, 127
1, 24532, Note_off_c, 1, 62, 127
1, 24532, Note_off_c, 14, 62, 127
1, 24532, Note_off_c, 9, 36, 102
1, 24569, Note_off_c, 1, 74, 127
1, 24569, Note_off_c, 14, 74, 127
1, 24571, Note_on_c, 1, 69, 111
1, 24571, Note_on_c, 14, 69, 111
1, 24574, Note_off_c, 2, 50, 127
1, 24574, Note_off_c, 14, 50, 127
1, 24579, Note_on_c, 1, 66, 117
1, 24579, Note_on_c, 14, 66, 117
1, 24580, Note_off_c, 2, 62, 127
1, 24611, Note_off_c, 1, 66, 117
1, 24611, Note_off_c, 1, 69, 111
1, 24611, Note_off_c, 14, 66, 117
1, 24611, Note_off_c, 14, 69, 111
1, 24667, Note_on_c, 1, 71, 106
1, 24667, Note_on_c, 1, 67, 119
1, 24667, Note_on_c, 14, 71, 106
1, 24667, Note_on_c, 14, 67, 119
1, 24672, Note_on_c, 9, 36, 73
1, 24672, Note_on_c, 9, 51, 88
1, 24688, Note_on_c, 2, 50, 127
1, 24689, Note_on_c, 2, 38, 127
1, 24689, Note_on_c, 14, 38, 127
1, 24691, Note_off_c, 9, 51, 88
1, 24700, Note_off_c, 5, 50, 127
1, 24704, Note_off_c, 9, 36, 73
1, 24705, Note_off_c, 1, 71, 106
1, 24705, Note_off_c, 14, 71, 106
1, 24712, Note_off_c, 1, 67, 119
1, 24712, Note_off_c, 14, 67, 119
1, 24718, Note_off_c, 9, 59, 127
1, 24763, Note_on_c, 1, 71, 126
1, 24763, Note_on_c, 14, 71, 126
1, 24766, Note_on_c, 1, 67, 126
1, 24766, Note_on_c, 14, 67, 126
1, 24768, Note_on_c, 9, 36, 88
1, 24768, Note_on_c, 9, 51, 122
1, 24833, Note_off_c, 9, 51, 122
1, 24835, Note_off_c, 9, 36, 88
1, 24859, Note_on_c, 1, 69, 114
1, 24859, Note_on_c, 14, 69, 114
1, 24862, Note_off_c, 1, 67, 126
1, 24862, Note_off_c, 1, 71, 126
1, 24862, Note_off_c, 14, 67, 126
1, 24862, Note_off_c, 14, 71, 126
1, 24867, Note_on_c, 1, 66, 114
1, 24867, Note_on_c, 14, 66, 114
1, 24902, Note_off_c, 1, 69, 114
1, 24902, Note_off_c, 14, 69, 114
1, 24908, Note_off_c, 1, 66, 114
1, 24908, Note_off_c, 14, 66, 114
1, 24960, Note_on_c, 1, 69, 106
1, 24960, Note_on_c, 14, 69, 106
1, 24968, Note_on_c, 1, 66, 109
1, 24968, Note_on_c, 14, 66, 109
1, 24995, Note_off_c, 1, 66, 109
1, 24995, Note_off_c, 14, 66, 109
1, 25009, Note_off_c, 1, 69, 106
1, 25009, Note_off_c, 14, 69, 106
1, 25051, Note_on_c, 1, 74, 119
1, 25051, Note_on_c, 14, 74, 119
1, 25054, Note_on_c, 1, 67, 119
1, 25054, Note_on_c, 14, 67, 119
1, 25056, Note_on_c, 9, 51, 92
1, 25056, Note_on_c, 9, 36, 92
1, 25076, Note_off_c, 9, 36, 92
1, 25086, Note_off_c, 9, 51, 92
1, 25088, Note_off_c, 1, 67, 119
1, 25088, Note_off_c, 1, 74, 119
1, 25088, Note_off_c, 14, 67, 119
1, 25088, Note_off_c, 14, 74, 119
1, 25142, Note_on_c, 1, 74, 126
1, 25142, Note_on_c, 14, 74, 126
1, 25145, Note_on_c, 1, 67, 124
1, 25145, Note_off_c, 4, 38, 127
1, 25145, Note_on_c, 4, 38, 127
1, 25145, Note_off_c, 13, 38, 127
1, 25145, Note_on_c, 13, 38, 127
1, 25145, Note_on_c, 14, 67, 124
1, 25152, Note_on_c, 9, 51, 117
1, 25152, Note_on_c, 9, 36, 97
1, 25160, Note_off_c, 4, 50, 127
1, 25216, Note_off_c, 9, 36, 97
1, 25217, Note_off_c, 9, 51, 117
1, 25222, Note_off_c, 1, 67, 124
1, 25222, Note_off_c, 14, 67, 124
1, 25236, Note_off_c, 1, 74, 126
1, 25236, Note_off_c, 14, 74, 126
1, 25241, Note_on_c, 1, 66, 97
1, 25241, Note_on_c, 14, 66, 97
1, 25243, Note_on_c, 1, 69, 112
1, 25243, Note_on_c, 14, 69, 112
1, 25275, Note_off_c, 1, 66, 97
1, 25275, Note_off_c, 14, 66, 97
1, 25291, Note_off_c, 1, 69, 112
1, 25291, Note_off_c, 14, 69, 112
1, 25337, Note_on_c, 1, 66, 121
1, 25337, Note_on_c, 14, 66, 121
1, 25339, Note_on_c, 1, 69, 114
1, 25339, Note_on_c, 14, 69, 114
1, 25379, Note_off_c, 1, 69, 114
1, 25379, Note_off_c, 14, 69, 114
1, 25380, Note_off_c, 1, 66, 121
1, 25380, Note_off_c, 14, 66, 121
1, 25432, Note_on_c, 1, 74, 117
1, 25432, Note_on_c, 1, 67, 124
1, 25432, Note_on_c, 14, 74, 117
1, 25432, Note_on_c, 14, 67, 124
1, 25440, Note_on_c, 9, 36, 97
1, 25440, Note_on_c, 9, 51, 112
1, 25465, Note_off_c, 9, 51, 112
1, 25465, Note_off_c, 9, 36, 97
1, 25472, Note_off_c, 1, 67, 124
1, 25472, Note_off_c, 14, 67, 124
1, 25473, Note_off_c, 1, 74, 117
1, 25473, Note_off_c, 14, 74, 117
1, 25526, Note_on_c, 1, 76, 126
1, 25526, Note_on_c, 1, 67, 127
1, 25526, Note_on_c, 14, 76, 126
1, 25526, Note_on_c, 14, 67, 127
1, 25536, Note_on_c, 9, 36, 102
1, 25536, Note_on_c, 9, 51, 122
1, 25550, Note_off_c, 3, 86, 127
1, 25550, Note_off_c, 13, 86, 127
1, 25552, Note_off_c, 2, 38, 127
1, 25552, Note_off_c, 14, 38, 127
1, 25560, Note_off_c, 2, 50, 127
1, 25574, Note_off_c, 1, 67, 127
1, 25574, Note_off_c, 14, 67, 127
1, 25580, Note_off_c, 1, 76, 126
1, 25580, Note_off_c, 14, 76, 126
1, 25611, Note_off_c, 9, 36, 102
1, 25612, Note_off_c, 9, 51, 122
1, 25614, Note_on_c, 1, 69, 114
1, 25614, Note_on_c, 14, 69, 114
1, 25657, Note_off_c, 1, 69, 114
1, 25657, Note_off_c, 14, 69, 114
1, 25710, Note_on_c, 1, 67, 127
1, 25710, Note_on_c, 3, 79, 127
1, 25710, Note_on_c, 13, 79, 127
1, 25710, Note_on_c, 14, 67, 127
1, 25712, Note_on_c, 1, 76, 124
1, 25712, Note_on_c, 14, 76, 124
1, 25747, Note_off_c, 1, 67, 127
1, 25747, Note_off_c, 14, 67, 127
1, 25764, Note_off_c, 1, 76, 124
1, 25764, Note_off_c, 14, 76, 124
1, 25779, Note_off_c, 3, 79, 127
1, 25779, Note_off_c, 13, 79, 127
1, 25793, Note_on_c, 3, 81, 121
1, 25793, Note_on_c, 13, 81, 121
1, 25809, Note_on_c, 1, 79, 124
1, 25809, Note_on_c, 14, 79, 124
1, 25824, Note_on_c, 9, 53, 92
1, 25824, Note_on_c, 9, 36, 60
1, 25833, Note_off_c, 9, 36, 60
1, 25843, Note_off_c, 1, 79, 124
1, 25843, Note_off_c, 14, 79, 124
1, 25848, Note_off_c, 9, 53, 92
1, 25883, Note_off_c, 3, 81, 121
1, 25883, Note_off_c, 13, 81, 121
1, 25894, Note_on_c, 3, 86, 127
1, 25894, Note_on_c, 13, 86, 127
1, 25904, Note_on_c, 1, 69, 121
1, 25904, Note_on_c, 14, 69, 121
1, 25910, Note_on_c, 1, 78, 127
1, 25910, Note_on_c, 14, 78, 127
1, 25920, Note_on_c, 9, 53, 92
1, 25920, Note_on_c, 9, 36, 97
1, 25940, Note_off_c, 1, 69, 121
1, 25940, Note_off_c, 14, 69, 121
1, 25953, Note_off_c, 9, 36, 97
1, 25953, Note_off_c, 9, 53, 92
1, 25956, Note_off_c, 1, 78, 127
1, 25956, Note_off_c, 14, 78, 127
1, 26001, Note_on_c, 1, 74, 124
1, 26001, Note_on_c, 14, 74, 124
1, 26038, Note_off_c, 1, 74, 124
1, 26038, Note_off_c, 14, 74, 124
1, 26094, Note_on_c, 1, 74, 127
1, 26094, Note_on_c, 14, 74, 127
1, 26097, Note_on_c, 9, 59, 127
1, 26099, Note_on_c, 1, 62, 126
1, 26099, Note_on_c, 14, 62, 126
1, 26102, Note_on_c, 2, 69, 127
1, 26102, Note_on_c, 14, 69, 127
1, 26104, Note_on_c, 2, 62, 127
1, 26104, Note_on_c, 2, 66, 127
1, 26104, Note_on_c, 14, 62, 127
1, 26105, Note_off_c, 1, 62, 126
1, 26105, Note_off_c, 14, 62, 127
1, 26107, Note_on_c, 1, 62, 117
1, 26107, Note_on_c, 3, 81, 119
1, 26107, Note_on_c, 13, 81, 119
1, 26107, Note_on_c, 14, 62, 117
1, 26109, Note_off_c, 14, 62, 126
1, 26110, Note_on_c, 1, 81, 127
1, 26110, Note_on_c, 14, 81, 127
1, 26112, Note_on_c, 5, 50, 117
1, 26112, Note_on_c, 9, 36, 112
1, 26112, Note_on_c, 9, 53, 92
1, 26121, Note_off_c, 9, 53, 92
1, 26126, Note_off_c, 9, 36, 112
1, 26128, Note_off_c, 9, 59, 127
1, 26137, Note_off_c, 1, 74, 127
1, 26137, Note_off_c, 14, 74, 127
1, 26142, Note_off_c, 2, 66, 127
1, 26150, Note_off_c, 2, 62, 127
1, 26150, Note_off_c, 2, 69, 127
1, 26150, Note_off_c, 3, 86, 127
1, 26150, Note_off_c, 13, 86, 127
1, 26150, Note_off_c, 14, 62, 117
1, 26150, Note_off_c, 14, 69, 127
1, 26152, Note_off_c, 5, 50, 117
1, 26182, Note_off_c, 3, 81, 119
1, 26182, Note_on_c, 3, 88, 107
1, 26182, Note_off_c, 13, 81, 119
1, 26182, Note_on_c, 13, 88, 107
1, 26187, Note_on_c, 1, 74, 127
1, 26187, Note_on_c, 14, 74, 127
1, 26190, Note_off_c, 1, 62, 117
1, 26190, Note_on_c, 1, 62, 124
1, 26190, Note_on_c, 14, 62, 124
1, 26193, Note_on_c, 2, 62, 124
1, 26193, Note_on_c, 14, 62, 124
1, 26195, Note_on_c, 2, 69, 127
1, 26195, Note_on_c, 2, 66, 127
1, 26195, Note_on_c, 14, 69, 127
1, 26196, Note_off_c, 14, 62, 124
1, 26208, Note_on_c, 5, 50, 116
1, 26238, Note_off_c, 1, 74, 127
1, 26238, Note_off_c, 2, 66, 127
1, 26238, Note_off_c, 14, 74, 127
1, 26244, Note_off_c, 2, 62, 124
1, 26244, Note_off_c, 14, 62, 124
1, 26248, Note_off_c, 1, 62, 124
1, 26251, Note_off_c, 2, 69, 127
1, 26251, Note_off_c, 14, 69, 127
1, 26257, Note_off_c, 5, 50, 116
1, 26273, Note_off_c, 3, 88, 107
1, 26273, Note_off_c, 13, 88, 107
1, 26275, Note_off_c, 1, 81, 127
1, 26275, Note_off_c, 14, 81, 127
1, 26276, Note_off_c, 4, 38, 127
1, 26276, Note_off_c, 13, 38, 127
1, 26283, Note_on_c, 4, 43, 127
1, 26284, Note_on_c, 4, 31, 127
1, 26284, Note_on_c, 13, 31, 127
1, 26291, Note_on_c, 3, 86, 127
1, 26291, Note_on_c, 13, 86, 127
1, 26292, Note_on_c, 2, 71, 127
1, 26292, Note_on_c, 14, 71, 127
1, 26294, Note_on_c, 2, 62, 127
1, 26294, Note_on_c, 2, 67, 127
1, 26294, Note_on_c, 14, 62, 127
1, 26296, Note_on_c, 1, 67, 121
1, 26296, Note_on_c, 1, 79, 127
1, 26296, Note_on_c, 14, 67, 121
1, 26296, Note_on_c, 14, 79, 127
1, 26297, Note_on_c, 3, 79, 122
1, 26297, Note_on_c, 13, 79, 122
1, 26299, Note_on_c, 9, 59, 119
1, 26300, Note_on_c, 9, 57, 121
1, 26304, Note_on_c, 9, 38, 117
1, 26304, Note_on_c, 9, 51, 127
1, 26305, Note_on_c, 5, 43, 127
1, 26324, Note_off_c, 9, 51, 127
1, 26339, Note_off_c, 9, 38, 117
1, 26355, Note_off_c, 9, 57, 121
1, 26384, Note_off_c, 9, 59, 119
1, 26387, Note_off_c, 1, 79, 127
1, 26387, Note_off_c, 1, 67, 121
1, 26387, Note_off_c, 3, 79, 122
1, 26387, Note_off_c, 3, 86, 127
1, 26387, Note_off_c, 13, 79, 122
1, 26387, Note_off_c, 13, 86, 127
1, 26387, Note_off_c, 14, 79, 127
1, 26387, Note_off_c, 14, 67, 121
1, 26454, Note_off_c, 5, 43, 127
1, 26459, Note_off_c, 2, 71, 127
1, 26459, Note_off_c, 14, 71, 127
1, 26467, Note_off_c, 2, 67, 127
1, 26472, Note_off_c, 2, 62, 127
1, 26472, Note_off_c, 14, 62, 127
1, 26520, Note_off_c, 4, 31, 127
1, 26520, Note_off_c, 13, 31, 127
1, 26524, Note_off_c, 4, 43, 127
1, 26574, Note_on_c, 4, 43, 127
1, 26585, Note_on_c, 1, 67, 127
1, 26585, Note_on_c, 14, 67, 127
1, 26588, Note_on_c, 1, 55, 124
1, 26588, Note_on_c, 5, 43, 127
1, 26588, Note_on_c, 14, 55, 124
1, 26592, Note_on_c, 3, 79, 127
1, 26592, Note_on_c, 13, 79, 127
1, 26592, Note_on_c, 9, 53, 102
1, 26592, Note_on_c, 9, 40, 117
1, 26593, Note_on_c, 2, 59, 127
1, 26593, Note_on_c, 2, 55, 127
1, 26593, Note_on_c, 14, 55, 127
1, 26595, Note_on_c, 2, 62, 127
1, 26595, Note_on_c, 3, 71, 117
1, 26595, Note_on_c, 13, 71, 117
1, 26595, Note_on_c, 14, 62, 127
1, 26598, Note_off_c, 14, 55, 124
1, 26624, Note_off_c, 9, 53, 102
1, 26628, Note_off_c, 9, 40, 117
1, 26632, Note_off_c, 5, 43, 127
1, 26633, Note_on_c, 4, 31, 127
1, 26633, Note_on_c, 13, 31, 127
1, 26672, Note_off_c, 3, 71, 117
1, 26672, Note_off_c, 13, 71, 117
1, 26673, Note_off_c, 3, 79, 127
1, 26673, Note_off_c, 13, 79, 127
1, 26700, Note_off_c, 2, 55, 127
1, 26700, Note_off_c, 14, 55, 127
1, 26705, Note_off_c, 1, 55, 124
1, 26705, Note_off_c, 1, 67, 127
1, 26705, Note_off_c, 14, 67, 127
1, 26720, Note_off_c, 2, 62, 127
1, 26720, Note_off_c, 2, 59, 127
1, 26720, Note_off_c, 14, 62, 127
1, 26729, Note_off_c, 4, 31, 127
1, 26729, Note_off_c, 4, 43, 127
1, 26729, Note_off_c, 13, 31, 127
1, 26852, Note_on_c, 4, 33, 127
1, 26852, Note_on_c, 4, 45, 127
1, 26852, Note_on_c, 13, 33, 127
1, 26862, Note_on_c, 1, 57, 126
1, 26862, Note_on_c, 14, 57, 126
1, 26865, Note_on_c, 1, 69, 127
1, 26865, Note_on_c, 3, 73, 112
1, 26865, Note_on_c, 13, 73, 112
1, 26865, Note_on_c, 14, 69, 127
1, 26867, Note_on_c, 3, 81, 127
1, 26867, Note_on_c, 13, 81, 127
1, 26870, Note_on_c, 5, 45, 127
1, 26880, Note_on_c, 9, 38, 117
1, 26880, Note_on_c, 9, 51, 122
1, 26883, Note_on_c, 9, 59, 127
1, 26888, Note_on_c, 9, 57, 119
1, 26891, Note_on_c, 2, 57, 127
1, 26891, Note_on_c, 14, 57, 127
1, 26892, Note_on_c, 2, 64, 127
1, 26892, Note_on_c, 2, 61, 127
1, 26892, Note_on_c, 14, 64, 127
1, 26904, Note_off_c, 9, 57, 119
1, 26905, Note_off_c, 9, 51, 122
1, 26920, Note_off_c, 14, 57, 126
1, 26921, Note_off_c, 9, 38, 117
1, 26924, Note_off_c, 9, 59, 127
1, 26956, Note_off_c, 5, 45, 127
1, 26966, Note_off_c, 3, 73, 112
1, 26966, Note_off_c, 13, 73, 112
1, 26971, Note_off_c, 3, 81, 127
1, 26971, Note_off_c, 13, 81, 127
1, 27016, Note_off_c, 2, 57, 127
1, 27016, Note_off_c, 14, 57, 127
1, 27024, Note_off_c, 2, 61, 127
1, 27035, Note_off_c, 2, 64, 127
1, 27035, Note_off_c, 14, 64, 127
1, 27092, Note_off_c, 4, 33, 127
1, 27092, Note_off_c, 13, 33, 127
1, 27099, Note_off_c, 4, 45, 127
1, 27131, Note_off_c, 1, 69, 127
1, 27131, Note_off_c, 14, 69, 127
1, 27163, Note_off_c, 1, 57, 126
1, 27168, Note_on_c, 5, 45, 127
1, 27192, Note_on_c, 2, 57, 127
1, 27192, Note_on_c, 2, 45, 127
1, 27192, Note_on_c, 14, 57, 127
1, 27192, Note_on_c, 14, 45, 127
1, 27209, Note_off_c, 5, 45, 127
1, 27264, Note_on_c, 9, 51, 127
1, 27264, Note_on_c, 9, 38, 112
1, 27268, Note_on_c, 1, 69, 114
1, 27268, Note_on_c, 14, 69, 114
1, 27300, Note_off_c, 2, 45, 127
1, 27300, Note_off_c, 2, 57, 127
1, 27300, Note_off_c, 14, 45, 127
1, 27300, Note_off_c, 14, 57, 127
1, 27300, Note_off_c, 9, 51, 127
1, 27304, Note_off_c, 1, 69, 114
1, 27304, Note_off_c, 14, 69, 114
1, 27304, Note_off_c, 9, 38, 112
1, 27366, Note_on_c, 1, 76, 117
1, 27366, Note_on_c, 14, 76, 117
1, 27393, Note_off_c, 1, 76, 117
1, 27393, Note_off_c, 14, 76, 117
1, 27456, Note_on_c, 9, 36, 117
1, 27456, Note_on_c, 9, 53, 117
1, 27457, Note_on_c, 4, 38, 127
1, 27457, Note_on_c, 13, 38, 127
1, 27459, Note_on_c, 1, 74, 127
1, 27459, Note_on_c, 1, 78, 127
1, 27459, Note_on_c, 3, 86, 127
1, 27459, Note_on_c, 13, 86, 127
1, 27459, Note_on_c, 14, 74, 127
1, 27459, Note_on_c, 14, 78, 127
1, 27473, Note_on_c, 2, 50, 127
1, 27473, Note_on_c, 14, 50, 127
1, 27475, Note_on_c, 5, 50, 127
1, 27476, Note_on_c, 2, 38, 127
1, 27476, Note_on_c, 14, 38, 127
1, 27513, Note_off_c, 9, 36, 117
1, 27516, Note_off_c, 9, 53, 117
1, 27550, Note_off_c, 1, 78, 127
1, 27550, Note_off_c, 1, 74, 127
1, 27550, Note_off_c, 14, 78, 127
1, 27550, Note_off_c, 14, 74, 127
1, 27555, Note_off_c, 3, 86, 127
1, 27555, Note_off_c, 13, 86, 127
1, 27558, Note_on_c, 3, 81, 107
1, 27558, Note_on_c, 13, 81, 107
1, 27560, Note_on_c, 1, 69, 114
1, 27560, Note_on_c, 14, 69, 114
1, 27563, Note_on_c, 1, 76, 104
1, 27563, Note_on_c, 14, 76, 104
1, 27571, Note_off_c, 5, 50, 127
1, 27592, Note_off_c, 3, 81, 107
1, 27592, Note_off_c, 13, 81, 107
1, 27593, Note_off_c, 1, 76, 104
1, 27593, Note_off_c, 14, 76, 104
1, 27598, Note_off_c, 1, 69, 114
1, 27598, Note_off_c, 14, 69, 114
1, 27638, Note_on_c, 3, 74, 88
1, 27638, Note_on_c, 13, 74, 88
1, 27660, Note_on_c, 1, 69, 111
1, 27660, Note_on_c, 14, 69, 111
1, 27662, Note_on_c, 1, 76, 112
1, 27662, Note_on_c, 14, 76, 112
1, 27683, Note_off_c, 3, 74, 88
1, 27683, Note_off_c, 13, 74, 88
1, 27694, Note_off_c, 1, 76, 112
1, 27694, Note_off_c, 14, 76, 112
1, 27700, Note_off_c, 1, 69, 111
1, 27700, Note_off_c, 14, 69, 111
1, 27731, Note_on_c, 3, 81, 104
1, 27731, Note_on_c, 13, 81, 104
1, 27747, Note_on_c, 1, 78, 127
1, 27747, Note_on_c, 1, 74, 127
1, 27747, Note_on_c, 14, 78, 127
1, 27747, Note_on_c, 14, 74, 127
1, 27777, Note_off_c, 3, 81, 104
1, 27777, Note_off_c, 13, 81, 104
1, 27822, Note_off_c, 1, 74, 127
1, 27822, Note_on_c, 3, 86, 124
1, 27822, Note_on_c, 13, 86, 124
1, 27822, Note_off_c, 14, 74, 127
1, 27827, Note_off_c, 1, 78, 127
1, 27827, Note_off_c, 14, 78, 127
1, 27838, Note_on_c, 1, 69, 112
1, 27838, Note_on_c, 14, 69, 112
1, 27843, Note_on_c, 1, 76, 97
1, 27843, Note_on_c, 14, 76, 97
1, 27864, Note_off_c, 1, 76, 97
1, 27864, Note_off_c, 14, 76, 97
1, 27875, Note_off_c, 1, 69, 112
1, 27875, Note_off_c, 14, 69, 112
1, 27915, Note_off_c, 3, 86, 124
1, 27915, Note_off_c, 13, 86, 124
1, 27923, Note_on_c, 3, 81, 92
1, 27923, Note_on_c, 13, 81, 92
1, 27936, Note_on_c, 1, 69, 112
1, 27936, Note_on_c, 14, 69, 112
1, 27937, Note_on_c, 1, 76, 117
1, 27937, Note_on_c, 14, 76, 117
1, 27968, Note_off_c, 3, 81, 92
1, 27968, Note_off_c, 13, 81, 92
1, 27974, Note_off_c, 1, 76, 117
1, 27974, Note_off_c, 1, 69, 112
1, 27974, Note_off_c, 14, 76, 117
1, 27974, Note_off_c, 14, 69, 112
1, 28019, Note_on_c, 3, 74, 92
1, 28019, Note_on_c, 13, 74, 92
1, 28030, Note_on_c, 1, 78, 127
1, 28030, Note_on_c, 14, 78, 127
1, 28032, Note_on_c, 1, 74, 127
1, 28032, Note_on_c, 14, 74, 127
1, 28033, Note_on_c, 5, 50, 122
1, 28065, Note_off_c, 3, 74, 92
1, 28065, Note_off_c, 13, 74, 92
1, 28067, Note_off_c, 5, 50, 122
1, 28072, Note_off_c, 1, 74, 127
1, 28072, Note_off_c, 14, 74, 127
1, 28076, Note_off_c, 1, 78, 127
1, 28076, Note_off_c, 14, 78, 127
1, 28110, Note_on_c, 3, 81, 101
1, 28110, Note_on_c, 13, 81, 101
1, 28126, Note_on_c, 1, 69, 117
1, 28126, Note_on_c, 1, 76, 122
1, 28126, Note_on_c, 14, 69, 117
1, 28126, Note_on_c, 14, 76, 122
1, 28163, Note_off_c, 3, 81, 101
1, 28163, Note_off_c, 13, 81, 101
1, 28164, Note_off_c, 1, 76, 122
1, 28164, Note_off_c, 14, 76, 122
1, 28166, Note_off_c, 1, 69, 117
1, 28166, Note_off_c, 14, 69, 117
1, 28196, Note_off_c, 2, 38, 127
1, 28196, Note_off_c, 14, 38, 127
1, 28204, Note_off_c, 2, 50, 127
1, 28204, Note_on_c, 3, 86, 127
1, 28204, Note_on_c, 13, 86, 127
1, 28204, Note_off_c, 14, 50, 127
1, 28212, Note_on_c, 5, 50, 127
1, 28219, Note_on_c, 9, 59, 121
1, 28224, Note_on_c, 9, 57, 88
1, 28224, Note_on_c, 9, 36, 112
1, 28224, Note_on_c, 9, 53, 112
1, 28228, Note_on_c, 1, 78, 127
1, 28228, Note_on_c, 14, 78, 127
1, 28230, Note_on_c, 1, 74, 127
1, 28230, Note_on_c, 14, 74, 127
1, 28241, Note_off_c, 9, 57, 88
1, 28243, Note_on_c, 2, 50, 127
1, 28243, Note_on_c, 2, 38, 127
1, 28243, Note_on_c, 14, 50, 127
1, 28243, Note_on_c, 14, 38, 127
1, 28244, Note_off_c, 5, 50, 127
1, 28254, Note_off_c, 9, 59, 121
1, 28281, Note_off_c, 9, 53, 112
1, 28286, Note_off_c, 3, 86, 127
1, 28286, Note_off_c, 13, 86, 127
1, 28308, Note_off_c, 1, 74, 127
1, 28308, Note_off_c, 14, 74, 127
1, 28316, Note_off_c, 1, 78, 127
1, 28316, Note_off_c, 14, 78, 127
1, 28318, Note_off_c, 9, 36, 112
1, 28329, Note_off_c, 4, 38, 127
1, 28329, Note_off_c, 13, 38, 127
1, 28350, Note_off_c, 2, 38, 127
1, 28350, Note_off_c, 14, 38, 127
1, 28358, Note_off_c, 2, 50, 127
1, 28358, Note_off_c, 14, 50, 127
1, 262143, End_track
0, 0, End_of_file
